<svg width="300" height="138" viewBox="0 0 300 138" fill="none" xmlns="http://www.w3.org/2000/svg">
<path fill-rule="evenodd" clip-rule="evenodd" d="M273.817 136.057C273.531 103.138 260.214 71.6634 236.766 48.4862C213.318 25.3089 181.637 12.3049 148.62 12.3049C115.602 12.3049 83.9216 25.3089 60.4736 48.4862C37.0257 71.6634 23.7088 103.138 23.4219 136.057H273.817Z" fill="#FFFEFD"/>
<path d="M13.7861 136.057H286.213" stroke="#091E25" stroke-width="2" stroke-miterlimit="22.93"/>
<path d="M9.07744 136.057H0" stroke="#091E25" stroke-width="2" stroke-miterlimit="22.93"/>
<path d="M300 136.057H290.932" stroke="#091E25" stroke-width="2" stroke-miterlimit="22.93"/>
<path fill-rule="evenodd" clip-rule="evenodd" d="M190 24.9075V58.7166L166.273 82.6241H132.727L109 58.7166V24.9075L132.727 1H166.273L190 24.9075Z" fill="#7AC5CD" stroke="#091E25" stroke-miterlimit="10"/>
<path fill-rule="evenodd" clip-rule="evenodd" d="M182.559 27.9355V56.1366L162.774 76.0816H134.785L115 56.1366V27.9355L134.785 8H162.774L182.559 27.9355Z" fill="#FFFEFD" stroke="#091E25" stroke-width="0.83" stroke-miterlimit="10"/>
<path d="M153.153 82.6241H144.734V136H153.153V82.6241Z" fill="#FFFEFD" stroke="#091E25" stroke-miterlimit="22.93"/>
<path fill-rule="evenodd" clip-rule="evenodd" d="M209.512 130.327H181.479L181.99 128.423L182.986 124.692L183.591 122.442L184.485 119.115L186.197 112.702L187.081 109.375L193.336 86H197.664L199.953 94.5673L203.909 109.375L204.802 112.702L206.515 119.115L207.408 122.442L209 128.423L209.512 130.327Z" fill="#FFFEFD"/>
<path fill-rule="evenodd" clip-rule="evenodd" d="M209.512 130.327H181.479L181.99 128.423L182.986 124.692L183.591 122.442L184.485 119.115L186.197 112.702L187.081 109.375L193.336 86H197.664L199.953 94.5673L203.909 109.375L204.802 112.702L206.515 119.115L207.408 122.442L209 128.423L209.512 130.327Z" stroke="#091E25" stroke-miterlimit="10"/>
<path d="M218 117.208H173V122.997H218V117.208Z" fill="#7AC5CD" stroke="#091E25" stroke-miterlimit="22.93"/>
<path d="M218 130.212H173V136H218V130.212Z" stroke="#091E25" stroke-miterlimit="22.93"/>
<path d="M218 130.212H173V136H218V130.212Z" fill="#7AC5CD" stroke="#091E25" stroke-miterlimit="22.93"/>
<path d="M245.109 76.9999C261.678 76.9999 275.085 63.5685 275.055 46.9999C275.024 30.4314 261.569 17 245 17C228.431 17 215.024 30.4314 215.055 46.9999C215.085 63.5685 228.541 76.9999 245.109 76.9999Z" fill="#FFFEFD" stroke="#091E25" stroke-width="2" stroke-miterlimit="22.93"/>
<path fill-rule="evenodd" clip-rule="evenodd" d="M248.357 33L247.591 51.2339H242.06L241.322 33H248.357ZM244.925 61.0202C244.409 61.0472 243.892 60.9719 243.405 60.7987C242.919 60.6256 242.471 60.358 242.088 60.0114C241.737 59.6995 241.458 59.3155 241.271 58.8858C241.083 58.4562 240.991 57.991 241.001 57.5224C240.99 57.044 241.081 56.5688 241.269 56.1283C241.456 55.6878 241.736 55.2921 242.088 54.9674C242.468 54.6162 242.915 54.3443 243.402 54.1678C243.89 53.9913 244.407 53.9138 244.925 53.9398C245.431 53.9181 245.936 53.9979 246.41 54.1744C246.884 54.3509 247.318 54.6206 247.686 54.9674C248.039 55.2921 248.318 55.6878 248.505 56.1283C248.693 56.5688 248.784 57.044 248.773 57.5224C248.783 57.991 248.691 58.4562 248.503 58.8858C248.316 59.3155 248.037 59.6995 247.686 60.0114C246.935 60.698 245.943 61.0606 244.925 61.0202Z" fill="#091E25"/>
<path fill-rule="evenodd" clip-rule="evenodd" d="M129 36.2086L131.39 38.606C133.635 36.3519 136.3 34.5636 139.235 33.3436C142.169 32.1235 145.314 31.4955 148.49 31.4955C151.666 31.4955 154.811 32.1235 157.745 33.3436C160.68 34.5636 163.345 36.3519 165.59 38.606L168 36.2086C165.441 33.6366 162.402 31.5961 159.055 30.2038C155.709 28.8116 152.122 28.095 148.5 28.095C144.878 28.095 141.291 28.8116 137.945 30.2038C134.598 31.5961 131.559 33.6366 129 36.2086Z" fill="#091E25"/>
<path fill-rule="evenodd" clip-rule="evenodd" d="M148.49 40.5221C146.494 40.5192 144.517 40.9131 142.674 41.681C140.83 42.4489 139.157 43.5756 137.75 44.9959L140.14 47.3533C142.355 45.1321 145.358 43.8844 148.49 43.8844C151.622 43.8844 154.625 45.1321 156.84 47.3533L159.23 44.9658C157.821 43.5509 156.146 42.4298 154.303 41.6671C152.459 40.9045 150.484 40.5153 148.49 40.5221Z" fill="#091E25"/>
<path fill-rule="evenodd" clip-rule="evenodd" d="M148.49 34.3128C145.682 34.3095 142.901 34.8625 140.306 35.9401C137.711 37.0177 135.354 38.5987 133.37 40.5922L135.76 42.9897C137.432 41.3109 139.417 39.9791 141.602 39.0704C143.787 38.1618 146.13 37.6941 148.495 37.6941C150.861 37.6941 153.203 38.1618 155.388 39.0704C157.573 39.9791 159.558 41.3109 161.23 42.9897L163.62 40.5922C161.634 38.5992 159.275 37.0188 156.678 35.9412C154.082 34.8637 151.3 34.3104 148.49 34.3128Z" fill="#091E25"/>
<path fill-rule="evenodd" clip-rule="evenodd" d="M148.49 46.7313C146.107 46.7281 143.819 47.6732 142.13 49.3595L144.19 51.4259L148.49 56.0001L152.88 51.3657L154.88 49.3595C154.04 48.5209 153.043 47.8571 151.946 47.4061C150.85 46.9551 149.675 46.7257 148.49 46.7313Z" fill="#091E25"/>
<path d="M139.32 52.5794L164.83 27" stroke="#091E25" stroke-width="2" stroke-miterlimit="22.93"/>
<path d="M140.24 53.5022L165.74 27.9128" stroke="#FFFEFD" stroke-width="2" stroke-miterlimit="22.93"/>
</svg>
