<svg width="300" height="140" viewBox="0 0 300 140" fill="none" xmlns="http://www.w3.org/2000/svg">
<path fill-rule="evenodd" clip-rule="evenodd" d="M273.808 139.05C273.952 122.437 270.82 105.96 264.593 90.5699C258.366 75.1799 249.167 61.1816 237.527 49.3831C225.887 37.5846 212.038 28.2196 196.777 21.8285C181.517 15.4375 165.147 12.147 148.615 12.147C132.082 12.147 115.713 15.4375 100.452 21.8285C85.1914 28.2196 71.3416 37.5846 59.702 49.3831C48.0624 61.1816 38.8635 75.1799 32.6364 90.5699C26.4092 105.96 23.2771 122.437 23.4207 139.05H273.808Z" fill="#FFFEFD"/>
<path d="M164.353 20.4329H98.4492V139.05H164.353V20.4329Z" fill="#FFFEFD"/>
<path d="M164.826 139.525H97.9766V19.9578H164.826V139.525ZM98.9221 138.575H163.88V20.9079H98.9221V138.575Z" fill="#091E25"/>
<path d="M152.156 2.4751H143.079V11.5966H152.156V2.4751Z" fill="#7AC5CD"/>
<path d="M152.629 12.0716H142.606V2H152.629V12.0716ZM143.551 11.1215H151.683V2.95015H143.551V11.1215Z" fill="#091E25"/>
<path fill-rule="evenodd" clip-rule="evenodd" d="M164.353 20.4614H98.4397L103.574 11.72H159.228L164.353 20.4614Z" fill="#7AC5CD"/>
<path d="M165.185 20.9364H97.6172L103.29 11.2449H159.484L165.185 20.9364ZM99.2719 19.9863H163.568L158.992 12.195H103.848L99.2719 19.9863Z" fill="#091E25"/>
<path d="M148.582 118.08H113.606V138.869H148.582V118.08Z" fill="#7AC5CD"/>
<path d="M149.054 139.354H113.124V117.605H149.054V139.354ZM114.07 138.404H148.109V118.555H114.07V138.404Z" fill="#091E25"/>
<path d="M234.153 76.1213H164.353V139.05H234.153V76.1213Z" fill="#FFFEFD"/>
<path d="M234.626 139.525H163.881V75.6462H234.626V139.525ZM164.826 138.575H233.68V76.5964H164.826V138.575Z" fill="#091E25"/>
<path d="M195.348 91.1052H173.79V110.488H195.348V91.1052Z" fill="#FFFEFD"/>
<path d="M195.821 110.963H173.317V90.6301H195.821V110.963ZM174.262 110.013H194.876V91.5803H174.262V110.013Z" fill="#091E25"/>
<path d="M224.707 120.816H173.79V139.05H224.707V120.816Z" fill="#FFFEFD"/>
<path d="M225.18 139.525H173.317V120.341H225.18V139.525ZM174.262 138.575H224.234V121.291H174.262V138.575Z" fill="#091E25"/>
<path fill-rule="evenodd" clip-rule="evenodd" d="M135.685 29.9629V32.7278V57.6028V58.743H136.63H152.279V57.6028V33.2694V32.7278V29.9629H135.685Z" fill="#FFFEFD"/>
<path d="M152.752 59.2085H135.212V29.4878H152.752V59.2085ZM136.157 58.2584H151.806V30.4379H136.157V58.2584Z" fill="#091E25"/>
<path fill-rule="evenodd" clip-rule="evenodd" d="M110.524 29.9629V32.7278V57.6028V58.743H111.469H127.119V57.6028V33.2694V32.7278V29.9629H110.524Z" fill="#FFFEFD"/>
<path d="M127.591 59.2085H110.051V29.4878H127.591V59.2085ZM110.997 58.2584H126.646V30.4379H110.997V58.2584Z" fill="#091E25"/>
<path fill-rule="evenodd" clip-rule="evenodd" d="M135.685 66.4868V69.2422V94.0887V95.2194H136.63H152.279V94.0887V69.7838V69.2422V66.4868H135.685Z" fill="#FFFEFD"/>
<path d="M152.752 95.6944H135.212V66.0117H152.752V95.6944ZM136.157 94.7443H151.806V66.9619H136.157V94.7443Z" fill="#091E25"/>
<path fill-rule="evenodd" clip-rule="evenodd" d="M110.524 66.4868V69.2422V94.0887V95.2194H111.469H127.119V94.0887V69.7838V69.2422V66.4868H110.524Z" fill="#FFFEFD"/>
<path d="M127.591 95.6944H110.051V66.0117H127.591V95.6944ZM110.997 94.7443H126.646V66.9619H110.997V94.7443Z" fill="#091E25"/>
<path fill-rule="evenodd" clip-rule="evenodd" d="M164.353 54.0017H219.081L237.055 76.1212H164.353V54.0017Z" fill="#7AC5CD"/>
<path d="M238.058 76.5963H163.881V53.5266H219.308L238.058 76.5963ZM164.826 75.6461H236.063L218.854 54.4768H164.826V75.6461Z" fill="#091E25"/>
<path d="M224.707 91.1052H203.148V110.488H224.707V91.1052Z" fill="#FFFEFD"/>
<path d="M225.18 110.963H202.676V90.6301H225.18V110.963ZM203.621 110.013H224.235V91.5803H203.621V110.013Z" fill="#091E25"/>
<path d="M164.353 106.137H98.4492V107.087H164.353V106.137Z" fill="#091E25"/>
<path d="M57.3565 139.05H56.4109V75.3423H67.5686V86.079H66.623V76.2924H57.3565V139.05Z" fill="#091E25"/>
<path fill-rule="evenodd" clip-rule="evenodd" d="M63.3794 93.3L65.8473 85.8318H68.3342L70.8116 93.3H63.3794Z" fill="#F4F4F4"/>
<path d="M71.4641 93.775H62.7271L65.507 85.3567H68.6747L71.4641 93.775ZM64.0414 92.8249H70.1498L67.9939 86.3068H66.1878L64.0414 92.8249Z" fill="#091E25"/>
<path d="M104.379 87.2002H78.7727V125.928H104.379V87.2002Z" fill="#FFFEFD"/>
<path d="M104.852 126.403H78.3V86.7251H104.852V126.403ZM79.2456 125.453H103.906V87.6752H79.2456V125.453Z" fill="#091E25"/>
<path d="M92.0481 125.919H91.1025V139.04H92.0481V125.919Z" fill="#091E25"/>
<path d="M76.8059 128.978H75.8604V139.05H76.8059V128.978Z" fill="#091E25"/>
<path d="M87.2919 121.898C89.7999 115.813 86.9245 108.838 80.8695 106.318C74.8145 103.797 67.8729 106.687 65.3649 112.771C62.8569 118.855 65.7323 125.831 71.7872 128.351C77.8422 130.872 84.7839 127.982 87.2919 121.898Z" fill="#FFFEFD"/>
<path d="M76.3338 129.729C73.9046 129.729 71.5299 129.006 69.5094 127.65C67.489 126.295 65.9135 124.369 64.9817 122.115C64.05 119.86 63.8038 117.379 64.2743 114.985C64.7448 112.59 65.9108 110.389 67.6252 108.659C69.3396 106.93 71.5255 105.75 73.9068 105.268C76.2882 104.786 78.7583 105.024 81.0052 105.952C83.2521 106.879 85.1752 108.455 86.5316 110.48C87.8879 112.505 88.6168 114.888 88.6262 117.329C88.6237 120.609 87.3293 123.754 85.0259 126.078C82.7226 128.401 79.5975 129.714 76.3338 129.729ZM76.3338 105.89C74.0896 105.89 71.8958 106.558 70.0298 107.811C68.1639 109.064 66.7095 110.845 65.8507 112.928C64.9919 115.011 64.7672 117.304 65.205 119.516C65.6428 121.727 66.7235 123.759 68.3104 125.354C69.8973 126.948 71.9191 128.034 74.1201 128.474C76.3212 128.914 78.6027 128.688 80.676 127.825C82.7494 126.962 84.5215 125.501 85.7683 123.626C87.0151 121.751 87.6806 119.546 87.6806 117.291C87.6681 114.271 86.4687 111.378 84.3434 109.243C82.2182 107.107 79.3393 105.902 76.3338 105.89Z" fill="#091E25"/>
<path d="M286.204 138.1H13.7856V140H286.204V138.1Z" fill="#091E25"/>
<path d="M9.07744 138.1H0V140H9.07744V138.1Z" fill="#091E25"/>
<path d="M300 138.1H290.923V140H300V138.1Z" fill="#091E25"/>
<path d="M276.5 30C276.5 46.2924 263.292 59.5 247 59.5C230.708 59.5 217.5 46.2924 217.5 30C217.5 13.7076 230.708 0.5 247 0.5C263.292 0.5 276.5 13.7076 276.5 30Z" fill="#FFFEFD" stroke="#091E25"/>
<path d="M259.656 18.7587H250.994C250.707 17.9376 250.171 17.2262 249.462 16.7229C248.752 16.2196 247.904 15.9492 247.034 15.9492C246.164 15.9492 245.315 16.2196 244.606 16.7229C243.896 17.2262 243.361 17.9376 243.073 18.7587H234.411V44.0619H259.714L259.656 18.7587ZM247 18.7587C247.276 18.7663 247.544 18.8551 247.77 19.014C247.996 19.1729 248.17 19.3949 248.27 19.6523C248.371 19.9096 248.393 20.1909 248.335 20.4609C248.276 20.7309 248.139 20.9776 247.942 21.1703C247.744 21.363 247.493 21.4931 247.222 21.5442C246.95 21.5954 246.67 21.5654 246.415 21.458C246.161 21.3506 245.943 21.1706 245.791 20.9404C245.638 20.7102 245.556 20.4401 245.556 20.1639C245.556 19.9761 245.594 19.7901 245.667 19.6171C245.74 19.444 245.847 19.2874 245.981 19.1564C246.116 19.0254 246.275 18.9227 246.45 18.8544C246.625 18.7861 246.812 18.7535 247 18.7587ZM249.81 38.4314H239.974V35.6211H249.81V38.4314ZM254.036 32.8107H239.974V30.0003H254.036V32.8107ZM254.036 27.1899H239.974V24.3891H254.036V27.1899Z" fill="#091E25"/>
</svg>
