<svg width="300" height="137" viewBox="0 0 300 137" fill="none" xmlns="http://www.w3.org/2000/svg">
<g clip-path="url(#clip0_1455_2571)">
<path fill-rule="evenodd" clip-rule="evenodd" d="M273.817 136.065C273.531 103.072 260.214 71.5283 236.766 48.2998C213.318 25.0713 181.637 12.0386 148.62 12.0386C115.602 12.0386 83.9216 25.0713 60.4736 48.2998C37.0257 71.5283 23.7088 103.072 23.4219 136.065H273.817Z" fill="#FEFEFE"/>
<path d="M286.213 135.11H13.7861V137H286.213V135.11Z" fill="#091E25"/>
<path d="M9.06799 135.11H0V137H9.06799V135.11Z" fill="#091E25"/>
<path d="M300.01 135.11H290.932V137H300.01V135.11Z" fill="#091E25"/>
<path fill-rule="evenodd" clip-rule="evenodd" d="M183.364 25.5877H177C176.943 21.1545 175.328 16.8826 172.438 13.5192C169.547 10.1557 165.566 7.91482 161.189 7.18851C156.812 6.46221 152.319 7.29672 148.496 9.54606C144.673 11.7954 141.763 15.3164 140.275 19.4931C139.599 21.4539 139.257 23.5139 139.263 25.5877H132.909C132.907 19.4324 135.16 13.4893 139.241 8.87902C143.322 4.26874 148.95 1.30985 155.064 0.560254C161.178 -0.189338 167.355 1.32217 172.431 4.80977C177.506 8.29738 181.129 13.5201 182.617 19.4931C183.117 21.486 183.368 23.5331 183.364 25.5877Z" fill="#7AC5CD"/>
<path d="M183.733 25.9562H176.632V25.5877C176.638 23.5556 176.302 21.537 175.639 19.616C174.218 15.4789 171.375 11.9791 167.616 9.73831C163.857 7.49755 159.425 6.66093 155.107 7.37708C150.789 8.09322 146.865 10.3158 144.031 13.6498C141.198 16.9839 139.639 21.2137 139.632 25.5877V25.9562H132.531V25.5877C132.465 22.1867 133.079 18.8068 134.336 15.6457C135.593 12.4846 137.469 9.60574 139.853 7.17744C142.236 4.74915 145.081 2.82018 148.219 1.50336C151.358 0.186544 154.728 -0.491699 158.132 -0.491699C161.536 -0.491699 164.906 0.186544 168.044 1.50336C171.183 2.82018 174.027 4.74915 176.411 7.17744C178.795 9.60574 180.67 12.4846 181.927 15.6457C183.185 18.8068 183.798 22.1867 183.733 25.5877V25.9562ZM177.369 25.2097H182.986C182.887 19.1835 180.599 13.3989 176.548 8.93366C172.497 4.46842 166.96 1.62714 160.968 0.93924C154.976 0.251341 148.938 1.76374 143.979 5.19464C139.021 8.62554 135.479 13.7409 134.015 19.5876C133.551 21.4265 133.303 23.3134 133.278 25.2097H138.894C138.933 23.2201 139.287 21.2491 139.944 19.3703C141.398 15.0833 144.32 11.447 148.195 9.10199C152.07 6.75702 156.648 5.85395 161.124 6.55193C165.6 7.24991 169.685 9.50414 172.661 12.9174C175.636 16.3306 177.31 20.6838 177.388 25.2097H177.369Z" fill="#091E25"/>
<path d="M201.406 25.5876H114.858V136.055H201.406V25.5876Z" fill="#7AC5CD"/>
<path d="M201.784 136.424H114.489V25.2097H201.784V136.424ZM115.236 135.677H201.037V25.9562H115.236V135.677Z" fill="#091E25"/>
<path d="M191.893 25.9567H187.137H182.381V25.2097H191.893V25.9567Z" fill="black"/>
<path fill-rule="evenodd" clip-rule="evenodd" d="M182.381 135.611V25.5876H191.893V125.812L182.381 135.611Z" fill="#F4F4F4"/>
<path d="M182.012 136.537V25.2097H192.272V125.964L182.012 136.537ZM182.759 25.9845V134.685L191.525 125.661V25.9562L182.759 25.9845Z" fill="#091E25"/>
<path fill-rule="evenodd" clip-rule="evenodd" d="M164.34 25.5878H157.985V25.1343C157.976 24.5878 157.938 24.0421 157.872 23.4996C157.729 22.1883 157.447 20.8959 157.03 19.6444L156.983 19.4932C155.693 15.7866 153.28 12.5733 150.079 10.2993C146.878 8.02533 143.049 6.80355 139.121 6.80355C135.194 6.80355 131.364 8.02533 128.163 10.2993C124.963 12.5733 122.55 15.7866 121.26 19.4932C120.584 21.4541 120.242 23.5141 120.248 25.5878H113.894C113.911 19.4457 116.171 13.521 120.25 8.92656C124.33 4.33208 129.947 1.38386 136.048 0.63559C142.149 -0.112684 148.313 1.39047 153.383 4.86275C158.453 8.33503 162.08 13.5375 163.583 19.4932C164.086 21.4857 164.34 23.5329 164.34 25.5878Z" fill="#7AC5CD"/>
<path d="M164.718 25.9562H157.607V25.5877L157.986 25.4838H157.607V25.2475L157.976 25.1341H157.607C157.607 24.605 157.56 24.0664 157.494 23.5373C157.354 22.251 157.075 20.9837 156.662 19.7577L156.614 19.616C155.193 15.4789 152.351 11.9791 148.592 9.73832C144.833 7.49757 140.4 6.66095 136.082 7.37709C131.764 8.09323 127.84 10.3158 125.007 13.6499C122.174 16.9839 120.615 21.2137 120.607 25.5877V25.9562H113.468V25.5877C113.468 18.8014 116.166 12.2931 120.968 7.49446C125.77 2.69584 132.283 0 139.074 0C145.865 0 152.378 2.69584 157.18 7.49446C161.982 12.2931 164.68 18.8014 164.68 25.5877L164.718 25.9562ZM158.354 25.2097H163.962C163.862 19.1836 161.574 13.3989 157.523 8.93367C153.472 4.46843 147.935 1.62715 141.943 0.939254C135.951 0.251355 129.914 1.76376 124.955 5.19465C119.996 8.62555 116.455 13.7409 114.991 19.5876C114.526 21.4265 114.279 23.3134 114.253 25.2097H119.87C119.903 23.2211 120.25 21.2502 120.9 19.3703C122.197 15.5726 124.65 12.2753 127.916 9.94053C131.182 7.60574 135.097 6.3504 139.112 6.3504C143.128 6.3504 147.042 7.60574 150.308 9.94053C153.574 12.2753 156.027 15.5726 157.324 19.3703L157.371 19.5215C157.798 20.8009 158.089 22.1215 158.241 23.4617C158.298 24.0097 158.335 24.5767 158.345 25.1341L158.354 25.2097Z" fill="#091E25"/>
<path d="M182.759 37.1721H182.012V136.055H182.759V37.1721Z" fill="black"/>
<path fill-rule="evenodd" clip-rule="evenodd" d="M201.406 135.611V25.5876H191.894V125.812L201.406 135.611Z" fill="#F4F4F4"/>
<path d="M201.784 136.537L191.524 125.964V25.2097H201.784V136.537ZM192.271 125.671L201.037 134.694V25.9562H192.271V125.671Z" fill="#091E25"/>
<path d="M182.381 25.5876H95.833V136.055H182.381V25.5876Z" fill="#F4F4F4"/>
<path d="M182.759 136.424H95.5024V25.2097H182.797L182.759 136.424ZM96.2116 135.677H182.012V25.9562H96.2116V135.677Z" fill="#091E25"/>
</g>
<defs>
<clipPath id="clip0_1455_2571">
<rect width="300" height="137" fill="white"/>
</clipPath>
</defs>
</svg>
