<svg width="250" height="186" viewBox="0 0 250 186" fill="none" xmlns="http://www.w3.org/2000/svg">
<path d="M81.6501 77.9712H28.0601V185H81.6501V77.9712Z" fill="#FFFEFD" stroke="#091E25" stroke-width="0.56" stroke-miterlimit="10"/>
<path d="M221.94 77.9712H168.35V185H221.94V77.9712Z" fill="#FFFEFD" stroke="#091E25" stroke-width="0.56" stroke-miterlimit="10"/>
<path d="M38.3 160.755V164.889H71.42V160.755H38.3Z" fill="#7AC5CD" stroke="#091E25" stroke-width="0.56" stroke-miterlimit="10"/>
<path d="M38.29 148.212V152.346H71.41V148.212H38.29Z" fill="#7AC5CD" stroke="#091E25" stroke-width="0.56" stroke-miterlimit="10"/>
<path d="M38.29 135.69V139.824H71.41V135.69H38.29Z" fill="#7AC5CD" stroke="#091E25" stroke-width="0.56" stroke-miterlimit="10"/>
<path d="M38.3 123.158V127.292H71.4201V123.158H38.3Z" fill="#7AC5CD" stroke="#091E25" stroke-width="0.56" stroke-miterlimit="10"/>
<path d="M38.29 110.615V114.75H71.41V110.615H38.29Z" fill="#7AC5CD" stroke="#091E25" stroke-width="0.56" stroke-miterlimit="10"/>
<path d="M38.29 98.0729V102.207H71.41V98.0729H38.29Z" fill="#7AC5CD" stroke="#091E25" stroke-width="0.56" stroke-miterlimit="10"/>
<path d="M230.36 184.99V131.476H239.06V140.163" stroke="#091E25" stroke-miterlimit="10"/>
<path d="M178.59 160.744V164.878H211.71V160.744H178.59Z" fill="#7AC5CD" stroke="#091E25" stroke-width="0.56" stroke-miterlimit="10"/>
<path d="M178.59 148.212V152.346H211.71V148.212H178.59Z" fill="#7AC5CD" stroke="#091E25" stroke-width="0.56" stroke-miterlimit="10"/>
<path d="M178.59 135.69V139.824H211.71V135.69H178.59Z" fill="#7AC5CD" stroke="#091E25" stroke-width="0.56" stroke-miterlimit="10"/>
<path d="M178.59 123.148V127.282H211.71V123.148H178.59Z" fill="#7AC5CD" stroke="#091E25" stroke-width="0.56" stroke-miterlimit="10"/>
<path d="M178.59 110.615V114.75H211.71V110.615H178.59Z" fill="#7AC5CD" stroke="#091E25" stroke-width="0.56" stroke-miterlimit="10"/>
<path d="M178.59 98.0729V102.207H211.71V98.0729H178.59Z" fill="#7AC5CD" stroke="#091E25" stroke-width="0.56" stroke-miterlimit="10"/>
<path d="M232.73 152.586L236.94 139.954H241.17L245.38 152.586H232.73Z" fill="#7AC5CD" stroke="#091E25" stroke-width="0.56" stroke-miterlimit="10"/>
<path d="M168.36 11.8247H81.6499V184.99H168.36V11.8247Z" fill="#FFFEFD" stroke="#091E25" stroke-width="0.56" stroke-miterlimit="10"/>
<path d="M125 164.549H103.01V184.99H125V164.549Z" fill="#FFFEFD" stroke="#091E25" stroke-width="0.56" stroke-miterlimit="10"/>
<path d="M125 154.333H103.01V164.549H125V154.333Z" fill="#FFFEFD" stroke="#091E25" stroke-width="0.56" stroke-miterlimit="10"/>
<path d="M146.99 164.549H125V184.99H146.99V164.549Z" fill="#FFFEFD" stroke="#091E25" stroke-width="0.56" stroke-miterlimit="10"/>
<path d="M146.99 154.333H125V164.549H146.99V154.333Z" fill="#FFFEFD" stroke="#091E25" stroke-width="0.56" stroke-miterlimit="10"/>
<path d="M117.67 22.6494H103.01V144.108H117.67V22.6494Z" fill="#7AC5CD" stroke="#091E25" stroke-width="0.56" stroke-miterlimit="10"/>
<path d="M146.99 22.6494H132.33V144.108H146.99V22.6494Z" fill="#7AC5CD" stroke="#091E25" stroke-width="0.56" stroke-miterlimit="10"/>
<path d="M176.77 1H73.23V11.8247H176.77V1Z" fill="#7AC5CD" stroke="#091E25" stroke-width="0.56" stroke-miterlimit="10"/>
<path d="M33.3999 129.638H5.88989V170.98H33.3999V129.638Z" fill="#7AC5CD" stroke="#091E25" stroke-width="0.56" stroke-miterlimit="10"/>
<path d="M19.6399 184.99V170.98" stroke="#091E25" stroke-width="2.81" stroke-miterlimit="10"/>
<path d="M176.77 103.455C171.579 103.457 166.505 101.922 162.188 99.0434C157.871 96.165 154.507 92.0727 152.519 87.2844C150.532 82.496 150.012 77.2266 151.024 72.1428C152.036 67.059 154.535 62.3892 158.206 58.724C161.876 55.0589 166.552 52.5631 171.643 51.5523C176.734 50.5416 182.011 51.0613 186.806 53.0458C191.601 55.0303 195.699 58.3903 198.582 62.7009C201.464 67.0115 203.002 72.079 203 77.2623C202.992 84.2067 200.226 90.8644 195.309 95.7748C190.391 100.685 183.724 103.447 176.77 103.455Z" fill="#FFFEFD"/>
<path d="M176.77 51.6487C181.851 51.6467 186.818 53.1498 191.043 55.9677C195.268 58.7856 198.561 62.7917 200.505 67.479C202.449 72.1664 202.958 77.3243 201.966 82.3002C200.973 87.2761 198.525 91.8462 194.931 95.4324C191.337 99.0185 186.759 101.46 181.775 102.446C176.791 103.433 171.627 102.922 166.934 100.977C162.242 99.0313 158.233 95.7399 155.414 91.5186C152.595 87.2974 151.094 82.3361 151.1 77.2625C151.116 70.4707 153.826 63.9619 158.637 59.1612C163.448 54.3606 169.969 51.6592 176.77 51.6487ZM176.77 50.5303C171.469 50.5283 166.287 52.0962 161.878 55.0357C157.469 57.9751 154.033 62.1541 152.003 67.0441C149.973 71.9341 149.441 77.3154 150.474 82.5074C151.507 87.6994 154.058 92.4689 157.806 96.2126C161.554 99.9564 166.329 102.506 171.528 103.54C176.727 104.573 182.116 104.044 187.014 102.018C191.911 99.9932 196.097 96.563 199.043 92.1618C201.988 87.7605 203.56 82.5859 203.56 77.2925C203.56 70.1964 200.738 63.3909 195.714 58.3723C190.69 53.3537 183.876 50.5329 176.77 50.5303Z" fill="#091E25"/>
<path d="M182.52 80.7071H181.31L180.88 80.2977C182.565 78.3383 183.425 75.803 183.278 73.2242C183.131 70.6454 181.989 68.2237 180.093 66.4677C178.196 64.7117 175.691 63.7581 173.105 63.807C170.519 63.8559 168.052 64.9035 166.223 66.73C164.394 68.5564 163.345 71.0195 163.296 73.602C163.247 76.1845 164.202 78.6855 165.961 80.5798C167.719 82.4741 170.144 83.6142 172.727 83.7609C175.309 83.9075 177.848 83.0492 179.81 81.3662L180.22 81.7956V83.0039L187.88 90.5931L190.17 88.3163L182.52 80.7071ZM173.33 80.7071C171.964 80.7091 170.629 80.3064 169.493 79.55C168.357 78.7937 167.471 77.7177 166.947 76.4582C166.424 75.1988 166.286 73.8126 166.552 72.4751C166.818 71.1375 167.475 69.9089 168.441 68.9447C169.407 67.9805 170.637 67.324 171.976 67.0585C173.316 66.7929 174.704 66.9302 175.965 67.453C177.226 67.9757 178.304 68.8604 179.061 69.995C179.819 71.1297 180.222 72.4632 180.22 73.8268C180.22 75.6516 179.494 77.4016 178.202 78.6919C176.91 79.9822 175.157 80.7071 173.33 80.7071Z" fill="#091E25"/>
<path d="M250 184.99H0" stroke="#091E25" stroke-width="1.4" stroke-miterlimit="10"/>
</svg>
