<svg width="308" height="133" viewBox="0 0 308 133" fill="none" xmlns="http://www.w3.org/2000/svg">
<g filter="url(#filter0_d_1455_2457)">
<path fill-rule="evenodd" clip-rule="evenodd" d="M277.817 124.056C277.53 91.0759 264.213 59.5444 240.765 36.3249C217.317 13.1053 185.637 0.0776367 152.619 0.0776367C119.602 0.0776367 87.9214 13.1053 64.4734 36.3249C41.0254 59.5444 27.7086 91.0759 27.4216 124.056H277.817Z" fill="#FEFEFE"/>
<path fill-rule="evenodd" clip-rule="evenodd" d="M186.589 121.902C187.627 121.902 188.642 121.595 189.505 121.019C190.368 120.443 191.04 119.624 191.437 118.666C191.835 117.708 191.939 116.654 191.736 115.637C191.534 114.621 191.034 113.686 190.3 112.953C189.566 112.22 188.631 111.721 187.613 111.519C186.595 111.316 185.54 111.42 184.581 111.817C183.622 112.214 182.802 112.886 182.225 113.748C181.649 114.61 181.341 115.623 181.341 116.66C181.344 118.05 181.897 119.382 182.881 120.364C183.865 121.347 185.198 121.9 186.589 121.902Z" fill="#7AC5CD"/>
<path d="M186.589 122.374C185.457 122.374 184.351 122.039 183.411 121.411C182.47 120.783 181.737 119.891 181.304 118.847C180.871 117.802 180.757 116.653 180.978 115.545C181.199 114.436 181.744 113.418 182.544 112.619C183.344 111.82 184.363 111.276 185.473 111.055C186.583 110.835 187.733 110.948 188.778 111.38C189.823 111.813 190.717 112.545 191.345 113.485C191.974 114.425 192.31 115.53 192.31 116.66C192.31 118.175 191.707 119.629 190.634 120.7C189.561 121.772 188.106 122.374 186.589 122.374ZM186.589 111.89C185.656 111.899 184.746 112.184 183.975 112.709C183.204 113.233 182.605 113.974 182.255 114.838C181.904 115.701 181.817 116.649 182.005 117.562C182.193 118.475 182.647 119.312 183.31 119.968C183.973 120.624 184.815 121.069 185.731 121.248C186.647 121.426 187.595 121.33 188.456 120.971C189.317 120.612 190.053 120.007 190.57 119.231C191.088 118.456 191.364 117.545 191.364 116.612C191.349 115.356 190.84 114.157 189.946 113.273C189.052 112.389 187.846 111.892 186.589 111.89Z" fill="#091E25"/>
<path fill-rule="evenodd" clip-rule="evenodd" d="M109.818 37.5366H205.207L191.44 87.3794H125.033L109.818 37.5366Z" fill="#FFFEFD"/>
<path d="M184.787 37.4267L175.976 87.292L176.907 87.4562L185.719 37.5908L184.787 37.4267Z" fill="#091E25"/>
<path d="M157.456 37.5366H156.51V87.3794H157.456V37.5366Z" fill="#091E25"/>
<path d="M128.42 37.6837L127.493 37.8442L136.111 87.4677L137.037 87.3071L128.42 37.6837Z" fill="#091E25"/>
<path d="M202.181 47.9834H113.572V48.9279H202.181V47.9834Z" fill="#091E25"/>
<path d="M198.636 61.291H117.128V62.2355H198.636V61.291Z" fill="#091E25"/>
<path d="M194.513 74.6094H121.25V75.5539H194.513V74.6094Z" fill="#091E25"/>
<path d="M205.207 109.255H115.577L124.56 87.3698L99.3604 5.46981L80.7043 2.09785L80.8651 1.15332L100.098 4.66696L100.183 4.94088L110.064 37.0548H205.831L205.661 37.6499L191.799 87.8515H125.354L116.957 108.31H205.207V109.255ZM125.382 86.907H191.08L204.583 38.0088H110.348L125.382 86.907Z" fill="#091E25"/>
<path fill-rule="evenodd" clip-rule="evenodd" d="M132.531 121.902C133.569 121.902 134.583 121.595 135.446 121.019C136.309 120.443 136.982 119.624 137.379 118.666C137.776 117.708 137.88 116.654 137.678 115.637C137.475 114.621 136.976 113.686 136.242 112.953C135.508 112.22 134.573 111.721 133.555 111.519C132.537 111.316 131.481 111.42 130.523 111.817C129.564 112.214 128.744 112.886 128.167 113.748C127.591 114.61 127.283 115.623 127.283 116.66C127.285 118.05 127.839 119.382 128.823 120.364C129.806 121.347 131.14 121.9 132.531 121.902Z" fill="#7AC5CD"/>
<path d="M132.531 122.374C131.397 122.383 130.287 122.056 129.34 121.434C128.393 120.812 127.652 119.923 127.212 118.879C126.772 117.836 126.652 116.686 126.867 115.574C127.083 114.462 127.624 113.44 128.422 112.636C129.22 111.832 130.239 111.283 131.35 111.059C132.461 110.834 133.614 110.945 134.662 111.376C135.71 111.807 136.606 112.539 137.237 113.48C137.868 114.421 138.204 115.527 138.204 116.66C138.202 118.166 137.605 119.611 136.543 120.681C135.481 121.751 134.039 122.359 132.531 122.374ZM132.531 111.89C131.596 111.89 130.682 112.167 129.904 112.686C129.127 113.204 128.521 113.942 128.163 114.805C127.805 115.668 127.711 116.618 127.894 117.534C128.076 118.45 128.527 119.291 129.188 119.952C129.849 120.612 130.691 121.062 131.609 121.244C132.526 121.426 133.476 121.333 134.34 120.975C135.204 120.618 135.942 120.013 136.462 119.236C136.981 118.459 137.259 117.546 137.259 116.612C137.244 115.364 136.741 114.172 135.858 113.289C134.974 112.407 133.78 111.904 132.531 111.89Z" fill="#091E25"/>
<path d="M206.515 64.1932L200.238 85.5645L201.146 85.8303L207.422 64.4591L206.515 64.1932Z" fill="#091E25"/>
<path d="M217.505 53.3295L212.769 69.4531L213.677 69.719L218.412 53.5954L217.505 53.3295Z" fill="#091E25"/>
<path d="M212.207 71.5069L210.009 78.9932L210.916 79.2591L213.115 71.7727L212.207 71.5069Z" fill="#091E25"/>
<path d="M290.214 123.111H17.7864V125H290.214V123.111Z" fill="#091E25"/>
<path d="M13.0774 123.111H4V125H13.0774V123.111Z" fill="#091E25"/>
<path d="M304 123.111H294.932V125H304V123.111Z" fill="#091E25"/>
</g>
<defs>
<filter id="filter0_d_1455_2457" x="0" y="0.0776367" width="308" height="132.922" filterUnits="userSpaceOnUse" color-interpolation-filters="sRGB">
<feFlood flood-opacity="0" result="BackgroundImageFix"/>
<feColorMatrix in="SourceAlpha" type="matrix" values="0 0 0 0 0 0 0 0 0 0 0 0 0 0 0 0 0 0 127 0" result="hardAlpha"/>
<feOffset dy="4"/>
<feGaussianBlur stdDeviation="2"/>
<feComposite in2="hardAlpha" operator="out"/>
<feColorMatrix type="matrix" values="0 0 0 0 0 0 0 0 0 0 0 0 0 0 0 0 0 0 0.25 0"/>
<feBlend mode="normal" in2="BackgroundImageFix" result="effect1_dropShadow_1455_2457"/>
<feBlend mode="normal" in="SourceGraphic" in2="effect1_dropShadow_1455_2457" result="shape"/>
</filter>
</defs>
</svg>
