<svg width="20" height="20" viewBox="0 0 20 20" fill="none" xmlns="http://www.w3.org/2000/svg">
<path d="M10 8C11.1046 8 12 7.10457 12 6C12 4.89543 11.1046 4 10 4C8.89543 4 8 4.89543 8 6C8 7.10457 8.89543 8 10 8Z" fill="#FFBE00"/>
<path d="M18.9999 6.04358C19.0007 6.17929 18.973 6.31378 18.9185 6.43905C18.864 6.56433 18.7838 6.67784 18.6825 6.77284L13.6369 11.6143C13.5305 11.7088 13.4456 11.8231 13.3874 11.9503C13.3292 12.0775 13.2989 12.2148 13.2984 12.3537V16H6.71898V12.3638C6.72123 12.2264 6.69426 12.09 6.63971 11.9629C6.58515 11.8358 6.50415 11.7206 6.40164 11.6244L1.33485 6.78297C1.22916 6.68822 1.14491 6.57371 1.08731 6.44653C1.02972 6.31935 1 6.1822 1 6.04358C1 5.90495 1.02972 5.7678 1.08731 5.64062C1.14491 5.51344 1.22916 5.39893 1.33485 5.30419C1.43652 5.20477 1.5585 5.12648 1.69318 5.0742C1.82785 5.02192 1.97233 4.99678 2.11761 5.00033C2.40625 5.00267 2.68284 5.1115 2.88979 5.30419L7.12093 9.35563C7.2217 9.45688 7.34327 9.53705 7.47799 9.59109C7.61271 9.64513 7.75765 9.67187 7.9037 9.66962H12.1243C12.2703 9.67187 12.4153 9.64513 12.55 9.59109C12.6847 9.53705 12.8063 9.45688 12.907 9.35563L17.1382 5.30419C17.3465 5.11467 17.623 5.00901 17.9103 5.00901C18.1977 5.00901 18.4742 5.11467 18.6825 5.30419C18.785 5.40037 18.866 5.51552 18.9206 5.64264C18.9752 5.76975 19.0021 5.90617 18.9999 6.04358Z" fill="#FFBE00"/>
</svg>
