<svg width="300" height="174" viewBox="0 0 300 174" fill="none" xmlns="http://www.w3.org/2000/svg">
<path fill-rule="evenodd" clip-rule="evenodd" d="M273.809 173.052C273.952 156.489 270.82 140.062 264.593 124.718C258.366 109.374 249.167 95.4177 237.527 83.6547C225.888 71.8916 212.038 62.5547 196.777 56.1828C181.517 49.8109 165.148 46.5303 148.615 46.5303C132.082 46.5303 115.713 49.8109 100.452 56.1828C85.1916 62.5547 71.3418 71.8916 59.7022 83.6547C48.0626 95.4177 38.8638 109.374 32.6366 124.718C26.4094 140.062 23.2773 156.489 23.421 173.052H273.809Z" fill="#FEFEFE"/>
<path d="M202.165 12.7031H111.346V173.043H202.165V12.7031Z" fill="#FFFEFD"/>
<path d="M202.638 173.526H110.921V12.2295H202.686L202.638 173.526ZM111.867 172.579H201.74V13.1768H111.914L111.867 172.579Z" fill="#091E25"/>
<path d="M103.801 162.121H102.856V173.043H103.801V162.121Z" fill="#091E25"/>
<path d="M103.329 162.434C110.457 162.434 116.236 156.644 116.236 149.503C116.236 142.362 110.457 136.572 103.329 136.572C96.2003 136.572 90.4216 142.362 90.4216 149.503C90.4216 156.644 96.2003 162.434 103.329 162.434Z" fill="#FFFEFD"/>
<path d="M103.329 162.936C100.682 162.936 98.0954 162.149 95.8951 160.677C93.6948 159.204 91.9799 157.11 90.9672 154.661C89.9545 152.212 89.6896 149.516 90.2058 146.916C90.7221 144.316 91.9964 141.928 93.8676 140.053C95.7388 138.178 98.1228 136.902 100.718 136.385C103.314 135.867 106.004 136.133 108.449 137.147C110.894 138.162 112.983 139.88 114.453 142.084C115.924 144.289 116.708 146.88 116.708 149.531C116.703 153.085 115.292 156.491 112.784 159.004C110.276 161.517 106.876 162.931 103.329 162.936ZM103.329 137.074C100.869 137.074 98.4652 137.805 96.4204 139.174C94.3756 140.542 92.7819 142.488 91.8408 144.764C90.8997 147.04 90.6534 149.545 91.1332 151.961C91.613 154.378 92.7972 156.598 94.5362 158.34C96.2752 160.082 98.4907 161.268 100.903 161.749C103.315 162.23 105.815 161.983 108.087 161.04C110.359 160.097 112.301 158.501 113.667 156.452C115.033 154.403 115.763 151.995 115.763 149.531C115.765 146.224 114.457 143.051 112.125 140.71C109.794 138.369 106.63 137.051 103.329 137.046V137.074Z" fill="#091E25"/>
<path d="M210.647 162.121H209.701V173.043H210.647V162.121Z" fill="#091E25"/>
<path d="M210.184 162.434C217.312 162.434 223.091 156.644 223.091 149.503C223.091 142.362 217.312 136.572 210.184 136.572C203.056 136.572 197.277 142.362 197.277 149.503C197.277 156.644 203.056 162.434 210.184 162.434Z" fill="#FFFEFD"/>
<path d="M210.184 162.936C207.538 162.936 204.951 162.149 202.751 160.677C200.55 159.204 198.835 157.11 197.823 154.661C196.81 152.212 196.545 149.516 197.061 146.916C197.578 144.316 198.852 141.928 200.723 140.053C202.594 138.178 204.978 136.902 207.574 136.385C210.169 135.867 212.859 136.133 215.304 137.147C217.749 138.162 219.839 139.88 221.309 142.084C222.779 144.289 223.564 146.88 223.564 149.531C223.561 153.086 222.151 156.493 219.642 159.007C217.133 161.52 213.732 162.933 210.184 162.936ZM210.184 137.074C207.725 137.074 205.321 137.805 203.276 139.174C201.231 140.542 199.637 142.488 198.696 144.764C197.755 147.04 197.509 149.545 197.989 151.961C198.468 154.378 199.653 156.598 201.392 158.34C203.131 160.082 205.346 161.268 207.758 161.749C210.17 162.23 212.67 161.983 214.942 161.04C217.214 160.097 219.156 158.501 220.523 156.452C221.889 154.403 222.618 151.995 222.618 149.531C222.621 146.224 221.312 143.051 218.981 140.71C216.649 138.369 213.485 137.051 210.184 137.046V137.074Z" fill="#091E25"/>
<path d="M77.3828 173.052H76.4373V109.375H87.6233V120.098H86.6777V110.322H77.3828V173.052Z" fill="#293032"/>
<path fill-rule="evenodd" clip-rule="evenodd" d="M83.4246 127.317L85.9019 119.861H88.3982L90.8756 127.317H83.4246Z" fill="#F4F4F4"/>
<path d="M91.5282 127.79H82.7722L85.5616 119.359H88.7387L91.5282 127.79ZM84.0771 126.843H90.2138L88.0579 120.307H86.2424L84.0771 126.843Z" fill="#293032"/>
<path d="M151.929 48.3782H142.701V23.54H151.929V48.3782ZM143.561 47.5162H151.069V24.4021H143.561V47.5162Z" fill="#091E25"/>
<path d="M170.575 48.3782H161.119V23.54H170.575V48.3782ZM161.98 47.5162H169.715V24.4021H161.98V47.5162Z" fill="#091E25"/>
<path d="M189.231 48.3782H179.775V23.54H189.231V48.3782ZM180.598 47.5162H188.333V24.4021H180.598V47.5162Z" fill="#091E25"/>
<path d="M133.51 48.3782H124.281V23.54H133.51V48.3782ZM125.142 47.5162H132.65V24.4021H125.142V47.5162Z" fill="#091E25"/>
<path d="M151.929 87.152H142.701V62.3232H151.929V87.152ZM143.561 86.2899H151.069V63.1853H143.561V86.2899Z" fill="#091E25"/>
<path d="M170.575 87.152H161.119V62.3232H170.575V87.152ZM161.98 86.2899H169.715V63.1853H161.98V86.2899Z" fill="#091E25"/>
<path d="M189.231 87.152H179.775V62.3232H189.231V87.152ZM180.598 86.2899H188.333V63.1853H180.598V86.2899Z" fill="#091E25"/>
<path d="M133.51 87.152H124.281V62.3232H133.51V87.152ZM125.142 86.2899H132.65V63.1853H125.142V86.2899Z" fill="#091E25"/>
<path d="M151.929 125.934H142.701V101.105H151.929V125.934ZM143.561 125.072H151.069V101.968H143.561V125.072Z" fill="#091E25"/>
<path d="M170.575 125.934H161.119V101.105H170.575V125.934ZM161.98 125.072H169.715V101.968H161.98V125.072Z" fill="#091E25"/>
<path d="M189.231 125.934H179.775V101.105H189.231V125.934ZM180.598 125.044H188.333V101.968H180.598V125.044Z" fill="#091E25"/>
<path d="M133.51 125.934H124.281V101.105H133.51V125.934ZM125.142 125.072H132.65V101.968H125.142V125.072Z" fill="#091E25"/>
<path d="M169.895 173.526H143.608V139.509H169.895V173.526ZM144.554 172.579H168.949V140.456H144.554V172.579Z" fill="#091E25"/>
<path d="M189.325 173.526H179.652V139.509H189.297L189.325 173.526ZM180.626 172.579H188.38V140.456H180.598L180.626 172.579Z" fill="#091E25"/>
<path d="M133.718 173.526H124.073V139.509H133.718V173.526ZM125.019 172.579H132.773V140.456H125.019V172.579Z" fill="#091E25"/>
<path d="M202.146 0.473633H111.365V12.7033H202.146V0.473633Z" fill="#7AC5CD"/>
<path d="M202.61 13.1769H110.893V0H202.61V13.1769ZM111.838 12.2296H201.664V0.9473H111.838V12.2296Z" fill="#091E25"/>
<path d="M286.205 172.105H13.7859V174H286.205V172.105Z" fill="#091E25"/>
<path d="M9.07744 172.105H0V174H9.07744V172.105Z" fill="#091E25"/>
<path d="M300 172.105H290.923V174H300V172.105Z" fill="#091E25"/>
<path d="M247 93.0574C241.253 93.0574 235.635 91.3532 230.857 88.1603C226.078 84.9674 222.354 80.4293 220.155 75.1197C217.955 69.8102 217.38 63.9677 218.501 58.3311C219.622 52.6945 222.39 47.5169 226.453 43.4531C230.517 39.3894 235.695 36.6219 241.331 35.5007C246.968 34.3795 252.81 34.955 258.12 37.1543C263.43 39.3536 267.968 43.0779 271.161 47.8564C274.353 52.6349 276.058 58.2529 276.058 63.9999C276.05 71.7041 272.986 79.0907 267.539 84.5384C262.091 89.9861 254.704 93.0499 247 93.0574Z" fill="#FFFEFD"/>
<path d="M247 35.885C252.561 35.885 257.996 37.5339 262.62 40.6232C267.243 43.7126 270.847 48.1035 272.975 53.2409C275.103 58.3782 275.66 64.0312 274.575 69.485C273.49 74.9387 270.812 79.9483 266.88 83.8803C262.948 87.8123 257.939 90.4899 252.485 91.5748C247.031 92.6596 241.378 92.1028 236.241 89.9749C231.104 87.8469 226.713 84.2433 223.623 79.6199C220.534 74.9964 218.885 69.5606 218.885 64C218.892 56.5457 221.857 49.3989 227.128 44.128C232.399 38.857 239.546 35.8925 247 35.885ZM247 34C239.044 34 231.413 37.1607 225.787 42.7868C220.161 48.4129 217 56.0435 217 64C217 71.9565 220.161 79.5871 225.787 85.2132C231.413 90.8393 239.044 94 247 94C254.956 94 262.587 90.8393 268.213 85.2132C273.839 79.5871 277 71.9565 277 64C277 56.0435 273.839 48.4129 268.213 42.7868C262.587 37.1607 254.956 34 247 34Z" fill="#091E25"/>
<path d="M247 77.77L244.823 75.7814C237.104 68.7785 231.995 64.1602 231.995 58.5052C231.985 57.4186 232.192 56.3409 232.603 55.3351C233.015 54.3294 233.623 53.4158 234.392 52.6479C235.16 51.88 236.075 51.2731 237.081 50.8628C238.087 50.4524 239.165 50.2469 240.252 50.2583C241.535 50.2682 242.801 50.5525 243.965 51.0923C245.128 51.632 246.163 52.4145 247 53.3874C247.837 52.415 248.872 51.6328 250.036 51.0931C251.2 50.5534 252.465 50.2688 253.748 50.2583C254.835 50.2469 255.913 50.4524 256.919 50.8628C257.925 51.2731 258.839 51.88 259.608 52.6479C260.377 53.4158 260.985 54.3294 261.397 55.3351C261.808 56.3409 262.015 57.4186 262.005 58.5052C262.005 64.1602 256.906 68.7974 249.177 75.819L247 77.77Z" fill="#7AC5CD"/>
</svg>
