<svg width="211" height="140" viewBox="0 0 211 140" fill="none" xmlns="http://www.w3.org/2000/svg">
<path d="M144.561 7.11338L145.617 6.77702L146.673 6.44617L147.74 6.13186L148.817 5.83409L149.895 5.54735L150.984 5.27716L152.074 5.0235L153.174 4.78639L154.274 4.56583L155.385 4.3618L156.496 4.17983L157.608 4.01992L158.725 3.87655L159.841 3.75524L160.964 3.65598L162.086 3.57879L163.214 3.52916L164.337 3.50159H165.465L166.587 3.52364L167.709 3.57327L168.832 3.65598L169.954 3.76075L171.071 3.89861L172.188 4.06403L173.299 4.26255L174.41 4.49414L175.516 4.75882L176.611 5.05659L177.705 5.38744L178.794 5.75138L179.878 6.15391L179.106 8.79521L178.089 8.42025L177.061 8.07285L176.033 7.75855L174.994 7.48284L173.949 7.22918L172.899 7.01413L171.843 6.82665L170.782 6.66673L169.721 6.53439L168.654 6.43514L167.582 6.35794L166.509 6.30831L165.437 6.28626H164.359L163.275 6.31383L162.197 6.36345L161.119 6.43514L160.041 6.52888L158.958 6.65019L157.88 6.78805L156.808 6.94244L155.73 7.1189L154.657 7.31741L153.59 7.52695L152.524 7.75855L151.462 8.00668L150.407 8.26585L149.356 8.54708L148.312 8.83933L147.273 9.14261L146.239 9.46243L145.211 9.79328L144.561 7.11338ZM112.078 19.4597L113.112 19.1509L114.14 18.831L115.162 18.4947L116.184 18.1528L117.201 17.7999L118.218 17.436L119.229 17.0665L120.241 16.686L121.246 16.3L122.252 15.9085L123.258 15.5115L124.264 15.1035L125.264 14.6954L126.269 14.2874L127.27 13.8738L128.275 13.4547L129.275 13.0411L130.281 12.6166L131.287 12.203L132.293 11.7839L133.298 11.3703L134.31 10.9513L135.321 10.5432L136.332 10.1352L137.349 9.73263L138.371 9.34112L139.388 8.94961L140.416 8.56362L141.45 8.18865L142.483 7.8192L143.522 7.46078L144.561 7.11338L145.211 9.79328L144.189 10.1352L143.172 10.4881L142.155 10.8465L141.138 11.2159L140.127 11.5964L139.121 11.9824L138.11 12.3739L137.104 12.7709L136.104 13.1735L135.099 13.5815L134.093 13.9951L133.093 14.4087L132.087 14.8222L131.087 15.2413L130.087 15.6604L129.081 16.0795L128.075 16.4985L127.07 16.9121L126.058 17.3257L125.047 17.7337L124.036 18.1418L123.019 18.5443L122.002 18.9413L120.98 19.3328L119.957 19.7188L118.924 20.0993L117.896 20.4688L116.857 20.8272L115.812 21.1746L114.768 21.5165L113.717 21.8418L112.662 22.1616L112.078 19.4597ZM75.1224 25.9444L76.2892 25.7514L77.4561 25.5639L78.6285 25.3819L79.7953 25.1999L80.9677 25.029L82.1401 24.8581L83.3126 24.6926L84.485 24.5272L85.6518 24.3673L86.8242 24.2074L87.9966 24.042L89.1635 23.8821L90.3303 23.7166L91.4972 23.5512L92.6641 23.3858L93.8253 23.2093L94.9866 23.0384L96.1479 22.8564L97.3092 22.6689L98.4594 22.4814L99.6152 22.2829L100.765 22.0734L101.916 21.8639L103.06 21.6378L104.199 21.4062L105.338 21.1636L106.472 20.9099L107.6 20.6452L108.728 20.3695L109.845 20.0828L110.967 19.774L112.078 19.4597L112.662 22.1616L111.517 22.487L110.378 22.7958L109.228 23.0935L108.078 23.3747L106.927 23.6449L105.772 23.9041L104.616 24.1467L103.455 24.3838L102.293 24.6099L101.132 24.8305L99.9652 25.0345L98.8039 25.2385L97.6315 25.4315L96.4647 25.619L95.2978 25.801L94.1254 25.9774L92.9585 26.1484L91.7861 26.3138L90.6137 26.4848L89.4413 26.6447L88.2745 26.8101L87.102 26.97L85.9296 27.1299L84.7628 27.2953L83.5959 27.4608L82.4291 27.6262L81.2622 27.7916L80.1009 27.9681L78.9396 28.139L77.7783 28.321L76.617 28.5085L75.4613 28.7015L75.1224 25.9444ZM40.1945 39.6582L41.1225 38.9193L42.0615 38.1969L43.0228 37.5076L43.9952 36.8404L44.9842 36.1952L45.9899 35.5777L47.0012 34.9821L48.0347 34.4087L49.0737 33.8572L50.1295 33.3279L51.1907 32.8206L52.2687 32.3353L53.3522 31.8666L54.4468 31.4144L55.547 30.9843L56.6638 30.5708L57.7807 30.1793L58.9086 29.7988L60.0422 29.4348L61.1812 29.093L62.3259 28.7566L63.476 28.4423L64.6262 28.139L65.7875 27.8468L66.9488 27.571L68.1101 27.3064L69.277 27.0527L70.4438 26.8101L71.6162 26.5785L72.7831 26.3579L73.9499 26.1484L75.1224 25.9444L75.4613 28.7015L74.3111 28.9055L73.1554 29.1095L71.9996 29.3301L70.8494 29.5562L69.7048 29.7933L68.5602 30.0414L67.4156 30.3061L66.2765 30.5763L65.143 30.8575L64.0095 31.1553L62.8871 31.4641L61.7702 31.7894L60.6589 32.1258L59.5532 32.4787L58.4586 32.8481L57.3751 33.2341L56.2971 33.6311L55.2247 34.0502L54.169 34.4858L53.1188 34.938L52.0853 35.4067L51.0574 35.8975L50.0461 36.4048L49.046 36.9342L48.0625 37.4801L47.0901 38.0535L46.1344 38.6436L45.1898 39.2556L44.2619 39.8898L43.3562 40.5459L42.4616 41.2242L41.5837 41.93L40.1945 39.6582ZM27.737 74.3976L27.4258 73.1734L27.1647 71.9493L26.9646 70.7196L26.8202 69.49L26.7313 68.2603L26.6924 67.0361L26.7035 65.812L26.7646 64.5934L26.8757 63.3802L27.0369 62.1726L27.2425 60.976L27.4925 59.785L27.787 58.6105L28.1259 57.4414L28.5038 56.289L28.9261 55.153L29.3817 54.0282L29.8818 52.9198L30.4152 51.828L30.982 50.7582L31.5876 49.6995L32.2266 48.6684L32.8934 47.6537L33.5935 46.6667L34.3269 45.6962L35.0882 44.7533L35.8716 43.8379L36.6884 42.9446L37.5275 42.0789L38.3943 41.2463L39.2833 40.4357L40.1945 39.6582L41.5837 41.93L40.7335 42.6579L39.9001 43.4078L39.0944 44.1908L38.3109 44.9959L37.5497 45.8285L36.8162 46.6833L36.105 47.5655L35.4271 48.4643L34.777 49.3852L34.1547 50.3226L33.5657 51.2821L33.0045 52.2526L32.4822 53.2396L31.9932 54.2432L31.5376 55.2578L31.1153 56.289L30.7319 57.3312L30.3874 58.3789L30.0818 59.4321L29.8151 60.5018L29.5873 61.5716L29.4039 62.6468L29.2595 63.7276L29.1594 64.8139L29.1039 65.9002L29.0928 66.992L29.1261 68.0838L29.2095 69.1757L29.3373 70.2619L29.5151 71.3538L29.7429 72.44L30.0262 73.5208L27.737 74.3976ZM48.5514 98.7758L47.7013 98.2299L46.8567 97.6675L46.0121 97.094L45.1731 96.504L44.3452 95.9029L43.5229 95.2909L42.7061 94.6678L41.8948 94.0281L41.1002 93.3719L40.3168 92.7047L39.5389 92.0265L38.7832 91.3317L38.0331 90.6259L37.2996 89.9035L36.5829 89.1646L35.8827 88.4147L35.1993 87.6537L34.5381 86.8762L33.888 86.0822L33.2657 85.2716L32.6656 84.45L32.0821 83.6118L31.5265 82.7571L30.9931 81.8914L30.4819 81.0091L30.004 80.1103L29.5484 79.1949L29.1261 78.2686L28.7316 77.3256L28.3649 76.3606L28.037 75.3846L27.737 74.3976L30.0262 73.5208L30.2874 74.4086L30.5875 75.2854L30.9153 76.1511L31.2709 77.0003L31.6543 77.844L32.0655 78.6766L32.5044 79.4982L32.9712 80.3088L33.4601 81.1084L33.9769 81.8914L34.5159 82.6689L35.0771 83.4354L35.6605 84.1908L36.2661 84.9352L36.894 85.6686L37.5386 86.3855L38.1998 87.0968L38.8777 87.7971L39.5722 88.4808L40.289 89.1536L41.0169 89.8208L41.7559 90.4715L42.506 91.1111L43.2728 91.7397L44.0507 92.3518L44.8342 92.9584L45.6343 93.5484L46.4344 94.1329L47.2457 94.7009L48.0625 95.2578L48.8848 95.8037L49.7127 96.3331L48.5514 98.7758ZM75.828 115.004L75.039 114.425L74.2389 113.857L73.4388 113.3L72.622 112.749L71.8052 112.214L70.9772 111.685L70.1493 111.161L69.3103 110.642L68.4657 110.135L67.6212 109.633L66.7655 109.137L65.9098 108.641L65.0541 108.155L64.1873 107.67L63.3205 107.191L62.4537 106.705L61.5813 106.231L60.7089 105.751L59.8366 105.272L58.9587 104.797L58.0863 104.318L57.2139 103.838L56.336 103.353L55.4637 102.867L54.5913 102.377L53.7189 101.88L52.8521 101.379L51.9853 100.871L51.1241 100.358L50.2628 99.8401L49.4071 99.3107L48.5514 98.7758L49.7127 96.3331L50.5462 96.8569L51.3852 97.3752L52.2298 97.8825L53.0799 98.3898L53.9301 98.8861L54.7913 99.3769L55.6526 99.8677L56.5138 100.353L57.3806 100.838L58.2474 101.318L59.1198 101.798L59.9922 102.277L60.8645 102.752L61.7424 103.231L62.6148 103.711L63.4927 104.191L64.3651 104.676L65.2374 105.161L66.1098 105.647L66.9822 106.143L67.849 106.645L68.7102 107.146L69.577 107.659L70.4327 108.178L71.2884 108.701L72.1385 109.236L72.9831 109.782L73.8277 110.334L74.6612 110.896L75.4946 111.475L76.317 112.06L77.1338 112.661L75.828 115.004ZM112.806 139.675V139.68L111.411 139.432L110.039 139.118L108.694 138.743L107.378 138.307L106.077 137.822L104.805 137.281L103.555 136.691L102.321 136.057L101.11 135.379L99.9152 134.662L98.7372 133.912L97.5815 133.124L96.4313 132.308L95.2978 131.464L94.181 130.598L93.0697 129.71L91.9695 128.806L90.8804 127.885L89.7914 126.953L88.7134 126.005L87.641 125.056L86.5742 124.108L85.5074 123.154L84.4405 122.2L83.3737 121.252L82.3068 120.314L81.24 119.388L80.1676 118.473L79.0897 117.574L78.0117 116.697L76.9226 115.837L75.828 115.004L77.1338 112.661L78.2617 113.521L79.3786 114.403L80.4899 115.302L81.5845 116.217L82.6736 117.149L83.7571 118.087L84.835 119.035L85.9074 119.989L86.9743 120.943L88.0411 121.897L89.1079 122.845L90.1692 123.788L91.236 124.72L92.3029 125.635L93.3753 126.54L94.4532 127.428L95.5312 128.293L96.6202 129.137L97.7149 129.948L98.8206 130.731L99.9319 131.486L101.054 132.203L102.188 132.887L103.338 133.526L104.499 134.127L105.677 134.679L106.872 135.186L108.078 135.644L109.311 136.046L110.561 136.394L111.834 136.686L113.128 136.918L112.806 139.675ZM146.5 127.874L145.584 128.514L144.656 129.154L143.722 129.788L142.772 130.416L141.822 131.039L140.855 131.657L139.883 132.264L138.899 132.859L137.905 133.438L136.904 134.012L135.893 134.563L134.876 135.098L133.848 135.616L132.815 136.112L131.77 136.587L130.72 137.039L129.659 137.463L128.586 137.86L127.509 138.23L126.425 138.572L125.33 138.875L124.23 139.151L123.119 139.393L122.002 139.592L120.874 139.757L119.746 139.879L118.602 139.961L117.457 140L116.307 139.989L115.145 139.934L113.979 139.829L112.806 139.675L113.128 136.918L114.212 137.055L115.29 137.155L116.368 137.204L117.44 137.21L118.507 137.177L119.563 137.1L120.624 136.984L121.674 136.835L122.719 136.642L123.763 136.421L124.803 136.162L125.836 135.87L126.864 135.55L127.886 135.197L128.903 134.817L129.914 134.414L130.92 133.984L131.92 133.526L132.92 133.052L133.91 132.55L134.893 132.032L135.865 131.497L136.838 130.946L137.805 130.378L138.76 129.799L139.71 129.209L140.655 128.608L141.594 127.996L142.522 127.378L143.439 126.755L144.356 126.121L145.267 125.492L146.5 127.874ZM188.846 88.5911L187.779 90.0689L186.69 91.5247L185.579 92.9639L184.445 94.381L183.29 95.7816L182.117 97.1602L180.923 98.5222L179.706 99.8677L178.478 101.197L177.222 102.509L175.955 103.799L174.672 105.079L173.371 106.341L172.055 107.588L170.727 108.817L169.382 110.036L168.026 111.238L166.654 112.429L165.27 113.604L163.875 114.767L162.475 115.914L161.058 117.055L159.636 118.18L158.202 119.3L156.763 120.403L155.313 121.5L153.857 122.586L152.396 123.661L150.929 124.726L149.456 125.784L147.984 126.832L146.5 127.874L145.267 125.492L146.734 124.455L148.201 123.413L149.662 122.366L151.118 121.307L152.568 120.237L154.013 119.162L155.446 118.076L156.874 116.984L158.291 115.875L159.703 114.761L161.097 113.637L162.486 112.501L163.864 111.354L165.226 110.19L166.576 109.016L167.915 107.83L169.243 106.634L170.549 105.42L171.843 104.196L173.121 102.956L174.383 101.698L175.627 100.43L176.855 99.1453L178.061 97.8439L179.25 96.5261L180.423 95.1916L181.567 93.8462L182.701 92.4786L183.806 91.0891L184.89 89.6884L185.951 88.2658L186.985 86.8266L188.846 88.5911ZM179.878 6.15391L183.184 7.58209L186.218 9.18672L188.996 10.9623L191.513 12.8867L193.786 14.9656L195.819 17.1823L197.614 19.5258L199.176 21.9907L200.515 24.5548L201.643 27.2181L202.554 29.9587L203.271 32.7654L203.793 35.6328L204.132 38.5553L204.299 41.5054V44.4886L204.143 47.4883L203.843 50.4991L203.404 53.5098L202.837 56.5095L202.143 59.4927L201.343 62.4538L200.431 65.3709L199.426 68.2493L198.331 71.0725L197.159 73.8351L195.908 76.5261L194.597 79.1343L193.225 81.6543L191.802 84.0805L190.341 86.391L188.846 88.5911L186.985 86.8266L188.429 84.7091L189.841 82.4759L191.213 80.1379L192.541 77.6951L193.814 75.1696L195.019 72.5669L196.158 69.8925L197.214 67.163L198.186 64.3838L199.064 61.5661L199.837 58.7207L200.498 55.8589L201.048 52.986L201.465 50.1131L201.754 47.2567L201.898 44.4169V41.6047L201.737 38.8365L201.426 36.118L200.937 33.4547L200.281 30.863L199.437 28.3375L198.409 25.8947L197.181 23.5457L195.742 21.2849L194.091 19.1288L192.219 17.083L190.107 15.1531L187.746 13.3499L185.134 11.6791L182.256 10.1572L179.106 8.79521L179.878 6.15391Z" fill="#CFF7F7"/>
<path d="M187.379 131.133C176.211 135.484 163.815 133.786 152.774 130.157C141.733 126.523 131.421 121.064 120.252 117.8C108.261 114.287 95.5592 113.388 83.1739 111.282C70.7942 109.181 58.2977 105.669 48.774 97.8109C39.2558 89.9587 33.3104 76.9231 36.7665 64.6485C39.6003 54.5631 48.0516 46.7494 57.0197 41.0533C65.9767 35.3516 75.8394 31.1277 84.363 24.7754C96.2871 15.8865 106.361 2.52009 120.852 0.308901C132.915 -1.52733 144.084 5.13934 153.769 11.9273C169.521 22.9612 184.712 35.2303 195.798 50.8961C211.617 73.2562 223.274 117.149 187.379 131.133Z" fill="#CFF7F7"/>
<path d="M183.568 66.8597C183.568 35.4372 157.882 9.96423 126.195 9.96423C94.5091 9.96423 68.8223 35.4372 68.8223 66.8597C68.8223 98.2822 94.5091 123.755 126.195 123.755C157.882 123.755 183.568 98.2822 183.568 66.8597Z" fill="#FEFEFE" stroke="#2D8D96" stroke-width="2.08393" stroke-miterlimit="22.9256"/>
<path d="M126.198 66.8928C134.358 66.8928 140.973 60.3283 140.973 52.2305C140.973 44.1328 134.358 37.5683 126.198 37.5683C118.038 37.5683 111.423 44.1328 111.423 52.2305C111.423 60.3283 118.038 66.8928 126.198 66.8928Z" fill="#00BBBB" stroke="#2D8D96" stroke-width="2.3622" stroke-miterlimit="22.9256"/>
<path fill-rule="evenodd" clip-rule="evenodd" d="M126.197 72.6717C141.728 72.6717 154.924 82.5862 159.719 96.3827C151.257 105.161 139.361 110.642 126.231 110.642H126.158C113.029 110.642 101.132 105.161 92.6753 96.3827C97.4649 82.5862 110.662 72.6717 126.197 72.6717Z" fill="#00BBBB" stroke="#2D8D96" stroke-width="2.3622" stroke-miterlimit="22.9256"/>
<path d="M167.998 45.7238C177.72 45.7238 185.601 37.9027 185.601 28.2549C185.601 18.607 177.72 10.7859 167.998 10.7859C158.277 10.7859 150.396 18.607 150.396 28.2549C150.396 37.9027 158.277 45.7238 167.998 45.7238Z" fill="#091E25" stroke="#091E25" stroke-width="2.3622" stroke-miterlimit="22.9256"/>
<path d="M178.094 21.704L165.404 34.8057L157.902 28.492" stroke="#FEFEFE" stroke-width="4.16787" stroke-miterlimit="22.9256"/>
<path d="M86.8414 50.0248H3.69472C2.75875 50.0248 2 51.2222 2 52.6992V83.4684C2 84.9455 2.75875 86.1428 3.69472 86.1428H86.8414C87.7773 86.1428 88.5361 84.9455 88.5361 83.4684V52.6992C88.5361 51.2222 87.7773 50.0248 86.8414 50.0248Z" fill="#BCBCBC" stroke="#2D8D96" stroke-width="2.08393" stroke-miterlimit="22.9256"/>
<path d="M78.4401 56.8624H12.0962C10.6815 56.8624 9.53467 57.3957 9.53467 58.0535V64.45C9.53467 65.1078 10.6815 65.641 12.0962 65.641H78.4401C79.8548 65.641 81.0017 65.1078 81.0017 64.45V58.0535C81.0017 57.3957 79.8548 56.8624 78.4401 56.8624Z" fill="#BCBCBC" stroke="#BCBCBC" stroke-width="2.08393" stroke-miterlimit="22.9256"/>
<path d="M78.4401 70.5266H12.0962C10.6815 70.5266 9.53467 71.0599 9.53467 71.7177V78.1141C9.53467 78.772 10.6815 79.3052 12.0962 79.3052H78.4401C79.8548 79.3052 81.0017 78.772 81.0017 78.1141V71.7177C81.0017 71.0599 79.8548 70.5266 78.4401 70.5266Z" fill="#BCBCBC" stroke="#BCBCBC" stroke-width="2.08393" stroke-miterlimit="22.9256"/>
<path d="M86.8414 48.8007H3.69472C2.75875 48.8007 2 49.9981 2 51.4751V82.2443C2 83.7213 2.75875 84.9187 3.69472 84.9187H86.8414C87.7773 84.9187 88.5361 83.7213 88.5361 82.2443V51.4751C88.5361 49.9981 87.7773 48.8007 86.8414 48.8007Z" fill="#FEFEFE" stroke="#2D8D96" stroke-width="2.08393" stroke-miterlimit="22.9256"/>
<path d="M78.4401 55.6383H12.0962C10.6815 55.6383 9.53467 56.1716 9.53467 56.8294V63.2258C9.53467 63.8836 10.6815 64.4169 12.0962 64.4169H78.4401C79.8548 64.4169 81.0017 63.8836 81.0017 63.2258V56.8294C81.0017 56.1716 79.8548 55.6383 78.4401 55.6383Z" fill="#FEFEFE" stroke="#2D8D96" stroke-width="2.08393" stroke-miterlimit="22.9256"/>
<path d="M78.4401 69.3025H12.0962C10.6815 69.3025 9.53467 69.8357 9.53467 70.4936V76.89C9.53467 77.5478 10.6815 78.0811 12.0962 78.0811H78.4401C79.8548 78.0811 81.0017 77.5478 81.0017 76.89V70.4936C81.0017 69.8357 79.8548 69.3025 78.4401 69.3025Z" fill="#FEFEFE" stroke="#2D8D96" stroke-width="2.08393" stroke-miterlimit="22.9256"/>
<path d="M59.6034 123.463C67.039 123.463 73.0667 117.481 73.0667 110.102C73.0667 102.723 67.039 96.7411 59.6034 96.7411C52.1678 96.7411 46.1401 102.723 46.1401 110.102C46.1401 117.481 52.1678 123.463 59.6034 123.463Z" fill="#FEFEFE" stroke="#CFF7F7" stroke-width="2.3622" stroke-miterlimit="22.9256"/>
<path d="M67.3273 105.095L57.6146 115.114L51.8804 110.284" stroke="#CFF7F7" stroke-width="4.16787" stroke-miterlimit="22.9256"/>
</svg>
