<svg width="259" height="142" viewBox="0 0 259 142" fill="none" xmlns="http://www.w3.org/2000/svg">
<path d="M64.6686 90.1026L64.7756 91.0085L64.8826 91.9143L64.9896 92.8201L65.0966 93.7259L65.2036 94.6317L65.3106 95.5375L65.4444 96.4433L65.5781 97.3224L65.7119 98.2282L65.8457 99.1074L66.0062 100.013L66.1667 100.892L66.3272 101.772L66.4877 102.651L66.6749 103.53L66.889 104.382L67.0762 105.262L67.317 106.114L67.531 106.94L67.7985 107.792L68.0393 108.618L68.3335 109.444L68.601 110.27L68.9221 111.069L69.2431 111.869L69.5908 112.668L69.9386 113.467L70.3131 114.24L70.7144 114.986L71.1157 115.758L71.5704 116.478L72.0252 117.223L69.8583 119.088L69.3501 118.262L68.8686 117.463L68.4138 116.637L67.9858 115.785L67.5577 114.959L67.1832 114.08L66.8087 113.227L66.4609 112.348L66.1132 111.496L65.8189 110.59L65.5247 109.711L65.2304 108.831L64.9629 107.926L64.7221 107.02L64.4813 106.114L64.2673 105.208L64.0533 104.276L63.8661 103.37L63.6788 102.464L63.5183 101.532L63.3578 100.626L63.1973 99.6935L63.0368 98.7611L62.903 97.8553L62.7693 96.9228L62.6623 96.017L62.5285 95.0846L62.4215 94.1788L62.3145 93.2463L62.2075 92.3405L62.1005 91.4347L61.9935 90.5289L64.6686 90.1026ZM60.6292 55.1226L60.7629 56.2149L60.8967 57.3072L61.0037 58.3995L61.1374 59.4918L61.2712 60.5841L61.3782 61.6764L61.512 62.7687L61.6457 63.8876L61.7795 64.9799L61.8865 66.0722L62.0202 67.1645L62.154 68.2568L62.261 69.3491L62.3948 70.4414L62.5285 71.5337L62.6355 72.626L62.7693 73.7183L62.903 74.8105L63.0368 75.9028L63.1438 76.9951L63.2775 78.0874L63.4113 79.1797L63.5183 80.272L63.6521 81.3643L63.7858 82.4566L63.9196 83.5489L64.0266 84.6412L64.1603 85.7335L64.2941 86.8258L64.4011 87.9181L64.5349 89.0104L64.6686 90.1026L61.9935 90.5289L61.8597 89.4366L61.726 88.3443L61.619 87.252L61.4852 86.1597L61.3515 85.0408L61.2177 83.9485L61.1107 82.8562L60.9769 81.7639L60.8432 80.6716L60.7362 79.5793L60.6024 78.487L60.4687 77.3948L60.3349 76.3025L60.2279 75.2102L60.0941 74.1179L59.9604 73.0256L59.8534 71.9333L59.7196 70.841L59.5859 69.7487L59.4521 68.6564L59.3451 67.5641L59.2114 66.4718L59.0776 65.3795L58.9706 64.2872L58.8368 63.1949L58.7031 62.1027L58.5961 61.0104L58.4623 59.9181L58.3286 58.8258L58.1948 57.7335L58.0878 56.6412L57.954 55.5489L60.6292 55.1226ZM61.619 38.2853L61.4317 38.7382L61.2444 39.2178L61.0839 39.6973L60.9234 40.1769L60.7897 40.6564L60.6559 41.1626L60.5489 41.6421L60.4419 42.1483L60.3349 42.6545L60.2814 43.1607L60.2011 43.6669L60.1476 44.1997L60.0941 44.7059L60.0674 45.2387L60.0406 45.7715V46.3044L60.0139 46.8372V47.37L60.0406 47.9295V48.4623L60.0674 49.0218L60.0941 49.5546L60.1476 50.1141L60.1744 50.6735L60.2279 51.233L60.2814 51.7925L60.3349 52.3253L60.3884 52.8848L60.4419 53.4442L60.4954 54.0037L60.5757 54.5632L60.6292 55.1226L57.954 55.5489L57.9005 54.9894L57.8203 54.4033L57.7668 53.8438L57.7133 53.2577L57.633 52.6983L57.5795 52.1122L57.526 51.5261L57.4993 50.9399L57.4458 50.3538L57.419 49.7677L57.3655 49.1816V48.5955L57.3388 48.0094L57.312 47.4233V46.8372L57.3388 46.2244V45.6383L57.3655 45.0522L57.419 44.4395L57.4725 43.8534L57.526 43.2673L57.6063 42.6545L57.6865 42.0684L57.7935 41.4823L57.9005 40.8962L58.061 40.3101L58.1948 39.724L58.3553 39.1379L58.5426 38.5517L58.7566 37.9923L58.9706 37.4062L59.2381 36.8467L61.619 38.2853ZM77.6162 24.8048L77.0009 25.1245L76.3857 25.4709L75.7704 25.7906L75.1551 26.1369L74.5398 26.4566L73.9513 26.8029L73.336 27.1493L72.7207 27.4956L72.1322 27.8686L71.5437 28.2149L70.9552 28.5879L70.3934 28.9609L69.8048 29.3339L69.2431 29.7335L68.708 30.1331L68.173 30.5327L67.638 30.9323L67.1297 31.3586L66.6215 31.7849L66.1399 32.2378L65.6584 32.664L65.2036 33.1436L64.7756 33.5965L64.3476 34.076L63.9463 34.5555L63.5451 35.0617L63.1705 35.5679L62.8228 36.0741L62.5018 36.6069L62.1807 37.1664L61.8865 37.7259L61.619 38.2853L59.2381 36.8467L59.5591 36.154L59.9069 35.488L60.2814 34.8486L60.6559 34.2092L61.0839 33.5965L61.512 33.0104L61.9667 32.4242L62.4215 31.8648L62.903 31.332L63.4113 30.7991L63.9196 30.2929L64.4546 29.7868L64.9896 29.3072L65.5514 28.8277L66.1132 28.3748L66.6749 27.9219L67.2635 27.4956L67.852 27.0693L68.4405 26.6697L69.0558 26.2435L69.6443 25.8705L70.2596 25.4709L70.8749 25.0979L71.5169 24.7249L72.1322 24.3519L72.7475 24.0056L73.3895 23.6593L74.0048 23.3129L74.6468 22.9666L75.2621 22.6469L75.8774 22.3006L76.4927 21.9809L77.6162 24.8048ZM141.792 5.91616L139.706 5.72967L137.619 5.59646L135.533 5.54318L133.473 5.56982L131.413 5.64974L129.326 5.78295L127.267 6.02272L125.233 6.28914L123.174 6.60883L121.114 7.00845L119.081 7.46135L117.048 7.9409L115.014 8.50036L112.981 9.08647L110.975 9.72586L108.969 10.3919L106.936 11.1112L104.956 11.8572L102.95 12.6564L100.97 13.4556L98.9637 14.3082L97.0109 15.1873L95.0313 16.0931L93.0517 16.9989L91.0988 17.9314L89.146 18.8905L87.2199 19.8496L85.2938 20.8353L83.3677 21.821L81.4416 22.8067L79.5156 23.8191L77.6162 24.8048L76.4927 21.9809L78.4188 20.9685L80.3181 19.9828L82.2442 18.9704L84.197 17.9847L86.1499 16.9989L88.1027 16.0132L90.0555 15.0541L92.0351 14.1217L94.0147 13.1892L96.0211 12.2834L98.0274 11.4043L100.034 10.5251L102.067 9.69922L104.1 8.89998L106.133 8.15403L108.193 7.40807L110.226 6.7154L112.313 6.076L114.372 5.46326L116.459 4.90379L118.546 4.3976L120.659 3.9447L122.772 3.54508L124.886 3.19874L126.999 2.90569L129.139 2.69256L131.279 2.53271L133.419 2.45279L135.559 2.42615L137.726 2.47943L139.893 2.61264L142.06 2.82577L141.792 5.91616ZM200.083 39.4575L198.452 38.0189L196.847 36.5803L195.215 35.1417L193.556 33.703L191.898 32.291L190.239 30.879L188.554 29.4671L186.868 28.0817L185.183 26.723L183.471 25.3909L181.732 24.0589L179.993 22.7801L178.228 21.5013L176.462 20.2492L174.697 19.0503L172.904 17.8781L171.085 16.7592L169.239 15.6669L167.393 14.6012L165.548 13.6155L163.675 12.6564L161.776 11.7506L159.85 10.8981L157.923 10.0722L155.997 9.32624L154.018 8.66021L152.038 8.02082L150.032 7.46135L147.999 6.98181L145.939 6.55555L143.879 6.20921L141.792 5.91616L142.06 2.82577L144.227 3.11882L146.394 3.4918L148.507 3.91806L150.62 4.42424L152.707 5.01035L154.767 5.64974L156.8 6.36906L158.806 7.14166L160.813 7.96754L162.792 8.8467L164.745 9.77914L166.671 10.7649L168.57 11.8039L170.47 12.8695L172.342 13.9885L174.188 15.1607L176.034 16.3595L177.853 17.585L179.645 18.8372L181.438 20.1426L183.203 21.448L184.969 22.8067L186.708 24.1654L188.42 25.5508L190.132 26.9361L191.844 28.3481L193.503 29.7868L195.188 31.2254L196.847 32.664L198.478 34.1026L200.11 35.5413L201.742 36.9799L200.083 39.4575ZM216.402 57.0408L216 56.4281L215.599 55.8153L215.171 55.2026L214.743 54.5898L214.288 54.0037L213.86 53.4176L213.406 52.8315L212.924 52.2454L212.469 51.6593L211.988 51.0998L211.479 50.5403L210.998 49.9809L210.49 49.4214L209.981 48.8619L209.473 48.3291L208.938 47.7963L208.43 47.2368L207.895 46.704L207.36 46.1712L206.798 45.6383L206.263 45.1321L205.701 44.5993L205.166 44.0665L204.604 43.5603L204.043 43.0275L203.481 42.5213L202.919 42.0151L202.357 41.4823L201.796 40.9761L201.207 40.4699L200.645 39.9637L200.083 39.4575L201.742 36.9799L202.304 37.5127L202.866 38.0189L203.454 38.5251L204.016 39.0313L204.604 39.5641L205.166 40.0703L205.728 40.6031L206.29 41.1359L206.878 41.6688L207.44 42.2016L208.002 42.7344L208.564 43.2673L209.099 43.8001L209.66 44.3595L210.195 44.8924L210.757 45.4518L211.292 46.0113L211.827 46.5974L212.362 47.1569L212.871 47.743L213.406 48.3291L213.914 48.9152L214.395 49.5013L214.904 50.1141L215.385 50.7268L215.867 51.3396L216.348 51.979L216.803 52.5917L217.284 53.2311L217.713 53.8971L218.167 54.5365L218.595 55.2026L216.402 57.0408ZM220.869 79.0465L221.03 78.3538L221.19 77.6878L221.297 76.9951L221.404 76.3025L221.484 75.5831L221.538 74.8905L221.565 74.1978V73.4785V72.7858L221.538 72.0665L221.484 71.3738L221.404 70.6545L221.324 69.9618L221.217 69.2425L221.083 68.5498L220.923 67.8305L220.762 67.1379L220.575 66.4185L220.388 65.7259L220.174 65.0332L219.933 64.3405L219.692 63.6478L219.425 62.9552L219.13 62.2625L218.836 61.5965L218.542 60.9304L218.221 60.2644L217.873 59.5984L217.525 58.959L217.151 58.3196L216.776 57.6802L216.402 57.0408L218.595 55.2026L218.997 55.8952L219.398 56.5879L219.799 57.2806L220.174 57.9999L220.548 58.6926L220.896 59.4385L221.244 60.1578L221.565 60.9038L221.859 61.6497L222.153 62.3957L222.447 63.1683L222.688 63.9409L222.929 64.7135L223.17 65.4861L223.357 66.2587L223.544 67.0579L223.705 67.8572L223.865 68.6564L223.999 69.4556L224.079 70.2549L224.16 71.0541L224.24 71.88L224.267 72.6792V73.4785V74.3044L224.24 75.1036L224.16 75.9295L224.079 76.7287L223.972 77.5546L223.812 78.3538L223.651 79.1531L223.464 79.9523L220.869 79.0465ZM198.773 101.985L199.655 101.425L200.538 100.866L201.448 100.28L202.331 99.7202L203.24 99.134L204.123 98.5213L205.006 97.9352L205.888 97.3224L206.745 96.7097L207.601 96.0703L208.457 95.4309L209.286 94.7915L210.088 94.1255L210.891 93.4595L211.667 92.7668L212.443 92.0741L213.165 91.3814L213.887 90.6355L214.583 89.9162L215.251 89.1702L215.893 88.3976L216.535 87.625L217.097 86.8524L217.659 86.0532L218.194 85.2273L218.676 84.4014L219.13 83.5489L219.558 82.6964L219.933 81.8172L220.281 80.9114L220.602 79.979L220.869 79.0465L223.464 79.9523L223.143 81.0446L222.795 82.1103L222.394 83.1493L221.939 84.1616L221.458 85.1474L220.949 86.1065L220.388 87.0389L219.799 87.9447L219.184 88.8505L218.542 89.703L217.873 90.5556L217.177 91.3814L216.455 92.1807L215.706 92.9799L214.93 93.7525L214.128 94.4985L213.325 95.2444L212.496 95.9637L211.667 96.6564L210.811 97.3491L209.955 98.0151L209.072 98.6812L208.189 99.3472L207.28 99.9866L206.397 100.599L205.487 101.212L204.578 101.825L203.668 102.411L202.759 103.024L201.849 103.583L200.939 104.169L200.057 104.729L198.773 101.985ZM165.708 122.632L166.751 121.966L167.768 121.326L168.811 120.687L169.855 120.047L170.871 119.408L171.914 118.742L172.931 118.103L173.974 117.463L175.018 116.824L176.034 116.184L177.077 115.518L178.094 114.879L179.137 114.24L180.181 113.6L181.197 112.961L182.24 112.295L183.257 111.655L184.3 111.016L185.344 110.377L186.36 109.737L187.403 109.071L188.447 108.432L189.463 107.792L190.506 107.153L191.523 106.514L192.566 105.848L193.583 105.208L194.626 104.569L195.669 103.929L196.686 103.263L197.729 102.624L198.773 101.985L200.057 104.729L199.013 105.368L197.97 106.008L196.954 106.674L195.91 107.313L194.894 107.952L193.85 108.592L192.807 109.231L191.791 109.897L190.747 110.537L189.731 111.176L188.687 111.815L187.644 112.455L186.628 113.121L185.584 113.76L184.568 114.4L183.524 115.039L182.481 115.678L181.465 116.344L180.421 116.984L179.405 117.623L178.361 118.262L177.318 118.902L176.302 119.568L175.258 120.207L174.242 120.847L173.198 121.486L172.155 122.125L171.139 122.792L170.095 123.431L169.079 124.07L168.035 124.71L166.992 125.376L165.708 122.632ZM146.233 133.421L146.875 133.155L147.49 132.889L148.133 132.596L148.748 132.302L149.39 132.009L150.005 131.69L150.62 131.397L151.236 131.077L151.851 130.757L152.466 130.438L153.081 130.118L153.697 129.798L154.312 129.452L154.927 129.132L155.516 128.786L156.131 128.439L156.746 128.093L157.335 127.747L157.95 127.374L158.539 127.027L159.154 126.681L159.743 126.308L160.331 125.935L160.946 125.589L161.535 125.216L162.123 124.843L162.739 124.47L163.327 124.097L163.916 123.751L164.531 123.378L165.12 123.005L165.708 122.632L166.992 125.376L166.404 125.722L165.815 126.122L165.2 126.495L164.611 126.841L164.023 127.214L163.407 127.587L162.819 127.96L162.204 128.333L161.588 128.706L161 129.079L160.385 129.425L159.769 129.798L159.181 130.171L158.566 130.518L157.95 130.864L157.335 131.237L156.72 131.583L156.104 131.929L155.462 132.276L154.847 132.622L154.232 132.942L153.59 133.288L152.974 133.608L152.332 133.928L151.69 134.247L151.075 134.567L150.433 134.887L149.764 135.18L149.122 135.499L148.48 135.792L147.838 136.059L147.169 136.352L146.233 133.421ZM72.0252 117.223L73.4698 119.328L75.0481 121.326L76.7334 123.218L78.5258 124.976L80.3983 126.655L82.3512 128.2L84.411 129.638L86.5511 130.97L88.7715 132.196L91.0453 133.315L93.3995 134.327L95.7803 135.233L98.2414 136.032L100.729 136.725L103.271 137.338L105.839 137.844L108.434 138.243L111.029 138.537L113.65 138.75L116.299 138.883H118.92L121.569 138.83L124.19 138.67L126.785 138.43L129.353 138.084L131.921 137.657L134.436 137.151L136.897 136.565L139.305 135.899L141.685 135.153L143.986 134.327L146.233 133.421L147.169 136.352L144.842 137.284L142.434 138.137L139.973 138.91L137.486 139.602L134.917 140.215L132.323 140.748L129.701 141.174L127.053 141.52L124.351 141.787L121.649 141.947L118.947 142L116.245 141.973L113.516 141.867L110.815 141.654L108.113 141.334L105.438 140.908L102.762 140.401L100.141 139.762L97.5459 139.043L95.0045 138.19L92.4899 137.258L90.0555 136.192L87.6479 135.02L85.3206 133.741L83.0735 132.329L80.9066 130.811L78.82 129.159L76.8137 127.4L74.9143 125.509L73.0953 123.511L71.4099 121.353L69.8583 119.088L72.0252 117.223Z" fill="#CFF7F7"/>
<path d="M204.711 118.156C209.981 110.004 211.212 99.96 212.335 90.3159C213.673 78.647 215.01 67.0047 216.348 55.3359C217.043 49.3682 217.685 43.0542 215.224 37.5661C212.175 30.7726 205.166 26.8563 198.585 23.3929C178.307 12.7364 156.452 1.76021 133.74 4.37106C110.841 7.00855 91.9544 22.8601 74.7534 38.2321C68.6541 43.667 62.528 49.2084 58.1676 56.1351C53.8071 63.0352 51.3995 71.587 53.4861 79.4995C56.3752 90.4224 66.7012 97.4025 76.2514 103.37C87.2729 110.244 98.2677 117.117 109.289 123.99C115.656 127.96 122.05 131.956 128.951 134.887C152.974 145.117 189.195 142.213 204.711 118.156Z" fill="#CFF7F7"/>
<path d="M167.5 90.0761H157.415V35.3815C157.415 22.5138 146.902 12.0438 133.981 12.0438C121.06 12.0438 110.547 22.5138 110.547 35.3815V90.0761H100.435V35.3815C100.435 16.9724 115.496 2 133.981 2C152.466 2 167.5 16.9724 167.5 35.3815V90.0761Z" fill="white" stroke="#2D8D96" stroke-width="2.07745" stroke-miterlimit="22.9256"/>
<path d="M174.964 66.9781H92.9714C87.1798 66.9781 82.4849 70.6042 82.4849 75.0771V118.422C82.4849 122.895 87.1798 126.521 92.9714 126.521H174.964C180.755 126.521 185.45 122.895 185.45 118.422V75.0771C185.45 70.6042 180.755 66.9781 174.964 66.9781Z" fill="#00BBBB" stroke="#2D8D96" stroke-width="2.07745" stroke-miterlimit="22.9256"/>
<path d="M141.525 94.6052C141.525 90.4491 138.154 87.0657 133.981 87.0657C129.808 87.0657 126.41 90.4491 126.41 94.6052C126.41 98.0419 128.764 100.919 131.921 101.798V113.041H136.041V101.798C139.197 100.919 141.525 98.0419 141.525 94.6052Z" fill="white"/>
<path fill-rule="evenodd" clip-rule="evenodd" d="M151.049 42.3616H253.88C256.154 42.3616 258 44.1998 258 46.4377V66.9515C258 69.216 256.154 71.0542 253.88 71.0542H167.768L166.19 73.1856L162.846 77.7679L159.475 73.1856L157.897 71.0542H151.049C148.801 71.0542 146.956 69.216 146.956 66.9515V46.4377C146.956 44.1998 148.801 42.3616 151.049 42.3616Z" fill="white" stroke="#2D8D96" stroke-width="2" stroke-miterlimit="22.9256"/>
<path d="M166.27 60.1313C168.279 60.1313 169.908 58.5092 169.908 56.5081C169.908 54.5071 168.279 52.8849 166.27 52.8849C164.261 52.8849 162.632 54.5071 162.632 56.5081C162.632 58.5092 164.261 60.1313 166.27 60.1313Z" fill="#2D8D96"/>
<path d="M178.334 60.1313C180.344 60.1313 181.973 58.5092 181.973 56.5081C181.973 54.5071 180.344 52.8849 178.334 52.8849C176.325 52.8849 174.696 54.5071 174.696 56.5081C174.696 58.5092 176.325 60.1313 178.334 60.1313Z" fill="#2D8D96"/>
<path d="M190.399 60.1313C192.409 60.1313 194.038 58.5092 194.038 56.5081C194.038 54.5071 192.409 52.8849 190.399 52.8849C188.39 52.8849 186.761 54.5071 186.761 56.5081C186.761 58.5092 188.39 60.1313 190.399 60.1313Z" fill="#2D8D96"/>
<path d="M202.464 60.1313C204.473 60.1313 206.102 58.5092 206.102 56.5081C206.102 54.5071 204.473 52.8849 202.464 52.8849C200.455 52.8849 198.826 54.5071 198.826 56.5081C198.826 58.5092 200.455 60.1313 202.464 60.1313Z" fill="#2D8D96"/>
<path d="M214.529 60.1313C216.539 60.1313 218.167 58.5092 218.167 56.5081C218.167 54.5071 216.539 52.8849 214.529 52.8849C212.52 52.8849 210.891 54.5071 210.891 56.5081C210.891 58.5092 212.52 60.1313 214.529 60.1313Z" fill="#2D8D96"/>
<path d="M226.621 60.1313C228.63 60.1313 230.259 58.5092 230.259 56.5081C230.259 54.5071 228.63 52.8849 226.621 52.8849C224.611 52.8849 222.982 54.5071 222.982 56.5081C222.982 58.5092 224.611 60.1313 226.621 60.1313Z" fill="#2D8D96"/>
<path d="M238.686 60.1313C240.695 60.1313 242.324 58.5092 242.324 56.5081C242.324 54.5071 240.695 52.8849 238.686 52.8849C236.676 52.8849 235.047 54.5071 235.047 56.5081C235.047 58.5092 236.676 60.1313 238.686 60.1313Z" fill="#2D8D96"/>
<path fill-rule="evenodd" clip-rule="evenodd" d="M15.6602 109.684L15.5532 95.2178L104.1 95.724L108.888 103.343L104.207 110.19L80.8798 109.231L78.5257 106.54L75.904 109.258L69.9653 109.311L69.9385 107.02L65.7921 103.45L61.4316 107.073L61.4584 109.364L44.4713 109.471L38.6396 105.501L32.139 109.577L15.6602 109.684Z" fill="#2D8D96" stroke="#2D8D96" stroke-width="1.6513" stroke-miterlimit="22.9256" stroke-linejoin="round"/>
<path d="M106.989 100.439L46.2905 99.9866" stroke="#BCBCBC" stroke-width="1.6513" stroke-miterlimit="22.9256" stroke-linejoin="round"/>
<path d="M46.9502 105.665C46.8595 93.0733 36.5365 82.9392 23.8931 83.0295C11.2497 83.1198 1.07369 93.4004 1.16439 105.992C1.25509 118.583 11.5781 128.717 24.2215 128.627C36.8649 128.537 47.0409 118.256 46.9502 105.665Z" fill="#2D8D96" stroke="#2D8D96" stroke-width="0.385586" stroke-miterlimit="22.9256" stroke-linejoin="round"/>
<path d="M19.2451 105.626C19.2198 102.125 16.3493 99.3066 12.8336 99.3317C9.31783 99.3568 6.4882 102.216 6.51342 105.717C6.53864 109.218 9.40916 112.036 12.9249 112.011C16.4407 111.986 19.2703 109.127 19.2451 105.626Z" fill="#BCBCBC" stroke="#BCBCBC" stroke-width="0.10722" stroke-miterlimit="22.9256" stroke-linejoin="round"/>
<path fill-rule="evenodd" clip-rule="evenodd" d="M6.83203 105.661C6.85878 102.358 9.53391 99.6936 12.8511 99.667C16.1682 99.6404 18.8968 102.331 18.9236 105.635C18.9236 106.194 18.8701 106.7 18.7363 107.206V107.127C18.7096 103.796 15.981 101.132 12.6371 101.159C9.85492 101.186 7.50081 103.077 6.83203 105.661Z" fill="#BCBCBC" stroke="#BCBCBC" stroke-width="1.6513" stroke-miterlimit="22.9256" stroke-linejoin="round"/>
<path fill-rule="evenodd" clip-rule="evenodd" d="M15.6602 107.979L15.5532 93.5395L104.1 94.019L108.888 101.638L104.207 108.485L80.8798 107.526L78.5257 104.835L75.904 107.553L69.9653 107.606L69.9385 105.315L65.7921 101.745L61.4316 105.368L61.4584 107.659L44.4713 107.793L38.6396 103.796L32.139 107.873L15.6602 107.979Z" fill="white" stroke="#2D8D96" stroke-width="1.6513" stroke-miterlimit="22.9256" stroke-linejoin="round"/>
<path d="M106.989 98.7344L46.2905 98.2816" stroke="#2D8D96" stroke-width="1.6513" stroke-miterlimit="22.9256" stroke-linejoin="round"/>
<path d="M46.9502 103.961C46.8595 91.3696 36.5365 81.2355 23.8931 81.3258C11.2497 81.4161 1.07369 91.6967 1.16439 104.288C1.25509 116.88 11.5781 127.014 24.2215 126.923C36.8649 126.833 47.0409 116.552 46.9502 103.961Z" fill="white" stroke="#2D8D96" stroke-width="0.385586" stroke-miterlimit="22.9256" stroke-linejoin="round"/>
<path d="M19.2451 103.922C19.2198 100.421 16.3493 97.6029 12.8336 97.628C9.31783 97.6531 6.4882 100.512 6.51342 104.013C6.53864 107.514 9.40916 110.332 12.9249 110.307C16.4407 110.282 19.2703 107.423 19.2451 103.922Z" fill="white" stroke="#2D8D96" stroke-width="0.10722" stroke-miterlimit="22.9256" stroke-linejoin="round"/>
<path fill-rule="evenodd" clip-rule="evenodd" d="M6.83203 103.956C6.85878 100.653 9.53391 97.9886 12.8511 97.9619C16.1682 97.9353 18.8968 100.626 18.9236 103.956C18.9236 104.489 18.8701 104.995 18.7363 105.501V105.421C18.7096 102.091 15.981 99.4272 12.6371 99.4538C9.85492 99.4805 7.50081 101.372 6.83203 103.956Z" fill="#E0E0E0" stroke="#2D8D96" stroke-width="1.6513" stroke-miterlimit="22.9256" stroke-linejoin="round"/>
<path fill-rule="evenodd" clip-rule="evenodd" d="M80.1305 38.8982H21.0904C19.7796 38.8982 18.7363 39.9372 18.7363 41.2426V53.0181C18.7363 54.3235 19.7796 55.3625 21.0904 55.3625H70.5268L71.4363 56.588L73.3624 59.2255L75.3152 56.588L76.198 55.3625H80.1305C81.4413 55.3625 82.4846 54.3235 82.4846 53.0181V41.2426C82.4846 39.9372 81.4413 38.8982 80.1305 38.8982Z" fill="white" stroke="#CFF7F7" stroke-width="2.34379" stroke-miterlimit="22.9256"/>
<path d="M71.4093 49.1018C72.5617 49.1018 73.4959 48.1715 73.4959 47.0238C73.4959 45.8762 72.5617 44.9458 71.4093 44.9458C70.257 44.9458 69.3228 45.8762 69.3228 47.0238C69.3228 48.1715 70.257 49.1018 71.4093 49.1018Z" fill="#CFF7F7"/>
<path d="M64.4811 49.1018C65.6335 49.1018 66.5677 48.1715 66.5677 47.0238C66.5677 45.8762 65.6335 44.9458 64.4811 44.9458C63.3287 44.9458 62.3945 45.8762 62.3945 47.0238C62.3945 48.1715 63.3287 49.1018 64.4811 49.1018Z" fill="#CFF7F7"/>
<path d="M57.5524 49.1018C58.7048 49.1018 59.639 48.1715 59.639 47.0238C59.639 45.8762 58.7048 44.9458 57.5524 44.9458C56.4 44.9458 55.4658 45.8762 55.4658 47.0238C55.4658 48.1715 56.4 49.1018 57.5524 49.1018Z" fill="#CFF7F7"/>
<path d="M50.6242 49.1018C51.7766 49.1018 52.7108 48.1715 52.7108 47.0238C52.7108 45.8762 51.7766 44.9458 50.6242 44.9458C49.4718 44.9458 48.5376 45.8762 48.5376 47.0238C48.5376 48.1715 49.4718 49.1018 50.6242 49.1018Z" fill="#CFF7F7"/>
<path d="M43.6686 49.1018C44.821 49.1018 45.7552 48.1715 45.7552 47.0238C45.7552 45.8762 44.821 44.9458 43.6686 44.9458C42.5162 44.9458 41.582 45.8762 41.582 47.0238C41.582 48.1715 42.5162 49.1018 43.6686 49.1018Z" fill="#CFF7F7"/>
<path d="M36.7399 49.1018C37.8923 49.1018 38.8265 48.1715 38.8265 47.0238C38.8265 45.8762 37.8923 44.9458 36.7399 44.9458C35.5875 44.9458 34.6533 45.8762 34.6533 47.0238C34.6533 48.1715 35.5875 49.1018 36.7399 49.1018Z" fill="#CFF7F7"/>
<path d="M29.8117 49.1018C30.9641 49.1018 31.8983 48.1715 31.8983 47.0238C31.8983 45.8762 30.9641 44.9458 29.8117 44.9458C28.6593 44.9458 27.7251 45.8762 27.7251 47.0238C27.7251 48.1715 28.6593 49.1018 29.8117 49.1018Z" fill="#CFF7F7"/>
</svg>
