<svg width="267" height="187" viewBox="0 0 267 187" fill="none" xmlns="http://www.w3.org/2000/svg">
<path d="M266 1L263.868 25.0124L251.466 18.848L266 1Z" fill="#F4F4F4" stroke="#091E25" stroke-linejoin="round"/>
<path d="M266 1L246.753 17.518L236 16.4587L266 1Z" fill="#F4F4F4" stroke="#091E25" stroke-linejoin="round"/>
<path d="M266 1L251.465 18.848L249.553 26L246.753 17.518L266 1Z" fill="#BCBCBC" stroke="#091E25" stroke-linejoin="round"/>
<path d="M85.6585 71C70.4665 54.7103 39.1227 23.1737 10.0814 37.7591C-18.6171 52.1692 25.9018 93.0292 71.1807 36.9792C78.4025 28.0414 92.7146 17.2283 108.147 22.2975C131.737 30.0436 145.855 52.9666 181.113 52.5547C205.84 52.2699 227.734 40.0461 246 28.5102" stroke="#BCBCBC" stroke-width="2" stroke-miterlimit="25.08" stroke-dasharray="5 8"/>
<path d="M74.2238 102.624L71.0941 119.176C70.6217 121.127 66.3699 149.361 68.6308 149.886L114.717 132.901L144.884 164.912C147.145 165.438 157.698 140.731 158.162 138.796L164.573 123.787L128.467 76.3584L74.2238 102.624Z" fill="#00BBBB" stroke="#091E25" stroke-width="1.36" stroke-linejoin="round"/>
<path d="M88.5314 76.0083L69.5166 155.223L145.019 172.917L164.017 93.7024C139.552 87.9573 113.603 81.8869 88.5314 76V76.0083Z" fill="white" stroke="#091E25" stroke-width="1.36" stroke-linejoin="round"/>
<path d="M113.746 140.805L139.096 125.63L164.404 124.412L152.071 179.821L146.495 178.503L134.819 175.768L112.953 144.082C112.781 143.818 112.665 143.521 112.611 143.211C112.558 142.901 112.569 142.583 112.643 142.277C112.717 141.971 112.853 141.683 113.043 141.43C113.232 141.177 113.471 140.965 113.746 140.805Z" fill="#00BBBB"/>
<path d="M156.019 163.502L122.79 135.352L121.879 135.902L154.864 168.305L156.019 163.502Z" fill="#009999"/>
<path d="M113.746 140.805L139.096 125.63L164.404 124.412L152.071 179.821L146.495 178.503L134.819 175.768L112.953 144.082C112.781 143.818 112.665 143.521 112.611 143.211C112.558 142.901 112.569 142.583 112.643 142.277C112.717 141.971 112.853 141.683 113.043 141.43C113.232 141.177 113.471 140.964 113.746 140.805V140.805Z" stroke="#091E25" stroke-width="1.36" stroke-linejoin="round"/>
<path d="M112.016 140.355L96.2495 115.556L74.1303 103.174L60 158.207L65.1122 159.45L77.1504 162.251L111.198 143.673C111.484 143.518 111.735 143.306 111.934 143.05C112.134 142.795 112.278 142.501 112.357 142.188C112.436 141.875 112.449 141.549 112.395 141.23C112.341 140.912 112.22 140.608 112.042 140.338L112.016 140.355Z" fill="#00BBBB"/>
<path d="M63.9152 141.915L106.391 131.517L106.956 132.409L62.7764 146.718L63.9152 141.915Z" fill="#009999"/>
<path d="M112.016 140.355L96.2495 115.556L74.1303 103.174L60 158.207L65.1122 159.45L77.1504 162.251L111.198 143.673C111.484 143.518 111.735 143.306 111.934 143.05C112.134 142.795 112.278 142.501 112.357 142.188C112.436 141.875 112.449 141.549 112.395 141.23C112.341 140.912 112.22 140.608 112.042 140.338L112.016 140.355Z" stroke="#091E25" stroke-width="1.36" stroke-linejoin="round"/>
<path d="M154.863 168.306L152.104 179.821L60 158.233L62.9779 146.651L115.155 130.475L154.863 168.306Z" fill="#00BBBB" stroke="#091E25" stroke-width="1.36" stroke-linejoin="round"/>
<path d="M157.268 163.594L124.587 150.737L135.385 186L188 170.257L177.202 135.002L157.268 163.594Z" fill="white" stroke="#091E25" stroke-width="0.9" stroke-linejoin="round"/>
<path d="M124.587 150.737L135.385 186L152.367 161.669L124.587 150.737Z" fill="white" stroke="#091E25" stroke-width="0.9" stroke-linejoin="round"/>
<path d="M177.202 135.002L188 170.257L160.212 159.325L177.202 135.002Z" fill="white" stroke="#091E25" stroke-width="0.9" stroke-linejoin="round"/>
<path d="M124.587 150.737L128.586 152.504L157.462 164.545L174.857 138.663L177.202 135.002L124.587 150.737Z" fill="white" stroke="#091E25" stroke-width="0.9" stroke-linejoin="round"/>
</svg>
