<svg width="20" height="20" viewBox="0 0 20 20" fill="none" xmlns="http://www.w3.org/2000/svg">
<path d="M13.9049 7.52011C13.1187 6.85035 12.5203 5.99002 12.168 5.02274C11.8157 4.05547 11.7215 3.01415 11.8944 2C10.5611 2.96216 9.49532 4.24438 8.79679 5.72672C8.71474 5.90097 8.63799 6.07805 8.56655 6.25795C8.11786 7.38579 7.88823 8.58776 7.88978 9.80039C7.88978 9.92915 7.8925 10.0575 7.89716 10.1859C7.60339 10.1135 7.32696 9.9841 7.08379 9.80514C6.84062 9.62619 6.63553 9.40122 6.48033 9.1432C6.32513 8.88519 6.2229 8.59923 6.17952 8.3018C6.13614 8.00437 6.15248 7.70137 6.22758 7.41024C5.26858 8.18011 4.5718 9.2247 4.2321 10.4018C3.89241 11.5789 3.92628 12.8314 4.32913 13.9887C4.73197 15.146 5.48421 16.1519 6.48346 16.8696C7.4827 17.5872 8.6804 17.9817 9.91353 17.9994C11.1467 18.017 12.3553 17.657 13.375 16.9682C14.3946 16.2794 15.1758 15.2954 15.612 14.1501C16.0483 13.0048 16.1185 11.7539 15.8131 10.5675C15.5077 9.38119 14.8416 8.3171 13.9053 7.52011H13.9049ZM11.6463 16.4763C11.3986 16.7645 11.0782 16.9822 10.718 17.1073C10.2358 17.2744 9.70978 17.2671 9.23247 17.0869C8.75515 16.9068 8.35715 16.5652 8.10854 16.1223C7.85993 15.6794 7.77665 15.1637 7.87336 14.6658C7.97006 14.168 8.24055 13.72 8.63721 13.4007C8.62015 13.4676 8.61154 13.5363 8.61159 13.6054C8.61155 13.7891 8.67352 13.9676 8.7876 14.1123C8.90169 14.257 9.0613 14.3596 9.24098 14.4038C9.23904 14.3575 9.23826 14.3112 9.23826 14.2646C9.23763 13.8263 9.32063 13.3919 9.48287 12.9843C9.5085 12.9195 9.53645 12.8552 9.56596 12.7916C9.81826 12.256 10.2033 11.7927 10.685 11.445C10.6222 11.8115 10.6561 12.1879 10.7834 12.5375C10.9108 12.8871 11.1271 13.1981 11.4114 13.44C11.8478 13.8119 12.1174 14.3407 12.1611 14.91C12.2048 15.4794 12.0189 16.0426 11.6444 16.4759L11.6463 16.4763Z" fill="#F44336"/>
</svg>
