<svg width="154" height="41" viewBox="0 0 154 41" fill="none" xmlns="http://www.w3.org/2000/svg">
<path d="M77.6382 28.614H56.7724C57.2911 33.6084 59.8843 36.7649 64.6719 36.7649C67.9434 36.7649 70.6164 35.2066 72.5315 32.7693L76.5211 34.9269C73.9677 38.7227 69.7387 40.9202 64.7118 40.9202C56.6527 40.9202 51.2268 35.2865 51.2268 26.816C51.2268 18.2255 56.4931 12.5119 64.5123 12.5119C72.4517 12.5119 77.718 18.0657 77.718 26.3764C77.718 27.0557 77.718 28.0146 77.6382 28.614ZM56.7724 25.018H72.3719C71.8931 19.7838 69.0206 16.6673 64.5123 16.6673C60.004 16.6673 57.2113 19.8637 56.7724 25.018Z" fill="#091E25"/>
<path d="M81.9866 26.736C81.9866 18.2255 87.7316 12.5119 96.3493 12.5119C99.9399 12.5119 102.972 13.6307 105.486 15.5885L102.493 19.1845C100.738 17.7461 98.8627 17.0269 96.3892 17.0269C91.0031 17.0269 87.4125 20.9425 87.4125 26.736C87.4125 32.5296 91.0031 36.4452 96.429 36.4452C99.142 36.4452 101.536 35.5662 103.291 33.7283L106.323 37.2843C103.77 39.7615 100.179 41.0001 96.1897 41.0001C87.6918 40.9602 81.9866 35.2466 81.9866 26.736Z" fill="#091E25"/>
<path d="M127.708 35.5261V39.7214C125.753 40.6004 123.439 40.96 120.926 40.96C116.218 40.96 113.026 37.7236 113.026 32.889V17.3463H108.358V13.0311H113.026V5.04004H118.253V13.0311H127.269V17.3463H118.253V31.8102C118.253 34.5671 120.008 36.445 122.561 36.445C124.317 36.445 126.032 36.1654 127.708 35.5261Z" fill="#091E25"/>
<path d="M154 23.18V40.4408H148.933L148.814 35.6062C146.898 39.0024 143.348 40.9602 139.478 40.9602C134.012 40.9602 130.262 37.6838 130.262 32.7294C130.262 27.6151 134.81 24.2189 141.712 24.2189C143.906 24.2189 146.42 24.4586 148.774 24.978V23.7394C148.774 19.3842 145.941 16.6673 141.353 16.6673C138.361 16.6673 136.166 17.5862 134.331 19.3443L132.017 16.2278C134.73 13.8304 138.081 12.5119 142.63 12.5119C149.452 12.5119 154 16.7871 154 23.18ZM148.774 28.574C146.619 28.0945 144.385 27.8548 142.35 27.8548C138.361 27.8548 135.728 29.7727 135.728 32.5695C135.728 35.3265 137.643 37.1245 140.954 37.1245C144.784 37.1644 148.734 34.0079 148.774 28.574Z" fill="#091E25"/>
<path d="M44.0314 -1.95423e-05L39.0842 0.0132446L39.1929 40.5281L44.14 40.5148L44.0314 -1.95423e-05Z" fill="#091E25"/>
<path d="M15.505 -1.95398e-05L10.5579 0.0132446L10.6665 40.5281L15.6136 40.5148L15.505 -1.95398e-05Z" fill="#091E25"/>
<path d="M40.2953 23.5389H0V28.4938H40.2953V23.5389Z" fill="#091E25"/>
</svg>
