<svg width="16" height="20" viewBox="0 0 16 20" fill="none" xmlns="http://www.w3.org/2000/svg">
<path d="M15.8945 4.488L11.5369 0.096C11.4783 0.036 11.3962 0 11.3102 0H3.27113C2.05569 0 1.07084 1.064 1.07084 2.376V11.144H0V17.088H1.07084V17.624C1.07084 18.932 2.0596 20 3.27113 20H13.7997C15.0151 20 16 18.936 16 17.624V4.748C16 4.652 15.9648 4.556 15.8945 4.488ZM11.2008 0.736L14.9917 4.56H12.9282C11.9746 4.56 11.2008 3.78 11.2008 2.824V0.736ZM15.3356 17.624C15.3356 18.54 14.6478 19.284 13.7997 19.284H3.27113C2.42306 19.284 1.73522 18.54 1.73522 17.624V17.088H9.04348C10.47 17.088 11.6229 15.756 11.6229 14.116C11.6229 12.476 10.466 11.144 9.04348 11.144H1.73522V2.376C1.73522 1.46 2.42306 0.716 3.27113 0.716H10.5364V2.824C10.5364 4.176 11.6072 5.276 12.9282 5.276H15.3356V17.624ZM2.05569 15.616V12.616H3.17733C3.50171 12.616 3.75574 12.7 3.93552 12.872C4.11529 13.044 4.20909 13.268 4.20909 13.548C4.20909 13.828 4.1192 14.056 3.93552 14.224C3.75183 14.392 3.4978 14.48 3.17733 14.48H2.54421V15.616H2.05569ZM4.80313 15.616V12.616H5.77235C6.14362 12.616 6.44455 12.736 6.67904 12.972C6.91353 13.208 7.02687 13.516 7.02687 13.888V14.344C7.02687 14.72 6.90962 15.024 6.67904 15.26C6.44455 15.496 6.14362 15.616 5.77235 15.616H4.80313ZM9.36004 13.936V14.336H8.17978V15.616H7.68735V12.616H9.56326V13.016H8.17587V13.932H9.36004V13.936Z" fill="#F44336"/>
<path d="M3.58742 13.928C3.67731 13.828 3.72421 13.704 3.72421 13.552C3.72421 13.4 3.67731 13.272 3.58742 13.172C3.49754 13.072 3.36075 13.02 3.17707 13.02H2.54395V14.08H3.17707C3.36075 14.076 3.49363 14.028 3.58742 13.928Z" fill="#F44336"/>
<path d="M5.77172 13.02H5.29102V15.22H5.77172C6.00621 15.22 6.1938 15.14 6.33059 14.976C6.46737 14.812 6.53772 14.604 6.53772 14.348V13.888C6.53772 13.636 6.46737 13.428 6.33059 13.264C6.1938 13.1 6.00621 13.02 5.77172 13.02Z" fill="#F44336"/>
</svg>
