<svg width="30" height="30" viewBox="0 0 30 30" fill="none" xmlns="http://www.w3.org/2000/svg">
<path fill-rule="evenodd" clip-rule="evenodd" d="M23.75 25H17.5H12.5H6.25V15H2.5L15 3.75L27.5 15H23.75V25ZM15 17.5C15.6904 17.5 16.25 16.9404 16.25 16.25C16.25 15.5596 15.6904 15 15 15C14.3096 15 13.75 15.5596 13.75 16.25C13.75 16.9404 14.3096 17.5 15 17.5ZM11.25 16.25C11.25 16.9404 10.6904 17.5 10 17.5C9.30964 17.5 8.75 16.9404 8.75 16.25C8.75 15.5596 9.30964 15 10 15C10.6904 15 11.25 15.5596 11.25 16.25ZM20 17.5C20.6904 17.5 21.25 16.9404 21.25 16.25C21.25 15.5596 20.6904 15 20 15C19.3096 15 18.75 15.5596 18.75 16.25C18.75 16.9404 19.3096 17.5 20 17.5Z" fill="#BCBCBC"/>
</svg>
