<svg width="345" height="79" viewBox="0 0 345 79" fill="none" xmlns="http://www.w3.org/2000/svg">
<g clip-path="url(#clip0_0_1)">
<rect width="375" height="919" transform="translate(-15 -103)" fill="white"/>
<rect width="345" height="79" rx="10" fill="#E0E0E0"/>
<path d="M36.021 40.9583L34.896 48.875H25.521L20.2085 43.2708L21.4793 41.9896L25.4168 42.875V31.6875C25.4168 30.8229 26.1147 30.125 26.9793 30.125C27.8439 30.125 28.5418 30.8229 28.5418 31.6875V37.9375H29.9793L36.021 40.9583Z" fill="white"/>
<path d="M60.6582 24.6982H62.7021C62.6611 25.3682 62.4766 25.9629 62.1484 26.4824C61.8249 27.002 61.3714 27.4076 60.7881 27.6992C60.2093 27.9909 59.512 28.1367 58.6963 28.1367C58.0583 28.1367 57.4863 28.0273 56.9805 27.8086C56.4746 27.5853 56.0417 27.2663 55.6816 26.8516C55.3262 26.4368 55.055 25.9355 54.8682 25.3477C54.6813 24.7598 54.5879 24.1012 54.5879 23.3721V22.6816C54.5879 21.9525 54.6836 21.2939 54.875 20.7061C55.071 20.1136 55.349 19.61 55.709 19.1953C56.0736 18.7806 56.5088 18.4616 57.0146 18.2383C57.5205 18.015 58.0856 17.9033 58.71 17.9033C59.5394 17.9033 60.2389 18.0537 60.8086 18.3545C61.3828 18.6553 61.8271 19.07 62.1416 19.5986C62.4606 20.1273 62.652 20.7288 62.7158 21.4033H60.665C60.6423 21.0023 60.5625 20.6628 60.4258 20.3848C60.2891 20.1022 60.0817 19.8903 59.8037 19.749C59.5303 19.6032 59.1657 19.5303 58.71 19.5303C58.3682 19.5303 58.0697 19.5941 57.8145 19.7217C57.5592 19.8493 57.3451 20.043 57.1719 20.3027C56.9987 20.5625 56.8688 20.8906 56.7822 21.2871C56.7002 21.679 56.6592 22.1393 56.6592 22.668V23.3721C56.6592 23.887 56.6979 24.3405 56.7754 24.7324C56.8529 25.1198 56.9714 25.4479 57.1309 25.7168C57.2949 25.9811 57.5046 26.1816 57.7598 26.3184C58.0195 26.4505 58.3317 26.5166 58.6963 26.5166C59.1247 26.5166 59.4779 26.4482 59.7559 26.3115C60.0339 26.1748 60.2458 25.972 60.3916 25.7031C60.542 25.4342 60.6309 25.0993 60.6582 24.6982ZM65.8467 17.5V28H63.8779V17.5H65.8467ZM65.5664 24.042H65.0264C65.0309 23.527 65.0993 23.0531 65.2314 22.6201C65.3636 22.1826 65.5527 21.8044 65.7988 21.4854C66.0449 21.1618 66.3389 20.9111 66.6807 20.7334C67.027 20.5557 67.4098 20.4668 67.8291 20.4668C68.1937 20.4668 68.5241 20.5192 68.8203 20.624C69.1211 20.7243 69.3786 20.8883 69.5928 21.1162C69.8115 21.3395 69.9801 21.6335 70.0986 21.998C70.2171 22.3626 70.2764 22.8047 70.2764 23.3242V28H68.2939V23.3105C68.2939 22.9824 68.2461 22.7249 68.1504 22.5381C68.0592 22.3467 67.9248 22.2122 67.7471 22.1348C67.5739 22.0527 67.3597 22.0117 67.1045 22.0117C66.8219 22.0117 66.5804 22.0641 66.3799 22.1689C66.1839 22.2738 66.0267 22.4196 65.9082 22.6064C65.7897 22.7887 65.7031 23.0029 65.6484 23.249C65.5938 23.4951 65.5664 23.7594 65.5664 24.042ZM71.459 24.377V24.2334C71.459 23.6911 71.5365 23.1921 71.6914 22.7363C71.8464 22.276 72.0719 21.8773 72.3682 21.54C72.6644 21.2028 73.029 20.9408 73.4619 20.7539C73.8949 20.5625 74.3916 20.4668 74.9521 20.4668C75.5127 20.4668 76.0117 20.5625 76.4492 20.7539C76.8867 20.9408 77.2536 21.2028 77.5498 21.54C77.8506 21.8773 78.0785 22.276 78.2334 22.7363C78.3883 23.1921 78.4658 23.6911 78.4658 24.2334V24.377C78.4658 24.9147 78.3883 25.4137 78.2334 25.874C78.0785 26.3298 77.8506 26.7285 77.5498 27.0703C77.2536 27.4076 76.889 27.6696 76.4561 27.8564C76.0231 28.0433 75.5264 28.1367 74.9658 28.1367C74.4053 28.1367 73.9062 28.0433 73.4688 27.8564C73.0358 27.6696 72.6689 27.4076 72.3682 27.0703C72.0719 26.7285 71.8464 26.3298 71.6914 25.874C71.5365 25.4137 71.459 24.9147 71.459 24.377ZM73.4277 24.2334V24.377C73.4277 24.6868 73.4551 24.9762 73.5098 25.2451C73.5645 25.514 73.651 25.751 73.7695 25.9561C73.8926 26.1566 74.0521 26.3138 74.248 26.4277C74.444 26.5417 74.6833 26.5986 74.9658 26.5986C75.2393 26.5986 75.474 26.5417 75.6699 26.4277C75.8659 26.3138 76.0231 26.1566 76.1416 25.9561C76.2601 25.751 76.3467 25.514 76.4014 25.2451C76.4606 24.9762 76.4902 24.6868 76.4902 24.377V24.2334C76.4902 23.9326 76.4606 23.6501 76.4014 23.3857C76.3467 23.1169 76.2578 22.8799 76.1348 22.6748C76.0163 22.4652 75.859 22.3011 75.6631 22.1826C75.4671 22.0641 75.2301 22.0049 74.9521 22.0049C74.6742 22.0049 74.4372 22.0641 74.2412 22.1826C74.0498 22.3011 73.8926 22.4652 73.7695 22.6748C73.651 22.8799 73.5645 23.1169 73.5098 23.3857C73.4551 23.6501 73.4277 23.9326 73.4277 24.2334ZM79.3613 24.377V24.2334C79.3613 23.6911 79.4388 23.1921 79.5938 22.7363C79.7487 22.276 79.9743 21.8773 80.2705 21.54C80.5667 21.2028 80.9313 20.9408 81.3643 20.7539C81.7972 20.5625 82.2939 20.4668 82.8545 20.4668C83.415 20.4668 83.9141 20.5625 84.3516 20.7539C84.7891 20.9408 85.1559 21.2028 85.4521 21.54C85.7529 21.8773 85.9808 22.276 86.1357 22.7363C86.2907 23.1921 86.3682 23.6911 86.3682 24.2334V24.377C86.3682 24.9147 86.2907 25.4137 86.1357 25.874C85.9808 26.3298 85.7529 26.7285 85.4521 27.0703C85.1559 27.4076 84.7913 27.6696 84.3584 27.8564C83.9255 28.0433 83.4287 28.1367 82.8682 28.1367C82.3076 28.1367 81.8086 28.0433 81.3711 27.8564C80.9382 27.6696 80.5713 27.4076 80.2705 27.0703C79.9743 26.7285 79.7487 26.3298 79.5938 25.874C79.4388 25.4137 79.3613 24.9147 79.3613 24.377ZM81.3301 24.2334V24.377C81.3301 24.6868 81.3574 24.9762 81.4121 25.2451C81.4668 25.514 81.5534 25.751 81.6719 25.9561C81.7949 26.1566 81.9544 26.3138 82.1504 26.4277C82.3464 26.5417 82.5856 26.5986 82.8682 26.5986C83.1416 26.5986 83.3763 26.5417 83.5723 26.4277C83.7682 26.3138 83.9255 26.1566 84.0439 25.9561C84.1624 25.751 84.249 25.514 84.3037 25.2451C84.363 24.9762 84.3926 24.6868 84.3926 24.377V24.2334C84.3926 23.9326 84.363 23.6501 84.3037 23.3857C84.249 23.1169 84.1602 22.8799 84.0371 22.6748C83.9186 22.4652 83.7614 22.3011 83.5654 22.1826C83.3695 22.0641 83.1325 22.0049 82.8545 22.0049C82.5765 22.0049 82.3395 22.0641 82.1436 22.1826C81.9521 22.3011 81.7949 22.4652 81.6719 22.6748C81.5534 22.8799 81.4668 23.1169 81.4121 23.3857C81.3574 23.6501 81.3301 23.9326 81.3301 24.2334ZM91.5771 25.9561C91.5771 25.8148 91.5361 25.6872 91.4541 25.5732C91.3721 25.4593 91.2194 25.3545 90.9961 25.2588C90.7773 25.1585 90.4606 25.0674 90.0459 24.9854C89.6722 24.9033 89.3236 24.8008 89 24.6777C88.681 24.5501 88.403 24.3975 88.166 24.2197C87.9336 24.042 87.7513 23.8324 87.6191 23.5908C87.487 23.3447 87.4209 23.0645 87.4209 22.75C87.4209 22.4401 87.487 22.1484 87.6191 21.875C87.7559 21.6016 87.9495 21.36 88.2002 21.1504C88.4554 20.9362 88.7653 20.7699 89.1299 20.6514C89.499 20.5283 89.9137 20.4668 90.374 20.4668C91.0166 20.4668 91.568 20.5693 92.0283 20.7744C92.4932 20.9795 92.8486 21.262 93.0947 21.6221C93.3454 21.9775 93.4707 22.3831 93.4707 22.8389H91.502C91.502 22.6475 91.4609 22.4766 91.3789 22.3262C91.3014 22.1712 91.1784 22.0505 91.0098 21.9639C90.8457 21.8727 90.6315 21.8271 90.3672 21.8271C90.1484 21.8271 89.9593 21.8659 89.7998 21.9434C89.6403 22.0163 89.5173 22.1165 89.4307 22.2441C89.3486 22.3672 89.3076 22.5039 89.3076 22.6543C89.3076 22.7682 89.3304 22.8708 89.376 22.9619C89.4261 23.0485 89.5059 23.1283 89.6152 23.2012C89.7246 23.2741 89.8659 23.3424 90.0391 23.4062C90.2168 23.4655 90.4355 23.5202 90.6953 23.5703C91.2285 23.6797 91.7048 23.8232 92.124 24.001C92.5433 24.1742 92.876 24.4111 93.1221 24.7119C93.3682 25.0081 93.4912 25.3978 93.4912 25.8809C93.4912 26.209 93.4183 26.5098 93.2725 26.7832C93.1266 27.0566 92.917 27.2959 92.6436 27.501C92.3701 27.7015 92.042 27.8587 91.6592 27.9727C91.2809 28.082 90.8548 28.1367 90.3809 28.1367C89.6927 28.1367 89.1094 28.0137 88.6309 27.7676C88.1569 27.5215 87.7969 27.2093 87.5508 26.8311C87.3092 26.4482 87.1885 26.0563 87.1885 25.6553H89.0547C89.0638 25.9242 89.1322 26.1406 89.2598 26.3047C89.3919 26.4688 89.5583 26.5872 89.7588 26.6602C89.9639 26.7331 90.1849 26.7695 90.4219 26.7695C90.6771 26.7695 90.889 26.7354 91.0576 26.667C91.2262 26.5941 91.3538 26.4984 91.4404 26.3799C91.5316 26.2568 91.5771 26.1156 91.5771 25.9561ZM98.1738 28.1367C97.5996 28.1367 97.0846 28.0456 96.6289 27.8633C96.1732 27.6764 95.7858 27.4189 95.4668 27.0908C95.1523 26.7627 94.9108 26.3822 94.7422 25.9492C94.5736 25.5117 94.4893 25.0469 94.4893 24.5547V24.2812C94.4893 23.7207 94.569 23.208 94.7285 22.7432C94.888 22.2783 95.1159 21.875 95.4121 21.5332C95.7129 21.1914 96.0775 20.9294 96.5059 20.7471C96.9342 20.5602 97.4173 20.4668 97.9551 20.4668C98.4792 20.4668 98.944 20.5534 99.3496 20.7266C99.7552 20.8997 100.095 21.1458 100.368 21.4648C100.646 21.7839 100.856 22.1667 100.997 22.6133C101.138 23.0553 101.209 23.5475 101.209 24.0898V24.9102H95.3301V23.5977H99.2744V23.4473C99.2744 23.1738 99.2243 22.93 99.124 22.7158C99.0283 22.4971 98.8825 22.3239 98.6865 22.1963C98.4906 22.0687 98.2399 22.0049 97.9346 22.0049C97.6748 22.0049 97.4515 22.0618 97.2646 22.1758C97.0778 22.2897 96.9251 22.4492 96.8066 22.6543C96.6927 22.8594 96.6061 23.1009 96.5469 23.3789C96.4922 23.6523 96.4648 23.9531 96.4648 24.2812V24.5547C96.4648 24.8509 96.5059 25.1243 96.5879 25.375C96.6745 25.6257 96.7952 25.8421 96.9502 26.0244C97.1097 26.2067 97.3011 26.348 97.5244 26.4482C97.7523 26.5485 98.0098 26.5986 98.2969 26.5986C98.6523 26.5986 98.9827 26.5303 99.2881 26.3936C99.598 26.2523 99.8646 26.0404 100.088 25.7578L101.045 26.7969C100.89 27.0202 100.678 27.2344 100.409 27.4395C100.145 27.6445 99.8258 27.8132 99.4521 27.9453C99.0785 28.0729 98.6523 28.1367 98.1738 28.1367ZM107.785 22.0254V30.8438H105.816V20.6035H107.642L107.785 22.0254ZM112.468 24.2197V24.3633C112.468 24.901 112.404 25.4001 112.276 25.8604C112.153 26.3206 111.971 26.7217 111.729 27.0635C111.488 27.4007 111.187 27.665 110.827 27.8564C110.472 28.0433 110.062 28.1367 109.597 28.1367C109.146 28.1367 108.754 28.0456 108.421 27.8633C108.088 27.681 107.808 27.4258 107.58 27.0977C107.357 26.765 107.177 26.3799 107.04 25.9424C106.903 25.5049 106.799 25.0355 106.726 24.5342V24.1582C106.799 23.6204 106.903 23.1283 107.04 22.6816C107.177 22.2305 107.357 21.8408 107.58 21.5127C107.808 21.18 108.086 20.9225 108.414 20.7402C108.747 20.5579 109.136 20.4668 109.583 20.4668C110.052 20.4668 110.465 20.5557 110.82 20.7334C111.18 20.9111 111.481 21.1663 111.723 21.499C111.969 21.8317 112.153 22.2282 112.276 22.6885C112.404 23.1488 112.468 23.6592 112.468 24.2197ZM110.492 24.3633V24.2197C110.492 23.9053 110.465 23.6159 110.41 23.3516C110.36 23.0827 110.278 22.848 110.164 22.6475C110.055 22.4469 109.909 22.292 109.727 22.1826C109.549 22.0687 109.332 22.0117 109.077 22.0117C108.808 22.0117 108.578 22.055 108.387 22.1416C108.2 22.2282 108.047 22.3535 107.929 22.5176C107.81 22.6816 107.721 22.8776 107.662 23.1055C107.603 23.3333 107.566 23.5908 107.553 23.8779V24.8281C107.576 25.1654 107.639 25.4684 107.744 25.7373C107.849 26.0016 108.011 26.2113 108.229 26.3662C108.448 26.5212 108.735 26.5986 109.091 26.5986C109.351 26.5986 109.569 26.5417 109.747 26.4277C109.925 26.3092 110.068 26.1475 110.178 25.9424C110.292 25.7373 110.371 25.5003 110.417 25.2314C110.467 24.9626 110.492 24.6732 110.492 24.3633ZM115.66 22.2168V28H113.691V20.6035H115.544L115.66 22.2168ZM117.889 20.5557L117.854 22.3809C117.759 22.3672 117.643 22.3558 117.506 22.3467C117.374 22.333 117.253 22.3262 117.144 22.3262C116.866 22.3262 116.624 22.3626 116.419 22.4355C116.218 22.5039 116.05 22.6064 115.913 22.7432C115.781 22.8799 115.681 23.0462 115.612 23.2422C115.549 23.4382 115.512 23.6615 115.503 23.9121L115.106 23.7891C115.106 23.3105 115.154 22.8708 115.25 22.4697C115.346 22.0641 115.485 21.7109 115.667 21.4102C115.854 21.1094 116.082 20.877 116.351 20.7129C116.619 20.5488 116.927 20.4668 117.273 20.4668C117.383 20.4668 117.494 20.4759 117.608 20.4941C117.722 20.5078 117.816 20.5283 117.889 20.5557ZM118.299 24.377V24.2334C118.299 23.6911 118.376 23.1921 118.531 22.7363C118.686 22.276 118.912 21.8773 119.208 21.54C119.504 21.2028 119.869 20.9408 120.302 20.7539C120.735 20.5625 121.231 20.4668 121.792 20.4668C122.353 20.4668 122.852 20.5625 123.289 20.7539C123.727 20.9408 124.093 21.2028 124.39 21.54C124.69 21.8773 124.918 22.276 125.073 22.7363C125.228 23.1921 125.306 23.6911 125.306 24.2334V24.377C125.306 24.9147 125.228 25.4137 125.073 25.874C124.918 26.3298 124.69 26.7285 124.39 27.0703C124.093 27.4076 123.729 27.6696 123.296 27.8564C122.863 28.0433 122.366 28.1367 121.806 28.1367C121.245 28.1367 120.746 28.0433 120.309 27.8564C119.876 27.6696 119.509 27.4076 119.208 27.0703C118.912 26.7285 118.686 26.3298 118.531 25.874C118.376 25.4137 118.299 24.9147 118.299 24.377ZM120.268 24.2334V24.377C120.268 24.6868 120.295 24.9762 120.35 25.2451C120.404 25.514 120.491 25.751 120.609 25.9561C120.732 26.1566 120.892 26.3138 121.088 26.4277C121.284 26.5417 121.523 26.5986 121.806 26.5986C122.079 26.5986 122.314 26.5417 122.51 26.4277C122.706 26.3138 122.863 26.1566 122.981 25.9561C123.1 25.751 123.187 25.514 123.241 25.2451C123.3 24.9762 123.33 24.6868 123.33 24.377V24.2334C123.33 23.9326 123.3 23.6501 123.241 23.3857C123.187 23.1169 123.098 22.8799 122.975 22.6748C122.856 22.4652 122.699 22.3011 122.503 22.1826C122.307 22.0641 122.07 22.0049 121.792 22.0049C121.514 22.0049 121.277 22.0641 121.081 22.1826C120.89 22.3011 120.732 22.4652 120.609 22.6748C120.491 22.8799 120.404 23.1169 120.35 23.3857C120.295 23.6501 120.268 23.9326 120.268 24.2334ZM128.484 22.0254V30.8438H126.516V20.6035H128.341L128.484 22.0254ZM133.167 24.2197V24.3633C133.167 24.901 133.103 25.4001 132.976 25.8604C132.853 26.3206 132.67 26.7217 132.429 27.0635C132.187 27.4007 131.886 27.665 131.526 27.8564C131.171 28.0433 130.761 28.1367 130.296 28.1367C129.845 28.1367 129.453 28.0456 129.12 27.8633C128.787 27.681 128.507 27.4258 128.279 27.0977C128.056 26.765 127.876 26.3799 127.739 25.9424C127.603 25.5049 127.498 25.0355 127.425 24.5342V24.1582C127.498 23.6204 127.603 23.1283 127.739 22.6816C127.876 22.2305 128.056 21.8408 128.279 21.5127C128.507 21.18 128.785 20.9225 129.113 20.7402C129.446 20.5579 129.836 20.4668 130.282 20.4668C130.752 20.4668 131.164 20.5557 131.52 20.7334C131.88 20.9111 132.18 21.1663 132.422 21.499C132.668 21.8317 132.853 22.2282 132.976 22.6885C133.103 23.1488 133.167 23.6592 133.167 24.2197ZM131.191 24.3633V24.2197C131.191 23.9053 131.164 23.6159 131.109 23.3516C131.059 23.0827 130.977 22.848 130.863 22.6475C130.754 22.4469 130.608 22.292 130.426 22.1826C130.248 22.0687 130.032 22.0117 129.776 22.0117C129.507 22.0117 129.277 22.055 129.086 22.1416C128.899 22.2282 128.746 22.3535 128.628 22.5176C128.509 22.6816 128.421 22.8776 128.361 23.1055C128.302 23.3333 128.266 23.5908 128.252 23.8779V24.8281C128.275 25.1654 128.339 25.4684 128.443 25.7373C128.548 26.0016 128.71 26.2113 128.929 26.3662C129.147 26.5212 129.435 26.5986 129.79 26.5986C130.05 26.5986 130.269 26.5417 130.446 26.4277C130.624 26.3092 130.768 26.1475 130.877 25.9424C130.991 25.7373 131.071 25.5003 131.116 25.2314C131.166 24.9626 131.191 24.6732 131.191 24.3633ZM137.795 28.1367C137.221 28.1367 136.706 28.0456 136.25 27.8633C135.794 27.6764 135.407 27.4189 135.088 27.0908C134.773 26.7627 134.532 26.3822 134.363 25.9492C134.195 25.5117 134.11 25.0469 134.11 24.5547V24.2812C134.11 23.7207 134.19 23.208 134.35 22.7432C134.509 22.2783 134.737 21.875 135.033 21.5332C135.334 21.1914 135.699 20.9294 136.127 20.7471C136.555 20.5602 137.038 20.4668 137.576 20.4668C138.1 20.4668 138.565 20.5534 138.971 20.7266C139.376 20.8997 139.716 21.1458 139.989 21.4648C140.267 21.7839 140.477 22.1667 140.618 22.6133C140.759 23.0553 140.83 23.5475 140.83 24.0898V24.9102H134.951V23.5977H138.896V23.4473C138.896 23.1738 138.845 22.93 138.745 22.7158C138.649 22.4971 138.504 22.3239 138.308 22.1963C138.112 22.0687 137.861 22.0049 137.556 22.0049C137.296 22.0049 137.073 22.0618 136.886 22.1758C136.699 22.2897 136.546 22.4492 136.428 22.6543C136.314 22.8594 136.227 23.1009 136.168 23.3789C136.113 23.6523 136.086 23.9531 136.086 24.2812V24.5547C136.086 24.8509 136.127 25.1243 136.209 25.375C136.296 25.6257 136.416 25.8421 136.571 26.0244C136.731 26.2067 136.922 26.348 137.146 26.4482C137.373 26.5485 137.631 26.5986 137.918 26.5986C138.273 26.5986 138.604 26.5303 138.909 26.3936C139.219 26.2523 139.486 26.0404 139.709 25.7578L140.666 26.7969C140.511 27.0202 140.299 27.2344 140.03 27.4395C139.766 27.6445 139.447 27.8132 139.073 27.9453C138.7 28.0729 138.273 28.1367 137.795 28.1367ZM143.92 22.2168V28H141.951V20.6035H143.804L143.92 22.2168ZM146.148 20.5557L146.114 22.3809C146.019 22.3672 145.902 22.3558 145.766 22.3467C145.633 22.333 145.513 22.3262 145.403 22.3262C145.125 22.3262 144.884 22.3626 144.679 22.4355C144.478 22.5039 144.31 22.6064 144.173 22.7432C144.041 22.8799 143.94 23.0462 143.872 23.2422C143.808 23.4382 143.772 23.6615 143.763 23.9121L143.366 23.7891C143.366 23.3105 143.414 22.8708 143.51 22.4697C143.605 22.0641 143.744 21.7109 143.927 21.4102C144.114 21.1094 144.341 20.877 144.61 20.7129C144.879 20.5488 145.187 20.4668 145.533 20.4668C145.643 20.4668 145.754 20.4759 145.868 20.4941C145.982 20.5078 146.076 20.5283 146.148 20.5557ZM151.043 20.6035V21.998H146.736V20.6035H151.043ZM147.803 18.7783H149.771V25.7715C149.771 25.9857 149.799 26.1497 149.854 26.2637C149.913 26.3776 149.999 26.4574 150.113 26.5029C150.227 26.5439 150.371 26.5645 150.544 26.5645C150.667 26.5645 150.776 26.5599 150.872 26.5508C150.972 26.5371 151.057 26.5234 151.125 26.5098L151.132 27.959C150.963 28.0137 150.781 28.057 150.585 28.0889C150.389 28.1208 150.173 28.1367 149.936 28.1367C149.503 28.1367 149.124 28.0661 148.801 27.9248C148.482 27.779 148.236 27.5465 148.062 27.2275C147.889 26.9085 147.803 26.4893 147.803 25.9697V18.7783ZM154.358 27.166L156.32 20.6035H158.433L155.459 29.1143C155.395 29.3011 155.309 29.5016 155.199 29.7158C155.094 29.93 154.951 30.1328 154.769 30.3242C154.591 30.5202 154.365 30.6797 154.092 30.8027C153.823 30.9258 153.493 30.9873 153.101 30.9873C152.914 30.9873 152.761 30.9759 152.643 30.9531C152.524 30.9303 152.383 30.8984 152.219 30.8574V29.415C152.269 29.415 152.321 29.415 152.376 29.415C152.431 29.4196 152.483 29.4219 152.533 29.4219C152.793 29.4219 153.005 29.3923 153.169 29.333C153.333 29.2738 153.465 29.1826 153.565 29.0596C153.666 28.9411 153.745 28.7861 153.805 28.5947L154.358 27.166ZM153.538 20.6035L155.145 25.9629L155.425 28.0479L154.085 28.1914L151.426 20.6035H153.538Z" fill="#091E25"/>
<path d="M60.4102 46.0801V47H55.8926V46.0801H60.4102ZM56.1211 38.4688V47H54.9902V38.4688H56.1211ZM59.8125 42.1367V43.0566H55.8926V42.1367H59.8125ZM60.3516 38.4688V39.3945H55.8926V38.4688H60.3516ZM62.3789 40.6602L63.7676 42.9688L65.1738 40.6602H66.4453L64.3711 43.7891L66.5098 47H65.2559L63.791 44.6211L62.3262 47H61.0664L63.1992 43.7891L61.1309 40.6602H62.3789ZM68.6836 41.8789V49.4375H67.5938V40.6602H68.5898L68.6836 41.8789ZM72.9551 43.7773V43.9004C72.9551 44.3613 72.9004 44.7891 72.791 45.1836C72.6816 45.5742 72.5215 45.9141 72.3105 46.2031C72.1035 46.4922 71.8477 46.7168 71.543 46.877C71.2383 47.0371 70.8887 47.1172 70.4941 47.1172C70.0918 47.1172 69.7363 47.0508 69.4277 46.918C69.1191 46.7852 68.8574 46.5918 68.6426 46.3379C68.4277 46.084 68.2559 45.7793 68.127 45.4238C68.002 45.0684 67.916 44.668 67.8691 44.2227V43.5664C67.916 43.0977 68.0039 42.6777 68.1328 42.3066C68.2617 41.9355 68.4316 41.6191 68.6426 41.3574C68.8574 41.0918 69.1172 40.8906 69.4219 40.7539C69.7266 40.6133 70.0781 40.543 70.4766 40.543C70.875 40.543 71.2285 40.6211 71.5371 40.7773C71.8457 40.9297 72.1055 41.1484 72.3164 41.4336C72.5273 41.7188 72.6855 42.0605 72.791 42.459C72.9004 42.8535 72.9551 43.293 72.9551 43.7773ZM71.8652 43.9004V43.7773C71.8652 43.4609 71.832 43.1641 71.7656 42.8867C71.6992 42.6055 71.5957 42.3594 71.4551 42.1484C71.3184 41.9336 71.1426 41.7656 70.9277 41.6445C70.7129 41.5195 70.457 41.457 70.1602 41.457C69.8867 41.457 69.6484 41.5039 69.4453 41.5977C69.2461 41.6914 69.0762 41.8184 68.9355 41.9785C68.7949 42.1348 68.6797 42.3145 68.5898 42.5176C68.5039 42.7168 68.4395 42.9238 68.3965 43.1387V44.6562C68.4746 44.9297 68.584 45.1875 68.7246 45.4297C68.8652 45.668 69.0527 45.8613 69.2871 46.0098C69.5215 46.1543 69.8164 46.2266 70.1719 46.2266C70.4648 46.2266 70.7168 46.166 70.9277 46.0449C71.1426 45.9199 71.3184 45.75 71.4551 45.5352C71.5957 45.3203 71.6992 45.0742 71.7656 44.7969C71.832 44.5156 71.8652 44.2168 71.8652 43.9004ZM75.5156 38V47H74.4258V38H75.5156ZM76.9688 43.9004V43.7656C76.9688 43.3086 77.0352 42.8848 77.168 42.4941C77.3008 42.0996 77.4922 41.7578 77.7422 41.4688C77.9922 41.1758 78.2949 40.9492 78.6504 40.7891C79.0059 40.625 79.4043 40.543 79.8457 40.543C80.291 40.543 80.6914 40.625 81.0469 40.7891C81.4062 40.9492 81.7109 41.1758 81.9609 41.4688C82.2148 41.7578 82.4082 42.0996 82.541 42.4941C82.6738 42.8848 82.7402 43.3086 82.7402 43.7656V43.9004C82.7402 44.3574 82.6738 44.7812 82.541 45.1719C82.4082 45.5625 82.2148 45.9043 81.9609 46.1973C81.7109 46.4863 81.4082 46.7129 81.0527 46.877C80.7012 47.0371 80.3027 47.1172 79.8574 47.1172C79.4121 47.1172 79.0117 47.0371 78.6562 46.877C78.3008 46.7129 77.9961 46.4863 77.7422 46.1973C77.4922 45.9043 77.3008 45.5625 77.168 45.1719C77.0352 44.7812 76.9688 44.3574 76.9688 43.9004ZM78.0527 43.7656V43.9004C78.0527 44.2168 78.0898 44.5156 78.1641 44.7969C78.2383 45.0742 78.3496 45.3203 78.498 45.5352C78.6504 45.75 78.8398 45.9199 79.0664 46.0449C79.293 46.166 79.5566 46.2266 79.8574 46.2266C80.1543 46.2266 80.4141 46.166 80.6367 46.0449C80.8633 45.9199 81.0508 45.75 81.1992 45.5352C81.3477 45.3203 81.459 45.0742 81.5332 44.7969C81.6113 44.5156 81.6504 44.2168 81.6504 43.9004V43.7656C81.6504 43.4531 81.6113 43.1582 81.5332 42.8809C81.459 42.5996 81.3457 42.3516 81.1934 42.1367C81.0449 41.918 80.8574 41.7461 80.6309 41.6211C80.4082 41.4961 80.1465 41.4336 79.8457 41.4336C79.5488 41.4336 79.2871 41.4961 79.0605 41.6211C78.8379 41.7461 78.6504 41.918 78.498 42.1367C78.3496 42.3516 78.2383 42.5996 78.1641 42.8809C78.0898 43.1582 78.0527 43.4531 78.0527 43.7656ZM85.1836 41.6562V47H84.0996V40.6602H85.1543L85.1836 41.6562ZM87.1641 40.625L87.1582 41.6328C87.0684 41.6133 86.9824 41.6016 86.9004 41.5977C86.8223 41.5898 86.7324 41.5859 86.6309 41.5859C86.3809 41.5859 86.1602 41.625 85.9688 41.7031C85.7773 41.7812 85.6152 41.8906 85.4824 42.0312C85.3496 42.1719 85.2441 42.3398 85.166 42.5352C85.0918 42.7266 85.043 42.9375 85.0195 43.168L84.7148 43.3438C84.7148 42.9609 84.752 42.6016 84.8262 42.2656C84.9043 41.9297 85.0234 41.6328 85.1836 41.375C85.3438 41.1133 85.5469 40.9102 85.793 40.7656C86.043 40.6172 86.3398 40.543 86.6836 40.543C86.7617 40.543 86.8516 40.5527 86.9531 40.5723C87.0547 40.5879 87.125 40.6055 87.1641 40.625ZM90.6797 47.1172C90.2383 47.1172 89.8379 47.043 89.4785 46.8945C89.123 46.7422 88.8164 46.5293 88.5586 46.2559C88.3047 45.9824 88.1094 45.6582 87.9727 45.2832C87.8359 44.9082 87.7676 44.498 87.7676 44.0527V43.8066C87.7676 43.291 87.8438 42.832 87.9961 42.4297C88.1484 42.0234 88.3555 41.6797 88.6172 41.3984C88.8789 41.1172 89.1758 40.9043 89.5078 40.7598C89.8398 40.6152 90.1836 40.543 90.5391 40.543C90.9922 40.543 91.3828 40.6211 91.7109 40.7773C92.043 40.9336 92.3145 41.1523 92.5254 41.4336C92.7363 41.7109 92.8926 42.0391 92.9941 42.418C93.0957 42.793 93.1465 43.2031 93.1465 43.6484V44.1348H88.4121V43.25H92.0625V43.168C92.0469 42.8867 91.9883 42.6133 91.8867 42.3477C91.7891 42.082 91.6328 41.8633 91.418 41.6914C91.2031 41.5195 90.9102 41.4336 90.5391 41.4336C90.293 41.4336 90.0664 41.4863 89.8594 41.5918C89.6523 41.6934 89.4746 41.8457 89.3262 42.0488C89.1777 42.252 89.0625 42.5 88.9805 42.793C88.8984 43.0859 88.8574 43.4238 88.8574 43.8066V44.0527C88.8574 44.3535 88.8984 44.6367 88.9805 44.9023C89.0664 45.1641 89.1895 45.3945 89.3496 45.5938C89.5137 45.793 89.7109 45.9492 89.9414 46.0625C90.1758 46.1758 90.4414 46.2324 90.7383 46.2324C91.1211 46.2324 91.4453 46.1543 91.7109 45.998C91.9766 45.8418 92.209 45.6328 92.4082 45.3711L93.0645 45.8926C92.9277 46.0996 92.7539 46.2969 92.543 46.4844C92.332 46.6719 92.0723 46.8242 91.7637 46.9414C91.459 47.0586 91.0977 47.1172 90.6797 47.1172ZM97.1016 43.9004V43.7656C97.1016 43.3086 97.168 42.8848 97.3008 42.4941C97.4336 42.0996 97.625 41.7578 97.875 41.4688C98.125 41.1758 98.4277 40.9492 98.7832 40.7891C99.1387 40.625 99.5371 40.543 99.9785 40.543C100.424 40.543 100.824 40.625 101.18 40.7891C101.539 40.9492 101.844 41.1758 102.094 41.4688C102.348 41.7578 102.541 42.0996 102.674 42.4941C102.807 42.8848 102.873 43.3086 102.873 43.7656V43.9004C102.873 44.3574 102.807 44.7812 102.674 45.1719C102.541 45.5625 102.348 45.9043 102.094 46.1973C101.844 46.4863 101.541 46.7129 101.186 46.877C100.834 47.0371 100.436 47.1172 99.9902 47.1172C99.5449 47.1172 99.1445 47.0371 98.7891 46.877C98.4336 46.7129 98.1289 46.4863 97.875 46.1973C97.625 45.9043 97.4336 45.5625 97.3008 45.1719C97.168 44.7812 97.1016 44.3574 97.1016 43.9004ZM98.1855 43.7656V43.9004C98.1855 44.2168 98.2227 44.5156 98.2969 44.7969C98.3711 45.0742 98.4824 45.3203 98.6309 45.5352C98.7832 45.75 98.9727 45.9199 99.1992 46.0449C99.4258 46.166 99.6895 46.2266 99.9902 46.2266C100.287 46.2266 100.547 46.166 100.77 46.0449C100.996 45.9199 101.184 45.75 101.332 45.5352C101.48 45.3203 101.592 45.0742 101.666 44.7969C101.744 44.5156 101.783 44.2168 101.783 43.9004V43.7656C101.783 43.4531 101.744 43.1582 101.666 42.8809C101.592 42.5996 101.479 42.3516 101.326 42.1367C101.178 41.918 100.99 41.7461 100.764 41.6211C100.541 41.4961 100.279 41.4336 99.9785 41.4336C99.6816 41.4336 99.4199 41.4961 99.1934 41.6211C98.9707 41.7461 98.7832 41.918 98.6309 42.1367C98.4824 42.3516 98.3711 42.5996 98.2969 42.8809C98.2227 43.1582 98.1855 43.4531 98.1855 43.7656ZM108.111 45.5352V40.6602H109.201V47H108.164L108.111 45.5352ZM108.316 44.1992L108.768 44.1875C108.768 44.6094 108.723 45 108.633 45.3594C108.547 45.7148 108.406 46.0234 108.211 46.2852C108.016 46.5469 107.76 46.752 107.443 46.9004C107.127 47.0449 106.742 47.1172 106.289 47.1172C105.98 47.1172 105.697 47.0723 105.439 46.9824C105.186 46.8926 104.967 46.7539 104.783 46.5664C104.6 46.3789 104.457 46.1348 104.355 45.834C104.258 45.5332 104.209 45.1719 104.209 44.75V40.6602H105.293V44.7617C105.293 45.0469 105.324 45.2832 105.387 45.4707C105.453 45.6543 105.541 45.8008 105.65 45.9102C105.764 46.0156 105.889 46.0898 106.025 46.1328C106.166 46.1758 106.311 46.1973 106.459 46.1973C106.92 46.1973 107.285 46.1094 107.555 45.9336C107.824 45.7539 108.018 45.5137 108.135 45.2129C108.256 44.9082 108.316 44.5703 108.316 44.1992ZM111.938 41.6562V47H110.854V40.6602H111.908L111.938 41.6562ZM113.918 40.625L113.912 41.6328C113.822 41.6133 113.736 41.6016 113.654 41.5977C113.576 41.5898 113.486 41.5859 113.385 41.5859C113.135 41.5859 112.914 41.625 112.723 41.7031C112.531 41.7812 112.369 41.8906 112.236 42.0312C112.104 42.1719 111.998 42.3398 111.92 42.5352C111.846 42.7266 111.797 42.9375 111.773 43.168L111.469 43.3438C111.469 42.9609 111.506 42.6016 111.58 42.2656C111.658 41.9297 111.777 41.6328 111.938 41.375C112.098 41.1133 112.301 40.9102 112.547 40.7656C112.797 40.6172 113.094 40.543 113.438 40.543C113.516 40.543 113.605 40.5527 113.707 40.5723C113.809 40.5879 113.879 40.6055 113.918 40.625ZM119.074 38V47H117.984V38H119.074ZM121.992 40.6602V47H120.902V40.6602H121.992ZM120.82 38.9785C120.82 38.8027 120.873 38.6543 120.979 38.5332C121.088 38.4121 121.248 38.3516 121.459 38.3516C121.666 38.3516 121.824 38.4121 121.934 38.5332C122.047 38.6543 122.104 38.8027 122.104 38.9785C122.104 39.1465 122.047 39.291 121.934 39.4121C121.824 39.5293 121.666 39.5879 121.459 39.5879C121.248 39.5879 121.088 39.5293 120.979 39.4121C120.873 39.291 120.82 39.1465 120.82 38.9785ZM127.424 45.3184C127.424 45.1621 127.389 45.0176 127.318 44.8848C127.252 44.748 127.113 44.625 126.902 44.5156C126.695 44.4023 126.383 44.3047 125.965 44.2227C125.613 44.1484 125.295 44.0605 125.01 43.959C124.729 43.8574 124.488 43.7344 124.289 43.5898C124.094 43.4453 123.943 43.2754 123.838 43.0801C123.732 42.8848 123.68 42.6562 123.68 42.3945C123.68 42.1445 123.734 41.9082 123.844 41.6855C123.957 41.4629 124.115 41.2656 124.318 41.0938C124.525 40.9219 124.773 40.7871 125.062 40.6895C125.352 40.5918 125.674 40.543 126.029 40.543C126.537 40.543 126.971 40.6328 127.33 40.8125C127.689 40.9922 127.965 41.2324 128.156 41.5332C128.348 41.8301 128.443 42.1602 128.443 42.5234H127.359C127.359 42.3477 127.307 42.1777 127.201 42.0137C127.1 41.8457 126.949 41.707 126.75 41.5977C126.555 41.4883 126.314 41.4336 126.029 41.4336C125.729 41.4336 125.484 41.4805 125.297 41.5742C125.113 41.6641 124.979 41.7793 124.893 41.9199C124.811 42.0605 124.77 42.209 124.77 42.3652C124.77 42.4824 124.789 42.5879 124.828 42.6816C124.871 42.7715 124.945 42.8555 125.051 42.9336C125.156 43.0078 125.305 43.0781 125.496 43.1445C125.688 43.2109 125.932 43.2773 126.229 43.3438C126.748 43.4609 127.176 43.6016 127.512 43.7656C127.848 43.9297 128.098 44.1309 128.262 44.3691C128.426 44.6074 128.508 44.8965 128.508 45.2363C128.508 45.5137 128.449 45.7676 128.332 45.998C128.219 46.2285 128.053 46.4277 127.834 46.5957C127.619 46.7598 127.361 46.8887 127.061 46.9824C126.764 47.0723 126.43 47.1172 126.059 47.1172C125.5 47.1172 125.027 47.0176 124.641 46.8184C124.254 46.6191 123.961 46.3613 123.762 46.0449C123.562 45.7285 123.463 45.3945 123.463 45.043H124.553C124.568 45.3398 124.654 45.5762 124.811 45.752C124.967 45.9238 125.158 46.0469 125.385 46.1211C125.611 46.1914 125.836 46.2266 126.059 46.2266C126.355 46.2266 126.604 46.1875 126.803 46.1094C127.006 46.0312 127.16 45.9238 127.266 45.7871C127.371 45.6504 127.424 45.4941 127.424 45.3184ZM132.586 40.6602V41.4922H129.158V40.6602H132.586ZM130.318 39.1191H131.402V45.4297C131.402 45.6445 131.436 45.8066 131.502 45.916C131.568 46.0254 131.654 46.0977 131.76 46.1328C131.865 46.168 131.979 46.1855 132.1 46.1855C132.189 46.1855 132.283 46.1777 132.381 46.1621C132.482 46.1426 132.559 46.127 132.609 46.1152L132.615 47C132.529 47.0273 132.416 47.0527 132.275 47.0762C132.139 47.1035 131.973 47.1172 131.777 47.1172C131.512 47.1172 131.268 47.0645 131.045 46.959C130.822 46.8535 130.645 46.6777 130.512 46.4316C130.383 46.1816 130.318 45.8457 130.318 45.4238V39.1191ZM135.035 40.6602V47H133.945V40.6602H135.035ZM133.863 38.9785C133.863 38.8027 133.916 38.6543 134.021 38.5332C134.131 38.4121 134.291 38.3516 134.502 38.3516C134.709 38.3516 134.867 38.4121 134.977 38.5332C135.09 38.6543 135.146 38.8027 135.146 38.9785C135.146 39.1465 135.09 39.291 134.977 39.4121C134.867 39.5293 134.709 39.5879 134.502 39.5879C134.291 39.5879 134.131 39.5293 134.021 39.4121C133.916 39.291 133.863 39.1465 133.863 38.9785ZM137.859 42.0137V47H136.775V40.6602H137.801L137.859 42.0137ZM137.602 43.5898L137.15 43.5723C137.154 43.1387 137.219 42.7383 137.344 42.3711C137.469 42 137.645 41.6777 137.871 41.4043C138.098 41.1309 138.367 40.9199 138.68 40.7715C138.996 40.6191 139.346 40.543 139.729 40.543C140.041 40.543 140.322 40.5859 140.572 40.6719C140.822 40.7539 141.035 40.8867 141.211 41.0703C141.391 41.2539 141.527 41.4922 141.621 41.7852C141.715 42.0742 141.762 42.4277 141.762 42.8457V47H140.672V42.834C140.672 42.502 140.623 42.2363 140.525 42.0371C140.428 41.834 140.285 41.6875 140.098 41.5977C139.91 41.5039 139.68 41.457 139.406 41.457C139.137 41.457 138.891 41.5137 138.668 41.627C138.449 41.7402 138.26 41.8965 138.1 42.0957C137.943 42.2949 137.82 42.5234 137.73 42.7812C137.645 43.0352 137.602 43.3047 137.602 43.5898ZM147.516 40.6602H148.5V46.8652C148.5 47.4238 148.387 47.9004 148.16 48.2949C147.934 48.6895 147.617 48.9883 147.211 49.1914C146.809 49.3984 146.344 49.502 145.816 49.502C145.598 49.502 145.34 49.4668 145.043 49.3965C144.75 49.3301 144.461 49.2148 144.176 49.0508C143.895 48.8906 143.658 48.6738 143.467 48.4004L144.035 47.7559C144.301 48.0762 144.578 48.2988 144.867 48.4238C145.16 48.5488 145.449 48.6113 145.734 48.6113C146.078 48.6113 146.375 48.5469 146.625 48.418C146.875 48.2891 147.068 48.0977 147.205 47.8438C147.346 47.5938 147.416 47.2852 147.416 46.918V42.0547L147.516 40.6602ZM143.15 43.9004V43.7773C143.15 43.293 143.207 42.8535 143.32 42.459C143.438 42.0605 143.604 41.7188 143.818 41.4336C144.037 41.1484 144.301 40.9297 144.609 40.7773C144.918 40.6211 145.266 40.543 145.652 40.543C146.051 40.543 146.398 40.6133 146.695 40.7539C146.996 40.8906 147.25 41.0918 147.457 41.3574C147.668 41.6191 147.834 41.9355 147.955 42.3066C148.076 42.6777 148.16 43.0977 148.207 43.5664V44.1055C148.164 44.5703 148.08 44.9883 147.955 45.3594C147.834 45.7305 147.668 46.0469 147.457 46.3086C147.25 46.5703 146.996 46.7715 146.695 46.9121C146.395 47.0488 146.043 47.1172 145.641 47.1172C145.262 47.1172 144.918 47.0371 144.609 46.877C144.305 46.7168 144.043 46.4922 143.824 46.2031C143.605 45.9141 143.438 45.5742 143.32 45.1836C143.207 44.7891 143.15 44.3613 143.15 43.9004ZM144.234 43.7773V43.9004C144.234 44.2168 144.266 44.5137 144.328 44.791C144.395 45.0684 144.494 45.3125 144.627 45.5234C144.764 45.7344 144.938 45.9004 145.148 46.0215C145.359 46.1387 145.611 46.1973 145.904 46.1973C146.264 46.1973 146.561 46.1211 146.795 45.9688C147.029 45.8164 147.215 45.6152 147.352 45.3652C147.492 45.1152 147.602 44.8438 147.68 44.5508V43.1387C147.637 42.9238 147.57 42.7168 147.48 42.5176C147.395 42.3145 147.281 42.1348 147.141 41.9785C147.004 41.8184 146.834 41.6914 146.631 41.5977C146.428 41.5039 146.189 41.457 145.916 41.457C145.619 41.457 145.363 41.5195 145.148 41.6445C144.938 41.7656 144.764 41.9336 144.627 42.1484C144.494 42.3594 144.395 42.6055 144.328 42.8867C144.266 43.1641 144.234 43.4609 144.234 43.7773ZM153.838 45.3184C153.838 45.1621 153.803 45.0176 153.732 44.8848C153.666 44.748 153.527 44.625 153.316 44.5156C153.109 44.4023 152.797 44.3047 152.379 44.2227C152.027 44.1484 151.709 44.0605 151.424 43.959C151.143 43.8574 150.902 43.7344 150.703 43.5898C150.508 43.4453 150.357 43.2754 150.252 43.0801C150.146 42.8848 150.094 42.6562 150.094 42.3945C150.094 42.1445 150.148 41.9082 150.258 41.6855C150.371 41.4629 150.529 41.2656 150.732 41.0938C150.939 40.9219 151.188 40.7871 151.477 40.6895C151.766 40.5918 152.088 40.543 152.443 40.543C152.951 40.543 153.385 40.6328 153.744 40.8125C154.104 40.9922 154.379 41.2324 154.57 41.5332C154.762 41.8301 154.857 42.1602 154.857 42.5234H153.773C153.773 42.3477 153.721 42.1777 153.615 42.0137C153.514 41.8457 153.363 41.707 153.164 41.5977C152.969 41.4883 152.729 41.4336 152.443 41.4336C152.143 41.4336 151.898 41.4805 151.711 41.5742C151.527 41.6641 151.393 41.7793 151.307 41.9199C151.225 42.0605 151.184 42.209 151.184 42.3652C151.184 42.4824 151.203 42.5879 151.242 42.6816C151.285 42.7715 151.359 42.8555 151.465 42.9336C151.57 43.0078 151.719 43.0781 151.91 43.1445C152.102 43.2109 152.346 43.2773 152.643 43.3438C153.162 43.4609 153.59 43.6016 153.926 43.7656C154.262 43.9297 154.512 44.1309 154.676 44.3691C154.84 44.6074 154.922 44.8965 154.922 45.2363C154.922 45.5137 154.863 45.7676 154.746 45.998C154.633 46.2285 154.467 46.4277 154.248 46.5957C154.033 46.7598 153.775 46.8887 153.475 46.9824C153.178 47.0723 152.844 47.1172 152.473 47.1172C151.914 47.1172 151.441 47.0176 151.055 46.8184C150.668 46.6191 150.375 46.3613 150.176 46.0449C149.977 45.7285 149.877 45.3945 149.877 45.043H150.967C150.982 45.3398 151.068 45.5762 151.225 45.752C151.381 45.9238 151.572 46.0469 151.799 46.1211C152.025 46.1914 152.25 46.2266 152.473 46.2266C152.77 46.2266 153.018 46.1875 153.217 46.1094C153.42 46.0312 153.574 45.9238 153.68 45.7871C153.785 45.6504 153.838 45.4941 153.838 45.3184ZM163.061 45.916V42.6523C163.061 42.4023 163.01 42.1855 162.908 42.002C162.811 41.8145 162.662 41.6699 162.463 41.5684C162.264 41.4668 162.018 41.416 161.725 41.416C161.451 41.416 161.211 41.4629 161.004 41.5566C160.801 41.6504 160.641 41.7734 160.523 41.9258C160.41 42.0781 160.354 42.2422 160.354 42.418H159.27C159.27 42.1914 159.328 41.9668 159.445 41.7441C159.562 41.5215 159.73 41.3203 159.949 41.1406C160.172 40.957 160.438 40.8125 160.746 40.707C161.059 40.5977 161.406 40.543 161.789 40.543C162.25 40.543 162.656 40.6211 163.008 40.7773C163.363 40.9336 163.641 41.1699 163.84 41.4863C164.043 41.7988 164.145 42.1914 164.145 42.6641V45.6172C164.145 45.8281 164.162 46.0527 164.197 46.291C164.236 46.5293 164.293 46.7344 164.367 46.9062V47H163.236C163.182 46.875 163.139 46.709 163.107 46.502C163.076 46.291 163.061 46.0957 163.061 45.916ZM163.248 43.1562L163.26 43.918H162.164C161.855 43.918 161.58 43.9434 161.338 43.9941C161.096 44.041 160.893 44.1133 160.729 44.2109C160.564 44.3086 160.439 44.4316 160.354 44.5801C160.268 44.7246 160.225 44.8945 160.225 45.0898C160.225 45.2891 160.27 45.4707 160.359 45.6348C160.449 45.7988 160.584 45.9297 160.764 46.0273C160.947 46.1211 161.172 46.168 161.438 46.168C161.77 46.168 162.062 46.0977 162.316 45.957C162.57 45.8164 162.771 45.6445 162.92 45.4414C163.072 45.2383 163.154 45.041 163.166 44.8496L163.629 45.3711C163.602 45.5352 163.527 45.7168 163.406 45.916C163.285 46.1152 163.123 46.3066 162.92 46.4902C162.721 46.6699 162.482 46.8203 162.205 46.9414C161.932 47.0586 161.623 47.1172 161.279 47.1172C160.85 47.1172 160.473 47.0332 160.148 46.8652C159.828 46.6973 159.578 46.4727 159.398 46.1914C159.223 45.9062 159.135 45.5879 159.135 45.2363C159.135 44.8965 159.201 44.5977 159.334 44.3398C159.467 44.0781 159.658 43.8613 159.908 43.6895C160.158 43.5137 160.459 43.3809 160.811 43.291C161.162 43.2012 161.555 43.1562 161.988 43.1562H163.248ZM166.934 42.0137V47H165.85V40.6602H166.875L166.934 42.0137ZM166.676 43.5898L166.225 43.5723C166.229 43.1387 166.293 42.7383 166.418 42.3711C166.543 42 166.719 41.6777 166.945 41.4043C167.172 41.1309 167.441 40.9199 167.754 40.7715C168.07 40.6191 168.42 40.543 168.803 40.543C169.115 40.543 169.396 40.5859 169.646 40.6719C169.896 40.7539 170.109 40.8867 170.285 41.0703C170.465 41.2539 170.602 41.4922 170.695 41.7852C170.789 42.0742 170.836 42.4277 170.836 42.8457V47H169.746V42.834C169.746 42.502 169.697 42.2363 169.6 42.0371C169.502 41.834 169.359 41.6875 169.172 41.5977C168.984 41.5039 168.754 41.457 168.48 41.457C168.211 41.457 167.965 41.5137 167.742 41.627C167.523 41.7402 167.334 41.8965 167.174 42.0957C167.018 42.2949 166.895 42.5234 166.805 42.7812C166.719 43.0352 166.676 43.3047 166.676 43.5898ZM176.479 45.7695V38H177.568V47H176.572L176.479 45.7695ZM172.213 43.9004V43.7773C172.213 43.293 172.271 42.8535 172.389 42.459C172.51 42.0605 172.68 41.7188 172.898 41.4336C173.121 41.1484 173.385 40.9297 173.689 40.7773C173.998 40.6211 174.342 40.543 174.721 40.543C175.119 40.543 175.467 40.6133 175.764 40.7539C176.064 40.8906 176.318 41.0918 176.525 41.3574C176.736 41.6191 176.902 41.9355 177.023 42.3066C177.145 42.6777 177.229 43.0977 177.275 43.5664V44.1055C177.232 44.5703 177.148 44.9883 177.023 45.3594C176.902 45.7305 176.736 46.0469 176.525 46.3086C176.318 46.5703 176.064 46.7715 175.764 46.9121C175.463 47.0488 175.111 47.1172 174.709 47.1172C174.338 47.1172 173.998 47.0371 173.689 46.877C173.385 46.7168 173.121 46.4922 172.898 46.2031C172.68 45.9141 172.51 45.5742 172.389 45.1836C172.271 44.7891 172.213 44.3613 172.213 43.9004ZM173.303 43.7773V43.9004C173.303 44.2168 173.334 44.5137 173.396 44.791C173.463 45.0684 173.564 45.3125 173.701 45.5234C173.838 45.7344 174.012 45.9004 174.223 46.0215C174.434 46.1387 174.686 46.1973 174.979 46.1973C175.338 46.1973 175.633 46.1211 175.863 45.9688C176.098 45.8164 176.285 45.6152 176.426 45.3652C176.566 45.1152 176.676 44.8438 176.754 44.5508V43.1387C176.707 42.9238 176.639 42.7168 176.549 42.5176C176.463 42.3145 176.35 42.1348 176.209 41.9785C176.072 41.8184 175.902 41.6914 175.699 41.5977C175.5 41.5039 175.264 41.457 174.99 41.457C174.693 41.457 174.438 41.5195 174.223 41.6445C174.012 41.7656 173.838 41.9336 173.701 42.1484C173.564 42.3594 173.463 42.6055 173.396 42.8867C173.334 43.1641 173.303 43.4609 173.303 43.7773ZM183.68 47H182.596V40.1094C182.596 39.6289 182.689 39.2227 182.877 38.8906C183.064 38.5586 183.332 38.3066 183.68 38.1348C184.027 37.9629 184.439 37.877 184.916 37.877C185.197 37.877 185.473 37.9121 185.742 37.9824C186.012 38.0488 186.289 38.1328 186.574 38.2344L186.393 39.1484C186.213 39.0781 186.004 39.0117 185.766 38.9492C185.531 38.8828 185.273 38.8496 184.992 38.8496C184.527 38.8496 184.191 38.9551 183.984 39.166C183.781 39.373 183.68 39.6875 183.68 40.1094V47ZM184.975 40.6602V41.4922H181.594V40.6602H184.975ZM187.107 40.6602V47H186.023V40.6602H187.107ZM189.973 42.0137V47H188.889V40.6602H189.914L189.973 42.0137ZM189.715 43.5898L189.264 43.5723C189.268 43.1387 189.332 42.7383 189.457 42.3711C189.582 42 189.758 41.6777 189.984 41.4043C190.211 41.1309 190.48 40.9199 190.793 40.7715C191.109 40.6191 191.459 40.543 191.842 40.543C192.154 40.543 192.436 40.5859 192.686 40.6719C192.936 40.7539 193.148 40.8867 193.324 41.0703C193.504 41.2539 193.641 41.4922 193.734 41.7852C193.828 42.0742 193.875 42.4277 193.875 42.8457V47H192.785V42.834C192.785 42.502 192.736 42.2363 192.639 42.0371C192.541 41.834 192.398 41.6875 192.211 41.5977C192.023 41.5039 191.793 41.457 191.52 41.457C191.25 41.457 191.004 41.5137 190.781 41.627C190.562 41.7402 190.373 41.8965 190.213 42.0957C190.057 42.2949 189.934 42.5234 189.844 42.7812C189.758 43.0352 189.715 43.3047 189.715 43.5898ZM199.518 45.7695V38H200.607V47H199.611L199.518 45.7695ZM195.252 43.9004V43.7773C195.252 43.293 195.311 42.8535 195.428 42.459C195.549 42.0605 195.719 41.7188 195.938 41.4336C196.16 41.1484 196.424 40.9297 196.729 40.7773C197.037 40.6211 197.381 40.543 197.76 40.543C198.158 40.543 198.506 40.6133 198.803 40.7539C199.104 40.8906 199.357 41.0918 199.564 41.3574C199.775 41.6191 199.941 41.9355 200.062 42.3066C200.184 42.6777 200.268 43.0977 200.314 43.5664V44.1055C200.271 44.5703 200.188 44.9883 200.062 45.3594C199.941 45.7305 199.775 46.0469 199.564 46.3086C199.357 46.5703 199.104 46.7715 198.803 46.9121C198.502 47.0488 198.15 47.1172 197.748 47.1172C197.377 47.1172 197.037 47.0371 196.729 46.877C196.424 46.7168 196.16 46.4922 195.938 46.2031C195.719 45.9141 195.549 45.5742 195.428 45.1836C195.311 44.7891 195.252 44.3613 195.252 43.9004ZM196.342 43.7773V43.9004C196.342 44.2168 196.373 44.5137 196.436 44.791C196.502 45.0684 196.604 45.3125 196.74 45.5234C196.877 45.7344 197.051 45.9004 197.262 46.0215C197.473 46.1387 197.725 46.1973 198.018 46.1973C198.377 46.1973 198.672 46.1211 198.902 45.9688C199.137 45.8164 199.324 45.6152 199.465 45.3652C199.605 45.1152 199.715 44.8438 199.793 44.5508V43.1387C199.746 42.9238 199.678 42.7168 199.588 42.5176C199.502 42.3145 199.389 42.1348 199.248 41.9785C199.111 41.8184 198.941 41.6914 198.738 41.5977C198.539 41.5039 198.303 41.457 198.029 41.457C197.732 41.457 197.477 41.5195 197.262 41.6445C197.051 41.7656 196.877 41.9336 196.74 42.1484C196.604 42.3594 196.502 42.6055 196.436 42.8867C196.373 43.1641 196.342 43.4609 196.342 43.7773ZM209.01 45.916V42.6523C209.01 42.4023 208.959 42.1855 208.857 42.002C208.76 41.8145 208.611 41.6699 208.412 41.5684C208.213 41.4668 207.967 41.416 207.674 41.416C207.4 41.416 207.16 41.4629 206.953 41.5566C206.75 41.6504 206.59 41.7734 206.473 41.9258C206.359 42.0781 206.303 42.2422 206.303 42.418H205.219C205.219 42.1914 205.277 41.9668 205.395 41.7441C205.512 41.5215 205.68 41.3203 205.898 41.1406C206.121 40.957 206.387 40.8125 206.695 40.707C207.008 40.5977 207.355 40.543 207.738 40.543C208.199 40.543 208.605 40.6211 208.957 40.7773C209.312 40.9336 209.59 41.1699 209.789 41.4863C209.992 41.7988 210.094 42.1914 210.094 42.6641V45.6172C210.094 45.8281 210.111 46.0527 210.146 46.291C210.186 46.5293 210.242 46.7344 210.316 46.9062V47H209.186C209.131 46.875 209.088 46.709 209.057 46.502C209.025 46.291 209.01 46.0957 209.01 45.916ZM209.197 43.1562L209.209 43.918H208.113C207.805 43.918 207.529 43.9434 207.287 43.9941C207.045 44.041 206.842 44.1133 206.678 44.2109C206.514 44.3086 206.389 44.4316 206.303 44.5801C206.217 44.7246 206.174 44.8945 206.174 45.0898C206.174 45.2891 206.219 45.4707 206.309 45.6348C206.398 45.7988 206.533 45.9297 206.713 46.0273C206.896 46.1211 207.121 46.168 207.387 46.168C207.719 46.168 208.012 46.0977 208.266 45.957C208.52 45.8164 208.721 45.6445 208.869 45.4414C209.021 45.2383 209.104 45.041 209.115 44.8496L209.578 45.3711C209.551 45.5352 209.477 45.7168 209.355 45.916C209.234 46.1152 209.072 46.3066 208.869 46.4902C208.67 46.6699 208.432 46.8203 208.154 46.9414C207.881 47.0586 207.572 47.1172 207.229 47.1172C206.799 47.1172 206.422 47.0332 206.098 46.8652C205.777 46.6973 205.527 46.4727 205.348 46.1914C205.172 45.9062 205.084 45.5879 205.084 45.2363C205.084 44.8965 205.15 44.5977 205.283 44.3398C205.416 44.0781 205.607 43.8613 205.857 43.6895C206.107 43.5137 206.408 43.3809 206.76 43.291C207.111 43.2012 207.504 43.1562 207.938 43.1562H209.197ZM215.859 41.8789V49.4375H214.77V40.6602H215.766L215.859 41.8789ZM220.131 43.7773V43.9004C220.131 44.3613 220.076 44.7891 219.967 45.1836C219.857 45.5742 219.697 45.9141 219.486 46.2031C219.279 46.4922 219.023 46.7168 218.719 46.877C218.414 47.0371 218.064 47.1172 217.67 47.1172C217.268 47.1172 216.912 47.0508 216.604 46.918C216.295 46.7852 216.033 46.5918 215.818 46.3379C215.604 46.084 215.432 45.7793 215.303 45.4238C215.178 45.0684 215.092 44.668 215.045 44.2227V43.5664C215.092 43.0977 215.18 42.6777 215.309 42.3066C215.438 41.9355 215.607 41.6191 215.818 41.3574C216.033 41.0918 216.293 40.8906 216.598 40.7539C216.902 40.6133 217.254 40.543 217.652 40.543C218.051 40.543 218.404 40.6211 218.713 40.7773C219.021 40.9297 219.281 41.1484 219.492 41.4336C219.703 41.7188 219.861 42.0605 219.967 42.459C220.076 42.8535 220.131 43.293 220.131 43.7773ZM219.041 43.9004V43.7773C219.041 43.4609 219.008 43.1641 218.941 42.8867C218.875 42.6055 218.771 42.3594 218.631 42.1484C218.494 41.9336 218.318 41.7656 218.104 41.6445C217.889 41.5195 217.633 41.457 217.336 41.457C217.062 41.457 216.824 41.5039 216.621 41.5977C216.422 41.6914 216.252 41.8184 216.111 41.9785C215.971 42.1348 215.855 42.3145 215.766 42.5176C215.68 42.7168 215.615 42.9238 215.572 43.1387V44.6562C215.65 44.9297 215.76 45.1875 215.9 45.4297C216.041 45.668 216.229 45.8613 216.463 46.0098C216.697 46.1543 216.992 46.2266 217.348 46.2266C217.641 46.2266 217.893 46.166 218.104 46.0449C218.318 45.9199 218.494 45.75 218.631 45.5352C218.771 45.3203 218.875 45.0742 218.941 44.7969C219.008 44.5156 219.041 44.2168 219.041 43.9004ZM222.598 41.6562V47H221.514V40.6602H222.568L222.598 41.6562ZM224.578 40.625L224.572 41.6328C224.482 41.6133 224.396 41.6016 224.314 41.5977C224.236 41.5898 224.146 41.5859 224.045 41.5859C223.795 41.5859 223.574 41.625 223.383 41.7031C223.191 41.7812 223.029 41.8906 222.896 42.0312C222.764 42.1719 222.658 42.3398 222.58 42.5352C222.506 42.7266 222.457 42.9375 222.434 43.168L222.129 43.3438C222.129 42.9609 222.166 42.6016 222.24 42.2656C222.318 41.9297 222.438 41.6328 222.598 41.375C222.758 41.1133 222.961 40.9102 223.207 40.7656C223.457 40.6172 223.754 40.543 224.098 40.543C224.176 40.543 224.266 40.5527 224.367 40.5723C224.469 40.5879 224.539 40.6055 224.578 40.625ZM225.176 43.9004V43.7656C225.176 43.3086 225.242 42.8848 225.375 42.4941C225.508 42.0996 225.699 41.7578 225.949 41.4688C226.199 41.1758 226.502 40.9492 226.857 40.7891C227.213 40.625 227.611 40.543 228.053 40.543C228.498 40.543 228.898 40.625 229.254 40.7891C229.613 40.9492 229.918 41.1758 230.168 41.4688C230.422 41.7578 230.615 42.0996 230.748 42.4941C230.881 42.8848 230.947 43.3086 230.947 43.7656V43.9004C230.947 44.3574 230.881 44.7812 230.748 45.1719C230.615 45.5625 230.422 45.9043 230.168 46.1973C229.918 46.4863 229.615 46.7129 229.26 46.877C228.908 47.0371 228.51 47.1172 228.064 47.1172C227.619 47.1172 227.219 47.0371 226.863 46.877C226.508 46.7129 226.203 46.4863 225.949 46.1973C225.699 45.9043 225.508 45.5625 225.375 45.1719C225.242 44.7812 225.176 44.3574 225.176 43.9004ZM226.26 43.7656V43.9004C226.26 44.2168 226.297 44.5156 226.371 44.7969C226.445 45.0742 226.557 45.3203 226.705 45.5352C226.857 45.75 227.047 45.9199 227.273 46.0449C227.5 46.166 227.764 46.2266 228.064 46.2266C228.361 46.2266 228.621 46.166 228.844 46.0449C229.07 45.9199 229.258 45.75 229.406 45.5352C229.555 45.3203 229.666 45.0742 229.74 44.7969C229.818 44.5156 229.857 44.2168 229.857 43.9004V43.7656C229.857 43.4531 229.818 43.1582 229.74 42.8809C229.666 42.5996 229.553 42.3516 229.4 42.1367C229.252 41.918 229.064 41.7461 228.838 41.6211C228.615 41.4961 228.354 41.4336 228.053 41.4336C227.756 41.4336 227.494 41.4961 227.268 41.6211C227.045 41.7461 226.857 41.918 226.705 42.1367C226.557 42.3516 226.445 42.5996 226.371 42.8809C226.297 43.1582 226.26 43.4531 226.26 43.7656ZM233.391 41.8789V49.4375H232.301V40.6602H233.297L233.391 41.8789ZM237.662 43.7773V43.9004C237.662 44.3613 237.607 44.7891 237.498 45.1836C237.389 45.5742 237.229 45.9141 237.018 46.2031C236.811 46.4922 236.555 46.7168 236.25 46.877C235.945 47.0371 235.596 47.1172 235.201 47.1172C234.799 47.1172 234.443 47.0508 234.135 46.918C233.826 46.7852 233.564 46.5918 233.35 46.3379C233.135 46.084 232.963 45.7793 232.834 45.4238C232.709 45.0684 232.623 44.668 232.576 44.2227V43.5664C232.623 43.0977 232.711 42.6777 232.84 42.3066C232.969 41.9355 233.139 41.6191 233.35 41.3574C233.564 41.0918 233.824 40.8906 234.129 40.7539C234.434 40.6133 234.785 40.543 235.184 40.543C235.582 40.543 235.936 40.6211 236.244 40.7773C236.553 40.9297 236.812 41.1484 237.023 41.4336C237.234 41.7188 237.393 42.0605 237.498 42.459C237.607 42.8535 237.662 43.293 237.662 43.7773ZM236.572 43.9004V43.7773C236.572 43.4609 236.539 43.1641 236.473 42.8867C236.406 42.6055 236.303 42.3594 236.162 42.1484C236.025 41.9336 235.85 41.7656 235.635 41.6445C235.42 41.5195 235.164 41.457 234.867 41.457C234.594 41.457 234.355 41.5039 234.152 41.5977C233.953 41.6914 233.783 41.8184 233.643 41.9785C233.502 42.1348 233.387 42.3145 233.297 42.5176C233.211 42.7168 233.146 42.9238 233.104 43.1387V44.6562C233.182 44.9297 233.291 45.1875 233.432 45.4297C233.572 45.668 233.76 45.8613 233.994 46.0098C234.229 46.1543 234.523 46.2266 234.879 46.2266C235.172 46.2266 235.424 46.166 235.635 46.0449C235.85 45.9199 236.025 45.75 236.162 45.5352C236.303 45.3203 236.406 45.0742 236.473 44.7969C236.539 44.5156 236.572 44.2168 236.572 43.9004ZM241.676 47.1172C241.234 47.1172 240.834 47.043 240.475 46.8945C240.119 46.7422 239.812 46.5293 239.555 46.2559C239.301 45.9824 239.105 45.6582 238.969 45.2832C238.832 44.9082 238.764 44.498 238.764 44.0527V43.8066C238.764 43.291 238.84 42.832 238.992 42.4297C239.145 42.0234 239.352 41.6797 239.613 41.3984C239.875 41.1172 240.172 40.9043 240.504 40.7598C240.836 40.6152 241.18 40.543 241.535 40.543C241.988 40.543 242.379 40.6211 242.707 40.7773C243.039 40.9336 243.311 41.1523 243.521 41.4336C243.732 41.7109 243.889 42.0391 243.99 42.418C244.092 42.793 244.143 43.2031 244.143 43.6484V44.1348H239.408V43.25H243.059V43.168C243.043 42.8867 242.984 42.6133 242.883 42.3477C242.785 42.082 242.629 41.8633 242.414 41.6914C242.199 41.5195 241.906 41.4336 241.535 41.4336C241.289 41.4336 241.062 41.4863 240.855 41.5918C240.648 41.6934 240.471 41.8457 240.322 42.0488C240.174 42.252 240.059 42.5 239.977 42.793C239.895 43.0859 239.854 43.4238 239.854 43.8066V44.0527C239.854 44.3535 239.895 44.6367 239.977 44.9023C240.062 45.1641 240.186 45.3945 240.346 45.5938C240.51 45.793 240.707 45.9492 240.938 46.0625C241.172 46.1758 241.438 46.2324 241.734 46.2324C242.117 46.2324 242.441 46.1543 242.707 45.998C242.973 45.8418 243.205 45.6328 243.404 45.3711L244.061 45.8926C243.924 46.0996 243.75 46.2969 243.539 46.4844C243.328 46.6719 243.068 46.8242 242.76 46.9414C242.455 47.0586 242.094 47.1172 241.676 47.1172ZM246.492 41.6562V47H245.408V40.6602H246.463L246.492 41.6562ZM248.473 40.625L248.467 41.6328C248.377 41.6133 248.291 41.6016 248.209 41.5977C248.131 41.5898 248.041 41.5859 247.939 41.5859C247.689 41.5859 247.469 41.625 247.277 41.7031C247.086 41.7812 246.924 41.8906 246.791 42.0312C246.658 42.1719 246.553 42.3398 246.475 42.5352C246.4 42.7266 246.352 42.9375 246.328 43.168L246.023 43.3438C246.023 42.9609 246.061 42.6016 246.135 42.2656C246.213 41.9297 246.332 41.6328 246.492 41.375C246.652 41.1133 246.855 40.9102 247.102 40.7656C247.352 40.6172 247.648 40.543 247.992 40.543C248.07 40.543 248.16 40.5527 248.262 40.5723C248.363 40.5879 248.434 40.6055 248.473 40.625ZM252.422 40.6602V41.4922H248.994V40.6602H252.422ZM250.154 39.1191H251.238V45.4297C251.238 45.6445 251.271 45.8066 251.338 45.916C251.404 46.0254 251.49 46.0977 251.596 46.1328C251.701 46.168 251.814 46.1855 251.936 46.1855C252.025 46.1855 252.119 46.1777 252.217 46.1621C252.318 46.1426 252.395 46.127 252.445 46.1152L252.451 47C252.365 47.0273 252.252 47.0527 252.111 47.0762C251.975 47.1035 251.809 47.1172 251.613 47.1172C251.348 47.1172 251.104 47.0645 250.881 46.959C250.658 46.8535 250.48 46.6777 250.348 46.4316C250.219 46.1816 250.154 45.8457 250.154 45.4238V39.1191ZM255.475 46.3438L257.238 40.6602H258.398L255.855 47.9785C255.797 48.1348 255.719 48.3027 255.621 48.4824C255.527 48.666 255.406 48.8398 255.258 49.0039C255.109 49.168 254.93 49.3008 254.719 49.4023C254.512 49.5078 254.264 49.5605 253.975 49.5605C253.889 49.5605 253.779 49.5488 253.646 49.5254C253.514 49.502 253.42 49.4824 253.365 49.4668L253.359 48.5879C253.391 48.5918 253.439 48.5957 253.506 48.5996C253.576 48.6074 253.625 48.6113 253.652 48.6113C253.898 48.6113 254.107 48.5781 254.279 48.5117C254.451 48.4492 254.596 48.3418 254.713 48.1895C254.834 48.041 254.938 47.8359 255.023 47.5742L255.475 46.3438ZM254.18 40.6602L255.826 45.582L256.107 46.7246L255.328 47.123L252.996 40.6602H254.18ZM57.4805 54.6602V55.4922H54.0527V54.6602H57.4805ZM55.2129 53.1191H56.2969V59.4297C56.2969 59.6445 56.3301 59.8066 56.3965 59.916C56.4629 60.0254 56.5488 60.0977 56.6543 60.1328C56.7598 60.168 56.873 60.1855 56.9941 60.1855C57.084 60.1855 57.1777 60.1777 57.2754 60.1621C57.377 60.1426 57.4531 60.127 57.5039 60.1152L57.5098 61C57.4238 61.0273 57.3105 61.0527 57.1699 61.0762C57.0332 61.1035 56.8672 61.1172 56.6719 61.1172C56.4062 61.1172 56.1621 61.0645 55.9395 60.959C55.7168 60.8535 55.5391 60.6777 55.4062 60.4316C55.2773 60.1816 55.2129 59.8457 55.2129 59.4238V53.1191ZM59.8359 52V61H58.752V52H59.8359ZM59.5781 57.5898L59.127 57.5723C59.1309 57.1387 59.1953 56.7383 59.3203 56.3711C59.4453 56 59.6211 55.6777 59.8477 55.4043C60.0742 55.1309 60.3438 54.9199 60.6562 54.7715C60.9727 54.6191 61.3223 54.543 61.7051 54.543C62.0176 54.543 62.2988 54.5859 62.5488 54.6719C62.7988 54.7539 63.0117 54.8867 63.1875 55.0703C63.3672 55.2539 63.5039 55.4922 63.5977 55.7852C63.6914 56.0742 63.7383 56.4277 63.7383 56.8457V61H62.6484V56.834C62.6484 56.502 62.5996 56.2363 62.502 56.0371C62.4043 55.834 62.2617 55.6875 62.0742 55.5977C61.8867 55.5039 61.6562 55.457 61.3828 55.457C61.1133 55.457 60.8672 55.5137 60.6445 55.627C60.4258 55.7402 60.2363 55.8965 60.0762 56.0957C59.9199 56.2949 59.7969 56.5234 59.707 56.7812C59.6211 57.0352 59.5781 57.3047 59.5781 57.5898ZM69.0996 59.916V56.6523C69.0996 56.4023 69.0488 56.1855 68.9473 56.002C68.8496 55.8145 68.7012 55.6699 68.502 55.5684C68.3027 55.4668 68.0566 55.416 67.7637 55.416C67.4902 55.416 67.25 55.4629 67.043 55.5566C66.8398 55.6504 66.6797 55.7734 66.5625 55.9258C66.4492 56.0781 66.3926 56.2422 66.3926 56.418H65.3086C65.3086 56.1914 65.3672 55.9668 65.4844 55.7441C65.6016 55.5215 65.7695 55.3203 65.9883 55.1406C66.2109 54.957 66.4766 54.8125 66.7852 54.707C67.0977 54.5977 67.4453 54.543 67.8281 54.543C68.2891 54.543 68.6953 54.6211 69.0469 54.7773C69.4023 54.9336 69.6797 55.1699 69.8789 55.4863C70.082 55.7988 70.1836 56.1914 70.1836 56.6641V59.6172C70.1836 59.8281 70.2012 60.0527 70.2363 60.291C70.2754 60.5293 70.332 60.7344 70.4062 60.9062V61H69.2754C69.2207 60.875 69.1777 60.709 69.1465 60.502C69.1152 60.291 69.0996 60.0957 69.0996 59.916ZM69.2871 57.1562L69.2988 57.918H68.2031C67.8945 57.918 67.6191 57.9434 67.377 57.9941C67.1348 58.041 66.9316 58.1133 66.7676 58.2109C66.6035 58.3086 66.4785 58.4316 66.3926 58.5801C66.3066 58.7246 66.2637 58.8945 66.2637 59.0898C66.2637 59.2891 66.3086 59.4707 66.3984 59.6348C66.4883 59.7988 66.623 59.9297 66.8027 60.0273C66.9863 60.1211 67.2109 60.168 67.4766 60.168C67.8086 60.168 68.1016 60.0977 68.3555 59.957C68.6094 59.8164 68.8105 59.6445 68.959 59.4414C69.1113 59.2383 69.1934 59.041 69.2051 58.8496L69.668 59.3711C69.6406 59.5352 69.5664 59.7168 69.4453 59.916C69.3242 60.1152 69.1621 60.3066 68.959 60.4902C68.7598 60.6699 68.5215 60.8203 68.2441 60.9414C67.9707 61.0586 67.6621 61.1172 67.3184 61.1172C66.8887 61.1172 66.5117 61.0332 66.1875 60.8652C65.8672 60.6973 65.6172 60.4727 65.4375 60.1914C65.2617 59.9062 65.1738 59.5879 65.1738 59.2363C65.1738 58.8965 65.2402 58.5977 65.373 58.3398C65.5059 58.0781 65.6973 57.8613 65.9473 57.6895C66.1973 57.5137 66.498 57.3809 66.8496 57.291C67.2012 57.2012 67.5938 57.1562 68.0273 57.1562H69.2871ZM74.543 54.6602V55.4922H71.1152V54.6602H74.543ZM72.2754 53.1191H73.3594V59.4297C73.3594 59.6445 73.3926 59.8066 73.459 59.916C73.5254 60.0254 73.6113 60.0977 73.7168 60.1328C73.8223 60.168 73.9355 60.1855 74.0566 60.1855C74.1465 60.1855 74.2402 60.1777 74.3379 60.1621C74.4395 60.1426 74.5156 60.127 74.5664 60.1152L74.5723 61C74.4863 61.0273 74.373 61.0527 74.2324 61.0762C74.0957 61.1035 73.9297 61.1172 73.7344 61.1172C73.4688 61.1172 73.2246 61.0645 73.002 60.959C72.7793 60.8535 72.6016 60.6777 72.4688 60.4316C72.3398 60.1816 72.2754 59.8457 72.2754 59.4238V53.1191ZM79.8691 55.9199V61H78.7793V54.6602H79.8105L79.8691 55.9199ZM79.6465 57.5898L79.1426 57.5723C79.1465 57.1387 79.2031 56.7383 79.3125 56.3711C79.4219 56 79.584 55.6777 79.7988 55.4043C80.0137 55.1309 80.2812 54.9199 80.6016 54.7715C80.9219 54.6191 81.293 54.543 81.7148 54.543C82.0117 54.543 82.2852 54.5859 82.5352 54.6719C82.7852 54.7539 83.002 54.8848 83.1855 55.0645C83.3691 55.2441 83.5117 55.4746 83.6133 55.7559C83.7148 56.0371 83.7656 56.377 83.7656 56.7754V61H82.6816V56.8281C82.6816 56.4961 82.625 56.2305 82.5117 56.0312C82.4023 55.832 82.2461 55.6875 82.043 55.5977C81.8398 55.5039 81.6016 55.457 81.3281 55.457C81.0078 55.457 80.7402 55.5137 80.5254 55.627C80.3105 55.7402 80.1387 55.8965 80.0098 56.0957C79.8809 56.2949 79.7871 56.5234 79.7285 56.7812C79.6738 57.0352 79.6465 57.3047 79.6465 57.5898ZM83.7539 56.9922L83.0273 57.2148C83.0312 56.8672 83.0879 56.5332 83.1973 56.2129C83.3105 55.8926 83.4727 55.6074 83.6836 55.3574C83.8984 55.1074 84.1621 54.9102 84.4746 54.7656C84.7871 54.6172 85.1445 54.543 85.5469 54.543C85.8867 54.543 86.1875 54.5879 86.4492 54.6777C86.7148 54.7676 86.9375 54.9062 87.1172 55.0938C87.3008 55.2773 87.4395 55.5137 87.5332 55.8027C87.627 56.0918 87.6738 56.4355 87.6738 56.834V61H86.584V56.8223C86.584 56.4668 86.5273 56.1914 86.4141 55.9961C86.3047 55.7969 86.1484 55.6582 85.9453 55.5801C85.7461 55.498 85.5078 55.457 85.2305 55.457C84.9922 55.457 84.7812 55.498 84.5977 55.5801C84.4141 55.6621 84.2598 55.7754 84.1348 55.9199C84.0098 56.0605 83.9141 56.2227 83.8477 56.4062C83.7852 56.5898 83.7539 56.7852 83.7539 56.9922ZM91.9453 61.1172C91.5039 61.1172 91.1035 61.043 90.7441 60.8945C90.3887 60.7422 90.082 60.5293 89.8242 60.2559C89.5703 59.9824 89.375 59.6582 89.2383 59.2832C89.1016 58.9082 89.0332 58.498 89.0332 58.0527V57.8066C89.0332 57.291 89.1094 56.832 89.2617 56.4297C89.4141 56.0234 89.6211 55.6797 89.8828 55.3984C90.1445 55.1172 90.4414 54.9043 90.7734 54.7598C91.1055 54.6152 91.4492 54.543 91.8047 54.543C92.2578 54.543 92.6484 54.6211 92.9766 54.7773C93.3086 54.9336 93.5801 55.1523 93.791 55.4336C94.002 55.7109 94.1582 56.0391 94.2598 56.418C94.3613 56.793 94.4121 57.2031 94.4121 57.6484V58.1348H89.6777V57.25H93.3281V57.168C93.3125 56.8867 93.2539 56.6133 93.1523 56.3477C93.0547 56.082 92.8984 55.8633 92.6836 55.6914C92.4688 55.5195 92.1758 55.4336 91.8047 55.4336C91.5586 55.4336 91.332 55.4863 91.125 55.5918C90.918 55.6934 90.7402 55.8457 90.5918 56.0488C90.4434 56.252 90.3281 56.5 90.2461 56.793C90.1641 57.0859 90.123 57.4238 90.123 57.8066V58.0527C90.123 58.3535 90.1641 58.6367 90.2461 58.9023C90.332 59.1641 90.4551 59.3945 90.6152 59.5938C90.7793 59.793 90.9766 59.9492 91.207 60.0625C91.4414 60.1758 91.707 60.2324 92.0039 60.2324C92.3867 60.2324 92.7109 60.1543 92.9766 59.998C93.2422 59.8418 93.4746 59.6328 93.6738 59.3711L94.3301 59.8926C94.1934 60.0996 94.0195 60.2969 93.8086 60.4844C93.5977 60.6719 93.3379 60.8242 93.0293 60.9414C92.7246 61.0586 92.3633 61.1172 91.9453 61.1172ZM98.3086 61.1172C97.8672 61.1172 97.4668 61.043 97.1074 60.8945C96.752 60.7422 96.4453 60.5293 96.1875 60.2559C95.9336 59.9824 95.7383 59.6582 95.6016 59.2832C95.4648 58.9082 95.3965 58.498 95.3965 58.0527V57.8066C95.3965 57.291 95.4727 56.832 95.625 56.4297C95.7773 56.0234 95.9844 55.6797 96.2461 55.3984C96.5078 55.1172 96.8047 54.9043 97.1367 54.7598C97.4688 54.6152 97.8125 54.543 98.168 54.543C98.6211 54.543 99.0117 54.6211 99.3398 54.7773C99.6719 54.9336 99.9434 55.1523 100.154 55.4336C100.365 55.7109 100.521 56.0391 100.623 56.418C100.725 56.793 100.775 57.2031 100.775 57.6484V58.1348H96.041V57.25H99.6914V57.168C99.6758 56.8867 99.6172 56.6133 99.5156 56.3477C99.418 56.082 99.2617 55.8633 99.0469 55.6914C98.832 55.5195 98.5391 55.4336 98.168 55.4336C97.9219 55.4336 97.6953 55.4863 97.4883 55.5918C97.2812 55.6934 97.1035 55.8457 96.9551 56.0488C96.8066 56.252 96.6914 56.5 96.6094 56.793C96.5273 57.0859 96.4863 57.4238 96.4863 57.8066V58.0527C96.4863 58.3535 96.5273 58.6367 96.6094 58.9023C96.6953 59.1641 96.8184 59.3945 96.9785 59.5938C97.1426 59.793 97.3398 59.9492 97.5703 60.0625C97.8047 60.1758 98.0703 60.2324 98.3672 60.2324C98.75 60.2324 99.0742 60.1543 99.3398 59.998C99.6055 59.8418 99.8379 59.6328 100.037 59.3711L100.693 59.8926C100.557 60.0996 100.383 60.2969 100.172 60.4844C99.9609 60.6719 99.7012 60.8242 99.3926 60.9414C99.0879 61.0586 98.7266 61.1172 98.3086 61.1172ZM104.695 54.6602V55.4922H101.268V54.6602H104.695ZM102.428 53.1191H103.512V59.4297C103.512 59.6445 103.545 59.8066 103.611 59.916C103.678 60.0254 103.764 60.0977 103.869 60.1328C103.975 60.168 104.088 60.1855 104.209 60.1855C104.299 60.1855 104.393 60.1777 104.49 60.1621C104.592 60.1426 104.668 60.127 104.719 60.1152L104.725 61C104.639 61.0273 104.525 61.0527 104.385 61.0762C104.248 61.1035 104.082 61.1172 103.887 61.1172C103.621 61.1172 103.377 61.0645 103.154 60.959C102.932 60.8535 102.754 60.6777 102.621 60.4316C102.492 60.1816 102.428 59.8457 102.428 59.4238V53.1191ZM109.658 59.3184C109.658 59.1621 109.623 59.0176 109.553 58.8848C109.486 58.748 109.348 58.625 109.137 58.5156C108.93 58.4023 108.617 58.3047 108.199 58.2227C107.848 58.1484 107.529 58.0605 107.244 57.959C106.963 57.8574 106.723 57.7344 106.523 57.5898C106.328 57.4453 106.178 57.2754 106.072 57.0801C105.967 56.8848 105.914 56.6562 105.914 56.3945C105.914 56.1445 105.969 55.9082 106.078 55.6855C106.191 55.4629 106.35 55.2656 106.553 55.0938C106.76 54.9219 107.008 54.7871 107.297 54.6895C107.586 54.5918 107.908 54.543 108.264 54.543C108.771 54.543 109.205 54.6328 109.564 54.8125C109.924 54.9922 110.199 55.2324 110.391 55.5332C110.582 55.8301 110.678 56.1602 110.678 56.5234H109.594C109.594 56.3477 109.541 56.1777 109.436 56.0137C109.334 55.8457 109.184 55.707 108.984 55.5977C108.789 55.4883 108.549 55.4336 108.264 55.4336C107.963 55.4336 107.719 55.4805 107.531 55.5742C107.348 55.6641 107.213 55.7793 107.127 55.9199C107.045 56.0605 107.004 56.209 107.004 56.3652C107.004 56.4824 107.023 56.5879 107.062 56.6816C107.105 56.7715 107.18 56.8555 107.285 56.9336C107.391 57.0078 107.539 57.0781 107.73 57.1445C107.922 57.2109 108.166 57.2773 108.463 57.3438C108.982 57.4609 109.41 57.6016 109.746 57.7656C110.082 57.9297 110.332 58.1309 110.496 58.3691C110.66 58.6074 110.742 58.8965 110.742 59.2363C110.742 59.5137 110.684 59.7676 110.566 59.998C110.453 60.2285 110.287 60.4277 110.068 60.5957C109.854 60.7598 109.596 60.8887 109.295 60.9824C108.998 61.0723 108.664 61.1172 108.293 61.1172C107.734 61.1172 107.262 61.0176 106.875 60.8184C106.488 60.6191 106.195 60.3613 105.996 60.0449C105.797 59.7285 105.697 59.3945 105.697 59.043H106.787C106.803 59.3398 106.889 59.5762 107.045 59.752C107.201 59.9238 107.393 60.0469 107.619 60.1211C107.846 60.1914 108.07 60.2266 108.293 60.2266C108.59 60.2266 108.838 60.1875 109.037 60.1094C109.24 60.0312 109.395 59.9238 109.5 59.7871C109.605 59.6504 109.658 59.4941 109.658 59.3184ZM116.924 60.3438L118.688 54.6602H119.848L117.305 61.9785C117.246 62.1348 117.168 62.3027 117.07 62.4824C116.977 62.666 116.855 62.8398 116.707 63.0039C116.559 63.168 116.379 63.3008 116.168 63.4023C115.961 63.5078 115.713 63.5605 115.424 63.5605C115.338 63.5605 115.229 63.5488 115.096 63.5254C114.963 63.502 114.869 63.4824 114.814 63.4668L114.809 62.5879C114.84 62.5918 114.889 62.5957 114.955 62.5996C115.025 62.6074 115.074 62.6113 115.102 62.6113C115.348 62.6113 115.557 62.5781 115.729 62.5117C115.9 62.4492 116.045 62.3418 116.162 62.1895C116.283 62.041 116.387 61.8359 116.473 61.5742L116.924 60.3438ZM115.629 54.6602L117.275 59.582L117.557 60.7246L116.777 61.123L114.445 54.6602H115.629ZM120.445 57.9004V57.7656C120.445 57.3086 120.512 56.8848 120.645 56.4941C120.777 56.0996 120.969 55.7578 121.219 55.4688C121.469 55.1758 121.771 54.9492 122.127 54.7891C122.482 54.625 122.881 54.543 123.322 54.543C123.768 54.543 124.168 54.625 124.523 54.7891C124.883 54.9492 125.188 55.1758 125.438 55.4688C125.691 55.7578 125.885 56.0996 126.018 56.4941C126.15 56.8848 126.217 57.3086 126.217 57.7656V57.9004C126.217 58.3574 126.15 58.7812 126.018 59.1719C125.885 59.5625 125.691 59.9043 125.438 60.1973C125.188 60.4863 124.885 60.7129 124.529 60.877C124.178 61.0371 123.779 61.1172 123.334 61.1172C122.889 61.1172 122.488 61.0371 122.133 60.877C121.777 60.7129 121.473 60.4863 121.219 60.1973C120.969 59.9043 120.777 59.5625 120.645 59.1719C120.512 58.7812 120.445 58.3574 120.445 57.9004ZM121.529 57.7656V57.9004C121.529 58.2168 121.566 58.5156 121.641 58.7969C121.715 59.0742 121.826 59.3203 121.975 59.5352C122.127 59.75 122.316 59.9199 122.543 60.0449C122.77 60.166 123.033 60.2266 123.334 60.2266C123.631 60.2266 123.891 60.166 124.113 60.0449C124.34 59.9199 124.527 59.75 124.676 59.5352C124.824 59.3203 124.936 59.0742 125.01 58.7969C125.088 58.5156 125.127 58.2168 125.127 57.9004V57.7656C125.127 57.4531 125.088 57.1582 125.01 56.8809C124.936 56.5996 124.822 56.3516 124.67 56.1367C124.521 55.918 124.334 55.7461 124.107 55.6211C123.885 55.4961 123.623 55.4336 123.322 55.4336C123.025 55.4336 122.764 55.4961 122.537 55.6211C122.314 55.7461 122.127 55.918 121.975 56.1367C121.826 56.3516 121.715 56.5996 121.641 56.8809C121.566 57.1582 121.529 57.4531 121.529 57.7656ZM131.455 59.5352V54.6602H132.545V61H131.508L131.455 59.5352ZM131.66 58.1992L132.111 58.1875C132.111 58.6094 132.066 59 131.977 59.3594C131.891 59.7148 131.75 60.0234 131.555 60.2852C131.359 60.5469 131.104 60.752 130.787 60.9004C130.471 61.0449 130.086 61.1172 129.633 61.1172C129.324 61.1172 129.041 61.0723 128.783 60.9824C128.529 60.8926 128.311 60.7539 128.127 60.5664C127.943 60.3789 127.801 60.1348 127.699 59.834C127.602 59.5332 127.553 59.1719 127.553 58.75V54.6602H128.637V58.7617C128.637 59.0469 128.668 59.2832 128.73 59.4707C128.797 59.6543 128.885 59.8008 128.994 59.9102C129.107 60.0156 129.232 60.0898 129.369 60.1328C129.51 60.1758 129.654 60.1973 129.803 60.1973C130.264 60.1973 130.629 60.1094 130.898 59.9336C131.168 59.7539 131.361 59.5137 131.479 59.2129C131.6 58.9082 131.66 58.5703 131.66 58.1992ZM135.281 55.6562V61H134.197V54.6602H135.252L135.281 55.6562ZM137.262 54.625L137.256 55.6328C137.166 55.6133 137.08 55.6016 136.998 55.5977C136.92 55.5898 136.83 55.5859 136.729 55.5859C136.479 55.5859 136.258 55.625 136.066 55.7031C135.875 55.7812 135.713 55.8906 135.58 56.0312C135.447 56.1719 135.342 56.3398 135.264 56.5352C135.189 56.7266 135.141 56.9375 135.117 57.168L134.812 57.3438C134.812 56.9609 134.85 56.6016 134.924 56.2656C135.002 55.9297 135.121 55.6328 135.281 55.375C135.441 55.1133 135.645 54.9102 135.891 54.7656C136.141 54.6172 136.438 54.543 136.781 54.543C136.859 54.543 136.949 54.5527 137.051 54.5723C137.152 54.5879 137.223 54.6055 137.262 54.625ZM142.324 55.6562V61H141.24V54.6602H142.295L142.324 55.6562ZM144.305 54.625L144.299 55.6328C144.209 55.6133 144.123 55.6016 144.041 55.5977C143.963 55.5898 143.873 55.5859 143.771 55.5859C143.521 55.5859 143.301 55.625 143.109 55.7031C142.918 55.7812 142.756 55.8906 142.623 56.0312C142.49 56.1719 142.385 56.3398 142.307 56.5352C142.232 56.7266 142.184 56.9375 142.16 57.168L141.855 57.3438C141.855 56.9609 141.893 56.6016 141.967 56.2656C142.045 55.9297 142.164 55.6328 142.324 55.375C142.484 55.1133 142.688 54.9102 142.934 54.7656C143.184 54.6172 143.48 54.543 143.824 54.543C143.902 54.543 143.992 54.5527 144.094 54.5723C144.195 54.5879 144.266 54.6055 144.305 54.625ZM147.82 61.1172C147.379 61.1172 146.979 61.043 146.619 60.8945C146.264 60.7422 145.957 60.5293 145.699 60.2559C145.445 59.9824 145.25 59.6582 145.113 59.2832C144.977 58.9082 144.908 58.498 144.908 58.0527V57.8066C144.908 57.291 144.984 56.832 145.137 56.4297C145.289 56.0234 145.496 55.6797 145.758 55.3984C146.02 55.1172 146.316 54.9043 146.648 54.7598C146.98 54.6152 147.324 54.543 147.68 54.543C148.133 54.543 148.523 54.6211 148.852 54.7773C149.184 54.9336 149.455 55.1523 149.666 55.4336C149.877 55.7109 150.033 56.0391 150.135 56.418C150.236 56.793 150.287 57.2031 150.287 57.6484V58.1348H145.553V57.25H149.203V57.168C149.188 56.8867 149.129 56.6133 149.027 56.3477C148.93 56.082 148.773 55.8633 148.559 55.6914C148.344 55.5195 148.051 55.4336 147.68 55.4336C147.434 55.4336 147.207 55.4863 147 55.5918C146.793 55.6934 146.615 55.8457 146.467 56.0488C146.318 56.252 146.203 56.5 146.121 56.793C146.039 57.0859 145.998 57.4238 145.998 57.8066V58.0527C145.998 58.3535 146.039 58.6367 146.121 58.9023C146.207 59.1641 146.33 59.3945 146.49 59.5938C146.654 59.793 146.852 59.9492 147.082 60.0625C147.316 60.1758 147.582 60.2324 147.879 60.2324C148.262 60.2324 148.586 60.1543 148.852 59.998C149.117 59.8418 149.35 59.6328 149.549 59.3711L150.205 59.8926C150.068 60.0996 149.895 60.2969 149.684 60.4844C149.473 60.6719 149.213 60.8242 148.904 60.9414C148.6 61.0586 148.238 61.1172 147.82 61.1172ZM155.543 63.4375V55.8789L155.637 54.6602H156.633V63.4375H155.543ZM151.283 57.9004V57.7773C151.283 57.293 151.34 56.8535 151.453 56.459C151.566 56.0605 151.732 55.7188 151.951 55.4336C152.17 55.1484 152.434 54.9297 152.742 54.7773C153.055 54.6211 153.41 54.543 153.809 54.543C154.207 54.543 154.557 54.6133 154.857 54.7539C155.162 54.8906 155.42 55.0918 155.631 55.3574C155.846 55.6191 156.016 55.9355 156.141 56.3066C156.266 56.6777 156.352 57.0977 156.398 57.5664V58.1055C156.355 58.5703 156.271 58.9883 156.146 59.3594C156.021 59.7305 155.852 60.0469 155.637 60.3086C155.426 60.5703 155.166 60.7715 154.857 60.9121C154.553 61.0488 154.199 61.1172 153.797 61.1172C153.406 61.1172 153.055 61.0371 152.742 60.877C152.434 60.7168 152.17 60.4922 151.951 60.2031C151.736 59.9141 151.57 59.5742 151.453 59.1836C151.34 58.7891 151.283 58.3613 151.283 57.9004ZM152.373 57.7773V57.9004C152.373 58.2168 152.406 58.5156 152.473 58.7969C152.539 59.0742 152.641 59.3203 152.777 59.5352C152.918 59.75 153.094 59.9199 153.305 60.0449C153.52 60.166 153.773 60.2266 154.066 60.2266C154.426 60.2266 154.725 60.1484 154.963 59.9922C155.205 59.8359 155.398 59.6309 155.543 59.377C155.688 59.1191 155.799 58.8438 155.877 58.5508V57.1387C155.834 56.9238 155.766 56.7148 155.672 56.5117C155.582 56.3086 155.465 56.127 155.32 55.9668C155.176 55.8027 155 55.6738 154.793 55.5801C154.59 55.4824 154.352 55.4336 154.078 55.4336C153.781 55.4336 153.525 55.4961 153.311 55.6211C153.096 55.7461 152.918 55.918 152.777 56.1367C152.641 56.3516 152.539 56.5996 152.473 56.8809C152.406 57.1621 152.373 57.4609 152.373 57.7773ZM162.252 59.5352V54.6602H163.342V61H162.305L162.252 59.5352ZM162.457 58.1992L162.908 58.1875C162.908 58.6094 162.863 59 162.773 59.3594C162.688 59.7148 162.547 60.0234 162.352 60.2852C162.156 60.5469 161.9 60.752 161.584 60.9004C161.268 61.0449 160.883 61.1172 160.43 61.1172C160.121 61.1172 159.838 61.0723 159.58 60.9824C159.326 60.8926 159.107 60.7539 158.924 60.5664C158.74 60.3789 158.598 60.1348 158.496 59.834C158.398 59.5332 158.35 59.1719 158.35 58.75V54.6602H159.434V58.7617C159.434 59.0469 159.465 59.2832 159.527 59.4707C159.594 59.6543 159.682 59.8008 159.791 59.9102C159.904 60.0156 160.029 60.0898 160.166 60.1328C160.307 60.1758 160.451 60.1973 160.6 60.1973C161.061 60.1973 161.426 60.1094 161.695 59.9336C161.965 59.7539 162.158 59.5137 162.275 59.2129C162.396 58.9082 162.457 58.5703 162.457 58.1992ZM166.172 54.6602V61H165.082V54.6602H166.172ZM165 52.9785C165 52.8027 165.053 52.6543 165.158 52.5332C165.268 52.4121 165.428 52.3516 165.639 52.3516C165.846 52.3516 166.004 52.4121 166.113 52.5332C166.227 52.6543 166.283 52.8027 166.283 52.9785C166.283 53.1465 166.227 53.291 166.113 53.4121C166.004 53.5293 165.846 53.5879 165.639 53.5879C165.428 53.5879 165.268 53.5293 165.158 53.4121C165.053 53.291 165 53.1465 165 52.9785ZM168.996 55.6562V61H167.912V54.6602H168.967L168.996 55.6562ZM170.977 54.625L170.971 55.6328C170.881 55.6133 170.795 55.6016 170.713 55.5977C170.635 55.5898 170.545 55.5859 170.443 55.5859C170.193 55.5859 169.973 55.625 169.781 55.7031C169.59 55.7812 169.428 55.8906 169.295 56.0312C169.162 56.1719 169.057 56.3398 168.979 56.5352C168.904 56.7266 168.855 56.9375 168.832 57.168L168.527 57.3438C168.527 56.9609 168.564 56.6016 168.639 56.2656C168.717 55.9297 168.836 55.6328 168.996 55.375C169.156 55.1133 169.359 54.9102 169.605 54.7656C169.855 54.6172 170.152 54.543 170.496 54.543C170.574 54.543 170.664 54.5527 170.766 54.5723C170.867 54.5879 170.938 54.6055 170.977 54.625ZM174.492 61.1172C174.051 61.1172 173.65 61.043 173.291 60.8945C172.936 60.7422 172.629 60.5293 172.371 60.2559C172.117 59.9824 171.922 59.6582 171.785 59.2832C171.648 58.9082 171.58 58.498 171.58 58.0527V57.8066C171.58 57.291 171.656 56.832 171.809 56.4297C171.961 56.0234 172.168 55.6797 172.43 55.3984C172.691 55.1172 172.988 54.9043 173.32 54.7598C173.652 54.6152 173.996 54.543 174.352 54.543C174.805 54.543 175.195 54.6211 175.523 54.7773C175.855 54.9336 176.127 55.1523 176.338 55.4336C176.549 55.7109 176.705 56.0391 176.807 56.418C176.908 56.793 176.959 57.2031 176.959 57.6484V58.1348H172.225V57.25H175.875V57.168C175.859 56.8867 175.801 56.6133 175.699 56.3477C175.602 56.082 175.445 55.8633 175.23 55.6914C175.016 55.5195 174.723 55.4336 174.352 55.4336C174.105 55.4336 173.879 55.4863 173.672 55.5918C173.465 55.6934 173.287 55.8457 173.139 56.0488C172.99 56.252 172.875 56.5 172.793 56.793C172.711 57.0859 172.67 57.4238 172.67 57.8066V58.0527C172.67 58.3535 172.711 58.6367 172.793 58.9023C172.879 59.1641 173.002 59.3945 173.162 59.5938C173.326 59.793 173.523 59.9492 173.754 60.0625C173.988 60.1758 174.254 60.2324 174.551 60.2324C174.934 60.2324 175.258 60.1543 175.523 59.998C175.789 59.8418 176.021 59.6328 176.221 59.3711L176.877 59.8926C176.74 60.0996 176.566 60.2969 176.355 60.4844C176.145 60.6719 175.885 60.8242 175.576 60.9414C175.271 61.0586 174.91 61.1172 174.492 61.1172ZM179.303 55.9199V61H178.213V54.6602H179.244L179.303 55.9199ZM179.08 57.5898L178.576 57.5723C178.58 57.1387 178.637 56.7383 178.746 56.3711C178.855 56 179.018 55.6777 179.232 55.4043C179.447 55.1309 179.715 54.9199 180.035 54.7715C180.355 54.6191 180.727 54.543 181.148 54.543C181.445 54.543 181.719 54.5859 181.969 54.6719C182.219 54.7539 182.436 54.8848 182.619 55.0645C182.803 55.2441 182.945 55.4746 183.047 55.7559C183.148 56.0371 183.199 56.377 183.199 56.7754V61H182.115V56.8281C182.115 56.4961 182.059 56.2305 181.945 56.0312C181.836 55.832 181.68 55.6875 181.477 55.5977C181.273 55.5039 181.035 55.457 180.762 55.457C180.441 55.457 180.174 55.5137 179.959 55.627C179.744 55.7402 179.572 55.8965 179.443 56.0957C179.314 56.2949 179.221 56.5234 179.162 56.7812C179.107 57.0352 179.08 57.3047 179.08 57.5898ZM183.188 56.9922L182.461 57.2148C182.465 56.8672 182.521 56.5332 182.631 56.2129C182.744 55.8926 182.906 55.6074 183.117 55.3574C183.332 55.1074 183.596 54.9102 183.908 54.7656C184.221 54.6172 184.578 54.543 184.98 54.543C185.32 54.543 185.621 54.5879 185.883 54.6777C186.148 54.7676 186.371 54.9062 186.551 55.0938C186.734 55.2773 186.873 55.5137 186.967 55.8027C187.061 56.0918 187.107 56.4355 187.107 56.834V61H186.018V56.8223C186.018 56.4668 185.961 56.1914 185.848 55.9961C185.738 55.7969 185.582 55.6582 185.379 55.5801C185.18 55.498 184.941 55.457 184.664 55.457C184.426 55.457 184.215 55.498 184.031 55.5801C183.848 55.6621 183.693 55.7754 183.568 55.9199C183.443 56.0605 183.348 56.2227 183.281 56.4062C183.219 56.5898 183.188 56.7852 183.188 56.9922ZM191.379 61.1172C190.938 61.1172 190.537 61.043 190.178 60.8945C189.822 60.7422 189.516 60.5293 189.258 60.2559C189.004 59.9824 188.809 59.6582 188.672 59.2832C188.535 58.9082 188.467 58.498 188.467 58.0527V57.8066C188.467 57.291 188.543 56.832 188.695 56.4297C188.848 56.0234 189.055 55.6797 189.316 55.3984C189.578 55.1172 189.875 54.9043 190.207 54.7598C190.539 54.6152 190.883 54.543 191.238 54.543C191.691 54.543 192.082 54.6211 192.41 54.7773C192.742 54.9336 193.014 55.1523 193.225 55.4336C193.436 55.7109 193.592 56.0391 193.693 56.418C193.795 56.793 193.846 57.2031 193.846 57.6484V58.1348H189.111V57.25H192.762V57.168C192.746 56.8867 192.688 56.6133 192.586 56.3477C192.488 56.082 192.332 55.8633 192.117 55.6914C191.902 55.5195 191.609 55.4336 191.238 55.4336C190.992 55.4336 190.766 55.4863 190.559 55.5918C190.352 55.6934 190.174 55.8457 190.025 56.0488C189.877 56.252 189.762 56.5 189.68 56.793C189.598 57.0859 189.557 57.4238 189.557 57.8066V58.0527C189.557 58.3535 189.598 58.6367 189.68 58.9023C189.766 59.1641 189.889 59.3945 190.049 59.5938C190.213 59.793 190.41 59.9492 190.641 60.0625C190.875 60.1758 191.141 60.2324 191.438 60.2324C191.82 60.2324 192.145 60.1543 192.41 59.998C192.676 59.8418 192.908 59.6328 193.107 59.3711L193.764 59.8926C193.627 60.0996 193.453 60.2969 193.242 60.4844C193.031 60.6719 192.771 60.8242 192.463 60.9414C192.158 61.0586 191.797 61.1172 191.379 61.1172ZM196.195 56.0137V61H195.111V54.6602H196.137L196.195 56.0137ZM195.938 57.5898L195.486 57.5723C195.49 57.1387 195.555 56.7383 195.68 56.3711C195.805 56 195.98 55.6777 196.207 55.4043C196.434 55.1309 196.703 54.9199 197.016 54.7715C197.332 54.6191 197.682 54.543 198.064 54.543C198.377 54.543 198.658 54.5859 198.908 54.6719C199.158 54.7539 199.371 54.8867 199.547 55.0703C199.727 55.2539 199.863 55.4922 199.957 55.7852C200.051 56.0742 200.098 56.4277 200.098 56.8457V61H199.008V56.834C199.008 56.502 198.959 56.2363 198.861 56.0371C198.764 55.834 198.621 55.6875 198.434 55.5977C198.246 55.5039 198.016 55.457 197.742 55.457C197.473 55.457 197.227 55.5137 197.004 55.627C196.785 55.7402 196.596 55.8965 196.436 56.0957C196.279 56.2949 196.156 56.5234 196.066 56.7812C195.98 57.0352 195.938 57.3047 195.938 57.5898ZM204.398 54.6602V55.4922H200.971V54.6602H204.398ZM202.131 53.1191H203.215V59.4297C203.215 59.6445 203.248 59.8066 203.314 59.916C203.381 60.0254 203.467 60.0977 203.572 60.1328C203.678 60.168 203.791 60.1855 203.912 60.1855C204.002 60.1855 204.096 60.1777 204.193 60.1621C204.295 60.1426 204.371 60.127 204.422 60.1152L204.428 61C204.342 61.0273 204.229 61.0527 204.088 61.0762C203.951 61.1035 203.785 61.1172 203.59 61.1172C203.324 61.1172 203.08 61.0645 202.857 60.959C202.635 60.8535 202.457 60.6777 202.324 60.4316C202.195 60.1816 202.131 59.8457 202.131 59.4238V53.1191ZM209.361 59.3184C209.361 59.1621 209.326 59.0176 209.256 58.8848C209.189 58.748 209.051 58.625 208.84 58.5156C208.633 58.4023 208.32 58.3047 207.902 58.2227C207.551 58.1484 207.232 58.0605 206.947 57.959C206.666 57.8574 206.426 57.7344 206.227 57.5898C206.031 57.4453 205.881 57.2754 205.775 57.0801C205.67 56.8848 205.617 56.6562 205.617 56.3945C205.617 56.1445 205.672 55.9082 205.781 55.6855C205.895 55.4629 206.053 55.2656 206.256 55.0938C206.463 54.9219 206.711 54.7871 207 54.6895C207.289 54.5918 207.611 54.543 207.967 54.543C208.475 54.543 208.908 54.6328 209.268 54.8125C209.627 54.9922 209.902 55.2324 210.094 55.5332C210.285 55.8301 210.381 56.1602 210.381 56.5234H209.297C209.297 56.3477 209.244 56.1777 209.139 56.0137C209.037 55.8457 208.887 55.707 208.688 55.5977C208.492 55.4883 208.252 55.4336 207.967 55.4336C207.666 55.4336 207.422 55.4805 207.234 55.5742C207.051 55.6641 206.916 55.7793 206.83 55.9199C206.748 56.0605 206.707 56.209 206.707 56.3652C206.707 56.4824 206.727 56.5879 206.766 56.6816C206.809 56.7715 206.883 56.8555 206.988 56.9336C207.094 57.0078 207.242 57.0781 207.434 57.1445C207.625 57.2109 207.869 57.2773 208.166 57.3438C208.686 57.4609 209.113 57.6016 209.449 57.7656C209.785 57.9297 210.035 58.1309 210.199 58.3691C210.363 58.6074 210.445 58.8965 210.445 59.2363C210.445 59.5137 210.387 59.7676 210.27 59.998C210.156 60.2285 209.99 60.4277 209.771 60.5957C209.557 60.7598 209.299 60.8887 208.998 60.9824C208.701 61.0723 208.367 61.1172 207.996 61.1172C207.438 61.1172 206.965 61.0176 206.578 60.8184C206.191 60.6191 205.898 60.3613 205.699 60.0449C205.5 59.7285 205.4 59.3945 205.4 59.043H206.49C206.506 59.3398 206.592 59.5762 206.748 59.752C206.904 59.9238 207.096 60.0469 207.322 60.1211C207.549 60.1914 207.773 60.2266 207.996 60.2266C208.293 60.2266 208.541 60.1875 208.74 60.1094C208.943 60.0312 209.098 59.9238 209.203 59.7871C209.309 59.6504 209.361 59.4941 209.361 59.3184ZM211.887 60.4258C211.887 60.2422 211.943 60.0879 212.057 59.9629C212.174 59.834 212.342 59.7695 212.561 59.7695C212.779 59.7695 212.945 59.834 213.059 59.9629C213.176 60.0879 213.234 60.2422 213.234 60.4258C213.234 60.6055 213.176 60.7578 213.059 60.8828C212.945 61.0078 212.779 61.0703 212.561 61.0703C212.342 61.0703 212.174 61.0078 212.057 60.8828C211.943 60.7578 211.887 60.6055 211.887 60.4258Z" fill="#091E25"/>
<path d="M332.791 79H345.221V-0.100005H336.859C334.034 7.584 330.305 9.84399 319.796 9.84399V18.658H332.791V79Z" fill="white"/>
</g>
<defs>
<clipPath id="clip0_0_1">
<rect width="375" height="919" fill="white" transform="translate(-15 -103)"/>
</clipPath>
</defs>
</svg>
