<svg width="345" height="79" viewBox="0 0 345 79" fill="none" xmlns="http://www.w3.org/2000/svg">
<g clip-path="url(#clip0_0_1)">
<rect width="375" height="919" transform="translate(-15 -573)" fill="white"/>
<rect width="345" height="79" rx="10" fill="#FABEC6"/>
<path d="M28.7811 38.1458C28.4894 37.5312 27.8644 37.1042 27.1353 37.1042H24.7915V36.0625H31.0415V37.1042H29.3436C29.5936 37.4062 29.7811 37.7604 29.8905 38.1458H31.0415V39.1875H29.9894C29.8592 40.6458 28.63 41.7917 27.1353 41.7917H26.755L30.2603 45.4375H28.8175L25.3123 41.7917V40.75H27.1353C28.0519 40.75 28.8123 40.0729 28.9373 39.1875H24.7915V38.1458H28.7811Z" fill="white"/>
<path d="M30.625 28.0417H24.375V30.1251H30.625V28.0417ZM34.8229 34.698L36.3021 33.2188C35.8542 32.6876 35.3646 32.1876 34.8333 31.7501L33.3542 33.2292C31.7396 31.9376 29.7083 31.1667 27.5 31.1667C22.3229 31.1667 18.125 35.3647 18.125 40.5417C18.125 45.7188 22.3125 49.9167 27.5 49.9167C32.6875 49.9167 36.875 45.7188 36.875 40.5417C36.875 38.3334 36.1042 36.3022 34.8229 34.698ZM27.5 47.8334C23.4688 47.8334 20.2083 44.573 20.2083 40.5417C20.2083 36.5105 23.4688 33.2501 27.5 33.2501C31.5312 33.2501 34.7917 36.5105 34.7917 40.5417C34.7917 44.573 31.5312 47.8334 27.5 47.8334Z" fill="white"/>
<path d="M58.7646 24.4521H56.2285V22.8525H58.7646C59.1566 22.8525 59.4756 22.7887 59.7217 22.6611C59.9678 22.529 60.1478 22.3467 60.2617 22.1143C60.3757 21.8818 60.4326 21.6198 60.4326 21.3281C60.4326 21.0319 60.3757 20.7562 60.2617 20.501C60.1478 20.2458 59.9678 20.0407 59.7217 19.8857C59.4756 19.7308 59.1566 19.6533 58.7646 19.6533H56.9395V28H54.8887V18.0469H58.7646C59.5439 18.0469 60.2116 18.1882 60.7676 18.4707C61.3281 18.7487 61.7565 19.1338 62.0527 19.626C62.349 20.1182 62.4971 20.681 62.4971 21.3145C62.4971 21.957 62.349 22.513 62.0527 22.9824C61.7565 23.4518 61.3281 23.8141 60.7676 24.0693C60.2116 24.3245 59.5439 24.4521 58.7646 24.4521ZM67.6992 26.332V23.0371C67.6992 22.8001 67.6605 22.5973 67.583 22.4287C67.5055 22.2555 67.3848 22.1211 67.2207 22.0254C67.0612 21.9297 66.8538 21.8818 66.5986 21.8818C66.3799 21.8818 66.1908 21.9206 66.0312 21.998C65.8717 22.071 65.7487 22.1781 65.6621 22.3193C65.5755 22.4561 65.5322 22.6178 65.5322 22.8047H63.5635C63.5635 22.4902 63.6364 22.1917 63.7822 21.9092C63.9281 21.6266 64.14 21.3783 64.418 21.1641C64.696 20.9453 65.0264 20.7744 65.4092 20.6514C65.7965 20.5283 66.2295 20.4668 66.708 20.4668C67.2822 20.4668 67.7926 20.5625 68.2393 20.7539C68.6859 20.9453 69.0368 21.2324 69.292 21.6152C69.5518 21.998 69.6816 22.4766 69.6816 23.0508V26.2158C69.6816 26.6214 69.7067 26.9541 69.7568 27.2139C69.807 27.4691 69.8799 27.6924 69.9756 27.8838V28H67.9863C67.8906 27.7995 67.8177 27.5488 67.7676 27.248C67.722 26.9427 67.6992 26.6374 67.6992 26.332ZM67.959 23.4951L67.9727 24.6094H66.8721C66.6123 24.6094 66.3867 24.639 66.1953 24.6982C66.0039 24.7575 65.8467 24.8418 65.7236 24.9512C65.6006 25.056 65.5094 25.179 65.4502 25.3203C65.3955 25.4616 65.3682 25.6165 65.3682 25.7852C65.3682 25.9538 65.4069 26.1064 65.4844 26.2432C65.5618 26.3753 65.6735 26.4801 65.8193 26.5576C65.9652 26.6305 66.1361 26.667 66.332 26.667C66.6283 26.667 66.8857 26.6077 67.1045 26.4893C67.3232 26.3708 67.4919 26.2249 67.6104 26.0518C67.7334 25.8786 67.7972 25.7145 67.8018 25.5596L68.3213 26.3936C68.2484 26.5804 68.1481 26.7741 68.0205 26.9746C67.8975 27.1751 67.7402 27.3643 67.5488 27.542C67.3574 27.7152 67.1273 27.8587 66.8584 27.9727C66.5895 28.082 66.2705 28.1367 65.9014 28.1367C65.432 28.1367 65.0059 28.0433 64.623 27.8564C64.2448 27.665 63.944 27.403 63.7207 27.0703C63.502 26.7331 63.3926 26.3503 63.3926 25.9219C63.3926 25.5345 63.4655 25.1904 63.6113 24.8896C63.7572 24.5889 63.9714 24.3359 64.2539 24.1309C64.541 23.9212 64.8988 23.764 65.3271 23.6592C65.7555 23.5498 66.2523 23.4951 66.8174 23.4951H67.959ZM73.2842 27.166L75.2461 20.6035H77.3584L74.3848 29.1143C74.321 29.3011 74.2344 29.5016 74.125 29.7158C74.0202 29.93 73.8766 30.1328 73.6943 30.3242C73.5166 30.5202 73.291 30.6797 73.0176 30.8027C72.7487 30.9258 72.4183 30.9873 72.0264 30.9873C71.8395 30.9873 71.6868 30.9759 71.5684 30.9531C71.4499 30.9303 71.3086 30.8984 71.1445 30.8574V29.415C71.1947 29.415 71.2471 29.415 71.3018 29.415C71.3564 29.4196 71.4089 29.4219 71.459 29.4219C71.7188 29.4219 71.9307 29.3923 72.0947 29.333C72.2588 29.2738 72.391 29.1826 72.4912 29.0596C72.5915 28.9411 72.6712 28.7861 72.7305 28.5947L73.2842 27.166ZM72.4639 20.6035L74.0703 25.9629L74.3506 28.0479L73.0107 28.1914L70.3516 20.6035H72.4639ZM88.3096 18.0469V19.1064L84.4609 28H82.3828L86.2314 19.585H81.2754V18.0469H88.3096ZM91.4404 23.4678L89.8682 23.0918L90.4355 18.0469H96.0273V19.6396H92.0557L91.8096 21.8477C91.9417 21.7702 92.1423 21.6882 92.4111 21.6016C92.68 21.5104 92.9808 21.4648 93.3135 21.4648C93.7965 21.4648 94.2249 21.54 94.5986 21.6904C94.9723 21.8408 95.2891 22.0596 95.5488 22.3467C95.8132 22.6338 96.0137 22.9847 96.1504 23.3994C96.2871 23.8141 96.3555 24.2835 96.3555 24.8076C96.3555 25.2497 96.2871 25.6712 96.1504 26.0723C96.0137 26.4688 95.8063 26.8242 95.5283 27.1387C95.2503 27.4486 94.9017 27.6924 94.4824 27.8701C94.0632 28.0479 93.5664 28.1367 92.9922 28.1367C92.5638 28.1367 92.1491 28.0729 91.748 27.9453C91.3516 27.8177 90.9938 27.6286 90.6748 27.3779C90.3604 27.1273 90.1074 26.8242 89.916 26.4688C89.7292 26.1087 89.6312 25.6986 89.6221 25.2383H91.5771C91.6045 25.5208 91.6774 25.7646 91.7959 25.9697C91.9189 26.1702 92.0807 26.3252 92.2812 26.4346C92.4818 26.5439 92.7165 26.5986 92.9854 26.5986C93.236 26.5986 93.4502 26.5508 93.6279 26.4551C93.8057 26.3594 93.9492 26.2272 94.0586 26.0586C94.168 25.8854 94.2477 25.6849 94.2979 25.457C94.3525 25.2246 94.3799 24.974 94.3799 24.7051C94.3799 24.4362 94.348 24.1924 94.2842 23.9736C94.2204 23.7549 94.1224 23.5658 93.9902 23.4062C93.8581 23.2467 93.6895 23.1237 93.4844 23.0371C93.2839 22.9505 93.0492 22.9072 92.7803 22.9072C92.4157 22.9072 92.1331 22.9642 91.9326 23.0781C91.7367 23.1921 91.5726 23.3219 91.4404 23.4678ZM97.5996 20.4873V19.9609C97.5996 19.5827 97.6816 19.2386 97.8457 18.9287C98.0098 18.6188 98.2513 18.3704 98.5703 18.1836C98.8893 17.9967 99.2812 17.9033 99.7461 17.9033C100.225 17.9033 100.623 17.9967 100.942 18.1836C101.266 18.3704 101.507 18.6188 101.667 18.9287C101.831 19.2386 101.913 19.5827 101.913 19.9609V20.4873C101.913 20.8564 101.831 21.196 101.667 21.5059C101.507 21.8158 101.268 22.0641 100.949 22.251C100.63 22.4378 100.236 22.5312 99.7666 22.5312C99.2926 22.5312 98.8939 22.4378 98.5703 22.251C98.2513 22.0641 98.0098 21.8158 97.8457 21.5059C97.6816 21.196 97.5996 20.8564 97.5996 20.4873ZM98.9053 19.9609V20.4873C98.9053 20.6468 98.9349 20.7995 98.9941 20.9453C99.0579 21.0866 99.1536 21.2028 99.2812 21.2939C99.4134 21.3805 99.5729 21.4238 99.7598 21.4238C99.9557 21.4238 100.115 21.3805 100.238 21.2939C100.361 21.2028 100.452 21.0866 100.512 20.9453C100.571 20.7995 100.601 20.6468 100.601 20.4873V19.9609C100.601 19.7923 100.569 19.6374 100.505 19.4961C100.446 19.3503 100.352 19.234 100.225 19.1475C100.102 19.0563 99.9421 19.0107 99.7461 19.0107C99.5638 19.0107 99.4089 19.0563 99.2812 19.1475C99.1536 19.234 99.0579 19.3503 98.9941 19.4961C98.9349 19.6374 98.9053 19.7923 98.9053 19.9609ZM102.357 26.0859V25.5596C102.357 25.1859 102.439 24.8441 102.604 24.5342C102.772 24.2243 103.016 23.9759 103.335 23.7891C103.659 23.6022 104.055 23.5088 104.524 23.5088C104.998 23.5088 105.395 23.6022 105.714 23.7891C106.033 23.9759 106.274 24.2243 106.438 24.5342C106.603 24.8441 106.685 25.1859 106.685 25.5596V26.0859C106.685 26.4596 106.603 26.8014 106.438 27.1113C106.279 27.4212 106.04 27.6696 105.721 27.8564C105.402 28.0433 105.007 28.1367 104.538 28.1367C104.064 28.1367 103.665 28.0433 103.342 27.8564C103.018 27.6696 102.772 27.4212 102.604 27.1113C102.439 26.8014 102.357 26.4596 102.357 26.0859ZM103.67 25.5596V26.0859C103.67 26.25 103.706 26.4049 103.779 26.5508C103.852 26.6966 103.952 26.8128 104.08 26.8994C104.212 26.986 104.365 27.0293 104.538 27.0293C104.757 27.0293 104.928 26.986 105.051 26.8994C105.174 26.8128 105.258 26.6966 105.304 26.5508C105.354 26.4049 105.379 26.25 105.379 26.0859V25.5596C105.379 25.3955 105.347 25.2428 105.283 25.1016C105.219 24.9557 105.124 24.8395 104.996 24.7529C104.873 24.6618 104.716 24.6162 104.524 24.6162C104.333 24.6162 104.174 24.6618 104.046 24.7529C103.923 24.8395 103.829 24.9557 103.766 25.1016C103.702 25.2428 103.67 25.3955 103.67 25.5596ZM105.01 19.4688L100.149 27.248L99.1924 26.7422L104.053 18.9629L105.01 19.4688ZM113.623 20.6035V28H111.647V20.6035H113.623ZM111.524 18.6758C111.524 18.3887 111.625 18.1517 111.825 17.9648C112.026 17.778 112.295 17.6846 112.632 17.6846C112.965 17.6846 113.231 17.778 113.432 17.9648C113.637 18.1517 113.739 18.3887 113.739 18.6758C113.739 18.9629 113.637 19.1999 113.432 19.3867C113.231 19.5736 112.965 19.667 112.632 19.667C112.295 19.667 112.026 19.5736 111.825 19.3867C111.625 19.1999 111.524 18.9629 111.524 18.6758ZM117.178 22.1826V28H115.209V20.6035H117.055L117.178 22.1826ZM116.891 24.042H116.357C116.357 23.4951 116.428 23.0029 116.569 22.5654C116.711 22.1234 116.909 21.7474 117.164 21.4375C117.419 21.123 117.722 20.8838 118.073 20.7197C118.429 20.5511 118.825 20.4668 119.263 20.4668C119.609 20.4668 119.926 20.5169 120.213 20.6172C120.5 20.7174 120.746 20.877 120.951 21.0957C121.161 21.3145 121.32 21.6038 121.43 21.9639C121.544 22.3239 121.601 22.7637 121.601 23.2832V28H119.618V23.2764C119.618 22.9482 119.573 22.693 119.481 22.5107C119.39 22.3285 119.256 22.2008 119.078 22.1279C118.905 22.0505 118.691 22.0117 118.436 22.0117C118.171 22.0117 117.941 22.0641 117.745 22.1689C117.554 22.2738 117.394 22.4196 117.267 22.6064C117.144 22.7887 117.05 23.0029 116.986 23.249C116.923 23.4951 116.891 23.7594 116.891 24.042ZM133.311 26.4619V28H126.502V26.6875L129.722 23.2354C130.045 22.8753 130.3 22.5586 130.487 22.2852C130.674 22.0072 130.809 21.7588 130.891 21.54C130.977 21.3167 131.021 21.1048 131.021 20.9043C131.021 20.6035 130.97 20.346 130.87 20.1318C130.77 19.9131 130.622 19.7445 130.426 19.626C130.234 19.5075 129.997 19.4482 129.715 19.4482C129.414 19.4482 129.154 19.5212 128.936 19.667C128.721 19.8128 128.557 20.0156 128.443 20.2754C128.334 20.5352 128.279 20.8291 128.279 21.1572H126.304C126.304 20.5648 126.445 20.0225 126.728 19.5303C127.01 19.0335 127.409 18.6393 127.924 18.3477C128.439 18.0514 129.049 17.9033 129.756 17.9033C130.453 17.9033 131.041 18.0173 131.52 18.2451C132.003 18.4684 132.367 18.792 132.613 19.2158C132.864 19.6351 132.989 20.1364 132.989 20.7197C132.989 21.0479 132.937 21.3691 132.832 21.6836C132.727 21.9935 132.577 22.3034 132.381 22.6133C132.189 22.9186 131.957 23.2285 131.684 23.543C131.41 23.8574 131.107 24.1833 130.774 24.5205L129.045 26.4619H133.311ZM138.506 22.9551V24.5H134.644V22.9551H138.506ZM147.037 24.2812V25.8262H139.866L139.771 24.6299L143.92 18.0469H145.485L143.79 20.8838L141.726 24.2812H147.037ZM145.909 18.0469V28H143.94V18.0469H145.909ZM153.784 26.0859L155.322 20.6035H156.573L156.17 22.7568L154.632 28H153.586L153.784 26.0859ZM153.005 20.6035L154.105 26.0791L154.208 28H152.978L151.104 20.6035H153.005ZM157.981 25.9902L159.055 20.6035H160.962L159.089 28H157.865L157.981 25.9902ZM156.744 20.6035L158.275 26.0449L158.487 28H157.435L155.896 22.7637L155.507 20.6035H156.744ZM165.357 28.1367C164.783 28.1367 164.268 28.0456 163.812 27.8633C163.357 27.6764 162.969 27.4189 162.65 27.0908C162.336 26.7627 162.094 26.3822 161.926 25.9492C161.757 25.5117 161.673 25.0469 161.673 24.5547V24.2812C161.673 23.7207 161.753 23.208 161.912 22.7432C162.072 22.2783 162.299 21.875 162.596 21.5332C162.896 21.1914 163.261 20.9294 163.689 20.7471C164.118 20.5602 164.601 20.4668 165.139 20.4668C165.663 20.4668 166.128 20.5534 166.533 20.7266C166.939 20.8997 167.278 21.1458 167.552 21.4648C167.83 21.7839 168.039 22.1667 168.181 22.6133C168.322 23.0553 168.393 23.5475 168.393 24.0898V24.9102H162.514V23.5977H166.458V23.4473C166.458 23.1738 166.408 22.93 166.308 22.7158C166.212 22.4971 166.066 22.3239 165.87 22.1963C165.674 22.0687 165.424 22.0049 165.118 22.0049C164.858 22.0049 164.635 22.0618 164.448 22.1758C164.261 22.2897 164.109 22.4492 163.99 22.6543C163.876 22.8594 163.79 23.1009 163.73 23.3789C163.676 23.6523 163.648 23.9531 163.648 24.2812V24.5547C163.648 24.8509 163.689 25.1243 163.771 25.375C163.858 25.6257 163.979 25.8421 164.134 26.0244C164.293 26.2067 164.485 26.348 164.708 26.4482C164.936 26.5485 165.193 26.5986 165.48 26.5986C165.836 26.5986 166.166 26.5303 166.472 26.3936C166.782 26.2523 167.048 26.0404 167.271 25.7578L168.229 26.7969C168.074 27.0202 167.862 27.2344 167.593 27.4395C167.328 27.6445 167.009 27.8132 166.636 27.9453C166.262 28.0729 165.836 28.1367 165.357 28.1367ZM172.918 28.1367C172.344 28.1367 171.829 28.0456 171.373 27.8633C170.917 27.6764 170.53 27.4189 170.211 27.0908C169.896 26.7627 169.655 26.3822 169.486 25.9492C169.318 25.5117 169.233 25.0469 169.233 24.5547V24.2812C169.233 23.7207 169.313 23.208 169.473 22.7432C169.632 22.2783 169.86 21.875 170.156 21.5332C170.457 21.1914 170.822 20.9294 171.25 20.7471C171.678 20.5602 172.161 20.4668 172.699 20.4668C173.223 20.4668 173.688 20.5534 174.094 20.7266C174.499 20.8997 174.839 21.1458 175.112 21.4648C175.39 21.7839 175.6 22.1667 175.741 22.6133C175.882 23.0553 175.953 23.5475 175.953 24.0898V24.9102H170.074V23.5977H174.019V23.4473C174.019 23.1738 173.968 22.93 173.868 22.7158C173.772 22.4971 173.627 22.3239 173.431 22.1963C173.235 22.0687 172.984 22.0049 172.679 22.0049C172.419 22.0049 172.196 22.0618 172.009 22.1758C171.822 22.2897 171.669 22.4492 171.551 22.6543C171.437 22.8594 171.35 23.1009 171.291 23.3789C171.236 23.6523 171.209 23.9531 171.209 24.2812V24.5547C171.209 24.8509 171.25 25.1243 171.332 25.375C171.419 25.6257 171.539 25.8421 171.694 26.0244C171.854 26.2067 172.045 26.348 172.269 26.4482C172.496 26.5485 172.754 26.5986 173.041 26.5986C173.396 26.5986 173.727 26.5303 174.032 26.3936C174.342 26.2523 174.609 26.0404 174.832 25.7578L175.789 26.7969C175.634 27.0202 175.422 27.2344 175.153 27.4395C174.889 27.6445 174.57 27.8132 174.196 27.9453C173.823 28.0729 173.396 28.1367 172.918 28.1367ZM179.043 17.4932V28H177.074V17.4932H179.043ZM183.705 20.6035L180.492 24.2676L178.77 26.0107L178.052 24.5889L179.419 22.8525L181.34 20.6035H183.705ZM181.661 28L179.474 24.582L180.834 23.3926L183.931 28H181.661ZM188.552 25.9561C188.552 25.8148 188.511 25.6872 188.429 25.5732C188.347 25.4593 188.194 25.3545 187.971 25.2588C187.752 25.1585 187.435 25.0674 187.021 24.9854C186.647 24.9033 186.298 24.8008 185.975 24.6777C185.656 24.5501 185.378 24.3975 185.141 24.2197C184.908 24.042 184.726 23.8324 184.594 23.5908C184.462 23.3447 184.396 23.0645 184.396 22.75C184.396 22.4401 184.462 22.1484 184.594 21.875C184.73 21.6016 184.924 21.36 185.175 21.1504C185.43 20.9362 185.74 20.7699 186.104 20.6514C186.474 20.5283 186.888 20.4668 187.349 20.4668C187.991 20.4668 188.543 20.5693 189.003 20.7744C189.468 20.9795 189.823 21.262 190.069 21.6221C190.32 21.9775 190.445 22.3831 190.445 22.8389H188.477C188.477 22.6475 188.436 22.4766 188.354 22.3262C188.276 22.1712 188.153 22.0505 187.984 21.9639C187.82 21.8727 187.606 21.8271 187.342 21.8271C187.123 21.8271 186.934 21.8659 186.774 21.9434C186.615 22.0163 186.492 22.1165 186.405 22.2441C186.323 22.3672 186.282 22.5039 186.282 22.6543C186.282 22.7682 186.305 22.8708 186.351 22.9619C186.401 23.0485 186.48 23.1283 186.59 23.2012C186.699 23.2741 186.84 23.3424 187.014 23.4062C187.191 23.4655 187.41 23.5202 187.67 23.5703C188.203 23.6797 188.679 23.8232 189.099 24.001C189.518 24.1742 189.851 24.4111 190.097 24.7119C190.343 25.0081 190.466 25.3978 190.466 25.8809C190.466 26.209 190.393 26.5098 190.247 26.7832C190.101 27.0566 189.892 27.2959 189.618 27.501C189.345 27.7015 189.017 27.8587 188.634 27.9727C188.256 28.082 187.829 28.1367 187.355 28.1367C186.667 28.1367 186.084 28.0137 185.605 27.7676C185.132 27.5215 184.771 27.2093 184.525 26.8311C184.284 26.4482 184.163 26.0563 184.163 25.6553H186.029C186.038 25.9242 186.107 26.1406 186.234 26.3047C186.367 26.4688 186.533 26.5872 186.733 26.6602C186.938 26.7331 187.16 26.7695 187.396 26.7695C187.652 26.7695 187.864 26.7354 188.032 26.667C188.201 26.5941 188.328 26.4984 188.415 26.3799C188.506 26.2568 188.552 26.1156 188.552 25.9561Z" fill="#091E25"/>
<path d="M58.1367 43.6543H55.8574V42.7344H58.1367C58.5781 42.7344 58.9355 42.6641 59.209 42.5234C59.4824 42.3828 59.6816 42.1875 59.8066 41.9375C59.9355 41.6875 60 41.4023 60 41.082C60 40.7891 59.9355 40.5137 59.8066 40.2559C59.6816 39.998 59.4824 39.791 59.209 39.6348C58.9355 39.4746 58.5781 39.3945 58.1367 39.3945H56.1211V47H54.9902V38.4688H58.1367C58.7812 38.4688 59.3262 38.5801 59.7715 38.8027C60.2168 39.0254 60.5547 39.334 60.7852 39.7285C61.0156 40.1191 61.1309 40.5664 61.1309 41.0703C61.1309 41.6172 61.0156 42.084 60.7852 42.4707C60.5547 42.8574 60.2168 43.1523 59.7715 43.3555C59.3262 43.5547 58.7812 43.6543 58.1367 43.6543ZM66.0645 45.916V42.6523C66.0645 42.4023 66.0137 42.1855 65.9121 42.002C65.8145 41.8145 65.666 41.6699 65.4668 41.5684C65.2676 41.4668 65.0215 41.416 64.7285 41.416C64.4551 41.416 64.2148 41.4629 64.0078 41.5566C63.8047 41.6504 63.6445 41.7734 63.5273 41.9258C63.4141 42.0781 63.3574 42.2422 63.3574 42.418H62.2734C62.2734 42.1914 62.332 41.9668 62.4492 41.7441C62.5664 41.5215 62.7344 41.3203 62.9531 41.1406C63.1758 40.957 63.4414 40.8125 63.75 40.707C64.0625 40.5977 64.4102 40.543 64.793 40.543C65.2539 40.543 65.6602 40.6211 66.0117 40.7773C66.3672 40.9336 66.6445 41.1699 66.8438 41.4863C67.0469 41.7988 67.1484 42.1914 67.1484 42.6641V45.6172C67.1484 45.8281 67.166 46.0527 67.2012 46.291C67.2402 46.5293 67.2969 46.7344 67.3711 46.9062V47H66.2402C66.1855 46.875 66.1426 46.709 66.1113 46.502C66.0801 46.291 66.0645 46.0957 66.0645 45.916ZM66.252 43.1562L66.2637 43.918H65.168C64.8594 43.918 64.584 43.9434 64.3418 43.9941C64.0996 44.041 63.8965 44.1133 63.7324 44.2109C63.5684 44.3086 63.4434 44.4316 63.3574 44.5801C63.2715 44.7246 63.2285 44.8945 63.2285 45.0898C63.2285 45.2891 63.2734 45.4707 63.3633 45.6348C63.4531 45.7988 63.5879 45.9297 63.7676 46.0273C63.9512 46.1211 64.1758 46.168 64.4414 46.168C64.7734 46.168 65.0664 46.0977 65.3203 45.957C65.5742 45.8164 65.7754 45.6445 65.9238 45.4414C66.0762 45.2383 66.1582 45.041 66.1699 44.8496L66.6328 45.3711C66.6055 45.5352 66.5312 45.7168 66.4102 45.916C66.2891 46.1152 66.127 46.3066 65.9238 46.4902C65.7246 46.6699 65.4863 46.8203 65.209 46.9414C64.9355 47.0586 64.627 47.1172 64.2832 47.1172C63.8535 47.1172 63.4766 47.0332 63.1523 46.8652C62.832 46.6973 62.582 46.4727 62.4023 46.1914C62.2266 45.9062 62.1387 45.5879 62.1387 45.2363C62.1387 44.8965 62.2051 44.5977 62.3379 44.3398C62.4707 44.0781 62.6621 43.8613 62.9121 43.6895C63.1621 43.5137 63.4629 43.3809 63.8145 43.291C64.166 43.2012 64.5586 43.1562 64.9922 43.1562H66.252ZM70.541 46.3438L72.3047 40.6602H73.4648L70.9219 47.9785C70.8633 48.1348 70.7852 48.3027 70.6875 48.4824C70.5938 48.666 70.4727 48.8398 70.3242 49.0039C70.1758 49.168 69.9961 49.3008 69.7852 49.4023C69.5781 49.5078 69.3301 49.5605 69.041 49.5605C68.9551 49.5605 68.8457 49.5488 68.7129 49.5254C68.5801 49.502 68.4863 49.4824 68.4316 49.4668L68.4258 48.5879C68.457 48.5918 68.5059 48.5957 68.5723 48.5996C68.6426 48.6074 68.6914 48.6113 68.7188 48.6113C68.9648 48.6113 69.1738 48.5781 69.3457 48.5117C69.5176 48.4492 69.6621 48.3418 69.7793 48.1895C69.9004 48.041 70.0039 47.8359 70.0898 47.5742L70.541 46.3438ZM69.2461 40.6602L70.8926 45.582L71.1738 46.7246L70.3945 47.123L68.0625 40.6602H69.2461ZM80.0742 40.6602V41.4922H76.6465V40.6602H80.0742ZM77.8066 39.1191H78.8906V45.4297C78.8906 45.6445 78.9238 45.8066 78.9902 45.916C79.0566 46.0254 79.1426 46.0977 79.248 46.1328C79.3535 46.168 79.4668 46.1855 79.5879 46.1855C79.6777 46.1855 79.7715 46.1777 79.8691 46.1621C79.9707 46.1426 80.0469 46.127 80.0977 46.1152L80.1035 47C80.0176 47.0273 79.9043 47.0527 79.7637 47.0762C79.627 47.1035 79.4609 47.1172 79.2656 47.1172C79 47.1172 78.7559 47.0645 78.5332 46.959C78.3105 46.8535 78.1328 46.6777 78 46.4316C77.8711 46.1816 77.8066 45.8457 77.8066 45.4238V39.1191ZM82.4297 38V47H81.3457V38H82.4297ZM82.1719 43.5898L81.7207 43.5723C81.7246 43.1387 81.7891 42.7383 81.9141 42.3711C82.0391 42 82.2148 41.6777 82.4414 41.4043C82.668 41.1309 82.9375 40.9199 83.25 40.7715C83.5664 40.6191 83.916 40.543 84.2988 40.543C84.6113 40.543 84.8926 40.5859 85.1426 40.6719C85.3926 40.7539 85.6055 40.8867 85.7812 41.0703C85.9609 41.2539 86.0977 41.4922 86.1914 41.7852C86.2852 42.0742 86.332 42.4277 86.332 42.8457V47H85.2422V42.834C85.2422 42.502 85.1934 42.2363 85.0957 42.0371C84.998 41.834 84.8555 41.6875 84.668 41.5977C84.4805 41.5039 84.25 41.457 83.9766 41.457C83.707 41.457 83.4609 41.5137 83.2383 41.627C83.0195 41.7402 82.8301 41.8965 82.6699 42.0957C82.5137 42.2949 82.3906 42.5234 82.3008 42.7812C82.2148 43.0352 82.1719 43.3047 82.1719 43.5898ZM90.5859 47.1172C90.1445 47.1172 89.7441 47.043 89.3848 46.8945C89.0293 46.7422 88.7227 46.5293 88.4648 46.2559C88.2109 45.9824 88.0156 45.6582 87.8789 45.2832C87.7422 44.9082 87.6738 44.498 87.6738 44.0527V43.8066C87.6738 43.291 87.75 42.832 87.9023 42.4297C88.0547 42.0234 88.2617 41.6797 88.5234 41.3984C88.7852 41.1172 89.082 40.9043 89.4141 40.7598C89.7461 40.6152 90.0898 40.543 90.4453 40.543C90.8984 40.543 91.2891 40.6211 91.6172 40.7773C91.9492 40.9336 92.2207 41.1523 92.4316 41.4336C92.6426 41.7109 92.7988 42.0391 92.9004 42.418C93.002 42.793 93.0527 43.2031 93.0527 43.6484V44.1348H88.3184V43.25H91.9688V43.168C91.9531 42.8867 91.8945 42.6133 91.793 42.3477C91.6953 42.082 91.5391 41.8633 91.3242 41.6914C91.1094 41.5195 90.8164 41.4336 90.4453 41.4336C90.1992 41.4336 89.9727 41.4863 89.7656 41.5918C89.5586 41.6934 89.3809 41.8457 89.2324 42.0488C89.084 42.252 88.9688 42.5 88.8867 42.793C88.8047 43.0859 88.7637 43.4238 88.7637 43.8066V44.0527C88.7637 44.3535 88.8047 44.6367 88.8867 44.9023C88.9727 45.1641 89.0957 45.3945 89.2559 45.5938C89.4199 45.793 89.6172 45.9492 89.8477 46.0625C90.082 46.1758 90.3477 46.2324 90.6445 46.2324C91.0273 46.2324 91.3516 46.1543 91.6172 45.998C91.8828 45.8418 92.1152 45.6328 92.3145 45.3711L92.9707 45.8926C92.834 46.0996 92.6602 46.2969 92.4492 46.4844C92.2383 46.6719 91.9785 46.8242 91.6699 46.9414C91.3652 47.0586 91.0039 47.1172 90.5859 47.1172ZM98.3789 41.6562V47H97.2949V40.6602H98.3496L98.3789 41.6562ZM100.359 40.625L100.354 41.6328C100.264 41.6133 100.178 41.6016 100.096 41.5977C100.018 41.5898 99.9277 41.5859 99.8262 41.5859C99.5762 41.5859 99.3555 41.625 99.1641 41.7031C98.9727 41.7812 98.8105 41.8906 98.6777 42.0312C98.5449 42.1719 98.4395 42.3398 98.3613 42.5352C98.2871 42.7266 98.2383 42.9375 98.2148 43.168L97.9102 43.3438C97.9102 42.9609 97.9473 42.6016 98.0215 42.2656C98.0996 41.9297 98.2188 41.6328 98.3789 41.375C98.5391 41.1133 98.7422 40.9102 98.9883 40.7656C99.2383 40.6172 99.5352 40.543 99.8789 40.543C99.957 40.543 100.047 40.5527 100.148 40.5723C100.25 40.5879 100.32 40.6055 100.359 40.625ZM103.875 47.1172C103.434 47.1172 103.033 47.043 102.674 46.8945C102.318 46.7422 102.012 46.5293 101.754 46.2559C101.5 45.9824 101.305 45.6582 101.168 45.2832C101.031 44.9082 100.963 44.498 100.963 44.0527V43.8066C100.963 43.291 101.039 42.832 101.191 42.4297C101.344 42.0234 101.551 41.6797 101.812 41.3984C102.074 41.1172 102.371 40.9043 102.703 40.7598C103.035 40.6152 103.379 40.543 103.734 40.543C104.188 40.543 104.578 40.6211 104.906 40.7773C105.238 40.9336 105.51 41.1523 105.721 41.4336C105.932 41.7109 106.088 42.0391 106.189 42.418C106.291 42.793 106.342 43.2031 106.342 43.6484V44.1348H101.607V43.25H105.258V43.168C105.242 42.8867 105.184 42.6133 105.082 42.3477C104.984 42.082 104.828 41.8633 104.613 41.6914C104.398 41.5195 104.105 41.4336 103.734 41.4336C103.488 41.4336 103.262 41.4863 103.055 41.5918C102.848 41.6934 102.67 41.8457 102.521 42.0488C102.373 42.252 102.258 42.5 102.176 42.793C102.094 43.0859 102.053 43.4238 102.053 43.8066V44.0527C102.053 44.3535 102.094 44.6367 102.176 44.9023C102.262 45.1641 102.385 45.3945 102.545 45.5938C102.709 45.793 102.906 45.9492 103.137 46.0625C103.371 46.1758 103.637 46.2324 103.934 46.2324C104.316 46.2324 104.641 46.1543 104.906 45.998C105.172 45.8418 105.404 45.6328 105.604 45.3711L106.26 45.8926C106.123 46.0996 105.949 46.2969 105.738 46.4844C105.527 46.6719 105.268 46.8242 104.959 46.9414C104.654 47.0586 104.293 47.1172 103.875 47.1172ZM108.686 41.9199V47H107.596V40.6602H108.627L108.686 41.9199ZM108.463 43.5898L107.959 43.5723C107.963 43.1387 108.02 42.7383 108.129 42.3711C108.238 42 108.4 41.6777 108.615 41.4043C108.83 41.1309 109.098 40.9199 109.418 40.7715C109.738 40.6191 110.109 40.543 110.531 40.543C110.828 40.543 111.102 40.5859 111.352 40.6719C111.602 40.7539 111.818 40.8848 112.002 41.0645C112.186 41.2441 112.328 41.4746 112.43 41.7559C112.531 42.0371 112.582 42.377 112.582 42.7754V47H111.498V42.8281C111.498 42.4961 111.441 42.2305 111.328 42.0312C111.219 41.832 111.062 41.6875 110.859 41.5977C110.656 41.5039 110.418 41.457 110.145 41.457C109.824 41.457 109.557 41.5137 109.342 41.627C109.127 41.7402 108.955 41.8965 108.826 42.0957C108.697 42.2949 108.604 42.5234 108.545 42.7812C108.49 43.0352 108.463 43.3047 108.463 43.5898ZM112.57 42.9922L111.844 43.2148C111.848 42.8672 111.904 42.5332 112.014 42.2129C112.127 41.8926 112.289 41.6074 112.5 41.3574C112.715 41.1074 112.979 40.9102 113.291 40.7656C113.604 40.6172 113.961 40.543 114.363 40.543C114.703 40.543 115.004 40.5879 115.266 40.6777C115.531 40.7676 115.754 40.9062 115.934 41.0938C116.117 41.2773 116.256 41.5137 116.35 41.8027C116.443 42.0918 116.49 42.4355 116.49 42.834V47H115.4V42.8223C115.4 42.4668 115.344 42.1914 115.23 41.9961C115.121 41.7969 114.965 41.6582 114.762 41.5801C114.562 41.498 114.324 41.457 114.047 41.457C113.809 41.457 113.598 41.498 113.414 41.5801C113.23 41.6621 113.076 41.7754 112.951 41.9199C112.826 42.0605 112.73 42.2227 112.664 42.4062C112.602 42.5898 112.57 42.7852 112.57 42.9922ZM121.869 45.916V42.6523C121.869 42.4023 121.818 42.1855 121.717 42.002C121.619 41.8145 121.471 41.6699 121.271 41.5684C121.072 41.4668 120.826 41.416 120.533 41.416C120.26 41.416 120.02 41.4629 119.812 41.5566C119.609 41.6504 119.449 41.7734 119.332 41.9258C119.219 42.0781 119.162 42.2422 119.162 42.418H118.078C118.078 42.1914 118.137 41.9668 118.254 41.7441C118.371 41.5215 118.539 41.3203 118.758 41.1406C118.98 40.957 119.246 40.8125 119.555 40.707C119.867 40.5977 120.215 40.543 120.598 40.543C121.059 40.543 121.465 40.6211 121.816 40.7773C122.172 40.9336 122.449 41.1699 122.648 41.4863C122.852 41.7988 122.953 42.1914 122.953 42.6641V45.6172C122.953 45.8281 122.971 46.0527 123.006 46.291C123.045 46.5293 123.102 46.7344 123.176 46.9062V47H122.045C121.99 46.875 121.947 46.709 121.916 46.502C121.885 46.291 121.869 46.0957 121.869 45.916ZM122.057 43.1562L122.068 43.918H120.973C120.664 43.918 120.389 43.9434 120.146 43.9941C119.904 44.041 119.701 44.1133 119.537 44.2109C119.373 44.3086 119.248 44.4316 119.162 44.5801C119.076 44.7246 119.033 44.8945 119.033 45.0898C119.033 45.2891 119.078 45.4707 119.168 45.6348C119.258 45.7988 119.393 45.9297 119.572 46.0273C119.756 46.1211 119.98 46.168 120.246 46.168C120.578 46.168 120.871 46.0977 121.125 45.957C121.379 45.8164 121.58 45.6445 121.729 45.4414C121.881 45.2383 121.963 45.041 121.975 44.8496L122.438 45.3711C122.41 45.5352 122.336 45.7168 122.215 45.916C122.094 46.1152 121.932 46.3066 121.729 46.4902C121.529 46.6699 121.291 46.8203 121.014 46.9414C120.74 47.0586 120.432 47.1172 120.088 47.1172C119.658 47.1172 119.281 47.0332 118.957 46.8652C118.637 46.6973 118.387 46.4727 118.207 46.1914C118.031 45.9062 117.943 45.5879 117.943 45.2363C117.943 44.8965 118.01 44.5977 118.143 44.3398C118.275 44.0781 118.467 43.8613 118.717 43.6895C118.967 43.5137 119.268 43.3809 119.619 43.291C119.971 43.2012 120.363 43.1562 120.797 43.1562H122.057ZM125.836 40.6602V47H124.746V40.6602H125.836ZM124.664 38.9785C124.664 38.8027 124.717 38.6543 124.822 38.5332C124.932 38.4121 125.092 38.3516 125.303 38.3516C125.51 38.3516 125.668 38.4121 125.777 38.5332C125.891 38.6543 125.947 38.8027 125.947 38.9785C125.947 39.1465 125.891 39.291 125.777 39.4121C125.668 39.5293 125.51 39.5879 125.303 39.5879C125.092 39.5879 124.932 39.5293 124.822 39.4121C124.717 39.291 124.664 39.1465 124.664 38.9785ZM128.66 42.0137V47H127.576V40.6602H128.602L128.66 42.0137ZM128.402 43.5898L127.951 43.5723C127.955 43.1387 128.02 42.7383 128.145 42.3711C128.27 42 128.445 41.6777 128.672 41.4043C128.898 41.1309 129.168 40.9199 129.48 40.7715C129.797 40.6191 130.146 40.543 130.529 40.543C130.842 40.543 131.123 40.5859 131.373 40.6719C131.623 40.7539 131.836 40.8867 132.012 41.0703C132.191 41.2539 132.328 41.4922 132.422 41.7852C132.516 42.0742 132.562 42.4277 132.562 42.8457V47H131.473V42.834C131.473 42.502 131.424 42.2363 131.326 42.0371C131.229 41.834 131.086 41.6875 130.898 41.5977C130.711 41.5039 130.48 41.457 130.207 41.457C129.938 41.457 129.691 41.5137 129.469 41.627C129.25 41.7402 129.061 41.8965 128.9 42.0957C128.744 42.2949 128.621 42.5234 128.531 42.7812C128.445 43.0352 128.402 43.3047 128.402 43.5898ZM135.387 40.6602V47H134.297V40.6602H135.387ZM134.215 38.9785C134.215 38.8027 134.268 38.6543 134.373 38.5332C134.482 38.4121 134.643 38.3516 134.854 38.3516C135.061 38.3516 135.219 38.4121 135.328 38.5332C135.441 38.6543 135.498 38.8027 135.498 38.9785C135.498 39.1465 135.441 39.291 135.328 39.4121C135.219 39.5293 135.061 39.5879 134.854 39.5879C134.643 39.5879 134.482 39.5293 134.373 39.4121C134.268 39.291 134.215 39.1465 134.215 38.9785ZM138.211 42.0137V47H137.127V40.6602H138.152L138.211 42.0137ZM137.953 43.5898L137.502 43.5723C137.506 43.1387 137.57 42.7383 137.695 42.3711C137.82 42 137.996 41.6777 138.223 41.4043C138.449 41.1309 138.719 40.9199 139.031 40.7715C139.348 40.6191 139.697 40.543 140.08 40.543C140.393 40.543 140.674 40.5859 140.924 40.6719C141.174 40.7539 141.387 40.8867 141.562 41.0703C141.742 41.2539 141.879 41.4922 141.973 41.7852C142.066 42.0742 142.113 42.4277 142.113 42.8457V47H141.023V42.834C141.023 42.502 140.975 42.2363 140.877 42.0371C140.779 41.834 140.637 41.6875 140.449 41.5977C140.262 41.5039 140.031 41.457 139.758 41.457C139.488 41.457 139.242 41.5137 139.02 41.627C138.801 41.7402 138.611 41.8965 138.451 42.0957C138.295 42.2949 138.172 42.5234 138.082 42.7812C137.996 43.0352 137.953 43.3047 137.953 43.5898ZM147.867 40.6602H148.852V46.8652C148.852 47.4238 148.738 47.9004 148.512 48.2949C148.285 48.6895 147.969 48.9883 147.562 49.1914C147.16 49.3984 146.695 49.502 146.168 49.502C145.949 49.502 145.691 49.4668 145.395 49.3965C145.102 49.3301 144.812 49.2148 144.527 49.0508C144.246 48.8906 144.01 48.6738 143.818 48.4004L144.387 47.7559C144.652 48.0762 144.93 48.2988 145.219 48.4238C145.512 48.5488 145.801 48.6113 146.086 48.6113C146.43 48.6113 146.727 48.5469 146.977 48.418C147.227 48.2891 147.42 48.0977 147.557 47.8438C147.697 47.5938 147.768 47.2852 147.768 46.918V42.0547L147.867 40.6602ZM143.502 43.9004V43.7773C143.502 43.293 143.559 42.8535 143.672 42.459C143.789 42.0605 143.955 41.7188 144.17 41.4336C144.389 41.1484 144.652 40.9297 144.961 40.7773C145.27 40.6211 145.617 40.543 146.004 40.543C146.402 40.543 146.75 40.6133 147.047 40.7539C147.348 40.8906 147.602 41.0918 147.809 41.3574C148.02 41.6191 148.186 41.9355 148.307 42.3066C148.428 42.6777 148.512 43.0977 148.559 43.5664V44.1055C148.516 44.5703 148.432 44.9883 148.307 45.3594C148.186 45.7305 148.02 46.0469 147.809 46.3086C147.602 46.5703 147.348 46.7715 147.047 46.9121C146.746 47.0488 146.395 47.1172 145.992 47.1172C145.613 47.1172 145.27 47.0371 144.961 46.877C144.656 46.7168 144.395 46.4922 144.176 46.2031C143.957 45.9141 143.789 45.5742 143.672 45.1836C143.559 44.7891 143.502 44.3613 143.502 43.9004ZM144.586 43.7773V43.9004C144.586 44.2168 144.617 44.5137 144.68 44.791C144.746 45.0684 144.846 45.3125 144.979 45.5234C145.115 45.7344 145.289 45.9004 145.5 46.0215C145.711 46.1387 145.963 46.1973 146.256 46.1973C146.615 46.1973 146.912 46.1211 147.146 45.9688C147.381 45.8164 147.566 45.6152 147.703 45.3652C147.844 45.1152 147.953 44.8438 148.031 44.5508V43.1387C147.988 42.9238 147.922 42.7168 147.832 42.5176C147.746 42.3145 147.633 42.1348 147.492 41.9785C147.355 41.8184 147.186 41.6914 146.982 41.5977C146.779 41.5039 146.541 41.457 146.268 41.457C145.971 41.457 145.715 41.5195 145.5 41.6445C145.289 41.7656 145.115 41.9336 144.979 42.1484C144.846 42.3594 144.746 42.6055 144.68 42.8867C144.617 43.1641 144.586 43.4609 144.586 43.7773ZM158.871 38.4688V39.0781L155.338 47H154.195L157.723 39.3594H153.105V38.4688H158.871ZM161.479 42.9395L160.611 42.7168L161.039 38.4688H165.416V39.4707H161.959L161.701 41.791C161.857 41.7012 162.055 41.6172 162.293 41.5391C162.535 41.4609 162.812 41.4219 163.125 41.4219C163.52 41.4219 163.873 41.4902 164.186 41.627C164.498 41.7598 164.764 41.9512 164.982 42.2012C165.205 42.4512 165.375 42.752 165.492 43.1035C165.609 43.4551 165.668 43.8477 165.668 44.2812C165.668 44.6914 165.611 45.0684 165.498 45.4121C165.389 45.7559 165.223 46.0566 165 46.3145C164.777 46.5684 164.496 46.7656 164.156 46.9062C163.82 47.0469 163.424 47.1172 162.967 47.1172C162.623 47.1172 162.297 47.0703 161.988 46.9766C161.684 46.8789 161.41 46.7324 161.168 46.5371C160.93 46.3379 160.734 46.0918 160.582 45.7988C160.434 45.502 160.34 45.1543 160.301 44.7559H161.332C161.379 45.0762 161.473 45.3457 161.613 45.5645C161.754 45.7832 161.938 45.9492 162.164 46.0625C162.395 46.1719 162.662 46.2266 162.967 46.2266C163.225 46.2266 163.453 46.1816 163.652 46.0918C163.852 46.002 164.02 45.873 164.156 45.7051C164.293 45.5371 164.396 45.334 164.467 45.0957C164.541 44.8574 164.578 44.5898 164.578 44.293C164.578 44.0234 164.541 43.7734 164.467 43.543C164.393 43.3125 164.281 43.1113 164.133 42.9395C163.988 42.7676 163.811 42.6348 163.6 42.541C163.389 42.4434 163.146 42.3945 162.873 42.3945C162.51 42.3945 162.234 42.4434 162.047 42.541C161.863 42.6387 161.674 42.7715 161.479 42.9395ZM166.764 40.5605V40.1094C166.764 39.7852 166.834 39.4902 166.975 39.2246C167.115 38.959 167.316 38.7461 167.578 38.5859C167.84 38.4258 168.15 38.3457 168.51 38.3457C168.877 38.3457 169.189 38.4258 169.447 38.5859C169.709 38.7461 169.91 38.959 170.051 39.2246C170.191 39.4902 170.262 39.7852 170.262 40.1094V40.5605C170.262 40.877 170.191 41.168 170.051 41.4336C169.914 41.6992 169.715 41.9121 169.453 42.0723C169.195 42.2324 168.885 42.3125 168.521 42.3125C168.158 42.3125 167.844 42.2324 167.578 42.0723C167.316 41.9121 167.115 41.6992 166.975 41.4336C166.834 41.168 166.764 40.877 166.764 40.5605ZM167.578 40.1094V40.5605C167.578 40.7402 167.611 40.9102 167.678 41.0703C167.748 41.2305 167.854 41.3613 167.994 41.4629C168.135 41.5605 168.311 41.6094 168.521 41.6094C168.732 41.6094 168.906 41.5605 169.043 41.4629C169.18 41.3613 169.281 41.2305 169.348 41.0703C169.414 40.9102 169.447 40.7402 169.447 40.5605V40.1094C169.447 39.9258 169.412 39.7539 169.342 39.5938C169.275 39.4297 169.172 39.2988 169.031 39.2012C168.895 39.0996 168.721 39.0488 168.51 39.0488C168.303 39.0488 168.129 39.0996 167.988 39.2012C167.852 39.2988 167.748 39.4297 167.678 39.5938C167.611 39.7539 167.578 39.9258 167.578 40.1094ZM170.918 45.3652V44.9082C170.918 44.5879 170.988 44.2949 171.129 44.0293C171.27 43.7637 171.471 43.5508 171.732 43.3906C171.994 43.2305 172.305 43.1504 172.664 43.1504C173.031 43.1504 173.344 43.2305 173.602 43.3906C173.863 43.5508 174.064 43.7637 174.205 44.0293C174.346 44.2949 174.416 44.5879 174.416 44.9082V45.3652C174.416 45.6855 174.346 45.9785 174.205 46.2441C174.068 46.5098 173.869 46.7227 173.607 46.8828C173.35 47.043 173.039 47.123 172.676 47.123C172.312 47.123 172 47.043 171.738 46.8828C171.477 46.7227 171.273 46.5098 171.129 46.2441C170.988 45.9785 170.918 45.6855 170.918 45.3652ZM171.732 44.9082V45.3652C171.732 45.5449 171.766 45.7168 171.832 45.8809C171.902 46.041 172.008 46.1719 172.148 46.2734C172.289 46.3711 172.465 46.4199 172.676 46.4199C172.887 46.4199 173.061 46.3711 173.197 46.2734C173.338 46.1719 173.441 46.041 173.508 45.8809C173.574 45.7207 173.607 45.5488 173.607 45.3652V44.9082C173.607 44.7246 173.572 44.5527 173.502 44.3926C173.436 44.2324 173.332 44.1035 173.191 44.0059C173.055 43.9043 172.879 43.8535 172.664 43.8535C172.457 43.8535 172.283 43.9043 172.143 44.0059C172.006 44.1035 171.902 44.2324 171.832 44.3926C171.766 44.5527 171.732 44.7246 171.732 44.9082ZM172.934 39.6816L168.768 46.3496L168.158 45.9629L172.324 39.2949L172.934 39.6816ZM180.346 45.875L181.975 40.6602H182.689L182.549 41.6973L180.891 47H180.193L180.346 45.875ZM179.25 40.6602L180.639 45.9336L180.738 47H180.006L178.166 40.6602H179.25ZM184.248 45.8926L185.572 40.6602H186.65L184.811 47H184.084L184.248 45.8926ZM182.848 40.6602L184.441 45.7871L184.623 47H183.932L182.227 41.6855L182.086 40.6602H182.848ZM188.941 40.6602V47H187.852V40.6602H188.941ZM187.77 38.9785C187.77 38.8027 187.822 38.6543 187.928 38.5332C188.037 38.4121 188.197 38.3516 188.408 38.3516C188.615 38.3516 188.773 38.4121 188.883 38.5332C188.996 38.6543 189.053 38.8027 189.053 38.9785C189.053 39.1465 188.996 39.291 188.883 39.4121C188.773 39.5293 188.615 39.5879 188.408 39.5879C188.197 39.5879 188.037 39.5293 187.928 39.4121C187.822 39.291 187.77 39.1465 187.77 38.9785ZM193.336 40.6602V41.4922H189.908V40.6602H193.336ZM191.068 39.1191H192.152V45.4297C192.152 45.6445 192.186 45.8066 192.252 45.916C192.318 46.0254 192.404 46.0977 192.51 46.1328C192.615 46.168 192.729 46.1855 192.85 46.1855C192.939 46.1855 193.033 46.1777 193.131 46.1621C193.232 46.1426 193.309 46.127 193.359 46.1152L193.365 47C193.279 47.0273 193.166 47.0527 193.025 47.0762C192.889 47.1035 192.723 47.1172 192.527 47.1172C192.262 47.1172 192.018 47.0645 191.795 46.959C191.572 46.8535 191.395 46.6777 191.262 46.4316C191.133 46.1816 191.068 45.8457 191.068 45.4238V39.1191ZM195.691 38V47H194.607V38H195.691ZM195.434 43.5898L194.982 43.5723C194.986 43.1387 195.051 42.7383 195.176 42.3711C195.301 42 195.477 41.6777 195.703 41.4043C195.93 41.1309 196.199 40.9199 196.512 40.7715C196.828 40.6191 197.178 40.543 197.561 40.543C197.873 40.543 198.154 40.5859 198.404 40.6719C198.654 40.7539 198.867 40.8867 199.043 41.0703C199.223 41.2539 199.359 41.4922 199.453 41.7852C199.547 42.0742 199.594 42.4277 199.594 42.8457V47H198.504V42.834C198.504 42.502 198.455 42.2363 198.357 42.0371C198.26 41.834 198.117 41.6875 197.93 41.5977C197.742 41.5039 197.512 41.457 197.238 41.457C196.969 41.457 196.723 41.5137 196.5 41.627C196.281 41.7402 196.092 41.8965 195.932 42.0957C195.775 42.2949 195.652 42.5234 195.562 42.7812C195.477 43.0352 195.434 43.3047 195.434 43.5898ZM202.395 40.6602V47H201.305V40.6602H202.395ZM201.223 38.9785C201.223 38.8027 201.275 38.6543 201.381 38.5332C201.49 38.4121 201.65 38.3516 201.861 38.3516C202.068 38.3516 202.227 38.4121 202.336 38.5332C202.449 38.6543 202.506 38.8027 202.506 38.9785C202.506 39.1465 202.449 39.291 202.336 39.4121C202.227 39.5293 202.068 39.5879 201.861 39.5879C201.65 39.5879 201.49 39.5293 201.381 39.4121C201.275 39.291 201.223 39.1465 201.223 38.9785ZM205.219 42.0137V47H204.135V40.6602H205.16L205.219 42.0137ZM204.961 43.5898L204.51 43.5723C204.514 43.1387 204.578 42.7383 204.703 42.3711C204.828 42 205.004 41.6777 205.23 41.4043C205.457 41.1309 205.727 40.9199 206.039 40.7715C206.355 40.6191 206.705 40.543 207.088 40.543C207.4 40.543 207.682 40.5859 207.932 40.6719C208.182 40.7539 208.395 40.8867 208.57 41.0703C208.75 41.2539 208.887 41.4922 208.98 41.7852C209.074 42.0742 209.121 42.4277 209.121 42.8457V47H208.031V42.834C208.031 42.502 207.982 42.2363 207.885 42.0371C207.787 41.834 207.645 41.6875 207.457 41.5977C207.27 41.5039 207.039 41.457 206.766 41.457C206.496 41.457 206.25 41.5137 206.027 41.627C205.809 41.7402 205.619 41.8965 205.459 42.0957C205.303 42.2949 205.18 42.5234 205.09 42.7812C205.004 43.0352 204.961 43.3047 204.961 43.5898ZM219.217 46.1094V47H213.633V46.2207L216.428 43.1094C216.771 42.7266 217.037 42.4023 217.225 42.1367C217.416 41.8672 217.549 41.627 217.623 41.416C217.701 41.2012 217.74 40.9824 217.74 40.7598C217.74 40.4785 217.682 40.2246 217.564 39.998C217.451 39.7676 217.283 39.584 217.061 39.4473C216.838 39.3105 216.568 39.2422 216.252 39.2422C215.873 39.2422 215.557 39.3164 215.303 39.4648C215.053 39.6094 214.865 39.8125 214.74 40.0742C214.615 40.3359 214.553 40.6367 214.553 40.9766H213.469C213.469 40.4961 213.574 40.0566 213.785 39.6582C213.996 39.2598 214.309 38.9434 214.723 38.709C215.137 38.4707 215.646 38.3516 216.252 38.3516C216.791 38.3516 217.252 38.4473 217.635 38.6387C218.018 38.8262 218.311 39.0918 218.514 39.4355C218.721 39.7754 218.824 40.1738 218.824 40.6309C218.824 40.8809 218.781 41.1348 218.695 41.3926C218.613 41.6465 218.498 41.9004 218.35 42.1543C218.205 42.4082 218.035 42.6582 217.84 42.9043C217.648 43.1504 217.443 43.3926 217.225 43.6309L214.939 46.1094H219.217ZM222.75 42.9277V43.8184H219.891V42.9277H222.75ZM229.459 44.1289V45.0195H223.295V44.3809L227.115 38.4688H228L227.051 40.1797L224.525 44.1289H229.459ZM228.27 38.4688V47H227.186V38.4688H228.27ZM56.4316 59.875L58.0605 54.6602H58.7754L58.6348 55.6973L56.9766 61H56.2793L56.4316 59.875ZM55.3359 54.6602L56.7246 59.9336L56.8242 61H56.0918L54.252 54.6602H55.3359ZM60.334 59.8926L61.6582 54.6602H62.7363L60.8965 61H60.1699L60.334 59.8926ZM58.9336 54.6602L60.5273 59.7871L60.709 61H60.0176L58.3125 55.6855L58.1719 54.6602H58.9336ZM66.4805 61.1172C66.0391 61.1172 65.6387 61.043 65.2793 60.8945C64.9238 60.7422 64.6172 60.5293 64.3594 60.2559C64.1055 59.9824 63.9102 59.6582 63.7734 59.2832C63.6367 58.9082 63.5684 58.498 63.5684 58.0527V57.8066C63.5684 57.291 63.6445 56.832 63.7969 56.4297C63.9492 56.0234 64.1562 55.6797 64.418 55.3984C64.6797 55.1172 64.9766 54.9043 65.3086 54.7598C65.6406 54.6152 65.9844 54.543 66.3398 54.543C66.793 54.543 67.1836 54.6211 67.5117 54.7773C67.8438 54.9336 68.1152 55.1523 68.3262 55.4336C68.5371 55.7109 68.6934 56.0391 68.7949 56.418C68.8965 56.793 68.9473 57.2031 68.9473 57.6484V58.1348H64.2129V57.25H67.8633V57.168C67.8477 56.8867 67.7891 56.6133 67.6875 56.3477C67.5898 56.082 67.4336 55.8633 67.2188 55.6914C67.0039 55.5195 66.7109 55.4336 66.3398 55.4336C66.0938 55.4336 65.8672 55.4863 65.6602 55.5918C65.4531 55.6934 65.2754 55.8457 65.127 56.0488C64.9785 56.252 64.8633 56.5 64.7812 56.793C64.6992 57.0859 64.6582 57.4238 64.6582 57.8066V58.0527C64.6582 58.3535 64.6992 58.6367 64.7812 58.9023C64.8672 59.1641 64.9902 59.3945 65.1504 59.5938C65.3145 59.793 65.5117 59.9492 65.7422 60.0625C65.9766 60.1758 66.2422 60.2324 66.5391 60.2324C66.9219 60.2324 67.2461 60.1543 67.5117 59.998C67.7773 59.8418 68.0098 59.6328 68.209 59.3711L68.8652 59.8926C68.7285 60.0996 68.5547 60.2969 68.3438 60.4844C68.1328 60.6719 67.873 60.8242 67.5645 60.9414C67.2598 61.0586 66.8984 61.1172 66.4805 61.1172ZM72.8438 61.1172C72.4023 61.1172 72.002 61.043 71.6426 60.8945C71.2871 60.7422 70.9805 60.5293 70.7227 60.2559C70.4688 59.9824 70.2734 59.6582 70.1367 59.2832C70 58.9082 69.9316 58.498 69.9316 58.0527V57.8066C69.9316 57.291 70.0078 56.832 70.1602 56.4297C70.3125 56.0234 70.5195 55.6797 70.7812 55.3984C71.043 55.1172 71.3398 54.9043 71.6719 54.7598C72.0039 54.6152 72.3477 54.543 72.7031 54.543C73.1562 54.543 73.5469 54.6211 73.875 54.7773C74.207 54.9336 74.4785 55.1523 74.6895 55.4336C74.9004 55.7109 75.0566 56.0391 75.1582 56.418C75.2598 56.793 75.3105 57.2031 75.3105 57.6484V58.1348H70.5762V57.25H74.2266V57.168C74.2109 56.8867 74.1523 56.6133 74.0508 56.3477C73.9531 56.082 73.7969 55.8633 73.582 55.6914C73.3672 55.5195 73.0742 55.4336 72.7031 55.4336C72.457 55.4336 72.2305 55.4863 72.0234 55.5918C71.8164 55.6934 71.6387 55.8457 71.4902 56.0488C71.3418 56.252 71.2266 56.5 71.1445 56.793C71.0625 57.0859 71.0215 57.4238 71.0215 57.8066V58.0527C71.0215 58.3535 71.0625 58.6367 71.1445 58.9023C71.2305 59.1641 71.3535 59.3945 71.5137 59.5938C71.6777 59.793 71.875 59.9492 72.1055 60.0625C72.3398 60.1758 72.6055 60.2324 72.9023 60.2324C73.2852 60.2324 73.6094 60.1543 73.875 59.998C74.1406 59.8418 74.373 59.6328 74.5723 59.3711L75.2285 59.8926C75.0918 60.0996 74.918 60.2969 74.707 60.4844C74.4961 60.6719 74.2363 60.8242 73.9277 60.9414C73.623 61.0586 73.2617 61.1172 72.8438 61.1172ZM77.666 52V61H76.5762V52H77.666ZM81.5391 54.6602L78.7734 57.6191L77.2266 59.2246L77.1387 58.0703L78.2461 56.7461L80.2148 54.6602H81.5391ZM80.5488 61L78.2871 57.9766L78.8496 57.0098L81.8262 61H80.5488ZM86.3496 59.3184C86.3496 59.1621 86.3145 59.0176 86.2441 58.8848C86.1777 58.748 86.0391 58.625 85.8281 58.5156C85.6211 58.4023 85.3086 58.3047 84.8906 58.2227C84.5391 58.1484 84.2207 58.0605 83.9355 57.959C83.6543 57.8574 83.4141 57.7344 83.2148 57.5898C83.0195 57.4453 82.8691 57.2754 82.7637 57.0801C82.6582 56.8848 82.6055 56.6562 82.6055 56.3945C82.6055 56.1445 82.6602 55.9082 82.7695 55.6855C82.8828 55.4629 83.041 55.2656 83.2441 55.0938C83.4512 54.9219 83.6992 54.7871 83.9883 54.6895C84.2773 54.5918 84.5996 54.543 84.9551 54.543C85.4629 54.543 85.8965 54.6328 86.2559 54.8125C86.6152 54.9922 86.8906 55.2324 87.082 55.5332C87.2734 55.8301 87.3691 56.1602 87.3691 56.5234H86.2852C86.2852 56.3477 86.2324 56.1777 86.127 56.0137C86.0254 55.8457 85.875 55.707 85.6758 55.5977C85.4805 55.4883 85.2402 55.4336 84.9551 55.4336C84.6543 55.4336 84.4102 55.4805 84.2227 55.5742C84.0391 55.6641 83.9043 55.7793 83.8184 55.9199C83.7363 56.0605 83.6953 56.209 83.6953 56.3652C83.6953 56.4824 83.7148 56.5879 83.7539 56.6816C83.7969 56.7715 83.8711 56.8555 83.9766 56.9336C84.082 57.0078 84.2305 57.0781 84.4219 57.1445C84.6133 57.2109 84.8574 57.2773 85.1543 57.3438C85.6738 57.4609 86.1016 57.6016 86.4375 57.7656C86.7734 57.9297 87.0234 58.1309 87.1875 58.3691C87.3516 58.6074 87.4336 58.8965 87.4336 59.2363C87.4336 59.5137 87.375 59.7676 87.2578 59.998C87.1445 60.2285 86.9785 60.4277 86.7598 60.5957C86.5449 60.7598 86.2871 60.8887 85.9863 60.9824C85.6895 61.0723 85.3555 61.1172 84.9844 61.1172C84.4258 61.1172 83.9531 61.0176 83.5664 60.8184C83.1797 60.6191 82.8867 60.3613 82.6875 60.0449C82.4883 59.7285 82.3887 59.3945 82.3887 59.043H83.4785C83.4941 59.3398 83.5801 59.5762 83.7363 59.752C83.8926 59.9238 84.084 60.0469 84.3105 60.1211C84.5371 60.1914 84.7617 60.2266 84.9844 60.2266C85.2812 60.2266 85.5293 60.1875 85.7285 60.1094C85.9316 60.0312 86.0859 59.9238 86.1914 59.7871C86.2969 59.6504 86.3496 59.4941 86.3496 59.3184ZM94.4883 54.6602V55.4922H91.0605V54.6602H94.4883ZM92.2207 53.1191H93.3047V59.4297C93.3047 59.6445 93.3379 59.8066 93.4043 59.916C93.4707 60.0254 93.5566 60.0977 93.6621 60.1328C93.7676 60.168 93.8809 60.1855 94.002 60.1855C94.0918 60.1855 94.1855 60.1777 94.2832 60.1621C94.3848 60.1426 94.4609 60.127 94.5117 60.1152L94.5176 61C94.4316 61.0273 94.3184 61.0527 94.1777 61.0762C94.041 61.1035 93.875 61.1172 93.6797 61.1172C93.4141 61.1172 93.1699 61.0645 92.9473 60.959C92.7246 60.8535 92.5469 60.6777 92.4141 60.4316C92.2852 60.1816 92.2207 59.8457 92.2207 59.4238V53.1191ZM95.3555 57.9004V57.7656C95.3555 57.3086 95.4219 56.8848 95.5547 56.4941C95.6875 56.0996 95.8789 55.7578 96.1289 55.4688C96.3789 55.1758 96.6816 54.9492 97.0371 54.7891C97.3926 54.625 97.791 54.543 98.2324 54.543C98.6777 54.543 99.0781 54.625 99.4336 54.7891C99.793 54.9492 100.098 55.1758 100.348 55.4688C100.602 55.7578 100.795 56.0996 100.928 56.4941C101.061 56.8848 101.127 57.3086 101.127 57.7656V57.9004C101.127 58.3574 101.061 58.7812 100.928 59.1719C100.795 59.5625 100.602 59.9043 100.348 60.1973C100.098 60.4863 99.7949 60.7129 99.4395 60.877C99.0879 61.0371 98.6895 61.1172 98.2441 61.1172C97.7988 61.1172 97.3984 61.0371 97.043 60.877C96.6875 60.7129 96.3828 60.4863 96.1289 60.1973C95.8789 59.9043 95.6875 59.5625 95.5547 59.1719C95.4219 58.7812 95.3555 58.3574 95.3555 57.9004ZM96.4395 57.7656V57.9004C96.4395 58.2168 96.4766 58.5156 96.5508 58.7969C96.625 59.0742 96.7363 59.3203 96.8848 59.5352C97.0371 59.75 97.2266 59.9199 97.4531 60.0449C97.6797 60.166 97.9434 60.2266 98.2441 60.2266C98.541 60.2266 98.8008 60.166 99.0234 60.0449C99.25 59.9199 99.4375 59.75 99.5859 59.5352C99.7344 59.3203 99.8457 59.0742 99.9199 58.7969C99.998 58.5156 100.037 58.2168 100.037 57.9004V57.7656C100.037 57.4531 99.998 57.1582 99.9199 56.8809C99.8457 56.5996 99.7324 56.3516 99.5801 56.1367C99.4316 55.918 99.2441 55.7461 99.0176 55.6211C98.7949 55.4961 98.5332 55.4336 98.2324 55.4336C97.9355 55.4336 97.6738 55.4961 97.4473 55.6211C97.2246 55.7461 97.0371 55.918 96.8848 56.1367C96.7363 56.3516 96.625 56.5996 96.5508 56.8809C96.4766 57.1582 96.4395 57.4531 96.4395 57.7656ZM109.154 59.3184C109.154 59.1621 109.119 59.0176 109.049 58.8848C108.982 58.748 108.844 58.625 108.633 58.5156C108.426 58.4023 108.113 58.3047 107.695 58.2227C107.344 58.1484 107.025 58.0605 106.74 57.959C106.459 57.8574 106.219 57.7344 106.02 57.5898C105.824 57.4453 105.674 57.2754 105.568 57.0801C105.463 56.8848 105.41 56.6562 105.41 56.3945C105.41 56.1445 105.465 55.9082 105.574 55.6855C105.688 55.4629 105.846 55.2656 106.049 55.0938C106.256 54.9219 106.504 54.7871 106.793 54.6895C107.082 54.5918 107.404 54.543 107.76 54.543C108.268 54.543 108.701 54.6328 109.061 54.8125C109.42 54.9922 109.695 55.2324 109.887 55.5332C110.078 55.8301 110.174 56.1602 110.174 56.5234H109.09C109.09 56.3477 109.037 56.1777 108.932 56.0137C108.83 55.8457 108.68 55.707 108.48 55.5977C108.285 55.4883 108.045 55.4336 107.76 55.4336C107.459 55.4336 107.215 55.4805 107.027 55.5742C106.844 55.6641 106.709 55.7793 106.623 55.9199C106.541 56.0605 106.5 56.209 106.5 56.3652C106.5 56.4824 106.52 56.5879 106.559 56.6816C106.602 56.7715 106.676 56.8555 106.781 56.9336C106.887 57.0078 107.035 57.0781 107.227 57.1445C107.418 57.2109 107.662 57.2773 107.959 57.3438C108.479 57.4609 108.906 57.6016 109.242 57.7656C109.578 57.9297 109.828 58.1309 109.992 58.3691C110.156 58.6074 110.238 58.8965 110.238 59.2363C110.238 59.5137 110.18 59.7676 110.062 59.998C109.949 60.2285 109.783 60.4277 109.564 60.5957C109.35 60.7598 109.092 60.8887 108.791 60.9824C108.494 61.0723 108.16 61.1172 107.789 61.1172C107.23 61.1172 106.758 61.0176 106.371 60.8184C105.984 60.6191 105.691 60.3613 105.492 60.0449C105.293 59.7285 105.193 59.3945 105.193 59.043H106.283C106.299 59.3398 106.385 59.5762 106.541 59.752C106.697 59.9238 106.889 60.0469 107.115 60.1211C107.342 60.1914 107.566 60.2266 107.789 60.2266C108.086 60.2266 108.334 60.1875 108.533 60.1094C108.736 60.0312 108.891 59.9238 108.996 59.7871C109.102 59.6504 109.154 59.4941 109.154 59.3184ZM114.316 54.6602V55.4922H110.889V54.6602H114.316ZM112.049 53.1191H113.133V59.4297C113.133 59.6445 113.166 59.8066 113.232 59.916C113.299 60.0254 113.385 60.0977 113.49 60.1328C113.596 60.168 113.709 60.1855 113.83 60.1855C113.92 60.1855 114.014 60.1777 114.111 60.1621C114.213 60.1426 114.289 60.127 114.34 60.1152L114.346 61C114.26 61.0273 114.146 61.0527 114.006 61.0762C113.869 61.1035 113.703 61.1172 113.508 61.1172C113.242 61.1172 112.998 61.0645 112.775 60.959C112.553 60.8535 112.375 60.6777 112.242 60.4316C112.113 60.1816 112.049 59.8457 112.049 59.4238V53.1191ZM119.326 59.916V56.6523C119.326 56.4023 119.275 56.1855 119.174 56.002C119.076 55.8145 118.928 55.6699 118.729 55.5684C118.529 55.4668 118.283 55.416 117.99 55.416C117.717 55.416 117.477 55.4629 117.27 55.5566C117.066 55.6504 116.906 55.7734 116.789 55.9258C116.676 56.0781 116.619 56.2422 116.619 56.418H115.535C115.535 56.1914 115.594 55.9668 115.711 55.7441C115.828 55.5215 115.996 55.3203 116.215 55.1406C116.438 54.957 116.703 54.8125 117.012 54.707C117.324 54.5977 117.672 54.543 118.055 54.543C118.516 54.543 118.922 54.6211 119.273 54.7773C119.629 54.9336 119.906 55.1699 120.105 55.4863C120.309 55.7988 120.41 56.1914 120.41 56.6641V59.6172C120.41 59.8281 120.428 60.0527 120.463 60.291C120.502 60.5293 120.559 60.7344 120.633 60.9062V61H119.502C119.447 60.875 119.404 60.709 119.373 60.502C119.342 60.291 119.326 60.0957 119.326 59.916ZM119.514 57.1562L119.525 57.918H118.43C118.121 57.918 117.846 57.9434 117.604 57.9941C117.361 58.041 117.158 58.1133 116.994 58.2109C116.83 58.3086 116.705 58.4316 116.619 58.5801C116.533 58.7246 116.49 58.8945 116.49 59.0898C116.49 59.2891 116.535 59.4707 116.625 59.6348C116.715 59.7988 116.85 59.9297 117.029 60.0273C117.213 60.1211 117.438 60.168 117.703 60.168C118.035 60.168 118.328 60.0977 118.582 59.957C118.836 59.8164 119.037 59.6445 119.186 59.4414C119.338 59.2383 119.42 59.041 119.432 58.8496L119.895 59.3711C119.867 59.5352 119.793 59.7168 119.672 59.916C119.551 60.1152 119.389 60.3066 119.186 60.4902C118.986 60.6699 118.748 60.8203 118.471 60.9414C118.197 61.0586 117.889 61.1172 117.545 61.1172C117.115 61.1172 116.738 61.0332 116.414 60.8652C116.094 60.6973 115.844 60.4727 115.664 60.1914C115.488 59.9062 115.4 59.5879 115.4 59.2363C115.4 58.8965 115.467 58.5977 115.6 58.3398C115.732 58.0781 115.924 57.8613 116.174 57.6895C116.424 57.5137 116.725 57.3809 117.076 57.291C117.428 57.2012 117.82 57.1562 118.254 57.1562H119.514ZM123.199 55.6562V61H122.115V54.6602H123.17L123.199 55.6562ZM125.18 54.625L125.174 55.6328C125.084 55.6133 124.998 55.6016 124.916 55.5977C124.838 55.5898 124.748 55.5859 124.646 55.5859C124.396 55.5859 124.176 55.625 123.984 55.7031C123.793 55.7812 123.631 55.8906 123.498 56.0312C123.365 56.1719 123.26 56.3398 123.182 56.5352C123.107 56.7266 123.059 56.9375 123.035 57.168L122.73 57.3438C122.73 56.9609 122.768 56.6016 122.842 56.2656C122.92 55.9297 123.039 55.6328 123.199 55.375C123.359 55.1133 123.562 54.9102 123.809 54.7656C124.059 54.6172 124.355 54.543 124.699 54.543C124.777 54.543 124.867 54.5527 124.969 54.5723C125.07 54.5879 125.141 54.6055 125.18 54.625ZM129.129 54.6602V55.4922H125.701V54.6602H129.129ZM126.861 53.1191H127.945V59.4297C127.945 59.6445 127.979 59.8066 128.045 59.916C128.111 60.0254 128.197 60.0977 128.303 60.1328C128.408 60.168 128.521 60.1855 128.643 60.1855C128.732 60.1855 128.826 60.1777 128.924 60.1621C129.025 60.1426 129.102 60.127 129.152 60.1152L129.158 61C129.072 61.0273 128.959 61.0527 128.818 61.0762C128.682 61.1035 128.516 61.1172 128.32 61.1172C128.055 61.1172 127.811 61.0645 127.588 60.959C127.365 60.8535 127.188 60.6777 127.055 60.4316C126.926 60.1816 126.861 59.8457 126.861 59.4238V53.1191ZM136.031 54.6602V55.4922H132.604V54.6602H136.031ZM133.764 53.1191H134.848V59.4297C134.848 59.6445 134.881 59.8066 134.947 59.916C135.014 60.0254 135.1 60.0977 135.205 60.1328C135.311 60.168 135.424 60.1855 135.545 60.1855C135.635 60.1855 135.729 60.1777 135.826 60.1621C135.928 60.1426 136.004 60.127 136.055 60.1152L136.061 61C135.975 61.0273 135.861 61.0527 135.721 61.0762C135.584 61.1035 135.418 61.1172 135.223 61.1172C134.957 61.1172 134.713 61.0645 134.49 60.959C134.268 60.8535 134.09 60.6777 133.957 60.4316C133.828 60.1816 133.764 59.8457 133.764 59.4238V53.1191ZM138.387 52V61H137.303V52H138.387ZM138.129 57.5898L137.678 57.5723C137.682 57.1387 137.746 56.7383 137.871 56.3711C137.996 56 138.172 55.6777 138.398 55.4043C138.625 55.1309 138.895 54.9199 139.207 54.7715C139.523 54.6191 139.873 54.543 140.256 54.543C140.568 54.543 140.85 54.5859 141.1 54.6719C141.35 54.7539 141.562 54.8867 141.738 55.0703C141.918 55.2539 142.055 55.4922 142.148 55.7852C142.242 56.0742 142.289 56.4277 142.289 56.8457V61H141.199V56.834C141.199 56.502 141.15 56.2363 141.053 56.0371C140.955 55.834 140.812 55.6875 140.625 55.5977C140.438 55.5039 140.207 55.457 139.934 55.457C139.664 55.457 139.418 55.5137 139.195 55.627C138.977 55.7402 138.787 55.8965 138.627 56.0957C138.471 56.2949 138.348 56.5234 138.258 56.7812C138.172 57.0352 138.129 57.3047 138.129 57.5898ZM146.543 61.1172C146.102 61.1172 145.701 61.043 145.342 60.8945C144.986 60.7422 144.68 60.5293 144.422 60.2559C144.168 59.9824 143.973 59.6582 143.836 59.2832C143.699 58.9082 143.631 58.498 143.631 58.0527V57.8066C143.631 57.291 143.707 56.832 143.859 56.4297C144.012 56.0234 144.219 55.6797 144.48 55.3984C144.742 55.1172 145.039 54.9043 145.371 54.7598C145.703 54.6152 146.047 54.543 146.402 54.543C146.855 54.543 147.246 54.6211 147.574 54.7773C147.906 54.9336 148.178 55.1523 148.389 55.4336C148.6 55.7109 148.756 56.0391 148.857 56.418C148.959 56.793 149.01 57.2031 149.01 57.6484V58.1348H144.275V57.25H147.926V57.168C147.91 56.8867 147.852 56.6133 147.75 56.3477C147.652 56.082 147.496 55.8633 147.281 55.6914C147.066 55.5195 146.773 55.4336 146.402 55.4336C146.156 55.4336 145.93 55.4863 145.723 55.5918C145.516 55.6934 145.338 55.8457 145.189 56.0488C145.041 56.252 144.926 56.5 144.844 56.793C144.762 57.0859 144.721 57.4238 144.721 57.8066V58.0527C144.721 58.3535 144.762 58.6367 144.844 58.9023C144.93 59.1641 145.053 59.3945 145.213 59.5938C145.377 59.793 145.574 59.9492 145.805 60.0625C146.039 60.1758 146.305 60.2324 146.602 60.2324C146.984 60.2324 147.309 60.1543 147.574 59.998C147.84 59.8418 148.072 59.6328 148.271 59.3711L148.928 59.8926C148.791 60.0996 148.617 60.2969 148.406 60.4844C148.195 60.6719 147.936 60.8242 147.627 60.9414C147.322 61.0586 146.961 61.1172 146.543 61.1172ZM154.336 55.6562V61H153.252V54.6602H154.307L154.336 55.6562ZM156.316 54.625L156.311 55.6328C156.221 55.6133 156.135 55.6016 156.053 55.5977C155.975 55.5898 155.885 55.5859 155.783 55.5859C155.533 55.5859 155.312 55.625 155.121 55.7031C154.93 55.7812 154.768 55.8906 154.635 56.0312C154.502 56.1719 154.396 56.3398 154.318 56.5352C154.244 56.7266 154.195 56.9375 154.172 57.168L153.867 57.3438C153.867 56.9609 153.904 56.6016 153.979 56.2656C154.057 55.9297 154.176 55.6328 154.336 55.375C154.496 55.1133 154.699 54.9102 154.945 54.7656C155.195 54.6172 155.492 54.543 155.836 54.543C155.914 54.543 156.004 54.5527 156.105 54.5723C156.207 54.5879 156.277 54.6055 156.316 54.625ZM159.832 61.1172C159.391 61.1172 158.99 61.043 158.631 60.8945C158.275 60.7422 157.969 60.5293 157.711 60.2559C157.457 59.9824 157.262 59.6582 157.125 59.2832C156.988 58.9082 156.92 58.498 156.92 58.0527V57.8066C156.92 57.291 156.996 56.832 157.148 56.4297C157.301 56.0234 157.508 55.6797 157.77 55.3984C158.031 55.1172 158.328 54.9043 158.66 54.7598C158.992 54.6152 159.336 54.543 159.691 54.543C160.145 54.543 160.535 54.6211 160.863 54.7773C161.195 54.9336 161.467 55.1523 161.678 55.4336C161.889 55.7109 162.045 56.0391 162.146 56.418C162.248 56.793 162.299 57.2031 162.299 57.6484V58.1348H157.564V57.25H161.215V57.168C161.199 56.8867 161.141 56.6133 161.039 56.3477C160.941 56.082 160.785 55.8633 160.57 55.6914C160.355 55.5195 160.062 55.4336 159.691 55.4336C159.445 55.4336 159.219 55.4863 159.012 55.5918C158.805 55.6934 158.627 55.8457 158.479 56.0488C158.33 56.252 158.215 56.5 158.133 56.793C158.051 57.0859 158.01 57.4238 158.01 57.8066V58.0527C158.01 58.3535 158.051 58.6367 158.133 58.9023C158.219 59.1641 158.342 59.3945 158.502 59.5938C158.666 59.793 158.863 59.9492 159.094 60.0625C159.328 60.1758 159.594 60.2324 159.891 60.2324C160.273 60.2324 160.598 60.1543 160.863 59.998C161.129 59.8418 161.361 59.6328 161.561 59.3711L162.217 59.8926C162.08 60.0996 161.906 60.2969 161.695 60.4844C161.484 60.6719 161.225 60.8242 160.916 60.9414C160.611 61.0586 160.25 61.1172 159.832 61.1172ZM167.672 54.6602H168.656V60.8652C168.656 61.4238 168.543 61.9004 168.316 62.2949C168.09 62.6895 167.773 62.9883 167.367 63.1914C166.965 63.3984 166.5 63.502 165.973 63.502C165.754 63.502 165.496 63.4668 165.199 63.3965C164.906 63.3301 164.617 63.2148 164.332 63.0508C164.051 62.8906 163.814 62.6738 163.623 62.4004L164.191 61.7559C164.457 62.0762 164.734 62.2988 165.023 62.4238C165.316 62.5488 165.605 62.6113 165.891 62.6113C166.234 62.6113 166.531 62.5469 166.781 62.418C167.031 62.2891 167.225 62.0977 167.361 61.8438C167.502 61.5938 167.572 61.2852 167.572 60.918V56.0547L167.672 54.6602ZM163.307 57.9004V57.7773C163.307 57.293 163.363 56.8535 163.477 56.459C163.594 56.0605 163.76 55.7188 163.975 55.4336C164.193 55.1484 164.457 54.9297 164.766 54.7773C165.074 54.6211 165.422 54.543 165.809 54.543C166.207 54.543 166.555 54.6133 166.852 54.7539C167.152 54.8906 167.406 55.0918 167.613 55.3574C167.824 55.6191 167.99 55.9355 168.111 56.3066C168.232 56.6777 168.316 57.0977 168.363 57.5664V58.1055C168.32 58.5703 168.236 58.9883 168.111 59.3594C167.99 59.7305 167.824 60.0469 167.613 60.3086C167.406 60.5703 167.152 60.7715 166.852 60.9121C166.551 61.0488 166.199 61.1172 165.797 61.1172C165.418 61.1172 165.074 61.0371 164.766 60.877C164.461 60.7168 164.199 60.4922 163.98 60.2031C163.762 59.9141 163.594 59.5742 163.477 59.1836C163.363 58.7891 163.307 58.3613 163.307 57.9004ZM164.391 57.7773V57.9004C164.391 58.2168 164.422 58.5137 164.484 58.791C164.551 59.0684 164.65 59.3125 164.783 59.5234C164.92 59.7344 165.094 59.9004 165.305 60.0215C165.516 60.1387 165.768 60.1973 166.061 60.1973C166.42 60.1973 166.717 60.1211 166.951 59.9688C167.186 59.8164 167.371 59.6152 167.508 59.3652C167.648 59.1152 167.758 58.8438 167.836 58.5508V57.1387C167.793 56.9238 167.727 56.7168 167.637 56.5176C167.551 56.3145 167.438 56.1348 167.297 55.9785C167.16 55.8184 166.99 55.6914 166.787 55.5977C166.584 55.5039 166.346 55.457 166.072 55.457C165.775 55.457 165.52 55.5195 165.305 55.6445C165.094 55.7656 164.92 55.9336 164.783 56.1484C164.65 56.3594 164.551 56.6055 164.484 56.8867C164.422 57.1641 164.391 57.4609 164.391 57.7773ZM171.48 54.6602V61H170.391V54.6602H171.48ZM170.309 52.9785C170.309 52.8027 170.361 52.6543 170.467 52.5332C170.576 52.4121 170.736 52.3516 170.947 52.3516C171.154 52.3516 171.312 52.4121 171.422 52.5332C171.535 52.6543 171.592 52.8027 171.592 52.9785C171.592 53.1465 171.535 53.291 171.422 53.4121C171.312 53.5293 171.154 53.5879 170.947 53.5879C170.736 53.5879 170.576 53.5293 170.467 53.4121C170.361 53.291 170.309 53.1465 170.309 52.9785ZM176.912 59.3184C176.912 59.1621 176.877 59.0176 176.807 58.8848C176.74 58.748 176.602 58.625 176.391 58.5156C176.184 58.4023 175.871 58.3047 175.453 58.2227C175.102 58.1484 174.783 58.0605 174.498 57.959C174.217 57.8574 173.977 57.7344 173.777 57.5898C173.582 57.4453 173.432 57.2754 173.326 57.0801C173.221 56.8848 173.168 56.6562 173.168 56.3945C173.168 56.1445 173.223 55.9082 173.332 55.6855C173.445 55.4629 173.604 55.2656 173.807 55.0938C174.014 54.9219 174.262 54.7871 174.551 54.6895C174.84 54.5918 175.162 54.543 175.518 54.543C176.025 54.543 176.459 54.6328 176.818 54.8125C177.178 54.9922 177.453 55.2324 177.645 55.5332C177.836 55.8301 177.932 56.1602 177.932 56.5234H176.848C176.848 56.3477 176.795 56.1777 176.689 56.0137C176.588 55.8457 176.438 55.707 176.238 55.5977C176.043 55.4883 175.803 55.4336 175.518 55.4336C175.217 55.4336 174.973 55.4805 174.785 55.5742C174.602 55.6641 174.467 55.7793 174.381 55.9199C174.299 56.0605 174.258 56.209 174.258 56.3652C174.258 56.4824 174.277 56.5879 174.316 56.6816C174.359 56.7715 174.434 56.8555 174.539 56.9336C174.645 57.0078 174.793 57.0781 174.984 57.1445C175.176 57.2109 175.42 57.2773 175.717 57.3438C176.236 57.4609 176.664 57.6016 177 57.7656C177.336 57.9297 177.586 58.1309 177.75 58.3691C177.914 58.6074 177.996 58.8965 177.996 59.2363C177.996 59.5137 177.938 59.7676 177.82 59.998C177.707 60.2285 177.541 60.4277 177.322 60.5957C177.107 60.7598 176.85 60.8887 176.549 60.9824C176.252 61.0723 175.918 61.1172 175.547 61.1172C174.988 61.1172 174.516 61.0176 174.129 60.8184C173.742 60.6191 173.449 60.3613 173.25 60.0449C173.051 59.7285 172.951 59.3945 172.951 59.043H174.041C174.057 59.3398 174.143 59.5762 174.299 59.752C174.455 59.9238 174.646 60.0469 174.873 60.1211C175.1 60.1914 175.324 60.2266 175.547 60.2266C175.844 60.2266 176.092 60.1875 176.291 60.1094C176.494 60.0312 176.648 59.9238 176.754 59.7871C176.859 59.6504 176.912 59.4941 176.912 59.3184ZM182.074 54.6602V55.4922H178.646V54.6602H182.074ZM179.807 53.1191H180.891V59.4297C180.891 59.6445 180.924 59.8066 180.99 59.916C181.057 60.0254 181.143 60.0977 181.248 60.1328C181.354 60.168 181.467 60.1855 181.588 60.1855C181.678 60.1855 181.771 60.1777 181.869 60.1621C181.971 60.1426 182.047 60.127 182.098 60.1152L182.104 61C182.018 61.0273 181.904 61.0527 181.764 61.0762C181.627 61.1035 181.461 61.1172 181.266 61.1172C181 61.1172 180.756 61.0645 180.533 60.959C180.311 60.8535 180.133 60.6777 180 60.4316C179.871 60.1816 179.807 59.8457 179.807 59.4238V53.1191ZM184.43 55.6562V61H183.346V54.6602H184.4L184.43 55.6562ZM186.41 54.625L186.404 55.6328C186.314 55.6133 186.229 55.6016 186.146 55.5977C186.068 55.5898 185.979 55.5859 185.877 55.5859C185.627 55.5859 185.406 55.625 185.215 55.7031C185.023 55.7812 184.861 55.8906 184.729 56.0312C184.596 56.1719 184.49 56.3398 184.412 56.5352C184.338 56.7266 184.289 56.9375 184.266 57.168L183.961 57.3438C183.961 56.9609 183.998 56.6016 184.072 56.2656C184.15 55.9297 184.27 55.6328 184.43 55.375C184.59 55.1133 184.793 54.9102 185.039 54.7656C185.289 54.6172 185.586 54.543 185.93 54.543C186.008 54.543 186.098 54.5527 186.199 54.5723C186.301 54.5879 186.371 54.6055 186.41 54.625ZM190.916 59.916V56.6523C190.916 56.4023 190.865 56.1855 190.764 56.002C190.666 55.8145 190.518 55.6699 190.318 55.5684C190.119 55.4668 189.873 55.416 189.58 55.416C189.307 55.416 189.066 55.4629 188.859 55.5566C188.656 55.6504 188.496 55.7734 188.379 55.9258C188.266 56.0781 188.209 56.2422 188.209 56.418H187.125C187.125 56.1914 187.184 55.9668 187.301 55.7441C187.418 55.5215 187.586 55.3203 187.805 55.1406C188.027 54.957 188.293 54.8125 188.602 54.707C188.914 54.5977 189.262 54.543 189.645 54.543C190.105 54.543 190.512 54.6211 190.863 54.7773C191.219 54.9336 191.496 55.1699 191.695 55.4863C191.898 55.7988 192 56.1914 192 56.6641V59.6172C192 59.8281 192.018 60.0527 192.053 60.291C192.092 60.5293 192.148 60.7344 192.223 60.9062V61H191.092C191.037 60.875 190.994 60.709 190.963 60.502C190.932 60.291 190.916 60.0957 190.916 59.916ZM191.104 57.1562L191.115 57.918H190.02C189.711 57.918 189.436 57.9434 189.193 57.9941C188.951 58.041 188.748 58.1133 188.584 58.2109C188.42 58.3086 188.295 58.4316 188.209 58.5801C188.123 58.7246 188.08 58.8945 188.08 59.0898C188.08 59.2891 188.125 59.4707 188.215 59.6348C188.305 59.7988 188.439 59.9297 188.619 60.0273C188.803 60.1211 189.027 60.168 189.293 60.168C189.625 60.168 189.918 60.0977 190.172 59.957C190.426 59.8164 190.627 59.6445 190.775 59.4414C190.928 59.2383 191.01 59.041 191.021 58.8496L191.484 59.3711C191.457 59.5352 191.383 59.7168 191.262 59.916C191.141 60.1152 190.979 60.3066 190.775 60.4902C190.576 60.6699 190.338 60.8203 190.061 60.9414C189.787 61.0586 189.479 61.1172 189.135 61.1172C188.705 61.1172 188.328 61.0332 188.004 60.8652C187.684 60.6973 187.434 60.4727 187.254 60.1914C187.078 59.9062 186.99 59.5879 186.99 59.2363C186.99 58.8965 187.057 58.5977 187.189 58.3398C187.322 58.0781 187.514 57.8613 187.764 57.6895C188.014 57.5137 188.314 57.3809 188.666 57.291C189.018 57.2012 189.41 57.1562 189.844 57.1562H191.104ZM196.359 54.6602V55.4922H192.932V54.6602H196.359ZM194.092 53.1191H195.176V59.4297C195.176 59.6445 195.209 59.8066 195.275 59.916C195.342 60.0254 195.428 60.0977 195.533 60.1328C195.639 60.168 195.752 60.1855 195.873 60.1855C195.963 60.1855 196.057 60.1777 196.154 60.1621C196.256 60.1426 196.332 60.127 196.383 60.1152L196.389 61C196.303 61.0273 196.189 61.0527 196.049 61.0762C195.912 61.1035 195.746 61.1172 195.551 61.1172C195.285 61.1172 195.041 61.0645 194.818 60.959C194.596 60.8535 194.418 60.6777 194.285 60.4316C194.156 60.1816 194.092 59.8457 194.092 59.4238V53.1191ZM198.809 54.6602V61H197.719V54.6602H198.809ZM197.637 52.9785C197.637 52.8027 197.689 52.6543 197.795 52.5332C197.904 52.4121 198.064 52.3516 198.275 52.3516C198.482 52.3516 198.641 52.4121 198.75 52.5332C198.863 52.6543 198.92 52.8027 198.92 52.9785C198.92 53.1465 198.863 53.291 198.75 53.4121C198.641 53.5293 198.482 53.5879 198.275 53.5879C198.064 53.5879 197.904 53.5293 197.795 53.4121C197.689 53.291 197.637 53.1465 197.637 52.9785ZM200.262 57.9004V57.7656C200.262 57.3086 200.328 56.8848 200.461 56.4941C200.594 56.0996 200.785 55.7578 201.035 55.4688C201.285 55.1758 201.588 54.9492 201.943 54.7891C202.299 54.625 202.697 54.543 203.139 54.543C203.584 54.543 203.984 54.625 204.34 54.7891C204.699 54.9492 205.004 55.1758 205.254 55.4688C205.508 55.7578 205.701 56.0996 205.834 56.4941C205.967 56.8848 206.033 57.3086 206.033 57.7656V57.9004C206.033 58.3574 205.967 58.7812 205.834 59.1719C205.701 59.5625 205.508 59.9043 205.254 60.1973C205.004 60.4863 204.701 60.7129 204.346 60.877C203.994 61.0371 203.596 61.1172 203.15 61.1172C202.705 61.1172 202.305 61.0371 201.949 60.877C201.594 60.7129 201.289 60.4863 201.035 60.1973C200.785 59.9043 200.594 59.5625 200.461 59.1719C200.328 58.7812 200.262 58.3574 200.262 57.9004ZM201.346 57.7656V57.9004C201.346 58.2168 201.383 58.5156 201.457 58.7969C201.531 59.0742 201.643 59.3203 201.791 59.5352C201.943 59.75 202.133 59.9199 202.359 60.0449C202.586 60.166 202.85 60.2266 203.15 60.2266C203.447 60.2266 203.707 60.166 203.93 60.0449C204.156 59.9199 204.344 59.75 204.492 59.5352C204.641 59.3203 204.752 59.0742 204.826 58.7969C204.904 58.5156 204.943 58.2168 204.943 57.9004V57.7656C204.943 57.4531 204.904 57.1582 204.826 56.8809C204.752 56.5996 204.639 56.3516 204.486 56.1367C204.338 55.918 204.15 55.7461 203.924 55.6211C203.701 55.4961 203.439 55.4336 203.139 55.4336C202.842 55.4336 202.58 55.4961 202.354 55.6211C202.131 55.7461 201.943 55.918 201.791 56.1367C201.643 56.3516 201.531 56.5996 201.457 56.8809C201.383 57.1582 201.346 57.4531 201.346 57.7656ZM208.477 56.0137V61H207.393V54.6602H208.418L208.477 56.0137ZM208.219 57.5898L207.768 57.5723C207.771 57.1387 207.836 56.7383 207.961 56.3711C208.086 56 208.262 55.6777 208.488 55.4043C208.715 55.1309 208.984 54.9199 209.297 54.7715C209.613 54.6191 209.963 54.543 210.346 54.543C210.658 54.543 210.939 54.5859 211.189 54.6719C211.439 54.7539 211.652 54.8867 211.828 55.0703C212.008 55.2539 212.145 55.4922 212.238 55.7852C212.332 56.0742 212.379 56.4277 212.379 56.8457V61H211.289V56.834C211.289 56.502 211.24 56.2363 211.143 56.0371C211.045 55.834 210.902 55.6875 210.715 55.5977C210.527 55.5039 210.297 55.457 210.023 55.457C209.754 55.457 209.508 55.5137 209.285 55.627C209.066 55.7402 208.877 55.8965 208.717 56.0957C208.561 56.2949 208.438 56.5234 208.348 56.7812C208.262 57.0352 208.219 57.3047 208.219 57.5898ZM218.086 55.8789V63.4375H216.996V54.6602H217.992L218.086 55.8789ZM222.357 57.7773V57.9004C222.357 58.3613 222.303 58.7891 222.193 59.1836C222.084 59.5742 221.924 59.9141 221.713 60.2031C221.506 60.4922 221.25 60.7168 220.945 60.877C220.641 61.0371 220.291 61.1172 219.896 61.1172C219.494 61.1172 219.139 61.0508 218.83 60.918C218.521 60.7852 218.26 60.5918 218.045 60.3379C217.83 60.084 217.658 59.7793 217.529 59.4238C217.404 59.0684 217.318 58.668 217.271 58.2227V57.5664C217.318 57.0977 217.406 56.6777 217.535 56.3066C217.664 55.9355 217.834 55.6191 218.045 55.3574C218.26 55.0918 218.52 54.8906 218.824 54.7539C219.129 54.6133 219.48 54.543 219.879 54.543C220.277 54.543 220.631 54.6211 220.939 54.7773C221.248 54.9297 221.508 55.1484 221.719 55.4336C221.93 55.7188 222.088 56.0605 222.193 56.459C222.303 56.8535 222.357 57.293 222.357 57.7773ZM221.268 57.9004V57.7773C221.268 57.4609 221.234 57.1641 221.168 56.8867C221.102 56.6055 220.998 56.3594 220.857 56.1484C220.721 55.9336 220.545 55.7656 220.33 55.6445C220.115 55.5195 219.859 55.457 219.562 55.457C219.289 55.457 219.051 55.5039 218.848 55.5977C218.648 55.6914 218.479 55.8184 218.338 55.9785C218.197 56.1348 218.082 56.3145 217.992 56.5176C217.906 56.7168 217.842 56.9238 217.799 57.1387V58.6562C217.877 58.9297 217.986 59.1875 218.127 59.4297C218.268 59.668 218.455 59.8613 218.689 60.0098C218.924 60.1543 219.219 60.2266 219.574 60.2266C219.867 60.2266 220.119 60.166 220.33 60.0449C220.545 59.9199 220.721 59.75 220.857 59.5352C220.998 59.3203 221.102 59.0742 221.168 58.7969C221.234 58.5156 221.268 58.2168 221.268 57.9004ZM224.824 55.6562V61H223.74V54.6602H224.795L224.824 55.6562ZM226.805 54.625L226.799 55.6328C226.709 55.6133 226.623 55.6016 226.541 55.5977C226.463 55.5898 226.373 55.5859 226.271 55.5859C226.021 55.5859 225.801 55.625 225.609 55.7031C225.418 55.7812 225.256 55.8906 225.123 56.0312C224.99 56.1719 224.885 56.3398 224.807 56.5352C224.732 56.7266 224.684 56.9375 224.66 57.168L224.355 57.3438C224.355 56.9609 224.393 56.6016 224.467 56.2656C224.545 55.9297 224.664 55.6328 224.824 55.375C224.984 55.1133 225.188 54.9102 225.434 54.7656C225.684 54.6172 225.98 54.543 226.324 54.543C226.402 54.543 226.492 54.5527 226.594 54.5723C226.695 54.5879 226.766 54.6055 226.805 54.625ZM227.402 57.9004V57.7656C227.402 57.3086 227.469 56.8848 227.602 56.4941C227.734 56.0996 227.926 55.7578 228.176 55.4688C228.426 55.1758 228.729 54.9492 229.084 54.7891C229.439 54.625 229.838 54.543 230.279 54.543C230.725 54.543 231.125 54.625 231.48 54.7891C231.84 54.9492 232.145 55.1758 232.395 55.4688C232.648 55.7578 232.842 56.0996 232.975 56.4941C233.107 56.8848 233.174 57.3086 233.174 57.7656V57.9004C233.174 58.3574 233.107 58.7812 232.975 59.1719C232.842 59.5625 232.648 59.9043 232.395 60.1973C232.145 60.4863 231.842 60.7129 231.486 60.877C231.135 61.0371 230.736 61.1172 230.291 61.1172C229.846 61.1172 229.445 61.0371 229.09 60.877C228.734 60.7129 228.43 60.4863 228.176 60.1973C227.926 59.9043 227.734 59.5625 227.602 59.1719C227.469 58.7812 227.402 58.3574 227.402 57.9004ZM228.486 57.7656V57.9004C228.486 58.2168 228.523 58.5156 228.598 58.7969C228.672 59.0742 228.783 59.3203 228.932 59.5352C229.084 59.75 229.273 59.9199 229.5 60.0449C229.727 60.166 229.99 60.2266 230.291 60.2266C230.588 60.2266 230.848 60.166 231.07 60.0449C231.297 59.9199 231.484 59.75 231.633 59.5352C231.781 59.3203 231.893 59.0742 231.967 58.7969C232.045 58.5156 232.084 58.2168 232.084 57.9004V57.7656C232.084 57.4531 232.045 57.1582 231.967 56.8809C231.893 56.5996 231.779 56.3516 231.627 56.1367C231.479 55.918 231.291 55.7461 231.064 55.6211C230.842 55.4961 230.58 55.4336 230.279 55.4336C229.982 55.4336 229.721 55.4961 229.494 55.6211C229.271 55.7461 229.084 55.918 228.932 56.1367C228.783 56.3516 228.672 56.5996 228.598 56.8809C228.523 57.1582 228.486 57.4531 228.486 57.7656ZM237.07 60.2266C237.328 60.2266 237.566 60.1738 237.785 60.0684C238.004 59.9629 238.184 59.8184 238.324 59.6348C238.465 59.4473 238.545 59.2344 238.564 58.9961H239.596C239.576 59.3711 239.449 59.7207 239.215 60.0449C238.984 60.3652 238.682 60.625 238.307 60.8242C237.932 61.0195 237.52 61.1172 237.07 61.1172C236.594 61.1172 236.178 61.0332 235.822 60.8652C235.471 60.6973 235.178 60.4668 234.943 60.1738C234.713 59.8809 234.539 59.5449 234.422 59.166C234.309 58.7832 234.252 58.3789 234.252 57.9531V57.707C234.252 57.2812 234.309 56.8789 234.422 56.5C234.539 56.1172 234.713 55.7793 234.943 55.4863C235.178 55.1934 235.471 54.9629 235.822 54.7949C236.178 54.627 236.594 54.543 237.07 54.543C237.566 54.543 238 54.6445 238.371 54.8477C238.742 55.0469 239.033 55.3203 239.244 55.668C239.459 56.0117 239.576 56.4023 239.596 56.8398H238.564C238.545 56.5781 238.471 56.3418 238.342 56.1309C238.217 55.9199 238.045 55.752 237.826 55.627C237.611 55.498 237.359 55.4336 237.07 55.4336C236.738 55.4336 236.459 55.5 236.232 55.6328C236.01 55.7617 235.832 55.9375 235.699 56.1602C235.57 56.3789 235.477 56.623 235.418 56.8926C235.363 57.1582 235.336 57.4297 235.336 57.707V57.9531C235.336 58.2305 235.363 58.5039 235.418 58.7734C235.473 59.043 235.564 59.2871 235.693 59.5059C235.826 59.7246 236.004 59.9004 236.227 60.0332C236.453 60.1621 236.734 60.2266 237.07 60.2266ZM243.445 61.1172C243.004 61.1172 242.604 61.043 242.244 60.8945C241.889 60.7422 241.582 60.5293 241.324 60.2559C241.07 59.9824 240.875 59.6582 240.738 59.2832C240.602 58.9082 240.533 58.498 240.533 58.0527V57.8066C240.533 57.291 240.609 56.832 240.762 56.4297C240.914 56.0234 241.121 55.6797 241.383 55.3984C241.645 55.1172 241.941 54.9043 242.273 54.7598C242.605 54.6152 242.949 54.543 243.305 54.543C243.758 54.543 244.148 54.6211 244.477 54.7773C244.809 54.9336 245.08 55.1523 245.291 55.4336C245.502 55.7109 245.658 56.0391 245.76 56.418C245.861 56.793 245.912 57.2031 245.912 57.6484V58.1348H241.178V57.25H244.828V57.168C244.812 56.8867 244.754 56.6133 244.652 56.3477C244.555 56.082 244.398 55.8633 244.184 55.6914C243.969 55.5195 243.676 55.4336 243.305 55.4336C243.059 55.4336 242.832 55.4863 242.625 55.5918C242.418 55.6934 242.24 55.8457 242.092 56.0488C241.943 56.252 241.828 56.5 241.746 56.793C241.664 57.0859 241.623 57.4238 241.623 57.8066V58.0527C241.623 58.3535 241.664 58.6367 241.746 58.9023C241.832 59.1641 241.955 59.3945 242.115 59.5938C242.279 59.793 242.477 59.9492 242.707 60.0625C242.941 60.1758 243.207 60.2324 243.504 60.2324C243.887 60.2324 244.211 60.1543 244.477 59.998C244.742 59.8418 244.975 59.6328 245.174 59.3711L245.83 59.8926C245.693 60.0996 245.52 60.2969 245.309 60.4844C245.098 60.6719 244.838 60.8242 244.529 60.9414C244.225 61.0586 243.863 61.1172 243.445 61.1172ZM250.869 59.3184C250.869 59.1621 250.834 59.0176 250.764 58.8848C250.697 58.748 250.559 58.625 250.348 58.5156C250.141 58.4023 249.828 58.3047 249.41 58.2227C249.059 58.1484 248.74 58.0605 248.455 57.959C248.174 57.8574 247.934 57.7344 247.734 57.5898C247.539 57.4453 247.389 57.2754 247.283 57.0801C247.178 56.8848 247.125 56.6562 247.125 56.3945C247.125 56.1445 247.18 55.9082 247.289 55.6855C247.402 55.4629 247.561 55.2656 247.764 55.0938C247.971 54.9219 248.219 54.7871 248.508 54.6895C248.797 54.5918 249.119 54.543 249.475 54.543C249.982 54.543 250.416 54.6328 250.775 54.8125C251.135 54.9922 251.41 55.2324 251.602 55.5332C251.793 55.8301 251.889 56.1602 251.889 56.5234H250.805C250.805 56.3477 250.752 56.1777 250.646 56.0137C250.545 55.8457 250.395 55.707 250.195 55.5977C250 55.4883 249.76 55.4336 249.475 55.4336C249.174 55.4336 248.93 55.4805 248.742 55.5742C248.559 55.6641 248.424 55.7793 248.338 55.9199C248.256 56.0605 248.215 56.209 248.215 56.3652C248.215 56.4824 248.234 56.5879 248.273 56.6816C248.316 56.7715 248.391 56.8555 248.496 56.9336C248.602 57.0078 248.75 57.0781 248.941 57.1445C249.133 57.2109 249.377 57.2773 249.674 57.3438C250.193 57.4609 250.621 57.6016 250.957 57.7656C251.293 57.9297 251.543 58.1309 251.707 58.3691C251.871 58.6074 251.953 58.8965 251.953 59.2363C251.953 59.5137 251.895 59.7676 251.777 59.998C251.664 60.2285 251.498 60.4277 251.279 60.5957C251.064 60.7598 250.807 60.8887 250.506 60.9824C250.209 61.0723 249.875 61.1172 249.504 61.1172C248.945 61.1172 248.473 61.0176 248.086 60.8184C247.699 60.6191 247.406 60.3613 247.207 60.0449C247.008 59.7285 246.908 59.3945 246.908 59.043H247.998C248.014 59.3398 248.1 59.5762 248.256 59.752C248.412 59.9238 248.604 60.0469 248.83 60.1211C249.057 60.1914 249.281 60.2266 249.504 60.2266C249.801 60.2266 250.049 60.1875 250.248 60.1094C250.451 60.0312 250.605 59.9238 250.711 59.7871C250.816 59.6504 250.869 59.4941 250.869 59.3184ZM257.068 59.3184C257.068 59.1621 257.033 59.0176 256.963 58.8848C256.896 58.748 256.758 58.625 256.547 58.5156C256.34 58.4023 256.027 58.3047 255.609 58.2227C255.258 58.1484 254.939 58.0605 254.654 57.959C254.373 57.8574 254.133 57.7344 253.934 57.5898C253.738 57.4453 253.588 57.2754 253.482 57.0801C253.377 56.8848 253.324 56.6562 253.324 56.3945C253.324 56.1445 253.379 55.9082 253.488 55.6855C253.602 55.4629 253.76 55.2656 253.963 55.0938C254.17 54.9219 254.418 54.7871 254.707 54.6895C254.996 54.5918 255.318 54.543 255.674 54.543C256.182 54.543 256.615 54.6328 256.975 54.8125C257.334 54.9922 257.609 55.2324 257.801 55.5332C257.992 55.8301 258.088 56.1602 258.088 56.5234H257.004C257.004 56.3477 256.951 56.1777 256.846 56.0137C256.744 55.8457 256.594 55.707 256.395 55.5977C256.199 55.4883 255.959 55.4336 255.674 55.4336C255.373 55.4336 255.129 55.4805 254.941 55.5742C254.758 55.6641 254.623 55.7793 254.537 55.9199C254.455 56.0605 254.414 56.209 254.414 56.3652C254.414 56.4824 254.434 56.5879 254.473 56.6816C254.516 56.7715 254.59 56.8555 254.695 56.9336C254.801 57.0078 254.949 57.0781 255.141 57.1445C255.332 57.2109 255.576 57.2773 255.873 57.3438C256.393 57.4609 256.82 57.6016 257.156 57.7656C257.492 57.9297 257.742 58.1309 257.906 58.3691C258.07 58.6074 258.152 58.8965 258.152 59.2363C258.152 59.5137 258.094 59.7676 257.977 59.998C257.863 60.2285 257.697 60.4277 257.479 60.5957C257.264 60.7598 257.006 60.8887 256.705 60.9824C256.408 61.0723 256.074 61.1172 255.703 61.1172C255.145 61.1172 254.672 61.0176 254.285 60.8184C253.898 60.6191 253.605 60.3613 253.406 60.0449C253.207 59.7285 253.107 59.3945 253.107 59.043H254.197C254.213 59.3398 254.299 59.5762 254.455 59.752C254.611 59.9238 254.803 60.0469 255.029 60.1211C255.256 60.1914 255.48 60.2266 255.703 60.2266C256 60.2266 256.248 60.1875 256.447 60.1094C256.65 60.0312 256.805 59.9238 256.91 59.7871C257.016 59.6504 257.068 59.4941 257.068 59.3184ZM259.594 60.4258C259.594 60.2422 259.65 60.0879 259.764 59.9629C259.881 59.834 260.049 59.7695 260.268 59.7695C260.486 59.7695 260.652 59.834 260.766 59.9629C260.883 60.0879 260.941 60.2422 260.941 60.4258C260.941 60.6055 260.883 60.7578 260.766 60.8828C260.652 61.0078 260.486 61.0703 260.268 61.0703C260.049 61.0703 259.881 61.0078 259.764 60.8828C259.65 60.7578 259.594 60.6055 259.594 60.4258Z" fill="#091E25"/>
<path d="M333.695 80.13C345.899 80.13 352.566 72.898 352.566 60.242V46.117C352.566 34.478 347.933 28.037 338.78 28.037C333.243 28.037 329.627 30.41 327.48 34.93H327.254V19.788C327.254 12.217 329.74 10.07 334.147 10.07C338.102 10.07 340.588 12.217 340.588 17.867V20.127H352.34V18.658C352.34 6.002 346.012 -1.23 333.808 -1.23C320.926 -1.23 314.824 6.002 314.824 19.336V60.242C314.824 72.898 321.491 80.13 333.695 80.13ZM333.695 68.83C329.401 68.83 327.254 66.344 327.254 61.146V47.134C327.254 41.823 329.401 39.337 333.695 39.337C337.989 39.337 340.136 41.823 340.136 47.134V61.146C340.136 66.344 337.989 68.83 333.695 68.83Z" fill="white"/>
</g>
<defs>
<clipPath id="clip0_0_1">
<rect width="375" height="919" fill="white" transform="translate(-15 -573)"/>
</clipPath>
</defs>
</svg>
