<svg width="345" height="79" viewBox="0 0 345 79" fill="none" xmlns="http://www.w3.org/2000/svg">
<g clip-path="url(#clip0_0_1)">
<rect width="375" height="919" transform="translate(-15 -761)" fill="white"/>
<rect width="345" height="79" rx="10" fill="#FFD5AD"/>
<path d="M25.4168 47.8333V41.5833H29.5835V47.8333H34.7918V39.5H37.9168L27.5002 30.125L17.0835 39.5H20.2085V47.8333H25.4168Z" fill="white"/>
<path d="M54.8887 18.0469H58.6006C59.3617 18.0469 60.0156 18.1608 60.5625 18.3887C61.1139 18.6165 61.5378 18.9538 61.834 19.4004C62.1302 19.847 62.2783 20.3962 62.2783 21.0479C62.2783 21.5811 62.1872 22.0391 62.0049 22.4219C61.8271 22.8001 61.5742 23.1169 61.2461 23.3721C60.9225 23.6227 60.542 23.8232 60.1045 23.9736L59.4551 24.3154H56.2285L56.2148 22.7158H58.6143C58.9743 22.7158 59.2728 22.652 59.5098 22.5244C59.7467 22.3968 59.9245 22.2191 60.043 21.9912C60.166 21.7633 60.2275 21.499 60.2275 21.1982C60.2275 20.8792 60.1683 20.6035 60.0498 20.3711C59.9313 20.1387 59.7513 19.9609 59.5098 19.8379C59.2682 19.7148 58.9652 19.6533 58.6006 19.6533H56.9395V28H54.8887V18.0469ZM60.4531 28L58.1836 23.5635L60.3506 23.5498L62.6475 27.9043V28H60.4531ZM67.1387 28.1367C66.5645 28.1367 66.0495 28.0456 65.5938 27.8633C65.138 27.6764 64.7507 27.4189 64.4316 27.0908C64.1172 26.7627 63.8757 26.3822 63.707 25.9492C63.5384 25.5117 63.4541 25.0469 63.4541 24.5547V24.2812C63.4541 23.7207 63.5339 23.208 63.6934 22.7432C63.8529 22.2783 64.0807 21.875 64.377 21.5332C64.6777 21.1914 65.0423 20.9294 65.4707 20.7471C65.8991 20.5602 66.3822 20.4668 66.9199 20.4668C67.444 20.4668 67.9089 20.5534 68.3145 20.7266C68.7201 20.8997 69.0596 21.1458 69.333 21.4648C69.611 21.7839 69.8206 22.1667 69.9619 22.6133C70.1032 23.0553 70.1738 23.5475 70.1738 24.0898V24.9102H64.2949V23.5977H68.2393V23.4473C68.2393 23.1738 68.1891 22.93 68.0889 22.7158C67.9932 22.4971 67.8473 22.3239 67.6514 22.1963C67.4554 22.0687 67.2048 22.0049 66.8994 22.0049C66.6396 22.0049 66.4163 22.0618 66.2295 22.1758C66.0426 22.2897 65.89 22.4492 65.7715 22.6543C65.6576 22.8594 65.571 23.1009 65.5117 23.3789C65.457 23.6523 65.4297 23.9531 65.4297 24.2812V24.5547C65.4297 24.8509 65.4707 25.1243 65.5527 25.375C65.6393 25.6257 65.7601 25.8421 65.915 26.0244C66.0745 26.2067 66.266 26.348 66.4893 26.4482C66.7171 26.5485 66.9746 26.5986 67.2617 26.5986C67.6172 26.5986 67.9476 26.5303 68.2529 26.3936C68.5628 26.2523 68.8294 26.0404 69.0527 25.7578L70.0098 26.7969C69.8548 27.0202 69.6429 27.2344 69.374 27.4395C69.1097 27.6445 68.7907 27.8132 68.417 27.9453C68.0433 28.0729 67.6172 28.1367 67.1387 28.1367ZM75.9775 20.6035H77.7617V27.7539C77.7617 28.4284 77.6113 29.0003 77.3105 29.4697C77.0143 29.9437 76.5996 30.3014 76.0664 30.543C75.5332 30.7891 74.9134 30.9121 74.207 30.9121C73.8971 30.9121 73.569 30.8711 73.2227 30.7891C72.8809 30.707 72.5527 30.5794 72.2383 30.4062C71.9284 30.2331 71.6686 30.0143 71.459 29.75L72.3271 28.5879C72.555 28.8522 72.8193 29.0573 73.1201 29.2031C73.4209 29.3535 73.7536 29.4287 74.1182 29.4287C74.4736 29.4287 74.7744 29.3626 75.0205 29.2305C75.2666 29.1029 75.4557 28.9137 75.5879 28.6631C75.7201 28.417 75.7861 28.1185 75.7861 27.7676V22.3125L75.9775 20.6035ZM71.001 24.3906V24.2471C71.001 23.682 71.0693 23.1693 71.2061 22.709C71.3473 22.2441 71.5456 21.8454 71.8008 21.5127C72.0605 21.18 72.375 20.9225 72.7441 20.7402C73.1133 20.5579 73.5303 20.4668 73.9951 20.4668C74.4873 20.4668 74.8997 20.5579 75.2324 20.7402C75.5651 20.9225 75.8385 21.1823 76.0527 21.5195C76.2669 21.8522 76.4333 22.2464 76.5518 22.7021C76.6748 23.1533 76.7705 23.6478 76.8389 24.1855V24.5C76.7705 25.015 76.668 25.4935 76.5312 25.9355C76.3945 26.3776 76.2145 26.765 75.9912 27.0977C75.7679 27.4258 75.4899 27.681 75.1572 27.8633C74.8291 28.0456 74.4372 28.1367 73.9814 28.1367C73.5257 28.1367 73.1133 28.0433 72.7441 27.8564C72.3796 27.6696 72.0674 27.4076 71.8076 27.0703C71.5479 26.7331 71.3473 26.3366 71.2061 25.8809C71.0693 25.4251 71.001 24.9284 71.001 24.3906ZM72.9697 24.2471V24.3906C72.9697 24.696 72.9993 24.9808 73.0586 25.2451C73.1178 25.5094 73.209 25.7441 73.332 25.9492C73.4596 26.1497 73.6169 26.307 73.8037 26.4209C73.9951 26.5303 74.2207 26.585 74.4805 26.585C74.8405 26.585 75.1344 26.5098 75.3623 26.3594C75.5902 26.2044 75.7611 25.9925 75.875 25.7236C75.9889 25.4548 76.055 25.1449 76.0732 24.7939V23.8984C76.0641 23.6113 76.0254 23.3538 75.957 23.126C75.8887 22.8936 75.793 22.6953 75.6699 22.5312C75.5469 22.3672 75.3874 22.2396 75.1914 22.1484C74.9954 22.0573 74.763 22.0117 74.4941 22.0117C74.2344 22.0117 74.0088 22.071 73.8174 22.1895C73.6305 22.3034 73.4733 22.4606 73.3457 22.6611C73.2227 22.8617 73.1292 23.0986 73.0654 23.3721C73.0016 23.641 72.9697 23.9326 72.9697 24.2471ZM81.3711 20.6035V28H79.3955V20.6035H81.3711ZM79.2725 18.6758C79.2725 18.3887 79.3727 18.1517 79.5732 17.9648C79.7738 17.778 80.0426 17.6846 80.3799 17.6846C80.7126 17.6846 80.9792 17.778 81.1797 17.9648C81.3848 18.1517 81.4873 18.3887 81.4873 18.6758C81.4873 18.9629 81.3848 19.1999 81.1797 19.3867C80.9792 19.5736 80.7126 19.667 80.3799 19.667C80.0426 19.667 79.7738 19.5736 79.5732 19.3867C79.3727 19.1999 79.2725 18.9629 79.2725 18.6758ZM86.9971 25.9561C86.9971 25.8148 86.9561 25.6872 86.874 25.5732C86.792 25.4593 86.6393 25.3545 86.416 25.2588C86.1973 25.1585 85.8805 25.0674 85.4658 24.9854C85.0921 24.9033 84.7435 24.8008 84.4199 24.6777C84.1009 24.5501 83.8229 24.3975 83.5859 24.2197C83.3535 24.042 83.1712 23.8324 83.0391 23.5908C82.9069 23.3447 82.8408 23.0645 82.8408 22.75C82.8408 22.4401 82.9069 22.1484 83.0391 21.875C83.1758 21.6016 83.3695 21.36 83.6201 21.1504C83.8753 20.9362 84.1852 20.7699 84.5498 20.6514C84.9189 20.5283 85.3337 20.4668 85.7939 20.4668C86.4365 20.4668 86.988 20.5693 87.4482 20.7744C87.9131 20.9795 88.2686 21.262 88.5146 21.6221C88.7653 21.9775 88.8906 22.3831 88.8906 22.8389H86.9219C86.9219 22.6475 86.8809 22.4766 86.7988 22.3262C86.7214 22.1712 86.5983 22.0505 86.4297 21.9639C86.2656 21.8727 86.0514 21.8271 85.7871 21.8271C85.5684 21.8271 85.3792 21.8659 85.2197 21.9434C85.0602 22.0163 84.9372 22.1165 84.8506 22.2441C84.7686 22.3672 84.7275 22.5039 84.7275 22.6543C84.7275 22.7682 84.7503 22.8708 84.7959 22.9619C84.846 23.0485 84.9258 23.1283 85.0352 23.2012C85.1445 23.2741 85.2858 23.3424 85.459 23.4062C85.6367 23.4655 85.8555 23.5202 86.1152 23.5703C86.6484 23.6797 87.1247 23.8232 87.5439 24.001C87.9632 24.1742 88.2959 24.4111 88.542 24.7119C88.7881 25.0081 88.9111 25.3978 88.9111 25.8809C88.9111 26.209 88.8382 26.5098 88.6924 26.7832C88.5465 27.0566 88.3369 27.2959 88.0635 27.501C87.79 27.7015 87.4619 27.8587 87.0791 27.9727C86.7008 28.082 86.2747 28.1367 85.8008 28.1367C85.1126 28.1367 84.5293 28.0137 84.0508 27.7676C83.5768 27.5215 83.2168 27.2093 82.9707 26.8311C82.7292 26.4482 82.6084 26.0563 82.6084 25.6553H84.4746C84.4837 25.9242 84.5521 26.1406 84.6797 26.3047C84.8118 26.4688 84.9782 26.5872 85.1787 26.6602C85.3838 26.7331 85.6048 26.7695 85.8418 26.7695C86.097 26.7695 86.3089 26.7354 86.4775 26.667C86.6462 26.5941 86.7738 26.4984 86.8604 26.3799C86.9515 26.2568 86.9971 26.1156 86.9971 25.9561ZM93.8125 20.6035V21.998H89.5059V20.6035H93.8125ZM90.5723 18.7783H92.541V25.7715C92.541 25.9857 92.5684 26.1497 92.623 26.2637C92.6823 26.3776 92.7689 26.4574 92.8828 26.5029C92.9967 26.5439 93.1403 26.5645 93.3135 26.5645C93.4365 26.5645 93.5459 26.5599 93.6416 26.5508C93.7419 26.5371 93.8262 26.5234 93.8945 26.5098L93.9014 27.959C93.7327 28.0137 93.5505 28.057 93.3545 28.0889C93.1585 28.1208 92.9421 28.1367 92.7051 28.1367C92.2721 28.1367 91.8939 28.0661 91.5703 27.9248C91.2513 27.779 91.0052 27.5465 90.832 27.2275C90.6589 26.9085 90.5723 26.4893 90.5723 25.9697V18.7783ZM98.3379 28.1367C97.7637 28.1367 97.2487 28.0456 96.793 27.8633C96.3372 27.6764 95.9499 27.4189 95.6309 27.0908C95.3164 26.7627 95.0749 26.3822 94.9062 25.9492C94.7376 25.5117 94.6533 25.0469 94.6533 24.5547V24.2812C94.6533 23.7207 94.7331 23.208 94.8926 22.7432C95.0521 22.2783 95.2799 21.875 95.5762 21.5332C95.877 21.1914 96.2415 20.9294 96.6699 20.7471C97.0983 20.5602 97.5814 20.4668 98.1191 20.4668C98.6432 20.4668 99.1081 20.5534 99.5137 20.7266C99.9193 20.8997 100.259 21.1458 100.532 21.4648C100.81 21.7839 101.02 22.1667 101.161 22.6133C101.302 23.0553 101.373 23.5475 101.373 24.0898V24.9102H95.4941V23.5977H99.4385V23.4473C99.4385 23.1738 99.3883 22.93 99.2881 22.7158C99.1924 22.4971 99.0465 22.3239 98.8506 22.1963C98.6546 22.0687 98.404 22.0049 98.0986 22.0049C97.8389 22.0049 97.6156 22.0618 97.4287 22.1758C97.2419 22.2897 97.0892 22.4492 96.9707 22.6543C96.8568 22.8594 96.7702 23.1009 96.7109 23.3789C96.6562 23.6523 96.6289 23.9531 96.6289 24.2812V24.5547C96.6289 24.8509 96.6699 25.1243 96.752 25.375C96.8385 25.6257 96.9593 25.8421 97.1143 26.0244C97.2738 26.2067 97.4652 26.348 97.6885 26.4482C97.9163 26.5485 98.1738 26.5986 98.4609 26.5986C98.8164 26.5986 99.1468 26.5303 99.4521 26.3936C99.762 26.2523 100.029 26.0404 100.252 25.7578L101.209 26.7969C101.054 27.0202 100.842 27.2344 100.573 27.4395C100.309 27.6445 99.9899 27.8132 99.6162 27.9453C99.2425 28.0729 98.8164 28.1367 98.3379 28.1367ZM104.463 22.2168V28H102.494V20.6035H104.347L104.463 22.2168ZM106.691 20.5557L106.657 22.3809C106.562 22.3672 106.445 22.3558 106.309 22.3467C106.176 22.333 106.056 22.3262 105.946 22.3262C105.668 22.3262 105.427 22.3626 105.222 22.4355C105.021 22.5039 104.853 22.6064 104.716 22.7432C104.584 22.8799 104.483 23.0462 104.415 23.2422C104.351 23.4382 104.315 23.6615 104.306 23.9121L103.909 23.7891C103.909 23.3105 103.957 22.8708 104.053 22.4697C104.148 22.0641 104.287 21.7109 104.47 21.4102C104.657 21.1094 104.884 20.877 105.153 20.7129C105.422 20.5488 105.73 20.4668 106.076 20.4668C106.186 20.4668 106.297 20.4759 106.411 20.4941C106.525 20.5078 106.618 20.5283 106.691 20.5557ZM114.73 20.6035V21.998H110.424V20.6035H114.73ZM111.49 18.7783H113.459V25.7715C113.459 25.9857 113.486 26.1497 113.541 26.2637C113.6 26.3776 113.687 26.4574 113.801 26.5029C113.915 26.5439 114.058 26.5645 114.231 26.5645C114.354 26.5645 114.464 26.5599 114.56 26.5508C114.66 26.5371 114.744 26.5234 114.812 26.5098L114.819 27.959C114.651 28.0137 114.468 28.057 114.272 28.0889C114.076 28.1208 113.86 28.1367 113.623 28.1367C113.19 28.1367 112.812 28.0661 112.488 27.9248C112.169 27.779 111.923 27.5465 111.75 27.2275C111.577 26.9085 111.49 26.4893 111.49 25.9697V18.7783ZM117.772 17.5V28H115.804V17.5H117.772ZM117.492 24.042H116.952C116.957 23.527 117.025 23.0531 117.157 22.6201C117.289 22.1826 117.479 21.8044 117.725 21.4854C117.971 21.1618 118.265 20.9111 118.606 20.7334C118.953 20.5557 119.336 20.4668 119.755 20.4668C120.119 20.4668 120.45 20.5192 120.746 20.624C121.047 20.7243 121.304 20.8883 121.519 21.1162C121.737 21.3395 121.906 21.6335 122.024 21.998C122.143 22.3626 122.202 22.8047 122.202 23.3242V28H120.22V23.3105C120.22 22.9824 120.172 22.7249 120.076 22.5381C119.985 22.3467 119.851 22.2122 119.673 22.1348C119.5 22.0527 119.285 22.0117 119.03 22.0117C118.748 22.0117 118.506 22.0641 118.306 22.1689C118.11 22.2738 117.952 22.4196 117.834 22.6064C117.715 22.7887 117.629 23.0029 117.574 23.249C117.52 23.4951 117.492 23.7594 117.492 24.042ZM127.104 28.1367C126.529 28.1367 126.014 28.0456 125.559 27.8633C125.103 27.6764 124.715 27.4189 124.396 27.0908C124.082 26.7627 123.84 26.3822 123.672 25.9492C123.503 25.5117 123.419 25.0469 123.419 24.5547V24.2812C123.419 23.7207 123.499 23.208 123.658 22.7432C123.818 22.2783 124.046 21.875 124.342 21.5332C124.643 21.1914 125.007 20.9294 125.436 20.7471C125.864 20.5602 126.347 20.4668 126.885 20.4668C127.409 20.4668 127.874 20.5534 128.279 20.7266C128.685 20.8997 129.024 21.1458 129.298 21.4648C129.576 21.7839 129.785 22.1667 129.927 22.6133C130.068 23.0553 130.139 23.5475 130.139 24.0898V24.9102H124.26V23.5977H128.204V23.4473C128.204 23.1738 128.154 22.93 128.054 22.7158C127.958 22.4971 127.812 22.3239 127.616 22.1963C127.42 22.0687 127.17 22.0049 126.864 22.0049C126.604 22.0049 126.381 22.0618 126.194 22.1758C126.007 22.2897 125.855 22.4492 125.736 22.6543C125.622 22.8594 125.536 23.1009 125.477 23.3789C125.422 23.6523 125.395 23.9531 125.395 24.2812V24.5547C125.395 24.8509 125.436 25.1243 125.518 25.375C125.604 25.6257 125.725 25.8421 125.88 26.0244C126.039 26.2067 126.231 26.348 126.454 26.4482C126.682 26.5485 126.939 26.5986 127.227 26.5986C127.582 26.5986 127.912 26.5303 128.218 26.3936C128.528 26.2523 128.794 26.0404 129.018 25.7578L129.975 26.7969C129.82 27.0202 129.608 27.2344 129.339 27.4395C129.075 27.6445 128.756 27.8132 128.382 27.9453C128.008 28.0729 127.582 28.1367 127.104 28.1367ZM136.715 22.0254V30.8438H134.746V20.6035H136.571L136.715 22.0254ZM141.397 24.2197V24.3633C141.397 24.901 141.334 25.4001 141.206 25.8604C141.083 26.3206 140.901 26.7217 140.659 27.0635C140.418 27.4007 140.117 27.665 139.757 27.8564C139.401 28.0433 138.991 28.1367 138.526 28.1367C138.075 28.1367 137.683 28.0456 137.351 27.8633C137.018 27.681 136.738 27.4258 136.51 27.0977C136.286 26.765 136.106 26.3799 135.97 25.9424C135.833 25.5049 135.728 25.0355 135.655 24.5342V24.1582C135.728 23.6204 135.833 23.1283 135.97 22.6816C136.106 22.2305 136.286 21.8408 136.51 21.5127C136.738 21.18 137.016 20.9225 137.344 20.7402C137.676 20.5579 138.066 20.4668 138.513 20.4668C138.982 20.4668 139.395 20.5557 139.75 20.7334C140.11 20.9111 140.411 21.1663 140.652 21.499C140.898 21.8317 141.083 22.2282 141.206 22.6885C141.334 23.1488 141.397 23.6592 141.397 24.2197ZM139.422 24.3633V24.2197C139.422 23.9053 139.395 23.6159 139.34 23.3516C139.29 23.0827 139.208 22.848 139.094 22.6475C138.984 22.4469 138.839 22.292 138.656 22.1826C138.479 22.0687 138.262 22.0117 138.007 22.0117C137.738 22.0117 137.508 22.055 137.316 22.1416C137.13 22.2282 136.977 22.3535 136.858 22.5176C136.74 22.6816 136.651 22.8776 136.592 23.1055C136.533 23.3333 136.496 23.5908 136.482 23.8779V24.8281C136.505 25.1654 136.569 25.4684 136.674 25.7373C136.779 26.0016 136.94 26.2113 137.159 26.3662C137.378 26.5212 137.665 26.5986 138.021 26.5986C138.28 26.5986 138.499 26.5417 138.677 26.4277C138.854 26.3092 138.998 26.1475 139.107 25.9424C139.221 25.7373 139.301 25.5003 139.347 25.2314C139.397 24.9626 139.422 24.6732 139.422 24.3633ZM144.59 22.2168V28H142.621V20.6035H144.474L144.59 22.2168ZM146.818 20.5557L146.784 22.3809C146.688 22.3672 146.572 22.3558 146.436 22.3467C146.303 22.333 146.183 22.3262 146.073 22.3262C145.795 22.3262 145.554 22.3626 145.349 22.4355C145.148 22.5039 144.979 22.6064 144.843 22.7432C144.711 22.8799 144.61 23.0462 144.542 23.2422C144.478 23.4382 144.442 23.6615 144.433 23.9121L144.036 23.7891C144.036 23.3105 144.084 22.8708 144.18 22.4697C144.275 22.0641 144.414 21.7109 144.597 21.4102C144.784 21.1094 145.011 20.877 145.28 20.7129C145.549 20.5488 145.857 20.4668 146.203 20.4668C146.312 20.4668 146.424 20.4759 146.538 20.4941C146.652 20.5078 146.745 20.5283 146.818 20.5557ZM147.229 24.377V24.2334C147.229 23.6911 147.306 23.1921 147.461 22.7363C147.616 22.276 147.841 21.8773 148.138 21.54C148.434 21.2028 148.799 20.9408 149.231 20.7539C149.664 20.5625 150.161 20.4668 150.722 20.4668C151.282 20.4668 151.781 20.5625 152.219 20.7539C152.656 20.9408 153.023 21.2028 153.319 21.54C153.62 21.8773 153.848 22.276 154.003 22.7363C154.158 23.1921 154.235 23.6911 154.235 24.2334V24.377C154.235 24.9147 154.158 25.4137 154.003 25.874C153.848 26.3298 153.62 26.7285 153.319 27.0703C153.023 27.4076 152.659 27.6696 152.226 27.8564C151.793 28.0433 151.296 28.1367 150.735 28.1367C150.175 28.1367 149.676 28.0433 149.238 27.8564C148.805 27.6696 148.438 27.4076 148.138 27.0703C147.841 26.7285 147.616 26.3298 147.461 25.874C147.306 25.4137 147.229 24.9147 147.229 24.377ZM149.197 24.2334V24.377C149.197 24.6868 149.225 24.9762 149.279 25.2451C149.334 25.514 149.421 25.751 149.539 25.9561C149.662 26.1566 149.822 26.3138 150.018 26.4277C150.214 26.5417 150.453 26.5986 150.735 26.5986C151.009 26.5986 151.243 26.5417 151.439 26.4277C151.635 26.3138 151.793 26.1566 151.911 25.9561C152.03 25.751 152.116 25.514 152.171 25.2451C152.23 24.9762 152.26 24.6868 152.26 24.377V24.2334C152.26 23.9326 152.23 23.6501 152.171 23.3857C152.116 23.1169 152.027 22.8799 151.904 22.6748C151.786 22.4652 151.629 22.3011 151.433 22.1826C151.237 22.0641 151 22.0049 150.722 22.0049C150.444 22.0049 150.207 22.0641 150.011 22.1826C149.819 22.3011 149.662 22.4652 149.539 22.6748C149.421 22.8799 149.334 23.1169 149.279 23.3857C149.225 23.6501 149.197 23.9326 149.197 24.2334ZM157.414 22.0254V30.8438H155.445V20.6035H157.271L157.414 22.0254ZM162.097 24.2197V24.3633C162.097 24.901 162.033 25.4001 161.905 25.8604C161.782 26.3206 161.6 26.7217 161.358 27.0635C161.117 27.4007 160.816 27.665 160.456 27.8564C160.101 28.0433 159.69 28.1367 159.226 28.1367C158.774 28.1367 158.382 28.0456 158.05 27.8633C157.717 27.681 157.437 27.4258 157.209 27.0977C156.986 26.765 156.806 26.3799 156.669 25.9424C156.532 25.5049 156.427 25.0355 156.354 24.5342V24.1582C156.427 23.6204 156.532 23.1283 156.669 22.6816C156.806 22.2305 156.986 21.8408 157.209 21.5127C157.437 21.18 157.715 20.9225 158.043 20.7402C158.376 20.5579 158.765 20.4668 159.212 20.4668C159.681 20.4668 160.094 20.5557 160.449 20.7334C160.809 20.9111 161.11 21.1663 161.352 21.499C161.598 21.8317 161.782 22.2282 161.905 22.6885C162.033 23.1488 162.097 23.6592 162.097 24.2197ZM160.121 24.3633V24.2197C160.121 23.9053 160.094 23.6159 160.039 23.3516C159.989 23.0827 159.907 22.848 159.793 22.6475C159.684 22.4469 159.538 22.292 159.355 22.1826C159.178 22.0687 158.961 22.0117 158.706 22.0117C158.437 22.0117 158.207 22.055 158.016 22.1416C157.829 22.2282 157.676 22.3535 157.558 22.5176C157.439 22.6816 157.35 22.8776 157.291 23.1055C157.232 23.3333 157.195 23.5908 157.182 23.8779V24.8281C157.204 25.1654 157.268 25.4684 157.373 25.7373C157.478 26.0016 157.64 26.2113 157.858 26.3662C158.077 26.5212 158.364 26.5986 158.72 26.5986C158.979 26.5986 159.198 26.5417 159.376 26.4277C159.554 26.3092 159.697 26.1475 159.807 25.9424C159.921 25.7373 160 25.5003 160.046 25.2314C160.096 24.9626 160.121 24.6732 160.121 24.3633ZM166.725 28.1367C166.15 28.1367 165.635 28.0456 165.18 27.8633C164.724 27.6764 164.337 27.4189 164.018 27.0908C163.703 26.7627 163.462 26.3822 163.293 25.9492C163.124 25.5117 163.04 25.0469 163.04 24.5547V24.2812C163.04 23.7207 163.12 23.208 163.279 22.7432C163.439 22.2783 163.667 21.875 163.963 21.5332C164.264 21.1914 164.628 20.9294 165.057 20.7471C165.485 20.5602 165.968 20.4668 166.506 20.4668C167.03 20.4668 167.495 20.5534 167.9 20.7266C168.306 20.8997 168.646 21.1458 168.919 21.4648C169.197 21.7839 169.407 22.1667 169.548 22.6133C169.689 23.0553 169.76 23.5475 169.76 24.0898V24.9102H163.881V23.5977H167.825V23.4473C167.825 23.1738 167.775 22.93 167.675 22.7158C167.579 22.4971 167.433 22.3239 167.237 22.1963C167.041 22.0687 166.791 22.0049 166.485 22.0049C166.226 22.0049 166.002 22.0618 165.815 22.1758C165.629 22.2897 165.476 22.4492 165.357 22.6543C165.243 22.8594 165.157 23.1009 165.098 23.3789C165.043 23.6523 165.016 23.9531 165.016 24.2812V24.5547C165.016 24.8509 165.057 25.1243 165.139 25.375C165.225 25.6257 165.346 25.8421 165.501 26.0244C165.66 26.2067 165.852 26.348 166.075 26.4482C166.303 26.5485 166.561 26.5986 166.848 26.5986C167.203 26.5986 167.534 26.5303 167.839 26.3936C168.149 26.2523 168.415 26.0404 168.639 25.7578L169.596 26.7969C169.441 27.0202 169.229 27.2344 168.96 27.4395C168.696 27.6445 168.377 27.8132 168.003 27.9453C167.629 28.0729 167.203 28.1367 166.725 28.1367ZM172.85 22.2168V28H170.881V20.6035H172.733L172.85 22.2168ZM175.078 20.5557L175.044 22.3809C174.948 22.3672 174.832 22.3558 174.695 22.3467C174.563 22.333 174.442 22.3262 174.333 22.3262C174.055 22.3262 173.813 22.3626 173.608 22.4355C173.408 22.5039 173.239 22.6064 173.103 22.7432C172.97 22.8799 172.87 23.0462 172.802 23.2422C172.738 23.4382 172.701 23.6615 172.692 23.9121L172.296 23.7891C172.296 23.3105 172.344 22.8708 172.439 22.4697C172.535 22.0641 172.674 21.7109 172.856 21.4102C173.043 21.1094 173.271 20.877 173.54 20.7129C173.809 20.5488 174.117 20.4668 174.463 20.4668C174.572 20.4668 174.684 20.4759 174.798 20.4941C174.912 20.5078 175.005 20.5283 175.078 20.5557ZM179.973 20.6035V21.998H175.666V20.6035H179.973ZM176.732 18.7783H178.701V25.7715C178.701 25.9857 178.729 26.1497 178.783 26.2637C178.842 26.3776 178.929 26.4574 179.043 26.5029C179.157 26.5439 179.3 26.5645 179.474 26.5645C179.597 26.5645 179.706 26.5599 179.802 26.5508C179.902 26.5371 179.986 26.5234 180.055 26.5098L180.062 27.959C179.893 28.0137 179.711 28.057 179.515 28.0889C179.319 28.1208 179.102 28.1367 178.865 28.1367C178.432 28.1367 178.054 28.0661 177.73 27.9248C177.411 27.779 177.165 27.5465 176.992 27.2275C176.819 26.9085 176.732 26.4893 176.732 25.9697V18.7783ZM183.288 27.166L185.25 20.6035H187.362L184.389 29.1143C184.325 29.3011 184.238 29.5016 184.129 29.7158C184.024 29.93 183.881 30.1328 183.698 30.3242C183.521 30.5202 183.295 30.6797 183.021 30.8027C182.753 30.9258 182.422 30.9873 182.03 30.9873C181.843 30.9873 181.691 30.9759 181.572 30.9531C181.454 30.9303 181.312 30.8984 181.148 30.8574V29.415C181.199 29.415 181.251 29.415 181.306 29.415C181.36 29.4196 181.413 29.4219 181.463 29.4219C181.723 29.4219 181.935 29.3923 182.099 29.333C182.263 29.2738 182.395 29.1826 182.495 29.0596C182.595 28.9411 182.675 28.7861 182.734 28.5947L183.288 27.166ZM182.468 20.6035L184.074 25.9629L184.354 28.0479L183.015 28.1914L180.355 20.6035H182.468Z" fill="#091E25"/>
<path d="M58.1484 39.2246L55.3242 47H54.1699L57.4219 38.4688H58.166L58.1484 39.2246ZM60.5156 47L57.6855 39.2246L57.668 38.4688H58.4121L61.6758 47H60.5156ZM60.3691 43.8418V44.7676H55.5762V43.8418H60.3691ZM66.4629 45.5352V40.6602H67.5527V47H66.5156L66.4629 45.5352ZM66.668 44.1992L67.1191 44.1875C67.1191 44.6094 67.0742 45 66.9844 45.3594C66.8984 45.7148 66.7578 46.0234 66.5625 46.2852C66.3672 46.5469 66.1113 46.752 65.7949 46.9004C65.4785 47.0449 65.0938 47.1172 64.6406 47.1172C64.332 47.1172 64.0488 47.0723 63.791 46.9824C63.5371 46.8926 63.3184 46.7539 63.1348 46.5664C62.9512 46.3789 62.8086 46.1348 62.707 45.834C62.6094 45.5332 62.5605 45.1719 62.5605 44.75V40.6602H63.6445V44.7617C63.6445 45.0469 63.6758 45.2832 63.7383 45.4707C63.8047 45.6543 63.8926 45.8008 64.002 45.9102C64.1152 46.0156 64.2402 46.0898 64.377 46.1328C64.5176 46.1758 64.6621 46.1973 64.8105 46.1973C65.2715 46.1973 65.6367 46.1094 65.9062 45.9336C66.1758 45.7539 66.3691 45.5137 66.4863 45.2129C66.6074 44.9082 66.668 44.5703 66.668 44.1992ZM71.8594 40.6602V41.4922H68.4316V40.6602H71.8594ZM69.5918 39.1191H70.6758V45.4297C70.6758 45.6445 70.709 45.8066 70.7754 45.916C70.8418 46.0254 70.9277 46.0977 71.0332 46.1328C71.1387 46.168 71.252 46.1855 71.373 46.1855C71.4629 46.1855 71.5566 46.1777 71.6543 46.1621C71.7559 46.1426 71.832 46.127 71.8828 46.1152L71.8887 47C71.8027 47.0273 71.6895 47.0527 71.5488 47.0762C71.4121 47.1035 71.2461 47.1172 71.0508 47.1172C70.7852 47.1172 70.541 47.0645 70.3184 46.959C70.0957 46.8535 69.918 46.6777 69.7852 46.4316C69.6562 46.1816 69.5918 45.8457 69.5918 45.4238V39.1191ZM74.2148 38V47H73.1309V38H74.2148ZM73.957 43.5898L73.5059 43.5723C73.5098 43.1387 73.5742 42.7383 73.6992 42.3711C73.8242 42 74 41.6777 74.2266 41.4043C74.4531 41.1309 74.7227 40.9199 75.0352 40.7715C75.3516 40.6191 75.7012 40.543 76.084 40.543C76.3965 40.543 76.6777 40.5859 76.9277 40.6719C77.1777 40.7539 77.3906 40.8867 77.5664 41.0703C77.7461 41.2539 77.8828 41.4922 77.9766 41.7852C78.0703 42.0742 78.1172 42.4277 78.1172 42.8457V47H77.0273V42.834C77.0273 42.502 76.9785 42.2363 76.8809 42.0371C76.7832 41.834 76.6406 41.6875 76.4531 41.5977C76.2656 41.5039 76.0352 41.457 75.7617 41.457C75.4922 41.457 75.2461 41.5137 75.0234 41.627C74.8047 41.7402 74.6152 41.8965 74.4551 42.0957C74.2988 42.2949 74.1758 42.5234 74.0859 42.7812C74 43.0352 73.957 43.3047 73.957 43.5898ZM79.4531 43.9004V43.7656C79.4531 43.3086 79.5195 42.8848 79.6523 42.4941C79.7852 42.0996 79.9766 41.7578 80.2266 41.4688C80.4766 41.1758 80.7793 40.9492 81.1348 40.7891C81.4902 40.625 81.8887 40.543 82.3301 40.543C82.7754 40.543 83.1758 40.625 83.5312 40.7891C83.8906 40.9492 84.1953 41.1758 84.4453 41.4688C84.6992 41.7578 84.8926 42.0996 85.0254 42.4941C85.1582 42.8848 85.2246 43.3086 85.2246 43.7656V43.9004C85.2246 44.3574 85.1582 44.7812 85.0254 45.1719C84.8926 45.5625 84.6992 45.9043 84.4453 46.1973C84.1953 46.4863 83.8926 46.7129 83.5371 46.877C83.1855 47.0371 82.7871 47.1172 82.3418 47.1172C81.8965 47.1172 81.4961 47.0371 81.1406 46.877C80.7852 46.7129 80.4805 46.4863 80.2266 46.1973C79.9766 45.9043 79.7852 45.5625 79.6523 45.1719C79.5195 44.7812 79.4531 44.3574 79.4531 43.9004ZM80.5371 43.7656V43.9004C80.5371 44.2168 80.5742 44.5156 80.6484 44.7969C80.7227 45.0742 80.834 45.3203 80.9824 45.5352C81.1348 45.75 81.3242 45.9199 81.5508 46.0449C81.7773 46.166 82.041 46.2266 82.3418 46.2266C82.6387 46.2266 82.8984 46.166 83.1211 46.0449C83.3477 45.9199 83.5352 45.75 83.6836 45.5352C83.832 45.3203 83.9434 45.0742 84.0176 44.7969C84.0957 44.5156 84.1348 44.2168 84.1348 43.9004V43.7656C84.1348 43.4531 84.0957 43.1582 84.0176 42.8809C83.9434 42.5996 83.8301 42.3516 83.6777 42.1367C83.5293 41.918 83.3418 41.7461 83.1152 41.6211C82.8926 41.4961 82.6309 41.4336 82.3301 41.4336C82.0332 41.4336 81.7715 41.4961 81.5449 41.6211C81.3223 41.7461 81.1348 41.918 80.9824 42.1367C80.834 42.3516 80.7227 42.5996 80.6484 42.8809C80.5742 43.1582 80.5371 43.4531 80.5371 43.7656ZM87.668 41.6562V47H86.584V40.6602H87.6387L87.668 41.6562ZM89.6484 40.625L89.6426 41.6328C89.5527 41.6133 89.4668 41.6016 89.3848 41.5977C89.3066 41.5898 89.2168 41.5859 89.1152 41.5859C88.8652 41.5859 88.6445 41.625 88.4531 41.7031C88.2617 41.7812 88.0996 41.8906 87.9668 42.0312C87.834 42.1719 87.7285 42.3398 87.6504 42.5352C87.5762 42.7266 87.5273 42.9375 87.5039 43.168L87.1992 43.3438C87.1992 42.9609 87.2363 42.6016 87.3105 42.2656C87.3887 41.9297 87.5078 41.6328 87.668 41.375C87.8281 41.1133 88.0312 40.9102 88.2773 40.7656C88.5273 40.6172 88.8242 40.543 89.168 40.543C89.2461 40.543 89.3359 40.5527 89.4375 40.5723C89.5391 40.5879 89.6094 40.6055 89.6484 40.625ZM91.8281 40.6602V47H90.7383V40.6602H91.8281ZM90.6562 38.9785C90.6562 38.8027 90.709 38.6543 90.8145 38.5332C90.9238 38.4121 91.084 38.3516 91.2949 38.3516C91.502 38.3516 91.6602 38.4121 91.7695 38.5332C91.8828 38.6543 91.9395 38.8027 91.9395 38.9785C91.9395 39.1465 91.8828 39.291 91.7695 39.4121C91.6602 39.5293 91.502 39.5879 91.2949 39.5879C91.084 39.5879 90.9238 39.5293 90.8145 39.4121C90.709 39.291 90.6562 39.1465 90.6562 38.9785ZM98.291 46.1094V47H93.6797V46.1094H98.291ZM98.1211 41.4277L93.9258 47H93.2637V46.2031L97.4297 40.6602H98.1211V41.4277ZM97.6406 40.6602V41.5566H93.3105V40.6602H97.6406ZM102.059 47.1172C101.617 47.1172 101.217 47.043 100.857 46.8945C100.502 46.7422 100.195 46.5293 99.9375 46.2559C99.6836 45.9824 99.4883 45.6582 99.3516 45.2832C99.2148 44.9082 99.1465 44.498 99.1465 44.0527V43.8066C99.1465 43.291 99.2227 42.832 99.375 42.4297C99.5273 42.0234 99.7344 41.6797 99.9961 41.3984C100.258 41.1172 100.555 40.9043 100.887 40.7598C101.219 40.6152 101.562 40.543 101.918 40.543C102.371 40.543 102.762 40.6211 103.09 40.7773C103.422 40.9336 103.693 41.1523 103.904 41.4336C104.115 41.7109 104.271 42.0391 104.373 42.418C104.475 42.793 104.525 43.2031 104.525 43.6484V44.1348H99.791V43.25H103.441V43.168C103.426 42.8867 103.367 42.6133 103.266 42.3477C103.168 42.082 103.012 41.8633 102.797 41.6914C102.582 41.5195 102.289 41.4336 101.918 41.4336C101.672 41.4336 101.445 41.4863 101.238 41.5918C101.031 41.6934 100.854 41.8457 100.705 42.0488C100.557 42.252 100.441 42.5 100.359 42.793C100.277 43.0859 100.236 43.4238 100.236 43.8066V44.0527C100.236 44.3535 100.277 44.6367 100.359 44.9023C100.445 45.1641 100.568 45.3945 100.729 45.5938C100.893 45.793 101.09 45.9492 101.32 46.0625C101.555 46.1758 101.82 46.2324 102.117 46.2324C102.5 46.2324 102.824 46.1543 103.09 45.998C103.355 45.8418 103.588 45.6328 103.787 45.3711L104.443 45.8926C104.307 46.0996 104.133 46.2969 103.922 46.4844C103.711 46.6719 103.451 46.8242 103.143 46.9414C102.838 47.0586 102.477 47.1172 102.059 47.1172ZM109.787 45.7695V38H110.877V47H109.881L109.787 45.7695ZM105.521 43.9004V43.7773C105.521 43.293 105.58 42.8535 105.697 42.459C105.818 42.0605 105.988 41.7188 106.207 41.4336C106.43 41.1484 106.693 40.9297 106.998 40.7773C107.307 40.6211 107.65 40.543 108.029 40.543C108.428 40.543 108.775 40.6133 109.072 40.7539C109.373 40.8906 109.627 41.0918 109.834 41.3574C110.045 41.6191 110.211 41.9355 110.332 42.3066C110.453 42.6777 110.537 43.0977 110.584 43.5664V44.1055C110.541 44.5703 110.457 44.9883 110.332 45.3594C110.211 45.7305 110.045 46.0469 109.834 46.3086C109.627 46.5703 109.373 46.7715 109.072 46.9121C108.771 47.0488 108.42 47.1172 108.018 47.1172C107.646 47.1172 107.307 47.0371 106.998 46.877C106.693 46.7168 106.43 46.4922 106.207 46.2031C105.988 45.9141 105.818 45.5742 105.697 45.1836C105.58 44.7891 105.521 44.3613 105.521 43.9004ZM106.611 43.7773V43.9004C106.611 44.2168 106.643 44.5137 106.705 44.791C106.771 45.0684 106.873 45.3125 107.01 45.5234C107.146 45.7344 107.32 45.9004 107.531 46.0215C107.742 46.1387 107.994 46.1973 108.287 46.1973C108.646 46.1973 108.941 46.1211 109.172 45.9688C109.406 45.8164 109.594 45.6152 109.734 45.3652C109.875 45.1152 109.984 44.8438 110.062 44.5508V43.1387C110.016 42.9238 109.947 42.7168 109.857 42.5176C109.771 42.3145 109.658 42.1348 109.518 41.9785C109.381 41.8184 109.211 41.6914 109.008 41.5977C108.809 41.5039 108.572 41.457 108.299 41.457C108.002 41.457 107.746 41.5195 107.531 41.6445C107.32 41.7656 107.146 41.9336 107.01 42.1484C106.873 42.3594 106.771 42.6055 106.705 42.8867C106.643 43.1641 106.611 43.4609 106.611 43.7773ZM115.254 43.9004V43.7656C115.254 43.3086 115.32 42.8848 115.453 42.4941C115.586 42.0996 115.777 41.7578 116.027 41.4688C116.277 41.1758 116.58 40.9492 116.936 40.7891C117.291 40.625 117.689 40.543 118.131 40.543C118.576 40.543 118.977 40.625 119.332 40.7891C119.691 40.9492 119.996 41.1758 120.246 41.4688C120.5 41.7578 120.693 42.0996 120.826 42.4941C120.959 42.8848 121.025 43.3086 121.025 43.7656V43.9004C121.025 44.3574 120.959 44.7812 120.826 45.1719C120.693 45.5625 120.5 45.9043 120.246 46.1973C119.996 46.4863 119.693 46.7129 119.338 46.877C118.986 47.0371 118.588 47.1172 118.143 47.1172C117.697 47.1172 117.297 47.0371 116.941 46.877C116.586 46.7129 116.281 46.4863 116.027 46.1973C115.777 45.9043 115.586 45.5625 115.453 45.1719C115.32 44.7812 115.254 44.3574 115.254 43.9004ZM116.338 43.7656V43.9004C116.338 44.2168 116.375 44.5156 116.449 44.7969C116.523 45.0742 116.635 45.3203 116.783 45.5352C116.936 45.75 117.125 45.9199 117.352 46.0449C117.578 46.166 117.842 46.2266 118.143 46.2266C118.439 46.2266 118.699 46.166 118.922 46.0449C119.148 45.9199 119.336 45.75 119.484 45.5352C119.633 45.3203 119.744 45.0742 119.818 44.7969C119.896 44.5156 119.936 44.2168 119.936 43.9004V43.7656C119.936 43.4531 119.896 43.1582 119.818 42.8809C119.744 42.5996 119.631 42.3516 119.479 42.1367C119.33 41.918 119.143 41.7461 118.916 41.6211C118.693 41.4961 118.432 41.4336 118.131 41.4336C117.834 41.4336 117.572 41.4961 117.346 41.6211C117.123 41.7461 116.936 41.918 116.783 42.1367C116.635 42.3516 116.523 42.5996 116.449 42.8809C116.375 43.1582 116.338 43.4531 116.338 43.7656ZM124.002 47H122.918V39.9922C122.918 39.5352 123 39.1504 123.164 38.8379C123.332 38.5215 123.572 38.2832 123.885 38.123C124.197 37.959 124.568 37.877 124.998 37.877C125.123 37.877 125.248 37.8848 125.373 37.9004C125.502 37.916 125.627 37.9395 125.748 37.9707L125.689 38.8555C125.607 38.8359 125.514 38.8223 125.408 38.8145C125.307 38.8066 125.205 38.8027 125.104 38.8027C124.873 38.8027 124.674 38.8496 124.506 38.9434C124.342 39.0332 124.217 39.166 124.131 39.3418C124.045 39.5176 124.002 39.7344 124.002 39.9922V47ZM125.408 40.6602V41.4922H121.916V40.6602H125.408ZM127.43 47H126.346V40.1094C126.346 39.6289 126.438 39.2227 126.621 38.8906C126.809 38.5586 127.076 38.3066 127.424 38.1348C127.771 37.9629 128.184 37.877 128.66 37.877C128.945 37.877 129.223 37.9121 129.492 37.9824C129.762 38.0488 130.039 38.1328 130.324 38.2344L130.137 39.1484C129.961 39.0781 129.754 39.0117 129.516 38.9492C129.277 38.8828 129.02 38.8496 128.742 38.8496C128.277 38.8496 127.941 38.9551 127.734 39.166C127.531 39.373 127.43 39.6875 127.43 40.1094V47ZM128.725 40.6602V41.4922H125.344V40.6602H128.725ZM130.857 40.6602V47H129.773V40.6602H130.857ZM135.164 46.2266C135.422 46.2266 135.66 46.1738 135.879 46.0684C136.098 45.9629 136.277 45.8184 136.418 45.6348C136.559 45.4473 136.639 45.2344 136.658 44.9961H137.689C137.67 45.3711 137.543 45.7207 137.309 46.0449C137.078 46.3652 136.775 46.625 136.4 46.8242C136.025 47.0195 135.613 47.1172 135.164 47.1172C134.688 47.1172 134.271 47.0332 133.916 46.8652C133.564 46.6973 133.271 46.4668 133.037 46.1738C132.807 45.8809 132.633 45.5449 132.516 45.166C132.402 44.7832 132.346 44.3789 132.346 43.9531V43.707C132.346 43.2812 132.402 42.8789 132.516 42.5C132.633 42.1172 132.807 41.7793 133.037 41.4863C133.271 41.1934 133.564 40.9629 133.916 40.7949C134.271 40.627 134.688 40.543 135.164 40.543C135.66 40.543 136.094 40.6445 136.465 40.8477C136.836 41.0469 137.127 41.3203 137.338 41.668C137.553 42.0117 137.67 42.4023 137.689 42.8398H136.658C136.639 42.5781 136.564 42.3418 136.436 42.1309C136.311 41.9199 136.139 41.752 135.92 41.627C135.705 41.498 135.453 41.4336 135.164 41.4336C134.832 41.4336 134.553 41.5 134.326 41.6328C134.104 41.7617 133.926 41.9375 133.793 42.1602C133.664 42.3789 133.57 42.623 133.512 42.8926C133.457 43.1582 133.43 43.4297 133.43 43.707V43.9531C133.43 44.2305 133.457 44.5039 133.512 44.7734C133.566 45.043 133.658 45.2871 133.787 45.5059C133.92 45.7246 134.098 45.9004 134.32 46.0332C134.547 46.1621 134.828 46.2266 135.164 46.2266ZM141.539 47.1172C141.098 47.1172 140.697 47.043 140.338 46.8945C139.982 46.7422 139.676 46.5293 139.418 46.2559C139.164 45.9824 138.969 45.6582 138.832 45.2832C138.695 44.9082 138.627 44.498 138.627 44.0527V43.8066C138.627 43.291 138.703 42.832 138.855 42.4297C139.008 42.0234 139.215 41.6797 139.477 41.3984C139.738 41.1172 140.035 40.9043 140.367 40.7598C140.699 40.6152 141.043 40.543 141.398 40.543C141.852 40.543 142.242 40.6211 142.57 40.7773C142.902 40.9336 143.174 41.1523 143.385 41.4336C143.596 41.7109 143.752 42.0391 143.854 42.418C143.955 42.793 144.006 43.2031 144.006 43.6484V44.1348H139.271V43.25H142.922V43.168C142.906 42.8867 142.848 42.6133 142.746 42.3477C142.648 42.082 142.492 41.8633 142.277 41.6914C142.062 41.5195 141.77 41.4336 141.398 41.4336C141.152 41.4336 140.926 41.4863 140.719 41.5918C140.512 41.6934 140.334 41.8457 140.186 42.0488C140.037 42.252 139.922 42.5 139.84 42.793C139.758 43.0859 139.717 43.4238 139.717 43.8066V44.0527C139.717 44.3535 139.758 44.6367 139.84 44.9023C139.926 45.1641 140.049 45.3945 140.209 45.5938C140.373 45.793 140.57 45.9492 140.801 46.0625C141.035 46.1758 141.301 46.2324 141.598 46.2324C141.98 46.2324 142.305 46.1543 142.57 45.998C142.836 45.8418 143.068 45.6328 143.268 45.3711L143.924 45.8926C143.787 46.0996 143.613 46.2969 143.402 46.4844C143.191 46.6719 142.932 46.8242 142.623 46.9414C142.318 47.0586 141.957 47.1172 141.539 47.1172ZM146.355 41.6562V47H145.271V40.6602H146.326L146.355 41.6562ZM148.336 40.625L148.33 41.6328C148.24 41.6133 148.154 41.6016 148.072 41.5977C147.994 41.5898 147.904 41.5859 147.803 41.5859C147.553 41.5859 147.332 41.625 147.141 41.7031C146.949 41.7812 146.787 41.8906 146.654 42.0312C146.521 42.1719 146.416 42.3398 146.338 42.5352C146.264 42.7266 146.215 42.9375 146.191 43.168L145.887 43.3438C145.887 42.9609 145.924 42.6016 145.998 42.2656C146.076 41.9297 146.195 41.6328 146.355 41.375C146.516 41.1133 146.719 40.9102 146.965 40.7656C147.215 40.6172 147.512 40.543 147.855 40.543C147.934 40.543 148.023 40.5527 148.125 40.5723C148.227 40.5879 148.297 40.6055 148.336 40.625ZM153.398 41.6562V47H152.314V40.6602H153.369L153.398 41.6562ZM155.379 40.625L155.373 41.6328C155.283 41.6133 155.197 41.6016 155.115 41.5977C155.037 41.5898 154.947 41.5859 154.846 41.5859C154.596 41.5859 154.375 41.625 154.184 41.7031C153.992 41.7812 153.83 41.8906 153.697 42.0312C153.564 42.1719 153.459 42.3398 153.381 42.5352C153.307 42.7266 153.258 42.9375 153.234 43.168L152.93 43.3438C152.93 42.9609 152.967 42.6016 153.041 42.2656C153.119 41.9297 153.238 41.6328 153.398 41.375C153.559 41.1133 153.762 40.9102 154.008 40.7656C154.258 40.6172 154.555 40.543 154.898 40.543C154.977 40.543 155.066 40.5527 155.168 40.5723C155.27 40.5879 155.34 40.6055 155.379 40.625ZM158.895 47.1172C158.453 47.1172 158.053 47.043 157.693 46.8945C157.338 46.7422 157.031 46.5293 156.773 46.2559C156.52 45.9824 156.324 45.6582 156.188 45.2832C156.051 44.9082 155.982 44.498 155.982 44.0527V43.8066C155.982 43.291 156.059 42.832 156.211 42.4297C156.363 42.0234 156.57 41.6797 156.832 41.3984C157.094 41.1172 157.391 40.9043 157.723 40.7598C158.055 40.6152 158.398 40.543 158.754 40.543C159.207 40.543 159.598 40.6211 159.926 40.7773C160.258 40.9336 160.529 41.1523 160.74 41.4336C160.951 41.7109 161.107 42.0391 161.209 42.418C161.311 42.793 161.361 43.2031 161.361 43.6484V44.1348H156.627V43.25H160.277V43.168C160.262 42.8867 160.203 42.6133 160.102 42.3477C160.004 42.082 159.848 41.8633 159.633 41.6914C159.418 41.5195 159.125 41.4336 158.754 41.4336C158.508 41.4336 158.281 41.4863 158.074 41.5918C157.867 41.6934 157.689 41.8457 157.541 42.0488C157.393 42.252 157.277 42.5 157.195 42.793C157.113 43.0859 157.072 43.4238 157.072 43.8066V44.0527C157.072 44.3535 157.113 44.6367 157.195 44.9023C157.281 45.1641 157.404 45.3945 157.564 45.5938C157.729 45.793 157.926 45.9492 158.156 46.0625C158.391 46.1758 158.656 46.2324 158.953 46.2324C159.336 46.2324 159.66 46.1543 159.926 45.998C160.191 45.8418 160.424 45.6328 160.623 45.3711L161.279 45.8926C161.143 46.0996 160.969 46.2969 160.758 46.4844C160.547 46.6719 160.287 46.8242 159.979 46.9414C159.674 47.0586 159.312 47.1172 158.895 47.1172ZM166.734 40.6602H167.719V46.8652C167.719 47.4238 167.605 47.9004 167.379 48.2949C167.152 48.6895 166.836 48.9883 166.43 49.1914C166.027 49.3984 165.562 49.502 165.035 49.502C164.816 49.502 164.559 49.4668 164.262 49.3965C163.969 49.3301 163.68 49.2148 163.395 49.0508C163.113 48.8906 162.877 48.6738 162.686 48.4004L163.254 47.7559C163.52 48.0762 163.797 48.2988 164.086 48.4238C164.379 48.5488 164.668 48.6113 164.953 48.6113C165.297 48.6113 165.594 48.5469 165.844 48.418C166.094 48.2891 166.287 48.0977 166.424 47.8438C166.564 47.5938 166.635 47.2852 166.635 46.918V42.0547L166.734 40.6602ZM162.369 43.9004V43.7773C162.369 43.293 162.426 42.8535 162.539 42.459C162.656 42.0605 162.822 41.7188 163.037 41.4336C163.256 41.1484 163.52 40.9297 163.828 40.7773C164.137 40.6211 164.484 40.543 164.871 40.543C165.27 40.543 165.617 40.6133 165.914 40.7539C166.215 40.8906 166.469 41.0918 166.676 41.3574C166.887 41.6191 167.053 41.9355 167.174 42.3066C167.295 42.6777 167.379 43.0977 167.426 43.5664V44.1055C167.383 44.5703 167.299 44.9883 167.174 45.3594C167.053 45.7305 166.887 46.0469 166.676 46.3086C166.469 46.5703 166.215 46.7715 165.914 46.9121C165.613 47.0488 165.262 47.1172 164.859 47.1172C164.48 47.1172 164.137 47.0371 163.828 46.877C163.523 46.7168 163.262 46.4922 163.043 46.2031C162.824 45.9141 162.656 45.5742 162.539 45.1836C162.426 44.7891 162.369 44.3613 162.369 43.9004ZM163.453 43.7773V43.9004C163.453 44.2168 163.484 44.5137 163.547 44.791C163.613 45.0684 163.713 45.3125 163.846 45.5234C163.982 45.7344 164.156 45.9004 164.367 46.0215C164.578 46.1387 164.83 46.1973 165.123 46.1973C165.482 46.1973 165.779 46.1211 166.014 45.9688C166.248 45.8164 166.434 45.6152 166.57 45.3652C166.711 45.1152 166.82 44.8438 166.898 44.5508V43.1387C166.855 42.9238 166.789 42.7168 166.699 42.5176C166.613 42.3145 166.5 42.1348 166.359 41.9785C166.223 41.8184 166.053 41.6914 165.85 41.5977C165.646 41.5039 165.408 41.457 165.135 41.457C164.838 41.457 164.582 41.5195 164.367 41.6445C164.156 41.7656 163.982 41.9336 163.846 42.1484C163.713 42.3594 163.613 42.6055 163.547 42.8867C163.484 43.1641 163.453 43.4609 163.453 43.7773ZM170.543 40.6602V47H169.453V40.6602H170.543ZM169.371 38.9785C169.371 38.8027 169.424 38.6543 169.529 38.5332C169.639 38.4121 169.799 38.3516 170.01 38.3516C170.217 38.3516 170.375 38.4121 170.484 38.5332C170.598 38.6543 170.654 38.8027 170.654 38.9785C170.654 39.1465 170.598 39.291 170.484 39.4121C170.375 39.5293 170.217 39.5879 170.01 39.5879C169.799 39.5879 169.639 39.5293 169.529 39.4121C169.424 39.291 169.371 39.1465 169.371 38.9785ZM175.975 45.3184C175.975 45.1621 175.939 45.0176 175.869 44.8848C175.803 44.748 175.664 44.625 175.453 44.5156C175.246 44.4023 174.934 44.3047 174.516 44.2227C174.164 44.1484 173.846 44.0605 173.561 43.959C173.279 43.8574 173.039 43.7344 172.84 43.5898C172.645 43.4453 172.494 43.2754 172.389 43.0801C172.283 42.8848 172.23 42.6562 172.23 42.3945C172.23 42.1445 172.285 41.9082 172.395 41.6855C172.508 41.4629 172.666 41.2656 172.869 41.0938C173.076 40.9219 173.324 40.7871 173.613 40.6895C173.902 40.5918 174.225 40.543 174.58 40.543C175.088 40.543 175.521 40.6328 175.881 40.8125C176.24 40.9922 176.516 41.2324 176.707 41.5332C176.898 41.8301 176.994 42.1602 176.994 42.5234H175.91C175.91 42.3477 175.857 42.1777 175.752 42.0137C175.65 41.8457 175.5 41.707 175.301 41.5977C175.105 41.4883 174.865 41.4336 174.58 41.4336C174.279 41.4336 174.035 41.4805 173.848 41.5742C173.664 41.6641 173.529 41.7793 173.443 41.9199C173.361 42.0605 173.32 42.209 173.32 42.3652C173.32 42.4824 173.34 42.5879 173.379 42.6816C173.422 42.7715 173.496 42.8555 173.602 42.9336C173.707 43.0078 173.855 43.0781 174.047 43.1445C174.238 43.2109 174.482 43.2773 174.779 43.3438C175.299 43.4609 175.727 43.6016 176.062 43.7656C176.398 43.9297 176.648 44.1309 176.812 44.3691C176.977 44.6074 177.059 44.8965 177.059 45.2363C177.059 45.5137 177 45.7676 176.883 45.998C176.77 46.2285 176.604 46.4277 176.385 46.5957C176.17 46.7598 175.912 46.8887 175.611 46.9824C175.314 47.0723 174.98 47.1172 174.609 47.1172C174.051 47.1172 173.578 47.0176 173.191 46.8184C172.805 46.6191 172.512 46.3613 172.312 46.0449C172.113 45.7285 172.014 45.3945 172.014 45.043H173.104C173.119 45.3398 173.205 45.5762 173.361 45.752C173.518 45.9238 173.709 46.0469 173.936 46.1211C174.162 46.1914 174.387 46.2266 174.609 46.2266C174.906 46.2266 175.154 46.1875 175.354 46.1094C175.557 46.0312 175.711 45.9238 175.816 45.7871C175.922 45.6504 175.975 45.4941 175.975 45.3184ZM181.137 40.6602V41.4922H177.709V40.6602H181.137ZM178.869 39.1191H179.953V45.4297C179.953 45.6445 179.986 45.8066 180.053 45.916C180.119 46.0254 180.205 46.0977 180.311 46.1328C180.416 46.168 180.529 46.1855 180.65 46.1855C180.74 46.1855 180.834 46.1777 180.932 46.1621C181.033 46.1426 181.109 46.127 181.16 46.1152L181.166 47C181.08 47.0273 180.967 47.0527 180.826 47.0762C180.689 47.1035 180.523 47.1172 180.328 47.1172C180.062 47.1172 179.818 47.0645 179.596 46.959C179.373 46.8535 179.195 46.6777 179.062 46.4316C178.934 46.1816 178.869 45.8457 178.869 45.4238V39.1191ZM185.039 47.1172C184.598 47.1172 184.197 47.043 183.838 46.8945C183.482 46.7422 183.176 46.5293 182.918 46.2559C182.664 45.9824 182.469 45.6582 182.332 45.2832C182.195 44.9082 182.127 44.498 182.127 44.0527V43.8066C182.127 43.291 182.203 42.832 182.355 42.4297C182.508 42.0234 182.715 41.6797 182.977 41.3984C183.238 41.1172 183.535 40.9043 183.867 40.7598C184.199 40.6152 184.543 40.543 184.898 40.543C185.352 40.543 185.742 40.6211 186.07 40.7773C186.402 40.9336 186.674 41.1523 186.885 41.4336C187.096 41.7109 187.252 42.0391 187.354 42.418C187.455 42.793 187.506 43.2031 187.506 43.6484V44.1348H182.771V43.25H186.422V43.168C186.406 42.8867 186.348 42.6133 186.246 42.3477C186.148 42.082 185.992 41.8633 185.777 41.6914C185.562 41.5195 185.27 41.4336 184.898 41.4336C184.652 41.4336 184.426 41.4863 184.219 41.5918C184.012 41.6934 183.834 41.8457 183.686 42.0488C183.537 42.252 183.422 42.5 183.34 42.793C183.258 43.0859 183.217 43.4238 183.217 43.8066V44.0527C183.217 44.3535 183.258 44.6367 183.34 44.9023C183.426 45.1641 183.549 45.3945 183.709 45.5938C183.873 45.793 184.07 45.9492 184.301 46.0625C184.535 46.1758 184.801 46.2324 185.098 46.2324C185.48 46.2324 185.805 46.1543 186.07 45.998C186.336 45.8418 186.568 45.6328 186.768 45.3711L187.424 45.8926C187.287 46.0996 187.113 46.2969 186.902 46.4844C186.691 46.6719 186.432 46.8242 186.123 46.9414C185.818 47.0586 185.457 47.1172 185.039 47.1172ZM189.855 41.6562V47H188.771V40.6602H189.826L189.855 41.6562ZM191.836 40.625L191.83 41.6328C191.74 41.6133 191.654 41.6016 191.572 41.5977C191.494 41.5898 191.404 41.5859 191.303 41.5859C191.053 41.5859 190.832 41.625 190.641 41.7031C190.449 41.7812 190.287 41.8906 190.154 42.0312C190.021 42.1719 189.916 42.3398 189.838 42.5352C189.764 42.7266 189.715 42.9375 189.691 43.168L189.387 43.3438C189.387 42.9609 189.424 42.6016 189.498 42.2656C189.576 41.9297 189.695 41.6328 189.855 41.375C190.016 41.1133 190.219 40.9102 190.465 40.7656C190.715 40.6172 191.012 40.543 191.355 40.543C191.434 40.543 191.523 40.5527 191.625 40.5723C191.727 40.5879 191.797 40.6055 191.836 40.625ZM196.529 45.3184C196.529 45.1621 196.494 45.0176 196.424 44.8848C196.357 44.748 196.219 44.625 196.008 44.5156C195.801 44.4023 195.488 44.3047 195.07 44.2227C194.719 44.1484 194.4 44.0605 194.115 43.959C193.834 43.8574 193.594 43.7344 193.395 43.5898C193.199 43.4453 193.049 43.2754 192.943 43.0801C192.838 42.8848 192.785 42.6562 192.785 42.3945C192.785 42.1445 192.84 41.9082 192.949 41.6855C193.062 41.4629 193.221 41.2656 193.424 41.0938C193.631 40.9219 193.879 40.7871 194.168 40.6895C194.457 40.5918 194.779 40.543 195.135 40.543C195.643 40.543 196.076 40.6328 196.436 40.8125C196.795 40.9922 197.07 41.2324 197.262 41.5332C197.453 41.8301 197.549 42.1602 197.549 42.5234H196.465C196.465 42.3477 196.412 42.1777 196.307 42.0137C196.205 41.8457 196.055 41.707 195.855 41.5977C195.66 41.4883 195.42 41.4336 195.135 41.4336C194.834 41.4336 194.59 41.4805 194.402 41.5742C194.219 41.6641 194.084 41.7793 193.998 41.9199C193.916 42.0605 193.875 42.209 193.875 42.3652C193.875 42.4824 193.895 42.5879 193.934 42.6816C193.977 42.7715 194.051 42.8555 194.156 42.9336C194.262 43.0078 194.41 43.0781 194.602 43.1445C194.793 43.2109 195.037 43.2773 195.334 43.3438C195.854 43.4609 196.281 43.6016 196.617 43.7656C196.953 43.9297 197.203 44.1309 197.367 44.3691C197.531 44.6074 197.613 44.8965 197.613 45.2363C197.613 45.5137 197.555 45.7676 197.438 45.998C197.324 46.2285 197.158 46.4277 196.939 46.5957C196.725 46.7598 196.467 46.8887 196.166 46.9824C195.869 47.0723 195.535 47.1172 195.164 47.1172C194.605 47.1172 194.133 47.0176 193.746 46.8184C193.359 46.6191 193.066 46.3613 192.867 46.0449C192.668 45.7285 192.568 45.3945 192.568 45.043H193.658C193.674 45.3398 193.76 45.5762 193.916 45.752C194.072 45.9238 194.264 46.0469 194.49 46.1211C194.717 46.1914 194.941 46.2266 195.164 46.2266C195.461 46.2266 195.709 46.1875 195.908 46.1094C196.111 46.0312 196.266 45.9238 196.371 45.7871C196.477 45.6504 196.529 45.4941 196.529 45.3184ZM204.668 40.6602V41.4922H201.24V40.6602H204.668ZM202.4 39.1191H203.484V45.4297C203.484 45.6445 203.518 45.8066 203.584 45.916C203.65 46.0254 203.736 46.0977 203.842 46.1328C203.947 46.168 204.061 46.1855 204.182 46.1855C204.271 46.1855 204.365 46.1777 204.463 46.1621C204.564 46.1426 204.641 46.127 204.691 46.1152L204.697 47C204.611 47.0273 204.498 47.0527 204.357 47.0762C204.221 47.1035 204.055 47.1172 203.859 47.1172C203.594 47.1172 203.35 47.0645 203.127 46.959C202.904 46.8535 202.727 46.6777 202.594 46.4316C202.465 46.1816 202.4 45.8457 202.4 45.4238V39.1191ZM207.023 38V47H205.939V38H207.023ZM206.766 43.5898L206.314 43.5723C206.318 43.1387 206.383 42.7383 206.508 42.3711C206.633 42 206.809 41.6777 207.035 41.4043C207.262 41.1309 207.531 40.9199 207.844 40.7715C208.16 40.6191 208.51 40.543 208.893 40.543C209.205 40.543 209.486 40.5859 209.736 40.6719C209.986 40.7539 210.199 40.8867 210.375 41.0703C210.555 41.2539 210.691 41.4922 210.785 41.7852C210.879 42.0742 210.926 42.4277 210.926 42.8457V47H209.836V42.834C209.836 42.502 209.787 42.2363 209.689 42.0371C209.592 41.834 209.449 41.6875 209.262 41.5977C209.074 41.5039 208.844 41.457 208.57 41.457C208.301 41.457 208.055 41.5137 207.832 41.627C207.613 41.7402 207.424 41.8965 207.264 42.0957C207.107 42.2949 206.984 42.5234 206.895 42.7812C206.809 43.0352 206.766 43.3047 206.766 43.5898ZM215.18 47.1172C214.738 47.1172 214.338 47.043 213.979 46.8945C213.623 46.7422 213.316 46.5293 213.059 46.2559C212.805 45.9824 212.609 45.6582 212.473 45.2832C212.336 44.9082 212.268 44.498 212.268 44.0527V43.8066C212.268 43.291 212.344 42.832 212.496 42.4297C212.648 42.0234 212.855 41.6797 213.117 41.3984C213.379 41.1172 213.676 40.9043 214.008 40.7598C214.34 40.6152 214.684 40.543 215.039 40.543C215.492 40.543 215.883 40.6211 216.211 40.7773C216.543 40.9336 216.814 41.1523 217.025 41.4336C217.236 41.7109 217.393 42.0391 217.494 42.418C217.596 42.793 217.646 43.2031 217.646 43.6484V44.1348H212.912V43.25H216.562V43.168C216.547 42.8867 216.488 42.6133 216.387 42.3477C216.289 42.082 216.133 41.8633 215.918 41.6914C215.703 41.5195 215.41 41.4336 215.039 41.4336C214.793 41.4336 214.566 41.4863 214.359 41.5918C214.152 41.6934 213.975 41.8457 213.826 42.0488C213.678 42.252 213.562 42.5 213.48 42.793C213.398 43.0859 213.357 43.4238 213.357 43.8066V44.0527C213.357 44.3535 213.398 44.6367 213.48 44.9023C213.566 45.1641 213.689 45.3945 213.85 45.5938C214.014 45.793 214.211 45.9492 214.441 46.0625C214.676 46.1758 214.941 46.2324 215.238 46.2324C215.621 46.2324 215.945 46.1543 216.211 45.998C216.477 45.8418 216.709 45.6328 216.908 45.3711L217.564 45.8926C217.428 46.0996 217.254 46.2969 217.043 46.4844C216.832 46.6719 216.572 46.8242 216.264 46.9414C215.959 47.0586 215.598 47.1172 215.18 47.1172ZM55.9102 55.8789V63.4375H54.8203V54.6602H55.8164L55.9102 55.8789ZM60.1816 57.7773V57.9004C60.1816 58.3613 60.127 58.7891 60.0176 59.1836C59.9082 59.5742 59.748 59.9141 59.5371 60.2031C59.3301 60.4922 59.0742 60.7168 58.7695 60.877C58.4648 61.0371 58.1152 61.1172 57.7207 61.1172C57.3184 61.1172 56.9629 61.0508 56.6543 60.918C56.3457 60.7852 56.084 60.5918 55.8691 60.3379C55.6543 60.084 55.4824 59.7793 55.3535 59.4238C55.2285 59.0684 55.1426 58.668 55.0957 58.2227V57.5664C55.1426 57.0977 55.2305 56.6777 55.3594 56.3066C55.4883 55.9355 55.6582 55.6191 55.8691 55.3574C56.084 55.0918 56.3438 54.8906 56.6484 54.7539C56.9531 54.6133 57.3047 54.543 57.7031 54.543C58.1016 54.543 58.4551 54.6211 58.7637 54.7773C59.0723 54.9297 59.332 55.1484 59.543 55.4336C59.7539 55.7188 59.9121 56.0605 60.0176 56.459C60.127 56.8535 60.1816 57.293 60.1816 57.7773ZM59.0918 57.9004V57.7773C59.0918 57.4609 59.0586 57.1641 58.9922 56.8867C58.9258 56.6055 58.8223 56.3594 58.6816 56.1484C58.5449 55.9336 58.3691 55.7656 58.1543 55.6445C57.9395 55.5195 57.6836 55.457 57.3867 55.457C57.1133 55.457 56.875 55.5039 56.6719 55.5977C56.4727 55.6914 56.3027 55.8184 56.1621 55.9785C56.0215 56.1348 55.9062 56.3145 55.8164 56.5176C55.7305 56.7168 55.666 56.9238 55.623 57.1387V58.6562C55.7012 58.9297 55.8105 59.1875 55.9512 59.4297C56.0918 59.668 56.2793 59.8613 56.5137 60.0098C56.748 60.1543 57.043 60.2266 57.3984 60.2266C57.6914 60.2266 57.9434 60.166 58.1543 60.0449C58.3691 59.9199 58.5449 59.75 58.6816 59.5352C58.8223 59.3203 58.9258 59.0742 58.9922 58.7969C59.0586 58.5156 59.0918 58.2168 59.0918 57.9004ZM62.6484 55.6562V61H61.5645V54.6602H62.6191L62.6484 55.6562ZM64.6289 54.625L64.623 55.6328C64.5332 55.6133 64.4473 55.6016 64.3652 55.5977C64.2871 55.5898 64.1973 55.5859 64.0957 55.5859C63.8457 55.5859 63.625 55.625 63.4336 55.7031C63.2422 55.7812 63.0801 55.8906 62.9473 56.0312C62.8145 56.1719 62.709 56.3398 62.6309 56.5352C62.5566 56.7266 62.5078 56.9375 62.4844 57.168L62.1797 57.3438C62.1797 56.9609 62.2168 56.6016 62.291 56.2656C62.3691 55.9297 62.4883 55.6328 62.6484 55.375C62.8086 55.1133 63.0117 54.9102 63.2578 54.7656C63.5078 54.6172 63.8047 54.543 64.1484 54.543C64.2266 54.543 64.3164 54.5527 64.418 54.5723C64.5195 54.5879 64.5898 54.6055 64.6289 54.625ZM65.2266 57.9004V57.7656C65.2266 57.3086 65.293 56.8848 65.4258 56.4941C65.5586 56.0996 65.75 55.7578 66 55.4688C66.25 55.1758 66.5527 54.9492 66.9082 54.7891C67.2637 54.625 67.6621 54.543 68.1035 54.543C68.5488 54.543 68.9492 54.625 69.3047 54.7891C69.6641 54.9492 69.9688 55.1758 70.2188 55.4688C70.4727 55.7578 70.666 56.0996 70.7988 56.4941C70.9316 56.8848 70.998 57.3086 70.998 57.7656V57.9004C70.998 58.3574 70.9316 58.7812 70.7988 59.1719C70.666 59.5625 70.4727 59.9043 70.2188 60.1973C69.9688 60.4863 69.666 60.7129 69.3105 60.877C68.959 61.0371 68.5605 61.1172 68.1152 61.1172C67.6699 61.1172 67.2695 61.0371 66.9141 60.877C66.5586 60.7129 66.2539 60.4863 66 60.1973C65.75 59.9043 65.5586 59.5625 65.4258 59.1719C65.293 58.7812 65.2266 58.3574 65.2266 57.9004ZM66.3105 57.7656V57.9004C66.3105 58.2168 66.3477 58.5156 66.4219 58.7969C66.4961 59.0742 66.6074 59.3203 66.7559 59.5352C66.9082 59.75 67.0977 59.9199 67.3242 60.0449C67.5508 60.166 67.8145 60.2266 68.1152 60.2266C68.4121 60.2266 68.6719 60.166 68.8945 60.0449C69.1211 59.9199 69.3086 59.75 69.457 59.5352C69.6055 59.3203 69.7168 59.0742 69.791 58.7969C69.8691 58.5156 69.9082 58.2168 69.9082 57.9004V57.7656C69.9082 57.4531 69.8691 57.1582 69.791 56.8809C69.7168 56.5996 69.6035 56.3516 69.4512 56.1367C69.3027 55.918 69.1152 55.7461 68.8887 55.6211C68.666 55.4961 68.4043 55.4336 68.1035 55.4336C67.8066 55.4336 67.5449 55.4961 67.3184 55.6211C67.0957 55.7461 66.9082 55.918 66.7559 56.1367C66.6074 56.3516 66.4961 56.5996 66.4219 56.8809C66.3477 57.1582 66.3105 57.4531 66.3105 57.7656ZM73.4414 55.8789V63.4375H72.3516V54.6602H73.3477L73.4414 55.8789ZM77.7129 57.7773V57.9004C77.7129 58.3613 77.6582 58.7891 77.5488 59.1836C77.4395 59.5742 77.2793 59.9141 77.0684 60.2031C76.8613 60.4922 76.6055 60.7168 76.3008 60.877C75.9961 61.0371 75.6465 61.1172 75.252 61.1172C74.8496 61.1172 74.4941 61.0508 74.1855 60.918C73.877 60.7852 73.6152 60.5918 73.4004 60.3379C73.1855 60.084 73.0137 59.7793 72.8848 59.4238C72.7598 59.0684 72.6738 58.668 72.627 58.2227V57.5664C72.6738 57.0977 72.7617 56.6777 72.8906 56.3066C73.0195 55.9355 73.1895 55.6191 73.4004 55.3574C73.6152 55.0918 73.875 54.8906 74.1797 54.7539C74.4844 54.6133 74.8359 54.543 75.2344 54.543C75.6328 54.543 75.9863 54.6211 76.2949 54.7773C76.6035 54.9297 76.8633 55.1484 77.0742 55.4336C77.2852 55.7188 77.4434 56.0605 77.5488 56.459C77.6582 56.8535 77.7129 57.293 77.7129 57.7773ZM76.623 57.9004V57.7773C76.623 57.4609 76.5898 57.1641 76.5234 56.8867C76.457 56.6055 76.3535 56.3594 76.2129 56.1484C76.0762 55.9336 75.9004 55.7656 75.6855 55.6445C75.4707 55.5195 75.2148 55.457 74.918 55.457C74.6445 55.457 74.4062 55.5039 74.2031 55.5977C74.0039 55.6914 73.834 55.8184 73.6934 55.9785C73.5527 56.1348 73.4375 56.3145 73.3477 56.5176C73.2617 56.7168 73.1973 56.9238 73.1543 57.1387V58.6562C73.2324 58.9297 73.3418 59.1875 73.4824 59.4297C73.623 59.668 73.8105 59.8613 74.0449 60.0098C74.2793 60.1543 74.5742 60.2266 74.9297 60.2266C75.2227 60.2266 75.4746 60.166 75.6855 60.0449C75.9004 59.9199 76.0762 59.75 76.2129 59.5352C76.3535 59.3203 76.457 59.0742 76.5234 58.7969C76.5898 58.5156 76.623 58.2168 76.623 57.9004ZM81.7266 61.1172C81.2852 61.1172 80.8848 61.043 80.5254 60.8945C80.1699 60.7422 79.8633 60.5293 79.6055 60.2559C79.3516 59.9824 79.1562 59.6582 79.0195 59.2832C78.8828 58.9082 78.8145 58.498 78.8145 58.0527V57.8066C78.8145 57.291 78.8906 56.832 79.043 56.4297C79.1953 56.0234 79.4023 55.6797 79.6641 55.3984C79.9258 55.1172 80.2227 54.9043 80.5547 54.7598C80.8867 54.6152 81.2305 54.543 81.5859 54.543C82.0391 54.543 82.4297 54.6211 82.7578 54.7773C83.0898 54.9336 83.3613 55.1523 83.5723 55.4336C83.7832 55.7109 83.9395 56.0391 84.041 56.418C84.1426 56.793 84.1934 57.2031 84.1934 57.6484V58.1348H79.459V57.25H83.1094V57.168C83.0938 56.8867 83.0352 56.6133 82.9336 56.3477C82.8359 56.082 82.6797 55.8633 82.4648 55.6914C82.25 55.5195 81.957 55.4336 81.5859 55.4336C81.3398 55.4336 81.1133 55.4863 80.9062 55.5918C80.6992 55.6934 80.5215 55.8457 80.373 56.0488C80.2246 56.252 80.1094 56.5 80.0273 56.793C79.9453 57.0859 79.9043 57.4238 79.9043 57.8066V58.0527C79.9043 58.3535 79.9453 58.6367 80.0273 58.9023C80.1133 59.1641 80.2363 59.3945 80.3965 59.5938C80.5605 59.793 80.7578 59.9492 80.9883 60.0625C81.2227 60.1758 81.4883 60.2324 81.7852 60.2324C82.168 60.2324 82.4922 60.1543 82.7578 59.998C83.0234 59.8418 83.2559 59.6328 83.4551 59.3711L84.1113 59.8926C83.9746 60.0996 83.8008 60.2969 83.5898 60.4844C83.3789 60.6719 83.1191 60.8242 82.8105 60.9414C82.5059 61.0586 82.1445 61.1172 81.7266 61.1172ZM86.543 55.6562V61H85.459V54.6602H86.5137L86.543 55.6562ZM88.5234 54.625L88.5176 55.6328C88.4277 55.6133 88.3418 55.6016 88.2598 55.5977C88.1816 55.5898 88.0918 55.5859 87.9902 55.5859C87.7402 55.5859 87.5195 55.625 87.3281 55.7031C87.1367 55.7812 86.9746 55.8906 86.8418 56.0312C86.709 56.1719 86.6035 56.3398 86.5254 56.5352C86.4512 56.7266 86.4023 56.9375 86.3789 57.168L86.0742 57.3438C86.0742 56.9609 86.1113 56.6016 86.1855 56.2656C86.2637 55.9297 86.3828 55.6328 86.543 55.375C86.7031 55.1133 86.9062 54.9102 87.1523 54.7656C87.4023 54.6172 87.6992 54.543 88.043 54.543C88.1211 54.543 88.2109 54.5527 88.3125 54.5723C88.4141 54.5879 88.4844 54.6055 88.5234 54.625ZM92.4727 54.6602V55.4922H89.0449V54.6602H92.4727ZM90.2051 53.1191H91.2891V59.4297C91.2891 59.6445 91.3223 59.8066 91.3887 59.916C91.4551 60.0254 91.541 60.0977 91.6465 60.1328C91.752 60.168 91.8652 60.1855 91.9863 60.1855C92.0762 60.1855 92.1699 60.1777 92.2676 60.1621C92.3691 60.1426 92.4453 60.127 92.4961 60.1152L92.502 61C92.416 61.0273 92.3027 61.0527 92.1621 61.0762C92.0254 61.1035 91.8594 61.1172 91.6641 61.1172C91.3984 61.1172 91.1543 61.0645 90.9316 60.959C90.709 60.8535 90.5312 60.6777 90.3984 60.4316C90.2695 60.1816 90.2051 59.8457 90.2051 59.4238V53.1191ZM95.5254 60.3438L97.2891 54.6602H98.4492L95.9062 61.9785C95.8477 62.1348 95.7695 62.3027 95.6719 62.4824C95.5781 62.666 95.457 62.8398 95.3086 63.0039C95.1602 63.168 94.9805 63.3008 94.7695 63.4023C94.5625 63.5078 94.3145 63.5605 94.0254 63.5605C93.9395 63.5605 93.8301 63.5488 93.6973 63.5254C93.5645 63.502 93.4707 63.4824 93.416 63.4668L93.4102 62.5879C93.4414 62.5918 93.4902 62.5957 93.5566 62.5996C93.627 62.6074 93.6758 62.6113 93.7031 62.6113C93.9492 62.6113 94.1582 62.5781 94.3301 62.5117C94.502 62.4492 94.6465 62.3418 94.7637 62.1895C94.8848 62.041 94.9883 61.8359 95.0742 61.5742L95.5254 60.3438ZM94.2305 54.6602L95.877 59.582L96.1582 60.7246L95.3789 61.123L93.0469 54.6602H94.2305ZM103.582 54.6602V61H102.492V54.6602H103.582ZM102.41 52.9785C102.41 52.8027 102.463 52.6543 102.568 52.5332C102.678 52.4121 102.838 52.3516 103.049 52.3516C103.256 52.3516 103.414 52.4121 103.523 52.5332C103.637 52.6543 103.693 52.8027 103.693 52.9785C103.693 53.1465 103.637 53.291 103.523 53.4121C103.414 53.5293 103.256 53.5879 103.049 53.5879C102.838 53.5879 102.678 53.5293 102.568 53.4121C102.463 53.291 102.41 53.1465 102.41 52.9785ZM106.406 56.0137V61H105.322V54.6602H106.348L106.406 56.0137ZM106.148 57.5898L105.697 57.5723C105.701 57.1387 105.766 56.7383 105.891 56.3711C106.016 56 106.191 55.6777 106.418 55.4043C106.645 55.1309 106.914 54.9199 107.227 54.7715C107.543 54.6191 107.893 54.543 108.275 54.543C108.588 54.543 108.869 54.5859 109.119 54.6719C109.369 54.7539 109.582 54.8867 109.758 55.0703C109.938 55.2539 110.074 55.4922 110.168 55.7852C110.262 56.0742 110.309 56.4277 110.309 56.8457V61H109.219V56.834C109.219 56.502 109.17 56.2363 109.072 56.0371C108.975 55.834 108.832 55.6875 108.645 55.5977C108.457 55.5039 108.227 55.457 107.953 55.457C107.684 55.457 107.438 55.5137 107.215 55.627C106.996 55.7402 106.807 55.8965 106.646 56.0957C106.49 56.2949 106.367 56.5234 106.277 56.7812C106.191 57.0352 106.148 57.3047 106.148 57.5898ZM117.586 54.6602V55.4922H114.158V54.6602H117.586ZM115.318 53.1191H116.402V59.4297C116.402 59.6445 116.436 59.8066 116.502 59.916C116.568 60.0254 116.654 60.0977 116.76 60.1328C116.865 60.168 116.979 60.1855 117.1 60.1855C117.189 60.1855 117.283 60.1777 117.381 60.1621C117.482 60.1426 117.559 60.127 117.609 60.1152L117.615 61C117.529 61.0273 117.416 61.0527 117.275 61.0762C117.139 61.1035 116.973 61.1172 116.777 61.1172C116.512 61.1172 116.268 61.0645 116.045 60.959C115.822 60.8535 115.645 60.6777 115.512 60.4316C115.383 60.1816 115.318 59.8457 115.318 59.4238V53.1191ZM119.941 52V61H118.857V52H119.941ZM119.684 57.5898L119.232 57.5723C119.236 57.1387 119.301 56.7383 119.426 56.3711C119.551 56 119.727 55.6777 119.953 55.4043C120.18 55.1309 120.449 54.9199 120.762 54.7715C121.078 54.6191 121.428 54.543 121.811 54.543C122.123 54.543 122.404 54.5859 122.654 54.6719C122.904 54.7539 123.117 54.8867 123.293 55.0703C123.473 55.2539 123.609 55.4922 123.703 55.7852C123.797 56.0742 123.844 56.4277 123.844 56.8457V61H122.754V56.834C122.754 56.502 122.705 56.2363 122.607 56.0371C122.51 55.834 122.367 55.6875 122.18 55.5977C121.992 55.5039 121.762 55.457 121.488 55.457C121.219 55.457 120.973 55.5137 120.75 55.627C120.531 55.7402 120.342 55.8965 120.182 56.0957C120.025 56.2949 119.902 56.5234 119.812 56.7812C119.727 57.0352 119.684 57.3047 119.684 57.5898ZM128.098 61.1172C127.656 61.1172 127.256 61.043 126.896 60.8945C126.541 60.7422 126.234 60.5293 125.977 60.2559C125.723 59.9824 125.527 59.6582 125.391 59.2832C125.254 58.9082 125.186 58.498 125.186 58.0527V57.8066C125.186 57.291 125.262 56.832 125.414 56.4297C125.566 56.0234 125.773 55.6797 126.035 55.3984C126.297 55.1172 126.594 54.9043 126.926 54.7598C127.258 54.6152 127.602 54.543 127.957 54.543C128.41 54.543 128.801 54.6211 129.129 54.7773C129.461 54.9336 129.732 55.1523 129.943 55.4336C130.154 55.7109 130.311 56.0391 130.412 56.418C130.514 56.793 130.564 57.2031 130.564 57.6484V58.1348H125.83V57.25H129.48V57.168C129.465 56.8867 129.406 56.6133 129.305 56.3477C129.207 56.082 129.051 55.8633 128.836 55.6914C128.621 55.5195 128.328 55.4336 127.957 55.4336C127.711 55.4336 127.484 55.4863 127.277 55.5918C127.07 55.6934 126.893 55.8457 126.744 56.0488C126.596 56.252 126.48 56.5 126.398 56.793C126.316 57.0859 126.275 57.4238 126.275 57.8066V58.0527C126.275 58.3535 126.316 58.6367 126.398 58.9023C126.484 59.1641 126.607 59.3945 126.768 59.5938C126.932 59.793 127.129 59.9492 127.359 60.0625C127.594 60.1758 127.859 60.2324 128.156 60.2324C128.539 60.2324 128.863 60.1543 129.129 59.998C129.395 59.8418 129.627 59.6328 129.826 59.3711L130.482 59.8926C130.346 60.0996 130.172 60.2969 129.961 60.4844C129.75 60.6719 129.49 60.8242 129.182 60.9414C128.877 61.0586 128.516 61.1172 128.098 61.1172ZM139.518 58.8438C139.518 58.6445 139.486 58.4688 139.424 58.3164C139.365 58.1602 139.26 58.0195 139.107 57.8945C138.959 57.7695 138.752 57.6504 138.486 57.5371C138.225 57.4238 137.893 57.3086 137.49 57.1914C137.068 57.0664 136.688 56.9277 136.348 56.7754C136.008 56.6191 135.717 56.4414 135.475 56.2422C135.232 56.043 135.047 55.8145 134.918 55.5566C134.789 55.2988 134.725 55.0039 134.725 54.6719C134.725 54.3398 134.793 54.0332 134.93 53.752C135.066 53.4707 135.262 53.2266 135.516 53.0195C135.773 52.8086 136.08 52.6445 136.436 52.5273C136.791 52.4102 137.188 52.3516 137.625 52.3516C138.266 52.3516 138.809 52.4746 139.254 52.7207C139.703 52.9629 140.045 53.2812 140.279 53.6758C140.514 54.0664 140.631 54.4844 140.631 54.9297H139.506C139.506 54.6094 139.438 54.3262 139.301 54.0801C139.164 53.8301 138.957 53.6348 138.68 53.4941C138.402 53.3496 138.051 53.2773 137.625 53.2773C137.223 53.2773 136.891 53.3379 136.629 53.459C136.367 53.5801 136.172 53.7441 136.043 53.9512C135.918 54.1582 135.855 54.3945 135.855 54.6602C135.855 54.8398 135.893 55.0039 135.967 55.1523C136.045 55.2969 136.164 55.4316 136.324 55.5566C136.488 55.6816 136.695 55.7969 136.945 55.9023C137.199 56.0078 137.502 56.1094 137.854 56.207C138.338 56.3438 138.756 56.4961 139.107 56.6641C139.459 56.832 139.748 57.0215 139.975 57.2324C140.205 57.4395 140.375 57.6758 140.484 57.9414C140.598 58.2031 140.654 58.5 140.654 58.832C140.654 59.1797 140.584 59.4941 140.443 59.7754C140.303 60.0566 140.102 60.2969 139.84 60.4961C139.578 60.6953 139.264 60.8496 138.896 60.959C138.533 61.0645 138.127 61.1172 137.678 61.1172C137.283 61.1172 136.895 61.0625 136.512 60.9531C136.133 60.8438 135.787 60.6797 135.475 60.4609C135.166 60.2422 134.918 59.9727 134.73 59.6523C134.547 59.3281 134.455 58.9531 134.455 58.5273H135.58C135.58 58.8203 135.637 59.0723 135.75 59.2832C135.863 59.4902 136.018 59.6621 136.213 59.7988C136.412 59.9355 136.637 60.0371 136.887 60.1035C137.141 60.166 137.404 60.1973 137.678 60.1973C138.072 60.1973 138.406 60.1426 138.68 60.0332C138.953 59.9238 139.16 59.7676 139.301 59.5645C139.445 59.3613 139.518 59.1211 139.518 58.8438ZM145.811 59.5352V54.6602H146.9V61H145.863L145.811 59.5352ZM146.016 58.1992L146.467 58.1875C146.467 58.6094 146.422 59 146.332 59.3594C146.246 59.7148 146.105 60.0234 145.91 60.2852C145.715 60.5469 145.459 60.752 145.143 60.9004C144.826 61.0449 144.441 61.1172 143.988 61.1172C143.68 61.1172 143.396 61.0723 143.139 60.9824C142.885 60.8926 142.666 60.7539 142.482 60.5664C142.299 60.3789 142.156 60.1348 142.055 59.834C141.957 59.5332 141.908 59.1719 141.908 58.75V54.6602H142.992V58.7617C142.992 59.0469 143.023 59.2832 143.086 59.4707C143.152 59.6543 143.24 59.8008 143.35 59.9102C143.463 60.0156 143.588 60.0898 143.725 60.1328C143.865 60.1758 144.01 60.1973 144.158 60.1973C144.619 60.1973 144.984 60.1094 145.254 59.9336C145.523 59.7539 145.717 59.5137 145.834 59.2129C145.955 58.9082 146.016 58.5703 146.016 58.1992ZM148.547 52H149.637V59.7695L149.543 61H148.547V52ZM153.92 57.7773V57.9004C153.92 58.3613 153.865 58.7891 153.756 59.1836C153.646 59.5742 153.486 59.9141 153.275 60.2031C153.064 60.4922 152.807 60.7168 152.502 60.877C152.197 61.0371 151.848 61.1172 151.453 61.1172C151.051 61.1172 150.697 61.0488 150.393 60.9121C150.092 60.7715 149.838 60.5703 149.631 60.3086C149.424 60.0469 149.258 59.7305 149.133 59.3594C149.012 58.9883 148.928 58.5703 148.881 58.1055V57.5664C148.928 57.0977 149.012 56.6777 149.133 56.3066C149.258 55.9355 149.424 55.6191 149.631 55.3574C149.838 55.0918 150.092 54.8906 150.393 54.7539C150.693 54.6133 151.043 54.543 151.441 54.543C151.84 54.543 152.193 54.6211 152.502 54.7773C152.811 54.9297 153.068 55.1484 153.275 55.4336C153.486 55.7188 153.646 56.0605 153.756 56.459C153.865 56.8535 153.92 57.293 153.92 57.7773ZM152.83 57.9004V57.7773C152.83 57.4609 152.801 57.1641 152.742 56.8867C152.684 56.6055 152.59 56.3594 152.461 56.1484C152.332 55.9336 152.162 55.7656 151.951 55.6445C151.74 55.5195 151.48 55.457 151.172 55.457C150.898 55.457 150.66 55.5039 150.457 55.5977C150.258 55.6914 150.088 55.8184 149.947 55.9785C149.807 56.1348 149.691 56.3145 149.602 56.5176C149.516 56.7168 149.451 56.9238 149.408 57.1387V58.5508C149.471 58.8242 149.572 59.0879 149.713 59.3418C149.857 59.5918 150.049 59.7969 150.287 59.957C150.529 60.1172 150.828 60.1973 151.184 60.1973C151.477 60.1973 151.727 60.1387 151.934 60.0215C152.145 59.9004 152.314 59.7344 152.443 59.5234C152.576 59.3125 152.674 59.0684 152.736 58.791C152.799 58.5137 152.83 58.2168 152.83 57.9004ZM157.547 56.9277V57.8184H154.688V56.9277H157.547ZM158.771 52.4688H161.596C162.236 52.4688 162.777 52.5664 163.219 52.7617C163.664 52.957 164.002 53.2461 164.232 53.6289C164.467 54.0078 164.584 54.4746 164.584 55.0293C164.584 55.4199 164.504 55.7773 164.344 56.1016C164.188 56.4219 163.961 56.6953 163.664 56.9219C163.371 57.1445 163.02 57.3105 162.609 57.4199L162.293 57.543H159.639L159.627 56.623H161.631C162.037 56.623 162.375 56.5527 162.645 56.4121C162.914 56.2676 163.117 56.0742 163.254 55.832C163.391 55.5898 163.459 55.3223 163.459 55.0293C163.459 54.7012 163.395 54.4141 163.266 54.168C163.137 53.9219 162.934 53.7324 162.656 53.5996C162.383 53.4629 162.029 53.3945 161.596 53.3945H159.902V61H158.771V52.4688ZM163.758 61L161.684 57.1328L162.861 57.127L164.965 60.9297V61H163.758ZM168.633 61.1172C168.191 61.1172 167.791 61.043 167.432 60.8945C167.076 60.7422 166.77 60.5293 166.512 60.2559C166.258 59.9824 166.062 59.6582 165.926 59.2832C165.789 58.9082 165.721 58.498 165.721 58.0527V57.8066C165.721 57.291 165.797 56.832 165.949 56.4297C166.102 56.0234 166.309 55.6797 166.57 55.3984C166.832 55.1172 167.129 54.9043 167.461 54.7598C167.793 54.6152 168.137 54.543 168.492 54.543C168.945 54.543 169.336 54.6211 169.664 54.7773C169.996 54.9336 170.268 55.1523 170.479 55.4336C170.689 55.7109 170.846 56.0391 170.947 56.418C171.049 56.793 171.1 57.2031 171.1 57.6484V58.1348H166.365V57.25H170.016V57.168C170 56.8867 169.941 56.6133 169.84 56.3477C169.742 56.082 169.586 55.8633 169.371 55.6914C169.156 55.5195 168.863 55.4336 168.492 55.4336C168.246 55.4336 168.02 55.4863 167.812 55.5918C167.605 55.6934 167.428 55.8457 167.279 56.0488C167.131 56.252 167.016 56.5 166.934 56.793C166.852 57.0859 166.811 57.4238 166.811 57.8066V58.0527C166.811 58.3535 166.852 58.6367 166.934 58.9023C167.02 59.1641 167.143 59.3945 167.303 59.5938C167.467 59.793 167.664 59.9492 167.895 60.0625C168.129 60.1758 168.395 60.2324 168.691 60.2324C169.074 60.2324 169.398 60.1543 169.664 59.998C169.93 59.8418 170.162 59.6328 170.361 59.3711L171.018 59.8926C170.881 60.0996 170.707 60.2969 170.496 60.4844C170.285 60.6719 170.025 60.8242 169.717 60.9414C169.412 61.0586 169.051 61.1172 168.633 61.1172ZM176.473 54.6602H177.457V60.8652C177.457 61.4238 177.344 61.9004 177.117 62.2949C176.891 62.6895 176.574 62.9883 176.168 63.1914C175.766 63.3984 175.301 63.502 174.773 63.502C174.555 63.502 174.297 63.4668 174 63.3965C173.707 63.3301 173.418 63.2148 173.133 63.0508C172.852 62.8906 172.615 62.6738 172.424 62.4004L172.992 61.7559C173.258 62.0762 173.535 62.2988 173.824 62.4238C174.117 62.5488 174.406 62.6113 174.691 62.6113C175.035 62.6113 175.332 62.5469 175.582 62.418C175.832 62.2891 176.025 62.0977 176.162 61.8438C176.303 61.5938 176.373 61.2852 176.373 60.918V56.0547L176.473 54.6602ZM172.107 57.9004V57.7773C172.107 57.293 172.164 56.8535 172.277 56.459C172.395 56.0605 172.561 55.7188 172.775 55.4336C172.994 55.1484 173.258 54.9297 173.566 54.7773C173.875 54.6211 174.223 54.543 174.609 54.543C175.008 54.543 175.355 54.6133 175.652 54.7539C175.953 54.8906 176.207 55.0918 176.414 55.3574C176.625 55.6191 176.791 55.9355 176.912 56.3066C177.033 56.6777 177.117 57.0977 177.164 57.5664V58.1055C177.121 58.5703 177.037 58.9883 176.912 59.3594C176.791 59.7305 176.625 60.0469 176.414 60.3086C176.207 60.5703 175.953 60.7715 175.652 60.9121C175.352 61.0488 175 61.1172 174.598 61.1172C174.219 61.1172 173.875 61.0371 173.566 60.877C173.262 60.7168 173 60.4922 172.781 60.2031C172.562 59.9141 172.395 59.5742 172.277 59.1836C172.164 58.7891 172.107 58.3613 172.107 57.9004ZM173.191 57.7773V57.9004C173.191 58.2168 173.223 58.5137 173.285 58.791C173.352 59.0684 173.451 59.3125 173.584 59.5234C173.721 59.7344 173.895 59.9004 174.105 60.0215C174.316 60.1387 174.568 60.1973 174.861 60.1973C175.221 60.1973 175.518 60.1211 175.752 59.9688C175.986 59.8164 176.172 59.6152 176.309 59.3652C176.449 59.1152 176.559 58.8438 176.637 58.5508V57.1387C176.594 56.9238 176.527 56.7168 176.438 56.5176C176.352 56.3145 176.238 56.1348 176.098 55.9785C175.961 55.8184 175.791 55.6914 175.588 55.5977C175.385 55.5039 175.146 55.457 174.873 55.457C174.576 55.457 174.32 55.5195 174.105 55.6445C173.895 55.7656 173.721 55.9336 173.584 56.1484C173.451 56.3594 173.352 56.6055 173.285 56.8867C173.223 57.1641 173.191 57.4609 173.191 57.7773ZM180.281 54.6602V61H179.191V54.6602H180.281ZM179.109 52.9785C179.109 52.8027 179.162 52.6543 179.268 52.5332C179.377 52.4121 179.537 52.3516 179.748 52.3516C179.955 52.3516 180.113 52.4121 180.223 52.5332C180.336 52.6543 180.393 52.8027 180.393 52.9785C180.393 53.1465 180.336 53.291 180.223 53.4121C180.113 53.5293 179.955 53.5879 179.748 53.5879C179.537 53.5879 179.377 53.5293 179.268 53.4121C179.162 53.291 179.109 53.1465 179.109 52.9785ZM185.713 59.3184C185.713 59.1621 185.678 59.0176 185.607 58.8848C185.541 58.748 185.402 58.625 185.191 58.5156C184.984 58.4023 184.672 58.3047 184.254 58.2227C183.902 58.1484 183.584 58.0605 183.299 57.959C183.018 57.8574 182.777 57.7344 182.578 57.5898C182.383 57.4453 182.232 57.2754 182.127 57.0801C182.021 56.8848 181.969 56.6562 181.969 56.3945C181.969 56.1445 182.023 55.9082 182.133 55.6855C182.246 55.4629 182.404 55.2656 182.607 55.0938C182.814 54.9219 183.062 54.7871 183.352 54.6895C183.641 54.5918 183.963 54.543 184.318 54.543C184.826 54.543 185.26 54.6328 185.619 54.8125C185.979 54.9922 186.254 55.2324 186.445 55.5332C186.637 55.8301 186.732 56.1602 186.732 56.5234H185.648C185.648 56.3477 185.596 56.1777 185.49 56.0137C185.389 55.8457 185.238 55.707 185.039 55.5977C184.844 55.4883 184.604 55.4336 184.318 55.4336C184.018 55.4336 183.773 55.4805 183.586 55.5742C183.402 55.6641 183.268 55.7793 183.182 55.9199C183.1 56.0605 183.059 56.209 183.059 56.3652C183.059 56.4824 183.078 56.5879 183.117 56.6816C183.16 56.7715 183.234 56.8555 183.34 56.9336C183.445 57.0078 183.594 57.0781 183.785 57.1445C183.977 57.2109 184.221 57.2773 184.518 57.3438C185.037 57.4609 185.465 57.6016 185.801 57.7656C186.137 57.9297 186.387 58.1309 186.551 58.3691C186.715 58.6074 186.797 58.8965 186.797 59.2363C186.797 59.5137 186.738 59.7676 186.621 59.998C186.508 60.2285 186.342 60.4277 186.123 60.5957C185.908 60.7598 185.65 60.8887 185.35 60.9824C185.053 61.0723 184.719 61.1172 184.348 61.1172C183.789 61.1172 183.316 61.0176 182.93 60.8184C182.543 60.6191 182.25 60.3613 182.051 60.0449C181.852 59.7285 181.752 59.3945 181.752 59.043H182.842C182.857 59.3398 182.943 59.5762 183.1 59.752C183.256 59.9238 183.447 60.0469 183.674 60.1211C183.9 60.1914 184.125 60.2266 184.348 60.2266C184.645 60.2266 184.893 60.1875 185.092 60.1094C185.295 60.0312 185.449 59.9238 185.555 59.7871C185.66 59.6504 185.713 59.4941 185.713 59.3184ZM190.875 54.6602V55.4922H187.447V54.6602H190.875ZM188.607 53.1191H189.691V59.4297C189.691 59.6445 189.725 59.8066 189.791 59.916C189.857 60.0254 189.943 60.0977 190.049 60.1328C190.154 60.168 190.268 60.1855 190.389 60.1855C190.479 60.1855 190.572 60.1777 190.67 60.1621C190.771 60.1426 190.848 60.127 190.898 60.1152L190.904 61C190.818 61.0273 190.705 61.0527 190.564 61.0762C190.428 61.1035 190.262 61.1172 190.066 61.1172C189.801 61.1172 189.557 61.0645 189.334 60.959C189.111 60.8535 188.934 60.6777 188.801 60.4316C188.672 60.1816 188.607 59.8457 188.607 59.4238V53.1191ZM193.23 55.6562V61H192.146V54.6602H193.201L193.23 55.6562ZM195.211 54.625L195.205 55.6328C195.115 55.6133 195.029 55.6016 194.947 55.5977C194.869 55.5898 194.779 55.5859 194.678 55.5859C194.428 55.5859 194.207 55.625 194.016 55.7031C193.824 55.7812 193.662 55.8906 193.529 56.0312C193.396 56.1719 193.291 56.3398 193.213 56.5352C193.139 56.7266 193.09 56.9375 193.066 57.168L192.762 57.3438C192.762 56.9609 192.799 56.6016 192.873 56.2656C192.951 55.9297 193.07 55.6328 193.23 55.375C193.391 55.1133 193.594 54.9102 193.84 54.7656C194.09 54.6172 194.387 54.543 194.73 54.543C194.809 54.543 194.898 54.5527 195 54.5723C195.102 54.5879 195.172 54.6055 195.211 54.625ZM199.717 59.916V56.6523C199.717 56.4023 199.666 56.1855 199.564 56.002C199.467 55.8145 199.318 55.6699 199.119 55.5684C198.92 55.4668 198.674 55.416 198.381 55.416C198.107 55.416 197.867 55.4629 197.66 55.5566C197.457 55.6504 197.297 55.7734 197.18 55.9258C197.066 56.0781 197.01 56.2422 197.01 56.418H195.926C195.926 56.1914 195.984 55.9668 196.102 55.7441C196.219 55.5215 196.387 55.3203 196.605 55.1406C196.828 54.957 197.094 54.8125 197.402 54.707C197.715 54.5977 198.062 54.543 198.445 54.543C198.906 54.543 199.312 54.6211 199.664 54.7773C200.02 54.9336 200.297 55.1699 200.496 55.4863C200.699 55.7988 200.801 56.1914 200.801 56.6641V59.6172C200.801 59.8281 200.818 60.0527 200.854 60.291C200.893 60.5293 200.949 60.7344 201.023 60.9062V61H199.893C199.838 60.875 199.795 60.709 199.764 60.502C199.732 60.291 199.717 60.0957 199.717 59.916ZM199.904 57.1562L199.916 57.918H198.82C198.512 57.918 198.236 57.9434 197.994 57.9941C197.752 58.041 197.549 58.1133 197.385 58.2109C197.221 58.3086 197.096 58.4316 197.01 58.5801C196.924 58.7246 196.881 58.8945 196.881 59.0898C196.881 59.2891 196.926 59.4707 197.016 59.6348C197.105 59.7988 197.24 59.9297 197.42 60.0273C197.604 60.1211 197.828 60.168 198.094 60.168C198.426 60.168 198.719 60.0977 198.973 59.957C199.227 59.8164 199.428 59.6445 199.576 59.4414C199.729 59.2383 199.811 59.041 199.822 58.8496L200.285 59.3711C200.258 59.5352 200.184 59.7168 200.062 59.916C199.941 60.1152 199.779 60.3066 199.576 60.4902C199.377 60.6699 199.139 60.8203 198.861 60.9414C198.588 61.0586 198.279 61.1172 197.936 61.1172C197.506 61.1172 197.129 61.0332 196.805 60.8652C196.484 60.6973 196.234 60.4727 196.055 60.1914C195.879 59.9062 195.791 59.5879 195.791 59.2363C195.791 58.8965 195.857 58.5977 195.99 58.3398C196.123 58.0781 196.314 57.8613 196.564 57.6895C196.814 57.5137 197.115 57.3809 197.467 57.291C197.818 57.2012 198.211 57.1562 198.645 57.1562H199.904ZM203.59 55.6562V61H202.506V54.6602H203.561L203.59 55.6562ZM205.57 54.625L205.564 55.6328C205.475 55.6133 205.389 55.6016 205.307 55.5977C205.229 55.5898 205.139 55.5859 205.037 55.5859C204.787 55.5859 204.566 55.625 204.375 55.7031C204.184 55.7812 204.021 55.8906 203.889 56.0312C203.756 56.1719 203.65 56.3398 203.572 56.5352C203.498 56.7266 203.449 56.9375 203.426 57.168L203.121 57.3438C203.121 56.9609 203.158 56.6016 203.232 56.2656C203.311 55.9297 203.43 55.6328 203.59 55.375C203.75 55.1133 203.953 54.9102 204.199 54.7656C204.449 54.6172 204.746 54.543 205.09 54.543C205.168 54.543 205.258 54.5527 205.359 54.5723C205.461 54.5879 205.531 54.6055 205.57 54.625ZM216.281 56.4648V57.0039C216.281 57.6445 216.201 58.2188 216.041 58.7266C215.881 59.2344 215.65 59.666 215.35 60.0215C215.049 60.377 214.688 60.6484 214.266 60.8359C213.848 61.0234 213.379 61.1172 212.859 61.1172C212.355 61.1172 211.893 61.0234 211.471 60.8359C211.053 60.6484 210.689 60.377 210.381 60.0215C210.076 59.666 209.84 59.2344 209.672 58.7266C209.504 58.2188 209.42 57.6445 209.42 57.0039V56.4648C209.42 55.8242 209.502 55.252 209.666 54.748C209.834 54.2402 210.07 53.8086 210.375 53.4531C210.68 53.0938 211.041 52.8203 211.459 52.6328C211.881 52.4453 212.344 52.3516 212.848 52.3516C213.367 52.3516 213.836 52.4453 214.254 52.6328C214.676 52.8203 215.037 53.0938 215.338 53.4531C215.643 53.8086 215.875 54.2402 216.035 54.748C216.199 55.252 216.281 55.8242 216.281 56.4648ZM215.162 57.0039V56.4531C215.162 55.9453 215.109 55.4961 215.004 55.1055C214.902 54.7148 214.752 54.3867 214.553 54.1211C214.354 53.8555 214.109 53.6543 213.82 53.5176C213.535 53.3809 213.211 53.3125 212.848 53.3125C212.496 53.3125 212.178 53.3809 211.893 53.5176C211.611 53.6543 211.369 53.8555 211.166 54.1211C210.967 54.3867 210.812 54.7148 210.703 55.1055C210.594 55.4961 210.539 55.9453 210.539 56.4531V57.0039C210.539 57.5156 210.594 57.9688 210.703 58.3633C210.812 58.7539 210.969 59.084 211.172 59.3535C211.379 59.6191 211.623 59.8203 211.904 59.957C212.189 60.0938 212.508 60.1621 212.859 60.1621C213.227 60.1621 213.553 60.0938 213.838 59.957C214.123 59.8203 214.363 59.6191 214.559 59.3535C214.758 59.084 214.908 58.7539 215.01 58.3633C215.111 57.9688 215.162 57.5156 215.162 57.0039ZM219.428 61H218.344V53.9922C218.344 53.5352 218.426 53.1504 218.59 52.8379C218.758 52.5215 218.998 52.2832 219.311 52.123C219.623 51.959 219.994 51.877 220.424 51.877C220.549 51.877 220.674 51.8848 220.799 51.9004C220.928 51.916 221.053 51.9395 221.174 51.9707L221.115 52.8555C221.033 52.8359 220.939 52.8223 220.834 52.8145C220.732 52.8066 220.631 52.8027 220.529 52.8027C220.299 52.8027 220.1 52.8496 219.932 52.9434C219.768 53.0332 219.643 53.166 219.557 53.3418C219.471 53.5176 219.428 53.7344 219.428 53.9922V61ZM220.834 54.6602V55.4922H217.342V54.6602H220.834ZM222.855 61H221.771V54.1094C221.771 53.6289 221.863 53.2227 222.047 52.8906C222.234 52.5586 222.502 52.3066 222.85 52.1348C223.197 51.9629 223.609 51.877 224.086 51.877C224.371 51.877 224.648 51.9121 224.918 51.9824C225.188 52.0488 225.465 52.1328 225.75 52.2344L225.562 53.1484C225.387 53.0781 225.18 53.0117 224.941 52.9492C224.703 52.8828 224.445 52.8496 224.168 52.8496C223.703 52.8496 223.367 52.9551 223.16 53.166C222.957 53.373 222.855 53.6875 222.855 54.1094V61ZM224.15 54.6602V55.4922H220.77V54.6602H224.15ZM226.283 54.6602V61H225.199V54.6602H226.283ZM230.59 60.2266C230.848 60.2266 231.086 60.1738 231.305 60.0684C231.523 59.9629 231.703 59.8184 231.844 59.6348C231.984 59.4473 232.064 59.2344 232.084 58.9961H233.115C233.096 59.3711 232.969 59.7207 232.734 60.0449C232.504 60.3652 232.201 60.625 231.826 60.8242C231.451 61.0195 231.039 61.1172 230.59 61.1172C230.113 61.1172 229.697 61.0332 229.342 60.8652C228.99 60.6973 228.697 60.4668 228.463 60.1738C228.232 59.8809 228.059 59.5449 227.941 59.166C227.828 58.7832 227.771 58.3789 227.771 57.9531V57.707C227.771 57.2812 227.828 56.8789 227.941 56.5C228.059 56.1172 228.232 55.7793 228.463 55.4863C228.697 55.1934 228.99 54.9629 229.342 54.7949C229.697 54.627 230.113 54.543 230.59 54.543C231.086 54.543 231.52 54.6445 231.891 54.8477C232.262 55.0469 232.553 55.3203 232.764 55.668C232.979 56.0117 233.096 56.4023 233.115 56.8398H232.084C232.064 56.5781 231.99 56.3418 231.861 56.1309C231.736 55.9199 231.564 55.752 231.346 55.627C231.131 55.498 230.879 55.4336 230.59 55.4336C230.258 55.4336 229.979 55.5 229.752 55.6328C229.529 55.7617 229.352 55.9375 229.219 56.1602C229.09 56.3789 228.996 56.623 228.938 56.8926C228.883 57.1582 228.855 57.4297 228.855 57.707V57.9531C228.855 58.2305 228.883 58.5039 228.938 58.7734C228.992 59.043 229.084 59.2871 229.213 59.5059C229.346 59.7246 229.523 59.9004 229.746 60.0332C229.973 60.1621 230.254 60.2266 230.59 60.2266ZM236.965 61.1172C236.523 61.1172 236.123 61.043 235.764 60.8945C235.408 60.7422 235.102 60.5293 234.844 60.2559C234.59 59.9824 234.395 59.6582 234.258 59.2832C234.121 58.9082 234.053 58.498 234.053 58.0527V57.8066C234.053 57.291 234.129 56.832 234.281 56.4297C234.434 56.0234 234.641 55.6797 234.902 55.3984C235.164 55.1172 235.461 54.9043 235.793 54.7598C236.125 54.6152 236.469 54.543 236.824 54.543C237.277 54.543 237.668 54.6211 237.996 54.7773C238.328 54.9336 238.6 55.1523 238.811 55.4336C239.021 55.7109 239.178 56.0391 239.279 56.418C239.381 56.793 239.432 57.2031 239.432 57.6484V58.1348H234.697V57.25H238.348V57.168C238.332 56.8867 238.273 56.6133 238.172 56.3477C238.074 56.082 237.918 55.8633 237.703 55.6914C237.488 55.5195 237.195 55.4336 236.824 55.4336C236.578 55.4336 236.352 55.4863 236.145 55.5918C235.938 55.6934 235.76 55.8457 235.611 56.0488C235.463 56.252 235.348 56.5 235.266 56.793C235.184 57.0859 235.143 57.4238 235.143 57.8066V58.0527C235.143 58.3535 235.184 58.6367 235.266 58.9023C235.352 59.1641 235.475 59.3945 235.635 59.5938C235.799 59.793 235.996 59.9492 236.227 60.0625C236.461 60.1758 236.727 60.2324 237.023 60.2324C237.406 60.2324 237.73 60.1543 237.996 59.998C238.262 59.8418 238.494 59.6328 238.693 59.3711L239.35 59.8926C239.213 60.0996 239.039 60.2969 238.828 60.4844C238.617 60.6719 238.357 60.8242 238.049 60.9414C237.744 61.0586 237.383 61.1172 236.965 61.1172ZM240.715 60.4258C240.715 60.2422 240.771 60.0879 240.885 59.9629C241.002 59.834 241.17 59.7695 241.389 59.7695C241.607 59.7695 241.773 59.834 241.887 59.9629C242.004 60.0879 242.062 60.2422 242.062 60.4258C242.062 60.6055 242.004 60.7578 241.887 60.8828C241.773 61.0078 241.607 61.0703 241.389 61.0703C241.17 61.0703 241.002 61.0078 240.885 60.8828C240.771 60.7578 240.715 60.6055 240.715 60.4258Z" fill="#091E25"/>
<path d="M333.356 80.13C345.899 80.13 352.792 73.237 352.792 60.581V53.575C352.792 46.004 350.532 40.467 344.656 37.416V37.19C349.741 34.365 352.34 29.393 352.34 21.596V18.319C352.34 5.66299 345.447 -1.23 333.356 -1.23C321.265 -1.23 314.372 5.66299 314.372 18.319V21.596C314.372 29.393 316.858 34.365 322.056 37.19V37.416C316.18 40.467 313.92 46.004 313.92 53.575V60.581C313.92 73.237 320.813 80.13 333.356 80.13ZM333.356 32.105C329.062 32.105 326.802 29.393 326.802 24.195V17.98C326.802 12.782 329.062 10.07 333.356 10.07C337.65 10.07 339.91 12.782 339.91 17.98V24.195C339.91 29.393 337.65 32.105 333.356 32.105ZM333.356 68.83C328.723 68.83 326.35 65.892 326.35 59.903V52.332C326.35 46.343 328.723 43.405 333.356 43.405C337.989 43.405 340.362 46.343 340.362 52.332V59.903C340.362 65.892 337.989 68.83 333.356 68.83Z" fill="white"/>
</g>
<defs>
<clipPath id="clip0_0_1">
<rect width="375" height="919" fill="white" transform="translate(-15 -761)"/>
</clipPath>
</defs>
</svg>
