<svg width="345" height="79" viewBox="0 0 345 79" fill="none" xmlns="http://www.w3.org/2000/svg">
<g clip-path="url(#clip0_0_1)">
<rect width="375" height="919" transform="translate(-15 -385)" fill="white"/>
<rect width="345" height="79" rx="10" fill="#B8CBFF"/>
<path d="M27.5 40.2812C29.1979 40.2812 30.6979 40.6875 31.9167 41.2187C33.0417 41.7187 33.75 42.8437 33.75 44.0625V45.75H21.25V44.0729C21.25 42.8437 21.9583 41.7187 23.0833 41.2292C24.3021 40.6875 25.8021 40.2812 27.5 40.2812ZM19.1667 40.5417C20.3125 40.5417 21.25 39.6042 21.25 38.4583C21.25 37.3125 20.3125 36.375 19.1667 36.375C18.0208 36.375 17.0833 37.3125 17.0833 38.4583C17.0833 39.6042 18.0208 40.5417 19.1667 40.5417ZM20.3438 41.6875C19.9583 41.625 19.5729 41.5833 19.1667 41.5833C18.1354 41.5833 17.1562 41.8021 16.2708 42.1875C15.5 42.5208 15 43.2708 15 44.1146V45.75H19.6875V44.0729C19.6875 43.2083 19.9271 42.3958 20.3438 41.6875ZM35.8333 40.5417C36.9792 40.5417 37.9167 39.6042 37.9167 38.4583C37.9167 37.3125 36.9792 36.375 35.8333 36.375C34.6875 36.375 33.75 37.3125 33.75 38.4583C33.75 39.6042 34.6875 40.5417 35.8333 40.5417ZM40 44.1146C40 43.2708 39.5 42.5208 38.7292 42.1875C37.8438 41.8021 36.8646 41.5833 35.8333 41.5833C35.4271 41.5833 35.0417 41.625 34.6562 41.6875C35.0729 42.3958 35.3125 43.2083 35.3125 44.0729V45.75H40V44.1146ZM27.5 33.25C29.2292 33.25 30.625 34.6458 30.625 36.375C30.625 38.1042 29.2292 39.5 27.5 39.5C25.7708 39.5 24.375 38.1042 24.375 36.375C24.375 34.6458 25.7708 33.25 27.5 33.25Z" fill="white"/>
<path d="M58.7646 24.4521H56.2285V22.8525H58.7646C59.1566 22.8525 59.4756 22.7887 59.7217 22.6611C59.9678 22.529 60.1478 22.3467 60.2617 22.1143C60.3757 21.8818 60.4326 21.6198 60.4326 21.3281C60.4326 21.0319 60.3757 20.7562 60.2617 20.501C60.1478 20.2458 59.9678 20.0407 59.7217 19.8857C59.4756 19.7308 59.1566 19.6533 58.7646 19.6533H56.9395V28H54.8887V18.0469H58.7646C59.5439 18.0469 60.2116 18.1882 60.7676 18.4707C61.3281 18.7487 61.7565 19.1338 62.0527 19.626C62.349 20.1182 62.4971 20.681 62.4971 21.3145C62.4971 21.957 62.349 22.513 62.0527 22.9824C61.7565 23.4518 61.3281 23.8141 60.7676 24.0693C60.2116 24.3245 59.5439 24.4521 58.7646 24.4521ZM67.6992 26.332V23.0371C67.6992 22.8001 67.6605 22.5973 67.583 22.4287C67.5055 22.2555 67.3848 22.1211 67.2207 22.0254C67.0612 21.9297 66.8538 21.8818 66.5986 21.8818C66.3799 21.8818 66.1908 21.9206 66.0312 21.998C65.8717 22.071 65.7487 22.1781 65.6621 22.3193C65.5755 22.4561 65.5322 22.6178 65.5322 22.8047H63.5635C63.5635 22.4902 63.6364 22.1917 63.7822 21.9092C63.9281 21.6266 64.14 21.3783 64.418 21.1641C64.696 20.9453 65.0264 20.7744 65.4092 20.6514C65.7965 20.5283 66.2295 20.4668 66.708 20.4668C67.2822 20.4668 67.7926 20.5625 68.2393 20.7539C68.6859 20.9453 69.0368 21.2324 69.292 21.6152C69.5518 21.998 69.6816 22.4766 69.6816 23.0508V26.2158C69.6816 26.6214 69.7067 26.9541 69.7568 27.2139C69.807 27.4691 69.8799 27.6924 69.9756 27.8838V28H67.9863C67.8906 27.7995 67.8177 27.5488 67.7676 27.248C67.722 26.9427 67.6992 26.6374 67.6992 26.332ZM67.959 23.4951L67.9727 24.6094H66.8721C66.6123 24.6094 66.3867 24.639 66.1953 24.6982C66.0039 24.7575 65.8467 24.8418 65.7236 24.9512C65.6006 25.056 65.5094 25.179 65.4502 25.3203C65.3955 25.4616 65.3682 25.6165 65.3682 25.7852C65.3682 25.9538 65.4069 26.1064 65.4844 26.2432C65.5618 26.3753 65.6735 26.4801 65.8193 26.5576C65.9652 26.6305 66.1361 26.667 66.332 26.667C66.6283 26.667 66.8857 26.6077 67.1045 26.4893C67.3232 26.3708 67.4919 26.2249 67.6104 26.0518C67.7334 25.8786 67.7972 25.7145 67.8018 25.5596L68.3213 26.3936C68.2484 26.5804 68.1481 26.7741 68.0205 26.9746C67.8975 27.1751 67.7402 27.3643 67.5488 27.542C67.3574 27.7152 67.1273 27.8587 66.8584 27.9727C66.5895 28.082 66.2705 28.1367 65.9014 28.1367C65.432 28.1367 65.0059 28.0433 64.623 27.8564C64.2448 27.665 63.944 27.403 63.7207 27.0703C63.502 26.7331 63.3926 26.3503 63.3926 25.9219C63.3926 25.5345 63.4655 25.1904 63.6113 24.8896C63.7572 24.5889 63.9714 24.3359 64.2539 24.1309C64.541 23.9212 64.8988 23.764 65.3271 23.6592C65.7555 23.5498 66.2523 23.4951 66.8174 23.4951H67.959ZM73.168 22.2168V28H71.1992V20.6035H73.0518L73.168 22.2168ZM75.3965 20.5557L75.3623 22.3809C75.2666 22.3672 75.1504 22.3558 75.0137 22.3467C74.8815 22.333 74.7607 22.3262 74.6514 22.3262C74.3734 22.3262 74.1318 22.3626 73.9268 22.4355C73.7262 22.5039 73.5576 22.6064 73.4209 22.7432C73.2887 22.8799 73.1885 23.0462 73.1201 23.2422C73.0563 23.4382 73.0199 23.6615 73.0107 23.9121L72.6143 23.7891C72.6143 23.3105 72.6621 22.8708 72.7578 22.4697C72.8535 22.0641 72.9925 21.7109 73.1748 21.4102C73.3617 21.1094 73.5895 20.877 73.8584 20.7129C74.1273 20.5488 74.4349 20.4668 74.7812 20.4668C74.8906 20.4668 75.0023 20.4759 75.1162 20.4941C75.2301 20.5078 75.3236 20.5283 75.3965 20.5557ZM80.291 20.6035V21.998H75.9844V20.6035H80.291ZM77.0508 18.7783H79.0195V25.7715C79.0195 25.9857 79.0469 26.1497 79.1016 26.2637C79.1608 26.3776 79.2474 26.4574 79.3613 26.5029C79.4753 26.5439 79.6188 26.5645 79.792 26.5645C79.915 26.5645 80.0244 26.5599 80.1201 26.5508C80.2204 26.5371 80.3047 26.5234 80.373 26.5098L80.3799 27.959C80.2113 28.0137 80.029 28.057 79.833 28.0889C79.637 28.1208 79.4206 28.1367 79.1836 28.1367C78.7507 28.1367 78.3724 28.0661 78.0488 27.9248C77.7298 27.779 77.4837 27.5465 77.3105 27.2275C77.1374 26.9085 77.0508 26.4893 77.0508 25.9697V18.7783ZM83.4902 20.6035V28H81.5146V20.6035H83.4902ZM81.3916 18.6758C81.3916 18.3887 81.4919 18.1517 81.6924 17.9648C81.8929 17.778 82.1618 17.6846 82.499 17.6846C82.8317 17.6846 83.0983 17.778 83.2988 17.9648C83.5039 18.1517 83.6064 18.3887 83.6064 18.6758C83.6064 18.9629 83.5039 19.1999 83.2988 19.3867C83.0983 19.5736 82.8317 19.667 82.499 19.667C82.1618 19.667 81.8929 19.5736 81.6924 19.3867C81.4919 19.1999 81.3916 18.9629 81.3916 18.6758ZM88.1729 26.5986C88.4144 26.5986 88.6286 26.5531 88.8154 26.4619C89.0023 26.3662 89.1481 26.234 89.2529 26.0654C89.3623 25.8923 89.4193 25.6895 89.4238 25.457H91.2764C91.2718 25.9766 91.1328 26.4391 90.8594 26.8447C90.5859 27.2458 90.2191 27.5625 89.7588 27.7949C89.2985 28.0228 88.7835 28.1367 88.2139 28.1367C87.6396 28.1367 87.1383 28.041 86.71 27.8496C86.2861 27.6582 85.9329 27.3939 85.6504 27.0566C85.3678 26.7148 85.1559 26.3184 85.0146 25.8672C84.8734 25.4115 84.8027 24.9238 84.8027 24.4043V24.2061C84.8027 23.682 84.8734 23.1943 85.0146 22.7432C85.1559 22.2874 85.3678 21.891 85.6504 21.5537C85.9329 21.2119 86.2861 20.9453 86.71 20.7539C87.1338 20.5625 87.6305 20.4668 88.2002 20.4668C88.8063 20.4668 89.3372 20.583 89.793 20.8154C90.2533 21.0479 90.6133 21.3805 90.873 21.8135C91.1374 22.2419 91.2718 22.75 91.2764 23.3379H89.4238C89.4193 23.0918 89.3669 22.8685 89.2666 22.668C89.1709 22.4674 89.0296 22.3079 88.8428 22.1895C88.6605 22.0664 88.4349 22.0049 88.166 22.0049C87.8789 22.0049 87.6442 22.0664 87.4619 22.1895C87.2796 22.3079 87.1383 22.472 87.0381 22.6816C86.9378 22.8867 86.8672 23.1214 86.8262 23.3857C86.7897 23.6455 86.7715 23.9189 86.7715 24.2061V24.4043C86.7715 24.6914 86.7897 24.9671 86.8262 25.2314C86.8626 25.4958 86.931 25.7305 87.0312 25.9355C87.1361 26.1406 87.2796 26.3024 87.4619 26.4209C87.6442 26.5394 87.8812 26.5986 88.1729 26.5986ZM94.4961 20.6035V28H92.5205V20.6035H94.4961ZM92.3975 18.6758C92.3975 18.3887 92.4977 18.1517 92.6982 17.9648C92.8988 17.778 93.1676 17.6846 93.5049 17.6846C93.8376 17.6846 94.1042 17.778 94.3047 17.9648C94.5098 18.1517 94.6123 18.3887 94.6123 18.6758C94.6123 18.9629 94.5098 19.1999 94.3047 19.3867C94.1042 19.5736 93.8376 19.667 93.5049 19.667C93.1676 19.667 92.8988 19.5736 92.6982 19.3867C92.4977 19.1999 92.3975 18.9629 92.3975 18.6758ZM98.0918 22.0254V30.8438H96.123V20.6035H97.9482L98.0918 22.0254ZM102.774 24.2197V24.3633C102.774 24.901 102.711 25.4001 102.583 25.8604C102.46 26.3206 102.278 26.7217 102.036 27.0635C101.795 27.4007 101.494 27.665 101.134 27.8564C100.778 28.0433 100.368 28.1367 99.9033 28.1367C99.4521 28.1367 99.0602 28.0456 98.7275 27.8633C98.3949 27.681 98.1146 27.4258 97.8867 27.0977C97.6634 26.765 97.4834 26.3799 97.3467 25.9424C97.21 25.5049 97.1051 25.0355 97.0322 24.5342V24.1582C97.1051 23.6204 97.21 23.1283 97.3467 22.6816C97.4834 22.2305 97.6634 21.8408 97.8867 21.5127C98.1146 21.18 98.3926 20.9225 98.7207 20.7402C99.0534 20.5579 99.443 20.4668 99.8896 20.4668C100.359 20.4668 100.771 20.5557 101.127 20.7334C101.487 20.9111 101.788 21.1663 102.029 21.499C102.275 21.8317 102.46 22.2282 102.583 22.6885C102.711 23.1488 102.774 23.6592 102.774 24.2197ZM100.799 24.3633V24.2197C100.799 23.9053 100.771 23.6159 100.717 23.3516C100.667 23.0827 100.585 22.848 100.471 22.6475C100.361 22.4469 100.215 22.292 100.033 22.1826C99.8555 22.0687 99.639 22.0117 99.3838 22.0117C99.1149 22.0117 98.8848 22.055 98.6934 22.1416C98.5065 22.2282 98.3538 22.3535 98.2354 22.5176C98.1169 22.6816 98.028 22.8776 97.9688 23.1055C97.9095 23.3333 97.873 23.5908 97.8594 23.8779V24.8281C97.8822 25.1654 97.946 25.4684 98.0508 25.7373C98.1556 26.0016 98.3174 26.2113 98.5361 26.3662C98.7549 26.5212 99.042 26.5986 99.3975 26.5986C99.6572 26.5986 99.876 26.5417 100.054 26.4277C100.231 26.3092 100.375 26.1475 100.484 25.9424C100.598 25.7373 100.678 25.5003 100.724 25.2314C100.774 24.9626 100.799 24.6732 100.799 24.3633ZM107.99 26.332V23.0371C107.99 22.8001 107.951 22.5973 107.874 22.4287C107.797 22.2555 107.676 22.1211 107.512 22.0254C107.352 21.9297 107.145 21.8818 106.89 21.8818C106.671 21.8818 106.482 21.9206 106.322 21.998C106.163 22.071 106.04 22.1781 105.953 22.3193C105.867 22.4561 105.823 22.6178 105.823 22.8047H103.854C103.854 22.4902 103.927 22.1917 104.073 21.9092C104.219 21.6266 104.431 21.3783 104.709 21.1641C104.987 20.9453 105.317 20.7744 105.7 20.6514C106.088 20.5283 106.521 20.4668 106.999 20.4668C107.573 20.4668 108.084 20.5625 108.53 20.7539C108.977 20.9453 109.328 21.2324 109.583 21.6152C109.843 21.998 109.973 22.4766 109.973 23.0508V26.2158C109.973 26.6214 109.998 26.9541 110.048 27.2139C110.098 27.4691 110.171 27.6924 110.267 27.8838V28H108.277C108.182 27.7995 108.109 27.5488 108.059 27.248C108.013 26.9427 107.99 26.6374 107.99 26.332ZM108.25 23.4951L108.264 24.6094H107.163C106.903 24.6094 106.678 24.639 106.486 24.6982C106.295 24.7575 106.138 24.8418 106.015 24.9512C105.892 25.056 105.8 25.179 105.741 25.3203C105.687 25.4616 105.659 25.6165 105.659 25.7852C105.659 25.9538 105.698 26.1064 105.775 26.2432C105.853 26.3753 105.965 26.4801 106.11 26.5576C106.256 26.6305 106.427 26.667 106.623 26.667C106.919 26.667 107.177 26.6077 107.396 26.4893C107.614 26.3708 107.783 26.2249 107.901 26.0518C108.024 25.8786 108.088 25.7145 108.093 25.5596L108.612 26.3936C108.539 26.5804 108.439 26.7741 108.312 26.9746C108.188 27.1751 108.031 27.3643 107.84 27.542C107.648 27.7152 107.418 27.8587 107.149 27.9727C106.881 28.082 106.562 28.1367 106.192 28.1367C105.723 28.1367 105.297 28.0433 104.914 27.8564C104.536 27.665 104.235 27.403 104.012 27.0703C103.793 26.7331 103.684 26.3503 103.684 25.9219C103.684 25.5345 103.757 25.1904 103.902 24.8896C104.048 24.5889 104.262 24.3359 104.545 24.1309C104.832 23.9212 105.19 23.764 105.618 23.6592C106.047 23.5498 106.543 23.4951 107.108 23.4951H108.25ZM115.113 20.6035V21.998H110.807V20.6035H115.113ZM111.873 18.7783H113.842V25.7715C113.842 25.9857 113.869 26.1497 113.924 26.2637C113.983 26.3776 114.07 26.4574 114.184 26.5029C114.298 26.5439 114.441 26.5645 114.614 26.5645C114.737 26.5645 114.847 26.5599 114.942 26.5508C115.043 26.5371 115.127 26.5234 115.195 26.5098L115.202 27.959C115.034 28.0137 114.851 28.057 114.655 28.0889C114.459 28.1208 114.243 28.1367 114.006 28.1367C113.573 28.1367 113.195 28.0661 112.871 27.9248C112.552 27.779 112.306 27.5465 112.133 27.2275C111.96 26.9085 111.873 26.4893 111.873 25.9697V18.7783ZM119.639 28.1367C119.064 28.1367 118.549 28.0456 118.094 27.8633C117.638 27.6764 117.251 27.4189 116.932 27.0908C116.617 26.7627 116.376 26.3822 116.207 25.9492C116.038 25.5117 115.954 25.0469 115.954 24.5547V24.2812C115.954 23.7207 116.034 23.208 116.193 22.7432C116.353 22.2783 116.581 21.875 116.877 21.5332C117.178 21.1914 117.542 20.9294 117.971 20.7471C118.399 20.5602 118.882 20.4668 119.42 20.4668C119.944 20.4668 120.409 20.5534 120.814 20.7266C121.22 20.8997 121.56 21.1458 121.833 21.4648C122.111 21.7839 122.321 22.1667 122.462 22.6133C122.603 23.0553 122.674 23.5475 122.674 24.0898V24.9102H116.795V23.5977H120.739V23.4473C120.739 23.1738 120.689 22.93 120.589 22.7158C120.493 22.4971 120.347 22.3239 120.151 22.1963C119.955 22.0687 119.705 22.0049 119.399 22.0049C119.14 22.0049 118.916 22.0618 118.729 22.1758C118.543 22.2897 118.39 22.4492 118.271 22.6543C118.158 22.8594 118.071 23.1009 118.012 23.3789C117.957 23.6523 117.93 23.9531 117.93 24.2812V24.5547C117.93 24.8509 117.971 25.1243 118.053 25.375C118.139 25.6257 118.26 25.8421 118.415 26.0244C118.575 26.2067 118.766 26.348 118.989 26.4482C119.217 26.5485 119.475 26.5986 119.762 26.5986C120.117 26.5986 120.448 26.5303 120.753 26.3936C121.063 26.2523 121.329 26.0404 121.553 25.7578L122.51 26.7969C122.355 27.0202 122.143 27.2344 121.874 27.4395C121.61 27.6445 121.291 27.8132 120.917 27.9453C120.543 28.0729 120.117 28.1367 119.639 28.1367ZM129.359 20.6035V28H127.384V20.6035H129.359ZM127.261 18.6758C127.261 18.3887 127.361 18.1517 127.562 17.9648C127.762 17.778 128.031 17.6846 128.368 17.6846C128.701 17.6846 128.967 17.778 129.168 17.9648C129.373 18.1517 129.476 18.3887 129.476 18.6758C129.476 18.9629 129.373 19.1999 129.168 19.3867C128.967 19.5736 128.701 19.667 128.368 19.667C128.031 19.667 127.762 19.5736 127.562 19.3867C127.361 19.1999 127.261 18.9629 127.261 18.6758ZM132.914 22.1826V28H130.945V20.6035H132.791L132.914 22.1826ZM132.627 24.042H132.094C132.094 23.4951 132.164 23.0029 132.306 22.5654C132.447 22.1234 132.645 21.7474 132.9 21.4375C133.156 21.123 133.459 20.8838 133.81 20.7197C134.165 20.5511 134.562 20.4668 134.999 20.4668C135.345 20.4668 135.662 20.5169 135.949 20.6172C136.236 20.7174 136.482 20.877 136.688 21.0957C136.897 21.3145 137.057 21.6038 137.166 21.9639C137.28 22.3239 137.337 22.7637 137.337 23.2832V28H135.354V23.2764C135.354 22.9482 135.309 22.693 135.218 22.5107C135.127 22.3285 134.992 22.2008 134.814 22.1279C134.641 22.0505 134.427 22.0117 134.172 22.0117C133.908 22.0117 133.677 22.0641 133.481 22.1689C133.29 22.2738 133.131 22.4196 133.003 22.6064C132.88 22.7887 132.786 23.0029 132.723 23.249C132.659 23.4951 132.627 23.7594 132.627 24.042ZM146.312 26.332V23.0371C146.312 22.8001 146.274 22.5973 146.196 22.4287C146.119 22.2555 145.998 22.1211 145.834 22.0254C145.674 21.9297 145.467 21.8818 145.212 21.8818C144.993 21.8818 144.804 21.9206 144.645 21.998C144.485 22.071 144.362 22.1781 144.275 22.3193C144.189 22.4561 144.146 22.6178 144.146 22.8047H142.177C142.177 22.4902 142.25 22.1917 142.396 21.9092C142.541 21.6266 142.753 21.3783 143.031 21.1641C143.309 20.9453 143.64 20.7744 144.022 20.6514C144.41 20.5283 144.843 20.4668 145.321 20.4668C145.896 20.4668 146.406 20.5625 146.853 20.7539C147.299 20.9453 147.65 21.2324 147.905 21.6152C148.165 21.998 148.295 22.4766 148.295 23.0508V26.2158C148.295 26.6214 148.32 26.9541 148.37 27.2139C148.42 27.4691 148.493 27.6924 148.589 27.8838V28H146.6C146.504 27.7995 146.431 27.5488 146.381 27.248C146.335 26.9427 146.312 26.6374 146.312 26.332ZM146.572 23.4951L146.586 24.6094H145.485C145.226 24.6094 145 24.639 144.809 24.6982C144.617 24.7575 144.46 24.8418 144.337 24.9512C144.214 25.056 144.123 25.179 144.063 25.3203C144.009 25.4616 143.981 25.6165 143.981 25.7852C143.981 25.9538 144.02 26.1064 144.098 26.2432C144.175 26.3753 144.287 26.4801 144.433 26.5576C144.578 26.6305 144.749 26.667 144.945 26.667C145.242 26.667 145.499 26.6077 145.718 26.4893C145.937 26.3708 146.105 26.2249 146.224 26.0518C146.347 25.8786 146.41 25.7145 146.415 25.5596L146.935 26.3936C146.862 26.5804 146.761 26.7741 146.634 26.9746C146.511 27.1751 146.354 27.3643 146.162 27.542C145.971 27.7152 145.741 27.8587 145.472 27.9727C145.203 28.082 144.884 28.1367 144.515 28.1367C144.045 28.1367 143.619 28.0433 143.236 27.8564C142.858 27.665 142.557 27.403 142.334 27.0703C142.115 26.7331 142.006 26.3503 142.006 25.9219C142.006 25.5345 142.079 25.1904 142.225 24.8896C142.37 24.5889 142.585 24.3359 142.867 24.1309C143.154 23.9212 143.512 23.764 143.94 23.6592C144.369 23.5498 144.866 23.4951 145.431 23.4951H146.572ZM154.188 26.2295V20.6035H156.156V28H154.304L154.188 26.2295ZM154.406 24.7119L154.987 24.6982C154.987 25.1904 154.93 25.6484 154.816 26.0723C154.702 26.4915 154.532 26.8561 154.304 27.166C154.076 27.4714 153.789 27.7106 153.442 27.8838C153.096 28.0524 152.688 28.1367 152.219 28.1367C151.859 28.1367 151.526 28.0866 151.221 27.9863C150.92 27.8815 150.66 27.7197 150.441 27.501C150.227 27.2777 150.059 26.9928 149.936 26.6465C149.817 26.2956 149.758 25.874 149.758 25.3818V20.6035H151.727V25.3955C151.727 25.6143 151.752 25.7988 151.802 25.9492C151.856 26.0996 151.932 26.2227 152.027 26.3184C152.123 26.4141 152.235 26.4824 152.362 26.5234C152.494 26.5645 152.64 26.585 152.8 26.585C153.205 26.585 153.524 26.5029 153.757 26.3389C153.994 26.1748 154.16 25.9515 154.256 25.6689C154.356 25.3818 154.406 25.0628 154.406 24.7119ZM160.716 26.5986C160.957 26.5986 161.172 26.5531 161.358 26.4619C161.545 26.3662 161.691 26.234 161.796 26.0654C161.905 25.8923 161.962 25.6895 161.967 25.457H163.819C163.815 25.9766 163.676 26.4391 163.402 26.8447C163.129 27.2458 162.762 27.5625 162.302 27.7949C161.841 28.0228 161.326 28.1367 160.757 28.1367C160.183 28.1367 159.681 28.041 159.253 27.8496C158.829 27.6582 158.476 27.3939 158.193 27.0566C157.911 26.7148 157.699 26.3184 157.558 25.8672C157.416 25.4115 157.346 24.9238 157.346 24.4043V24.2061C157.346 23.682 157.416 23.1943 157.558 22.7432C157.699 22.2874 157.911 21.891 158.193 21.5537C158.476 21.2119 158.829 20.9453 159.253 20.7539C159.677 20.5625 160.174 20.4668 160.743 20.4668C161.349 20.4668 161.88 20.583 162.336 20.8154C162.796 21.0479 163.156 21.3805 163.416 21.8135C163.68 22.2419 163.815 22.75 163.819 23.3379H161.967C161.962 23.0918 161.91 22.8685 161.81 22.668C161.714 22.4674 161.573 22.3079 161.386 22.1895C161.203 22.0664 160.978 22.0049 160.709 22.0049C160.422 22.0049 160.187 22.0664 160.005 22.1895C159.823 22.3079 159.681 22.472 159.581 22.6816C159.481 22.8867 159.41 23.1214 159.369 23.3857C159.333 23.6455 159.314 23.9189 159.314 24.2061V24.4043C159.314 24.6914 159.333 24.9671 159.369 25.2314C159.406 25.4958 159.474 25.7305 159.574 25.9355C159.679 26.1406 159.823 26.3024 160.005 26.4209C160.187 26.5394 160.424 26.5986 160.716 26.5986ZM168.584 20.6035V21.998H164.277V20.6035H168.584ZM165.344 18.7783H167.312V25.7715C167.312 25.9857 167.34 26.1497 167.395 26.2637C167.454 26.3776 167.54 26.4574 167.654 26.5029C167.768 26.5439 167.912 26.5645 168.085 26.5645C168.208 26.5645 168.317 26.5599 168.413 26.5508C168.513 26.5371 168.598 26.5234 168.666 26.5098L168.673 27.959C168.504 28.0137 168.322 28.057 168.126 28.0889C167.93 28.1208 167.714 28.1367 167.477 28.1367C167.044 28.1367 166.665 28.0661 166.342 27.9248C166.023 27.779 165.777 27.5465 165.604 27.2275C165.43 26.9085 165.344 26.4893 165.344 25.9697V18.7783ZM171.783 20.6035V28H169.808V20.6035H171.783ZM169.685 18.6758C169.685 18.3887 169.785 18.1517 169.985 17.9648C170.186 17.778 170.455 17.6846 170.792 17.6846C171.125 17.6846 171.391 17.778 171.592 17.9648C171.797 18.1517 171.899 18.3887 171.899 18.6758C171.899 18.9629 171.797 19.1999 171.592 19.3867C171.391 19.5736 171.125 19.667 170.792 19.667C170.455 19.667 170.186 19.5736 169.985 19.3867C169.785 19.1999 169.685 18.9629 169.685 18.6758ZM173.096 24.377V24.2334C173.096 23.6911 173.173 23.1921 173.328 22.7363C173.483 22.276 173.709 21.8773 174.005 21.54C174.301 21.2028 174.666 20.9408 175.099 20.7539C175.532 20.5625 176.028 20.4668 176.589 20.4668C177.149 20.4668 177.648 20.5625 178.086 20.7539C178.523 20.9408 178.89 21.2028 179.187 21.54C179.487 21.8773 179.715 22.276 179.87 22.7363C180.025 23.1921 180.103 23.6911 180.103 24.2334V24.377C180.103 24.9147 180.025 25.4137 179.87 25.874C179.715 26.3298 179.487 26.7285 179.187 27.0703C178.89 27.4076 178.526 27.6696 178.093 27.8564C177.66 28.0433 177.163 28.1367 176.603 28.1367C176.042 28.1367 175.543 28.0433 175.105 27.8564C174.673 27.6696 174.306 27.4076 174.005 27.0703C173.709 26.7285 173.483 26.3298 173.328 25.874C173.173 25.4137 173.096 24.9147 173.096 24.377ZM175.064 24.2334V24.377C175.064 24.6868 175.092 24.9762 175.146 25.2451C175.201 25.514 175.288 25.751 175.406 25.9561C175.529 26.1566 175.689 26.3138 175.885 26.4277C176.081 26.5417 176.32 26.5986 176.603 26.5986C176.876 26.5986 177.111 26.5417 177.307 26.4277C177.503 26.3138 177.66 26.1566 177.778 25.9561C177.897 25.751 177.983 25.514 178.038 25.2451C178.097 24.9762 178.127 24.6868 178.127 24.377V24.2334C178.127 23.9326 178.097 23.6501 178.038 23.3857C177.983 23.1169 177.895 22.8799 177.771 22.6748C177.653 22.4652 177.496 22.3011 177.3 22.1826C177.104 22.0641 176.867 22.0049 176.589 22.0049C176.311 22.0049 176.074 22.0641 175.878 22.1826C175.687 22.3011 175.529 22.4652 175.406 22.6748C175.288 22.8799 175.201 23.1169 175.146 23.3857C175.092 23.6501 175.064 23.9326 175.064 24.2334ZM183.24 22.1826V28H181.271V20.6035H183.117L183.24 22.1826ZM182.953 24.042H182.42C182.42 23.4951 182.491 23.0029 182.632 22.5654C182.773 22.1234 182.971 21.7474 183.227 21.4375C183.482 21.123 183.785 20.8838 184.136 20.7197C184.491 20.5511 184.888 20.4668 185.325 20.4668C185.672 20.4668 185.988 20.5169 186.275 20.6172C186.562 20.7174 186.809 20.877 187.014 21.0957C187.223 21.3145 187.383 21.6038 187.492 21.9639C187.606 22.3239 187.663 22.7637 187.663 23.2832V28H185.681V23.2764C185.681 22.9482 185.635 22.693 185.544 22.5107C185.453 22.3285 185.318 22.2008 185.141 22.1279C184.967 22.0505 184.753 22.0117 184.498 22.0117C184.234 22.0117 184.004 22.0641 183.808 22.1689C183.616 22.2738 183.457 22.4196 183.329 22.6064C183.206 22.7887 183.113 23.0029 183.049 23.249C182.985 23.4951 182.953 23.7594 182.953 24.042Z" fill="#091E25"/>
<path d="M54.9902 38.4688H57.8145C58.4551 38.4688 58.9961 38.5664 59.4375 38.7617C59.8828 38.957 60.2207 39.2461 60.4512 39.6289C60.6855 40.0078 60.8027 40.4746 60.8027 41.0293C60.8027 41.4199 60.7227 41.7773 60.5625 42.1016C60.4062 42.4219 60.1797 42.6953 59.8828 42.9219C59.5898 43.1445 59.2383 43.3105 58.8281 43.4199L58.5117 43.543H55.8574L55.8457 42.623H57.8496C58.2559 42.623 58.5938 42.5527 58.8633 42.4121C59.1328 42.2676 59.3359 42.0742 59.4727 41.832C59.6094 41.5898 59.6777 41.3223 59.6777 41.0293C59.6777 40.7012 59.6133 40.4141 59.4844 40.168C59.3555 39.9219 59.1523 39.7324 58.875 39.5996C58.6016 39.4629 58.248 39.3945 57.8145 39.3945H56.1211V47H54.9902V38.4688ZM59.9766 47L57.9023 43.1328L59.0801 43.127L61.1836 46.9297V47H59.9766ZM64.8516 47.1172C64.4102 47.1172 64.0098 47.043 63.6504 46.8945C63.2949 46.7422 62.9883 46.5293 62.7305 46.2559C62.4766 45.9824 62.2812 45.6582 62.1445 45.2832C62.0078 44.9082 61.9395 44.498 61.9395 44.0527V43.8066C61.9395 43.291 62.0156 42.832 62.168 42.4297C62.3203 42.0234 62.5273 41.6797 62.7891 41.3984C63.0508 41.1172 63.3477 40.9043 63.6797 40.7598C64.0117 40.6152 64.3555 40.543 64.7109 40.543C65.1641 40.543 65.5547 40.6211 65.8828 40.7773C66.2148 40.9336 66.4863 41.1523 66.6973 41.4336C66.9082 41.7109 67.0645 42.0391 67.166 42.418C67.2676 42.793 67.3184 43.2031 67.3184 43.6484V44.1348H62.584V43.25H66.2344V43.168C66.2188 42.8867 66.1602 42.6133 66.0586 42.3477C65.9609 42.082 65.8047 41.8633 65.5898 41.6914C65.375 41.5195 65.082 41.4336 64.7109 41.4336C64.4648 41.4336 64.2383 41.4863 64.0312 41.5918C63.8242 41.6934 63.6465 41.8457 63.498 42.0488C63.3496 42.252 63.2344 42.5 63.1523 42.793C63.0703 43.0859 63.0293 43.4238 63.0293 43.8066V44.0527C63.0293 44.3535 63.0703 44.6367 63.1523 44.9023C63.2383 45.1641 63.3613 45.3945 63.5215 45.5938C63.6855 45.793 63.8828 45.9492 64.1133 46.0625C64.3477 46.1758 64.6133 46.2324 64.9102 46.2324C65.293 46.2324 65.6172 46.1543 65.8828 45.998C66.1484 45.8418 66.3809 45.6328 66.5801 45.3711L67.2363 45.8926C67.0996 46.0996 66.9258 46.2969 66.7148 46.4844C66.5039 46.6719 66.2441 46.8242 65.9355 46.9414C65.6309 47.0586 65.2695 47.1172 64.8516 47.1172ZM72.6914 40.6602H73.6758V46.8652C73.6758 47.4238 73.5625 47.9004 73.3359 48.2949C73.1094 48.6895 72.793 48.9883 72.3867 49.1914C71.9844 49.3984 71.5195 49.502 70.9922 49.502C70.7734 49.502 70.5156 49.4668 70.2188 49.3965C69.9258 49.3301 69.6367 49.2148 69.3516 49.0508C69.0703 48.8906 68.834 48.6738 68.6426 48.4004L69.2109 47.7559C69.4766 48.0762 69.7539 48.2988 70.043 48.4238C70.3359 48.5488 70.625 48.6113 70.9102 48.6113C71.2539 48.6113 71.5508 48.5469 71.8008 48.418C72.0508 48.2891 72.2441 48.0977 72.3809 47.8438C72.5215 47.5938 72.5918 47.2852 72.5918 46.918V42.0547L72.6914 40.6602ZM68.3262 43.9004V43.7773C68.3262 43.293 68.3828 42.8535 68.4961 42.459C68.6133 42.0605 68.7793 41.7188 68.9941 41.4336C69.2129 41.1484 69.4766 40.9297 69.7852 40.7773C70.0938 40.6211 70.4414 40.543 70.8281 40.543C71.2266 40.543 71.5742 40.6133 71.8711 40.7539C72.1719 40.8906 72.4258 41.0918 72.6328 41.3574C72.8438 41.6191 73.0098 41.9355 73.1309 42.3066C73.252 42.6777 73.3359 43.0977 73.3828 43.5664V44.1055C73.3398 44.5703 73.2559 44.9883 73.1309 45.3594C73.0098 45.7305 72.8438 46.0469 72.6328 46.3086C72.4258 46.5703 72.1719 46.7715 71.8711 46.9121C71.5703 47.0488 71.2188 47.1172 70.8164 47.1172C70.4375 47.1172 70.0938 47.0371 69.7852 46.877C69.4805 46.7168 69.2188 46.4922 69 46.2031C68.7812 45.9141 68.6133 45.5742 68.4961 45.1836C68.3828 44.7891 68.3262 44.3613 68.3262 43.9004ZM69.4102 43.7773V43.9004C69.4102 44.2168 69.4414 44.5137 69.5039 44.791C69.5703 45.0684 69.6699 45.3125 69.8027 45.5234C69.9395 45.7344 70.1133 45.9004 70.3242 46.0215C70.5352 46.1387 70.7871 46.1973 71.0801 46.1973C71.4395 46.1973 71.7363 46.1211 71.9707 45.9688C72.2051 45.8164 72.3906 45.6152 72.5273 45.3652C72.668 45.1152 72.7773 44.8438 72.8555 44.5508V43.1387C72.8125 42.9238 72.7461 42.7168 72.6562 42.5176C72.5703 42.3145 72.457 42.1348 72.3164 41.9785C72.1797 41.8184 72.0098 41.6914 71.8066 41.5977C71.6035 41.5039 71.3652 41.457 71.0918 41.457C70.7949 41.457 70.5391 41.5195 70.3242 41.6445C70.1133 41.7656 69.9395 41.9336 69.8027 42.1484C69.6699 42.3594 69.5703 42.6055 69.5039 42.8867C69.4414 43.1641 69.4102 43.4609 69.4102 43.7773ZM76.5 40.6602V47H75.4102V40.6602H76.5ZM75.3281 38.9785C75.3281 38.8027 75.3809 38.6543 75.4863 38.5332C75.5957 38.4121 75.7559 38.3516 75.9668 38.3516C76.1738 38.3516 76.332 38.4121 76.4414 38.5332C76.5547 38.6543 76.6113 38.8027 76.6113 38.9785C76.6113 39.1465 76.5547 39.291 76.4414 39.4121C76.332 39.5293 76.1738 39.5879 75.9668 39.5879C75.7559 39.5879 75.5957 39.5293 75.4863 39.4121C75.3809 39.291 75.3281 39.1465 75.3281 38.9785ZM81.9316 45.3184C81.9316 45.1621 81.8965 45.0176 81.8262 44.8848C81.7598 44.748 81.6211 44.625 81.4102 44.5156C81.2031 44.4023 80.8906 44.3047 80.4727 44.2227C80.1211 44.1484 79.8027 44.0605 79.5176 43.959C79.2363 43.8574 78.9961 43.7344 78.7969 43.5898C78.6016 43.4453 78.4512 43.2754 78.3457 43.0801C78.2402 42.8848 78.1875 42.6562 78.1875 42.3945C78.1875 42.1445 78.2422 41.9082 78.3516 41.6855C78.4648 41.4629 78.623 41.2656 78.8262 41.0938C79.0332 40.9219 79.2812 40.7871 79.5703 40.6895C79.8594 40.5918 80.1816 40.543 80.5371 40.543C81.0449 40.543 81.4785 40.6328 81.8379 40.8125C82.1973 40.9922 82.4727 41.2324 82.6641 41.5332C82.8555 41.8301 82.9512 42.1602 82.9512 42.5234H81.8672C81.8672 42.3477 81.8145 42.1777 81.709 42.0137C81.6074 41.8457 81.457 41.707 81.2578 41.5977C81.0625 41.4883 80.8223 41.4336 80.5371 41.4336C80.2363 41.4336 79.9922 41.4805 79.8047 41.5742C79.6211 41.6641 79.4863 41.7793 79.4004 41.9199C79.3184 42.0605 79.2773 42.209 79.2773 42.3652C79.2773 42.4824 79.2969 42.5879 79.3359 42.6816C79.3789 42.7715 79.4531 42.8555 79.5586 42.9336C79.6641 43.0078 79.8125 43.0781 80.0039 43.1445C80.1953 43.2109 80.4395 43.2773 80.7363 43.3438C81.2559 43.4609 81.6836 43.6016 82.0195 43.7656C82.3555 43.9297 82.6055 44.1309 82.7695 44.3691C82.9336 44.6074 83.0156 44.8965 83.0156 45.2363C83.0156 45.5137 82.957 45.7676 82.8398 45.998C82.7266 46.2285 82.5605 46.4277 82.3418 46.5957C82.127 46.7598 81.8691 46.8887 81.5684 46.9824C81.2715 47.0723 80.9375 47.1172 80.5664 47.1172C80.0078 47.1172 79.5352 47.0176 79.1484 46.8184C78.7617 46.6191 78.4688 46.3613 78.2695 46.0449C78.0703 45.7285 77.9707 45.3945 77.9707 45.043H79.0605C79.0762 45.3398 79.1621 45.5762 79.3184 45.752C79.4746 45.9238 79.666 46.0469 79.8926 46.1211C80.1191 46.1914 80.3438 46.2266 80.5664 46.2266C80.8633 46.2266 81.1113 46.1875 81.3105 46.1094C81.5137 46.0312 81.668 45.9238 81.7734 45.7871C81.8789 45.6504 81.9316 45.4941 81.9316 45.3184ZM87.0938 40.6602V41.4922H83.666V40.6602H87.0938ZM84.8262 39.1191H85.9102V45.4297C85.9102 45.6445 85.9434 45.8066 86.0098 45.916C86.0762 46.0254 86.1621 46.0977 86.2676 46.1328C86.373 46.168 86.4863 46.1855 86.6074 46.1855C86.6973 46.1855 86.791 46.1777 86.8887 46.1621C86.9902 46.1426 87.0664 46.127 87.1172 46.1152L87.123 47C87.0371 47.0273 86.9238 47.0527 86.7832 47.0762C86.6465 47.1035 86.4805 47.1172 86.2852 47.1172C86.0195 47.1172 85.7754 47.0645 85.5527 46.959C85.3301 46.8535 85.1523 46.6777 85.0195 46.4316C84.8906 46.1816 84.8262 45.8457 84.8262 45.4238V39.1191ZM90.9961 47.1172C90.5547 47.1172 90.1543 47.043 89.7949 46.8945C89.4395 46.7422 89.1328 46.5293 88.875 46.2559C88.6211 45.9824 88.4258 45.6582 88.2891 45.2832C88.1523 44.9082 88.084 44.498 88.084 44.0527V43.8066C88.084 43.291 88.1602 42.832 88.3125 42.4297C88.4648 42.0234 88.6719 41.6797 88.9336 41.3984C89.1953 41.1172 89.4922 40.9043 89.8242 40.7598C90.1562 40.6152 90.5 40.543 90.8555 40.543C91.3086 40.543 91.6992 40.6211 92.0273 40.7773C92.3594 40.9336 92.6309 41.1523 92.8418 41.4336C93.0527 41.7109 93.209 42.0391 93.3105 42.418C93.4121 42.793 93.4629 43.2031 93.4629 43.6484V44.1348H88.7285V43.25H92.3789V43.168C92.3633 42.8867 92.3047 42.6133 92.2031 42.3477C92.1055 42.082 91.9492 41.8633 91.7344 41.6914C91.5195 41.5195 91.2266 41.4336 90.8555 41.4336C90.6094 41.4336 90.3828 41.4863 90.1758 41.5918C89.9688 41.6934 89.791 41.8457 89.6426 42.0488C89.4941 42.252 89.3789 42.5 89.2969 42.793C89.2148 43.0859 89.1738 43.4238 89.1738 43.8066V44.0527C89.1738 44.3535 89.2148 44.6367 89.2969 44.9023C89.3828 45.1641 89.5059 45.3945 89.666 45.5938C89.8301 45.793 90.0273 45.9492 90.2578 46.0625C90.4922 46.1758 90.7578 46.2324 91.0547 46.2324C91.4375 46.2324 91.7617 46.1543 92.0273 45.998C92.293 45.8418 92.5254 45.6328 92.7246 45.3711L93.3809 45.8926C93.2441 46.0996 93.0703 46.2969 92.8594 46.4844C92.6484 46.6719 92.3887 46.8242 92.0801 46.9414C91.7754 47.0586 91.4141 47.1172 90.9961 47.1172ZM95.8125 41.6562V47H94.7285V40.6602H95.7832L95.8125 41.6562ZM97.793 40.625L97.7871 41.6328C97.6973 41.6133 97.6113 41.6016 97.5293 41.5977C97.4512 41.5898 97.3613 41.5859 97.2598 41.5859C97.0098 41.5859 96.7891 41.625 96.5977 41.7031C96.4062 41.7812 96.2441 41.8906 96.1113 42.0312C95.9785 42.1719 95.873 42.3398 95.7949 42.5352C95.7207 42.7266 95.6719 42.9375 95.6484 43.168L95.3438 43.3438C95.3438 42.9609 95.3809 42.6016 95.4551 42.2656C95.5332 41.9297 95.6523 41.6328 95.8125 41.375C95.9727 41.1133 96.1758 40.9102 96.4219 40.7656C96.6719 40.6172 96.9688 40.543 97.3125 40.543C97.3906 40.543 97.4805 40.5527 97.582 40.5723C97.6836 40.5879 97.7539 40.6055 97.793 40.625ZM103.377 45.875L105.006 40.6602H105.721L105.58 41.6973L103.922 47H103.225L103.377 45.875ZM102.281 40.6602L103.67 45.9336L103.77 47H103.037L101.197 40.6602H102.281ZM107.279 45.8926L108.604 40.6602H109.682L107.842 47H107.115L107.279 45.8926ZM105.879 40.6602L107.473 45.7871L107.654 47H106.963L105.258 41.6855L105.117 40.6602H105.879ZM111.973 40.6602V47H110.883V40.6602H111.973ZM110.801 38.9785C110.801 38.8027 110.854 38.6543 110.959 38.5332C111.068 38.4121 111.229 38.3516 111.439 38.3516C111.646 38.3516 111.805 38.4121 111.914 38.5332C112.027 38.6543 112.084 38.8027 112.084 38.9785C112.084 39.1465 112.027 39.291 111.914 39.4121C111.805 39.5293 111.646 39.5879 111.439 39.5879C111.229 39.5879 111.068 39.5293 110.959 39.4121C110.854 39.291 110.801 39.1465 110.801 38.9785ZM116.367 40.6602V41.4922H112.939V40.6602H116.367ZM114.1 39.1191H115.184V45.4297C115.184 45.6445 115.217 45.8066 115.283 45.916C115.35 46.0254 115.436 46.0977 115.541 46.1328C115.646 46.168 115.76 46.1855 115.881 46.1855C115.971 46.1855 116.064 46.1777 116.162 46.1621C116.264 46.1426 116.34 46.127 116.391 46.1152L116.396 47C116.311 47.0273 116.197 47.0527 116.057 47.0762C115.92 47.1035 115.754 47.1172 115.559 47.1172C115.293 47.1172 115.049 47.0645 114.826 46.959C114.604 46.8535 114.426 46.6777 114.293 46.4316C114.164 46.1816 114.1 45.8457 114.1 45.4238V39.1191ZM118.723 38V47H117.639V38H118.723ZM118.465 43.5898L118.014 43.5723C118.018 43.1387 118.082 42.7383 118.207 42.3711C118.332 42 118.508 41.6777 118.734 41.4043C118.961 41.1309 119.23 40.9199 119.543 40.7715C119.859 40.6191 120.209 40.543 120.592 40.543C120.904 40.543 121.186 40.5859 121.436 40.6719C121.686 40.7539 121.898 40.8867 122.074 41.0703C122.254 41.2539 122.391 41.4922 122.484 41.7852C122.578 42.0742 122.625 42.4277 122.625 42.8457V47H121.535V42.834C121.535 42.502 121.486 42.2363 121.389 42.0371C121.291 41.834 121.148 41.6875 120.961 41.5977C120.773 41.5039 120.543 41.457 120.27 41.457C120 41.457 119.754 41.5137 119.531 41.627C119.312 41.7402 119.123 41.8965 118.963 42.0957C118.807 42.2949 118.684 42.5234 118.594 42.7812C118.508 43.0352 118.465 43.3047 118.465 43.5898ZM129.879 40.6602V41.4922H126.451V40.6602H129.879ZM127.611 39.1191H128.695V45.4297C128.695 45.6445 128.729 45.8066 128.795 45.916C128.861 46.0254 128.947 46.0977 129.053 46.1328C129.158 46.168 129.271 46.1855 129.393 46.1855C129.482 46.1855 129.576 46.1777 129.674 46.1621C129.775 46.1426 129.852 46.127 129.902 46.1152L129.908 47C129.822 47.0273 129.709 47.0527 129.568 47.0762C129.432 47.1035 129.266 47.1172 129.07 47.1172C128.805 47.1172 128.561 47.0645 128.338 46.959C128.115 46.8535 127.938 46.6777 127.805 46.4316C127.676 46.1816 127.611 45.8457 127.611 45.4238V39.1191ZM132.234 38V47H131.15V38H132.234ZM131.977 43.5898L131.525 43.5723C131.529 43.1387 131.594 42.7383 131.719 42.3711C131.844 42 132.02 41.6777 132.246 41.4043C132.473 41.1309 132.742 40.9199 133.055 40.7715C133.371 40.6191 133.721 40.543 134.104 40.543C134.416 40.543 134.697 40.5859 134.947 40.6719C135.197 40.7539 135.41 40.8867 135.586 41.0703C135.766 41.2539 135.902 41.4922 135.996 41.7852C136.09 42.0742 136.137 42.4277 136.137 42.8457V47H135.047V42.834C135.047 42.502 134.998 42.2363 134.9 42.0371C134.803 41.834 134.66 41.6875 134.473 41.5977C134.285 41.5039 134.055 41.457 133.781 41.457C133.512 41.457 133.266 41.5137 133.043 41.627C132.824 41.7402 132.635 41.8965 132.475 42.0957C132.318 42.2949 132.195 42.5234 132.105 42.7812C132.02 43.0352 131.977 43.3047 131.977 43.5898ZM140.391 47.1172C139.949 47.1172 139.549 47.043 139.189 46.8945C138.834 46.7422 138.527 46.5293 138.27 46.2559C138.016 45.9824 137.82 45.6582 137.684 45.2832C137.547 44.9082 137.479 44.498 137.479 44.0527V43.8066C137.479 43.291 137.555 42.832 137.707 42.4297C137.859 42.0234 138.066 41.6797 138.328 41.3984C138.59 41.1172 138.887 40.9043 139.219 40.7598C139.551 40.6152 139.895 40.543 140.25 40.543C140.703 40.543 141.094 40.6211 141.422 40.7773C141.754 40.9336 142.025 41.1523 142.236 41.4336C142.447 41.7109 142.604 42.0391 142.705 42.418C142.807 42.793 142.857 43.2031 142.857 43.6484V44.1348H138.123V43.25H141.773V43.168C141.758 42.8867 141.699 42.6133 141.598 42.3477C141.5 42.082 141.344 41.8633 141.129 41.6914C140.914 41.5195 140.621 41.4336 140.25 41.4336C140.004 41.4336 139.777 41.4863 139.57 41.5918C139.363 41.6934 139.186 41.8457 139.037 42.0488C138.889 42.252 138.773 42.5 138.691 42.793C138.609 43.0859 138.568 43.4238 138.568 43.8066V44.0527C138.568 44.3535 138.609 44.6367 138.691 44.9023C138.777 45.1641 138.9 45.3945 139.061 45.5938C139.225 45.793 139.422 45.9492 139.652 46.0625C139.887 46.1758 140.152 46.2324 140.449 46.2324C140.832 46.2324 141.156 46.1543 141.422 45.998C141.688 45.8418 141.92 45.6328 142.119 45.3711L142.775 45.8926C142.639 46.0996 142.465 46.2969 142.254 46.4844C142.043 46.6719 141.783 46.8242 141.475 46.9414C141.17 47.0586 140.809 47.1172 140.391 47.1172ZM150.838 45.916V42.6523C150.838 42.4023 150.787 42.1855 150.686 42.002C150.588 41.8145 150.439 41.6699 150.24 41.5684C150.041 41.4668 149.795 41.416 149.502 41.416C149.229 41.416 148.988 41.4629 148.781 41.5566C148.578 41.6504 148.418 41.7734 148.301 41.9258C148.188 42.0781 148.131 42.2422 148.131 42.418H147.047C147.047 42.1914 147.105 41.9668 147.223 41.7441C147.34 41.5215 147.508 41.3203 147.727 41.1406C147.949 40.957 148.215 40.8125 148.523 40.707C148.836 40.5977 149.184 40.543 149.566 40.543C150.027 40.543 150.434 40.6211 150.785 40.7773C151.141 40.9336 151.418 41.1699 151.617 41.4863C151.82 41.7988 151.922 42.1914 151.922 42.6641V45.6172C151.922 45.8281 151.939 46.0527 151.975 46.291C152.014 46.5293 152.07 46.7344 152.145 46.9062V47H151.014C150.959 46.875 150.916 46.709 150.885 46.502C150.854 46.291 150.838 46.0957 150.838 45.916ZM151.025 43.1562L151.037 43.918H149.941C149.633 43.918 149.357 43.9434 149.115 43.9941C148.873 44.041 148.67 44.1133 148.506 44.2109C148.342 44.3086 148.217 44.4316 148.131 44.5801C148.045 44.7246 148.002 44.8945 148.002 45.0898C148.002 45.2891 148.047 45.4707 148.137 45.6348C148.227 45.7988 148.361 45.9297 148.541 46.0273C148.725 46.1211 148.949 46.168 149.215 46.168C149.547 46.168 149.84 46.0977 150.094 45.957C150.348 45.8164 150.549 45.6445 150.697 45.4414C150.85 45.2383 150.932 45.041 150.943 44.8496L151.406 45.3711C151.379 45.5352 151.305 45.7168 151.184 45.916C151.062 46.1152 150.9 46.3066 150.697 46.4902C150.498 46.6699 150.26 46.8203 149.982 46.9414C149.709 47.0586 149.4 47.1172 149.057 47.1172C148.627 47.1172 148.25 47.0332 147.926 46.8652C147.605 46.6973 147.355 46.4727 147.176 46.1914C147 45.9062 146.912 45.5879 146.912 45.2363C146.912 44.8965 146.979 44.5977 147.111 44.3398C147.244 44.0781 147.436 43.8613 147.686 43.6895C147.936 43.5137 148.236 43.3809 148.588 43.291C148.939 43.2012 149.332 43.1562 149.766 43.1562H151.025ZM157.506 45.5352V40.6602H158.596V47H157.559L157.506 45.5352ZM157.711 44.1992L158.162 44.1875C158.162 44.6094 158.117 45 158.027 45.3594C157.941 45.7148 157.801 46.0234 157.605 46.2852C157.41 46.5469 157.154 46.752 156.838 46.9004C156.521 47.0449 156.137 47.1172 155.684 47.1172C155.375 47.1172 155.092 47.0723 154.834 46.9824C154.58 46.8926 154.361 46.7539 154.178 46.5664C153.994 46.3789 153.852 46.1348 153.75 45.834C153.652 45.5332 153.604 45.1719 153.604 44.75V40.6602H154.688V44.7617C154.688 45.0469 154.719 45.2832 154.781 45.4707C154.848 45.6543 154.936 45.8008 155.045 45.9102C155.158 46.0156 155.283 46.0898 155.42 46.1328C155.561 46.1758 155.705 46.1973 155.854 46.1973C156.314 46.1973 156.68 46.1094 156.949 45.9336C157.219 45.7539 157.412 45.5137 157.529 45.2129C157.65 44.9082 157.711 44.5703 157.711 44.1992ZM162.785 46.2266C163.043 46.2266 163.281 46.1738 163.5 46.0684C163.719 45.9629 163.898 45.8184 164.039 45.6348C164.18 45.4473 164.26 45.2344 164.279 44.9961H165.311C165.291 45.3711 165.164 45.7207 164.93 46.0449C164.699 46.3652 164.396 46.625 164.021 46.8242C163.646 47.0195 163.234 47.1172 162.785 47.1172C162.309 47.1172 161.893 47.0332 161.537 46.8652C161.186 46.6973 160.893 46.4668 160.658 46.1738C160.428 45.8809 160.254 45.5449 160.137 45.166C160.023 44.7832 159.967 44.3789 159.967 43.9531V43.707C159.967 43.2812 160.023 42.8789 160.137 42.5C160.254 42.1172 160.428 41.7793 160.658 41.4863C160.893 41.1934 161.186 40.9629 161.537 40.7949C161.893 40.627 162.309 40.543 162.785 40.543C163.281 40.543 163.715 40.6445 164.086 40.8477C164.457 41.0469 164.748 41.3203 164.959 41.668C165.174 42.0117 165.291 42.4023 165.311 42.8398H164.279C164.26 42.5781 164.186 42.3418 164.057 42.1309C163.932 41.9199 163.76 41.752 163.541 41.627C163.326 41.498 163.074 41.4336 162.785 41.4336C162.453 41.4336 162.174 41.5 161.947 41.6328C161.725 41.7617 161.547 41.9375 161.414 42.1602C161.285 42.3789 161.191 42.623 161.133 42.8926C161.078 43.1582 161.051 43.4297 161.051 43.707V43.9531C161.051 44.2305 161.078 44.5039 161.133 44.7734C161.188 45.043 161.279 45.2871 161.408 45.5059C161.541 45.7246 161.719 45.9004 161.941 46.0332C162.168 46.1621 162.449 46.2266 162.785 46.2266ZM169.184 40.6602V41.4922H165.756V40.6602H169.184ZM166.916 39.1191H168V45.4297C168 45.6445 168.033 45.8066 168.1 45.916C168.166 46.0254 168.252 46.0977 168.357 46.1328C168.463 46.168 168.576 46.1855 168.697 46.1855C168.787 46.1855 168.881 46.1777 168.979 46.1621C169.08 46.1426 169.156 46.127 169.207 46.1152L169.213 47C169.127 47.0273 169.014 47.0527 168.873 47.0762C168.736 47.1035 168.57 47.1172 168.375 47.1172C168.109 47.1172 167.865 47.0645 167.643 46.959C167.42 46.8535 167.242 46.6777 167.109 46.4316C166.98 46.1816 166.916 45.8457 166.916 45.4238V39.1191ZM171.633 40.6602V47H170.543V40.6602H171.633ZM170.461 38.9785C170.461 38.8027 170.514 38.6543 170.619 38.5332C170.729 38.4121 170.889 38.3516 171.1 38.3516C171.307 38.3516 171.465 38.4121 171.574 38.5332C171.688 38.6543 171.744 38.8027 171.744 38.9785C171.744 39.1465 171.688 39.291 171.574 39.4121C171.465 39.5293 171.307 39.5879 171.1 39.5879C170.889 39.5879 170.729 39.5293 170.619 39.4121C170.514 39.291 170.461 39.1465 170.461 38.9785ZM173.086 43.9004V43.7656C173.086 43.3086 173.152 42.8848 173.285 42.4941C173.418 42.0996 173.609 41.7578 173.859 41.4688C174.109 41.1758 174.412 40.9492 174.768 40.7891C175.123 40.625 175.521 40.543 175.963 40.543C176.408 40.543 176.809 40.625 177.164 40.7891C177.523 40.9492 177.828 41.1758 178.078 41.4688C178.332 41.7578 178.525 42.0996 178.658 42.4941C178.791 42.8848 178.857 43.3086 178.857 43.7656V43.9004C178.857 44.3574 178.791 44.7812 178.658 45.1719C178.525 45.5625 178.332 45.9043 178.078 46.1973C177.828 46.4863 177.525 46.7129 177.17 46.877C176.818 47.0371 176.42 47.1172 175.975 47.1172C175.529 47.1172 175.129 47.0371 174.773 46.877C174.418 46.7129 174.113 46.4863 173.859 46.1973C173.609 45.9043 173.418 45.5625 173.285 45.1719C173.152 44.7812 173.086 44.3574 173.086 43.9004ZM174.17 43.7656V43.9004C174.17 44.2168 174.207 44.5156 174.281 44.7969C174.355 45.0742 174.467 45.3203 174.615 45.5352C174.768 45.75 174.957 45.9199 175.184 46.0449C175.41 46.166 175.674 46.2266 175.975 46.2266C176.271 46.2266 176.531 46.166 176.754 46.0449C176.98 45.9199 177.168 45.75 177.316 45.5352C177.465 45.3203 177.576 45.0742 177.65 44.7969C177.729 44.5156 177.768 44.2168 177.768 43.9004V43.7656C177.768 43.4531 177.729 43.1582 177.65 42.8809C177.576 42.5996 177.463 42.3516 177.311 42.1367C177.162 41.918 176.975 41.7461 176.748 41.6211C176.525 41.4961 176.264 41.4336 175.963 41.4336C175.666 41.4336 175.404 41.4961 175.178 41.6211C174.955 41.7461 174.768 41.918 174.615 42.1367C174.467 42.3516 174.355 42.5996 174.281 42.8809C174.207 43.1582 174.17 43.4531 174.17 43.7656ZM181.301 42.0137V47H180.217V40.6602H181.242L181.301 42.0137ZM181.043 43.5898L180.592 43.5723C180.596 43.1387 180.66 42.7383 180.785 42.3711C180.91 42 181.086 41.6777 181.312 41.4043C181.539 41.1309 181.809 40.9199 182.121 40.7715C182.438 40.6191 182.787 40.543 183.17 40.543C183.482 40.543 183.764 40.5859 184.014 40.6719C184.264 40.7539 184.477 40.8867 184.652 41.0703C184.832 41.2539 184.969 41.4922 185.062 41.7852C185.156 42.0742 185.203 42.4277 185.203 42.8457V47H184.113V42.834C184.113 42.502 184.064 42.2363 183.967 42.0371C183.869 41.834 183.727 41.6875 183.539 41.5977C183.352 41.5039 183.121 41.457 182.848 41.457C182.578 41.457 182.332 41.5137 182.109 41.627C181.891 41.7402 181.701 41.8965 181.541 42.0957C181.385 42.2949 181.262 42.5234 181.172 42.7812C181.086 43.0352 181.043 43.3047 181.043 43.5898ZM190.91 41.8789V49.4375H189.82V40.6602H190.816L190.91 41.8789ZM195.182 43.7773V43.9004C195.182 44.3613 195.127 44.7891 195.018 45.1836C194.908 45.5742 194.748 45.9141 194.537 46.2031C194.33 46.4922 194.074 46.7168 193.77 46.877C193.465 47.0371 193.115 47.1172 192.721 47.1172C192.318 47.1172 191.963 47.0508 191.654 46.918C191.346 46.7852 191.084 46.5918 190.869 46.3379C190.654 46.084 190.482 45.7793 190.354 45.4238C190.229 45.0684 190.143 44.668 190.096 44.2227V43.5664C190.143 43.0977 190.23 42.6777 190.359 42.3066C190.488 41.9355 190.658 41.6191 190.869 41.3574C191.084 41.0918 191.344 40.8906 191.648 40.7539C191.953 40.6133 192.305 40.543 192.703 40.543C193.102 40.543 193.455 40.6211 193.764 40.7773C194.072 40.9297 194.332 41.1484 194.543 41.4336C194.754 41.7188 194.912 42.0605 195.018 42.459C195.127 42.8535 195.182 43.293 195.182 43.7773ZM194.092 43.9004V43.7773C194.092 43.4609 194.059 43.1641 193.992 42.8867C193.926 42.6055 193.822 42.3594 193.682 42.1484C193.545 41.9336 193.369 41.7656 193.154 41.6445C192.939 41.5195 192.684 41.457 192.387 41.457C192.113 41.457 191.875 41.5039 191.672 41.5977C191.473 41.6914 191.303 41.8184 191.162 41.9785C191.021 42.1348 190.906 42.3145 190.816 42.5176C190.73 42.7168 190.666 42.9238 190.623 43.1387V44.6562C190.701 44.9297 190.811 45.1875 190.951 45.4297C191.092 45.668 191.279 45.8613 191.514 46.0098C191.748 46.1543 192.043 46.2266 192.398 46.2266C192.691 46.2266 192.943 46.166 193.154 46.0449C193.369 45.9199 193.545 45.75 193.682 45.5352C193.822 45.3203 193.926 45.0742 193.992 44.7969C194.059 44.5156 194.092 44.2168 194.092 43.9004ZM196.277 43.9004V43.7656C196.277 43.3086 196.344 42.8848 196.477 42.4941C196.609 42.0996 196.801 41.7578 197.051 41.4688C197.301 41.1758 197.604 40.9492 197.959 40.7891C198.314 40.625 198.713 40.543 199.154 40.543C199.6 40.543 200 40.625 200.355 40.7891C200.715 40.9492 201.02 41.1758 201.27 41.4688C201.523 41.7578 201.717 42.0996 201.85 42.4941C201.982 42.8848 202.049 43.3086 202.049 43.7656V43.9004C202.049 44.3574 201.982 44.7812 201.85 45.1719C201.717 45.5625 201.523 45.9043 201.27 46.1973C201.02 46.4863 200.717 46.7129 200.361 46.877C200.01 47.0371 199.611 47.1172 199.166 47.1172C198.721 47.1172 198.32 47.0371 197.965 46.877C197.609 46.7129 197.305 46.4863 197.051 46.1973C196.801 45.9043 196.609 45.5625 196.477 45.1719C196.344 44.7812 196.277 44.3574 196.277 43.9004ZM197.361 43.7656V43.9004C197.361 44.2168 197.398 44.5156 197.473 44.7969C197.547 45.0742 197.658 45.3203 197.807 45.5352C197.959 45.75 198.148 45.9199 198.375 46.0449C198.602 46.166 198.865 46.2266 199.166 46.2266C199.463 46.2266 199.723 46.166 199.945 46.0449C200.172 45.9199 200.359 45.75 200.508 45.5352C200.656 45.3203 200.768 45.0742 200.842 44.7969C200.92 44.5156 200.959 44.2168 200.959 43.9004V43.7656C200.959 43.4531 200.92 43.1582 200.842 42.8809C200.768 42.5996 200.654 42.3516 200.502 42.1367C200.354 41.918 200.166 41.7461 199.939 41.6211C199.717 41.4961 199.455 41.4336 199.154 41.4336C198.857 41.4336 198.596 41.4961 198.369 41.6211C198.146 41.7461 197.959 41.918 197.807 42.1367C197.658 42.3516 197.547 42.5996 197.473 42.8809C197.398 43.1582 197.361 43.4531 197.361 43.7656ZM204.492 41.6562V47H203.408V40.6602H204.463L204.492 41.6562ZM206.473 40.625L206.467 41.6328C206.377 41.6133 206.291 41.6016 206.209 41.5977C206.131 41.5898 206.041 41.5859 205.939 41.5859C205.689 41.5859 205.469 41.625 205.277 41.7031C205.086 41.7812 204.924 41.8906 204.791 42.0312C204.658 42.1719 204.553 42.3398 204.475 42.5352C204.4 42.7266 204.352 42.9375 204.328 43.168L204.023 43.3438C204.023 42.9609 204.061 42.6016 204.135 42.2656C204.213 41.9297 204.332 41.6328 204.492 41.375C204.652 41.1133 204.855 40.9102 205.102 40.7656C205.352 40.6172 205.648 40.543 205.992 40.543C206.07 40.543 206.16 40.5527 206.262 40.5723C206.363 40.5879 206.434 40.6055 206.473 40.625ZM210.422 40.6602V41.4922H206.994V40.6602H210.422ZM208.154 39.1191H209.238V45.4297C209.238 45.6445 209.271 45.8066 209.338 45.916C209.404 46.0254 209.49 46.0977 209.596 46.1328C209.701 46.168 209.814 46.1855 209.936 46.1855C210.025 46.1855 210.119 46.1777 210.217 46.1621C210.318 46.1426 210.395 46.127 210.445 46.1152L210.451 47C210.365 47.0273 210.252 47.0527 210.111 47.0762C209.975 47.1035 209.809 47.1172 209.613 47.1172C209.348 47.1172 209.104 47.0645 208.881 46.959C208.658 46.8535 208.48 46.6777 208.348 46.4316C208.219 46.1816 208.154 45.8457 208.154 45.4238V39.1191ZM215.432 45.916V42.6523C215.432 42.4023 215.381 42.1855 215.279 42.002C215.182 41.8145 215.033 41.6699 214.834 41.5684C214.635 41.4668 214.389 41.416 214.096 41.416C213.822 41.416 213.582 41.4629 213.375 41.5566C213.172 41.6504 213.012 41.7734 212.895 41.9258C212.781 42.0781 212.725 42.2422 212.725 42.418H211.641C211.641 42.1914 211.699 41.9668 211.816 41.7441C211.934 41.5215 212.102 41.3203 212.32 41.1406C212.543 40.957 212.809 40.8125 213.117 40.707C213.43 40.5977 213.777 40.543 214.16 40.543C214.621 40.543 215.027 40.6211 215.379 40.7773C215.734 40.9336 216.012 41.1699 216.211 41.4863C216.414 41.7988 216.516 42.1914 216.516 42.6641V45.6172C216.516 45.8281 216.533 46.0527 216.568 46.291C216.607 46.5293 216.664 46.7344 216.738 46.9062V47H215.607C215.553 46.875 215.51 46.709 215.479 46.502C215.447 46.291 215.432 46.0957 215.432 45.916ZM215.619 43.1562L215.631 43.918H214.535C214.227 43.918 213.951 43.9434 213.709 43.9941C213.467 44.041 213.264 44.1133 213.1 44.2109C212.936 44.3086 212.811 44.4316 212.725 44.5801C212.639 44.7246 212.596 44.8945 212.596 45.0898C212.596 45.2891 212.641 45.4707 212.73 45.6348C212.82 45.7988 212.955 45.9297 213.135 46.0273C213.318 46.1211 213.543 46.168 213.809 46.168C214.141 46.168 214.434 46.0977 214.688 45.957C214.941 45.8164 215.143 45.6445 215.291 45.4414C215.443 45.2383 215.525 45.041 215.537 44.8496L216 45.3711C215.973 45.5352 215.898 45.7168 215.777 45.916C215.656 46.1152 215.494 46.3066 215.291 46.4902C215.092 46.6699 214.854 46.8203 214.576 46.9414C214.303 47.0586 213.994 47.1172 213.65 47.1172C213.221 47.1172 212.844 47.0332 212.52 46.8652C212.199 46.6973 211.949 46.4727 211.77 46.1914C211.594 45.9062 211.506 45.5879 211.506 45.2363C211.506 44.8965 211.572 44.5977 211.705 44.3398C211.838 44.0781 212.029 43.8613 212.279 43.6895C212.529 43.5137 212.83 43.3809 213.182 43.291C213.533 43.2012 213.926 43.1562 214.359 43.1562H215.619ZM219.398 38V47H218.309V38H219.398ZM227.854 45.916V42.6523C227.854 42.4023 227.803 42.1855 227.701 42.002C227.604 41.8145 227.455 41.6699 227.256 41.5684C227.057 41.4668 226.811 41.416 226.518 41.416C226.244 41.416 226.004 41.4629 225.797 41.5566C225.594 41.6504 225.434 41.7734 225.316 41.9258C225.203 42.0781 225.146 42.2422 225.146 42.418H224.062C224.062 42.1914 224.121 41.9668 224.238 41.7441C224.355 41.5215 224.523 41.3203 224.742 41.1406C224.965 40.957 225.23 40.8125 225.539 40.707C225.852 40.5977 226.199 40.543 226.582 40.543C227.043 40.543 227.449 40.6211 227.801 40.7773C228.156 40.9336 228.434 41.1699 228.633 41.4863C228.836 41.7988 228.938 42.1914 228.938 42.6641V45.6172C228.938 45.8281 228.955 46.0527 228.99 46.291C229.029 46.5293 229.086 46.7344 229.16 46.9062V47H228.029C227.975 46.875 227.932 46.709 227.9 46.502C227.869 46.291 227.854 46.0957 227.854 45.916ZM228.041 43.1562L228.053 43.918H226.957C226.648 43.918 226.373 43.9434 226.131 43.9941C225.889 44.041 225.686 44.1133 225.521 44.2109C225.357 44.3086 225.232 44.4316 225.146 44.5801C225.061 44.7246 225.018 44.8945 225.018 45.0898C225.018 45.2891 225.062 45.4707 225.152 45.6348C225.242 45.7988 225.377 45.9297 225.557 46.0273C225.74 46.1211 225.965 46.168 226.23 46.168C226.562 46.168 226.855 46.0977 227.109 45.957C227.363 45.8164 227.564 45.6445 227.713 45.4414C227.865 45.2383 227.947 45.041 227.959 44.8496L228.422 45.3711C228.395 45.5352 228.32 45.7168 228.199 45.916C228.078 46.1152 227.916 46.3066 227.713 46.4902C227.514 46.6699 227.275 46.8203 226.998 46.9414C226.725 47.0586 226.416 47.1172 226.072 47.1172C225.643 47.1172 225.266 47.0332 224.941 46.8652C224.621 46.6973 224.371 46.4727 224.191 46.1914C224.016 45.9062 223.928 45.5879 223.928 45.2363C223.928 44.8965 223.994 44.5977 224.127 44.3398C224.26 44.0781 224.451 43.8613 224.701 43.6895C224.951 43.5137 225.252 43.3809 225.604 43.291C225.955 43.2012 226.348 43.1562 226.781 43.1562H228.041ZM231.727 42.0137V47H230.643V40.6602H231.668L231.727 42.0137ZM231.469 43.5898L231.018 43.5723C231.021 43.1387 231.086 42.7383 231.211 42.3711C231.336 42 231.512 41.6777 231.738 41.4043C231.965 41.1309 232.234 40.9199 232.547 40.7715C232.863 40.6191 233.213 40.543 233.596 40.543C233.908 40.543 234.189 40.5859 234.439 40.6719C234.689 40.7539 234.902 40.8867 235.078 41.0703C235.258 41.2539 235.395 41.4922 235.488 41.7852C235.582 42.0742 235.629 42.4277 235.629 42.8457V47H234.539V42.834C234.539 42.502 234.49 42.2363 234.393 42.0371C234.295 41.834 234.152 41.6875 233.965 41.5977C233.777 41.5039 233.547 41.457 233.273 41.457C233.004 41.457 232.758 41.5137 232.535 41.627C232.316 41.7402 232.127 41.8965 231.967 42.0957C231.811 42.2949 231.688 42.5234 231.598 42.7812C231.512 43.0352 231.469 43.3047 231.469 43.5898ZM241.271 45.7695V38H242.361V47H241.365L241.271 45.7695ZM237.006 43.9004V43.7773C237.006 43.293 237.064 42.8535 237.182 42.459C237.303 42.0605 237.473 41.7188 237.691 41.4336C237.914 41.1484 238.178 40.9297 238.482 40.7773C238.791 40.6211 239.135 40.543 239.514 40.543C239.912 40.543 240.26 40.6133 240.557 40.7539C240.857 40.8906 241.111 41.0918 241.318 41.3574C241.529 41.6191 241.695 41.9355 241.816 42.3066C241.938 42.6777 242.021 43.0977 242.068 43.5664V44.1055C242.025 44.5703 241.941 44.9883 241.816 45.3594C241.695 45.7305 241.529 46.0469 241.318 46.3086C241.111 46.5703 240.857 46.7715 240.557 46.9121C240.256 47.0488 239.904 47.1172 239.502 47.1172C239.131 47.1172 238.791 47.0371 238.482 46.877C238.178 46.7168 237.914 46.4922 237.691 46.2031C237.473 45.9141 237.303 45.5742 237.182 45.1836C237.064 44.7891 237.006 44.3613 237.006 43.9004ZM238.096 43.7773V43.9004C238.096 44.2168 238.127 44.5137 238.189 44.791C238.256 45.0684 238.357 45.3125 238.494 45.5234C238.631 45.7344 238.805 45.9004 239.016 46.0215C239.227 46.1387 239.479 46.1973 239.771 46.1973C240.131 46.1973 240.426 46.1211 240.656 45.9688C240.891 45.8164 241.078 45.6152 241.219 45.3652C241.359 45.1152 241.469 44.8438 241.547 44.5508V43.1387C241.5 42.9238 241.432 42.7168 241.342 42.5176C241.256 42.3145 241.143 42.1348 241.002 41.9785C240.865 41.8184 240.695 41.6914 240.492 41.5977C240.293 41.5039 240.057 41.457 239.783 41.457C239.486 41.457 239.23 41.5195 239.016 41.6445C238.805 41.7656 238.631 41.9336 238.494 42.1484C238.357 42.3594 238.256 42.6055 238.189 42.8867C238.127 43.1641 238.096 43.4609 238.096 43.7773ZM57.4805 54.6602V55.4922H54.0527V54.6602H57.4805ZM55.2129 53.1191H56.2969V59.4297C56.2969 59.6445 56.3301 59.8066 56.3965 59.916C56.4629 60.0254 56.5488 60.0977 56.6543 60.1328C56.7598 60.168 56.873 60.1855 56.9941 60.1855C57.084 60.1855 57.1777 60.1777 57.2754 60.1621C57.377 60.1426 57.4531 60.127 57.5039 60.1152L57.5098 61C57.4238 61.0273 57.3105 61.0527 57.1699 61.0762C57.0332 61.1035 56.8672 61.1172 56.6719 61.1172C56.4062 61.1172 56.1621 61.0645 55.9395 60.959C55.7168 60.8535 55.5391 60.6777 55.4062 60.4316C55.2773 60.1816 55.2129 59.8457 55.2129 59.4238V53.1191ZM62.4902 59.916V56.6523C62.4902 56.4023 62.4395 56.1855 62.3379 56.002C62.2402 55.8145 62.0918 55.6699 61.8926 55.5684C61.6934 55.4668 61.4473 55.416 61.1543 55.416C60.8809 55.416 60.6406 55.4629 60.4336 55.5566C60.2305 55.6504 60.0703 55.7734 59.9531 55.9258C59.8398 56.0781 59.7832 56.2422 59.7832 56.418H58.6992C58.6992 56.1914 58.7578 55.9668 58.875 55.7441C58.9922 55.5215 59.1602 55.3203 59.3789 55.1406C59.6016 54.957 59.8672 54.8125 60.1758 54.707C60.4883 54.5977 60.8359 54.543 61.2188 54.543C61.6797 54.543 62.0859 54.6211 62.4375 54.7773C62.793 54.9336 63.0703 55.1699 63.2695 55.4863C63.4727 55.7988 63.5742 56.1914 63.5742 56.6641V59.6172C63.5742 59.8281 63.5918 60.0527 63.627 60.291C63.666 60.5293 63.7227 60.7344 63.7969 60.9062V61H62.666C62.6113 60.875 62.5684 60.709 62.5371 60.502C62.5059 60.291 62.4902 60.0957 62.4902 59.916ZM62.6777 57.1562L62.6895 57.918H61.5938C61.2852 57.918 61.0098 57.9434 60.7676 57.9941C60.5254 58.041 60.3223 58.1133 60.1582 58.2109C59.9941 58.3086 59.8691 58.4316 59.7832 58.5801C59.6973 58.7246 59.6543 58.8945 59.6543 59.0898C59.6543 59.2891 59.6992 59.4707 59.7891 59.6348C59.8789 59.7988 60.0137 59.9297 60.1934 60.0273C60.377 60.1211 60.6016 60.168 60.8672 60.168C61.1992 60.168 61.4922 60.0977 61.7461 59.957C62 59.8164 62.2012 59.6445 62.3496 59.4414C62.502 59.2383 62.584 59.041 62.5957 58.8496L63.0586 59.3711C63.0312 59.5352 62.957 59.7168 62.8359 59.916C62.7148 60.1152 62.5527 60.3066 62.3496 60.4902C62.1504 60.6699 61.9121 60.8203 61.6348 60.9414C61.3613 61.0586 61.0527 61.1172 60.709 61.1172C60.2793 61.1172 59.9023 61.0332 59.5781 60.8652C59.2578 60.6973 59.0078 60.4727 58.8281 60.1914C58.6523 59.9062 58.5645 59.5879 58.5645 59.2363C58.5645 58.8965 58.6309 58.5977 58.7637 58.3398C58.8965 58.0781 59.0879 57.8613 59.3379 57.6895C59.5879 57.5137 59.8887 57.3809 60.2402 57.291C60.5918 57.2012 60.9844 57.1562 61.418 57.1562H62.6777ZM66.3691 52V61H65.2793V52H66.3691ZM70.2422 54.6602L67.4766 57.6191L65.9297 59.2246L65.8418 58.0703L66.9492 56.7461L68.918 54.6602H70.2422ZM69.252 61L66.9902 57.9766L67.5527 57.0098L70.5293 61H69.252ZM73.875 61.1172C73.4336 61.1172 73.0332 61.043 72.6738 60.8945C72.3184 60.7422 72.0117 60.5293 71.7539 60.2559C71.5 59.9824 71.3047 59.6582 71.168 59.2832C71.0312 58.9082 70.9629 58.498 70.9629 58.0527V57.8066C70.9629 57.291 71.0391 56.832 71.1914 56.4297C71.3438 56.0234 71.5508 55.6797 71.8125 55.3984C72.0742 55.1172 72.3711 54.9043 72.7031 54.7598C73.0352 54.6152 73.3789 54.543 73.7344 54.543C74.1875 54.543 74.5781 54.6211 74.9062 54.7773C75.2383 54.9336 75.5098 55.1523 75.7207 55.4336C75.9316 55.7109 76.0879 56.0391 76.1895 56.418C76.291 56.793 76.3418 57.2031 76.3418 57.6484V58.1348H71.6074V57.25H75.2578V57.168C75.2422 56.8867 75.1836 56.6133 75.082 56.3477C74.9844 56.082 74.8281 55.8633 74.6133 55.6914C74.3984 55.5195 74.1055 55.4336 73.7344 55.4336C73.4883 55.4336 73.2617 55.4863 73.0547 55.5918C72.8477 55.6934 72.6699 55.8457 72.5215 56.0488C72.373 56.252 72.2578 56.5 72.1758 56.793C72.0938 57.0859 72.0527 57.4238 72.0527 57.8066V58.0527C72.0527 58.3535 72.0938 58.6367 72.1758 58.9023C72.2617 59.1641 72.3848 59.3945 72.5449 59.5938C72.709 59.793 72.9062 59.9492 73.1367 60.0625C73.3711 60.1758 73.6367 60.2324 73.9336 60.2324C74.3164 60.2324 74.6406 60.1543 74.9062 59.998C75.1719 59.8418 75.4043 59.6328 75.6035 59.3711L76.2598 59.8926C76.123 60.0996 75.9492 60.2969 75.7383 60.4844C75.5273 60.6719 75.2676 60.8242 74.959 60.9414C74.6543 61.0586 74.293 61.1172 73.875 61.1172ZM81.668 55.8789V63.4375H80.5781V54.6602H81.5742L81.668 55.8789ZM85.9395 57.7773V57.9004C85.9395 58.3613 85.8848 58.7891 85.7754 59.1836C85.666 59.5742 85.5059 59.9141 85.2949 60.2031C85.0879 60.4922 84.832 60.7168 84.5273 60.877C84.2227 61.0371 83.873 61.1172 83.4785 61.1172C83.0762 61.1172 82.7207 61.0508 82.4121 60.918C82.1035 60.7852 81.8418 60.5918 81.627 60.3379C81.4121 60.084 81.2402 59.7793 81.1113 59.4238C80.9863 59.0684 80.9004 58.668 80.8535 58.2227V57.5664C80.9004 57.0977 80.9883 56.6777 81.1172 56.3066C81.2461 55.9355 81.416 55.6191 81.627 55.3574C81.8418 55.0918 82.1016 54.8906 82.4062 54.7539C82.7109 54.6133 83.0625 54.543 83.4609 54.543C83.8594 54.543 84.2129 54.6211 84.5215 54.7773C84.8301 54.9297 85.0898 55.1484 85.3008 55.4336C85.5117 55.7188 85.6699 56.0605 85.7754 56.459C85.8848 56.8535 85.9395 57.293 85.9395 57.7773ZM84.8496 57.9004V57.7773C84.8496 57.4609 84.8164 57.1641 84.75 56.8867C84.6836 56.6055 84.5801 56.3594 84.4395 56.1484C84.3027 55.9336 84.127 55.7656 83.9121 55.6445C83.6973 55.5195 83.4414 55.457 83.1445 55.457C82.8711 55.457 82.6328 55.5039 82.4297 55.5977C82.2305 55.6914 82.0605 55.8184 81.9199 55.9785C81.7793 56.1348 81.6641 56.3145 81.5742 56.5176C81.4883 56.7168 81.4238 56.9238 81.3809 57.1387V58.6562C81.459 58.9297 81.5684 59.1875 81.709 59.4297C81.8496 59.668 82.0371 59.8613 82.2715 60.0098C82.5059 60.1543 82.8008 60.2266 83.1562 60.2266C83.4492 60.2266 83.7012 60.166 83.9121 60.0449C84.127 59.9199 84.3027 59.75 84.4395 59.5352C84.5801 59.3203 84.6836 59.0742 84.75 58.7969C84.8164 58.5156 84.8496 58.2168 84.8496 57.9004ZM91.0605 59.916V56.6523C91.0605 56.4023 91.0098 56.1855 90.9082 56.002C90.8105 55.8145 90.6621 55.6699 90.4629 55.5684C90.2637 55.4668 90.0176 55.416 89.7246 55.416C89.4512 55.416 89.2109 55.4629 89.0039 55.5566C88.8008 55.6504 88.6406 55.7734 88.5234 55.9258C88.4102 56.0781 88.3535 56.2422 88.3535 56.418H87.2695C87.2695 56.1914 87.3281 55.9668 87.4453 55.7441C87.5625 55.5215 87.7305 55.3203 87.9492 55.1406C88.1719 54.957 88.4375 54.8125 88.7461 54.707C89.0586 54.5977 89.4062 54.543 89.7891 54.543C90.25 54.543 90.6562 54.6211 91.0078 54.7773C91.3633 54.9336 91.6406 55.1699 91.8398 55.4863C92.043 55.7988 92.1445 56.1914 92.1445 56.6641V59.6172C92.1445 59.8281 92.1621 60.0527 92.1973 60.291C92.2363 60.5293 92.293 60.7344 92.3672 60.9062V61H91.2363C91.1816 60.875 91.1387 60.709 91.1074 60.502C91.0762 60.291 91.0605 60.0957 91.0605 59.916ZM91.248 57.1562L91.2598 57.918H90.1641C89.8555 57.918 89.5801 57.9434 89.3379 57.9941C89.0957 58.041 88.8926 58.1133 88.7285 58.2109C88.5645 58.3086 88.4395 58.4316 88.3535 58.5801C88.2676 58.7246 88.2246 58.8945 88.2246 59.0898C88.2246 59.2891 88.2695 59.4707 88.3594 59.6348C88.4492 59.7988 88.584 59.9297 88.7637 60.0273C88.9473 60.1211 89.1719 60.168 89.4375 60.168C89.7695 60.168 90.0625 60.0977 90.3164 59.957C90.5703 59.8164 90.7715 59.6445 90.9199 59.4414C91.0723 59.2383 91.1543 59.041 91.166 58.8496L91.6289 59.3711C91.6016 59.5352 91.5273 59.7168 91.4062 59.916C91.2852 60.1152 91.123 60.3066 90.9199 60.4902C90.7207 60.6699 90.4824 60.8203 90.2051 60.9414C89.9316 61.0586 89.623 61.1172 89.2793 61.1172C88.8496 61.1172 88.4727 61.0332 88.1484 60.8652C87.8281 60.6973 87.5781 60.4727 87.3984 60.1914C87.2227 59.9062 87.1348 59.5879 87.1348 59.2363C87.1348 58.8965 87.2012 58.5977 87.334 58.3398C87.4668 58.0781 87.6582 57.8613 87.9082 57.6895C88.1582 57.5137 88.459 57.3809 88.8105 57.291C89.1621 57.2012 89.5547 57.1562 89.9883 57.1562H91.248ZM94.9336 55.6562V61H93.8496V54.6602H94.9043L94.9336 55.6562ZM96.9141 54.625L96.9082 55.6328C96.8184 55.6133 96.7324 55.6016 96.6504 55.5977C96.5723 55.5898 96.4824 55.5859 96.3809 55.5859C96.1309 55.5859 95.9102 55.625 95.7188 55.7031C95.5273 55.7812 95.3652 55.8906 95.2324 56.0312C95.0996 56.1719 94.9941 56.3398 94.916 56.5352C94.8418 56.7266 94.793 56.9375 94.7695 57.168L94.4648 57.3438C94.4648 56.9609 94.502 56.6016 94.5762 56.2656C94.6543 55.9297 94.7734 55.6328 94.9336 55.375C95.0938 55.1133 95.2969 54.9102 95.543 54.7656C95.793 54.6172 96.0898 54.543 96.4336 54.543C96.5117 54.543 96.6016 54.5527 96.7031 54.5723C96.8047 54.5879 96.875 54.6055 96.9141 54.625ZM100.863 54.6602V55.4922H97.4355V54.6602H100.863ZM98.5957 53.1191H99.6797V59.4297C99.6797 59.6445 99.7129 59.8066 99.7793 59.916C99.8457 60.0254 99.9316 60.0977 100.037 60.1328C100.143 60.168 100.256 60.1855 100.377 60.1855C100.467 60.1855 100.561 60.1777 100.658 60.1621C100.76 60.1426 100.836 60.127 100.887 60.1152L100.893 61C100.807 61.0273 100.693 61.0527 100.553 61.0762C100.416 61.1035 100.25 61.1172 100.055 61.1172C99.7891 61.1172 99.5449 61.0645 99.3223 60.959C99.0996 60.8535 98.9219 60.6777 98.7891 60.4316C98.6602 60.1816 98.5957 59.8457 98.5957 59.4238V53.1191ZM106.289 54.6602V61H105.199V54.6602H106.289ZM105.117 52.9785C105.117 52.8027 105.17 52.6543 105.275 52.5332C105.385 52.4121 105.545 52.3516 105.756 52.3516C105.963 52.3516 106.121 52.4121 106.23 52.5332C106.344 52.6543 106.4 52.8027 106.4 52.9785C106.4 53.1465 106.344 53.291 106.23 53.4121C106.121 53.5293 105.963 53.5879 105.756 53.5879C105.545 53.5879 105.385 53.5293 105.275 53.4121C105.17 53.291 105.117 53.1465 105.117 52.9785ZM109.113 56.0137V61H108.029V54.6602H109.055L109.113 56.0137ZM108.855 57.5898L108.404 57.5723C108.408 57.1387 108.473 56.7383 108.598 56.3711C108.723 56 108.898 55.6777 109.125 55.4043C109.352 55.1309 109.621 54.9199 109.934 54.7715C110.25 54.6191 110.6 54.543 110.982 54.543C111.295 54.543 111.576 54.5859 111.826 54.6719C112.076 54.7539 112.289 54.8867 112.465 55.0703C112.645 55.2539 112.781 55.4922 112.875 55.7852C112.969 56.0742 113.016 56.4277 113.016 56.8457V61H111.926V56.834C111.926 56.502 111.877 56.2363 111.779 56.0371C111.682 55.834 111.539 55.6875 111.352 55.5977C111.164 55.5039 110.934 55.457 110.66 55.457C110.391 55.457 110.145 55.5137 109.922 55.627C109.703 55.7402 109.514 55.8965 109.354 56.0957C109.197 56.2949 109.074 56.5234 108.984 56.7812C108.898 57.0352 108.855 57.3047 108.855 57.5898ZM120.293 54.6602V55.4922H116.865V54.6602H120.293ZM118.025 53.1191H119.109V59.4297C119.109 59.6445 119.143 59.8066 119.209 59.916C119.275 60.0254 119.361 60.0977 119.467 60.1328C119.572 60.168 119.686 60.1855 119.807 60.1855C119.896 60.1855 119.99 60.1777 120.088 60.1621C120.189 60.1426 120.266 60.127 120.316 60.1152L120.322 61C120.236 61.0273 120.123 61.0527 119.982 61.0762C119.846 61.1035 119.68 61.1172 119.484 61.1172C119.219 61.1172 118.975 61.0645 118.752 60.959C118.529 60.8535 118.352 60.6777 118.219 60.4316C118.09 60.1816 118.025 59.8457 118.025 59.4238V53.1191ZM122.648 52V61H121.564V52H122.648ZM122.391 57.5898L121.939 57.5723C121.943 57.1387 122.008 56.7383 122.133 56.3711C122.258 56 122.434 55.6777 122.66 55.4043C122.887 55.1309 123.156 54.9199 123.469 54.7715C123.785 54.6191 124.135 54.543 124.518 54.543C124.83 54.543 125.111 54.5859 125.361 54.6719C125.611 54.7539 125.824 54.8867 126 55.0703C126.18 55.2539 126.316 55.4922 126.41 55.7852C126.504 56.0742 126.551 56.4277 126.551 56.8457V61H125.461V56.834C125.461 56.502 125.412 56.2363 125.314 56.0371C125.217 55.834 125.074 55.6875 124.887 55.5977C124.699 55.5039 124.469 55.457 124.195 55.457C123.926 55.457 123.68 55.5137 123.457 55.627C123.238 55.7402 123.049 55.8965 122.889 56.0957C122.732 56.2949 122.609 56.5234 122.52 56.7812C122.434 57.0352 122.391 57.3047 122.391 57.5898ZM130.805 61.1172C130.363 61.1172 129.963 61.043 129.604 60.8945C129.248 60.7422 128.941 60.5293 128.684 60.2559C128.43 59.9824 128.234 59.6582 128.098 59.2832C127.961 58.9082 127.893 58.498 127.893 58.0527V57.8066C127.893 57.291 127.969 56.832 128.121 56.4297C128.273 56.0234 128.48 55.6797 128.742 55.3984C129.004 55.1172 129.301 54.9043 129.633 54.7598C129.965 54.6152 130.309 54.543 130.664 54.543C131.117 54.543 131.508 54.6211 131.836 54.7773C132.168 54.9336 132.439 55.1523 132.65 55.4336C132.861 55.7109 133.018 56.0391 133.119 56.418C133.221 56.793 133.271 57.2031 133.271 57.6484V58.1348H128.537V57.25H132.188V57.168C132.172 56.8867 132.113 56.6133 132.012 56.3477C131.914 56.082 131.758 55.8633 131.543 55.6914C131.328 55.5195 131.035 55.4336 130.664 55.4336C130.418 55.4336 130.191 55.4863 129.984 55.5918C129.777 55.6934 129.6 55.8457 129.451 56.0488C129.303 56.252 129.188 56.5 129.105 56.793C129.023 57.0859 128.982 57.4238 128.982 57.8066V58.0527C128.982 58.3535 129.023 58.6367 129.105 58.9023C129.191 59.1641 129.314 59.3945 129.475 59.5938C129.639 59.793 129.836 59.9492 130.066 60.0625C130.301 60.1758 130.566 60.2324 130.863 60.2324C131.246 60.2324 131.57 60.1543 131.836 59.998C132.102 59.8418 132.334 59.6328 132.533 59.3711L133.189 59.8926C133.053 60.0996 132.879 60.2969 132.668 60.4844C132.457 60.6719 132.197 60.8242 131.889 60.9414C131.584 61.0586 131.223 61.1172 130.805 61.1172ZM137.508 52H138.598V59.7695L138.504 61H137.508V52ZM142.881 57.7773V57.9004C142.881 58.3613 142.826 58.7891 142.717 59.1836C142.607 59.5742 142.447 59.9141 142.236 60.2031C142.025 60.4922 141.768 60.7168 141.463 60.877C141.158 61.0371 140.809 61.1172 140.414 61.1172C140.012 61.1172 139.658 61.0488 139.354 60.9121C139.053 60.7715 138.799 60.5703 138.592 60.3086C138.385 60.0469 138.219 59.7305 138.094 59.3594C137.973 58.9883 137.889 58.5703 137.842 58.1055V57.5664C137.889 57.0977 137.973 56.6777 138.094 56.3066C138.219 55.9355 138.385 55.6191 138.592 55.3574C138.799 55.0918 139.053 54.8906 139.354 54.7539C139.654 54.6133 140.004 54.543 140.402 54.543C140.801 54.543 141.154 54.6211 141.463 54.7773C141.771 54.9297 142.029 55.1484 142.236 55.4336C142.447 55.7188 142.607 56.0605 142.717 56.459C142.826 56.8535 142.881 57.293 142.881 57.7773ZM141.791 57.9004V57.7773C141.791 57.4609 141.762 57.1641 141.703 56.8867C141.645 56.6055 141.551 56.3594 141.422 56.1484C141.293 55.9336 141.123 55.7656 140.912 55.6445C140.701 55.5195 140.441 55.457 140.133 55.457C139.859 55.457 139.621 55.5039 139.418 55.5977C139.219 55.6914 139.049 55.8184 138.908 55.9785C138.768 56.1348 138.652 56.3145 138.562 56.5176C138.477 56.7168 138.412 56.9238 138.369 57.1387V58.5508C138.432 58.8242 138.533 59.0879 138.674 59.3418C138.818 59.5918 139.01 59.7969 139.248 59.957C139.49 60.1172 139.789 60.1973 140.145 60.1973C140.438 60.1973 140.688 60.1387 140.895 60.0215C141.105 59.9004 141.275 59.7344 141.404 59.5234C141.537 59.3125 141.635 59.0684 141.697 58.791C141.76 58.5137 141.791 58.2168 141.791 57.9004ZM145.43 54.6602V61H144.34V54.6602H145.43ZM144.258 52.9785C144.258 52.8027 144.311 52.6543 144.416 52.5332C144.525 52.4121 144.686 52.3516 144.896 52.3516C145.104 52.3516 145.262 52.4121 145.371 52.5332C145.484 52.6543 145.541 52.8027 145.541 52.9785C145.541 53.1465 145.484 53.291 145.371 53.4121C145.262 53.5293 145.104 53.5879 144.896 53.5879C144.686 53.5879 144.525 53.5293 144.416 53.4121C144.311 53.291 144.258 53.1465 144.258 52.9785ZM151.166 59.7695V52H152.256V61H151.26L151.166 59.7695ZM146.9 57.9004V57.7773C146.9 57.293 146.959 56.8535 147.076 56.459C147.197 56.0605 147.367 55.7188 147.586 55.4336C147.809 55.1484 148.072 54.9297 148.377 54.7773C148.686 54.6211 149.029 54.543 149.408 54.543C149.807 54.543 150.154 54.6133 150.451 54.7539C150.752 54.8906 151.006 55.0918 151.213 55.3574C151.424 55.6191 151.59 55.9355 151.711 56.3066C151.832 56.6777 151.916 57.0977 151.963 57.5664V58.1055C151.92 58.5703 151.836 58.9883 151.711 59.3594C151.59 59.7305 151.424 60.0469 151.213 60.3086C151.006 60.5703 150.752 60.7715 150.451 60.9121C150.15 61.0488 149.799 61.1172 149.396 61.1172C149.025 61.1172 148.686 61.0371 148.377 60.877C148.072 60.7168 147.809 60.4922 147.586 60.2031C147.367 59.9141 147.197 59.5742 147.076 59.1836C146.959 58.7891 146.9 58.3613 146.9 57.9004ZM147.99 57.7773V57.9004C147.99 58.2168 148.021 58.5137 148.084 58.791C148.15 59.0684 148.252 59.3125 148.389 59.5234C148.525 59.7344 148.699 59.9004 148.91 60.0215C149.121 60.1387 149.373 60.1973 149.666 60.1973C150.025 60.1973 150.32 60.1211 150.551 59.9688C150.785 59.8164 150.973 59.6152 151.113 59.3652C151.254 59.1152 151.363 58.8438 151.441 58.5508V57.1387C151.395 56.9238 151.326 56.7168 151.236 56.5176C151.15 56.3145 151.037 56.1348 150.896 55.9785C150.76 55.8184 150.59 55.6914 150.387 55.5977C150.188 55.5039 149.951 55.457 149.678 55.457C149.381 55.457 149.125 55.5195 148.91 55.6445C148.699 55.7656 148.525 55.9336 148.389 56.1484C148.252 56.3594 148.15 56.6055 148.084 56.8867C148.021 57.1641 147.99 57.4609 147.99 57.7773ZM157.939 59.7695V52H159.029V61H158.033L157.939 59.7695ZM153.674 57.9004V57.7773C153.674 57.293 153.732 56.8535 153.85 56.459C153.971 56.0605 154.141 55.7188 154.359 55.4336C154.582 55.1484 154.846 54.9297 155.15 54.7773C155.459 54.6211 155.803 54.543 156.182 54.543C156.58 54.543 156.928 54.6133 157.225 54.7539C157.525 54.8906 157.779 55.0918 157.986 55.3574C158.197 55.6191 158.363 55.9355 158.484 56.3066C158.605 56.6777 158.689 57.0977 158.736 57.5664V58.1055C158.693 58.5703 158.609 58.9883 158.484 59.3594C158.363 59.7305 158.197 60.0469 157.986 60.3086C157.779 60.5703 157.525 60.7715 157.225 60.9121C156.924 61.0488 156.572 61.1172 156.17 61.1172C155.799 61.1172 155.459 61.0371 155.15 60.877C154.846 60.7168 154.582 60.4922 154.359 60.2031C154.141 59.9141 153.971 59.5742 153.85 59.1836C153.732 58.7891 153.674 58.3613 153.674 57.9004ZM154.764 57.7773V57.9004C154.764 58.2168 154.795 58.5137 154.857 58.791C154.924 59.0684 155.025 59.3125 155.162 59.5234C155.299 59.7344 155.473 59.9004 155.684 60.0215C155.895 60.1387 156.146 60.1973 156.439 60.1973C156.799 60.1973 157.094 60.1211 157.324 59.9688C157.559 59.8164 157.746 59.6152 157.887 59.3652C158.027 59.1152 158.137 58.8438 158.215 58.5508V57.1387C158.168 56.9238 158.1 56.7168 158.01 56.5176C157.924 56.3145 157.811 56.1348 157.67 55.9785C157.533 55.8184 157.363 55.6914 157.16 55.5977C156.961 55.5039 156.725 55.457 156.451 55.457C156.154 55.457 155.898 55.5195 155.684 55.6445C155.473 55.7656 155.299 55.9336 155.162 56.1484C155.025 56.3594 154.924 56.6055 154.857 56.8867C154.795 57.1641 154.764 57.4609 154.764 57.7773ZM161.895 54.6602V61H160.805V54.6602H161.895ZM160.723 52.9785C160.723 52.8027 160.775 52.6543 160.881 52.5332C160.99 52.4121 161.15 52.3516 161.361 52.3516C161.568 52.3516 161.727 52.4121 161.836 52.5332C161.949 52.6543 162.006 52.8027 162.006 52.9785C162.006 53.1465 161.949 53.291 161.836 53.4121C161.727 53.5293 161.568 53.5879 161.361 53.5879C161.15 53.5879 160.99 53.5293 160.881 53.4121C160.775 53.291 160.723 53.1465 160.723 52.9785ZM164.719 56.0137V61H163.635V54.6602H164.66L164.719 56.0137ZM164.461 57.5898L164.01 57.5723C164.014 57.1387 164.078 56.7383 164.203 56.3711C164.328 56 164.504 55.6777 164.73 55.4043C164.957 55.1309 165.227 54.9199 165.539 54.7715C165.855 54.6191 166.205 54.543 166.588 54.543C166.9 54.543 167.182 54.5859 167.432 54.6719C167.682 54.7539 167.895 54.8867 168.07 55.0703C168.25 55.2539 168.387 55.4922 168.48 55.7852C168.574 56.0742 168.621 56.4277 168.621 56.8457V61H167.531V56.834C167.531 56.502 167.482 56.2363 167.385 56.0371C167.287 55.834 167.145 55.6875 166.957 55.5977C166.77 55.5039 166.539 55.457 166.266 55.457C165.996 55.457 165.75 55.5137 165.527 55.627C165.309 55.7402 165.119 55.8965 164.959 56.0957C164.803 56.2949 164.68 56.5234 164.59 56.7812C164.504 57.0352 164.461 57.3047 164.461 57.5898ZM174.375 54.6602H175.359V60.8652C175.359 61.4238 175.246 61.9004 175.02 62.2949C174.793 62.6895 174.477 62.9883 174.07 63.1914C173.668 63.3984 173.203 63.502 172.676 63.502C172.457 63.502 172.199 63.4668 171.902 63.3965C171.609 63.3301 171.32 63.2148 171.035 63.0508C170.754 62.8906 170.518 62.6738 170.326 62.4004L170.895 61.7559C171.16 62.0762 171.438 62.2988 171.727 62.4238C172.02 62.5488 172.309 62.6113 172.594 62.6113C172.938 62.6113 173.234 62.5469 173.484 62.418C173.734 62.2891 173.928 62.0977 174.064 61.8438C174.205 61.5938 174.275 61.2852 174.275 60.918V56.0547L174.375 54.6602ZM170.01 57.9004V57.7773C170.01 57.293 170.066 56.8535 170.18 56.459C170.297 56.0605 170.463 55.7188 170.678 55.4336C170.896 55.1484 171.16 54.9297 171.469 54.7773C171.777 54.6211 172.125 54.543 172.512 54.543C172.91 54.543 173.258 54.6133 173.555 54.7539C173.855 54.8906 174.109 55.0918 174.316 55.3574C174.527 55.6191 174.693 55.9355 174.814 56.3066C174.936 56.6777 175.02 57.0977 175.066 57.5664V58.1055C175.023 58.5703 174.939 58.9883 174.814 59.3594C174.693 59.7305 174.527 60.0469 174.316 60.3086C174.109 60.5703 173.855 60.7715 173.555 60.9121C173.254 61.0488 172.902 61.1172 172.5 61.1172C172.121 61.1172 171.777 61.0371 171.469 60.877C171.164 60.7168 170.902 60.4922 170.684 60.2031C170.465 59.9141 170.297 59.5742 170.18 59.1836C170.066 58.7891 170.01 58.3613 170.01 57.9004ZM171.094 57.7773V57.9004C171.094 58.2168 171.125 58.5137 171.188 58.791C171.254 59.0684 171.354 59.3125 171.486 59.5234C171.623 59.7344 171.797 59.9004 172.008 60.0215C172.219 60.1387 172.471 60.1973 172.764 60.1973C173.123 60.1973 173.42 60.1211 173.654 59.9688C173.889 59.8164 174.074 59.6152 174.211 59.3652C174.352 59.1152 174.461 58.8438 174.539 58.5508V57.1387C174.496 56.9238 174.43 56.7168 174.34 56.5176C174.254 56.3145 174.141 56.1348 174 55.9785C173.863 55.8184 173.693 55.6914 173.49 55.5977C173.287 55.5039 173.049 55.457 172.775 55.457C172.479 55.457 172.223 55.5195 172.008 55.6445C171.797 55.7656 171.623 55.9336 171.486 56.1484C171.354 56.3594 171.254 56.6055 171.188 56.8867C171.125 57.1641 171.094 57.4609 171.094 57.7773ZM181.066 55.8789V63.4375H179.977V54.6602H180.973L181.066 55.8789ZM185.338 57.7773V57.9004C185.338 58.3613 185.283 58.7891 185.174 59.1836C185.064 59.5742 184.904 59.9141 184.693 60.2031C184.486 60.4922 184.23 60.7168 183.926 60.877C183.621 61.0371 183.271 61.1172 182.877 61.1172C182.475 61.1172 182.119 61.0508 181.811 60.918C181.502 60.7852 181.24 60.5918 181.025 60.3379C180.811 60.084 180.639 59.7793 180.51 59.4238C180.385 59.0684 180.299 58.668 180.252 58.2227V57.5664C180.299 57.0977 180.387 56.6777 180.516 56.3066C180.645 55.9355 180.814 55.6191 181.025 55.3574C181.24 55.0918 181.5 54.8906 181.805 54.7539C182.109 54.6133 182.461 54.543 182.859 54.543C183.258 54.543 183.611 54.6211 183.92 54.7773C184.229 54.9297 184.488 55.1484 184.699 55.4336C184.91 55.7188 185.068 56.0605 185.174 56.459C185.283 56.8535 185.338 57.293 185.338 57.7773ZM184.248 57.9004V57.7773C184.248 57.4609 184.215 57.1641 184.148 56.8867C184.082 56.6055 183.979 56.3594 183.838 56.1484C183.701 55.9336 183.525 55.7656 183.311 55.6445C183.096 55.5195 182.84 55.457 182.543 55.457C182.27 55.457 182.031 55.5039 181.828 55.5977C181.629 55.6914 181.459 55.8184 181.318 55.9785C181.178 56.1348 181.062 56.3145 180.973 56.5176C180.887 56.7168 180.822 56.9238 180.779 57.1387V58.6562C180.857 58.9297 180.967 59.1875 181.107 59.4297C181.248 59.668 181.436 59.8613 181.67 60.0098C181.904 60.1543 182.199 60.2266 182.555 60.2266C182.848 60.2266 183.1 60.166 183.311 60.0449C183.525 59.9199 183.701 59.75 183.838 59.5352C183.979 59.3203 184.082 59.0742 184.148 58.7969C184.215 58.5156 184.248 58.2168 184.248 57.9004ZM187.805 55.6562V61H186.721V54.6602H187.775L187.805 55.6562ZM189.785 54.625L189.779 55.6328C189.689 55.6133 189.604 55.6016 189.521 55.5977C189.443 55.5898 189.354 55.5859 189.252 55.5859C189.002 55.5859 188.781 55.625 188.59 55.7031C188.398 55.7812 188.236 55.8906 188.104 56.0312C187.971 56.1719 187.865 56.3398 187.787 56.5352C187.713 56.7266 187.664 56.9375 187.641 57.168L187.336 57.3438C187.336 56.9609 187.373 56.6016 187.447 56.2656C187.525 55.9297 187.645 55.6328 187.805 55.375C187.965 55.1133 188.168 54.9102 188.414 54.7656C188.664 54.6172 188.961 54.543 189.305 54.543C189.383 54.543 189.473 54.5527 189.574 54.5723C189.676 54.5879 189.746 54.6055 189.785 54.625ZM190.383 57.9004V57.7656C190.383 57.3086 190.449 56.8848 190.582 56.4941C190.715 56.0996 190.906 55.7578 191.156 55.4688C191.406 55.1758 191.709 54.9492 192.064 54.7891C192.42 54.625 192.818 54.543 193.26 54.543C193.705 54.543 194.105 54.625 194.461 54.7891C194.82 54.9492 195.125 55.1758 195.375 55.4688C195.629 55.7578 195.822 56.0996 195.955 56.4941C196.088 56.8848 196.154 57.3086 196.154 57.7656V57.9004C196.154 58.3574 196.088 58.7812 195.955 59.1719C195.822 59.5625 195.629 59.9043 195.375 60.1973C195.125 60.4863 194.822 60.7129 194.467 60.877C194.115 61.0371 193.717 61.1172 193.271 61.1172C192.826 61.1172 192.426 61.0371 192.07 60.877C191.715 60.7129 191.41 60.4863 191.156 60.1973C190.906 59.9043 190.715 59.5625 190.582 59.1719C190.449 58.7812 190.383 58.3574 190.383 57.9004ZM191.467 57.7656V57.9004C191.467 58.2168 191.504 58.5156 191.578 58.7969C191.652 59.0742 191.764 59.3203 191.912 59.5352C192.064 59.75 192.254 59.9199 192.48 60.0449C192.707 60.166 192.971 60.2266 193.271 60.2266C193.568 60.2266 193.828 60.166 194.051 60.0449C194.277 59.9199 194.465 59.75 194.613 59.5352C194.762 59.3203 194.873 59.0742 194.947 58.7969C195.025 58.5156 195.064 58.2168 195.064 57.9004V57.7656C195.064 57.4531 195.025 57.1582 194.947 56.8809C194.873 56.5996 194.76 56.3516 194.607 56.1367C194.459 55.918 194.271 55.7461 194.045 55.6211C193.822 55.4961 193.561 55.4336 193.26 55.4336C192.963 55.4336 192.701 55.4961 192.475 55.6211C192.252 55.7461 192.064 55.918 191.912 56.1367C191.764 56.3516 191.652 56.5996 191.578 56.8809C191.504 57.1582 191.467 57.4531 191.467 57.7656ZM200.051 60.2266C200.309 60.2266 200.547 60.1738 200.766 60.0684C200.984 59.9629 201.164 59.8184 201.305 59.6348C201.445 59.4473 201.525 59.2344 201.545 58.9961H202.576C202.557 59.3711 202.43 59.7207 202.195 60.0449C201.965 60.3652 201.662 60.625 201.287 60.8242C200.912 61.0195 200.5 61.1172 200.051 61.1172C199.574 61.1172 199.158 61.0332 198.803 60.8652C198.451 60.6973 198.158 60.4668 197.924 60.1738C197.693 59.8809 197.52 59.5449 197.402 59.166C197.289 58.7832 197.232 58.3789 197.232 57.9531V57.707C197.232 57.2812 197.289 56.8789 197.402 56.5C197.52 56.1172 197.693 55.7793 197.924 55.4863C198.158 55.1934 198.451 54.9629 198.803 54.7949C199.158 54.627 199.574 54.543 200.051 54.543C200.547 54.543 200.98 54.6445 201.352 54.8477C201.723 55.0469 202.014 55.3203 202.225 55.668C202.439 56.0117 202.557 56.4023 202.576 56.8398H201.545C201.525 56.5781 201.451 56.3418 201.322 56.1309C201.197 55.9199 201.025 55.752 200.807 55.627C200.592 55.498 200.34 55.4336 200.051 55.4336C199.719 55.4336 199.439 55.5 199.213 55.6328C198.99 55.7617 198.812 55.9375 198.68 56.1602C198.551 56.3789 198.457 56.623 198.398 56.8926C198.344 57.1582 198.316 57.4297 198.316 57.707V57.9531C198.316 58.2305 198.344 58.5039 198.398 58.7734C198.453 59.043 198.545 59.2871 198.674 59.5059C198.807 59.7246 198.984 59.9004 199.207 60.0332C199.434 60.1621 199.715 60.2266 200.051 60.2266ZM206.426 61.1172C205.984 61.1172 205.584 61.043 205.225 60.8945C204.869 60.7422 204.562 60.5293 204.305 60.2559C204.051 59.9824 203.855 59.6582 203.719 59.2832C203.582 58.9082 203.514 58.498 203.514 58.0527V57.8066C203.514 57.291 203.59 56.832 203.742 56.4297C203.895 56.0234 204.102 55.6797 204.363 55.3984C204.625 55.1172 204.922 54.9043 205.254 54.7598C205.586 54.6152 205.93 54.543 206.285 54.543C206.738 54.543 207.129 54.6211 207.457 54.7773C207.789 54.9336 208.061 55.1523 208.271 55.4336C208.482 55.7109 208.639 56.0391 208.74 56.418C208.842 56.793 208.893 57.2031 208.893 57.6484V58.1348H204.158V57.25H207.809V57.168C207.793 56.8867 207.734 56.6133 207.633 56.3477C207.535 56.082 207.379 55.8633 207.164 55.6914C206.949 55.5195 206.656 55.4336 206.285 55.4336C206.039 55.4336 205.812 55.4863 205.605 55.5918C205.398 55.6934 205.221 55.8457 205.072 56.0488C204.924 56.252 204.809 56.5 204.727 56.793C204.645 57.0859 204.604 57.4238 204.604 57.8066V58.0527C204.604 58.3535 204.645 58.6367 204.727 58.9023C204.812 59.1641 204.936 59.3945 205.096 59.5938C205.26 59.793 205.457 59.9492 205.688 60.0625C205.922 60.1758 206.188 60.2324 206.484 60.2324C206.867 60.2324 207.191 60.1543 207.457 59.998C207.723 59.8418 207.955 59.6328 208.154 59.3711L208.811 59.8926C208.674 60.0996 208.5 60.2969 208.289 60.4844C208.078 60.6719 207.818 60.8242 207.51 60.9414C207.205 61.0586 206.844 61.1172 206.426 61.1172ZM213.85 59.3184C213.85 59.1621 213.814 59.0176 213.744 58.8848C213.678 58.748 213.539 58.625 213.328 58.5156C213.121 58.4023 212.809 58.3047 212.391 58.2227C212.039 58.1484 211.721 58.0605 211.436 57.959C211.154 57.8574 210.914 57.7344 210.715 57.5898C210.52 57.4453 210.369 57.2754 210.264 57.0801C210.158 56.8848 210.105 56.6562 210.105 56.3945C210.105 56.1445 210.16 55.9082 210.27 55.6855C210.383 55.4629 210.541 55.2656 210.744 55.0938C210.951 54.9219 211.199 54.7871 211.488 54.6895C211.777 54.5918 212.1 54.543 212.455 54.543C212.963 54.543 213.396 54.6328 213.756 54.8125C214.115 54.9922 214.391 55.2324 214.582 55.5332C214.773 55.8301 214.869 56.1602 214.869 56.5234H213.785C213.785 56.3477 213.732 56.1777 213.627 56.0137C213.525 55.8457 213.375 55.707 213.176 55.5977C212.98 55.4883 212.74 55.4336 212.455 55.4336C212.154 55.4336 211.91 55.4805 211.723 55.5742C211.539 55.6641 211.404 55.7793 211.318 55.9199C211.236 56.0605 211.195 56.209 211.195 56.3652C211.195 56.4824 211.215 56.5879 211.254 56.6816C211.297 56.7715 211.371 56.8555 211.477 56.9336C211.582 57.0078 211.73 57.0781 211.922 57.1445C212.113 57.2109 212.357 57.2773 212.654 57.3438C213.174 57.4609 213.602 57.6016 213.938 57.7656C214.273 57.9297 214.523 58.1309 214.688 58.3691C214.852 58.6074 214.934 58.8965 214.934 59.2363C214.934 59.5137 214.875 59.7676 214.758 59.998C214.645 60.2285 214.479 60.4277 214.26 60.5957C214.045 60.7598 213.787 60.8887 213.486 60.9824C213.189 61.0723 212.855 61.1172 212.484 61.1172C211.926 61.1172 211.453 61.0176 211.066 60.8184C210.68 60.6191 210.387 60.3613 210.188 60.0449C209.988 59.7285 209.889 59.3945 209.889 59.043H210.979C210.994 59.3398 211.08 59.5762 211.236 59.752C211.393 59.9238 211.584 60.0469 211.811 60.1211C212.037 60.1914 212.262 60.2266 212.484 60.2266C212.781 60.2266 213.029 60.1875 213.229 60.1094C213.432 60.0312 213.586 59.9238 213.691 59.7871C213.797 59.6504 213.85 59.4941 213.85 59.3184ZM220.049 59.3184C220.049 59.1621 220.014 59.0176 219.943 58.8848C219.877 58.748 219.738 58.625 219.527 58.5156C219.32 58.4023 219.008 58.3047 218.59 58.2227C218.238 58.1484 217.92 58.0605 217.635 57.959C217.354 57.8574 217.113 57.7344 216.914 57.5898C216.719 57.4453 216.568 57.2754 216.463 57.0801C216.357 56.8848 216.305 56.6562 216.305 56.3945C216.305 56.1445 216.359 55.9082 216.469 55.6855C216.582 55.4629 216.74 55.2656 216.943 55.0938C217.15 54.9219 217.398 54.7871 217.688 54.6895C217.977 54.5918 218.299 54.543 218.654 54.543C219.162 54.543 219.596 54.6328 219.955 54.8125C220.314 54.9922 220.59 55.2324 220.781 55.5332C220.973 55.8301 221.068 56.1602 221.068 56.5234H219.984C219.984 56.3477 219.932 56.1777 219.826 56.0137C219.725 55.8457 219.574 55.707 219.375 55.5977C219.18 55.4883 218.939 55.4336 218.654 55.4336C218.354 55.4336 218.109 55.4805 217.922 55.5742C217.738 55.6641 217.604 55.7793 217.518 55.9199C217.436 56.0605 217.395 56.209 217.395 56.3652C217.395 56.4824 217.414 56.5879 217.453 56.6816C217.496 56.7715 217.57 56.8555 217.676 56.9336C217.781 57.0078 217.93 57.0781 218.121 57.1445C218.312 57.2109 218.557 57.2773 218.854 57.3438C219.373 57.4609 219.801 57.6016 220.137 57.7656C220.473 57.9297 220.723 58.1309 220.887 58.3691C221.051 58.6074 221.133 58.8965 221.133 59.2363C221.133 59.5137 221.074 59.7676 220.957 59.998C220.844 60.2285 220.678 60.4277 220.459 60.5957C220.244 60.7598 219.986 60.8887 219.686 60.9824C219.389 61.0723 219.055 61.1172 218.684 61.1172C218.125 61.1172 217.652 61.0176 217.266 60.8184C216.879 60.6191 216.586 60.3613 216.387 60.0449C216.188 59.7285 216.088 59.3945 216.088 59.043H217.178C217.193 59.3398 217.279 59.5762 217.436 59.752C217.592 59.9238 217.783 60.0469 218.01 60.1211C218.236 60.1914 218.461 60.2266 218.684 60.2266C218.98 60.2266 219.229 60.1875 219.428 60.1094C219.631 60.0312 219.785 59.9238 219.891 59.7871C219.996 59.6504 220.049 59.4941 220.049 59.3184ZM222.574 60.4258C222.574 60.2422 222.631 60.0879 222.744 59.9629C222.861 59.834 223.029 59.7695 223.248 59.7695C223.467 59.7695 223.633 59.834 223.746 59.9629C223.863 60.0879 223.922 60.2422 223.922 60.4258C223.922 60.6055 223.863 60.7578 223.746 60.8828C223.633 61.0078 223.467 61.0703 223.248 61.0703C223.029 61.0703 222.861 61.0078 222.744 60.8828C222.631 60.7578 222.574 60.6055 222.574 60.4258Z" fill="#091E25"/>
<path d="M336.181 79H348.611V64.649H354.487V53.349H348.611V-0.100005H335.051L312.451 53.349V64.649H336.181V79ZM323.751 53.349L335.955 22.5H336.181V53.349H323.751Z" fill="white"/>
</g>
<defs>
<clipPath id="clip0_0_1">
<rect width="375" height="919" fill="white" transform="translate(-15 -385)"/>
</clipPath>
</defs>
</svg>
