<svg width="345" height="79" viewBox="0 0 345 79" fill="none" xmlns="http://www.w3.org/2000/svg">
<g clip-path="url(#clip0_0_1)">
<rect width="375" height="919" transform="translate(-15 -667)" fill="white"/>
<rect width="345" height="79" rx="10" fill="#FFDBA1"/>
<path d="M34.7918 36.375H30.6252V30.125H24.3752V36.375H20.2085L27.5002 43.6667L34.7918 36.375ZM20.2085 45.75V47.8333H34.7918V45.75H20.2085Z" fill="white"/>
<path d="M63.0645 22.791V23.2627C63.0645 24.0192 62.9619 24.6982 62.7568 25.2998C62.5518 25.9014 62.2624 26.4141 61.8887 26.8379C61.515 27.2572 61.0684 27.5785 60.5488 27.8018C60.0339 28.0251 59.4619 28.1367 58.833 28.1367C58.2087 28.1367 57.6367 28.0251 57.1172 27.8018C56.6022 27.5785 56.1556 27.2572 55.7773 26.8379C55.3991 26.4141 55.1051 25.9014 54.8955 25.2998C54.6904 24.6982 54.5879 24.0192 54.5879 23.2627V22.791C54.5879 22.0299 54.6904 21.3509 54.8955 20.7539C55.1006 20.1523 55.39 19.6396 55.7637 19.2158C56.1419 18.792 56.5885 18.4684 57.1035 18.2451C57.623 18.0218 58.195 17.9102 58.8193 17.9102C59.4482 17.9102 60.0202 18.0218 60.5352 18.2451C61.0547 18.4684 61.5013 18.792 61.875 19.2158C62.2533 19.6396 62.5449 20.1523 62.75 20.7539C62.9596 21.3509 63.0645 22.0299 63.0645 22.791ZM60.9932 23.2627V22.7773C60.9932 22.2487 60.9453 21.7839 60.8496 21.3828C60.7539 20.9818 60.6126 20.6445 60.4258 20.3711C60.2389 20.0977 60.0111 19.8926 59.7422 19.7559C59.4733 19.6146 59.1657 19.5439 58.8193 19.5439C58.473 19.5439 58.1654 19.6146 57.8965 19.7559C57.6322 19.8926 57.4066 20.0977 57.2197 20.3711C57.0374 20.6445 56.8984 20.9818 56.8027 21.3828C56.707 21.7839 56.6592 22.2487 56.6592 22.7773V23.2627C56.6592 23.7868 56.707 24.2516 56.8027 24.6572C56.8984 25.0583 57.0397 25.3978 57.2266 25.6758C57.4134 25.9492 57.6413 26.1566 57.9102 26.2979C58.179 26.4391 58.4867 26.5098 58.833 26.5098C59.1794 26.5098 59.487 26.4391 59.7559 26.2979C60.0247 26.1566 60.2503 25.9492 60.4326 25.6758C60.6149 25.3978 60.7539 25.0583 60.8496 24.6572C60.9453 24.2516 60.9932 23.7868 60.9932 23.2627ZM64.418 17.5H66.3867V26.3047L66.1885 28H64.418V17.5ZM71.0693 24.2266V24.3701C71.0693 24.9215 71.0101 25.4274 70.8916 25.8877C70.7777 26.348 70.5999 26.7467 70.3584 27.084C70.1169 27.4167 69.8161 27.6764 69.4561 27.8633C69.1006 28.0456 68.6813 28.1367 68.1982 28.1367C67.7471 28.1367 67.3551 28.0456 67.0225 27.8633C66.6943 27.681 66.4186 27.4235 66.1953 27.0908C65.972 26.7581 65.792 26.3685 65.6553 25.9219C65.5186 25.4753 65.416 24.9876 65.3477 24.459V24.1445C65.416 23.6159 65.5186 23.1283 65.6553 22.6816C65.792 22.235 65.972 21.8454 66.1953 21.5127C66.4186 21.18 66.6943 20.9225 67.0225 20.7402C67.3506 20.5579 67.738 20.4668 68.1846 20.4668C68.6722 20.4668 69.096 20.5602 69.4561 20.7471C69.8206 20.9294 70.1214 21.1891 70.3584 21.5264C70.5999 21.859 70.7777 22.2555 70.8916 22.7158C71.0101 23.1715 71.0693 23.6751 71.0693 24.2266ZM69.1006 24.3701V24.2266C69.1006 23.9258 69.0778 23.6432 69.0322 23.3789C68.9912 23.11 68.9183 22.8753 68.8135 22.6748C68.7087 22.4697 68.5651 22.3079 68.3828 22.1895C68.2051 22.071 67.9749 22.0117 67.6924 22.0117C67.4235 22.0117 67.1956 22.0573 67.0088 22.1484C66.8219 22.2396 66.667 22.3672 66.5439 22.5312C66.4255 22.6953 66.3366 22.8913 66.2773 23.1191C66.2181 23.3424 66.1816 23.5885 66.168 23.8574V24.7529C66.1816 25.113 66.2409 25.432 66.3457 25.71C66.4551 25.9834 66.6191 26.1999 66.8379 26.3594C67.0612 26.5143 67.3506 26.5918 67.7061 26.5918C67.984 26.5918 68.2142 26.5371 68.3965 26.4277C68.5788 26.3184 68.7201 26.1634 68.8203 25.9629C68.9251 25.7624 68.998 25.5277 69.0391 25.2588C69.0801 24.9854 69.1006 24.6891 69.1006 24.3701ZM75.916 20.6035V21.998H71.6094V20.6035H75.916ZM72.6758 18.7783H74.6445V25.7715C74.6445 25.9857 74.6719 26.1497 74.7266 26.2637C74.7858 26.3776 74.8724 26.4574 74.9863 26.5029C75.1003 26.5439 75.2438 26.5645 75.417 26.5645C75.54 26.5645 75.6494 26.5599 75.7451 26.5508C75.8454 26.5371 75.9297 26.5234 75.998 26.5098L76.0049 27.959C75.8363 28.0137 75.654 28.057 75.458 28.0889C75.262 28.1208 75.0456 28.1367 74.8086 28.1367C74.3757 28.1367 73.9974 28.0661 73.6738 27.9248C73.3548 27.779 73.1087 27.5465 72.9355 27.2275C72.7624 26.9085 72.6758 26.4893 72.6758 25.9697V18.7783ZM81.0293 26.332V23.0371C81.0293 22.8001 80.9906 22.5973 80.9131 22.4287C80.8356 22.2555 80.7148 22.1211 80.5508 22.0254C80.3913 21.9297 80.1839 21.8818 79.9287 21.8818C79.71 21.8818 79.5208 21.9206 79.3613 21.998C79.2018 22.071 79.0788 22.1781 78.9922 22.3193C78.9056 22.4561 78.8623 22.6178 78.8623 22.8047H76.8936C76.8936 22.4902 76.9665 22.1917 77.1123 21.9092C77.2581 21.6266 77.4701 21.3783 77.748 21.1641C78.026 20.9453 78.3564 20.7744 78.7393 20.6514C79.1266 20.5283 79.5596 20.4668 80.0381 20.4668C80.6123 20.4668 81.1227 20.5625 81.5693 20.7539C82.016 20.9453 82.3669 21.2324 82.6221 21.6152C82.8818 21.998 83.0117 22.4766 83.0117 23.0508V26.2158C83.0117 26.6214 83.0368 26.9541 83.0869 27.2139C83.137 27.4691 83.21 27.6924 83.3057 27.8838V28H81.3164C81.2207 27.7995 81.1478 27.5488 81.0977 27.248C81.0521 26.9427 81.0293 26.6374 81.0293 26.332ZM81.2891 23.4951L81.3027 24.6094H80.2021C79.9424 24.6094 79.7168 24.639 79.5254 24.6982C79.334 24.7575 79.1768 24.8418 79.0537 24.9512C78.9307 25.056 78.8395 25.179 78.7803 25.3203C78.7256 25.4616 78.6982 25.6165 78.6982 25.7852C78.6982 25.9538 78.737 26.1064 78.8145 26.2432C78.8919 26.3753 79.0036 26.4801 79.1494 26.5576C79.2952 26.6305 79.4661 26.667 79.6621 26.667C79.9583 26.667 80.2158 26.6077 80.4346 26.4893C80.6533 26.3708 80.8219 26.2249 80.9404 26.0518C81.0635 25.8786 81.1273 25.7145 81.1318 25.5596L81.6514 26.3936C81.5785 26.5804 81.4782 26.7741 81.3506 26.9746C81.2275 27.1751 81.0703 27.3643 80.8789 27.542C80.6875 27.7152 80.4574 27.8587 80.1885 27.9727C79.9196 28.082 79.6006 28.1367 79.2314 28.1367C78.762 28.1367 78.3359 28.0433 77.9531 27.8564C77.5749 27.665 77.2741 27.403 77.0508 27.0703C76.832 26.7331 76.7227 26.3503 76.7227 25.9219C76.7227 25.5345 76.7956 25.1904 76.9414 24.8896C77.0872 24.5889 77.3014 24.3359 77.584 24.1309C77.8711 23.9212 78.2288 23.764 78.6572 23.6592C79.0856 23.5498 79.5824 23.4951 80.1475 23.4951H81.2891ZM86.6074 20.6035V28H84.6318V20.6035H86.6074ZM84.5088 18.6758C84.5088 18.3887 84.609 18.1517 84.8096 17.9648C85.0101 17.778 85.279 17.6846 85.6162 17.6846C85.9489 17.6846 86.2155 17.778 86.416 17.9648C86.6211 18.1517 86.7236 18.3887 86.7236 18.6758C86.7236 18.9629 86.6211 19.1999 86.416 19.3867C86.2155 19.5736 85.9489 19.667 85.6162 19.667C85.279 19.667 85.0101 19.5736 84.8096 19.3867C84.609 19.1999 84.5088 18.9629 84.5088 18.6758ZM90.1621 22.1826V28H88.1934V20.6035H90.0391L90.1621 22.1826ZM89.875 24.042H89.3418C89.3418 23.4951 89.4124 23.0029 89.5537 22.5654C89.695 22.1234 89.8932 21.7474 90.1484 21.4375C90.4036 21.123 90.7067 20.8838 91.0576 20.7197C91.4131 20.5511 91.8096 20.4668 92.2471 20.4668C92.5934 20.4668 92.9102 20.5169 93.1973 20.6172C93.4844 20.7174 93.7305 20.877 93.9355 21.0957C94.1452 21.3145 94.3047 21.6038 94.4141 21.9639C94.528 22.3239 94.585 22.7637 94.585 23.2832V28H92.6025V23.2764C92.6025 22.9482 92.557 22.693 92.4658 22.5107C92.3747 22.3285 92.2402 22.2008 92.0625 22.1279C91.8893 22.0505 91.6751 22.0117 91.4199 22.0117C91.1556 22.0117 90.9255 22.0641 90.7295 22.1689C90.5381 22.2738 90.3786 22.4196 90.251 22.6064C90.1279 22.7887 90.0345 23.0029 89.9707 23.249C89.9069 23.4951 89.875 23.7594 89.875 24.042ZM103.567 25.9561C103.567 25.8148 103.526 25.6872 103.444 25.5732C103.362 25.4593 103.21 25.3545 102.986 25.2588C102.768 25.1585 102.451 25.0674 102.036 24.9854C101.662 24.9033 101.314 24.8008 100.99 24.6777C100.671 24.5501 100.393 24.3975 100.156 24.2197C99.9238 24.042 99.7415 23.8324 99.6094 23.5908C99.4772 23.3447 99.4111 23.0645 99.4111 22.75C99.4111 22.4401 99.4772 22.1484 99.6094 21.875C99.7461 21.6016 99.9398 21.36 100.19 21.1504C100.446 20.9362 100.756 20.7699 101.12 20.6514C101.489 20.5283 101.904 20.4668 102.364 20.4668C103.007 20.4668 103.558 20.5693 104.019 20.7744C104.483 20.9795 104.839 21.262 105.085 21.6221C105.336 21.9775 105.461 22.3831 105.461 22.8389H103.492C103.492 22.6475 103.451 22.4766 103.369 22.3262C103.292 22.1712 103.169 22.0505 103 21.9639C102.836 21.8727 102.622 21.8271 102.357 21.8271C102.139 21.8271 101.95 21.8659 101.79 21.9434C101.631 22.0163 101.507 22.1165 101.421 22.2441C101.339 22.3672 101.298 22.5039 101.298 22.6543C101.298 22.7682 101.321 22.8708 101.366 22.9619C101.416 23.0485 101.496 23.1283 101.605 23.2012C101.715 23.2741 101.856 23.3424 102.029 23.4062C102.207 23.4655 102.426 23.5202 102.686 23.5703C103.219 23.6797 103.695 23.8232 104.114 24.001C104.534 24.1742 104.866 24.4111 105.112 24.7119C105.358 25.0081 105.481 25.3978 105.481 25.8809C105.481 26.209 105.409 26.5098 105.263 26.7832C105.117 27.0566 104.907 27.2959 104.634 27.501C104.36 27.7015 104.032 27.8587 103.649 27.9727C103.271 28.082 102.845 28.1367 102.371 28.1367C101.683 28.1367 101.1 28.0137 100.621 27.7676C100.147 27.5215 99.7871 27.2093 99.541 26.8311C99.2995 26.4482 99.1787 26.0563 99.1787 25.6553H101.045C101.054 25.9242 101.122 26.1406 101.25 26.3047C101.382 26.4688 101.549 26.5872 101.749 26.6602C101.954 26.7331 102.175 26.7695 102.412 26.7695C102.667 26.7695 102.879 26.7354 103.048 26.667C103.216 26.5941 103.344 26.4984 103.431 26.3799C103.522 26.2568 103.567 26.1156 103.567 25.9561ZM110.752 26.332V23.0371C110.752 22.8001 110.713 22.5973 110.636 22.4287C110.558 22.2555 110.438 22.1211 110.273 22.0254C110.114 21.9297 109.907 21.8818 109.651 21.8818C109.433 21.8818 109.243 21.9206 109.084 21.998C108.924 22.071 108.801 22.1781 108.715 22.3193C108.628 22.4561 108.585 22.6178 108.585 22.8047H106.616C106.616 22.4902 106.689 22.1917 106.835 21.9092C106.981 21.6266 107.193 21.3783 107.471 21.1641C107.749 20.9453 108.079 20.7744 108.462 20.6514C108.849 20.5283 109.282 20.4668 109.761 20.4668C110.335 20.4668 110.845 20.5625 111.292 20.7539C111.739 20.9453 112.09 21.2324 112.345 21.6152C112.604 21.998 112.734 22.4766 112.734 23.0508V26.2158C112.734 26.6214 112.759 26.9541 112.81 27.2139C112.86 27.4691 112.933 27.6924 113.028 27.8838V28H111.039C110.943 27.7995 110.87 27.5488 110.82 27.248C110.775 26.9427 110.752 26.6374 110.752 26.332ZM111.012 23.4951L111.025 24.6094H109.925C109.665 24.6094 109.439 24.639 109.248 24.6982C109.057 24.7575 108.899 24.8418 108.776 24.9512C108.653 25.056 108.562 25.179 108.503 25.3203C108.448 25.4616 108.421 25.6165 108.421 25.7852C108.421 25.9538 108.46 26.1064 108.537 26.2432C108.615 26.3753 108.726 26.4801 108.872 26.5576C109.018 26.6305 109.189 26.667 109.385 26.667C109.681 26.667 109.938 26.6077 110.157 26.4893C110.376 26.3708 110.545 26.2249 110.663 26.0518C110.786 25.8786 110.85 25.7145 110.854 25.5596L111.374 26.3936C111.301 26.5804 111.201 26.7741 111.073 26.9746C110.95 27.1751 110.793 27.3643 110.602 27.542C110.41 27.7152 110.18 27.8587 109.911 27.9727C109.642 28.082 109.323 28.1367 108.954 28.1367C108.485 28.1367 108.059 28.0433 107.676 27.8564C107.298 27.665 106.997 27.403 106.773 27.0703C106.555 26.7331 106.445 26.3503 106.445 25.9219C106.445 25.5345 106.518 25.1904 106.664 24.8896C106.81 24.5889 107.024 24.3359 107.307 24.1309C107.594 23.9212 107.951 23.764 108.38 23.6592C108.808 23.5498 109.305 23.4951 109.87 23.4951H111.012ZM116.33 17.5V28H114.354V17.5H116.33ZM121.361 28.1367C120.787 28.1367 120.272 28.0456 119.816 27.8633C119.361 27.6764 118.973 27.4189 118.654 27.0908C118.34 26.7627 118.098 26.3822 117.93 25.9492C117.761 25.5117 117.677 25.0469 117.677 24.5547V24.2812C117.677 23.7207 117.757 23.208 117.916 22.7432C118.076 22.2783 118.303 21.875 118.6 21.5332C118.9 21.1914 119.265 20.9294 119.693 20.7471C120.122 20.5602 120.605 20.4668 121.143 20.4668C121.667 20.4668 122.132 20.5534 122.537 20.7266C122.943 20.8997 123.282 21.1458 123.556 21.4648C123.834 21.7839 124.043 22.1667 124.185 22.6133C124.326 23.0553 124.396 23.5475 124.396 24.0898V24.9102H118.518V23.5977H122.462V23.4473C122.462 23.1738 122.412 22.93 122.312 22.7158C122.216 22.4971 122.07 22.3239 121.874 22.1963C121.678 22.0687 121.427 22.0049 121.122 22.0049C120.862 22.0049 120.639 22.0618 120.452 22.1758C120.265 22.2897 120.113 22.4492 119.994 22.6543C119.88 22.8594 119.794 23.1009 119.734 23.3789C119.68 23.6523 119.652 23.9531 119.652 24.2812V24.5547C119.652 24.8509 119.693 25.1243 119.775 25.375C119.862 25.6257 119.983 25.8421 120.138 26.0244C120.297 26.2067 120.489 26.348 120.712 26.4482C120.94 26.5485 121.197 26.5986 121.484 26.5986C121.84 26.5986 122.17 26.5303 122.476 26.3936C122.785 26.2523 123.052 26.0404 123.275 25.7578L124.232 26.7969C124.077 27.0202 123.866 27.2344 123.597 27.4395C123.332 27.6445 123.013 27.8132 122.64 27.9453C122.266 28.0729 121.84 28.1367 121.361 28.1367ZM132.06 26.5986C132.301 26.5986 132.515 26.5531 132.702 26.4619C132.889 26.3662 133.035 26.234 133.14 26.0654C133.249 25.8923 133.306 25.6895 133.311 25.457H135.163C135.159 25.9766 135.02 26.4391 134.746 26.8447C134.473 27.2458 134.106 27.5625 133.646 27.7949C133.185 28.0228 132.67 28.1367 132.101 28.1367C131.526 28.1367 131.025 28.041 130.597 27.8496C130.173 27.6582 129.82 27.3939 129.537 27.0566C129.255 26.7148 129.043 26.3184 128.901 25.8672C128.76 25.4115 128.689 24.9238 128.689 24.4043V24.2061C128.689 23.682 128.76 23.1943 128.901 22.7432C129.043 22.2874 129.255 21.891 129.537 21.5537C129.82 21.2119 130.173 20.9453 130.597 20.7539C131.021 20.5625 131.517 20.4668 132.087 20.4668C132.693 20.4668 133.224 20.583 133.68 20.8154C134.14 21.0479 134.5 21.3805 134.76 21.8135C135.024 22.2419 135.159 22.75 135.163 23.3379H133.311C133.306 23.0918 133.254 22.8685 133.153 22.668C133.058 22.4674 132.916 22.3079 132.729 22.1895C132.547 22.0664 132.322 22.0049 132.053 22.0049C131.766 22.0049 131.531 22.0664 131.349 22.1895C131.166 22.3079 131.025 22.472 130.925 22.6816C130.825 22.8867 130.754 23.1214 130.713 23.3857C130.676 23.6455 130.658 23.9189 130.658 24.2061V24.4043C130.658 24.6914 130.676 24.9671 130.713 25.2314C130.749 25.4958 130.818 25.7305 130.918 25.9355C131.023 26.1406 131.166 26.3024 131.349 26.4209C131.531 26.5394 131.768 26.5986 132.06 26.5986ZM139.709 28.1367C139.135 28.1367 138.62 28.0456 138.164 27.8633C137.708 27.6764 137.321 27.4189 137.002 27.0908C136.688 26.7627 136.446 26.3822 136.277 25.9492C136.109 25.5117 136.024 25.0469 136.024 24.5547V24.2812C136.024 23.7207 136.104 23.208 136.264 22.7432C136.423 22.2783 136.651 21.875 136.947 21.5332C137.248 21.1914 137.613 20.9294 138.041 20.7471C138.469 20.5602 138.952 20.4668 139.49 20.4668C140.014 20.4668 140.479 20.5534 140.885 20.7266C141.29 20.8997 141.63 21.1458 141.903 21.4648C142.181 21.7839 142.391 22.1667 142.532 22.6133C142.674 23.0553 142.744 23.5475 142.744 24.0898V24.9102H136.865V23.5977H140.81V23.4473C140.81 23.1738 140.759 22.93 140.659 22.7158C140.563 22.4971 140.418 22.3239 140.222 22.1963C140.026 22.0687 139.775 22.0049 139.47 22.0049C139.21 22.0049 138.987 22.0618 138.8 22.1758C138.613 22.2897 138.46 22.4492 138.342 22.6543C138.228 22.8594 138.141 23.1009 138.082 23.3789C138.027 23.6523 138 23.9531 138 24.2812V24.5547C138 24.8509 138.041 25.1243 138.123 25.375C138.21 25.6257 138.33 25.8421 138.485 26.0244C138.645 26.2067 138.836 26.348 139.06 26.4482C139.287 26.5485 139.545 26.5986 139.832 26.5986C140.188 26.5986 140.518 26.5303 140.823 26.3936C141.133 26.2523 141.4 26.0404 141.623 25.7578L142.58 26.7969C142.425 27.0202 142.213 27.2344 141.944 27.4395C141.68 27.6445 141.361 27.8132 140.987 27.9453C140.614 28.0729 140.188 28.1367 139.709 28.1367ZM145.834 22.2168V28H143.865V20.6035H145.718L145.834 22.2168ZM148.062 20.5557L148.028 22.3809C147.933 22.3672 147.816 22.3558 147.68 22.3467C147.548 22.333 147.427 22.3262 147.317 22.3262C147.039 22.3262 146.798 22.3626 146.593 22.4355C146.392 22.5039 146.224 22.6064 146.087 22.7432C145.955 22.8799 145.854 23.0462 145.786 23.2422C145.722 23.4382 145.686 23.6615 145.677 23.9121L145.28 23.7891C145.28 23.3105 145.328 22.8708 145.424 22.4697C145.52 22.0641 145.659 21.7109 145.841 21.4102C146.028 21.1094 146.256 20.877 146.524 20.7129C146.793 20.5488 147.101 20.4668 147.447 20.4668C147.557 20.4668 147.668 20.4759 147.782 20.4941C147.896 20.5078 147.99 20.5283 148.062 20.5557ZM152.957 20.6035V21.998H148.65V20.6035H152.957ZM149.717 18.7783H151.686V25.7715C151.686 25.9857 151.713 26.1497 151.768 26.2637C151.827 26.3776 151.913 26.4574 152.027 26.5029C152.141 26.5439 152.285 26.5645 152.458 26.5645C152.581 26.5645 152.69 26.5599 152.786 26.5508C152.886 26.5371 152.971 26.5234 153.039 26.5098L153.046 27.959C152.877 28.0137 152.695 28.057 152.499 28.0889C152.303 28.1208 152.087 28.1367 151.85 28.1367C151.417 28.1367 151.038 28.0661 150.715 27.9248C150.396 27.779 150.15 27.5465 149.977 27.2275C149.803 26.9085 149.717 26.4893 149.717 25.9697V18.7783ZM156.156 20.6035V28H154.181V20.6035H156.156ZM154.058 18.6758C154.058 18.3887 154.158 18.1517 154.358 17.9648C154.559 17.778 154.828 17.6846 155.165 17.6846C155.498 17.6846 155.764 17.778 155.965 17.9648C156.17 18.1517 156.272 18.3887 156.272 18.6758C156.272 18.9629 156.17 19.1999 155.965 19.3867C155.764 19.5736 155.498 19.667 155.165 19.667C154.828 19.667 154.559 19.5736 154.358 19.3867C154.158 19.1999 154.058 18.9629 154.058 18.6758ZM160.244 28H158.269V20.2686C158.269 19.6396 158.396 19.1087 158.651 18.6758C158.911 18.2428 159.28 17.9147 159.759 17.6914C160.242 17.4681 160.825 17.3564 161.509 17.3564C161.896 17.3564 162.272 17.3952 162.637 17.4727C163.001 17.5456 163.377 17.6413 163.765 17.7598L163.478 19.3389C163.227 19.2614 162.958 19.1885 162.671 19.1201C162.384 19.0518 162.037 19.0176 161.632 19.0176C161.176 19.0176 160.83 19.1247 160.593 19.3389C160.36 19.5485 160.244 19.8584 160.244 20.2686V28ZM161.714 20.6035V21.998H157.168V20.6035H161.714ZM164.681 20.6035V28H162.705V20.6035H164.681ZM169.384 26.5986C169.625 26.5986 169.84 26.5531 170.026 26.4619C170.213 26.3662 170.359 26.234 170.464 26.0654C170.573 25.8923 170.63 25.6895 170.635 25.457H172.487C172.483 25.9766 172.344 26.4391 172.07 26.8447C171.797 27.2458 171.43 27.5625 170.97 27.7949C170.509 28.0228 169.994 28.1367 169.425 28.1367C168.851 28.1367 168.349 28.041 167.921 27.8496C167.497 27.6582 167.144 27.3939 166.861 27.0566C166.579 26.7148 166.367 26.3184 166.226 25.8672C166.084 25.4115 166.014 24.9238 166.014 24.4043V24.2061C166.014 23.682 166.084 23.1943 166.226 22.7432C166.367 22.2874 166.579 21.891 166.861 21.5537C167.144 21.2119 167.497 20.9453 167.921 20.7539C168.345 20.5625 168.841 20.4668 169.411 20.4668C170.017 20.4668 170.548 20.583 171.004 20.8154C171.464 21.0479 171.824 21.3805 172.084 21.8135C172.348 22.2419 172.483 22.75 172.487 23.3379H170.635C170.63 23.0918 170.578 22.8685 170.478 22.668C170.382 22.4674 170.241 22.3079 170.054 22.1895C169.871 22.0664 169.646 22.0049 169.377 22.0049C169.09 22.0049 168.855 22.0664 168.673 22.1895C168.491 22.3079 168.349 22.472 168.249 22.6816C168.149 22.8867 168.078 23.1214 168.037 23.3857C168.001 23.6455 167.982 23.9189 167.982 24.2061V24.4043C167.982 24.6914 168.001 24.9671 168.037 25.2314C168.074 25.4958 168.142 25.7305 168.242 25.9355C168.347 26.1406 168.491 26.3024 168.673 26.4209C168.855 26.5394 169.092 26.5986 169.384 26.5986ZM177.621 26.332V23.0371C177.621 22.8001 177.582 22.5973 177.505 22.4287C177.427 22.2555 177.307 22.1211 177.143 22.0254C176.983 21.9297 176.776 21.8818 176.521 21.8818C176.302 21.8818 176.113 21.9206 175.953 21.998C175.794 22.071 175.671 22.1781 175.584 22.3193C175.497 22.4561 175.454 22.6178 175.454 22.8047H173.485C173.485 22.4902 173.558 22.1917 173.704 21.9092C173.85 21.6266 174.062 21.3783 174.34 21.1641C174.618 20.9453 174.948 20.7744 175.331 20.6514C175.718 20.5283 176.151 20.4668 176.63 20.4668C177.204 20.4668 177.715 20.5625 178.161 20.7539C178.608 20.9453 178.959 21.2324 179.214 21.6152C179.474 21.998 179.604 22.4766 179.604 23.0508V26.2158C179.604 26.6214 179.629 26.9541 179.679 27.2139C179.729 27.4691 179.802 27.6924 179.897 27.8838V28H177.908C177.812 27.7995 177.74 27.5488 177.689 27.248C177.644 26.9427 177.621 26.6374 177.621 26.332ZM177.881 23.4951L177.895 24.6094H176.794C176.534 24.6094 176.309 24.639 176.117 24.6982C175.926 24.7575 175.769 24.8418 175.646 24.9512C175.522 25.056 175.431 25.179 175.372 25.3203C175.317 25.4616 175.29 25.6165 175.29 25.7852C175.29 25.9538 175.329 26.1064 175.406 26.2432C175.484 26.3753 175.595 26.4801 175.741 26.5576C175.887 26.6305 176.058 26.667 176.254 26.667C176.55 26.667 176.808 26.6077 177.026 26.4893C177.245 26.3708 177.414 26.2249 177.532 26.0518C177.655 25.8786 177.719 25.7145 177.724 25.5596L178.243 26.3936C178.17 26.5804 178.07 26.7741 177.942 26.9746C177.819 27.1751 177.662 27.3643 177.471 27.542C177.279 27.7152 177.049 27.8587 176.78 27.9727C176.511 28.082 176.192 28.1367 175.823 28.1367C175.354 28.1367 174.928 28.0433 174.545 27.8564C174.167 27.665 173.866 27.403 173.643 27.0703C173.424 26.7331 173.314 26.3503 173.314 25.9219C173.314 25.5345 173.387 25.1904 173.533 24.8896C173.679 24.5889 173.893 24.3359 174.176 24.1309C174.463 23.9212 174.821 23.764 175.249 23.6592C175.677 23.5498 176.174 23.4951 176.739 23.4951H177.881ZM184.744 20.6035V21.998H180.438V20.6035H184.744ZM181.504 18.7783H183.473V25.7715C183.473 25.9857 183.5 26.1497 183.555 26.2637C183.614 26.3776 183.701 26.4574 183.814 26.5029C183.928 26.5439 184.072 26.5645 184.245 26.5645C184.368 26.5645 184.478 26.5599 184.573 26.5508C184.674 26.5371 184.758 26.5234 184.826 26.5098L184.833 27.959C184.664 28.0137 184.482 28.057 184.286 28.0889C184.09 28.1208 183.874 28.1367 183.637 28.1367C183.204 28.1367 182.826 28.0661 182.502 27.9248C182.183 27.779 181.937 27.5465 181.764 27.2275C181.59 26.9085 181.504 26.4893 181.504 25.9697V18.7783ZM189.27 28.1367C188.695 28.1367 188.18 28.0456 187.725 27.8633C187.269 27.6764 186.882 27.4189 186.562 27.0908C186.248 26.7627 186.007 26.3822 185.838 25.9492C185.669 25.5117 185.585 25.0469 185.585 24.5547V24.2812C185.585 23.7207 185.665 23.208 185.824 22.7432C185.984 22.2783 186.212 21.875 186.508 21.5332C186.809 21.1914 187.173 20.9294 187.602 20.7471C188.03 20.5602 188.513 20.4668 189.051 20.4668C189.575 20.4668 190.04 20.5534 190.445 20.7266C190.851 20.8997 191.19 21.1458 191.464 21.4648C191.742 21.7839 191.951 22.1667 192.093 22.6133C192.234 23.0553 192.305 23.5475 192.305 24.0898V24.9102H186.426V23.5977H190.37V23.4473C190.37 23.1738 190.32 22.93 190.22 22.7158C190.124 22.4971 189.978 22.3239 189.782 22.1963C189.586 22.0687 189.336 22.0049 189.03 22.0049C188.771 22.0049 188.547 22.0618 188.36 22.1758C188.174 22.2897 188.021 22.4492 187.902 22.6543C187.788 22.8594 187.702 23.1009 187.643 23.3789C187.588 23.6523 187.561 23.9531 187.561 24.2812V24.5547C187.561 24.8509 187.602 25.1243 187.684 25.375C187.77 25.6257 187.891 25.8421 188.046 26.0244C188.205 26.2067 188.397 26.348 188.62 26.4482C188.848 26.5485 189.105 26.5986 189.393 26.5986C189.748 26.5986 190.078 26.5303 190.384 26.3936C190.694 26.2523 190.96 26.0404 191.184 25.7578L192.141 26.7969C191.986 27.0202 191.774 27.2344 191.505 27.4395C191.241 27.6445 190.922 27.8132 190.548 27.9453C190.174 28.0729 189.748 28.1367 189.27 28.1367Z" fill="#091E25"/>
<path d="M58.1426 38.4688V47H57.0293V38.4688H58.1426ZM60.8848 38.4688V39.3945H54.293V38.4688H60.8848ZM63.0703 38V47H61.9863V38H63.0703ZM62.8125 43.5898L62.3613 43.5723C62.3652 43.1387 62.4297 42.7383 62.5547 42.3711C62.6797 42 62.8555 41.6777 63.082 41.4043C63.3086 41.1309 63.5781 40.9199 63.8906 40.7715C64.207 40.6191 64.5566 40.543 64.9395 40.543C65.252 40.543 65.5332 40.5859 65.7832 40.6719C66.0332 40.7539 66.2461 40.8867 66.4219 41.0703C66.6016 41.2539 66.7383 41.4922 66.832 41.7852C66.9258 42.0742 66.9727 42.4277 66.9727 42.8457V47H65.8828V42.834C65.8828 42.502 65.834 42.2363 65.7363 42.0371C65.6387 41.834 65.4961 41.6875 65.3086 41.5977C65.1211 41.5039 64.8906 41.457 64.6172 41.457C64.3477 41.457 64.1016 41.5137 63.8789 41.627C63.6602 41.7402 63.4707 41.8965 63.3105 42.0957C63.1543 42.2949 63.0312 42.5234 62.9414 42.7812C62.8555 43.0352 62.8125 43.3047 62.8125 43.5898ZM71.2266 47.1172C70.7852 47.1172 70.3848 47.043 70.0254 46.8945C69.6699 46.7422 69.3633 46.5293 69.1055 46.2559C68.8516 45.9824 68.6562 45.6582 68.5195 45.2832C68.3828 44.9082 68.3145 44.498 68.3145 44.0527V43.8066C68.3145 43.291 68.3906 42.832 68.543 42.4297C68.6953 42.0234 68.9023 41.6797 69.1641 41.3984C69.4258 41.1172 69.7227 40.9043 70.0547 40.7598C70.3867 40.6152 70.7305 40.543 71.0859 40.543C71.5391 40.543 71.9297 40.6211 72.2578 40.7773C72.5898 40.9336 72.8613 41.1523 73.0723 41.4336C73.2832 41.7109 73.4395 42.0391 73.541 42.418C73.6426 42.793 73.6934 43.2031 73.6934 43.6484V44.1348H68.959V43.25H72.6094V43.168C72.5938 42.8867 72.5352 42.6133 72.4336 42.3477C72.3359 42.082 72.1797 41.8633 71.9648 41.6914C71.75 41.5195 71.457 41.4336 71.0859 41.4336C70.8398 41.4336 70.6133 41.4863 70.4062 41.5918C70.1992 41.6934 70.0215 41.8457 69.873 42.0488C69.7246 42.252 69.6094 42.5 69.5273 42.793C69.4453 43.0859 69.4043 43.4238 69.4043 43.8066V44.0527C69.4043 44.3535 69.4453 44.6367 69.5273 44.9023C69.6133 45.1641 69.7363 45.3945 69.8965 45.5938C70.0605 45.793 70.2578 45.9492 70.4883 46.0625C70.7227 46.1758 70.9883 46.2324 71.2852 46.2324C71.668 46.2324 71.9922 46.1543 72.2578 45.998C72.5234 45.8418 72.7559 45.6328 72.9551 45.3711L73.6113 45.8926C73.4746 46.0996 73.3008 46.2969 73.0898 46.4844C72.8789 46.6719 72.6191 46.8242 72.3105 46.9414C72.0059 47.0586 71.6445 47.1172 71.2266 47.1172ZM81.627 45.3184C81.627 45.1621 81.5918 45.0176 81.5215 44.8848C81.4551 44.748 81.3164 44.625 81.1055 44.5156C80.8984 44.4023 80.5859 44.3047 80.168 44.2227C79.8164 44.1484 79.498 44.0605 79.2129 43.959C78.9316 43.8574 78.6914 43.7344 78.4922 43.5898C78.2969 43.4453 78.1465 43.2754 78.041 43.0801C77.9355 42.8848 77.8828 42.6562 77.8828 42.3945C77.8828 42.1445 77.9375 41.9082 78.0469 41.6855C78.1602 41.4629 78.3184 41.2656 78.5215 41.0938C78.7285 40.9219 78.9766 40.7871 79.2656 40.6895C79.5547 40.5918 79.877 40.543 80.2324 40.543C80.7402 40.543 81.1738 40.6328 81.5332 40.8125C81.8926 40.9922 82.168 41.2324 82.3594 41.5332C82.5508 41.8301 82.6465 42.1602 82.6465 42.5234H81.5625C81.5625 42.3477 81.5098 42.1777 81.4043 42.0137C81.3027 41.8457 81.1523 41.707 80.9531 41.5977C80.7578 41.4883 80.5176 41.4336 80.2324 41.4336C79.9316 41.4336 79.6875 41.4805 79.5 41.5742C79.3164 41.6641 79.1816 41.7793 79.0957 41.9199C79.0137 42.0605 78.9727 42.209 78.9727 42.3652C78.9727 42.4824 78.9922 42.5879 79.0312 42.6816C79.0742 42.7715 79.1484 42.8555 79.2539 42.9336C79.3594 43.0078 79.5078 43.0781 79.6992 43.1445C79.8906 43.2109 80.1348 43.2773 80.4316 43.3438C80.9512 43.4609 81.3789 43.6016 81.7148 43.7656C82.0508 43.9297 82.3008 44.1309 82.4648 44.3691C82.6289 44.6074 82.7109 44.8965 82.7109 45.2363C82.7109 45.5137 82.6523 45.7676 82.5352 45.998C82.4219 46.2285 82.2559 46.4277 82.0371 46.5957C81.8223 46.7598 81.5645 46.8887 81.2637 46.9824C80.9668 47.0723 80.6328 47.1172 80.2617 47.1172C79.7031 47.1172 79.2305 47.0176 78.8438 46.8184C78.457 46.6191 78.1641 46.3613 77.9648 46.0449C77.7656 45.7285 77.666 45.3945 77.666 45.043H78.7559C78.7715 45.3398 78.8574 45.5762 79.0137 45.752C79.1699 45.9238 79.3613 46.0469 79.5879 46.1211C79.8145 46.1914 80.0391 46.2266 80.2617 46.2266C80.5586 46.2266 80.8066 46.1875 81.0059 46.1094C81.209 46.0312 81.3633 45.9238 81.4688 45.7871C81.5742 45.6504 81.627 45.4941 81.627 45.3184ZM86.7656 47.1172C86.3242 47.1172 85.9238 47.043 85.5645 46.8945C85.209 46.7422 84.9023 46.5293 84.6445 46.2559C84.3906 45.9824 84.1953 45.6582 84.0586 45.2832C83.9219 44.9082 83.8535 44.498 83.8535 44.0527V43.8066C83.8535 43.291 83.9297 42.832 84.082 42.4297C84.2344 42.0234 84.4414 41.6797 84.7031 41.3984C84.9648 41.1172 85.2617 40.9043 85.5938 40.7598C85.9258 40.6152 86.2695 40.543 86.625 40.543C87.0781 40.543 87.4688 40.6211 87.7969 40.7773C88.1289 40.9336 88.4004 41.1523 88.6113 41.4336C88.8223 41.7109 88.9785 42.0391 89.0801 42.418C89.1816 42.793 89.2324 43.2031 89.2324 43.6484V44.1348H84.498V43.25H88.1484V43.168C88.1328 42.8867 88.0742 42.6133 87.9727 42.3477C87.875 42.082 87.7188 41.8633 87.5039 41.6914C87.2891 41.5195 86.9961 41.4336 86.625 41.4336C86.3789 41.4336 86.1523 41.4863 85.9453 41.5918C85.7383 41.6934 85.5605 41.8457 85.4121 42.0488C85.2637 42.252 85.1484 42.5 85.0664 42.793C84.9844 43.0859 84.9434 43.4238 84.9434 43.8066V44.0527C84.9434 44.3535 84.9844 44.6367 85.0664 44.9023C85.1523 45.1641 85.2754 45.3945 85.4355 45.5938C85.5996 45.793 85.7969 45.9492 86.0273 46.0625C86.2617 46.1758 86.5273 46.2324 86.8242 46.2324C87.207 46.2324 87.5312 46.1543 87.7969 45.998C88.0625 45.8418 88.2949 45.6328 88.4941 45.3711L89.1504 45.8926C89.0137 46.0996 88.8398 46.2969 88.6289 46.4844C88.418 46.6719 88.1582 46.8242 87.8496 46.9414C87.5449 47.0586 87.1836 47.1172 86.7656 47.1172ZM91.6758 38V47H90.5859V38H91.6758ZM94.5938 38V47H93.5039V38H94.5938ZM98.9648 47.1172C98.5234 47.1172 98.123 47.043 97.7637 46.8945C97.4082 46.7422 97.1016 46.5293 96.8438 46.2559C96.5898 45.9824 96.3945 45.6582 96.2578 45.2832C96.1211 44.9082 96.0527 44.498 96.0527 44.0527V43.8066C96.0527 43.291 96.1289 42.832 96.2812 42.4297C96.4336 42.0234 96.6406 41.6797 96.9023 41.3984C97.1641 41.1172 97.4609 40.9043 97.793 40.7598C98.125 40.6152 98.4688 40.543 98.8242 40.543C99.2773 40.543 99.668 40.6211 99.9961 40.7773C100.328 40.9336 100.6 41.1523 100.811 41.4336C101.021 41.7109 101.178 42.0391 101.279 42.418C101.381 42.793 101.432 43.2031 101.432 43.6484V44.1348H96.6973V43.25H100.348V43.168C100.332 42.8867 100.273 42.6133 100.172 42.3477C100.074 42.082 99.918 41.8633 99.7031 41.6914C99.4883 41.5195 99.1953 41.4336 98.8242 41.4336C98.5781 41.4336 98.3516 41.4863 98.1445 41.5918C97.9375 41.6934 97.7598 41.8457 97.6113 42.0488C97.4629 42.252 97.3477 42.5 97.2656 42.793C97.1836 43.0859 97.1426 43.4238 97.1426 43.8066V44.0527C97.1426 44.3535 97.1836 44.6367 97.2656 44.9023C97.3516 45.1641 97.4746 45.3945 97.6348 45.5938C97.7988 45.793 97.9961 45.9492 98.2266 46.0625C98.4609 46.1758 98.7266 46.2324 99.0234 46.2324C99.4062 46.2324 99.7305 46.1543 99.9961 45.998C100.262 45.8418 100.494 45.6328 100.693 45.3711L101.35 45.8926C101.213 46.0996 101.039 46.2969 100.828 46.4844C100.617 46.6719 100.357 46.8242 100.049 46.9414C99.7441 47.0586 99.3828 47.1172 98.9648 47.1172ZM103.781 41.6562V47H102.697V40.6602H103.752L103.781 41.6562ZM105.762 40.625L105.756 41.6328C105.666 41.6133 105.58 41.6016 105.498 41.5977C105.42 41.5898 105.33 41.5859 105.229 41.5859C104.979 41.5859 104.758 41.625 104.566 41.7031C104.375 41.7812 104.213 41.8906 104.08 42.0312C103.947 42.1719 103.842 42.3398 103.764 42.5352C103.689 42.7266 103.641 42.9375 103.617 43.168L103.312 43.3438C103.312 42.9609 103.35 42.6016 103.424 42.2656C103.502 41.9297 103.621 41.6328 103.781 41.375C103.941 41.1133 104.145 40.9102 104.391 40.7656C104.641 40.6172 104.938 40.543 105.281 40.543C105.359 40.543 105.449 40.5527 105.551 40.5723C105.652 40.5879 105.723 40.6055 105.762 40.625ZM110.918 40.6602V47H109.828V40.6602H110.918ZM109.746 38.9785C109.746 38.8027 109.799 38.6543 109.904 38.5332C110.014 38.4121 110.174 38.3516 110.385 38.3516C110.592 38.3516 110.75 38.4121 110.859 38.5332C110.973 38.6543 111.029 38.8027 111.029 38.9785C111.029 39.1465 110.973 39.291 110.859 39.4121C110.75 39.5293 110.592 39.5879 110.385 39.5879C110.174 39.5879 110.014 39.5293 109.904 39.4121C109.799 39.291 109.746 39.1465 109.746 38.9785ZM113.742 42.0137V47H112.658V40.6602H113.684L113.742 42.0137ZM113.484 43.5898L113.033 43.5723C113.037 43.1387 113.102 42.7383 113.227 42.3711C113.352 42 113.527 41.6777 113.754 41.4043C113.98 41.1309 114.25 40.9199 114.562 40.7715C114.879 40.6191 115.229 40.543 115.611 40.543C115.924 40.543 116.205 40.5859 116.455 40.6719C116.705 40.7539 116.918 40.8867 117.094 41.0703C117.273 41.2539 117.41 41.4922 117.504 41.7852C117.598 42.0742 117.645 42.4277 117.645 42.8457V47H116.555V42.834C116.555 42.502 116.506 42.2363 116.408 42.0371C116.311 41.834 116.168 41.6875 115.98 41.5977C115.793 41.5039 115.562 41.457 115.289 41.457C115.02 41.457 114.773 41.5137 114.551 41.627C114.332 41.7402 114.143 41.8965 113.982 42.0957C113.826 42.2949 113.703 42.5234 113.613 42.7812C113.527 43.0352 113.484 43.3047 113.484 43.5898ZM122.982 45.3184C122.982 45.1621 122.947 45.0176 122.877 44.8848C122.811 44.748 122.672 44.625 122.461 44.5156C122.254 44.4023 121.941 44.3047 121.523 44.2227C121.172 44.1484 120.854 44.0605 120.568 43.959C120.287 43.8574 120.047 43.7344 119.848 43.5898C119.652 43.4453 119.502 43.2754 119.396 43.0801C119.291 42.8848 119.238 42.6562 119.238 42.3945C119.238 42.1445 119.293 41.9082 119.402 41.6855C119.516 41.4629 119.674 41.2656 119.877 41.0938C120.084 40.9219 120.332 40.7871 120.621 40.6895C120.91 40.5918 121.232 40.543 121.588 40.543C122.096 40.543 122.529 40.6328 122.889 40.8125C123.248 40.9922 123.523 41.2324 123.715 41.5332C123.906 41.8301 124.002 42.1602 124.002 42.5234H122.918C122.918 42.3477 122.865 42.1777 122.76 42.0137C122.658 41.8457 122.508 41.707 122.309 41.5977C122.113 41.4883 121.873 41.4336 121.588 41.4336C121.287 41.4336 121.043 41.4805 120.855 41.5742C120.672 41.6641 120.537 41.7793 120.451 41.9199C120.369 42.0605 120.328 42.209 120.328 42.3652C120.328 42.4824 120.348 42.5879 120.387 42.6816C120.43 42.7715 120.504 42.8555 120.609 42.9336C120.715 43.0078 120.863 43.0781 121.055 43.1445C121.246 43.2109 121.49 43.2773 121.787 43.3438C122.307 43.4609 122.734 43.6016 123.07 43.7656C123.406 43.9297 123.656 44.1309 123.82 44.3691C123.984 44.6074 124.066 44.8965 124.066 45.2363C124.066 45.5137 124.008 45.7676 123.891 45.998C123.777 46.2285 123.611 46.4277 123.393 46.5957C123.178 46.7598 122.92 46.8887 122.619 46.9824C122.322 47.0723 121.988 47.1172 121.617 47.1172C121.059 47.1172 120.586 47.0176 120.199 46.8184C119.812 46.6191 119.52 46.3613 119.32 46.0449C119.121 45.7285 119.021 45.3945 119.021 45.043H120.111C120.127 45.3398 120.213 45.5762 120.369 45.752C120.525 45.9238 120.717 46.0469 120.943 46.1211C121.17 46.1914 121.395 46.2266 121.617 46.2266C121.914 46.2266 122.162 46.1875 122.361 46.1094C122.564 46.0312 122.719 45.9238 122.824 45.7871C122.93 45.6504 122.982 45.4941 122.982 45.3184ZM128.145 40.6602V41.4922H124.717V40.6602H128.145ZM125.877 39.1191H126.961V45.4297C126.961 45.6445 126.994 45.8066 127.061 45.916C127.127 46.0254 127.213 46.0977 127.318 46.1328C127.424 46.168 127.537 46.1855 127.658 46.1855C127.748 46.1855 127.842 46.1777 127.939 46.1621C128.041 46.1426 128.117 46.127 128.168 46.1152L128.174 47C128.088 47.0273 127.975 47.0527 127.834 47.0762C127.697 47.1035 127.531 47.1172 127.336 47.1172C127.07 47.1172 126.826 47.0645 126.604 46.959C126.381 46.8535 126.203 46.6777 126.07 46.4316C125.941 46.1816 125.877 45.8457 125.877 45.4238V39.1191ZM130.594 40.6602V47H129.504V40.6602H130.594ZM129.422 38.9785C129.422 38.8027 129.475 38.6543 129.58 38.5332C129.689 38.4121 129.85 38.3516 130.061 38.3516C130.268 38.3516 130.426 38.4121 130.535 38.5332C130.648 38.6543 130.705 38.8027 130.705 38.9785C130.705 39.1465 130.648 39.291 130.535 39.4121C130.426 39.5293 130.268 39.5879 130.061 39.5879C129.85 39.5879 129.689 39.5293 129.58 39.4121C129.475 39.291 129.422 39.1465 129.422 38.9785ZM134.988 40.6602V41.4922H131.561V40.6602H134.988ZM132.721 39.1191H133.805V45.4297C133.805 45.6445 133.838 45.8066 133.904 45.916C133.971 46.0254 134.057 46.0977 134.162 46.1328C134.268 46.168 134.381 46.1855 134.502 46.1855C134.592 46.1855 134.686 46.1777 134.783 46.1621C134.885 46.1426 134.961 46.127 135.012 46.1152L135.018 47C134.932 47.0273 134.818 47.0527 134.678 47.0762C134.541 47.1035 134.375 47.1172 134.18 47.1172C133.914 47.1172 133.67 47.0645 133.447 46.959C133.225 46.8535 133.047 46.6777 132.914 46.4316C132.785 46.1816 132.721 45.8457 132.721 45.4238V39.1191ZM140.139 45.5352V40.6602H141.229V47H140.191L140.139 45.5352ZM140.344 44.1992L140.795 44.1875C140.795 44.6094 140.75 45 140.66 45.3594C140.574 45.7148 140.434 46.0234 140.238 46.2852C140.043 46.5469 139.787 46.752 139.471 46.9004C139.154 47.0449 138.77 47.1172 138.316 47.1172C138.008 47.1172 137.725 47.0723 137.467 46.9824C137.213 46.8926 136.994 46.7539 136.811 46.5664C136.627 46.3789 136.484 46.1348 136.383 45.834C136.285 45.5332 136.236 45.1719 136.236 44.75V40.6602H137.32V44.7617C137.32 45.0469 137.352 45.2832 137.414 45.4707C137.48 45.6543 137.568 45.8008 137.678 45.9102C137.791 46.0156 137.916 46.0898 138.053 46.1328C138.193 46.1758 138.338 46.1973 138.486 46.1973C138.947 46.1973 139.312 46.1094 139.582 45.9336C139.852 45.7539 140.045 45.5137 140.162 45.2129C140.283 44.9082 140.344 44.5703 140.344 44.1992ZM145.535 40.6602V41.4922H142.107V40.6602H145.535ZM143.268 39.1191H144.352V45.4297C144.352 45.6445 144.385 45.8066 144.451 45.916C144.518 46.0254 144.604 46.0977 144.709 46.1328C144.814 46.168 144.928 46.1855 145.049 46.1855C145.139 46.1855 145.232 46.1777 145.33 46.1621C145.432 46.1426 145.508 46.127 145.559 46.1152L145.564 47C145.479 47.0273 145.365 47.0527 145.225 47.0762C145.088 47.1035 144.922 47.1172 144.727 47.1172C144.461 47.1172 144.217 47.0645 143.994 46.959C143.771 46.8535 143.594 46.6777 143.461 46.4316C143.332 46.1816 143.268 45.8457 143.268 45.4238V39.1191ZM147.984 40.6602V47H146.895V40.6602H147.984ZM146.812 38.9785C146.812 38.8027 146.865 38.6543 146.971 38.5332C147.08 38.4121 147.24 38.3516 147.451 38.3516C147.658 38.3516 147.816 38.4121 147.926 38.5332C148.039 38.6543 148.096 38.8027 148.096 38.9785C148.096 39.1465 148.039 39.291 147.926 39.4121C147.816 39.5293 147.658 39.5879 147.451 39.5879C147.24 39.5879 147.08 39.5293 146.971 39.4121C146.865 39.291 146.812 39.1465 146.812 38.9785ZM149.438 43.9004V43.7656C149.438 43.3086 149.504 42.8848 149.637 42.4941C149.77 42.0996 149.961 41.7578 150.211 41.4688C150.461 41.1758 150.764 40.9492 151.119 40.7891C151.475 40.625 151.873 40.543 152.314 40.543C152.76 40.543 153.16 40.625 153.516 40.7891C153.875 40.9492 154.18 41.1758 154.43 41.4688C154.684 41.7578 154.877 42.0996 155.01 42.4941C155.143 42.8848 155.209 43.3086 155.209 43.7656V43.9004C155.209 44.3574 155.143 44.7812 155.01 45.1719C154.877 45.5625 154.684 45.9043 154.43 46.1973C154.18 46.4863 153.877 46.7129 153.521 46.877C153.17 47.0371 152.771 47.1172 152.326 47.1172C151.881 47.1172 151.48 47.0371 151.125 46.877C150.77 46.7129 150.465 46.4863 150.211 46.1973C149.961 45.9043 149.77 45.5625 149.637 45.1719C149.504 44.7812 149.438 44.3574 149.438 43.9004ZM150.521 43.7656V43.9004C150.521 44.2168 150.559 44.5156 150.633 44.7969C150.707 45.0742 150.818 45.3203 150.967 45.5352C151.119 45.75 151.309 45.9199 151.535 46.0449C151.762 46.166 152.025 46.2266 152.326 46.2266C152.623 46.2266 152.883 46.166 153.105 46.0449C153.332 45.9199 153.52 45.75 153.668 45.5352C153.816 45.3203 153.928 45.0742 154.002 44.7969C154.08 44.5156 154.119 44.2168 154.119 43.9004V43.7656C154.119 43.4531 154.08 43.1582 154.002 42.8809C153.928 42.5996 153.814 42.3516 153.662 42.1367C153.514 41.918 153.326 41.7461 153.1 41.6211C152.877 41.4961 152.615 41.4336 152.314 41.4336C152.018 41.4336 151.756 41.4961 151.529 41.6211C151.307 41.7461 151.119 41.918 150.967 42.1367C150.818 42.3516 150.707 42.5996 150.633 42.8809C150.559 43.1582 150.521 43.4531 150.521 43.7656ZM157.652 42.0137V47H156.568V40.6602H157.594L157.652 42.0137ZM157.395 43.5898L156.943 43.5723C156.947 43.1387 157.012 42.7383 157.137 42.3711C157.262 42 157.438 41.6777 157.664 41.4043C157.891 41.1309 158.16 40.9199 158.473 40.7715C158.789 40.6191 159.139 40.543 159.521 40.543C159.834 40.543 160.115 40.5859 160.365 40.6719C160.615 40.7539 160.828 40.8867 161.004 41.0703C161.184 41.2539 161.32 41.4922 161.414 41.7852C161.508 42.0742 161.555 42.4277 161.555 42.8457V47H160.465V42.834C160.465 42.502 160.416 42.2363 160.318 42.0371C160.221 41.834 160.078 41.6875 159.891 41.5977C159.703 41.5039 159.473 41.457 159.199 41.457C158.93 41.457 158.684 41.5137 158.461 41.627C158.242 41.7402 158.053 41.8965 157.893 42.0957C157.736 42.2949 157.613 42.5234 157.523 42.7812C157.438 43.0352 157.395 43.3047 157.395 43.5898ZM167.355 40.6602V47H166.266V40.6602H167.355ZM166.184 38.9785C166.184 38.8027 166.236 38.6543 166.342 38.5332C166.451 38.4121 166.611 38.3516 166.822 38.3516C167.029 38.3516 167.188 38.4121 167.297 38.5332C167.41 38.6543 167.467 38.8027 167.467 38.9785C167.467 39.1465 167.41 39.291 167.297 39.4121C167.188 39.5293 167.029 39.5879 166.822 39.5879C166.611 39.5879 166.451 39.5293 166.342 39.4121C166.236 39.291 166.184 39.1465 166.184 38.9785ZM172.787 45.3184C172.787 45.1621 172.752 45.0176 172.682 44.8848C172.615 44.748 172.477 44.625 172.266 44.5156C172.059 44.4023 171.746 44.3047 171.328 44.2227C170.977 44.1484 170.658 44.0605 170.373 43.959C170.092 43.8574 169.852 43.7344 169.652 43.5898C169.457 43.4453 169.307 43.2754 169.201 43.0801C169.096 42.8848 169.043 42.6562 169.043 42.3945C169.043 42.1445 169.098 41.9082 169.207 41.6855C169.32 41.4629 169.479 41.2656 169.682 41.0938C169.889 40.9219 170.137 40.7871 170.426 40.6895C170.715 40.5918 171.037 40.543 171.393 40.543C171.9 40.543 172.334 40.6328 172.693 40.8125C173.053 40.9922 173.328 41.2324 173.52 41.5332C173.711 41.8301 173.807 42.1602 173.807 42.5234H172.723C172.723 42.3477 172.67 42.1777 172.564 42.0137C172.463 41.8457 172.312 41.707 172.113 41.5977C171.918 41.4883 171.678 41.4336 171.393 41.4336C171.092 41.4336 170.848 41.4805 170.66 41.5742C170.477 41.6641 170.342 41.7793 170.256 41.9199C170.174 42.0605 170.133 42.209 170.133 42.3652C170.133 42.4824 170.152 42.5879 170.191 42.6816C170.234 42.7715 170.309 42.8555 170.414 42.9336C170.52 43.0078 170.668 43.0781 170.859 43.1445C171.051 43.2109 171.295 43.2773 171.592 43.3438C172.111 43.4609 172.539 43.6016 172.875 43.7656C173.211 43.9297 173.461 44.1309 173.625 44.3691C173.789 44.6074 173.871 44.8965 173.871 45.2363C173.871 45.5137 173.812 45.7676 173.695 45.998C173.582 46.2285 173.416 46.4277 173.197 46.5957C172.982 46.7598 172.725 46.8887 172.424 46.9824C172.127 47.0723 171.793 47.1172 171.422 47.1172C170.863 47.1172 170.391 47.0176 170.004 46.8184C169.617 46.6191 169.324 46.3613 169.125 46.0449C168.926 45.7285 168.826 45.3945 168.826 45.043H169.916C169.932 45.3398 170.018 45.5762 170.174 45.752C170.33 45.9238 170.521 46.0469 170.748 46.1211C170.975 46.1914 171.199 46.2266 171.422 46.2266C171.719 46.2266 171.967 46.1875 172.166 46.1094C172.369 46.0312 172.523 45.9238 172.629 45.7871C172.734 45.6504 172.787 45.4941 172.787 45.3184ZM178.986 45.3184C178.986 45.1621 178.951 45.0176 178.881 44.8848C178.814 44.748 178.676 44.625 178.465 44.5156C178.258 44.4023 177.945 44.3047 177.527 44.2227C177.176 44.1484 176.857 44.0605 176.572 43.959C176.291 43.8574 176.051 43.7344 175.852 43.5898C175.656 43.4453 175.506 43.2754 175.4 43.0801C175.295 42.8848 175.242 42.6562 175.242 42.3945C175.242 42.1445 175.297 41.9082 175.406 41.6855C175.52 41.4629 175.678 41.2656 175.881 41.0938C176.088 40.9219 176.336 40.7871 176.625 40.6895C176.914 40.5918 177.236 40.543 177.592 40.543C178.1 40.543 178.533 40.6328 178.893 40.8125C179.252 40.9922 179.527 41.2324 179.719 41.5332C179.91 41.8301 180.006 42.1602 180.006 42.5234H178.922C178.922 42.3477 178.869 42.1777 178.764 42.0137C178.662 41.8457 178.512 41.707 178.312 41.5977C178.117 41.4883 177.877 41.4336 177.592 41.4336C177.291 41.4336 177.047 41.4805 176.859 41.5742C176.676 41.6641 176.541 41.7793 176.455 41.9199C176.373 42.0605 176.332 42.209 176.332 42.3652C176.332 42.4824 176.352 42.5879 176.391 42.6816C176.434 42.7715 176.508 42.8555 176.613 42.9336C176.719 43.0078 176.867 43.0781 177.059 43.1445C177.25 43.2109 177.494 43.2773 177.791 43.3438C178.311 43.4609 178.738 43.6016 179.074 43.7656C179.41 43.9297 179.66 44.1309 179.824 44.3691C179.988 44.6074 180.07 44.8965 180.07 45.2363C180.07 45.5137 180.012 45.7676 179.895 45.998C179.781 46.2285 179.615 46.4277 179.396 46.5957C179.182 46.7598 178.924 46.8887 178.623 46.9824C178.326 47.0723 177.992 47.1172 177.621 47.1172C177.062 47.1172 176.59 47.0176 176.203 46.8184C175.816 46.6191 175.523 46.3613 175.324 46.0449C175.125 45.7285 175.025 45.3945 175.025 45.043H176.115C176.131 45.3398 176.217 45.5762 176.373 45.752C176.529 45.9238 176.721 46.0469 176.947 46.1211C177.174 46.1914 177.398 46.2266 177.621 46.2266C177.918 46.2266 178.166 46.1875 178.365 46.1094C178.568 46.0312 178.723 45.9238 178.828 45.7871C178.934 45.6504 178.986 45.4941 178.986 45.3184ZM185.373 45.5352V40.6602H186.463V47H185.426L185.373 45.5352ZM185.578 44.1992L186.029 44.1875C186.029 44.6094 185.984 45 185.895 45.3594C185.809 45.7148 185.668 46.0234 185.473 46.2852C185.277 46.5469 185.021 46.752 184.705 46.9004C184.389 47.0449 184.004 47.1172 183.551 47.1172C183.242 47.1172 182.959 47.0723 182.701 46.9824C182.447 46.8926 182.229 46.7539 182.045 46.5664C181.861 46.3789 181.719 46.1348 181.617 45.834C181.52 45.5332 181.471 45.1719 181.471 44.75V40.6602H182.555V44.7617C182.555 45.0469 182.586 45.2832 182.648 45.4707C182.715 45.6543 182.803 45.8008 182.912 45.9102C183.025 46.0156 183.15 46.0898 183.287 46.1328C183.428 46.1758 183.572 46.1973 183.721 46.1973C184.182 46.1973 184.547 46.1094 184.816 45.9336C185.086 45.7539 185.279 45.5137 185.396 45.2129C185.518 44.9082 185.578 44.5703 185.578 44.1992ZM190.746 47.1172C190.305 47.1172 189.904 47.043 189.545 46.8945C189.189 46.7422 188.883 46.5293 188.625 46.2559C188.371 45.9824 188.176 45.6582 188.039 45.2832C187.902 44.9082 187.834 44.498 187.834 44.0527V43.8066C187.834 43.291 187.91 42.832 188.062 42.4297C188.215 42.0234 188.422 41.6797 188.684 41.3984C188.945 41.1172 189.242 40.9043 189.574 40.7598C189.906 40.6152 190.25 40.543 190.605 40.543C191.059 40.543 191.449 40.6211 191.777 40.7773C192.109 40.9336 192.381 41.1523 192.592 41.4336C192.803 41.7109 192.959 42.0391 193.061 42.418C193.162 42.793 193.213 43.2031 193.213 43.6484V44.1348H188.479V43.25H192.129V43.168C192.113 42.8867 192.055 42.6133 191.953 42.3477C191.855 42.082 191.699 41.8633 191.484 41.6914C191.27 41.5195 190.977 41.4336 190.605 41.4336C190.359 41.4336 190.133 41.4863 189.926 41.5918C189.719 41.6934 189.541 41.8457 189.393 42.0488C189.244 42.252 189.129 42.5 189.047 42.793C188.965 43.0859 188.924 43.4238 188.924 43.8066V44.0527C188.924 44.3535 188.965 44.6367 189.047 44.9023C189.133 45.1641 189.256 45.3945 189.416 45.5938C189.58 45.793 189.777 45.9492 190.008 46.0625C190.242 46.1758 190.508 46.2324 190.805 46.2324C191.188 46.2324 191.512 46.1543 191.777 45.998C192.043 45.8418 192.275 45.6328 192.475 45.3711L193.131 45.8926C192.994 46.0996 192.82 46.2969 192.609 46.4844C192.398 46.6719 192.139 46.8242 191.83 46.9414C191.525 47.0586 191.164 47.1172 190.746 47.1172ZM198.17 45.3184C198.17 45.1621 198.135 45.0176 198.064 44.8848C197.998 44.748 197.859 44.625 197.648 44.5156C197.441 44.4023 197.129 44.3047 196.711 44.2227C196.359 44.1484 196.041 44.0605 195.756 43.959C195.475 43.8574 195.234 43.7344 195.035 43.5898C194.84 43.4453 194.689 43.2754 194.584 43.0801C194.479 42.8848 194.426 42.6562 194.426 42.3945C194.426 42.1445 194.48 41.9082 194.59 41.6855C194.703 41.4629 194.861 41.2656 195.064 41.0938C195.271 40.9219 195.52 40.7871 195.809 40.6895C196.098 40.5918 196.42 40.543 196.775 40.543C197.283 40.543 197.717 40.6328 198.076 40.8125C198.436 40.9922 198.711 41.2324 198.902 41.5332C199.094 41.8301 199.189 42.1602 199.189 42.5234H198.105C198.105 42.3477 198.053 42.1777 197.947 42.0137C197.846 41.8457 197.695 41.707 197.496 41.5977C197.301 41.4883 197.061 41.4336 196.775 41.4336C196.475 41.4336 196.23 41.4805 196.043 41.5742C195.859 41.6641 195.725 41.7793 195.639 41.9199C195.557 42.0605 195.516 42.209 195.516 42.3652C195.516 42.4824 195.535 42.5879 195.574 42.6816C195.617 42.7715 195.691 42.8555 195.797 42.9336C195.902 43.0078 196.051 43.0781 196.242 43.1445C196.434 43.2109 196.678 43.2773 196.975 43.3438C197.494 43.4609 197.922 43.6016 198.258 43.7656C198.594 43.9297 198.844 44.1309 199.008 44.3691C199.172 44.6074 199.254 44.8965 199.254 45.2363C199.254 45.5137 199.195 45.7676 199.078 45.998C198.965 46.2285 198.799 46.4277 198.58 46.5957C198.365 46.7598 198.107 46.8887 197.807 46.9824C197.51 47.0723 197.176 47.1172 196.805 47.1172C196.246 47.1172 195.773 47.0176 195.387 46.8184C195 46.6191 194.707 46.3613 194.508 46.0449C194.309 45.7285 194.209 45.3945 194.209 45.043H195.299C195.314 45.3398 195.4 45.5762 195.557 45.752C195.713 45.9238 195.904 46.0469 196.131 46.1211C196.357 46.1914 196.582 46.2266 196.805 46.2266C197.102 46.2266 197.35 46.1875 197.549 46.1094C197.752 46.0312 197.906 45.9238 198.012 45.7871C198.117 45.6504 198.17 45.4941 198.17 45.3184ZM206.309 40.6602V41.4922H202.881V40.6602H206.309ZM204.041 39.1191H205.125V45.4297C205.125 45.6445 205.158 45.8066 205.225 45.916C205.291 46.0254 205.377 46.0977 205.482 46.1328C205.588 46.168 205.701 46.1855 205.822 46.1855C205.912 46.1855 206.006 46.1777 206.104 46.1621C206.205 46.1426 206.281 46.127 206.332 46.1152L206.338 47C206.252 47.0273 206.139 47.0527 205.998 47.0762C205.861 47.1035 205.695 47.1172 205.5 47.1172C205.234 47.1172 204.99 47.0645 204.768 46.959C204.545 46.8535 204.367 46.6777 204.234 46.4316C204.105 46.1816 204.041 45.8457 204.041 45.4238V39.1191ZM208.664 38V47H207.58V38H208.664ZM208.406 43.5898L207.955 43.5723C207.959 43.1387 208.023 42.7383 208.148 42.3711C208.273 42 208.449 41.6777 208.676 41.4043C208.902 41.1309 209.172 40.9199 209.484 40.7715C209.801 40.6191 210.15 40.543 210.533 40.543C210.846 40.543 211.127 40.5859 211.377 40.6719C211.627 40.7539 211.84 40.8867 212.016 41.0703C212.195 41.2539 212.332 41.4922 212.426 41.7852C212.52 42.0742 212.566 42.4277 212.566 42.8457V47H211.477V42.834C211.477 42.502 211.428 42.2363 211.33 42.0371C211.232 41.834 211.09 41.6875 210.902 41.5977C210.715 41.5039 210.484 41.457 210.211 41.457C209.941 41.457 209.695 41.5137 209.473 41.627C209.254 41.7402 209.064 41.8965 208.904 42.0957C208.748 42.2949 208.625 42.5234 208.535 42.7812C208.449 43.0352 208.406 43.3047 208.406 43.5898ZM216.82 47.1172C216.379 47.1172 215.979 47.043 215.619 46.8945C215.264 46.7422 214.957 46.5293 214.699 46.2559C214.445 45.9824 214.25 45.6582 214.113 45.2832C213.977 44.9082 213.908 44.498 213.908 44.0527V43.8066C213.908 43.291 213.984 42.832 214.137 42.4297C214.289 42.0234 214.496 41.6797 214.758 41.3984C215.02 41.1172 215.316 40.9043 215.648 40.7598C215.98 40.6152 216.324 40.543 216.68 40.543C217.133 40.543 217.523 40.6211 217.852 40.7773C218.184 40.9336 218.455 41.1523 218.666 41.4336C218.877 41.7109 219.033 42.0391 219.135 42.418C219.236 42.793 219.287 43.2031 219.287 43.6484V44.1348H214.553V43.25H218.203V43.168C218.188 42.8867 218.129 42.6133 218.027 42.3477C217.93 42.082 217.773 41.8633 217.559 41.6914C217.344 41.5195 217.051 41.4336 216.68 41.4336C216.434 41.4336 216.207 41.4863 216 41.5918C215.793 41.6934 215.615 41.8457 215.467 42.0488C215.318 42.252 215.203 42.5 215.121 42.793C215.039 43.0859 214.998 43.4238 214.998 43.8066V44.0527C214.998 44.3535 215.039 44.6367 215.121 44.9023C215.207 45.1641 215.33 45.3945 215.49 45.5938C215.654 45.793 215.852 45.9492 216.082 46.0625C216.316 46.1758 216.582 46.2324 216.879 46.2324C217.262 46.2324 217.586 46.1543 217.852 45.998C218.117 45.8418 218.35 45.6328 218.549 45.3711L219.205 45.8926C219.068 46.0996 218.895 46.2969 218.684 46.4844C218.473 46.6719 218.213 46.8242 217.904 46.9414C217.6 47.0586 217.238 47.1172 216.82 47.1172ZM227.221 45.3184C227.221 45.1621 227.186 45.0176 227.115 44.8848C227.049 44.748 226.91 44.625 226.699 44.5156C226.492 44.4023 226.18 44.3047 225.762 44.2227C225.41 44.1484 225.092 44.0605 224.807 43.959C224.525 43.8574 224.285 43.7344 224.086 43.5898C223.891 43.4453 223.74 43.2754 223.635 43.0801C223.529 42.8848 223.477 42.6562 223.477 42.3945C223.477 42.1445 223.531 41.9082 223.641 41.6855C223.754 41.4629 223.912 41.2656 224.115 41.0938C224.322 40.9219 224.57 40.7871 224.859 40.6895C225.148 40.5918 225.471 40.543 225.826 40.543C226.334 40.543 226.768 40.6328 227.127 40.8125C227.486 40.9922 227.762 41.2324 227.953 41.5332C228.145 41.8301 228.24 42.1602 228.24 42.5234H227.156C227.156 42.3477 227.104 42.1777 226.998 42.0137C226.896 41.8457 226.746 41.707 226.547 41.5977C226.352 41.4883 226.111 41.4336 225.826 41.4336C225.525 41.4336 225.281 41.4805 225.094 41.5742C224.91 41.6641 224.775 41.7793 224.689 41.9199C224.607 42.0605 224.566 42.209 224.566 42.3652C224.566 42.4824 224.586 42.5879 224.625 42.6816C224.668 42.7715 224.742 42.8555 224.848 42.9336C224.953 43.0078 225.102 43.0781 225.293 43.1445C225.484 43.2109 225.729 43.2773 226.025 43.3438C226.545 43.4609 226.973 43.6016 227.309 43.7656C227.645 43.9297 227.895 44.1309 228.059 44.3691C228.223 44.6074 228.305 44.8965 228.305 45.2363C228.305 45.5137 228.246 45.7676 228.129 45.998C228.016 46.2285 227.85 46.4277 227.631 46.5957C227.416 46.7598 227.158 46.8887 226.857 46.9824C226.561 47.0723 226.227 47.1172 225.855 47.1172C225.297 47.1172 224.824 47.0176 224.438 46.8184C224.051 46.6191 223.758 46.3613 223.559 46.0449C223.359 45.7285 223.26 45.3945 223.26 45.043H224.35C224.365 45.3398 224.451 45.5762 224.607 45.752C224.764 45.9238 224.955 46.0469 225.182 46.1211C225.408 46.1914 225.633 46.2266 225.855 46.2266C226.152 46.2266 226.4 46.1875 226.6 46.1094C226.803 46.0312 226.957 45.9238 227.062 45.7871C227.168 45.6504 227.221 45.4941 227.221 45.3184ZM233.467 45.916V42.6523C233.467 42.4023 233.416 42.1855 233.314 42.002C233.217 41.8145 233.068 41.6699 232.869 41.5684C232.67 41.4668 232.424 41.416 232.131 41.416C231.857 41.416 231.617 41.4629 231.41 41.5566C231.207 41.6504 231.047 41.7734 230.93 41.9258C230.816 42.0781 230.76 42.2422 230.76 42.418H229.676C229.676 42.1914 229.734 41.9668 229.852 41.7441C229.969 41.5215 230.137 41.3203 230.355 41.1406C230.578 40.957 230.844 40.8125 231.152 40.707C231.465 40.5977 231.812 40.543 232.195 40.543C232.656 40.543 233.062 40.6211 233.414 40.7773C233.77 40.9336 234.047 41.1699 234.246 41.4863C234.449 41.7988 234.551 42.1914 234.551 42.6641V45.6172C234.551 45.8281 234.568 46.0527 234.604 46.291C234.643 46.5293 234.699 46.7344 234.773 46.9062V47H233.643C233.588 46.875 233.545 46.709 233.514 46.502C233.482 46.291 233.467 46.0957 233.467 45.916ZM233.654 43.1562L233.666 43.918H232.57C232.262 43.918 231.986 43.9434 231.744 43.9941C231.502 44.041 231.299 44.1133 231.135 44.2109C230.971 44.3086 230.846 44.4316 230.76 44.5801C230.674 44.7246 230.631 44.8945 230.631 45.0898C230.631 45.2891 230.676 45.4707 230.766 45.6348C230.855 45.7988 230.99 45.9297 231.17 46.0273C231.354 46.1211 231.578 46.168 231.844 46.168C232.176 46.168 232.469 46.0977 232.723 45.957C232.977 45.8164 233.178 45.6445 233.326 45.4414C233.479 45.2383 233.561 45.041 233.572 44.8496L234.035 45.3711C234.008 45.5352 233.934 45.7168 233.812 45.916C233.691 46.1152 233.529 46.3066 233.326 46.4902C233.127 46.6699 232.889 46.8203 232.611 46.9414C232.338 47.0586 232.029 47.1172 231.686 47.1172C231.256 47.1172 230.879 47.0332 230.555 46.8652C230.234 46.6973 229.984 46.4727 229.805 46.1914C229.629 45.9062 229.541 45.5879 229.541 45.2363C229.541 44.8965 229.607 44.5977 229.74 44.3398C229.873 44.0781 230.064 43.8613 230.314 43.6895C230.564 43.5137 230.865 43.3809 231.217 43.291C231.568 43.2012 231.961 43.1562 232.395 43.1562H233.654ZM237.434 38V47H236.344V38H237.434ZM241.805 47.1172C241.363 47.1172 240.963 47.043 240.604 46.8945C240.248 46.7422 239.941 46.5293 239.684 46.2559C239.43 45.9824 239.234 45.6582 239.098 45.2832C238.961 44.9082 238.893 44.498 238.893 44.0527V43.8066C238.893 43.291 238.969 42.832 239.121 42.4297C239.273 42.0234 239.48 41.6797 239.742 41.3984C240.004 41.1172 240.301 40.9043 240.633 40.7598C240.965 40.6152 241.309 40.543 241.664 40.543C242.117 40.543 242.508 40.6211 242.836 40.7773C243.168 40.9336 243.439 41.1523 243.65 41.4336C243.861 41.7109 244.018 42.0391 244.119 42.418C244.221 42.793 244.271 43.2031 244.271 43.6484V44.1348H239.537V43.25H243.188V43.168C243.172 42.8867 243.113 42.6133 243.012 42.3477C242.914 42.082 242.758 41.8633 242.543 41.6914C242.328 41.5195 242.035 41.4336 241.664 41.4336C241.418 41.4336 241.191 41.4863 240.984 41.5918C240.777 41.6934 240.6 41.8457 240.451 42.0488C240.303 42.252 240.188 42.5 240.105 42.793C240.023 43.0859 239.982 43.4238 239.982 43.8066V44.0527C239.982 44.3535 240.023 44.6367 240.105 44.9023C240.191 45.1641 240.314 45.3945 240.475 45.5938C240.639 45.793 240.836 45.9492 241.066 46.0625C241.301 46.1758 241.566 46.2324 241.863 46.2324C242.246 46.2324 242.57 46.1543 242.836 45.998C243.102 45.8418 243.334 45.6328 243.533 45.3711L244.189 45.8926C244.053 46.0996 243.879 46.2969 243.668 46.4844C243.457 46.6719 243.197 46.8242 242.889 46.9414C242.584 47.0586 242.223 47.1172 241.805 47.1172ZM57.3633 60.2266C57.6211 60.2266 57.8594 60.1738 58.0781 60.0684C58.2969 59.9629 58.4766 59.8184 58.6172 59.6348C58.7578 59.4473 58.8379 59.2344 58.8574 58.9961H59.8887C59.8691 59.3711 59.7422 59.7207 59.5078 60.0449C59.2773 60.3652 58.9746 60.625 58.5996 60.8242C58.2246 61.0195 57.8125 61.1172 57.3633 61.1172C56.8867 61.1172 56.4707 61.0332 56.1152 60.8652C55.7637 60.6973 55.4707 60.4668 55.2363 60.1738C55.0059 59.8809 54.832 59.5449 54.7148 59.166C54.6016 58.7832 54.5449 58.3789 54.5449 57.9531V57.707C54.5449 57.2812 54.6016 56.8789 54.7148 56.5C54.832 56.1172 55.0059 55.7793 55.2363 55.4863C55.4707 55.1934 55.7637 54.9629 56.1152 54.7949C56.4707 54.627 56.8867 54.543 57.3633 54.543C57.8594 54.543 58.293 54.6445 58.6641 54.8477C59.0352 55.0469 59.3262 55.3203 59.5371 55.668C59.752 56.0117 59.8691 56.4023 59.8887 56.8398H58.8574C58.8379 56.5781 58.7637 56.3418 58.6348 56.1309C58.5098 55.9199 58.3379 55.752 58.1191 55.627C57.9043 55.498 57.6523 55.4336 57.3633 55.4336C57.0312 55.4336 56.752 55.5 56.5254 55.6328C56.3027 55.7617 56.125 55.9375 55.9922 56.1602C55.8633 56.3789 55.7695 56.623 55.7109 56.8926C55.6562 57.1582 55.6289 57.4297 55.6289 57.707V57.9531C55.6289 58.2305 55.6562 58.5039 55.7109 58.7734C55.7656 59.043 55.8574 59.2871 55.9863 59.5059C56.1191 59.7246 56.2969 59.9004 56.5195 60.0332C56.7461 60.1621 57.0273 60.2266 57.3633 60.2266ZM63.7383 61.1172C63.2969 61.1172 62.8965 61.043 62.5371 60.8945C62.1816 60.7422 61.875 60.5293 61.6172 60.2559C61.3633 59.9824 61.168 59.6582 61.0312 59.2832C60.8945 58.9082 60.8262 58.498 60.8262 58.0527V57.8066C60.8262 57.291 60.9023 56.832 61.0547 56.4297C61.207 56.0234 61.4141 55.6797 61.6758 55.3984C61.9375 55.1172 62.2344 54.9043 62.5664 54.7598C62.8984 54.6152 63.2422 54.543 63.5977 54.543C64.0508 54.543 64.4414 54.6211 64.7695 54.7773C65.1016 54.9336 65.373 55.1523 65.584 55.4336C65.7949 55.7109 65.9512 56.0391 66.0527 56.418C66.1543 56.793 66.2051 57.2031 66.2051 57.6484V58.1348H61.4707V57.25H65.1211V57.168C65.1055 56.8867 65.0469 56.6133 64.9453 56.3477C64.8477 56.082 64.6914 55.8633 64.4766 55.6914C64.2617 55.5195 63.9688 55.4336 63.5977 55.4336C63.3516 55.4336 63.125 55.4863 62.918 55.5918C62.7109 55.6934 62.5332 55.8457 62.3848 56.0488C62.2363 56.252 62.1211 56.5 62.0391 56.793C61.957 57.0859 61.916 57.4238 61.916 57.8066V58.0527C61.916 58.3535 61.957 58.6367 62.0391 58.9023C62.125 59.1641 62.248 59.3945 62.4082 59.5938C62.5723 59.793 62.7695 59.9492 63 60.0625C63.2344 60.1758 63.5 60.2324 63.7969 60.2324C64.1797 60.2324 64.5039 60.1543 64.7695 59.998C65.0352 59.8418 65.2676 59.6328 65.4668 59.3711L66.123 59.8926C65.9863 60.0996 65.8125 60.2969 65.6016 60.4844C65.3906 60.6719 65.1309 60.8242 64.8223 60.9414C64.5176 61.0586 64.1562 61.1172 63.7383 61.1172ZM68.5547 55.6562V61H67.4707V54.6602H68.5254L68.5547 55.6562ZM70.5352 54.625L70.5293 55.6328C70.4395 55.6133 70.3535 55.6016 70.2715 55.5977C70.1934 55.5898 70.1035 55.5859 70.002 55.5859C69.752 55.5859 69.5312 55.625 69.3398 55.7031C69.1484 55.7812 68.9863 55.8906 68.8535 56.0312C68.7207 56.1719 68.6152 56.3398 68.5371 56.5352C68.4629 56.7266 68.4141 56.9375 68.3906 57.168L68.0859 57.3438C68.0859 56.9609 68.123 56.6016 68.1973 56.2656C68.2754 55.9297 68.3945 55.6328 68.5547 55.375C68.7148 55.1133 68.918 54.9102 69.1641 54.7656C69.4141 54.6172 69.7109 54.543 70.0547 54.543C70.1328 54.543 70.2227 54.5527 70.3242 54.5723C70.4258 54.5879 70.4961 54.6055 70.5352 54.625ZM74.4844 54.6602V55.4922H71.0566V54.6602H74.4844ZM72.2168 53.1191H73.3008V59.4297C73.3008 59.6445 73.334 59.8066 73.4004 59.916C73.4668 60.0254 73.5527 60.0977 73.6582 60.1328C73.7637 60.168 73.877 60.1855 73.998 60.1855C74.0879 60.1855 74.1816 60.1777 74.2793 60.1621C74.3809 60.1426 74.457 60.127 74.5078 60.1152L74.5137 61C74.4277 61.0273 74.3145 61.0527 74.1738 61.0762C74.0371 61.1035 73.8711 61.1172 73.6758 61.1172C73.4102 61.1172 73.166 61.0645 72.9434 60.959C72.7207 60.8535 72.543 60.6777 72.4102 60.4316C72.2812 60.1816 72.2168 59.8457 72.2168 59.4238V53.1191ZM76.9336 54.6602V61H75.8438V54.6602H76.9336ZM75.7617 52.9785C75.7617 52.8027 75.8145 52.6543 75.9199 52.5332C76.0293 52.4121 76.1895 52.3516 76.4004 52.3516C76.6074 52.3516 76.7656 52.4121 76.875 52.5332C76.9883 52.6543 77.0449 52.8027 77.0449 52.9785C77.0449 53.1465 76.9883 53.291 76.875 53.4121C76.7656 53.5293 76.6074 53.5879 76.4004 53.5879C76.1895 53.5879 76.0293 53.5293 75.9199 53.4121C75.8145 53.291 75.7617 53.1465 75.7617 52.9785ZM80.1211 61H79.0371V54.1094C79.0371 53.6289 79.1309 53.2227 79.3184 52.8906C79.5059 52.5586 79.7734 52.3066 80.1211 52.1348C80.4688 51.9629 80.8809 51.877 81.3574 51.877C81.6387 51.877 81.9141 51.9121 82.1836 51.9824C82.4531 52.0488 82.7305 52.1328 83.0156 52.2344L82.834 53.1484C82.6543 53.0781 82.4453 53.0117 82.207 52.9492C81.9727 52.8828 81.7148 52.8496 81.4336 52.8496C80.9688 52.8496 80.6328 52.9551 80.4258 53.166C80.2227 53.373 80.1211 53.6875 80.1211 54.1094V61ZM81.416 54.6602V55.4922H78.0352V54.6602H81.416ZM83.5488 54.6602V61H82.4648V54.6602H83.5488ZM87.8672 60.2266C88.125 60.2266 88.3633 60.1738 88.582 60.0684C88.8008 59.9629 88.9805 59.8184 89.1211 59.6348C89.2617 59.4473 89.3418 59.2344 89.3613 58.9961H90.3926C90.373 59.3711 90.2461 59.7207 90.0117 60.0449C89.7812 60.3652 89.4785 60.625 89.1035 60.8242C88.7285 61.0195 88.3164 61.1172 87.8672 61.1172C87.3906 61.1172 86.9746 61.0332 86.6191 60.8652C86.2676 60.6973 85.9746 60.4668 85.7402 60.1738C85.5098 59.8809 85.3359 59.5449 85.2188 59.166C85.1055 58.7832 85.0488 58.3789 85.0488 57.9531V57.707C85.0488 57.2812 85.1055 56.8789 85.2188 56.5C85.3359 56.1172 85.5098 55.7793 85.7402 55.4863C85.9746 55.1934 86.2676 54.9629 86.6191 54.7949C86.9746 54.627 87.3906 54.543 87.8672 54.543C88.3633 54.543 88.7969 54.6445 89.168 54.8477C89.5391 55.0469 89.8301 55.3203 90.041 55.668C90.2559 56.0117 90.373 56.4023 90.3926 56.8398H89.3613C89.3418 56.5781 89.2676 56.3418 89.1387 56.1309C89.0137 55.9199 88.8418 55.752 88.623 55.627C88.4082 55.498 88.1562 55.4336 87.8672 55.4336C87.5352 55.4336 87.2559 55.5 87.0293 55.6328C86.8066 55.7617 86.6289 55.9375 86.4961 56.1602C86.3672 56.3789 86.2734 56.623 86.2148 56.8926C86.1602 57.1582 86.1328 57.4297 86.1328 57.707V57.9531C86.1328 58.2305 86.1602 58.5039 86.2148 58.7734C86.2695 59.043 86.3613 59.2871 86.4902 59.5059C86.623 59.7246 86.8008 59.9004 87.0234 60.0332C87.25 60.1621 87.5312 60.2266 87.8672 60.2266ZM95.3496 59.916V56.6523C95.3496 56.4023 95.2988 56.1855 95.1973 56.002C95.0996 55.8145 94.9512 55.6699 94.752 55.5684C94.5527 55.4668 94.3066 55.416 94.0137 55.416C93.7402 55.416 93.5 55.4629 93.293 55.5566C93.0898 55.6504 92.9297 55.7734 92.8125 55.9258C92.6992 56.0781 92.6426 56.2422 92.6426 56.418H91.5586C91.5586 56.1914 91.6172 55.9668 91.7344 55.7441C91.8516 55.5215 92.0195 55.3203 92.2383 55.1406C92.4609 54.957 92.7266 54.8125 93.0352 54.707C93.3477 54.5977 93.6953 54.543 94.0781 54.543C94.5391 54.543 94.9453 54.6211 95.2969 54.7773C95.6523 54.9336 95.9297 55.1699 96.1289 55.4863C96.332 55.7988 96.4336 56.1914 96.4336 56.6641V59.6172C96.4336 59.8281 96.4512 60.0527 96.4863 60.291C96.5254 60.5293 96.582 60.7344 96.6562 60.9062V61H95.5254C95.4707 60.875 95.4277 60.709 95.3965 60.502C95.3652 60.291 95.3496 60.0957 95.3496 59.916ZM95.5371 57.1562L95.5488 57.918H94.4531C94.1445 57.918 93.8691 57.9434 93.627 57.9941C93.3848 58.041 93.1816 58.1133 93.0176 58.2109C92.8535 58.3086 92.7285 58.4316 92.6426 58.5801C92.5566 58.7246 92.5137 58.8945 92.5137 59.0898C92.5137 59.2891 92.5586 59.4707 92.6484 59.6348C92.7383 59.7988 92.873 59.9297 93.0527 60.0273C93.2363 60.1211 93.4609 60.168 93.7266 60.168C94.0586 60.168 94.3516 60.0977 94.6055 59.957C94.8594 59.8164 95.0605 59.6445 95.209 59.4414C95.3613 59.2383 95.4434 59.041 95.4551 58.8496L95.918 59.3711C95.8906 59.5352 95.8164 59.7168 95.6953 59.916C95.5742 60.1152 95.4121 60.3066 95.209 60.4902C95.0098 60.6699 94.7715 60.8203 94.4941 60.9414C94.2207 61.0586 93.9121 61.1172 93.5684 61.1172C93.1387 61.1172 92.7617 61.0332 92.4375 60.8652C92.1172 60.6973 91.8672 60.4727 91.6875 60.1914C91.5117 59.9062 91.4238 59.5879 91.4238 59.2363C91.4238 58.8965 91.4902 58.5977 91.623 58.3398C91.7559 58.0781 91.9473 57.8613 92.1973 57.6895C92.4473 57.5137 92.748 57.3809 93.0996 57.291C93.4512 57.2012 93.8438 57.1562 94.2773 57.1562H95.5371ZM100.793 54.6602V55.4922H97.3652V54.6602H100.793ZM98.5254 53.1191H99.6094V59.4297C99.6094 59.6445 99.6426 59.8066 99.709 59.916C99.7754 60.0254 99.8613 60.0977 99.9668 60.1328C100.072 60.168 100.186 60.1855 100.307 60.1855C100.396 60.1855 100.49 60.1777 100.588 60.1621C100.689 60.1426 100.766 60.127 100.816 60.1152L100.822 61C100.736 61.0273 100.623 61.0527 100.482 61.0762C100.346 61.1035 100.18 61.1172 99.9844 61.1172C99.7188 61.1172 99.4746 61.0645 99.252 60.959C99.0293 60.8535 98.8516 60.6777 98.7188 60.4316C98.5898 60.1816 98.5254 59.8457 98.5254 59.4238V53.1191ZM104.695 61.1172C104.254 61.1172 103.854 61.043 103.494 60.8945C103.139 60.7422 102.832 60.5293 102.574 60.2559C102.32 59.9824 102.125 59.6582 101.988 59.2832C101.852 58.9082 101.783 58.498 101.783 58.0527V57.8066C101.783 57.291 101.859 56.832 102.012 56.4297C102.164 56.0234 102.371 55.6797 102.633 55.3984C102.895 55.1172 103.191 54.9043 103.523 54.7598C103.855 54.6152 104.199 54.543 104.555 54.543C105.008 54.543 105.398 54.6211 105.727 54.7773C106.059 54.9336 106.33 55.1523 106.541 55.4336C106.752 55.7109 106.908 56.0391 107.01 56.418C107.111 56.793 107.162 57.2031 107.162 57.6484V58.1348H102.428V57.25H106.078V57.168C106.062 56.8867 106.004 56.6133 105.902 56.3477C105.805 56.082 105.648 55.8633 105.434 55.6914C105.219 55.5195 104.926 55.4336 104.555 55.4336C104.309 55.4336 104.082 55.4863 103.875 55.5918C103.668 55.6934 103.49 55.8457 103.342 56.0488C103.193 56.252 103.078 56.5 102.996 56.793C102.914 57.0859 102.873 57.4238 102.873 57.8066V58.0527C102.873 58.3535 102.914 58.6367 102.996 58.9023C103.082 59.1641 103.205 59.3945 103.365 59.5938C103.529 59.793 103.727 59.9492 103.957 60.0625C104.191 60.1758 104.457 60.2324 104.754 60.2324C105.137 60.2324 105.461 60.1543 105.727 59.998C105.992 59.8418 106.225 59.6328 106.424 59.3711L107.08 59.8926C106.943 60.0996 106.77 60.2969 106.559 60.4844C106.348 60.6719 106.088 60.8242 105.779 60.9414C105.475 61.0586 105.113 61.1172 104.695 61.1172ZM115.143 59.916V56.6523C115.143 56.4023 115.092 56.1855 114.99 56.002C114.893 55.8145 114.744 55.6699 114.545 55.5684C114.346 55.4668 114.1 55.416 113.807 55.416C113.533 55.416 113.293 55.4629 113.086 55.5566C112.883 55.6504 112.723 55.7734 112.605 55.9258C112.492 56.0781 112.436 56.2422 112.436 56.418H111.352C111.352 56.1914 111.41 55.9668 111.527 55.7441C111.645 55.5215 111.812 55.3203 112.031 55.1406C112.254 54.957 112.52 54.8125 112.828 54.707C113.141 54.5977 113.488 54.543 113.871 54.543C114.332 54.543 114.738 54.6211 115.09 54.7773C115.445 54.9336 115.723 55.1699 115.922 55.4863C116.125 55.7988 116.227 56.1914 116.227 56.6641V59.6172C116.227 59.8281 116.244 60.0527 116.279 60.291C116.318 60.5293 116.375 60.7344 116.449 60.9062V61H115.318C115.264 60.875 115.221 60.709 115.189 60.502C115.158 60.291 115.143 60.0957 115.143 59.916ZM115.33 57.1562L115.342 57.918H114.246C113.938 57.918 113.662 57.9434 113.42 57.9941C113.178 58.041 112.975 58.1133 112.811 58.2109C112.646 58.3086 112.521 58.4316 112.436 58.5801C112.35 58.7246 112.307 58.8945 112.307 59.0898C112.307 59.2891 112.352 59.4707 112.441 59.6348C112.531 59.7988 112.666 59.9297 112.846 60.0273C113.029 60.1211 113.254 60.168 113.52 60.168C113.852 60.168 114.145 60.0977 114.398 59.957C114.652 59.8164 114.854 59.6445 115.002 59.4414C115.154 59.2383 115.236 59.041 115.248 58.8496L115.711 59.3711C115.684 59.5352 115.609 59.7168 115.488 59.916C115.367 60.1152 115.205 60.3066 115.002 60.4902C114.803 60.6699 114.564 60.8203 114.287 60.9414C114.014 61.0586 113.705 61.1172 113.361 61.1172C112.932 61.1172 112.555 61.0332 112.23 60.8652C111.91 60.6973 111.66 60.4727 111.48 60.1914C111.305 59.9062 111.217 59.5879 111.217 59.2363C111.217 58.8965 111.283 58.5977 111.416 58.3398C111.549 58.0781 111.74 57.8613 111.99 57.6895C112.24 57.5137 112.541 57.3809 112.893 57.291C113.244 57.2012 113.637 57.1562 114.07 57.1562H115.33ZM119.549 61H118.465V53.9922C118.465 53.5352 118.547 53.1504 118.711 52.8379C118.879 52.5215 119.119 52.2832 119.432 52.123C119.744 51.959 120.115 51.877 120.545 51.877C120.67 51.877 120.795 51.8848 120.92 51.9004C121.049 51.916 121.174 51.9395 121.295 51.9707L121.236 52.8555C121.154 52.8359 121.061 52.8223 120.955 52.8145C120.854 52.8066 120.752 52.8027 120.65 52.8027C120.42 52.8027 120.221 52.8496 120.053 52.9434C119.889 53.0332 119.764 53.166 119.678 53.3418C119.592 53.5176 119.549 53.7344 119.549 53.9922V61ZM120.896 54.6602V55.4922H117.463V54.6602H120.896ZM124.758 54.6602V55.4922H121.33V54.6602H124.758ZM122.49 53.1191H123.574V59.4297C123.574 59.6445 123.607 59.8066 123.674 59.916C123.74 60.0254 123.826 60.0977 123.932 60.1328C124.037 60.168 124.15 60.1855 124.271 60.1855C124.361 60.1855 124.455 60.1777 124.553 60.1621C124.654 60.1426 124.73 60.127 124.781 60.1152L124.787 61C124.701 61.0273 124.588 61.0527 124.447 61.0762C124.311 61.1035 124.145 61.1172 123.949 61.1172C123.684 61.1172 123.439 61.0645 123.217 60.959C122.994 60.8535 122.816 60.6777 122.684 60.4316C122.555 60.1816 122.49 59.8457 122.49 59.4238V53.1191ZM128.66 61.1172C128.219 61.1172 127.818 61.043 127.459 60.8945C127.104 60.7422 126.797 60.5293 126.539 60.2559C126.285 59.9824 126.09 59.6582 125.953 59.2832C125.816 58.9082 125.748 58.498 125.748 58.0527V57.8066C125.748 57.291 125.824 56.832 125.977 56.4297C126.129 56.0234 126.336 55.6797 126.598 55.3984C126.859 55.1172 127.156 54.9043 127.488 54.7598C127.82 54.6152 128.164 54.543 128.52 54.543C128.973 54.543 129.363 54.6211 129.691 54.7773C130.023 54.9336 130.295 55.1523 130.506 55.4336C130.717 55.7109 130.873 56.0391 130.975 56.418C131.076 56.793 131.127 57.2031 131.127 57.6484V58.1348H126.393V57.25H130.043V57.168C130.027 56.8867 129.969 56.6133 129.867 56.3477C129.77 56.082 129.613 55.8633 129.398 55.6914C129.184 55.5195 128.891 55.4336 128.52 55.4336C128.273 55.4336 128.047 55.4863 127.84 55.5918C127.633 55.6934 127.455 55.8457 127.307 56.0488C127.158 56.252 127.043 56.5 126.961 56.793C126.879 57.0859 126.838 57.4238 126.838 57.8066V58.0527C126.838 58.3535 126.879 58.6367 126.961 58.9023C127.047 59.1641 127.17 59.3945 127.33 59.5938C127.494 59.793 127.691 59.9492 127.922 60.0625C128.156 60.1758 128.422 60.2324 128.719 60.2324C129.102 60.2324 129.426 60.1543 129.691 59.998C129.957 59.8418 130.189 59.6328 130.389 59.3711L131.045 59.8926C130.908 60.0996 130.734 60.2969 130.523 60.4844C130.312 60.6719 130.053 60.8242 129.744 60.9414C129.439 61.0586 129.078 61.1172 128.66 61.1172ZM133.477 55.6562V61H132.393V54.6602H133.447L133.477 55.6562ZM135.457 54.625L135.451 55.6328C135.361 55.6133 135.275 55.6016 135.193 55.5977C135.115 55.5898 135.025 55.5859 134.924 55.5859C134.674 55.5859 134.453 55.625 134.262 55.7031C134.07 55.7812 133.908 55.8906 133.775 56.0312C133.643 56.1719 133.537 56.3398 133.459 56.5352C133.385 56.7266 133.336 56.9375 133.312 57.168L133.008 57.3438C133.008 56.9609 133.045 56.6016 133.119 56.2656C133.197 55.9297 133.316 55.6328 133.477 55.375C133.637 55.1133 133.84 54.9102 134.086 54.7656C134.336 54.6172 134.633 54.543 134.977 54.543C135.055 54.543 135.145 54.5527 135.246 54.5723C135.348 54.5879 135.418 54.6055 135.457 54.625ZM140.52 55.8789V63.4375H139.43V54.6602H140.426L140.52 55.8789ZM144.791 57.7773V57.9004C144.791 58.3613 144.736 58.7891 144.627 59.1836C144.518 59.5742 144.357 59.9141 144.146 60.2031C143.939 60.4922 143.684 60.7168 143.379 60.877C143.074 61.0371 142.725 61.1172 142.33 61.1172C141.928 61.1172 141.572 61.0508 141.264 60.918C140.955 60.7852 140.693 60.5918 140.479 60.3379C140.264 60.084 140.092 59.7793 139.963 59.4238C139.838 59.0684 139.752 58.668 139.705 58.2227V57.5664C139.752 57.0977 139.84 56.6777 139.969 56.3066C140.098 55.9355 140.268 55.6191 140.479 55.3574C140.693 55.0918 140.953 54.8906 141.258 54.7539C141.562 54.6133 141.914 54.543 142.312 54.543C142.711 54.543 143.064 54.6211 143.373 54.7773C143.682 54.9297 143.941 55.1484 144.152 55.4336C144.363 55.7188 144.521 56.0605 144.627 56.459C144.736 56.8535 144.791 57.293 144.791 57.7773ZM143.701 57.9004V57.7773C143.701 57.4609 143.668 57.1641 143.602 56.8867C143.535 56.6055 143.432 56.3594 143.291 56.1484C143.154 55.9336 142.979 55.7656 142.764 55.6445C142.549 55.5195 142.293 55.457 141.996 55.457C141.723 55.457 141.484 55.5039 141.281 55.5977C141.082 55.6914 140.912 55.8184 140.771 55.9785C140.631 56.1348 140.516 56.3145 140.426 56.5176C140.34 56.7168 140.275 56.9238 140.232 57.1387V58.6562C140.311 58.9297 140.42 59.1875 140.561 59.4297C140.701 59.668 140.889 59.8613 141.123 60.0098C141.357 60.1543 141.652 60.2266 142.008 60.2266C142.301 60.2266 142.553 60.166 142.764 60.0449C142.979 59.9199 143.154 59.75 143.291 59.5352C143.432 59.3203 143.535 59.0742 143.602 58.7969C143.668 58.5156 143.701 58.2168 143.701 57.9004ZM149.912 59.916V56.6523C149.912 56.4023 149.861 56.1855 149.76 56.002C149.662 55.8145 149.514 55.6699 149.314 55.5684C149.115 55.4668 148.869 55.416 148.576 55.416C148.303 55.416 148.062 55.4629 147.855 55.5566C147.652 55.6504 147.492 55.7734 147.375 55.9258C147.262 56.0781 147.205 56.2422 147.205 56.418H146.121C146.121 56.1914 146.18 55.9668 146.297 55.7441C146.414 55.5215 146.582 55.3203 146.801 55.1406C147.023 54.957 147.289 54.8125 147.598 54.707C147.91 54.5977 148.258 54.543 148.641 54.543C149.102 54.543 149.508 54.6211 149.859 54.7773C150.215 54.9336 150.492 55.1699 150.691 55.4863C150.895 55.7988 150.996 56.1914 150.996 56.6641V59.6172C150.996 59.8281 151.014 60.0527 151.049 60.291C151.088 60.5293 151.145 60.7344 151.219 60.9062V61H150.088C150.033 60.875 149.99 60.709 149.959 60.502C149.928 60.291 149.912 60.0957 149.912 59.916ZM150.1 57.1562L150.111 57.918H149.016C148.707 57.918 148.432 57.9434 148.189 57.9941C147.947 58.041 147.744 58.1133 147.58 58.2109C147.416 58.3086 147.291 58.4316 147.205 58.5801C147.119 58.7246 147.076 58.8945 147.076 59.0898C147.076 59.2891 147.121 59.4707 147.211 59.6348C147.301 59.7988 147.436 59.9297 147.615 60.0273C147.799 60.1211 148.023 60.168 148.289 60.168C148.621 60.168 148.914 60.0977 149.168 59.957C149.422 59.8164 149.623 59.6445 149.771 59.4414C149.924 59.2383 150.006 59.041 150.018 58.8496L150.48 59.3711C150.453 59.5352 150.379 59.7168 150.258 59.916C150.137 60.1152 149.975 60.3066 149.771 60.4902C149.572 60.6699 149.334 60.8203 149.057 60.9414C148.783 61.0586 148.475 61.1172 148.131 61.1172C147.701 61.1172 147.324 61.0332 147 60.8652C146.68 60.6973 146.43 60.4727 146.25 60.1914C146.074 59.9062 145.986 59.5879 145.986 59.2363C145.986 58.8965 146.053 58.5977 146.186 58.3398C146.318 58.0781 146.51 57.8613 146.76 57.6895C147.01 57.5137 147.311 57.3809 147.662 57.291C148.014 57.2012 148.406 57.1562 148.84 57.1562H150.1ZM154.389 60.3438L156.152 54.6602H157.312L154.77 61.9785C154.711 62.1348 154.633 62.3027 154.535 62.4824C154.441 62.666 154.32 62.8398 154.172 63.0039C154.023 63.168 153.844 63.3008 153.633 63.4023C153.426 63.5078 153.178 63.5605 152.889 63.5605C152.803 63.5605 152.693 63.5488 152.561 63.5254C152.428 63.502 152.334 63.4824 152.279 63.4668L152.273 62.5879C152.305 62.5918 152.354 62.5957 152.42 62.5996C152.49 62.6074 152.539 62.6113 152.566 62.6113C152.812 62.6113 153.021 62.5781 153.193 62.5117C153.365 62.4492 153.51 62.3418 153.627 62.1895C153.748 62.041 153.852 61.8359 153.938 61.5742L154.389 60.3438ZM153.094 54.6602L154.74 59.582L155.021 60.7246L154.242 61.123L151.91 54.6602H153.094ZM159.369 55.9199V61H158.279V54.6602H159.311L159.369 55.9199ZM159.146 57.5898L158.643 57.5723C158.646 57.1387 158.703 56.7383 158.812 56.3711C158.922 56 159.084 55.6777 159.299 55.4043C159.514 55.1309 159.781 54.9199 160.102 54.7715C160.422 54.6191 160.793 54.543 161.215 54.543C161.512 54.543 161.785 54.5859 162.035 54.6719C162.285 54.7539 162.502 54.8848 162.686 55.0645C162.869 55.2441 163.012 55.4746 163.113 55.7559C163.215 56.0371 163.266 56.377 163.266 56.7754V61H162.182V56.8281C162.182 56.4961 162.125 56.2305 162.012 56.0312C161.902 55.832 161.746 55.6875 161.543 55.5977C161.34 55.5039 161.102 55.457 160.828 55.457C160.508 55.457 160.24 55.5137 160.025 55.627C159.811 55.7402 159.639 55.8965 159.51 56.0957C159.381 56.2949 159.287 56.5234 159.229 56.7812C159.174 57.0352 159.146 57.3047 159.146 57.5898ZM163.254 56.9922L162.527 57.2148C162.531 56.8672 162.588 56.5332 162.697 56.2129C162.811 55.8926 162.973 55.6074 163.184 55.3574C163.398 55.1074 163.662 54.9102 163.975 54.7656C164.287 54.6172 164.645 54.543 165.047 54.543C165.387 54.543 165.688 54.5879 165.949 54.6777C166.215 54.7676 166.438 54.9062 166.617 55.0938C166.801 55.2773 166.939 55.5137 167.033 55.8027C167.127 56.0918 167.174 56.4355 167.174 56.834V61H166.084V56.8223C166.084 56.4668 166.027 56.1914 165.914 55.9961C165.805 55.7969 165.648 55.6582 165.445 55.5801C165.246 55.498 165.008 55.457 164.73 55.457C164.492 55.457 164.281 55.498 164.098 55.5801C163.914 55.6621 163.76 55.7754 163.635 55.9199C163.51 56.0605 163.414 56.2227 163.348 56.4062C163.285 56.5898 163.254 56.7852 163.254 56.9922ZM171.445 61.1172C171.004 61.1172 170.604 61.043 170.244 60.8945C169.889 60.7422 169.582 60.5293 169.324 60.2559C169.07 59.9824 168.875 59.6582 168.738 59.2832C168.602 58.9082 168.533 58.498 168.533 58.0527V57.8066C168.533 57.291 168.609 56.832 168.762 56.4297C168.914 56.0234 169.121 55.6797 169.383 55.3984C169.645 55.1172 169.941 54.9043 170.273 54.7598C170.605 54.6152 170.949 54.543 171.305 54.543C171.758 54.543 172.148 54.6211 172.477 54.7773C172.809 54.9336 173.08 55.1523 173.291 55.4336C173.502 55.7109 173.658 56.0391 173.76 56.418C173.861 56.793 173.912 57.2031 173.912 57.6484V58.1348H169.178V57.25H172.828V57.168C172.812 56.8867 172.754 56.6133 172.652 56.3477C172.555 56.082 172.398 55.8633 172.184 55.6914C171.969 55.5195 171.676 55.4336 171.305 55.4336C171.059 55.4336 170.832 55.4863 170.625 55.5918C170.418 55.6934 170.24 55.8457 170.092 56.0488C169.943 56.252 169.828 56.5 169.746 56.793C169.664 57.0859 169.623 57.4238 169.623 57.8066V58.0527C169.623 58.3535 169.664 58.6367 169.746 58.9023C169.832 59.1641 169.955 59.3945 170.115 59.5938C170.279 59.793 170.477 59.9492 170.707 60.0625C170.941 60.1758 171.207 60.2324 171.504 60.2324C171.887 60.2324 172.211 60.1543 172.477 59.998C172.742 59.8418 172.975 59.6328 173.174 59.3711L173.83 59.8926C173.693 60.0996 173.52 60.2969 173.309 60.4844C173.098 60.6719 172.838 60.8242 172.529 60.9414C172.225 61.0586 171.863 61.1172 171.445 61.1172ZM176.262 56.0137V61H175.178V54.6602H176.203L176.262 56.0137ZM176.004 57.5898L175.553 57.5723C175.557 57.1387 175.621 56.7383 175.746 56.3711C175.871 56 176.047 55.6777 176.273 55.4043C176.5 55.1309 176.77 54.9199 177.082 54.7715C177.398 54.6191 177.748 54.543 178.131 54.543C178.443 54.543 178.725 54.5859 178.975 54.6719C179.225 54.7539 179.438 54.8867 179.613 55.0703C179.793 55.2539 179.93 55.4922 180.023 55.7852C180.117 56.0742 180.164 56.4277 180.164 56.8457V61H179.074V56.834C179.074 56.502 179.025 56.2363 178.928 56.0371C178.83 55.834 178.688 55.6875 178.5 55.5977C178.312 55.5039 178.082 55.457 177.809 55.457C177.539 55.457 177.293 55.5137 177.07 55.627C176.852 55.7402 176.662 55.8965 176.502 56.0957C176.346 56.2949 176.223 56.5234 176.133 56.7812C176.047 57.0352 176.004 57.3047 176.004 57.5898ZM184.465 54.6602V55.4922H181.037V54.6602H184.465ZM182.197 53.1191H183.281V59.4297C183.281 59.6445 183.314 59.8066 183.381 59.916C183.447 60.0254 183.533 60.0977 183.639 60.1328C183.744 60.168 183.857 60.1855 183.979 60.1855C184.068 60.1855 184.162 60.1777 184.26 60.1621C184.361 60.1426 184.438 60.127 184.488 60.1152L184.494 61C184.408 61.0273 184.295 61.0527 184.154 61.0762C184.018 61.1035 183.852 61.1172 183.656 61.1172C183.391 61.1172 183.146 61.0645 182.924 60.959C182.701 60.8535 182.523 60.6777 182.391 60.4316C182.262 60.1816 182.197 59.8457 182.197 59.4238V53.1191ZM191.25 60.2266C191.508 60.2266 191.746 60.1738 191.965 60.0684C192.184 59.9629 192.363 59.8184 192.504 59.6348C192.645 59.4473 192.725 59.2344 192.744 58.9961H193.775C193.756 59.3711 193.629 59.7207 193.395 60.0449C193.164 60.3652 192.861 60.625 192.486 60.8242C192.111 61.0195 191.699 61.1172 191.25 61.1172C190.773 61.1172 190.357 61.0332 190.002 60.8652C189.65 60.6973 189.357 60.4668 189.123 60.1738C188.893 59.8809 188.719 59.5449 188.602 59.166C188.488 58.7832 188.432 58.3789 188.432 57.9531V57.707C188.432 57.2812 188.488 56.8789 188.602 56.5C188.719 56.1172 188.893 55.7793 189.123 55.4863C189.357 55.1934 189.65 54.9629 190.002 54.7949C190.357 54.627 190.773 54.543 191.25 54.543C191.746 54.543 192.18 54.6445 192.551 54.8477C192.922 55.0469 193.213 55.3203 193.424 55.668C193.639 56.0117 193.756 56.4023 193.775 56.8398H192.744C192.725 56.5781 192.65 56.3418 192.521 56.1309C192.396 55.9199 192.225 55.752 192.006 55.627C191.791 55.498 191.539 55.4336 191.25 55.4336C190.918 55.4336 190.639 55.5 190.412 55.6328C190.189 55.7617 190.012 55.9375 189.879 56.1602C189.75 56.3789 189.656 56.623 189.598 56.8926C189.543 57.1582 189.516 57.4297 189.516 57.707V57.9531C189.516 58.2305 189.543 58.5039 189.598 58.7734C189.652 59.043 189.744 59.2871 189.873 59.5059C190.006 59.7246 190.184 59.9004 190.406 60.0332C190.633 60.1621 190.914 60.2266 191.25 60.2266ZM194.707 57.9004V57.7656C194.707 57.3086 194.773 56.8848 194.906 56.4941C195.039 56.0996 195.23 55.7578 195.48 55.4688C195.73 55.1758 196.033 54.9492 196.389 54.7891C196.744 54.625 197.143 54.543 197.584 54.543C198.029 54.543 198.43 54.625 198.785 54.7891C199.145 54.9492 199.449 55.1758 199.699 55.4688C199.953 55.7578 200.146 56.0996 200.279 56.4941C200.412 56.8848 200.479 57.3086 200.479 57.7656V57.9004C200.479 58.3574 200.412 58.7812 200.279 59.1719C200.146 59.5625 199.953 59.9043 199.699 60.1973C199.449 60.4863 199.146 60.7129 198.791 60.877C198.439 61.0371 198.041 61.1172 197.596 61.1172C197.15 61.1172 196.75 61.0371 196.395 60.877C196.039 60.7129 195.734 60.4863 195.48 60.1973C195.23 59.9043 195.039 59.5625 194.906 59.1719C194.773 58.7812 194.707 58.3574 194.707 57.9004ZM195.791 57.7656V57.9004C195.791 58.2168 195.828 58.5156 195.902 58.7969C195.977 59.0742 196.088 59.3203 196.236 59.5352C196.389 59.75 196.578 59.9199 196.805 60.0449C197.031 60.166 197.295 60.2266 197.596 60.2266C197.893 60.2266 198.152 60.166 198.375 60.0449C198.602 59.9199 198.789 59.75 198.938 59.5352C199.086 59.3203 199.197 59.0742 199.271 58.7969C199.35 58.5156 199.389 58.2168 199.389 57.9004V57.7656C199.389 57.4531 199.35 57.1582 199.271 56.8809C199.197 56.5996 199.084 56.3516 198.932 56.1367C198.783 55.918 198.596 55.7461 198.369 55.6211C198.146 55.4961 197.885 55.4336 197.584 55.4336C197.287 55.4336 197.025 55.4961 196.799 55.6211C196.576 55.7461 196.389 55.918 196.236 56.1367C196.088 56.3516 195.977 56.5996 195.902 56.8809C195.828 57.1582 195.791 57.4531 195.791 57.7656ZM202.916 55.9199V61H201.826V54.6602H202.857L202.916 55.9199ZM202.693 57.5898L202.189 57.5723C202.193 57.1387 202.25 56.7383 202.359 56.3711C202.469 56 202.631 55.6777 202.846 55.4043C203.061 55.1309 203.328 54.9199 203.648 54.7715C203.969 54.6191 204.34 54.543 204.762 54.543C205.059 54.543 205.332 54.5859 205.582 54.6719C205.832 54.7539 206.049 54.8848 206.232 55.0645C206.416 55.2441 206.559 55.4746 206.66 55.7559C206.762 56.0371 206.812 56.377 206.812 56.7754V61H205.729V56.8281C205.729 56.4961 205.672 56.2305 205.559 56.0312C205.449 55.832 205.293 55.6875 205.09 55.5977C204.887 55.5039 204.648 55.457 204.375 55.457C204.055 55.457 203.787 55.5137 203.572 55.627C203.357 55.7402 203.186 55.8965 203.057 56.0957C202.928 56.2949 202.834 56.5234 202.775 56.7812C202.721 57.0352 202.693 57.3047 202.693 57.5898ZM206.801 56.9922L206.074 57.2148C206.078 56.8672 206.135 56.5332 206.244 56.2129C206.357 55.8926 206.52 55.6074 206.73 55.3574C206.945 55.1074 207.209 54.9102 207.521 54.7656C207.834 54.6172 208.191 54.543 208.594 54.543C208.934 54.543 209.234 54.5879 209.496 54.6777C209.762 54.7676 209.984 54.9062 210.164 55.0938C210.348 55.2773 210.486 55.5137 210.58 55.8027C210.674 56.0918 210.721 56.4355 210.721 56.834V61H209.631V56.8223C209.631 56.4668 209.574 56.1914 209.461 55.9961C209.352 55.7969 209.195 55.6582 208.992 55.5801C208.793 55.498 208.555 55.457 208.277 55.457C208.039 55.457 207.828 55.498 207.645 55.5801C207.461 55.6621 207.307 55.7754 207.182 55.9199C207.057 56.0605 206.961 56.2227 206.895 56.4062C206.832 56.5898 206.801 56.7852 206.801 56.9922ZM213.445 55.8789V63.4375H212.355V54.6602H213.352L213.445 55.8789ZM217.717 57.7773V57.9004C217.717 58.3613 217.662 58.7891 217.553 59.1836C217.443 59.5742 217.283 59.9141 217.072 60.2031C216.865 60.4922 216.609 60.7168 216.305 60.877C216 61.0371 215.65 61.1172 215.256 61.1172C214.854 61.1172 214.498 61.0508 214.189 60.918C213.881 60.7852 213.619 60.5918 213.404 60.3379C213.189 60.084 213.018 59.7793 212.889 59.4238C212.764 59.0684 212.678 58.668 212.631 58.2227V57.5664C212.678 57.0977 212.766 56.6777 212.895 56.3066C213.023 55.9355 213.193 55.6191 213.404 55.3574C213.619 55.0918 213.879 54.8906 214.184 54.7539C214.488 54.6133 214.84 54.543 215.238 54.543C215.637 54.543 215.99 54.6211 216.299 54.7773C216.607 54.9297 216.867 55.1484 217.078 55.4336C217.289 55.7188 217.447 56.0605 217.553 56.459C217.662 56.8535 217.717 57.293 217.717 57.7773ZM216.627 57.9004V57.7773C216.627 57.4609 216.594 57.1641 216.527 56.8867C216.461 56.6055 216.357 56.3594 216.217 56.1484C216.08 55.9336 215.904 55.7656 215.689 55.6445C215.475 55.5195 215.219 55.457 214.922 55.457C214.648 55.457 214.41 55.5039 214.207 55.5977C214.008 55.6914 213.838 55.8184 213.697 55.9785C213.557 56.1348 213.441 56.3145 213.352 56.5176C213.266 56.7168 213.201 56.9238 213.158 57.1387V58.6562C213.236 58.9297 213.346 59.1875 213.486 59.4297C213.627 59.668 213.814 59.8613 214.049 60.0098C214.283 60.1543 214.578 60.2266 214.934 60.2266C215.227 60.2266 215.479 60.166 215.689 60.0449C215.904 59.9199 216.08 59.75 216.217 59.5352C216.357 59.3203 216.461 59.0742 216.527 58.7969C216.594 58.5156 216.627 58.2168 216.627 57.9004ZM220.277 52V61H219.188V52H220.277ZM224.648 61.1172C224.207 61.1172 223.807 61.043 223.447 60.8945C223.092 60.7422 222.785 60.5293 222.527 60.2559C222.273 59.9824 222.078 59.6582 221.941 59.2832C221.805 58.9082 221.736 58.498 221.736 58.0527V57.8066C221.736 57.291 221.812 56.832 221.965 56.4297C222.117 56.0234 222.324 55.6797 222.586 55.3984C222.848 55.1172 223.145 54.9043 223.477 54.7598C223.809 54.6152 224.152 54.543 224.508 54.543C224.961 54.543 225.352 54.6211 225.68 54.7773C226.012 54.9336 226.283 55.1523 226.494 55.4336C226.705 55.7109 226.861 56.0391 226.963 56.418C227.064 56.793 227.115 57.2031 227.115 57.6484V58.1348H222.381V57.25H226.031V57.168C226.016 56.8867 225.957 56.6133 225.855 56.3477C225.758 56.082 225.602 55.8633 225.387 55.6914C225.172 55.5195 224.879 55.4336 224.508 55.4336C224.262 55.4336 224.035 55.4863 223.828 55.5918C223.621 55.6934 223.443 55.8457 223.295 56.0488C223.146 56.252 223.031 56.5 222.949 56.793C222.867 57.0859 222.826 57.4238 222.826 57.8066V58.0527C222.826 58.3535 222.867 58.6367 222.949 58.9023C223.035 59.1641 223.158 59.3945 223.318 59.5938C223.482 59.793 223.68 59.9492 223.91 60.0625C224.145 60.1758 224.41 60.2324 224.707 60.2324C225.09 60.2324 225.414 60.1543 225.68 59.998C225.945 59.8418 226.178 59.6328 226.377 59.3711L227.033 59.8926C226.896 60.0996 226.723 60.2969 226.512 60.4844C226.301 60.6719 226.041 60.8242 225.732 60.9414C225.428 61.0586 225.066 61.1172 224.648 61.1172ZM231.035 54.6602V55.4922H227.607V54.6602H231.035ZM228.768 53.1191H229.852V59.4297C229.852 59.6445 229.885 59.8066 229.951 59.916C230.018 60.0254 230.104 60.0977 230.209 60.1328C230.314 60.168 230.428 60.1855 230.549 60.1855C230.639 60.1855 230.732 60.1777 230.83 60.1621C230.932 60.1426 231.008 60.127 231.059 60.1152L231.064 61C230.979 61.0273 230.865 61.0527 230.725 61.0762C230.588 61.1035 230.422 61.1172 230.227 61.1172C229.961 61.1172 229.717 61.0645 229.494 60.959C229.271 60.8535 229.094 60.6777 228.961 60.4316C228.832 60.1816 228.768 59.8457 228.768 59.4238V53.1191ZM233.484 54.6602V61H232.395V54.6602H233.484ZM232.312 52.9785C232.312 52.8027 232.365 52.6543 232.471 52.5332C232.58 52.4121 232.74 52.3516 232.951 52.3516C233.158 52.3516 233.316 52.4121 233.426 52.5332C233.539 52.6543 233.596 52.8027 233.596 52.9785C233.596 53.1465 233.539 53.291 233.426 53.4121C233.316 53.5293 233.158 53.5879 232.951 53.5879C232.74 53.5879 232.58 53.5293 232.471 53.4121C232.365 53.291 232.312 53.1465 232.312 52.9785ZM234.938 57.9004V57.7656C234.938 57.3086 235.004 56.8848 235.137 56.4941C235.27 56.0996 235.461 55.7578 235.711 55.4688C235.961 55.1758 236.264 54.9492 236.619 54.7891C236.975 54.625 237.373 54.543 237.814 54.543C238.26 54.543 238.66 54.625 239.016 54.7891C239.375 54.9492 239.68 55.1758 239.93 55.4688C240.184 55.7578 240.377 56.0996 240.51 56.4941C240.643 56.8848 240.709 57.3086 240.709 57.7656V57.9004C240.709 58.3574 240.643 58.7812 240.51 59.1719C240.377 59.5625 240.184 59.9043 239.93 60.1973C239.68 60.4863 239.377 60.7129 239.021 60.877C238.67 61.0371 238.271 61.1172 237.826 61.1172C237.381 61.1172 236.98 61.0371 236.625 60.877C236.27 60.7129 235.965 60.4863 235.711 60.1973C235.461 59.9043 235.27 59.5625 235.137 59.1719C235.004 58.7812 234.938 58.3574 234.938 57.9004ZM236.021 57.7656V57.9004C236.021 58.2168 236.059 58.5156 236.133 58.7969C236.207 59.0742 236.318 59.3203 236.467 59.5352C236.619 59.75 236.809 59.9199 237.035 60.0449C237.262 60.166 237.525 60.2266 237.826 60.2266C238.123 60.2266 238.383 60.166 238.605 60.0449C238.832 59.9199 239.02 59.75 239.168 59.5352C239.316 59.3203 239.428 59.0742 239.502 58.7969C239.58 58.5156 239.619 58.2168 239.619 57.9004V57.7656C239.619 57.4531 239.58 57.1582 239.502 56.8809C239.428 56.5996 239.314 56.3516 239.162 56.1367C239.014 55.918 238.826 55.7461 238.6 55.6211C238.377 55.4961 238.115 55.4336 237.814 55.4336C237.518 55.4336 237.256 55.4961 237.029 55.6211C236.807 55.7461 236.619 55.918 236.467 56.1367C236.318 56.3516 236.207 56.5996 236.133 56.8809C236.059 57.1582 236.021 57.4531 236.021 57.7656ZM243.152 56.0137V61H242.068V54.6602H243.094L243.152 56.0137ZM242.895 57.5898L242.443 57.5723C242.447 57.1387 242.512 56.7383 242.637 56.3711C242.762 56 242.938 55.6777 243.164 55.4043C243.391 55.1309 243.66 54.9199 243.973 54.7715C244.289 54.6191 244.639 54.543 245.021 54.543C245.334 54.543 245.615 54.5859 245.865 54.6719C246.115 54.7539 246.328 54.8867 246.504 55.0703C246.684 55.2539 246.82 55.4922 246.914 55.7852C247.008 56.0742 247.055 56.4277 247.055 56.8457V61H245.965V56.834C245.965 56.502 245.916 56.2363 245.818 56.0371C245.721 55.834 245.578 55.6875 245.391 55.5977C245.203 55.5039 244.973 55.457 244.699 55.457C244.43 55.457 244.184 55.5137 243.961 55.627C243.742 55.7402 243.553 55.8965 243.393 56.0957C243.236 56.2949 243.113 56.5234 243.023 56.7812C242.938 57.0352 242.895 57.3047 242.895 57.5898ZM248.719 60.4258C248.719 60.2422 248.775 60.0879 248.889 59.9629C249.006 59.834 249.174 59.7695 249.393 59.7695C249.611 59.7695 249.777 59.834 249.891 59.9629C250.008 60.0879 250.066 60.2422 250.066 60.4258C250.066 60.6055 250.008 60.7578 249.891 60.8828C249.777 61.0078 249.611 61.0703 249.393 61.0703C249.174 61.0703 249.006 61.0078 248.889 60.8828C248.775 60.7578 248.719 60.6055 248.719 60.4258Z" fill="#091E25"/>
<path d="M319.796 79H332.452L351.888 10.748V-0.100005H314.598V11.2H339.684L319.796 79Z" fill="white"/>
</g>
<defs>
<clipPath id="clip0_0_1">
<rect width="375" height="919" fill="white" transform="translate(-15 -667)"/>
</clipPath>
</defs>
</svg>
