<svg width="345" height="79" viewBox="0 0 345 79" fill="none" xmlns="http://www.w3.org/2000/svg">
<g clip-path="url(#clip0_0_1)">
<rect width="375" height="919" transform="translate(-15 -479)" fill="white"/>
<rect width="345" height="79" rx="10" fill="#BCE29E"/>
<path d="M34.7917 32.2083H32.7083V30.125H22.2917V32.2083H20.2083C19.0625 32.2083 18.125 33.1458 18.125 34.2917V35.3333C18.125 37.9896 20.125 40.1562 22.6979 40.4792C23.3542 42.0417 24.7604 43.2187 26.4583 43.5625V46.7917H22.2917V48.875H32.7083V46.7917H28.5417V43.5625C30.2396 43.2187 31.6458 42.0417 32.3021 40.4792C34.875 40.1562 36.875 37.9896 36.875 35.3333V34.2917C36.875 33.1458 35.9375 32.2083 34.7917 32.2083ZM20.2083 35.3333V34.2917H22.2917V38.2708C21.0833 37.8333 20.2083 36.6875 20.2083 35.3333ZM34.7917 35.3333C34.7917 36.6875 33.9167 37.8333 32.7083 38.2708V34.2917H34.7917V35.3333Z" fill="white"/>
<path d="M58.9355 19.749L56.2285 28H54.0479L57.7461 18.0469H59.1338L58.9355 19.749ZM61.1846 28L58.4707 19.749L58.252 18.0469H59.6533L63.3721 28H61.1846ZM61.0615 24.2949V25.9014H55.8047V24.2949H61.0615ZM68.4648 26.2295V20.6035H70.4336V28H68.5811L68.4648 26.2295ZM68.6836 24.7119L69.2646 24.6982C69.2646 25.1904 69.2077 25.6484 69.0938 26.0723C68.9798 26.4915 68.8089 26.8561 68.5811 27.166C68.3532 27.4714 68.0661 27.7106 67.7197 27.8838C67.3734 28.0524 66.9655 28.1367 66.4961 28.1367C66.1361 28.1367 65.8034 28.0866 65.498 27.9863C65.1973 27.8815 64.9375 27.7197 64.7188 27.501C64.5046 27.2777 64.3359 26.9928 64.2129 26.6465C64.0944 26.2956 64.0352 25.874 64.0352 25.3818V20.6035H66.0039V25.3955C66.0039 25.6143 66.029 25.7988 66.0791 25.9492C66.1338 26.0996 66.209 26.2227 66.3047 26.3184C66.4004 26.4141 66.512 26.4824 66.6396 26.5234C66.7718 26.5645 66.9176 26.585 67.0771 26.585C67.4827 26.585 67.8018 26.5029 68.0342 26.3389C68.2712 26.1748 68.4375 25.9515 68.5332 25.6689C68.6335 25.3818 68.6836 25.0628 68.6836 24.7119ZM74.9932 26.5986C75.2347 26.5986 75.4489 26.5531 75.6357 26.4619C75.8226 26.3662 75.9684 26.234 76.0732 26.0654C76.1826 25.8923 76.2396 25.6895 76.2441 25.457H78.0967C78.0921 25.9766 77.9531 26.4391 77.6797 26.8447C77.4062 27.2458 77.0394 27.5625 76.5791 27.7949C76.1188 28.0228 75.6038 28.1367 75.0342 28.1367C74.46 28.1367 73.9587 28.041 73.5303 27.8496C73.1064 27.6582 72.7533 27.3939 72.4707 27.0566C72.1882 26.7148 71.9762 26.3184 71.835 25.8672C71.6937 25.4115 71.623 24.9238 71.623 24.4043V24.2061C71.623 23.682 71.6937 23.1943 71.835 22.7432C71.9762 22.2874 72.1882 21.891 72.4707 21.5537C72.7533 21.2119 73.1064 20.9453 73.5303 20.7539C73.9541 20.5625 74.4508 20.4668 75.0205 20.4668C75.6266 20.4668 76.1576 20.583 76.6133 20.8154C77.0736 21.0479 77.4336 21.3805 77.6934 21.8135C77.9577 22.2419 78.0921 22.75 78.0967 23.3379H76.2441C76.2396 23.0918 76.1872 22.8685 76.0869 22.668C75.9912 22.4674 75.8499 22.3079 75.6631 22.1895C75.4808 22.0664 75.2552 22.0049 74.9863 22.0049C74.6992 22.0049 74.4645 22.0664 74.2822 22.1895C74.0999 22.3079 73.9587 22.472 73.8584 22.6816C73.7581 22.8867 73.6875 23.1214 73.6465 23.3857C73.61 23.6455 73.5918 23.9189 73.5918 24.2061V24.4043C73.5918 24.6914 73.61 24.9671 73.6465 25.2314C73.6829 25.4958 73.7513 25.7305 73.8516 25.9355C73.9564 26.1406 74.0999 26.3024 74.2822 26.4209C74.4645 26.5394 74.7015 26.5986 74.9932 26.5986ZM82.8613 20.6035V21.998H78.5547V20.6035H82.8613ZM79.6211 18.7783H81.5898V25.7715C81.5898 25.9857 81.6172 26.1497 81.6719 26.2637C81.7311 26.3776 81.8177 26.4574 81.9316 26.5029C82.0456 26.5439 82.1891 26.5645 82.3623 26.5645C82.4854 26.5645 82.5947 26.5599 82.6904 26.5508C82.7907 26.5371 82.875 26.5234 82.9434 26.5098L82.9502 27.959C82.7816 28.0137 82.5993 28.057 82.4033 28.0889C82.2074 28.1208 81.9909 28.1367 81.7539 28.1367C81.321 28.1367 80.9427 28.0661 80.6191 27.9248C80.3001 27.779 80.054 27.5465 79.8809 27.2275C79.7077 26.9085 79.6211 26.4893 79.6211 25.9697V18.7783ZM86.0605 20.6035V28H84.085V20.6035H86.0605ZM83.9619 18.6758C83.9619 18.3887 84.0622 18.1517 84.2627 17.9648C84.4632 17.778 84.7321 17.6846 85.0693 17.6846C85.402 17.6846 85.6686 17.778 85.8691 17.9648C86.0742 18.1517 86.1768 18.3887 86.1768 18.6758C86.1768 18.9629 86.0742 19.1999 85.8691 19.3867C85.6686 19.5736 85.402 19.667 85.0693 19.667C84.7321 19.667 84.4632 19.5736 84.2627 19.3867C84.0622 19.1999 83.9619 18.9629 83.9619 18.6758ZM87.373 24.377V24.2334C87.373 23.6911 87.4505 23.1921 87.6055 22.7363C87.7604 22.276 87.986 21.8773 88.2822 21.54C88.5785 21.2028 88.943 20.9408 89.376 20.7539C89.8089 20.5625 90.3057 20.4668 90.8662 20.4668C91.4268 20.4668 91.9258 20.5625 92.3633 20.7539C92.8008 20.9408 93.1676 21.2028 93.4639 21.54C93.7646 21.8773 93.9925 22.276 94.1475 22.7363C94.3024 23.1921 94.3799 23.6911 94.3799 24.2334V24.377C94.3799 24.9147 94.3024 25.4137 94.1475 25.874C93.9925 26.3298 93.7646 26.7285 93.4639 27.0703C93.1676 27.4076 92.8031 27.6696 92.3701 27.8564C91.9372 28.0433 91.4404 28.1367 90.8799 28.1367C90.3193 28.1367 89.8203 28.0433 89.3828 27.8564C88.9499 27.6696 88.583 27.4076 88.2822 27.0703C87.986 26.7285 87.7604 26.3298 87.6055 25.874C87.4505 25.4137 87.373 24.9147 87.373 24.377ZM89.3418 24.2334V24.377C89.3418 24.6868 89.3691 24.9762 89.4238 25.2451C89.4785 25.514 89.5651 25.751 89.6836 25.9561C89.8066 26.1566 89.9661 26.3138 90.1621 26.4277C90.3581 26.5417 90.5973 26.5986 90.8799 26.5986C91.1533 26.5986 91.388 26.5417 91.584 26.4277C91.7799 26.3138 91.9372 26.1566 92.0557 25.9561C92.1742 25.751 92.2607 25.514 92.3154 25.2451C92.3747 24.9762 92.4043 24.6868 92.4043 24.377V24.2334C92.4043 23.9326 92.3747 23.6501 92.3154 23.3857C92.2607 23.1169 92.1719 22.8799 92.0488 22.6748C91.9303 22.4652 91.7731 22.3011 91.5771 22.1826C91.3812 22.0641 91.1442 22.0049 90.8662 22.0049C90.5882 22.0049 90.3512 22.0641 90.1553 22.1826C89.9639 22.3011 89.8066 22.4652 89.6836 22.6748C89.5651 22.8799 89.4785 23.1169 89.4238 23.3857C89.3691 23.6501 89.3418 23.9326 89.3418 24.2334ZM97.5176 22.1826V28H95.5488V20.6035H97.3945L97.5176 22.1826ZM97.2305 24.042H96.6973C96.6973 23.4951 96.7679 23.0029 96.9092 22.5654C97.0505 22.1234 97.2487 21.7474 97.5039 21.4375C97.7591 21.123 98.0622 20.8838 98.4131 20.7197C98.7686 20.5511 99.165 20.4668 99.6025 20.4668C99.9489 20.4668 100.266 20.5169 100.553 20.6172C100.84 20.7174 101.086 20.877 101.291 21.0957C101.501 21.3145 101.66 21.6038 101.77 21.9639C101.883 22.3239 101.94 22.7637 101.94 23.2832V28H99.958V23.2764C99.958 22.9482 99.9124 22.693 99.8213 22.5107C99.7301 22.3285 99.5957 22.2008 99.418 22.1279C99.2448 22.0505 99.0306 22.0117 98.7754 22.0117C98.5111 22.0117 98.2809 22.0641 98.085 22.1689C97.8936 22.2738 97.734 22.4196 97.6064 22.6064C97.4834 22.7887 97.39 23.0029 97.3262 23.249C97.2624 23.4951 97.2305 23.7594 97.2305 24.042ZM108.893 22.0254V30.8438H106.924V20.6035H108.749L108.893 22.0254ZM113.575 24.2197V24.3633C113.575 24.901 113.511 25.4001 113.384 25.8604C113.261 26.3206 113.078 26.7217 112.837 27.0635C112.595 27.4007 112.295 27.665 111.935 27.8564C111.579 28.0433 111.169 28.1367 110.704 28.1367C110.253 28.1367 109.861 28.0456 109.528 27.8633C109.196 27.681 108.915 27.4258 108.688 27.0977C108.464 26.765 108.284 26.3799 108.147 25.9424C108.011 25.5049 107.906 25.0355 107.833 24.5342V24.1582C107.906 23.6204 108.011 23.1283 108.147 22.6816C108.284 22.2305 108.464 21.8408 108.688 21.5127C108.915 21.18 109.193 20.9225 109.521 20.7402C109.854 20.5579 110.244 20.4668 110.69 20.4668C111.16 20.4668 111.572 20.5557 111.928 20.7334C112.288 20.9111 112.589 21.1663 112.83 21.499C113.076 21.8317 113.261 22.2282 113.384 22.6885C113.511 23.1488 113.575 23.6592 113.575 24.2197ZM111.6 24.3633V24.2197C111.6 23.9053 111.572 23.6159 111.518 23.3516C111.467 23.0827 111.385 22.848 111.271 22.6475C111.162 22.4469 111.016 22.292 110.834 22.1826C110.656 22.0687 110.44 22.0117 110.185 22.0117C109.916 22.0117 109.686 22.055 109.494 22.1416C109.307 22.2282 109.155 22.3535 109.036 22.5176C108.918 22.6816 108.829 22.8776 108.77 23.1055C108.71 23.3333 108.674 23.5908 108.66 23.8779V24.8281C108.683 25.1654 108.747 25.4684 108.852 25.7373C108.956 26.0016 109.118 26.2113 109.337 26.3662C109.556 26.5212 109.843 26.5986 110.198 26.5986C110.458 26.5986 110.677 26.5417 110.854 26.4277C111.032 26.3092 111.176 26.1475 111.285 25.9424C111.399 25.7373 111.479 25.5003 111.524 25.2314C111.575 24.9626 111.6 24.6732 111.6 24.3633ZM116.768 22.2168V28H114.799V20.6035H116.651L116.768 22.2168ZM118.996 20.5557L118.962 22.3809C118.866 22.3672 118.75 22.3558 118.613 22.3467C118.481 22.333 118.36 22.3262 118.251 22.3262C117.973 22.3262 117.731 22.3626 117.526 22.4355C117.326 22.5039 117.157 22.6064 117.021 22.7432C116.888 22.8799 116.788 23.0462 116.72 23.2422C116.656 23.4382 116.619 23.6615 116.61 23.9121L116.214 23.7891C116.214 23.3105 116.262 22.8708 116.357 22.4697C116.453 22.0641 116.592 21.7109 116.774 21.4102C116.961 21.1094 117.189 20.877 117.458 20.7129C117.727 20.5488 118.035 20.4668 118.381 20.4668C118.49 20.4668 118.602 20.4759 118.716 20.4941C118.83 20.5078 118.923 20.5283 118.996 20.5557ZM119.406 24.377V24.2334C119.406 23.6911 119.484 23.1921 119.639 22.7363C119.794 22.276 120.019 21.8773 120.315 21.54C120.612 21.2028 120.976 20.9408 121.409 20.7539C121.842 20.5625 122.339 20.4668 122.899 20.4668C123.46 20.4668 123.959 20.5625 124.396 20.7539C124.834 20.9408 125.201 21.2028 125.497 21.54C125.798 21.8773 126.026 22.276 126.181 22.7363C126.336 23.1921 126.413 23.6911 126.413 24.2334V24.377C126.413 24.9147 126.336 25.4137 126.181 25.874C126.026 26.3298 125.798 26.7285 125.497 27.0703C125.201 27.4076 124.836 27.6696 124.403 27.8564C123.97 28.0433 123.474 28.1367 122.913 28.1367C122.353 28.1367 121.854 28.0433 121.416 27.8564C120.983 27.6696 120.616 27.4076 120.315 27.0703C120.019 26.7285 119.794 26.3298 119.639 25.874C119.484 25.4137 119.406 24.9147 119.406 24.377ZM121.375 24.2334V24.377C121.375 24.6868 121.402 24.9762 121.457 25.2451C121.512 25.514 121.598 25.751 121.717 25.9561C121.84 26.1566 121.999 26.3138 122.195 26.4277C122.391 26.5417 122.631 26.5986 122.913 26.5986C123.187 26.5986 123.421 26.5417 123.617 26.4277C123.813 26.3138 123.97 26.1566 124.089 25.9561C124.207 25.751 124.294 25.514 124.349 25.2451C124.408 24.9762 124.438 24.6868 124.438 24.377V24.2334C124.438 23.9326 124.408 23.6501 124.349 23.3857C124.294 23.1169 124.205 22.8799 124.082 22.6748C123.964 22.4652 123.806 22.3011 123.61 22.1826C123.414 22.0641 123.177 22.0049 122.899 22.0049C122.621 22.0049 122.384 22.0641 122.188 22.1826C121.997 22.3011 121.84 22.4652 121.717 22.6748C121.598 22.8799 121.512 23.1169 121.457 23.3857C121.402 23.6501 121.375 23.9326 121.375 24.2334ZM130.679 26.5986C130.92 26.5986 131.134 26.5531 131.321 26.4619C131.508 26.3662 131.654 26.234 131.759 26.0654C131.868 25.8923 131.925 25.6895 131.93 25.457H133.782C133.778 25.9766 133.639 26.4391 133.365 26.8447C133.092 27.2458 132.725 27.5625 132.265 27.7949C131.804 28.0228 131.289 28.1367 130.72 28.1367C130.146 28.1367 129.644 28.041 129.216 27.8496C128.792 27.6582 128.439 27.3939 128.156 27.0566C127.874 26.7148 127.662 26.3184 127.521 25.8672C127.379 25.4115 127.309 24.9238 127.309 24.4043V24.2061C127.309 23.682 127.379 23.1943 127.521 22.7432C127.662 22.2874 127.874 21.891 128.156 21.5537C128.439 21.2119 128.792 20.9453 129.216 20.7539C129.64 20.5625 130.136 20.4668 130.706 20.4668C131.312 20.4668 131.843 20.583 132.299 20.8154C132.759 21.0479 133.119 21.3805 133.379 21.8135C133.643 22.2419 133.778 22.75 133.782 23.3379H131.93C131.925 23.0918 131.873 22.8685 131.772 22.668C131.677 22.4674 131.535 22.3079 131.349 22.1895C131.166 22.0664 130.941 22.0049 130.672 22.0049C130.385 22.0049 130.15 22.0664 129.968 22.1895C129.785 22.3079 129.644 22.472 129.544 22.6816C129.444 22.8867 129.373 23.1214 129.332 23.3857C129.296 23.6455 129.277 23.9189 129.277 24.2061V24.4043C129.277 24.6914 129.296 24.9671 129.332 25.2314C129.368 25.4958 129.437 25.7305 129.537 25.9355C129.642 26.1406 129.785 26.3024 129.968 26.4209C130.15 26.5394 130.387 26.5986 130.679 26.5986ZM138.328 28.1367C137.754 28.1367 137.239 28.0456 136.783 27.8633C136.327 27.6764 135.94 27.4189 135.621 27.0908C135.307 26.7627 135.065 26.3822 134.896 25.9492C134.728 25.5117 134.644 25.0469 134.644 24.5547V24.2812C134.644 23.7207 134.723 23.208 134.883 22.7432C135.042 22.2783 135.27 21.875 135.566 21.5332C135.867 21.1914 136.232 20.9294 136.66 20.7471C137.089 20.5602 137.572 20.4668 138.109 20.4668C138.633 20.4668 139.098 20.5534 139.504 20.7266C139.91 20.8997 140.249 21.1458 140.522 21.4648C140.8 21.7839 141.01 22.1667 141.151 22.6133C141.293 23.0553 141.363 23.5475 141.363 24.0898V24.9102H135.484V23.5977H139.429V23.4473C139.429 23.1738 139.379 22.93 139.278 22.7158C139.183 22.4971 139.037 22.3239 138.841 22.1963C138.645 22.0687 138.394 22.0049 138.089 22.0049C137.829 22.0049 137.606 22.0618 137.419 22.1758C137.232 22.2897 137.079 22.4492 136.961 22.6543C136.847 22.8594 136.76 23.1009 136.701 23.3789C136.646 23.6523 136.619 23.9531 136.619 24.2812V24.5547C136.619 24.8509 136.66 25.1243 136.742 25.375C136.829 25.6257 136.95 25.8421 137.104 26.0244C137.264 26.2067 137.455 26.348 137.679 26.4482C137.907 26.5485 138.164 26.5986 138.451 26.5986C138.807 26.5986 139.137 26.5303 139.442 26.3936C139.752 26.2523 140.019 26.0404 140.242 25.7578L141.199 26.7969C141.044 27.0202 140.832 27.2344 140.563 27.4395C140.299 27.6445 139.98 27.8132 139.606 27.9453C139.233 28.0729 138.807 28.1367 138.328 28.1367ZM146.483 25.9561C146.483 25.8148 146.442 25.6872 146.36 25.5732C146.278 25.4593 146.126 25.3545 145.902 25.2588C145.684 25.1585 145.367 25.0674 144.952 24.9854C144.578 24.9033 144.23 24.8008 143.906 24.6777C143.587 24.5501 143.309 24.3975 143.072 24.2197C142.84 24.042 142.658 23.8324 142.525 23.5908C142.393 23.3447 142.327 23.0645 142.327 22.75C142.327 22.4401 142.393 22.1484 142.525 21.875C142.662 21.6016 142.856 21.36 143.106 21.1504C143.362 20.9362 143.672 20.7699 144.036 20.6514C144.405 20.5283 144.82 20.4668 145.28 20.4668C145.923 20.4668 146.474 20.5693 146.935 20.7744C147.399 20.9795 147.755 21.262 148.001 21.6221C148.252 21.9775 148.377 22.3831 148.377 22.8389H146.408C146.408 22.6475 146.367 22.4766 146.285 22.3262C146.208 22.1712 146.085 22.0505 145.916 21.9639C145.752 21.8727 145.538 21.8271 145.273 21.8271C145.055 21.8271 144.866 21.8659 144.706 21.9434C144.547 22.0163 144.424 22.1165 144.337 22.2441C144.255 22.3672 144.214 22.5039 144.214 22.6543C144.214 22.7682 144.237 22.8708 144.282 22.9619C144.332 23.0485 144.412 23.1283 144.521 23.2012C144.631 23.2741 144.772 23.3424 144.945 23.4062C145.123 23.4655 145.342 23.5202 145.602 23.5703C146.135 23.6797 146.611 23.8232 147.03 24.001C147.45 24.1742 147.782 24.4111 148.028 24.7119C148.274 25.0081 148.397 25.3978 148.397 25.8809C148.397 26.209 148.325 26.5098 148.179 26.7832C148.033 27.0566 147.823 27.2959 147.55 27.501C147.276 27.7015 146.948 27.8587 146.565 27.9727C146.187 28.082 145.761 28.1367 145.287 28.1367C144.599 28.1367 144.016 28.0137 143.537 27.7676C143.063 27.5215 142.703 27.2093 142.457 26.8311C142.215 26.4482 142.095 26.0563 142.095 25.6553H143.961C143.97 25.9242 144.038 26.1406 144.166 26.3047C144.298 26.4688 144.465 26.5872 144.665 26.6602C144.87 26.7331 145.091 26.7695 145.328 26.7695C145.583 26.7695 145.795 26.7354 145.964 26.667C146.132 26.5941 146.26 26.4984 146.347 26.3799C146.438 26.2568 146.483 26.1156 146.483 25.9561ZM153.675 25.9561C153.675 25.8148 153.634 25.6872 153.552 25.5732C153.47 25.4593 153.317 25.3545 153.094 25.2588C152.875 25.1585 152.558 25.0674 152.144 24.9854C151.77 24.9033 151.421 24.8008 151.098 24.6777C150.779 24.5501 150.501 24.3975 150.264 24.2197C150.031 24.042 149.849 23.8324 149.717 23.5908C149.585 23.3447 149.519 23.0645 149.519 22.75C149.519 22.4401 149.585 22.1484 149.717 21.875C149.854 21.6016 150.047 21.36 150.298 21.1504C150.553 20.9362 150.863 20.7699 151.228 20.6514C151.597 20.5283 152.011 20.4668 152.472 20.4668C153.114 20.4668 153.666 20.5693 154.126 20.7744C154.591 20.9795 154.946 21.262 155.192 21.6221C155.443 21.9775 155.568 22.3831 155.568 22.8389H153.6C153.6 22.6475 153.559 22.4766 153.477 22.3262C153.399 22.1712 153.276 22.0505 153.107 21.9639C152.943 21.8727 152.729 21.8271 152.465 21.8271C152.246 21.8271 152.057 21.8659 151.897 21.9434C151.738 22.0163 151.615 22.1165 151.528 22.2441C151.446 22.3672 151.405 22.5039 151.405 22.6543C151.405 22.7682 151.428 22.8708 151.474 22.9619C151.524 23.0485 151.604 23.1283 151.713 23.2012C151.822 23.2741 151.964 23.3424 152.137 23.4062C152.314 23.4655 152.533 23.5202 152.793 23.5703C153.326 23.6797 153.802 23.8232 154.222 24.001C154.641 24.1742 154.974 24.4111 155.22 24.7119C155.466 25.0081 155.589 25.3978 155.589 25.8809C155.589 26.209 155.516 26.5098 155.37 26.7832C155.224 27.0566 155.015 27.2959 154.741 27.501C154.468 27.7015 154.14 27.8587 153.757 27.9727C153.379 28.082 152.952 28.1367 152.479 28.1367C151.79 28.1367 151.207 28.0137 150.729 27.7676C150.255 27.5215 149.895 27.2093 149.648 26.8311C149.407 26.4482 149.286 26.0563 149.286 25.6553H151.152C151.161 25.9242 151.23 26.1406 151.357 26.3047C151.49 26.4688 151.656 26.5872 151.856 26.6602C152.062 26.7331 152.283 26.7695 152.52 26.7695C152.775 26.7695 152.987 26.7354 153.155 26.667C153.324 26.5941 153.451 26.4984 153.538 26.3799C153.629 26.2568 153.675 26.1156 153.675 25.9561Z" fill="#091E25"/>
<path d="M56.2031 38.4688V47H55.0723V38.4688H56.2031ZM59.7129 47H58.6289V39.9922C58.6289 39.5352 58.7109 39.1504 58.875 38.8379C59.043 38.5215 59.2832 38.2832 59.5957 38.123C59.9082 37.959 60.2793 37.877 60.709 37.877C60.834 37.877 60.959 37.8848 61.084 37.9004C61.2129 37.916 61.3379 37.9395 61.459 37.9707L61.4004 38.8555C61.3184 38.8359 61.2246 38.8223 61.1191 38.8145C61.0176 38.8066 60.916 38.8027 60.8145 38.8027C60.584 38.8027 60.3848 38.8496 60.2168 38.9434C60.0527 39.0332 59.9277 39.166 59.8418 39.3418C59.7559 39.5176 59.7129 39.7344 59.7129 39.9922V47ZM61.0605 40.6602V41.4922H57.627V40.6602H61.0605ZM67.0254 46.3438L68.7891 40.6602H69.9492L67.4062 47.9785C67.3477 48.1348 67.2695 48.3027 67.1719 48.4824C67.0781 48.666 66.957 48.8398 66.8086 49.0039C66.6602 49.168 66.4805 49.3008 66.2695 49.4023C66.0625 49.5078 65.8145 49.5605 65.5254 49.5605C65.4395 49.5605 65.3301 49.5488 65.1973 49.5254C65.0645 49.502 64.9707 49.4824 64.916 49.4668L64.9102 48.5879C64.9414 48.5918 64.9902 48.5957 65.0566 48.5996C65.127 48.6074 65.1758 48.6113 65.2031 48.6113C65.4492 48.6113 65.6582 48.5781 65.8301 48.5117C66.002 48.4492 66.1465 48.3418 66.2637 48.1895C66.3848 48.041 66.4883 47.8359 66.5742 47.5742L67.0254 46.3438ZM65.7305 40.6602L67.377 45.582L67.6582 46.7246L66.8789 47.123L64.5469 40.6602H65.7305ZM70.5469 43.9004V43.7656C70.5469 43.3086 70.6133 42.8848 70.7461 42.4941C70.8789 42.0996 71.0703 41.7578 71.3203 41.4688C71.5703 41.1758 71.873 40.9492 72.2285 40.7891C72.584 40.625 72.9824 40.543 73.4238 40.543C73.8691 40.543 74.2695 40.625 74.625 40.7891C74.9844 40.9492 75.2891 41.1758 75.5391 41.4688C75.793 41.7578 75.9863 42.0996 76.1191 42.4941C76.252 42.8848 76.3184 43.3086 76.3184 43.7656V43.9004C76.3184 44.3574 76.252 44.7812 76.1191 45.1719C75.9863 45.5625 75.793 45.9043 75.5391 46.1973C75.2891 46.4863 74.9863 46.7129 74.6309 46.877C74.2793 47.0371 73.8809 47.1172 73.4355 47.1172C72.9902 47.1172 72.5898 47.0371 72.2344 46.877C71.8789 46.7129 71.5742 46.4863 71.3203 46.1973C71.0703 45.9043 70.8789 45.5625 70.7461 45.1719C70.6133 44.7812 70.5469 44.3574 70.5469 43.9004ZM71.6309 43.7656V43.9004C71.6309 44.2168 71.668 44.5156 71.7422 44.7969C71.8164 45.0742 71.9277 45.3203 72.0762 45.5352C72.2285 45.75 72.418 45.9199 72.6445 46.0449C72.8711 46.166 73.1348 46.2266 73.4355 46.2266C73.7324 46.2266 73.9922 46.166 74.2148 46.0449C74.4414 45.9199 74.6289 45.75 74.7773 45.5352C74.9258 45.3203 75.0371 45.0742 75.1113 44.7969C75.1895 44.5156 75.2285 44.2168 75.2285 43.9004V43.7656C75.2285 43.4531 75.1895 43.1582 75.1113 42.8809C75.0371 42.5996 74.9238 42.3516 74.7715 42.1367C74.623 41.918 74.4355 41.7461 74.209 41.6211C73.9863 41.4961 73.7246 41.4336 73.4238 41.4336C73.127 41.4336 72.8652 41.4961 72.6387 41.6211C72.416 41.7461 72.2285 41.918 72.0762 42.1367C71.9277 42.3516 71.8164 42.5996 71.7422 42.8809C71.668 43.1582 71.6309 43.4531 71.6309 43.7656ZM81.5566 45.5352V40.6602H82.6465V47H81.6094L81.5566 45.5352ZM81.7617 44.1992L82.2129 44.1875C82.2129 44.6094 82.168 45 82.0781 45.3594C81.9922 45.7148 81.8516 46.0234 81.6562 46.2852C81.4609 46.5469 81.2051 46.752 80.8887 46.9004C80.5723 47.0449 80.1875 47.1172 79.7344 47.1172C79.4258 47.1172 79.1426 47.0723 78.8848 46.9824C78.6309 46.8926 78.4121 46.7539 78.2285 46.5664C78.0449 46.3789 77.9023 46.1348 77.8008 45.834C77.7031 45.5332 77.6543 45.1719 77.6543 44.75V40.6602H78.7383V44.7617C78.7383 45.0469 78.7695 45.2832 78.832 45.4707C78.8984 45.6543 78.9863 45.8008 79.0957 45.9102C79.209 46.0156 79.334 46.0898 79.4707 46.1328C79.6113 46.1758 79.7559 46.1973 79.9043 46.1973C80.3652 46.1973 80.7305 46.1094 81 45.9336C81.2695 45.7539 81.4629 45.5137 81.5801 45.2129C81.7012 44.9082 81.7617 44.5703 81.7617 44.1992ZM88.8809 45.875L90.5098 40.6602H91.2246L91.084 41.6973L89.4258 47H88.7285L88.8809 45.875ZM87.7852 40.6602L89.1738 45.9336L89.2734 47H88.541L86.7012 40.6602H87.7852ZM92.7832 45.8926L94.1074 40.6602H95.1855L93.3457 47H92.6191L92.7832 45.8926ZM91.3828 40.6602L92.9766 45.7871L93.1582 47H92.4668L90.7617 41.6855L90.6211 40.6602H91.3828ZM97.4766 40.6602V47H96.3867V40.6602H97.4766ZM96.3047 38.9785C96.3047 38.8027 96.3574 38.6543 96.4629 38.5332C96.5723 38.4121 96.7324 38.3516 96.9434 38.3516C97.1504 38.3516 97.3086 38.4121 97.418 38.5332C97.5312 38.6543 97.5879 38.8027 97.5879 38.9785C97.5879 39.1465 97.5312 39.291 97.418 39.4121C97.3086 39.5293 97.1504 39.5879 96.9434 39.5879C96.7324 39.5879 96.5723 39.5293 96.4629 39.4121C96.3574 39.291 96.3047 39.1465 96.3047 38.9785ZM100.301 42.0137V47H99.2168V40.6602H100.242L100.301 42.0137ZM100.043 43.5898L99.5918 43.5723C99.5957 43.1387 99.6602 42.7383 99.7852 42.3711C99.9102 42 100.086 41.6777 100.312 41.4043C100.539 41.1309 100.809 40.9199 101.121 40.7715C101.438 40.6191 101.787 40.543 102.17 40.543C102.482 40.543 102.764 40.5859 103.014 40.6719C103.264 40.7539 103.477 40.8867 103.652 41.0703C103.832 41.2539 103.969 41.4922 104.062 41.7852C104.156 42.0742 104.203 42.4277 104.203 42.8457V47H103.113V42.834C103.113 42.502 103.064 42.2363 102.967 42.0371C102.869 41.834 102.727 41.6875 102.539 41.5977C102.352 41.5039 102.121 41.457 101.848 41.457C101.578 41.457 101.332 41.5137 101.109 41.627C100.891 41.7402 100.701 41.8965 100.541 42.0957C100.385 42.2949 100.262 42.5234 100.172 42.7812C100.086 43.0352 100.043 43.3047 100.043 43.5898ZM111.48 40.6602V41.4922H108.053V40.6602H111.48ZM109.213 39.1191H110.297V45.4297C110.297 45.6445 110.33 45.8066 110.396 45.916C110.463 46.0254 110.549 46.0977 110.654 46.1328C110.76 46.168 110.873 46.1855 110.994 46.1855C111.084 46.1855 111.178 46.1777 111.275 46.1621C111.377 46.1426 111.453 46.127 111.504 46.1152L111.51 47C111.424 47.0273 111.311 47.0527 111.17 47.0762C111.033 47.1035 110.867 47.1172 110.672 47.1172C110.406 47.1172 110.162 47.0645 109.939 46.959C109.717 46.8535 109.539 46.6777 109.406 46.4316C109.277 46.1816 109.213 45.8457 109.213 45.4238V39.1191ZM113.836 38V47H112.752V38H113.836ZM113.578 43.5898L113.127 43.5723C113.131 43.1387 113.195 42.7383 113.32 42.3711C113.445 42 113.621 41.6777 113.848 41.4043C114.074 41.1309 114.344 40.9199 114.656 40.7715C114.973 40.6191 115.322 40.543 115.705 40.543C116.018 40.543 116.299 40.5859 116.549 40.6719C116.799 40.7539 117.012 40.8867 117.188 41.0703C117.367 41.2539 117.504 41.4922 117.598 41.7852C117.691 42.0742 117.738 42.4277 117.738 42.8457V47H116.648V42.834C116.648 42.502 116.6 42.2363 116.502 42.0371C116.404 41.834 116.262 41.6875 116.074 41.5977C115.887 41.5039 115.656 41.457 115.383 41.457C115.113 41.457 114.867 41.5137 114.645 41.627C114.426 41.7402 114.236 41.8965 114.076 42.0957C113.92 42.2949 113.797 42.5234 113.707 42.7812C113.621 43.0352 113.578 43.3047 113.578 43.5898ZM121.992 47.1172C121.551 47.1172 121.15 47.043 120.791 46.8945C120.436 46.7422 120.129 46.5293 119.871 46.2559C119.617 45.9824 119.422 45.6582 119.285 45.2832C119.148 44.9082 119.08 44.498 119.08 44.0527V43.8066C119.08 43.291 119.156 42.832 119.309 42.4297C119.461 42.0234 119.668 41.6797 119.93 41.3984C120.191 41.1172 120.488 40.9043 120.82 40.7598C121.152 40.6152 121.496 40.543 121.852 40.543C122.305 40.543 122.695 40.6211 123.023 40.7773C123.355 40.9336 123.627 41.1523 123.838 41.4336C124.049 41.7109 124.205 42.0391 124.307 42.418C124.408 42.793 124.459 43.2031 124.459 43.6484V44.1348H119.725V43.25H123.375V43.168C123.359 42.8867 123.301 42.6133 123.199 42.3477C123.102 42.082 122.945 41.8633 122.73 41.6914C122.516 41.5195 122.223 41.4336 121.852 41.4336C121.605 41.4336 121.379 41.4863 121.172 41.5918C120.965 41.6934 120.787 41.8457 120.639 42.0488C120.49 42.252 120.375 42.5 120.293 42.793C120.211 43.0859 120.17 43.4238 120.17 43.8066V44.0527C120.17 44.3535 120.211 44.6367 120.293 44.9023C120.379 45.1641 120.502 45.3945 120.662 45.5938C120.826 45.793 121.023 45.9492 121.254 46.0625C121.488 46.1758 121.754 46.2324 122.051 46.2324C122.434 46.2324 122.758 46.1543 123.023 45.998C123.289 45.8418 123.521 45.6328 123.721 45.3711L124.377 45.8926C124.24 46.0996 124.066 46.2969 123.855 46.4844C123.645 46.6719 123.385 46.8242 123.076 46.9414C122.771 47.0586 122.41 47.1172 121.992 47.1172ZM132.439 45.916V42.6523C132.439 42.4023 132.389 42.1855 132.287 42.002C132.189 41.8145 132.041 41.6699 131.842 41.5684C131.643 41.4668 131.396 41.416 131.104 41.416C130.83 41.416 130.59 41.4629 130.383 41.5566C130.18 41.6504 130.02 41.7734 129.902 41.9258C129.789 42.0781 129.732 42.2422 129.732 42.418H128.648C128.648 42.1914 128.707 41.9668 128.824 41.7441C128.941 41.5215 129.109 41.3203 129.328 41.1406C129.551 40.957 129.816 40.8125 130.125 40.707C130.438 40.5977 130.785 40.543 131.168 40.543C131.629 40.543 132.035 40.6211 132.387 40.7773C132.742 40.9336 133.02 41.1699 133.219 41.4863C133.422 41.7988 133.523 42.1914 133.523 42.6641V45.6172C133.523 45.8281 133.541 46.0527 133.576 46.291C133.615 46.5293 133.672 46.7344 133.746 46.9062V47H132.615C132.561 46.875 132.518 46.709 132.486 46.502C132.455 46.291 132.439 46.0957 132.439 45.916ZM132.627 43.1562L132.639 43.918H131.543C131.234 43.918 130.959 43.9434 130.717 43.9941C130.475 44.041 130.271 44.1133 130.107 44.2109C129.943 44.3086 129.818 44.4316 129.732 44.5801C129.646 44.7246 129.604 44.8945 129.604 45.0898C129.604 45.2891 129.648 45.4707 129.738 45.6348C129.828 45.7988 129.963 45.9297 130.143 46.0273C130.326 46.1211 130.551 46.168 130.816 46.168C131.148 46.168 131.441 46.0977 131.695 45.957C131.949 45.8164 132.15 45.6445 132.299 45.4414C132.451 45.2383 132.533 45.041 132.545 44.8496L133.008 45.3711C132.98 45.5352 132.906 45.7168 132.785 45.916C132.664 46.1152 132.502 46.3066 132.299 46.4902C132.1 46.6699 131.861 46.8203 131.584 46.9414C131.311 47.0586 131.002 47.1172 130.658 47.1172C130.229 47.1172 129.852 47.0332 129.527 46.8652C129.207 46.6973 128.957 46.4727 128.777 46.1914C128.602 45.9062 128.514 45.5879 128.514 45.2363C128.514 44.8965 128.58 44.5977 128.713 44.3398C128.846 44.0781 129.037 43.8613 129.287 43.6895C129.537 43.5137 129.838 43.3809 130.189 43.291C130.541 43.2012 130.934 43.1562 131.367 43.1562H132.627ZM139.107 45.5352V40.6602H140.197V47H139.16L139.107 45.5352ZM139.312 44.1992L139.764 44.1875C139.764 44.6094 139.719 45 139.629 45.3594C139.543 45.7148 139.402 46.0234 139.207 46.2852C139.012 46.5469 138.756 46.752 138.439 46.9004C138.123 47.0449 137.738 47.1172 137.285 47.1172C136.977 47.1172 136.693 47.0723 136.436 46.9824C136.182 46.8926 135.963 46.7539 135.779 46.5664C135.596 46.3789 135.453 46.1348 135.352 45.834C135.254 45.5332 135.205 45.1719 135.205 44.75V40.6602H136.289V44.7617C136.289 45.0469 136.32 45.2832 136.383 45.4707C136.449 45.6543 136.537 45.8008 136.646 45.9102C136.76 46.0156 136.885 46.0898 137.021 46.1328C137.162 46.1758 137.307 46.1973 137.455 46.1973C137.916 46.1973 138.281 46.1094 138.551 45.9336C138.82 45.7539 139.014 45.5137 139.131 45.2129C139.252 44.9082 139.312 44.5703 139.312 44.1992ZM144.387 46.2266C144.645 46.2266 144.883 46.1738 145.102 46.0684C145.32 45.9629 145.5 45.8184 145.641 45.6348C145.781 45.4473 145.861 45.2344 145.881 44.9961H146.912C146.893 45.3711 146.766 45.7207 146.531 46.0449C146.301 46.3652 145.998 46.625 145.623 46.8242C145.248 47.0195 144.836 47.1172 144.387 47.1172C143.91 47.1172 143.494 47.0332 143.139 46.8652C142.787 46.6973 142.494 46.4668 142.26 46.1738C142.029 45.8809 141.855 45.5449 141.738 45.166C141.625 44.7832 141.568 44.3789 141.568 43.9531V43.707C141.568 43.2812 141.625 42.8789 141.738 42.5C141.855 42.1172 142.029 41.7793 142.26 41.4863C142.494 41.1934 142.787 40.9629 143.139 40.7949C143.494 40.627 143.91 40.543 144.387 40.543C144.883 40.543 145.316 40.6445 145.688 40.8477C146.059 41.0469 146.35 41.3203 146.561 41.668C146.775 42.0117 146.893 42.4023 146.912 42.8398H145.881C145.861 42.5781 145.787 42.3418 145.658 42.1309C145.533 41.9199 145.361 41.752 145.143 41.627C144.928 41.498 144.676 41.4336 144.387 41.4336C144.055 41.4336 143.775 41.5 143.549 41.6328C143.326 41.7617 143.148 41.9375 143.016 42.1602C142.887 42.3789 142.793 42.623 142.734 42.8926C142.68 43.1582 142.652 43.4297 142.652 43.707V43.9531C142.652 44.2305 142.68 44.5039 142.734 44.7734C142.789 45.043 142.881 45.2871 143.01 45.5059C143.143 45.7246 143.32 45.9004 143.543 46.0332C143.77 46.1621 144.051 46.2266 144.387 46.2266ZM150.785 40.6602V41.4922H147.357V40.6602H150.785ZM148.518 39.1191H149.602V45.4297C149.602 45.6445 149.635 45.8066 149.701 45.916C149.768 46.0254 149.854 46.0977 149.959 46.1328C150.064 46.168 150.178 46.1855 150.299 46.1855C150.389 46.1855 150.482 46.1777 150.58 46.1621C150.682 46.1426 150.758 46.127 150.809 46.1152L150.814 47C150.729 47.0273 150.615 47.0527 150.475 47.0762C150.338 47.1035 150.172 47.1172 149.977 47.1172C149.711 47.1172 149.467 47.0645 149.244 46.959C149.021 46.8535 148.844 46.6777 148.711 46.4316C148.582 46.1816 148.518 45.8457 148.518 45.4238V39.1191ZM153.234 40.6602V47H152.145V40.6602H153.234ZM152.062 38.9785C152.062 38.8027 152.115 38.6543 152.221 38.5332C152.33 38.4121 152.49 38.3516 152.701 38.3516C152.908 38.3516 153.066 38.4121 153.176 38.5332C153.289 38.6543 153.346 38.8027 153.346 38.9785C153.346 39.1465 153.289 39.291 153.176 39.4121C153.066 39.5293 152.908 39.5879 152.701 39.5879C152.49 39.5879 152.33 39.5293 152.221 39.4121C152.115 39.291 152.062 39.1465 152.062 38.9785ZM154.688 43.9004V43.7656C154.688 43.3086 154.754 42.8848 154.887 42.4941C155.02 42.0996 155.211 41.7578 155.461 41.4688C155.711 41.1758 156.014 40.9492 156.369 40.7891C156.725 40.625 157.123 40.543 157.564 40.543C158.01 40.543 158.41 40.625 158.766 40.7891C159.125 40.9492 159.43 41.1758 159.68 41.4688C159.934 41.7578 160.127 42.0996 160.26 42.4941C160.393 42.8848 160.459 43.3086 160.459 43.7656V43.9004C160.459 44.3574 160.393 44.7812 160.26 45.1719C160.127 45.5625 159.934 45.9043 159.68 46.1973C159.43 46.4863 159.127 46.7129 158.771 46.877C158.42 47.0371 158.021 47.1172 157.576 47.1172C157.131 47.1172 156.73 47.0371 156.375 46.877C156.02 46.7129 155.715 46.4863 155.461 46.1973C155.211 45.9043 155.02 45.5625 154.887 45.1719C154.754 44.7812 154.688 44.3574 154.688 43.9004ZM155.771 43.7656V43.9004C155.771 44.2168 155.809 44.5156 155.883 44.7969C155.957 45.0742 156.068 45.3203 156.217 45.5352C156.369 45.75 156.559 45.9199 156.785 46.0449C157.012 46.166 157.275 46.2266 157.576 46.2266C157.873 46.2266 158.133 46.166 158.355 46.0449C158.582 45.9199 158.77 45.75 158.918 45.5352C159.066 45.3203 159.178 45.0742 159.252 44.7969C159.33 44.5156 159.369 44.2168 159.369 43.9004V43.7656C159.369 43.4531 159.33 43.1582 159.252 42.8809C159.178 42.5996 159.064 42.3516 158.912 42.1367C158.764 41.918 158.576 41.7461 158.35 41.6211C158.127 41.4961 157.865 41.4336 157.564 41.4336C157.268 41.4336 157.006 41.4961 156.779 41.6211C156.557 41.7461 156.369 41.918 156.217 42.1367C156.068 42.3516 155.957 42.5996 155.883 42.8809C155.809 43.1582 155.771 43.4531 155.771 43.7656ZM162.902 42.0137V47H161.818V40.6602H162.844L162.902 42.0137ZM162.645 43.5898L162.193 43.5723C162.197 43.1387 162.262 42.7383 162.387 42.3711C162.512 42 162.688 41.6777 162.914 41.4043C163.141 41.1309 163.41 40.9199 163.723 40.7715C164.039 40.6191 164.389 40.543 164.771 40.543C165.084 40.543 165.365 40.5859 165.615 40.6719C165.865 40.7539 166.078 40.8867 166.254 41.0703C166.434 41.2539 166.57 41.4922 166.664 41.7852C166.758 42.0742 166.805 42.4277 166.805 42.8457V47H165.715V42.834C165.715 42.502 165.666 42.2363 165.568 42.0371C165.471 41.834 165.328 41.6875 165.141 41.5977C164.953 41.5039 164.723 41.457 164.449 41.457C164.18 41.457 163.934 41.5137 163.711 41.627C163.492 41.7402 163.303 41.8965 163.143 42.0957C162.986 42.2949 162.863 42.5234 162.773 42.7812C162.688 43.0352 162.645 43.3047 162.645 43.5898ZM169.436 45.7109V46.584C169.436 46.9395 169.346 47.3145 169.166 47.709C168.986 48.1074 168.734 48.4395 168.41 48.7051L167.795 48.2773C167.92 48.1055 168.025 47.9297 168.111 47.75C168.197 47.5742 168.262 47.3906 168.305 47.1992C168.352 47.0117 168.375 46.8125 168.375 46.6016V45.7109H169.436ZM174.879 41.8789V49.4375H173.789V40.6602H174.785L174.879 41.8789ZM179.15 43.7773V43.9004C179.15 44.3613 179.096 44.7891 178.986 45.1836C178.877 45.5742 178.717 45.9141 178.506 46.2031C178.299 46.4922 178.043 46.7168 177.738 46.877C177.434 47.0371 177.084 47.1172 176.689 47.1172C176.287 47.1172 175.932 47.0508 175.623 46.918C175.314 46.7852 175.053 46.5918 174.838 46.3379C174.623 46.084 174.451 45.7793 174.322 45.4238C174.197 45.0684 174.111 44.668 174.064 44.2227V43.5664C174.111 43.0977 174.199 42.6777 174.328 42.3066C174.457 41.9355 174.627 41.6191 174.838 41.3574C175.053 41.0918 175.312 40.8906 175.617 40.7539C175.922 40.6133 176.273 40.543 176.672 40.543C177.07 40.543 177.424 40.6211 177.732 40.7773C178.041 40.9297 178.301 41.1484 178.512 41.4336C178.723 41.7188 178.881 42.0605 178.986 42.459C179.096 42.8535 179.15 43.293 179.15 43.7773ZM178.061 43.9004V43.7773C178.061 43.4609 178.027 43.1641 177.961 42.8867C177.895 42.6055 177.791 42.3594 177.65 42.1484C177.514 41.9336 177.338 41.7656 177.123 41.6445C176.908 41.5195 176.652 41.457 176.355 41.457C176.082 41.457 175.844 41.5039 175.641 41.5977C175.441 41.6914 175.271 41.8184 175.131 41.9785C174.99 42.1348 174.875 42.3145 174.785 42.5176C174.699 42.7168 174.635 42.9238 174.592 43.1387V44.6562C174.67 44.9297 174.779 45.1875 174.92 45.4297C175.061 45.668 175.248 45.8613 175.482 46.0098C175.717 46.1543 176.012 46.2266 176.367 46.2266C176.66 46.2266 176.912 46.166 177.123 46.0449C177.338 45.9199 177.514 45.75 177.65 45.5352C177.791 45.3203 177.895 45.0742 177.961 44.7969C178.027 44.5156 178.061 44.2168 178.061 43.9004ZM184.271 45.916V42.6523C184.271 42.4023 184.221 42.1855 184.119 42.002C184.021 41.8145 183.873 41.6699 183.674 41.5684C183.475 41.4668 183.229 41.416 182.936 41.416C182.662 41.416 182.422 41.4629 182.215 41.5566C182.012 41.6504 181.852 41.7734 181.734 41.9258C181.621 42.0781 181.564 42.2422 181.564 42.418H180.48C180.48 42.1914 180.539 41.9668 180.656 41.7441C180.773 41.5215 180.941 41.3203 181.16 41.1406C181.383 40.957 181.648 40.8125 181.957 40.707C182.27 40.5977 182.617 40.543 183 40.543C183.461 40.543 183.867 40.6211 184.219 40.7773C184.574 40.9336 184.852 41.1699 185.051 41.4863C185.254 41.7988 185.355 42.1914 185.355 42.6641V45.6172C185.355 45.8281 185.373 46.0527 185.408 46.291C185.447 46.5293 185.504 46.7344 185.578 46.9062V47H184.447C184.393 46.875 184.35 46.709 184.318 46.502C184.287 46.291 184.271 46.0957 184.271 45.916ZM184.459 43.1562L184.471 43.918H183.375C183.066 43.918 182.791 43.9434 182.549 43.9941C182.307 44.041 182.104 44.1133 181.939 44.2109C181.775 44.3086 181.65 44.4316 181.564 44.5801C181.479 44.7246 181.436 44.8945 181.436 45.0898C181.436 45.2891 181.48 45.4707 181.57 45.6348C181.66 45.7988 181.795 45.9297 181.975 46.0273C182.158 46.1211 182.383 46.168 182.648 46.168C182.98 46.168 183.273 46.0977 183.527 45.957C183.781 45.8164 183.982 45.6445 184.131 45.4414C184.283 45.2383 184.365 45.041 184.377 44.8496L184.84 45.3711C184.812 45.5352 184.738 45.7168 184.617 45.916C184.496 46.1152 184.334 46.3066 184.131 46.4902C183.932 46.6699 183.693 46.8203 183.416 46.9414C183.143 47.0586 182.834 47.1172 182.49 47.1172C182.061 47.1172 181.684 47.0332 181.359 46.8652C181.039 46.6973 180.789 46.4727 180.609 46.1914C180.434 45.9062 180.346 45.5879 180.346 45.2363C180.346 44.8965 180.412 44.5977 180.545 44.3398C180.678 44.0781 180.869 43.8613 181.119 43.6895C181.369 43.5137 181.67 43.3809 182.021 43.291C182.373 43.2012 182.766 43.1562 183.199 43.1562H184.459ZM188.748 46.3438L190.512 40.6602H191.672L189.129 47.9785C189.07 48.1348 188.992 48.3027 188.895 48.4824C188.801 48.666 188.68 48.8398 188.531 49.0039C188.383 49.168 188.203 49.3008 187.992 49.4023C187.785 49.5078 187.537 49.5605 187.248 49.5605C187.162 49.5605 187.053 49.5488 186.92 49.5254C186.787 49.502 186.693 49.4824 186.639 49.4668L186.633 48.5879C186.664 48.5918 186.713 48.5957 186.779 48.5996C186.85 48.6074 186.898 48.6113 186.926 48.6113C187.172 48.6113 187.381 48.5781 187.553 48.5117C187.725 48.4492 187.869 48.3418 187.986 48.1895C188.107 48.041 188.211 47.8359 188.297 47.5742L188.748 46.3438ZM187.453 40.6602L189.1 45.582L189.381 46.7246L188.602 47.123L186.27 40.6602H187.453ZM199.072 38.4219V47H197.988V39.7754L195.803 40.5723V39.5938L198.902 38.4219H199.072ZM203.631 42.9395L202.764 42.7168L203.191 38.4688H207.568V39.4707H204.111L203.854 41.791C204.01 41.7012 204.207 41.6172 204.445 41.5391C204.688 41.4609 204.965 41.4219 205.277 41.4219C205.672 41.4219 206.025 41.4902 206.338 41.627C206.65 41.7598 206.916 41.9512 207.135 42.2012C207.357 42.4512 207.527 42.752 207.645 43.1035C207.762 43.4551 207.82 43.8477 207.82 44.2812C207.82 44.6914 207.764 45.0684 207.65 45.4121C207.541 45.7559 207.375 46.0566 207.152 46.3145C206.93 46.5684 206.648 46.7656 206.309 46.9062C205.973 47.0469 205.576 47.1172 205.119 47.1172C204.775 47.1172 204.449 47.0703 204.141 46.9766C203.836 46.8789 203.562 46.7324 203.32 46.5371C203.082 46.3379 202.887 46.0918 202.734 45.7988C202.586 45.502 202.492 45.1543 202.453 44.7559H203.484C203.531 45.0762 203.625 45.3457 203.766 45.5645C203.906 45.7832 204.09 45.9492 204.316 46.0625C204.547 46.1719 204.814 46.2266 205.119 46.2266C205.377 46.2266 205.605 46.1816 205.805 46.0918C206.004 46.002 206.172 45.873 206.309 45.7051C206.445 45.5371 206.549 45.334 206.619 45.0957C206.693 44.8574 206.73 44.5898 206.73 44.293C206.73 44.0234 206.693 43.7734 206.619 43.543C206.545 43.3125 206.434 43.1113 206.285 42.9395C206.141 42.7676 205.963 42.6348 205.752 42.541C205.541 42.4434 205.299 42.3945 205.025 42.3945C204.662 42.3945 204.387 42.4434 204.199 42.541C204.016 42.6387 203.826 42.7715 203.631 42.9395ZM208.916 40.5605V40.1094C208.916 39.7852 208.986 39.4902 209.127 39.2246C209.268 38.959 209.469 38.7461 209.73 38.5859C209.992 38.4258 210.303 38.3457 210.662 38.3457C211.029 38.3457 211.342 38.4258 211.6 38.5859C211.861 38.7461 212.062 38.959 212.203 39.2246C212.344 39.4902 212.414 39.7852 212.414 40.1094V40.5605C212.414 40.877 212.344 41.168 212.203 41.4336C212.066 41.6992 211.867 41.9121 211.605 42.0723C211.348 42.2324 211.037 42.3125 210.674 42.3125C210.311 42.3125 209.996 42.2324 209.73 42.0723C209.469 41.9121 209.268 41.6992 209.127 41.4336C208.986 41.168 208.916 40.877 208.916 40.5605ZM209.73 40.1094V40.5605C209.73 40.7402 209.764 40.9102 209.83 41.0703C209.9 41.2305 210.006 41.3613 210.146 41.4629C210.287 41.5605 210.463 41.6094 210.674 41.6094C210.885 41.6094 211.059 41.5605 211.195 41.4629C211.332 41.3613 211.434 41.2305 211.5 41.0703C211.566 40.9102 211.6 40.7402 211.6 40.5605V40.1094C211.6 39.9258 211.564 39.7539 211.494 39.5938C211.428 39.4297 211.324 39.2988 211.184 39.2012C211.047 39.0996 210.873 39.0488 210.662 39.0488C210.455 39.0488 210.281 39.0996 210.141 39.2012C210.004 39.2988 209.9 39.4297 209.83 39.5938C209.764 39.7539 209.73 39.9258 209.73 40.1094ZM213.07 45.3652V44.9082C213.07 44.5879 213.141 44.2949 213.281 44.0293C213.422 43.7637 213.623 43.5508 213.885 43.3906C214.146 43.2305 214.457 43.1504 214.816 43.1504C215.184 43.1504 215.496 43.2305 215.754 43.3906C216.016 43.5508 216.217 43.7637 216.357 44.0293C216.498 44.2949 216.568 44.5879 216.568 44.9082V45.3652C216.568 45.6855 216.498 45.9785 216.357 46.2441C216.221 46.5098 216.021 46.7227 215.76 46.8828C215.502 47.043 215.191 47.123 214.828 47.123C214.465 47.123 214.152 47.043 213.891 46.8828C213.629 46.7227 213.426 46.5098 213.281 46.2441C213.141 45.9785 213.07 45.6855 213.07 45.3652ZM213.885 44.9082V45.3652C213.885 45.5449 213.918 45.7168 213.984 45.8809C214.055 46.041 214.16 46.1719 214.301 46.2734C214.441 46.3711 214.617 46.4199 214.828 46.4199C215.039 46.4199 215.213 46.3711 215.35 46.2734C215.49 46.1719 215.594 46.041 215.66 45.8809C215.727 45.7207 215.76 45.5488 215.76 45.3652V44.9082C215.76 44.7246 215.725 44.5527 215.654 44.3926C215.588 44.2324 215.484 44.1035 215.344 44.0059C215.207 43.9043 215.031 43.8535 214.816 43.8535C214.609 43.8535 214.436 43.9043 214.295 44.0059C214.158 44.1035 214.055 44.2324 213.984 44.3926C213.918 44.5527 213.885 44.7246 213.885 44.9082ZM215.086 39.6816L210.92 46.3496L210.311 45.9629L214.477 39.2949L215.086 39.6816ZM217.934 46.4258C217.934 46.2422 217.99 46.0879 218.104 45.9629C218.221 45.834 218.389 45.7695 218.607 45.7695C218.826 45.7695 218.992 45.834 219.105 45.9629C219.223 46.0879 219.281 46.2422 219.281 46.4258C219.281 46.6055 219.223 46.7578 219.105 46.8828C218.992 47.0078 218.826 47.0703 218.607 47.0703C218.389 47.0703 218.221 47.0078 218.104 46.8828C217.99 46.7578 217.934 46.6055 217.934 46.4258ZM225.434 38.4688V47H224.303V38.4688H225.434ZM228.943 47H227.859V39.9922C227.859 39.5352 227.941 39.1504 228.105 38.8379C228.273 38.5215 228.514 38.2832 228.826 38.123C229.139 37.959 229.51 37.877 229.939 37.877C230.064 37.877 230.189 37.8848 230.314 37.9004C230.443 37.916 230.568 37.9395 230.689 37.9707L230.631 38.8555C230.549 38.8359 230.455 38.8223 230.35 38.8145C230.248 38.8066 230.146 38.8027 230.045 38.8027C229.814 38.8027 229.615 38.8496 229.447 38.9434C229.283 39.0332 229.158 39.166 229.072 39.3418C228.986 39.5176 228.943 39.7344 228.943 39.9922V47ZM230.291 40.6602V41.4922H226.857V40.6602H230.291ZM236.256 46.3438L238.02 40.6602H239.18L236.637 47.9785C236.578 48.1348 236.5 48.3027 236.402 48.4824C236.309 48.666 236.188 48.8398 236.039 49.0039C235.891 49.168 235.711 49.3008 235.5 49.4023C235.293 49.5078 235.045 49.5605 234.756 49.5605C234.67 49.5605 234.561 49.5488 234.428 49.5254C234.295 49.502 234.201 49.4824 234.146 49.4668L234.141 48.5879C234.172 48.5918 234.221 48.5957 234.287 48.5996C234.357 48.6074 234.406 48.6113 234.434 48.6113C234.68 48.6113 234.889 48.5781 235.061 48.5117C235.232 48.4492 235.377 48.3418 235.494 48.1895C235.615 48.041 235.719 47.8359 235.805 47.5742L236.256 46.3438ZM234.961 40.6602L236.607 45.582L236.889 46.7246L236.109 47.123L233.777 40.6602H234.961ZM239.777 43.9004V43.7656C239.777 43.3086 239.844 42.8848 239.977 42.4941C240.109 42.0996 240.301 41.7578 240.551 41.4688C240.801 41.1758 241.104 40.9492 241.459 40.7891C241.814 40.625 242.213 40.543 242.654 40.543C243.1 40.543 243.5 40.625 243.855 40.7891C244.215 40.9492 244.52 41.1758 244.77 41.4688C245.023 41.7578 245.217 42.0996 245.35 42.4941C245.482 42.8848 245.549 43.3086 245.549 43.7656V43.9004C245.549 44.3574 245.482 44.7812 245.35 45.1719C245.217 45.5625 245.023 45.9043 244.77 46.1973C244.52 46.4863 244.217 46.7129 243.861 46.877C243.51 47.0371 243.111 47.1172 242.666 47.1172C242.221 47.1172 241.82 47.0371 241.465 46.877C241.109 46.7129 240.805 46.4863 240.551 46.1973C240.301 45.9043 240.109 45.5625 239.977 45.1719C239.844 44.7812 239.777 44.3574 239.777 43.9004ZM240.861 43.7656V43.9004C240.861 44.2168 240.898 44.5156 240.973 44.7969C241.047 45.0742 241.158 45.3203 241.307 45.5352C241.459 45.75 241.648 45.9199 241.875 46.0449C242.102 46.166 242.365 46.2266 242.666 46.2266C242.963 46.2266 243.223 46.166 243.445 46.0449C243.672 45.9199 243.859 45.75 244.008 45.5352C244.156 45.3203 244.268 45.0742 244.342 44.7969C244.42 44.5156 244.459 44.2168 244.459 43.9004V43.7656C244.459 43.4531 244.42 43.1582 244.342 42.8809C244.268 42.5996 244.154 42.3516 244.002 42.1367C243.854 41.918 243.666 41.7461 243.439 41.6211C243.217 41.4961 242.955 41.4336 242.654 41.4336C242.357 41.4336 242.096 41.4961 241.869 41.6211C241.646 41.7461 241.459 41.918 241.307 42.1367C241.158 42.3516 241.047 42.5996 240.973 42.8809C240.898 43.1582 240.861 43.4531 240.861 43.7656ZM250.787 45.5352V40.6602H251.877V47H250.84L250.787 45.5352ZM250.992 44.1992L251.443 44.1875C251.443 44.6094 251.398 45 251.309 45.3594C251.223 45.7148 251.082 46.0234 250.887 46.2852C250.691 46.5469 250.436 46.752 250.119 46.9004C249.803 47.0449 249.418 47.1172 248.965 47.1172C248.656 47.1172 248.373 47.0723 248.115 46.9824C247.861 46.8926 247.643 46.7539 247.459 46.5664C247.275 46.3789 247.133 46.1348 247.031 45.834C246.934 45.5332 246.885 45.1719 246.885 44.75V40.6602H247.969V44.7617C247.969 45.0469 248 45.2832 248.062 45.4707C248.129 45.6543 248.217 45.8008 248.326 45.9102C248.439 46.0156 248.564 46.0898 248.701 46.1328C248.842 46.1758 248.986 46.1973 249.135 46.1973C249.596 46.1973 249.961 46.1094 250.23 45.9336C250.5 45.7539 250.693 45.5137 250.811 45.2129C250.932 44.9082 250.992 44.5703 250.992 44.1992ZM56.0039 52V61H54.9141V52H56.0039ZM57.457 57.9004V57.7656C57.457 57.3086 57.5234 56.8848 57.6562 56.4941C57.7891 56.0996 57.9805 55.7578 58.2305 55.4688C58.4805 55.1758 58.7832 54.9492 59.1387 54.7891C59.4941 54.625 59.8926 54.543 60.334 54.543C60.7793 54.543 61.1797 54.625 61.5352 54.7891C61.8945 54.9492 62.1992 55.1758 62.4492 55.4688C62.7031 55.7578 62.8965 56.0996 63.0293 56.4941C63.1621 56.8848 63.2285 57.3086 63.2285 57.7656V57.9004C63.2285 58.3574 63.1621 58.7812 63.0293 59.1719C62.8965 59.5625 62.7031 59.9043 62.4492 60.1973C62.1992 60.4863 61.8965 60.7129 61.541 60.877C61.1895 61.0371 60.791 61.1172 60.3457 61.1172C59.9004 61.1172 59.5 61.0371 59.1445 60.877C58.7891 60.7129 58.4844 60.4863 58.2305 60.1973C57.9805 59.9043 57.7891 59.5625 57.6562 59.1719C57.5234 58.7812 57.457 58.3574 57.457 57.9004ZM58.541 57.7656V57.9004C58.541 58.2168 58.5781 58.5156 58.6523 58.7969C58.7266 59.0742 58.8379 59.3203 58.9863 59.5352C59.1387 59.75 59.3281 59.9199 59.5547 60.0449C59.7812 60.166 60.0449 60.2266 60.3457 60.2266C60.6426 60.2266 60.9023 60.166 61.125 60.0449C61.3516 59.9199 61.5391 59.75 61.6875 59.5352C61.8359 59.3203 61.9473 59.0742 62.0215 58.7969C62.0996 58.5156 62.1387 58.2168 62.1387 57.9004V57.7656C62.1387 57.4531 62.0996 57.1582 62.0215 56.8809C61.9473 56.5996 61.834 56.3516 61.6816 56.1367C61.5332 55.918 61.3457 55.7461 61.1191 55.6211C60.8965 55.4961 60.6348 55.4336 60.334 55.4336C60.0371 55.4336 59.7754 55.4961 59.5488 55.6211C59.3262 55.7461 59.1387 55.918 58.9863 56.1367C58.8379 56.3516 58.7266 56.5996 58.6523 56.8809C58.5781 57.1582 58.541 57.4531 58.541 57.7656ZM68.2793 59.3184C68.2793 59.1621 68.2441 59.0176 68.1738 58.8848C68.1074 58.748 67.9688 58.625 67.7578 58.5156C67.5508 58.4023 67.2383 58.3047 66.8203 58.2227C66.4688 58.1484 66.1504 58.0605 65.8652 57.959C65.584 57.8574 65.3438 57.7344 65.1445 57.5898C64.9492 57.4453 64.7988 57.2754 64.6934 57.0801C64.5879 56.8848 64.5352 56.6562 64.5352 56.3945C64.5352 56.1445 64.5898 55.9082 64.6992 55.6855C64.8125 55.4629 64.9707 55.2656 65.1738 55.0938C65.3809 54.9219 65.6289 54.7871 65.918 54.6895C66.207 54.5918 66.5293 54.543 66.8848 54.543C67.3926 54.543 67.8262 54.6328 68.1855 54.8125C68.5449 54.9922 68.8203 55.2324 69.0117 55.5332C69.2031 55.8301 69.2988 56.1602 69.2988 56.5234H68.2148C68.2148 56.3477 68.1621 56.1777 68.0566 56.0137C67.9551 55.8457 67.8047 55.707 67.6055 55.5977C67.4102 55.4883 67.1699 55.4336 66.8848 55.4336C66.584 55.4336 66.3398 55.4805 66.1523 55.5742C65.9688 55.6641 65.834 55.7793 65.748 55.9199C65.666 56.0605 65.625 56.209 65.625 56.3652C65.625 56.4824 65.6445 56.5879 65.6836 56.6816C65.7266 56.7715 65.8008 56.8555 65.9062 56.9336C66.0117 57.0078 66.1602 57.0781 66.3516 57.1445C66.543 57.2109 66.7871 57.2773 67.084 57.3438C67.6035 57.4609 68.0312 57.6016 68.3672 57.7656C68.7031 57.9297 68.9531 58.1309 69.1172 58.3691C69.2812 58.6074 69.3633 58.8965 69.3633 59.2363C69.3633 59.5137 69.3047 59.7676 69.1875 59.998C69.0742 60.2285 68.9082 60.4277 68.6895 60.5957C68.4746 60.7598 68.2168 60.8887 67.916 60.9824C67.6191 61.0723 67.2852 61.1172 66.9141 61.1172C66.3555 61.1172 65.8828 61.0176 65.4961 60.8184C65.1094 60.6191 64.8164 60.3613 64.6172 60.0449C64.418 59.7285 64.3184 59.3945 64.3184 59.043H65.4082C65.4238 59.3398 65.5098 59.5762 65.666 59.752C65.8223 59.9238 66.0137 60.0469 66.2402 60.1211C66.4668 60.1914 66.6914 60.2266 66.9141 60.2266C67.2109 60.2266 67.459 60.1875 67.6582 60.1094C67.8613 60.0312 68.0156 59.9238 68.1211 59.7871C68.2266 59.6504 68.2793 59.4941 68.2793 59.3184ZM73.418 61.1172C72.9766 61.1172 72.5762 61.043 72.2168 60.8945C71.8613 60.7422 71.5547 60.5293 71.2969 60.2559C71.043 59.9824 70.8477 59.6582 70.7109 59.2832C70.5742 58.9082 70.5059 58.498 70.5059 58.0527V57.8066C70.5059 57.291 70.582 56.832 70.7344 56.4297C70.8867 56.0234 71.0938 55.6797 71.3555 55.3984C71.6172 55.1172 71.9141 54.9043 72.2461 54.7598C72.5781 54.6152 72.9219 54.543 73.2773 54.543C73.7305 54.543 74.1211 54.6211 74.4492 54.7773C74.7812 54.9336 75.0527 55.1523 75.2637 55.4336C75.4746 55.7109 75.6309 56.0391 75.7324 56.418C75.834 56.793 75.8848 57.2031 75.8848 57.6484V58.1348H71.1504V57.25H74.8008V57.168C74.7852 56.8867 74.7266 56.6133 74.625 56.3477C74.5273 56.082 74.3711 55.8633 74.1562 55.6914C73.9414 55.5195 73.6484 55.4336 73.2773 55.4336C73.0312 55.4336 72.8047 55.4863 72.5977 55.5918C72.3906 55.6934 72.2129 55.8457 72.0645 56.0488C71.916 56.252 71.8008 56.5 71.7188 56.793C71.6367 57.0859 71.5957 57.4238 71.5957 57.8066V58.0527C71.5957 58.3535 71.6367 58.6367 71.7188 58.9023C71.8047 59.1641 71.9277 59.3945 72.0879 59.5938C72.252 59.793 72.4492 59.9492 72.6797 60.0625C72.9141 60.1758 73.1797 60.2324 73.4766 60.2324C73.8594 60.2324 74.1836 60.1543 74.4492 59.998C74.7148 59.8418 74.9473 59.6328 75.1465 59.3711L75.8027 59.8926C75.666 60.0996 75.4922 60.2969 75.2812 60.4844C75.0703 60.6719 74.8105 60.8242 74.502 60.9414C74.1973 61.0586 73.8359 61.1172 73.418 61.1172ZM82.7812 54.6602V55.4922H79.3535V54.6602H82.7812ZM80.5137 53.1191H81.5977V59.4297C81.5977 59.6445 81.6309 59.8066 81.6973 59.916C81.7637 60.0254 81.8496 60.0977 81.9551 60.1328C82.0605 60.168 82.1738 60.1855 82.2949 60.1855C82.3848 60.1855 82.4785 60.1777 82.5762 60.1621C82.6777 60.1426 82.7539 60.127 82.8047 60.1152L82.8105 61C82.7246 61.0273 82.6113 61.0527 82.4707 61.0762C82.334 61.1035 82.168 61.1172 81.9727 61.1172C81.707 61.1172 81.4629 61.0645 81.2402 60.959C81.0176 60.8535 80.8398 60.6777 80.707 60.4316C80.5781 60.1816 80.5137 59.8457 80.5137 59.4238V53.1191ZM85.1367 52V61H84.0527V52H85.1367ZM84.8789 57.5898L84.4277 57.5723C84.4316 57.1387 84.4961 56.7383 84.6211 56.3711C84.7461 56 84.9219 55.6777 85.1484 55.4043C85.375 55.1309 85.6445 54.9199 85.957 54.7715C86.2734 54.6191 86.623 54.543 87.0059 54.543C87.3184 54.543 87.5996 54.5859 87.8496 54.6719C88.0996 54.7539 88.3125 54.8867 88.4883 55.0703C88.668 55.2539 88.8047 55.4922 88.8984 55.7852C88.9922 56.0742 89.0391 56.4277 89.0391 56.8457V61H87.9492V56.834C87.9492 56.502 87.9004 56.2363 87.8027 56.0371C87.7051 55.834 87.5625 55.6875 87.375 55.5977C87.1875 55.5039 86.957 55.457 86.6836 55.457C86.4141 55.457 86.168 55.5137 85.9453 55.627C85.7266 55.7402 85.5371 55.8965 85.377 56.0957C85.2207 56.2949 85.0977 56.5234 85.0078 56.7812C84.9219 57.0352 84.8789 57.3047 84.8789 57.5898ZM93.293 61.1172C92.8516 61.1172 92.4512 61.043 92.0918 60.8945C91.7363 60.7422 91.4297 60.5293 91.1719 60.2559C90.918 59.9824 90.7227 59.6582 90.5859 59.2832C90.4492 58.9082 90.3809 58.498 90.3809 58.0527V57.8066C90.3809 57.291 90.457 56.832 90.6094 56.4297C90.7617 56.0234 90.9688 55.6797 91.2305 55.3984C91.4922 55.1172 91.7891 54.9043 92.1211 54.7598C92.4531 54.6152 92.7969 54.543 93.1523 54.543C93.6055 54.543 93.9961 54.6211 94.3242 54.7773C94.6562 54.9336 94.9277 55.1523 95.1387 55.4336C95.3496 55.7109 95.5059 56.0391 95.6074 56.418C95.709 56.793 95.7598 57.2031 95.7598 57.6484V58.1348H91.0254V57.25H94.6758V57.168C94.6602 56.8867 94.6016 56.6133 94.5 56.3477C94.4023 56.082 94.2461 55.8633 94.0312 55.6914C93.8164 55.5195 93.5234 55.4336 93.1523 55.4336C92.9062 55.4336 92.6797 55.4863 92.4727 55.5918C92.2656 55.6934 92.0879 55.8457 91.9395 56.0488C91.791 56.252 91.6758 56.5 91.5938 56.793C91.5117 57.0859 91.4707 57.4238 91.4707 57.8066V58.0527C91.4707 58.3535 91.5117 58.6367 91.5938 58.9023C91.6797 59.1641 91.8027 59.3945 91.9629 59.5938C92.127 59.793 92.3242 59.9492 92.5547 60.0625C92.7891 60.1758 93.0547 60.2324 93.3516 60.2324C93.7344 60.2324 94.0586 60.1543 94.3242 59.998C94.5898 59.8418 94.8223 59.6328 95.0215 59.3711L95.6777 59.8926C95.541 60.0996 95.3672 60.2969 95.1562 60.4844C94.9453 60.6719 94.6855 60.8242 94.377 60.9414C94.0723 61.0586 93.7109 61.1172 93.293 61.1172ZM103.74 59.916V56.6523C103.74 56.4023 103.689 56.1855 103.588 56.002C103.49 55.8145 103.342 55.6699 103.143 55.5684C102.943 55.4668 102.697 55.416 102.404 55.416C102.131 55.416 101.891 55.4629 101.684 55.5566C101.48 55.6504 101.32 55.7734 101.203 55.9258C101.09 56.0781 101.033 56.2422 101.033 56.418H99.9492C99.9492 56.1914 100.008 55.9668 100.125 55.7441C100.242 55.5215 100.41 55.3203 100.629 55.1406C100.852 54.957 101.117 54.8125 101.426 54.707C101.738 54.5977 102.086 54.543 102.469 54.543C102.93 54.543 103.336 54.6211 103.688 54.7773C104.043 54.9336 104.32 55.1699 104.52 55.4863C104.723 55.7988 104.824 56.1914 104.824 56.6641V59.6172C104.824 59.8281 104.842 60.0527 104.877 60.291C104.916 60.5293 104.973 60.7344 105.047 60.9062V61H103.916C103.861 60.875 103.818 60.709 103.787 60.502C103.756 60.291 103.74 60.0957 103.74 59.916ZM103.928 57.1562L103.939 57.918H102.844C102.535 57.918 102.26 57.9434 102.018 57.9941C101.775 58.041 101.572 58.1133 101.408 58.2109C101.244 58.3086 101.119 58.4316 101.033 58.5801C100.947 58.7246 100.904 58.8945 100.904 59.0898C100.904 59.2891 100.949 59.4707 101.039 59.6348C101.129 59.7988 101.264 59.9297 101.443 60.0273C101.627 60.1211 101.852 60.168 102.117 60.168C102.449 60.168 102.742 60.0977 102.996 59.957C103.25 59.8164 103.451 59.6445 103.6 59.4414C103.752 59.2383 103.834 59.041 103.846 58.8496L104.309 59.3711C104.281 59.5352 104.207 59.7168 104.086 59.916C103.965 60.1152 103.803 60.3066 103.6 60.4902C103.4 60.6699 103.162 60.8203 102.885 60.9414C102.611 61.0586 102.303 61.1172 101.959 61.1172C101.529 61.1172 101.152 61.0332 100.828 60.8652C100.508 60.6973 100.258 60.4727 100.078 60.1914C99.9023 59.9062 99.8145 59.5879 99.8145 59.2363C99.8145 58.8965 99.8809 58.5977 100.014 58.3398C100.146 58.0781 100.338 57.8613 100.588 57.6895C100.838 57.5137 101.139 57.3809 101.49 57.291C101.842 57.2012 102.234 57.1562 102.668 57.1562H103.928ZM110.408 59.5352V54.6602H111.498V61H110.461L110.408 59.5352ZM110.613 58.1992L111.064 58.1875C111.064 58.6094 111.02 59 110.93 59.3594C110.844 59.7148 110.703 60.0234 110.508 60.2852C110.312 60.5469 110.057 60.752 109.74 60.9004C109.424 61.0449 109.039 61.1172 108.586 61.1172C108.277 61.1172 107.994 61.0723 107.736 60.9824C107.482 60.8926 107.264 60.7539 107.08 60.5664C106.896 60.3789 106.754 60.1348 106.652 59.834C106.555 59.5332 106.506 59.1719 106.506 58.75V54.6602H107.59V58.7617C107.59 59.0469 107.621 59.2832 107.684 59.4707C107.75 59.6543 107.838 59.8008 107.947 59.9102C108.061 60.0156 108.186 60.0898 108.322 60.1328C108.463 60.1758 108.607 60.1973 108.756 60.1973C109.217 60.1973 109.582 60.1094 109.852 59.9336C110.121 59.7539 110.314 59.5137 110.432 59.2129C110.553 58.9082 110.613 58.5703 110.613 58.1992ZM115.688 60.2266C115.945 60.2266 116.184 60.1738 116.402 60.0684C116.621 59.9629 116.801 59.8184 116.941 59.6348C117.082 59.4473 117.162 59.2344 117.182 58.9961H118.213C118.193 59.3711 118.066 59.7207 117.832 60.0449C117.602 60.3652 117.299 60.625 116.924 60.8242C116.549 61.0195 116.137 61.1172 115.688 61.1172C115.211 61.1172 114.795 61.0332 114.439 60.8652C114.088 60.6973 113.795 60.4668 113.561 60.1738C113.33 59.8809 113.156 59.5449 113.039 59.166C112.926 58.7832 112.869 58.3789 112.869 57.9531V57.707C112.869 57.2812 112.926 56.8789 113.039 56.5C113.156 56.1172 113.33 55.7793 113.561 55.4863C113.795 55.1934 114.088 54.9629 114.439 54.7949C114.795 54.627 115.211 54.543 115.688 54.543C116.184 54.543 116.617 54.6445 116.988 54.8477C117.359 55.0469 117.65 55.3203 117.861 55.668C118.076 56.0117 118.193 56.4023 118.213 56.8398H117.182C117.162 56.5781 117.088 56.3418 116.959 56.1309C116.834 55.9199 116.662 55.752 116.443 55.627C116.229 55.498 115.977 55.4336 115.688 55.4336C115.355 55.4336 115.076 55.5 114.85 55.6328C114.627 55.7617 114.449 55.9375 114.316 56.1602C114.188 56.3789 114.094 56.623 114.035 56.8926C113.98 57.1582 113.953 57.4297 113.953 57.707V57.9531C113.953 58.2305 113.98 58.5039 114.035 58.7734C114.09 59.043 114.182 59.2871 114.311 59.5059C114.443 59.7246 114.621 59.9004 114.844 60.0332C115.07 60.1621 115.352 60.2266 115.688 60.2266ZM122.086 54.6602V55.4922H118.658V54.6602H122.086ZM119.818 53.1191H120.902V59.4297C120.902 59.6445 120.936 59.8066 121.002 59.916C121.068 60.0254 121.154 60.0977 121.26 60.1328C121.365 60.168 121.479 60.1855 121.6 60.1855C121.689 60.1855 121.783 60.1777 121.881 60.1621C121.982 60.1426 122.059 60.127 122.109 60.1152L122.115 61C122.029 61.0273 121.916 61.0527 121.775 61.0762C121.639 61.1035 121.473 61.1172 121.277 61.1172C121.012 61.1172 120.768 61.0645 120.545 60.959C120.322 60.8535 120.145 60.6777 120.012 60.4316C119.883 60.1816 119.818 59.8457 119.818 59.4238V53.1191ZM124.535 54.6602V61H123.445V54.6602H124.535ZM123.363 52.9785C123.363 52.8027 123.416 52.6543 123.521 52.5332C123.631 52.4121 123.791 52.3516 124.002 52.3516C124.209 52.3516 124.367 52.4121 124.477 52.5332C124.59 52.6543 124.646 52.8027 124.646 52.9785C124.646 53.1465 124.59 53.291 124.477 53.4121C124.367 53.5293 124.209 53.5879 124.002 53.5879C123.791 53.5879 123.631 53.5293 123.521 53.4121C123.416 53.291 123.363 53.1465 123.363 52.9785ZM125.988 57.9004V57.7656C125.988 57.3086 126.055 56.8848 126.188 56.4941C126.32 56.0996 126.512 55.7578 126.762 55.4688C127.012 55.1758 127.314 54.9492 127.67 54.7891C128.025 54.625 128.424 54.543 128.865 54.543C129.311 54.543 129.711 54.625 130.066 54.7891C130.426 54.9492 130.73 55.1758 130.98 55.4688C131.234 55.7578 131.428 56.0996 131.561 56.4941C131.693 56.8848 131.76 57.3086 131.76 57.7656V57.9004C131.76 58.3574 131.693 58.7812 131.561 59.1719C131.428 59.5625 131.234 59.9043 130.98 60.1973C130.73 60.4863 130.428 60.7129 130.072 60.877C129.721 61.0371 129.322 61.1172 128.877 61.1172C128.432 61.1172 128.031 61.0371 127.676 60.877C127.32 60.7129 127.016 60.4863 126.762 60.1973C126.512 59.9043 126.32 59.5625 126.188 59.1719C126.055 58.7812 125.988 58.3574 125.988 57.9004ZM127.072 57.7656V57.9004C127.072 58.2168 127.109 58.5156 127.184 58.7969C127.258 59.0742 127.369 59.3203 127.518 59.5352C127.67 59.75 127.859 59.9199 128.086 60.0449C128.312 60.166 128.576 60.2266 128.877 60.2266C129.174 60.2266 129.434 60.166 129.656 60.0449C129.883 59.9199 130.07 59.75 130.219 59.5352C130.367 59.3203 130.479 59.0742 130.553 58.7969C130.631 58.5156 130.67 58.2168 130.67 57.9004V57.7656C130.67 57.4531 130.631 57.1582 130.553 56.8809C130.479 56.5996 130.365 56.3516 130.213 56.1367C130.064 55.918 129.877 55.7461 129.65 55.6211C129.428 55.4961 129.166 55.4336 128.865 55.4336C128.568 55.4336 128.307 55.4961 128.08 55.6211C127.857 55.7461 127.67 55.918 127.518 56.1367C127.369 56.3516 127.258 56.5996 127.184 56.8809C127.109 57.1582 127.072 57.4531 127.072 57.7656ZM134.203 56.0137V61H133.119V54.6602H134.145L134.203 56.0137ZM133.945 57.5898L133.494 57.5723C133.498 57.1387 133.562 56.7383 133.688 56.3711C133.812 56 133.988 55.6777 134.215 55.4043C134.441 55.1309 134.711 54.9199 135.023 54.7715C135.34 54.6191 135.689 54.543 136.072 54.543C136.385 54.543 136.666 54.5859 136.916 54.6719C137.166 54.7539 137.379 54.8867 137.555 55.0703C137.734 55.2539 137.871 55.4922 137.965 55.7852C138.059 56.0742 138.105 56.4277 138.105 56.8457V61H137.016V56.834C137.016 56.502 136.967 56.2363 136.869 56.0371C136.771 55.834 136.629 55.6875 136.441 55.5977C136.254 55.5039 136.023 55.457 135.75 55.457C135.48 55.457 135.234 55.5137 135.012 55.627C134.793 55.7402 134.604 55.8965 134.443 56.0957C134.287 56.2949 134.164 56.5234 134.074 56.7812C133.988 57.0352 133.945 57.3047 133.945 57.5898ZM140.736 59.7109V60.584C140.736 60.9395 140.646 61.3145 140.467 61.709C140.287 62.1074 140.035 62.4395 139.711 62.7051L139.096 62.2773C139.221 62.1055 139.326 61.9297 139.412 61.75C139.498 61.5742 139.562 61.3906 139.605 61.1992C139.652 61.0117 139.676 60.8125 139.676 60.6016V59.7109H140.736ZM149.203 54.6602H150.188V60.8652C150.188 61.4238 150.074 61.9004 149.848 62.2949C149.621 62.6895 149.305 62.9883 148.898 63.1914C148.496 63.3984 148.031 63.502 147.504 63.502C147.285 63.502 147.027 63.4668 146.73 63.3965C146.438 63.3301 146.148 63.2148 145.863 63.0508C145.582 62.8906 145.346 62.6738 145.154 62.4004L145.723 61.7559C145.988 62.0762 146.266 62.2988 146.555 62.4238C146.848 62.5488 147.137 62.6113 147.422 62.6113C147.766 62.6113 148.062 62.5469 148.312 62.418C148.562 62.2891 148.756 62.0977 148.893 61.8438C149.033 61.5938 149.104 61.2852 149.104 60.918V56.0547L149.203 54.6602ZM144.838 57.9004V57.7773C144.838 57.293 144.895 56.8535 145.008 56.459C145.125 56.0605 145.291 55.7188 145.506 55.4336C145.725 55.1484 145.988 54.9297 146.297 54.7773C146.605 54.6211 146.953 54.543 147.34 54.543C147.738 54.543 148.086 54.6133 148.383 54.7539C148.684 54.8906 148.938 55.0918 149.145 55.3574C149.355 55.6191 149.521 55.9355 149.643 56.3066C149.764 56.6777 149.848 57.0977 149.895 57.5664V58.1055C149.852 58.5703 149.768 58.9883 149.643 59.3594C149.521 59.7305 149.355 60.0469 149.145 60.3086C148.938 60.5703 148.684 60.7715 148.383 60.9121C148.082 61.0488 147.73 61.1172 147.328 61.1172C146.949 61.1172 146.605 61.0371 146.297 60.877C145.992 60.7168 145.73 60.4922 145.512 60.2031C145.293 59.9141 145.125 59.5742 145.008 59.1836C144.895 58.7891 144.838 58.3613 144.838 57.9004ZM145.922 57.7773V57.9004C145.922 58.2168 145.953 58.5137 146.016 58.791C146.082 59.0684 146.182 59.3125 146.314 59.5234C146.451 59.7344 146.625 59.9004 146.836 60.0215C147.047 60.1387 147.299 60.1973 147.592 60.1973C147.951 60.1973 148.248 60.1211 148.482 59.9688C148.717 59.8164 148.902 59.6152 149.039 59.3652C149.18 59.1152 149.289 58.8438 149.367 58.5508V57.1387C149.324 56.9238 149.258 56.7168 149.168 56.5176C149.082 56.3145 148.969 56.1348 148.828 55.9785C148.691 55.8184 148.521 55.6914 148.318 55.5977C148.115 55.5039 147.877 55.457 147.604 55.457C147.307 55.457 147.051 55.5195 146.836 55.6445C146.625 55.7656 146.451 55.9336 146.314 56.1484C146.182 56.3594 146.082 56.6055 146.016 56.8867C145.953 57.1641 145.922 57.4609 145.922 57.7773ZM154.465 61.1172C154.023 61.1172 153.623 61.043 153.264 60.8945C152.908 60.7422 152.602 60.5293 152.344 60.2559C152.09 59.9824 151.895 59.6582 151.758 59.2832C151.621 58.9082 151.553 58.498 151.553 58.0527V57.8066C151.553 57.291 151.629 56.832 151.781 56.4297C151.934 56.0234 152.141 55.6797 152.402 55.3984C152.664 55.1172 152.961 54.9043 153.293 54.7598C153.625 54.6152 153.969 54.543 154.324 54.543C154.777 54.543 155.168 54.6211 155.496 54.7773C155.828 54.9336 156.1 55.1523 156.311 55.4336C156.521 55.7109 156.678 56.0391 156.779 56.418C156.881 56.793 156.932 57.2031 156.932 57.6484V58.1348H152.197V57.25H155.848V57.168C155.832 56.8867 155.773 56.6133 155.672 56.3477C155.574 56.082 155.418 55.8633 155.203 55.6914C154.988 55.5195 154.695 55.4336 154.324 55.4336C154.078 55.4336 153.852 55.4863 153.645 55.5918C153.438 55.6934 153.26 55.8457 153.111 56.0488C152.963 56.252 152.848 56.5 152.766 56.793C152.684 57.0859 152.643 57.4238 152.643 57.8066V58.0527C152.643 58.3535 152.684 58.6367 152.766 58.9023C152.852 59.1641 152.975 59.3945 153.135 59.5938C153.299 59.793 153.496 59.9492 153.727 60.0625C153.961 60.1758 154.227 60.2324 154.523 60.2324C154.906 60.2324 155.23 60.1543 155.496 59.998C155.762 59.8418 155.994 59.6328 156.193 59.3711L156.85 59.8926C156.713 60.0996 156.539 60.2969 156.328 60.4844C156.117 60.6719 155.857 60.8242 155.549 60.9414C155.244 61.0586 154.883 61.1172 154.465 61.1172ZM160.852 54.6602V55.4922H157.424V54.6602H160.852ZM158.584 53.1191H159.668V59.4297C159.668 59.6445 159.701 59.8066 159.768 59.916C159.834 60.0254 159.92 60.0977 160.025 60.1328C160.131 60.168 160.244 60.1855 160.365 60.1855C160.455 60.1855 160.549 60.1777 160.646 60.1621C160.748 60.1426 160.824 60.127 160.875 60.1152L160.881 61C160.795 61.0273 160.682 61.0527 160.541 61.0762C160.404 61.1035 160.238 61.1172 160.043 61.1172C159.777 61.1172 159.533 61.0645 159.311 60.959C159.088 60.8535 158.91 60.6777 158.777 60.4316C158.648 60.1816 158.584 59.8457 158.584 59.4238V53.1191ZM167.754 54.6602V55.4922H164.326V54.6602H167.754ZM165.486 53.1191H166.57V59.4297C166.57 59.6445 166.604 59.8066 166.67 59.916C166.736 60.0254 166.822 60.0977 166.928 60.1328C167.033 60.168 167.146 60.1855 167.268 60.1855C167.357 60.1855 167.451 60.1777 167.549 60.1621C167.65 60.1426 167.727 60.127 167.777 60.1152L167.783 61C167.697 61.0273 167.584 61.0527 167.443 61.0762C167.307 61.1035 167.141 61.1172 166.945 61.1172C166.68 61.1172 166.436 61.0645 166.213 60.959C165.99 60.8535 165.812 60.6777 165.68 60.4316C165.551 60.1816 165.486 59.8457 165.486 59.4238V53.1191ZM170.109 52V61H169.025V52H170.109ZM169.852 57.5898L169.4 57.5723C169.404 57.1387 169.469 56.7383 169.594 56.3711C169.719 56 169.895 55.6777 170.121 55.4043C170.348 55.1309 170.617 54.9199 170.93 54.7715C171.246 54.6191 171.596 54.543 171.979 54.543C172.291 54.543 172.572 54.5859 172.822 54.6719C173.072 54.7539 173.285 54.8867 173.461 55.0703C173.641 55.2539 173.777 55.4922 173.871 55.7852C173.965 56.0742 174.012 56.4277 174.012 56.8457V61H172.922V56.834C172.922 56.502 172.873 56.2363 172.775 56.0371C172.678 55.834 172.535 55.6875 172.348 55.5977C172.16 55.5039 171.93 55.457 171.656 55.457C171.387 55.457 171.141 55.5137 170.918 55.627C170.699 55.7402 170.51 55.8965 170.35 56.0957C170.193 56.2949 170.07 56.5234 169.98 56.7812C169.895 57.0352 169.852 57.3047 169.852 57.5898ZM178.266 61.1172C177.824 61.1172 177.424 61.043 177.064 60.8945C176.709 60.7422 176.402 60.5293 176.145 60.2559C175.891 59.9824 175.695 59.6582 175.559 59.2832C175.422 58.9082 175.354 58.498 175.354 58.0527V57.8066C175.354 57.291 175.43 56.832 175.582 56.4297C175.734 56.0234 175.941 55.6797 176.203 55.3984C176.465 55.1172 176.762 54.9043 177.094 54.7598C177.426 54.6152 177.77 54.543 178.125 54.543C178.578 54.543 178.969 54.6211 179.297 54.7773C179.629 54.9336 179.9 55.1523 180.111 55.4336C180.322 55.7109 180.479 56.0391 180.58 56.418C180.682 56.793 180.732 57.2031 180.732 57.6484V58.1348H175.998V57.25H179.648V57.168C179.633 56.8867 179.574 56.6133 179.473 56.3477C179.375 56.082 179.219 55.8633 179.004 55.6914C178.789 55.5195 178.496 55.4336 178.125 55.4336C177.879 55.4336 177.652 55.4863 177.445 55.5918C177.238 55.6934 177.061 55.8457 176.912 56.0488C176.764 56.252 176.648 56.5 176.566 56.793C176.484 57.0859 176.443 57.4238 176.443 57.8066V58.0527C176.443 58.3535 176.484 58.6367 176.566 58.9023C176.652 59.1641 176.775 59.3945 176.936 59.5938C177.1 59.793 177.297 59.9492 177.527 60.0625C177.762 60.1758 178.027 60.2324 178.324 60.2324C178.707 60.2324 179.031 60.1543 179.297 59.998C179.562 59.8418 179.795 59.6328 179.994 59.3711L180.65 59.8926C180.514 60.0996 180.34 60.2969 180.129 60.4844C179.918 60.6719 179.658 60.8242 179.35 60.9414C179.045 61.0586 178.684 61.1172 178.266 61.1172ZM190.559 60.0801V61H186.041V60.0801H190.559ZM186.27 52.4688V61H185.139V52.4688H186.27ZM189.961 56.1367V57.0566H186.041V56.1367H189.961ZM190.5 52.4688V53.3945H186.041V52.4688H190.5ZM192.316 52.4688H193.412L196.207 59.4238L198.996 52.4688H200.098L196.629 61H195.773L192.316 52.4688ZM191.959 52.4688H192.926L193.084 57.6719V61H191.959V52.4688ZM199.482 52.4688H200.449V61H199.324V57.6719L199.482 52.4688ZM204.744 61H202.963L202.975 60.0801H204.744C205.354 60.0801 205.861 59.9531 206.268 59.6992C206.674 59.4414 206.979 59.082 207.182 58.6211C207.389 58.1562 207.492 57.6133 207.492 56.9922V56.4707C207.492 55.9824 207.434 55.5488 207.316 55.1699C207.199 54.7871 207.027 54.4648 206.801 54.2031C206.574 53.9375 206.297 53.7363 205.969 53.5996C205.645 53.4629 205.271 53.3945 204.85 53.3945H202.928V52.4688H204.85C205.408 52.4688 205.918 52.5625 206.379 52.75C206.84 52.9336 207.236 53.2012 207.568 53.5527C207.904 53.9004 208.162 54.3223 208.342 54.8184C208.521 55.3105 208.611 55.8652 208.611 56.4824V56.9922C208.611 57.6094 208.521 58.166 208.342 58.6621C208.162 59.1543 207.902 59.5742 207.562 59.9219C207.227 60.2695 206.82 60.5371 206.344 60.7246C205.871 60.9082 205.338 61 204.744 61ZM203.566 52.4688V61H202.436V52.4688H203.566ZM214.207 55.6562V61H213.123V54.6602H214.178L214.207 55.6562ZM216.188 54.625L216.182 55.6328C216.092 55.6133 216.006 55.6016 215.924 55.5977C215.846 55.5898 215.756 55.5859 215.654 55.5859C215.404 55.5859 215.184 55.625 214.992 55.7031C214.801 55.7812 214.639 55.8906 214.506 56.0312C214.373 56.1719 214.268 56.3398 214.189 56.5352C214.115 56.7266 214.066 56.9375 214.043 57.168L213.738 57.3438C213.738 56.9609 213.775 56.6016 213.85 56.2656C213.928 55.9297 214.047 55.6328 214.207 55.375C214.367 55.1133 214.57 54.9102 214.816 54.7656C215.066 54.6172 215.363 54.543 215.707 54.543C215.785 54.543 215.875 54.5527 215.977 54.5723C216.078 54.5879 216.148 54.6055 216.188 54.625ZM219.703 61.1172C219.262 61.1172 218.861 61.043 218.502 60.8945C218.146 60.7422 217.84 60.5293 217.582 60.2559C217.328 59.9824 217.133 59.6582 216.996 59.2832C216.859 58.9082 216.791 58.498 216.791 58.0527V57.8066C216.791 57.291 216.867 56.832 217.02 56.4297C217.172 56.0234 217.379 55.6797 217.641 55.3984C217.902 55.1172 218.199 54.9043 218.531 54.7598C218.863 54.6152 219.207 54.543 219.562 54.543C220.016 54.543 220.406 54.6211 220.734 54.7773C221.066 54.9336 221.338 55.1523 221.549 55.4336C221.76 55.7109 221.916 56.0391 222.018 56.418C222.119 56.793 222.17 57.2031 222.17 57.6484V58.1348H217.436V57.25H221.086V57.168C221.07 56.8867 221.012 56.6133 220.91 56.3477C220.812 56.082 220.656 55.8633 220.441 55.6914C220.227 55.5195 219.934 55.4336 219.562 55.4336C219.316 55.4336 219.09 55.4863 218.883 55.5918C218.676 55.6934 218.498 55.8457 218.35 56.0488C218.201 56.252 218.086 56.5 218.004 56.793C217.922 57.0859 217.881 57.4238 217.881 57.8066V58.0527C217.881 58.3535 217.922 58.6367 218.004 58.9023C218.09 59.1641 218.213 59.3945 218.373 59.5938C218.537 59.793 218.734 59.9492 218.965 60.0625C219.199 60.1758 219.465 60.2324 219.762 60.2324C220.145 60.2324 220.469 60.1543 220.734 59.998C221 59.8418 221.232 59.6328 221.432 59.3711L222.088 59.8926C221.951 60.0996 221.777 60.2969 221.566 60.4844C221.355 60.6719 221.096 60.8242 220.787 60.9414C220.482 61.0586 220.121 61.1172 219.703 61.1172ZM225.053 61H223.969V53.9922C223.969 53.5352 224.051 53.1504 224.215 52.8379C224.383 52.5215 224.623 52.2832 224.936 52.123C225.248 51.959 225.619 51.877 226.049 51.877C226.174 51.877 226.299 51.8848 226.424 51.9004C226.553 51.916 226.678 51.9395 226.799 51.9707L226.74 52.8555C226.658 52.8359 226.564 52.8223 226.459 52.8145C226.357 52.8066 226.256 52.8027 226.154 52.8027C225.924 52.8027 225.725 52.8496 225.557 52.9434C225.393 53.0332 225.268 53.166 225.182 53.3418C225.096 53.5176 225.053 53.7344 225.053 53.9922V61ZM226.4 54.6602V55.4922H222.967V54.6602H226.4ZM231.486 59.5352V54.6602H232.576V61H231.539L231.486 59.5352ZM231.691 58.1992L232.143 58.1875C232.143 58.6094 232.098 59 232.008 59.3594C231.922 59.7148 231.781 60.0234 231.586 60.2852C231.391 60.5469 231.135 60.752 230.818 60.9004C230.502 61.0449 230.117 61.1172 229.664 61.1172C229.355 61.1172 229.072 61.0723 228.814 60.9824C228.561 60.8926 228.342 60.7539 228.158 60.5664C227.975 60.3789 227.832 60.1348 227.73 59.834C227.633 59.5332 227.584 59.1719 227.584 58.75V54.6602H228.668V58.7617C228.668 59.0469 228.699 59.2832 228.762 59.4707C228.828 59.6543 228.916 59.8008 229.025 59.9102C229.139 60.0156 229.264 60.0898 229.4 60.1328C229.541 60.1758 229.686 60.1973 229.834 60.1973C230.295 60.1973 230.66 60.1094 230.93 59.9336C231.199 59.7539 231.393 59.5137 231.51 59.2129C231.631 58.9082 231.691 58.5703 231.691 58.1992ZM235.312 56.0137V61H234.229V54.6602H235.254L235.312 56.0137ZM235.055 57.5898L234.604 57.5723C234.607 57.1387 234.672 56.7383 234.797 56.3711C234.922 56 235.098 55.6777 235.324 55.4043C235.551 55.1309 235.82 54.9199 236.133 54.7715C236.449 54.6191 236.799 54.543 237.182 54.543C237.494 54.543 237.775 54.5859 238.025 54.6719C238.275 54.7539 238.488 54.8867 238.664 55.0703C238.844 55.2539 238.98 55.4922 239.074 55.7852C239.168 56.0742 239.215 56.4277 239.215 56.8457V61H238.125V56.834C238.125 56.502 238.076 56.2363 237.979 56.0371C237.881 55.834 237.738 55.6875 237.551 55.5977C237.363 55.5039 237.133 55.457 236.859 55.457C236.59 55.457 236.344 55.5137 236.121 55.627C235.902 55.7402 235.713 55.8965 235.553 56.0957C235.396 56.2949 235.273 56.5234 235.184 56.7812C235.098 57.0352 235.055 57.3047 235.055 57.5898ZM244.857 59.7695V52H245.947V61H244.951L244.857 59.7695ZM240.592 57.9004V57.7773C240.592 57.293 240.65 56.8535 240.768 56.459C240.889 56.0605 241.059 55.7188 241.277 55.4336C241.5 55.1484 241.764 54.9297 242.068 54.7773C242.377 54.6211 242.721 54.543 243.1 54.543C243.498 54.543 243.846 54.6133 244.143 54.7539C244.443 54.8906 244.697 55.0918 244.904 55.3574C245.115 55.6191 245.281 55.9355 245.402 56.3066C245.523 56.6777 245.607 57.0977 245.654 57.5664V58.1055C245.611 58.5703 245.527 58.9883 245.402 59.3594C245.281 59.7305 245.115 60.0469 244.904 60.3086C244.697 60.5703 244.443 60.7715 244.143 60.9121C243.842 61.0488 243.49 61.1172 243.088 61.1172C242.717 61.1172 242.377 61.0371 242.068 60.877C241.764 60.7168 241.5 60.4922 241.277 60.2031C241.059 59.9141 240.889 59.5742 240.768 59.1836C240.65 58.7891 240.592 58.3613 240.592 57.9004ZM241.682 57.7773V57.9004C241.682 58.2168 241.713 58.5137 241.775 58.791C241.842 59.0684 241.943 59.3125 242.08 59.5234C242.217 59.7344 242.391 59.9004 242.602 60.0215C242.812 60.1387 243.064 60.1973 243.357 60.1973C243.717 60.1973 244.012 60.1211 244.242 59.9688C244.477 59.8164 244.664 59.6152 244.805 59.3652C244.945 59.1152 245.055 58.8438 245.133 58.5508V57.1387C245.086 56.9238 245.018 56.7168 244.928 56.5176C244.842 56.3145 244.729 56.1348 244.588 55.9785C244.451 55.8184 244.281 55.6914 244.078 55.5977C243.879 55.5039 243.643 55.457 243.369 55.457C243.072 55.457 242.816 55.5195 242.602 55.6445C242.391 55.7656 242.217 55.9336 242.08 56.1484C241.943 56.3594 241.842 56.6055 241.775 56.8867C241.713 57.1641 241.682 57.4609 241.682 57.7773ZM247.652 60.4258C247.652 60.2422 247.709 60.0879 247.822 59.9629C247.939 59.834 248.107 59.7695 248.326 59.7695C248.545 59.7695 248.711 59.834 248.824 59.9629C248.941 60.0879 249 60.2422 249 60.4258C249 60.6055 248.941 60.7578 248.824 60.8828C248.711 61.0078 248.545 61.0703 248.326 61.0703C248.107 61.0703 247.939 61.0078 247.822 60.8828C247.709 60.7578 247.652 60.6055 247.652 60.4258Z" fill="#091E25"/>
<path d="M333.582 80.13C345.786 80.13 352.114 72.898 352.114 60.242V42.388C352.114 30.749 347.481 24.308 338.328 24.308C333.356 24.308 329.853 26.342 327.593 30.071H327.367L328.384 11.2H350.08V-0.100005H317.31L315.05 44.083H326.802V43.405C326.802 37.755 329.288 35.608 333.243 35.608C337.198 35.608 339.684 37.755 339.684 43.405V61.146C339.684 66.796 337.198 68.83 333.243 68.83C329.288 68.83 326.802 66.796 326.802 61.146V54.027H315.05V60.242C315.05 72.898 321.378 80.13 333.582 80.13Z" fill="white"/>
</g>
<defs>
<clipPath id="clip0_0_1">
<rect width="375" height="919" fill="white" transform="translate(-15 -479)"/>
</clipPath>
</defs>
</svg>
