<svg width="345" height="79" viewBox="0 0 345 79" fill="none" xmlns="http://www.w3.org/2000/svg">
<g clip-path="url(#clip0_0_1)">
<rect width="375" height="919" transform="translate(-15 -291)" fill="white"/>
<rect width="345" height="79" rx="10" fill="#CFE9FF"/>
<path d="M36.875 30.1251H30.4375C30 28.9167 28.8542 28.0417 27.5 28.0417C26.1458 28.0417 25 28.9167 24.5625 30.1251H18.125V48.8751H36.875V30.1251ZM27.5 30.1251C28.0729 30.1251 28.5417 30.5938 28.5417 31.1667C28.5417 31.7397 28.0729 32.2084 27.5 32.2084C26.9271 32.2084 26.4583 31.7397 26.4583 31.1667C26.4583 30.5938 26.9271 30.1251 27.5 30.1251ZM29.5833 44.7084H22.2917V42.6251H29.5833V44.7084ZM32.7083 40.5417H22.2917V38.4584H32.7083V40.5417ZM32.7083 36.3751H22.2917V34.2917H32.7083V36.3751Z" fill="white"/>
<path d="M60.0703 25.3955C60.0703 25.2178 60.043 25.0583 59.9883 24.917C59.9382 24.7712 59.8424 24.639 59.7012 24.5205C59.5599 24.3975 59.3617 24.2767 59.1064 24.1582C58.8512 24.0397 58.5208 23.9167 58.1152 23.7891C57.6641 23.6432 57.2357 23.4792 56.8301 23.2969C56.429 23.1146 56.0736 22.9027 55.7637 22.6611C55.4583 22.415 55.2168 22.1302 55.0391 21.8066C54.8659 21.4831 54.7793 21.1071 54.7793 20.6787C54.7793 20.264 54.8704 19.888 55.0527 19.5508C55.235 19.209 55.4902 18.9173 55.8184 18.6758C56.1465 18.4297 56.5339 18.2406 56.9805 18.1084C57.4316 17.9762 57.9261 17.9102 58.4639 17.9102C59.1976 17.9102 59.8379 18.0423 60.3848 18.3066C60.9316 18.571 61.3555 18.9333 61.6562 19.3936C61.9616 19.8538 62.1143 20.3802 62.1143 20.9727H60.0771C60.0771 20.681 60.0156 20.4258 59.8926 20.207C59.7741 19.9837 59.5918 19.8083 59.3457 19.6807C59.1042 19.5531 58.7988 19.4893 58.4297 19.4893C58.0742 19.4893 57.778 19.5439 57.541 19.6533C57.304 19.7581 57.1263 19.9017 57.0078 20.084C56.8893 20.2617 56.8301 20.4622 56.8301 20.6855C56.8301 20.8542 56.8711 21.0068 56.9531 21.1436C57.0397 21.2803 57.1673 21.4079 57.3359 21.5264C57.5046 21.6449 57.7119 21.7565 57.958 21.8613C58.2041 21.9661 58.4889 22.0687 58.8125 22.1689C59.3548 22.333 59.8311 22.5176 60.2412 22.7227C60.6559 22.9277 61.0023 23.1579 61.2803 23.4131C61.5583 23.6683 61.7679 23.9577 61.9092 24.2812C62.0505 24.6048 62.1211 24.9717 62.1211 25.3818C62.1211 25.8148 62.0368 26.2021 61.8682 26.5439C61.6995 26.8857 61.4557 27.1751 61.1367 27.4121C60.8177 27.6491 60.4372 27.8291 59.9951 27.9521C59.5531 28.0752 59.0586 28.1367 58.5117 28.1367C58.0195 28.1367 57.5342 28.0729 57.0557 27.9453C56.5771 27.8132 56.1419 27.6149 55.75 27.3506C55.3626 27.0863 55.0527 26.749 54.8203 26.3389C54.5879 25.9287 54.4717 25.4434 54.4717 24.8828H56.5293C56.5293 25.1927 56.5771 25.4548 56.6729 25.6689C56.7686 25.8831 56.903 26.0563 57.0762 26.1885C57.2539 26.3206 57.4635 26.4163 57.7051 26.4756C57.9512 26.5348 58.2201 26.5645 58.5117 26.5645C58.8672 26.5645 59.1589 26.5143 59.3867 26.4141C59.6191 26.3138 59.79 26.1748 59.8994 25.9971C60.0133 25.8193 60.0703 25.6188 60.0703 25.3955ZM67.7676 26.2295V20.6035H69.7363V28H67.8838L67.7676 26.2295ZM67.9863 24.7119L68.5674 24.6982C68.5674 25.1904 68.5104 25.6484 68.3965 26.0723C68.2826 26.4915 68.1117 26.8561 67.8838 27.166C67.6559 27.4714 67.3688 27.7106 67.0225 27.8838C66.6761 28.0524 66.2682 28.1367 65.7988 28.1367C65.4388 28.1367 65.1061 28.0866 64.8008 27.9863C64.5 27.8815 64.2402 27.7197 64.0215 27.501C63.8073 27.2777 63.6387 26.9928 63.5156 26.6465C63.3971 26.2956 63.3379 25.874 63.3379 25.3818V20.6035H65.3066V25.3955C65.3066 25.6143 65.3317 25.7988 65.3818 25.9492C65.4365 26.0996 65.5117 26.2227 65.6074 26.3184C65.7031 26.4141 65.8148 26.4824 65.9424 26.5234C66.0745 26.5645 66.2204 26.585 66.3799 26.585C66.7855 26.585 67.1045 26.5029 67.3369 26.3389C67.5739 26.1748 67.7402 25.9515 67.8359 25.6689C67.9362 25.3818 67.9863 25.0628 67.9863 24.7119ZM71.2402 17.5H73.209V26.3047L73.0107 28H71.2402V17.5ZM77.8916 24.2266V24.3701C77.8916 24.9215 77.8324 25.4274 77.7139 25.8877C77.5999 26.348 77.4222 26.7467 77.1807 27.084C76.9391 27.4167 76.6383 27.6764 76.2783 27.8633C75.9229 28.0456 75.5036 28.1367 75.0205 28.1367C74.5693 28.1367 74.1774 28.0456 73.8447 27.8633C73.5166 27.681 73.2409 27.4235 73.0176 27.0908C72.7943 26.7581 72.6143 26.3685 72.4775 25.9219C72.3408 25.4753 72.2383 24.9876 72.1699 24.459V24.1445C72.2383 23.6159 72.3408 23.1283 72.4775 22.6816C72.6143 22.235 72.7943 21.8454 73.0176 21.5127C73.2409 21.18 73.5166 20.9225 73.8447 20.7402C74.1729 20.5579 74.5602 20.4668 75.0068 20.4668C75.4945 20.4668 75.9183 20.5602 76.2783 20.7471C76.6429 20.9294 76.9437 21.1891 77.1807 21.5264C77.4222 21.859 77.5999 22.2555 77.7139 22.7158C77.8324 23.1715 77.8916 23.6751 77.8916 24.2266ZM75.9229 24.3701V24.2266C75.9229 23.9258 75.9001 23.6432 75.8545 23.3789C75.8135 23.11 75.7406 22.8753 75.6357 22.6748C75.5309 22.4697 75.3874 22.3079 75.2051 22.1895C75.0273 22.071 74.7972 22.0117 74.5146 22.0117C74.2458 22.0117 74.0179 22.0573 73.8311 22.1484C73.6442 22.2396 73.4893 22.3672 73.3662 22.5312C73.2477 22.6953 73.1589 22.8913 73.0996 23.1191C73.0404 23.3424 73.0039 23.5885 72.9902 23.8574V24.7529C73.0039 25.113 73.0632 25.432 73.168 25.71C73.2773 25.9834 73.4414 26.1999 73.6602 26.3594C73.8835 26.5143 74.1729 26.5918 74.5283 26.5918C74.8063 26.5918 75.0365 26.5371 75.2188 26.4277C75.401 26.3184 75.5423 26.1634 75.6426 25.9629C75.7474 25.7624 75.8203 25.5277 75.8613 25.2588C75.9023 24.9854 75.9229 24.6891 75.9229 24.3701ZM81.084 22.1348V28H79.1084V20.6035H80.9609L81.084 22.1348ZM80.8105 24.042H80.2637C80.2637 23.527 80.3252 23.0531 80.4482 22.6201C80.5758 22.1826 80.7604 21.8044 81.002 21.4854C81.248 21.1618 81.5511 20.9111 81.9111 20.7334C82.2712 20.5557 82.6882 20.4668 83.1621 20.4668C83.4902 20.4668 83.791 20.5169 84.0645 20.6172C84.3379 20.7129 84.5726 20.8656 84.7686 21.0752C84.9691 21.2803 85.124 21.5492 85.2334 21.8818C85.3428 22.21 85.3975 22.6042 85.3975 23.0645V28H83.4287V23.2832C83.4287 22.946 83.3831 22.6862 83.292 22.5039C83.2008 22.3216 83.071 22.194 82.9023 22.1211C82.7383 22.0482 82.54 22.0117 82.3076 22.0117C82.0524 22.0117 81.8291 22.0641 81.6377 22.1689C81.4508 22.2738 81.2959 22.4196 81.1729 22.6064C81.0498 22.7887 80.9587 23.0029 80.8994 23.249C80.8402 23.4951 80.8105 23.7594 80.8105 24.042ZM85.2129 23.8164L84.5088 23.9053C84.5088 23.4222 84.568 22.9733 84.6865 22.5586C84.8096 22.1439 84.9896 21.7793 85.2266 21.4648C85.4681 21.1504 85.7666 20.9066 86.1221 20.7334C86.4775 20.5557 86.8877 20.4668 87.3525 20.4668C87.708 20.4668 88.0316 20.5192 88.3232 20.624C88.6149 20.7243 88.8633 20.8861 89.0684 21.1094C89.278 21.3281 89.4375 21.6152 89.5469 21.9707C89.6608 22.3262 89.7178 22.7614 89.7178 23.2764V28H87.7422V23.2764C87.7422 22.9346 87.6966 22.6748 87.6055 22.4971C87.5189 22.3148 87.3913 22.1895 87.2227 22.1211C87.0586 22.0482 86.8626 22.0117 86.6348 22.0117C86.3978 22.0117 86.1904 22.0596 86.0127 22.1553C85.835 22.2464 85.6868 22.374 85.5684 22.5381C85.4499 22.7021 85.361 22.8936 85.3018 23.1123C85.2425 23.3265 85.2129 23.5612 85.2129 23.8164ZM93.3203 20.6035V28H91.3447V20.6035H93.3203ZM91.2217 18.6758C91.2217 18.3887 91.3219 18.1517 91.5225 17.9648C91.723 17.778 91.9919 17.6846 92.3291 17.6846C92.6618 17.6846 92.9284 17.778 93.1289 17.9648C93.334 18.1517 93.4365 18.3887 93.4365 18.6758C93.4365 18.9629 93.334 19.1999 93.1289 19.3867C92.9284 19.5736 92.6618 19.667 92.3291 19.667C91.9919 19.667 91.723 19.5736 91.5225 19.3867C91.3219 19.1999 91.2217 18.9629 91.2217 18.6758ZM98.5703 20.6035V21.998H94.2637V20.6035H98.5703ZM95.3301 18.7783H97.2988V25.7715C97.2988 25.9857 97.3262 26.1497 97.3809 26.2637C97.4401 26.3776 97.5267 26.4574 97.6406 26.5029C97.7546 26.5439 97.8981 26.5645 98.0713 26.5645C98.1943 26.5645 98.3037 26.5599 98.3994 26.5508C98.4997 26.5371 98.584 26.5234 98.6523 26.5098L98.6592 27.959C98.4906 28.0137 98.3083 28.057 98.1123 28.0889C97.9163 28.1208 97.6999 28.1367 97.4629 28.1367C97.0299 28.1367 96.6517 28.0661 96.3281 27.9248C96.0091 27.779 95.763 27.5465 95.5898 27.2275C95.4167 26.9085 95.3301 26.4893 95.3301 25.9697V18.7783ZM107.17 26.332V23.0371C107.17 22.8001 107.131 22.5973 107.054 22.4287C106.976 22.2555 106.855 22.1211 106.691 22.0254C106.532 21.9297 106.325 21.8818 106.069 21.8818C105.851 21.8818 105.661 21.9206 105.502 21.998C105.342 22.071 105.219 22.1781 105.133 22.3193C105.046 22.4561 105.003 22.6178 105.003 22.8047H103.034C103.034 22.4902 103.107 22.1917 103.253 21.9092C103.399 21.6266 103.611 21.3783 103.889 21.1641C104.167 20.9453 104.497 20.7744 104.88 20.6514C105.267 20.5283 105.7 20.4668 106.179 20.4668C106.753 20.4668 107.263 20.5625 107.71 20.7539C108.157 20.9453 108.507 21.2324 108.763 21.6152C109.022 21.998 109.152 22.4766 109.152 23.0508V26.2158C109.152 26.6214 109.177 26.9541 109.228 27.2139C109.278 27.4691 109.351 27.6924 109.446 27.8838V28H107.457C107.361 27.7995 107.288 27.5488 107.238 27.248C107.193 26.9427 107.17 26.6374 107.17 26.332ZM107.43 23.4951L107.443 24.6094H106.343C106.083 24.6094 105.857 24.639 105.666 24.6982C105.475 24.7575 105.317 24.8418 105.194 24.9512C105.071 25.056 104.98 25.179 104.921 25.3203C104.866 25.4616 104.839 25.6165 104.839 25.7852C104.839 25.9538 104.878 26.1064 104.955 26.2432C105.033 26.3753 105.144 26.4801 105.29 26.5576C105.436 26.6305 105.607 26.667 105.803 26.667C106.099 26.667 106.356 26.6077 106.575 26.4893C106.794 26.3708 106.963 26.2249 107.081 26.0518C107.204 25.8786 107.268 25.7145 107.272 25.5596L107.792 26.3936C107.719 26.5804 107.619 26.7741 107.491 26.9746C107.368 27.1751 107.211 27.3643 107.02 27.542C106.828 27.7152 106.598 27.8587 106.329 27.9727C106.06 28.082 105.741 28.1367 105.372 28.1367C104.903 28.1367 104.477 28.0433 104.094 27.8564C103.715 27.665 103.415 27.403 103.191 27.0703C102.973 26.7331 102.863 26.3503 102.863 25.9219C102.863 25.5345 102.936 25.1904 103.082 24.8896C103.228 24.5889 103.442 24.3359 103.725 24.1309C104.012 23.9212 104.369 23.764 104.798 23.6592C105.226 23.5498 105.723 23.4951 106.288 23.4951H107.43ZM112.639 22.0254V30.8438H110.67V20.6035H112.495L112.639 22.0254ZM117.321 24.2197V24.3633C117.321 24.901 117.257 25.4001 117.13 25.8604C117.007 26.3206 116.825 26.7217 116.583 27.0635C116.341 27.4007 116.041 27.665 115.681 27.8564C115.325 28.0433 114.915 28.1367 114.45 28.1367C113.999 28.1367 113.607 28.0456 113.274 27.8633C112.942 27.681 112.661 27.4258 112.434 27.0977C112.21 26.765 112.03 26.3799 111.894 25.9424C111.757 25.5049 111.652 25.0355 111.579 24.5342V24.1582C111.652 23.6204 111.757 23.1283 111.894 22.6816C112.03 22.2305 112.21 21.8408 112.434 21.5127C112.661 21.18 112.939 20.9225 113.268 20.7402C113.6 20.5579 113.99 20.4668 114.437 20.4668C114.906 20.4668 115.318 20.5557 115.674 20.7334C116.034 20.9111 116.335 21.1663 116.576 21.499C116.822 21.8317 117.007 22.2282 117.13 22.6885C117.257 23.1488 117.321 23.6592 117.321 24.2197ZM115.346 24.3633V24.2197C115.346 23.9053 115.318 23.6159 115.264 23.3516C115.214 23.0827 115.132 22.848 115.018 22.6475C114.908 22.4469 114.762 22.292 114.58 22.1826C114.402 22.0687 114.186 22.0117 113.931 22.0117C113.662 22.0117 113.432 22.055 113.24 22.1416C113.053 22.2282 112.901 22.3535 112.782 22.5176C112.664 22.6816 112.575 22.8776 112.516 23.1055C112.456 23.3333 112.42 23.5908 112.406 23.8779V24.8281C112.429 25.1654 112.493 25.4684 112.598 25.7373C112.702 26.0016 112.864 26.2113 113.083 26.3662C113.302 26.5212 113.589 26.5986 113.944 26.5986C114.204 26.5986 114.423 26.5417 114.601 26.4277C114.778 26.3092 114.922 26.1475 115.031 25.9424C115.145 25.7373 115.225 25.5003 115.271 25.2314C115.321 24.9626 115.346 24.6732 115.346 24.3633ZM120.514 22.0254V30.8438H118.545V20.6035H120.37L120.514 22.0254ZM125.196 24.2197V24.3633C125.196 24.901 125.132 25.4001 125.005 25.8604C124.882 26.3206 124.7 26.7217 124.458 27.0635C124.216 27.4007 123.916 27.665 123.556 27.8564C123.2 28.0433 122.79 28.1367 122.325 28.1367C121.874 28.1367 121.482 28.0456 121.149 27.8633C120.817 27.681 120.536 27.4258 120.309 27.0977C120.085 26.765 119.905 26.3799 119.769 25.9424C119.632 25.5049 119.527 25.0355 119.454 24.5342V24.1582C119.527 23.6204 119.632 23.1283 119.769 22.6816C119.905 22.2305 120.085 21.8408 120.309 21.5127C120.536 21.18 120.814 20.9225 121.143 20.7402C121.475 20.5579 121.865 20.4668 122.312 20.4668C122.781 20.4668 123.193 20.5557 123.549 20.7334C123.909 20.9111 124.21 21.1663 124.451 21.499C124.697 21.8317 124.882 22.2282 125.005 22.6885C125.132 23.1488 125.196 23.6592 125.196 24.2197ZM123.221 24.3633V24.2197C123.221 23.9053 123.193 23.6159 123.139 23.3516C123.089 23.0827 123.007 22.848 122.893 22.6475C122.783 22.4469 122.637 22.292 122.455 22.1826C122.277 22.0687 122.061 22.0117 121.806 22.0117C121.537 22.0117 121.307 22.055 121.115 22.1416C120.928 22.2282 120.776 22.3535 120.657 22.5176C120.539 22.6816 120.45 22.8776 120.391 23.1055C120.331 23.3333 120.295 23.5908 120.281 23.8779V24.8281C120.304 25.1654 120.368 25.4684 120.473 25.7373C120.577 26.0016 120.739 26.2113 120.958 26.3662C121.177 26.5212 121.464 26.5986 121.819 26.5986C122.079 26.5986 122.298 26.5417 122.476 26.4277C122.653 26.3092 122.797 26.1475 122.906 25.9424C123.02 25.7373 123.1 25.5003 123.146 25.2314C123.196 24.9626 123.221 24.6732 123.221 24.3633ZM128.498 17.5V28H126.522V17.5H128.498ZM132.203 20.6035V28H130.228V20.6035H132.203ZM130.104 18.6758C130.104 18.3887 130.205 18.1517 130.405 17.9648C130.606 17.778 130.875 17.6846 131.212 17.6846C131.545 17.6846 131.811 17.778 132.012 17.9648C132.217 18.1517 132.319 18.3887 132.319 18.6758C132.319 18.9629 132.217 19.1999 132.012 19.3867C131.811 19.5736 131.545 19.667 131.212 19.667C130.875 19.667 130.606 19.5736 130.405 19.3867C130.205 19.1999 130.104 18.9629 130.104 18.6758ZM136.886 26.5986C137.127 26.5986 137.341 26.5531 137.528 26.4619C137.715 26.3662 137.861 26.234 137.966 26.0654C138.075 25.8923 138.132 25.6895 138.137 25.457H139.989C139.985 25.9766 139.846 26.4391 139.572 26.8447C139.299 27.2458 138.932 27.5625 138.472 27.7949C138.011 28.0228 137.496 28.1367 136.927 28.1367C136.353 28.1367 135.851 28.041 135.423 27.8496C134.999 27.6582 134.646 27.3939 134.363 27.0566C134.081 26.7148 133.869 26.3184 133.728 25.8672C133.586 25.4115 133.516 24.9238 133.516 24.4043V24.2061C133.516 23.682 133.586 23.1943 133.728 22.7432C133.869 22.2874 134.081 21.891 134.363 21.5537C134.646 21.2119 134.999 20.9453 135.423 20.7539C135.847 20.5625 136.343 20.4668 136.913 20.4668C137.519 20.4668 138.05 20.583 138.506 20.8154C138.966 21.0479 139.326 21.3805 139.586 21.8135C139.85 22.2419 139.985 22.75 139.989 23.3379H138.137C138.132 23.0918 138.08 22.8685 137.979 22.668C137.884 22.4674 137.743 22.3079 137.556 22.1895C137.373 22.0664 137.148 22.0049 136.879 22.0049C136.592 22.0049 136.357 22.0664 136.175 22.1895C135.993 22.3079 135.851 22.472 135.751 22.6816C135.651 22.8867 135.58 23.1214 135.539 23.3857C135.503 23.6455 135.484 23.9189 135.484 24.2061V24.4043C135.484 24.6914 135.503 24.9671 135.539 25.2314C135.576 25.4958 135.644 25.7305 135.744 25.9355C135.849 26.1406 135.993 26.3024 136.175 26.4209C136.357 26.5394 136.594 26.5986 136.886 26.5986ZM145.123 26.332V23.0371C145.123 22.8001 145.084 22.5973 145.007 22.4287C144.929 22.2555 144.809 22.1211 144.645 22.0254C144.485 21.9297 144.278 21.8818 144.022 21.8818C143.804 21.8818 143.615 21.9206 143.455 21.998C143.296 22.071 143.173 22.1781 143.086 22.3193C142.999 22.4561 142.956 22.6178 142.956 22.8047H140.987C140.987 22.4902 141.06 22.1917 141.206 21.9092C141.352 21.6266 141.564 21.3783 141.842 21.1641C142.12 20.9453 142.45 20.7744 142.833 20.6514C143.22 20.5283 143.653 20.4668 144.132 20.4668C144.706 20.4668 145.216 20.5625 145.663 20.7539C146.11 20.9453 146.461 21.2324 146.716 21.6152C146.976 21.998 147.105 22.4766 147.105 23.0508V26.2158C147.105 26.6214 147.131 26.9541 147.181 27.2139C147.231 27.4691 147.304 27.6924 147.399 27.8838V28H145.41C145.314 27.7995 145.242 27.5488 145.191 27.248C145.146 26.9427 145.123 26.6374 145.123 26.332ZM145.383 23.4951L145.396 24.6094H144.296C144.036 24.6094 143.811 24.639 143.619 24.6982C143.428 24.7575 143.271 24.8418 143.147 24.9512C143.024 25.056 142.933 25.179 142.874 25.3203C142.819 25.4616 142.792 25.6165 142.792 25.7852C142.792 25.9538 142.831 26.1064 142.908 26.2432C142.986 26.3753 143.097 26.4801 143.243 26.5576C143.389 26.6305 143.56 26.667 143.756 26.667C144.052 26.667 144.31 26.6077 144.528 26.4893C144.747 26.3708 144.916 26.2249 145.034 26.0518C145.157 25.8786 145.221 25.7145 145.226 25.5596L145.745 26.3936C145.672 26.5804 145.572 26.7741 145.444 26.9746C145.321 27.1751 145.164 27.3643 144.973 27.542C144.781 27.7152 144.551 27.8587 144.282 27.9727C144.013 28.082 143.694 28.1367 143.325 28.1367C142.856 28.1367 142.43 28.0433 142.047 27.8564C141.669 27.665 141.368 27.403 141.145 27.0703C140.926 26.7331 140.816 26.3503 140.816 25.9219C140.816 25.5345 140.889 25.1904 141.035 24.8896C141.181 24.5889 141.395 24.3359 141.678 24.1309C141.965 23.9212 142.323 23.764 142.751 23.6592C143.179 23.5498 143.676 23.4951 144.241 23.4951H145.383ZM152.246 20.6035V21.998H147.939V20.6035H152.246ZM149.006 18.7783H150.975V25.7715C150.975 25.9857 151.002 26.1497 151.057 26.2637C151.116 26.3776 151.202 26.4574 151.316 26.5029C151.43 26.5439 151.574 26.5645 151.747 26.5645C151.87 26.5645 151.979 26.5599 152.075 26.5508C152.175 26.5371 152.26 26.5234 152.328 26.5098L152.335 27.959C152.166 28.0137 151.984 28.057 151.788 28.0889C151.592 28.1208 151.376 28.1367 151.139 28.1367C150.706 28.1367 150.327 28.0661 150.004 27.9248C149.685 27.779 149.439 27.5465 149.266 27.2275C149.092 26.9085 149.006 26.4893 149.006 25.9697V18.7783ZM155.445 20.6035V28H153.47V20.6035H155.445ZM153.347 18.6758C153.347 18.3887 153.447 18.1517 153.647 17.9648C153.848 17.778 154.117 17.6846 154.454 17.6846C154.787 17.6846 155.053 17.778 155.254 17.9648C155.459 18.1517 155.562 18.3887 155.562 18.6758C155.562 18.9629 155.459 19.1999 155.254 19.3867C155.053 19.5736 154.787 19.667 154.454 19.667C154.117 19.667 153.848 19.5736 153.647 19.3867C153.447 19.1999 153.347 18.9629 153.347 18.6758ZM156.758 24.377V24.2334C156.758 23.6911 156.835 23.1921 156.99 22.7363C157.145 22.276 157.371 21.8773 157.667 21.54C157.963 21.2028 158.328 20.9408 158.761 20.7539C159.194 20.5625 159.69 20.4668 160.251 20.4668C160.812 20.4668 161.311 20.5625 161.748 20.7539C162.186 20.9408 162.552 21.2028 162.849 21.54C163.149 21.8773 163.377 22.276 163.532 22.7363C163.687 23.1921 163.765 23.6911 163.765 24.2334V24.377C163.765 24.9147 163.687 25.4137 163.532 25.874C163.377 26.3298 163.149 26.7285 162.849 27.0703C162.552 27.4076 162.188 27.6696 161.755 27.8564C161.322 28.0433 160.825 28.1367 160.265 28.1367C159.704 28.1367 159.205 28.0433 158.768 27.8564C158.335 27.6696 157.968 27.4076 157.667 27.0703C157.371 26.7285 157.145 26.3298 156.99 25.874C156.835 25.4137 156.758 24.9147 156.758 24.377ZM158.727 24.2334V24.377C158.727 24.6868 158.754 24.9762 158.809 25.2451C158.863 25.514 158.95 25.751 159.068 25.9561C159.191 26.1566 159.351 26.3138 159.547 26.4277C159.743 26.5417 159.982 26.5986 160.265 26.5986C160.538 26.5986 160.773 26.5417 160.969 26.4277C161.165 26.3138 161.322 26.1566 161.44 25.9561C161.559 25.751 161.646 25.514 161.7 25.2451C161.759 24.9762 161.789 24.6868 161.789 24.377V24.2334C161.789 23.9326 161.759 23.6501 161.7 23.3857C161.646 23.1169 161.557 22.8799 161.434 22.6748C161.315 22.4652 161.158 22.3011 160.962 22.1826C160.766 22.0641 160.529 22.0049 160.251 22.0049C159.973 22.0049 159.736 22.0641 159.54 22.1826C159.349 22.3011 159.191 22.4652 159.068 22.6748C158.95 22.8799 158.863 23.1169 158.809 23.3857C158.754 23.6501 158.727 23.9326 158.727 24.2334ZM166.902 22.1826V28H164.934V20.6035H166.779L166.902 22.1826ZM166.615 24.042H166.082C166.082 23.4951 166.153 23.0029 166.294 22.5654C166.435 22.1234 166.633 21.7474 166.889 21.4375C167.144 21.123 167.447 20.8838 167.798 20.7197C168.153 20.5511 168.55 20.4668 168.987 20.4668C169.334 20.4668 169.65 20.5169 169.938 20.6172C170.225 20.7174 170.471 20.877 170.676 21.0957C170.885 21.3145 171.045 21.6038 171.154 21.9639C171.268 22.3239 171.325 22.7637 171.325 23.2832V28H169.343V23.2764C169.343 22.9482 169.297 22.693 169.206 22.5107C169.115 22.3285 168.98 22.2008 168.803 22.1279C168.63 22.0505 168.415 22.0117 168.16 22.0117C167.896 22.0117 167.666 22.0641 167.47 22.1689C167.278 22.2738 167.119 22.4196 166.991 22.6064C166.868 22.7887 166.775 23.0029 166.711 23.249C166.647 23.4951 166.615 23.7594 166.615 24.042Z" fill="#091E25"/>
<path d="M59.5371 44.8438C59.5371 44.6445 59.5059 44.4688 59.4434 44.3164C59.3848 44.1602 59.2793 44.0195 59.127 43.8945C58.9785 43.7695 58.7715 43.6504 58.5059 43.5371C58.2441 43.4238 57.9121 43.3086 57.5098 43.1914C57.0879 43.0664 56.707 42.9277 56.3672 42.7754C56.0273 42.6191 55.7363 42.4414 55.4941 42.2422C55.252 42.043 55.0664 41.8145 54.9375 41.5566C54.8086 41.2988 54.7441 41.0039 54.7441 40.6719C54.7441 40.3398 54.8125 40.0332 54.9492 39.752C55.0859 39.4707 55.2812 39.2266 55.5352 39.0195C55.793 38.8086 56.0996 38.6445 56.4551 38.5273C56.8105 38.4102 57.207 38.3516 57.6445 38.3516C58.2852 38.3516 58.8281 38.4746 59.2734 38.7207C59.7227 38.9629 60.0645 39.2812 60.2988 39.6758C60.5332 40.0664 60.6504 40.4844 60.6504 40.9297H59.5254C59.5254 40.6094 59.457 40.3262 59.3203 40.0801C59.1836 39.8301 58.9766 39.6348 58.6992 39.4941C58.4219 39.3496 58.0703 39.2773 57.6445 39.2773C57.2422 39.2773 56.9102 39.3379 56.6484 39.459C56.3867 39.5801 56.1914 39.7441 56.0625 39.9512C55.9375 40.1582 55.875 40.3945 55.875 40.6602C55.875 40.8398 55.9121 41.0039 55.9863 41.1523C56.0645 41.2969 56.1836 41.4316 56.3438 41.5566C56.5078 41.6816 56.7148 41.7969 56.9648 41.9023C57.2188 42.0078 57.5215 42.1094 57.873 42.207C58.3574 42.3438 58.7754 42.4961 59.127 42.6641C59.4785 42.832 59.7676 43.0215 59.9941 43.2324C60.2246 43.4395 60.3945 43.6758 60.5039 43.9414C60.6172 44.2031 60.6738 44.5 60.6738 44.832C60.6738 45.1797 60.6035 45.4941 60.4629 45.7754C60.3223 46.0566 60.1211 46.2969 59.8594 46.4961C59.5977 46.6953 59.2832 46.8496 58.916 46.959C58.5527 47.0645 58.1465 47.1172 57.6973 47.1172C57.3027 47.1172 56.9141 47.0625 56.5312 46.9531C56.1523 46.8438 55.8066 46.6797 55.4941 46.4609C55.1855 46.2422 54.9375 45.9727 54.75 45.6523C54.5664 45.3281 54.4746 44.9531 54.4746 44.5273H55.5996C55.5996 44.8203 55.6562 45.0723 55.7695 45.2832C55.8828 45.4902 56.0371 45.6621 56.2324 45.7988C56.4316 45.9355 56.6562 46.0371 56.9062 46.1035C57.1602 46.166 57.4238 46.1973 57.6973 46.1973C58.0918 46.1973 58.4258 46.1426 58.6992 46.0332C58.9727 45.9238 59.1797 45.7676 59.3203 45.5645C59.4648 45.3613 59.5371 45.1211 59.5371 44.8438ZM65.8301 45.5352V40.6602H66.9199V47H65.8828L65.8301 45.5352ZM66.0352 44.1992L66.4863 44.1875C66.4863 44.6094 66.4414 45 66.3516 45.3594C66.2656 45.7148 66.125 46.0234 65.9297 46.2852C65.7344 46.5469 65.4785 46.752 65.1621 46.9004C64.8457 47.0449 64.4609 47.1172 64.0078 47.1172C63.6992 47.1172 63.416 47.0723 63.1582 46.9824C62.9043 46.8926 62.6855 46.7539 62.502 46.5664C62.3184 46.3789 62.1758 46.1348 62.0742 45.834C61.9766 45.5332 61.9277 45.1719 61.9277 44.75V40.6602H63.0117V44.7617C63.0117 45.0469 63.043 45.2832 63.1055 45.4707C63.1719 45.6543 63.2598 45.8008 63.3691 45.9102C63.4824 46.0156 63.6074 46.0898 63.7441 46.1328C63.8848 46.1758 64.0293 46.1973 64.1777 46.1973C64.6387 46.1973 65.0039 46.1094 65.2734 45.9336C65.543 45.7539 65.7363 45.5137 65.8535 45.2129C65.9746 44.9082 66.0352 44.5703 66.0352 44.1992ZM68.5664 38H69.6562V45.7695L69.5625 47H68.5664V38ZM73.9395 43.7773V43.9004C73.9395 44.3613 73.8848 44.7891 73.7754 45.1836C73.666 45.5742 73.5059 45.9141 73.2949 46.2031C73.084 46.4922 72.8262 46.7168 72.5215 46.877C72.2168 47.0371 71.8672 47.1172 71.4727 47.1172C71.0703 47.1172 70.7168 47.0488 70.4121 46.9121C70.1113 46.7715 69.8574 46.5703 69.6504 46.3086C69.4434 46.0469 69.2773 45.7305 69.1523 45.3594C69.0312 44.9883 68.9473 44.5703 68.9004 44.1055V43.5664C68.9473 43.0977 69.0312 42.6777 69.1523 42.3066C69.2773 41.9355 69.4434 41.6191 69.6504 41.3574C69.8574 41.0918 70.1113 40.8906 70.4121 40.7539C70.7129 40.6133 71.0625 40.543 71.4609 40.543C71.8594 40.543 72.2129 40.6211 72.5215 40.7773C72.8301 40.9297 73.0879 41.1484 73.2949 41.4336C73.5059 41.7188 73.666 42.0605 73.7754 42.459C73.8848 42.8535 73.9395 43.293 73.9395 43.7773ZM72.8496 43.9004V43.7773C72.8496 43.4609 72.8203 43.1641 72.7617 42.8867C72.7031 42.6055 72.6094 42.3594 72.4805 42.1484C72.3516 41.9336 72.1816 41.7656 71.9707 41.6445C71.7598 41.5195 71.5 41.457 71.1914 41.457C70.918 41.457 70.6797 41.5039 70.4766 41.5977C70.2773 41.6914 70.1074 41.8184 69.9668 41.9785C69.8262 42.1348 69.7109 42.3145 69.6211 42.5176C69.5352 42.7168 69.4707 42.9238 69.4277 43.1387V44.5508C69.4902 44.8242 69.5918 45.0879 69.7324 45.3418C69.877 45.5918 70.0684 45.7969 70.3066 45.957C70.5488 46.1172 70.8477 46.1973 71.2031 46.1973C71.4961 46.1973 71.7461 46.1387 71.9531 46.0215C72.1641 45.9004 72.334 45.7344 72.4629 45.5234C72.5957 45.3125 72.6934 45.0684 72.7559 44.791C72.8184 44.5137 72.8496 44.2168 72.8496 43.9004ZM76.3887 41.9199V47H75.2988V40.6602H76.3301L76.3887 41.9199ZM76.166 43.5898L75.6621 43.5723C75.666 43.1387 75.7227 42.7383 75.832 42.3711C75.9414 42 76.1035 41.6777 76.3184 41.4043C76.5332 41.1309 76.8008 40.9199 77.1211 40.7715C77.4414 40.6191 77.8125 40.543 78.2344 40.543C78.5312 40.543 78.8047 40.5859 79.0547 40.6719C79.3047 40.7539 79.5215 40.8848 79.7051 41.0645C79.8887 41.2441 80.0312 41.4746 80.1328 41.7559C80.2344 42.0371 80.2852 42.377 80.2852 42.7754V47H79.2012V42.8281C79.2012 42.4961 79.1445 42.2305 79.0312 42.0312C78.9219 41.832 78.7656 41.6875 78.5625 41.5977C78.3594 41.5039 78.1211 41.457 77.8477 41.457C77.5273 41.457 77.2598 41.5137 77.0449 41.627C76.8301 41.7402 76.6582 41.8965 76.5293 42.0957C76.4004 42.2949 76.3066 42.5234 76.248 42.7812C76.1934 43.0352 76.166 43.3047 76.166 43.5898ZM80.2734 42.9922L79.5469 43.2148C79.5508 42.8672 79.6074 42.5332 79.7168 42.2129C79.8301 41.8926 79.9922 41.6074 80.2031 41.3574C80.418 41.1074 80.6816 40.9102 80.9941 40.7656C81.3066 40.6172 81.6641 40.543 82.0664 40.543C82.4062 40.543 82.707 40.5879 82.9688 40.6777C83.2344 40.7676 83.457 40.9062 83.6367 41.0938C83.8203 41.2773 83.959 41.5137 84.0527 41.8027C84.1465 42.0918 84.1934 42.4355 84.1934 42.834V47H83.1035V42.8223C83.1035 42.4668 83.0469 42.1914 82.9336 41.9961C82.8242 41.7969 82.668 41.6582 82.4648 41.5801C82.2656 41.498 82.0273 41.457 81.75 41.457C81.5117 41.457 81.3008 41.498 81.1172 41.5801C80.9336 41.6621 80.7793 41.7754 80.6543 41.9199C80.5293 42.0605 80.4336 42.2227 80.3672 42.4062C80.3047 42.5898 80.2734 42.7852 80.2734 42.9922ZM87.0117 40.6602V47H85.9219V40.6602H87.0117ZM85.8398 38.9785C85.8398 38.8027 85.8926 38.6543 85.998 38.5332C86.1074 38.4121 86.2676 38.3516 86.4785 38.3516C86.6855 38.3516 86.8438 38.4121 86.9531 38.5332C87.0664 38.6543 87.123 38.8027 87.123 38.9785C87.123 39.1465 87.0664 39.291 86.9531 39.4121C86.8438 39.5293 86.6855 39.5879 86.4785 39.5879C86.2676 39.5879 86.1074 39.5293 85.998 39.4121C85.8926 39.291 85.8398 39.1465 85.8398 38.9785ZM91.4062 40.6602V41.4922H87.9785V40.6602H91.4062ZM89.1387 39.1191H90.2227V45.4297C90.2227 45.6445 90.2559 45.8066 90.3223 45.916C90.3887 46.0254 90.4746 46.0977 90.5801 46.1328C90.6855 46.168 90.7988 46.1855 90.9199 46.1855C91.0098 46.1855 91.1035 46.1777 91.2012 46.1621C91.3027 46.1426 91.3789 46.127 91.4297 46.1152L91.4355 47C91.3496 47.0273 91.2363 47.0527 91.0957 47.0762C90.959 47.1035 90.793 47.1172 90.5977 47.1172C90.332 47.1172 90.0879 47.0645 89.8652 46.959C89.6426 46.8535 89.4648 46.6777 89.332 46.4316C89.2031 46.1816 89.1387 45.8457 89.1387 45.4238V39.1191ZM98.3086 40.6602V41.4922H94.8809V40.6602H98.3086ZM96.041 39.1191H97.125V45.4297C97.125 45.6445 97.1582 45.8066 97.2246 45.916C97.291 46.0254 97.377 46.0977 97.4824 46.1328C97.5879 46.168 97.7012 46.1855 97.8223 46.1855C97.9121 46.1855 98.0059 46.1777 98.1035 46.1621C98.2051 46.1426 98.2812 46.127 98.332 46.1152L98.3379 47C98.252 47.0273 98.1387 47.0527 97.998 47.0762C97.8613 47.1035 97.6953 47.1172 97.5 47.1172C97.2344 47.1172 96.9902 47.0645 96.7676 46.959C96.5449 46.8535 96.3672 46.6777 96.2344 46.4316C96.1055 46.1816 96.041 45.8457 96.041 45.4238V39.1191ZM100.664 38V47H99.5801V38H100.664ZM100.406 43.5898L99.9551 43.5723C99.959 43.1387 100.023 42.7383 100.148 42.3711C100.273 42 100.449 41.6777 100.676 41.4043C100.902 41.1309 101.172 40.9199 101.484 40.7715C101.801 40.6191 102.15 40.543 102.533 40.543C102.846 40.543 103.127 40.5859 103.377 40.6719C103.627 40.7539 103.84 40.8867 104.016 41.0703C104.195 41.2539 104.332 41.4922 104.426 41.7852C104.52 42.0742 104.566 42.4277 104.566 42.8457V47H103.477V42.834C103.477 42.502 103.428 42.2363 103.33 42.0371C103.232 41.834 103.09 41.6875 102.902 41.5977C102.715 41.5039 102.484 41.457 102.211 41.457C101.941 41.457 101.695 41.5137 101.473 41.627C101.254 41.7402 101.064 41.8965 100.904 42.0957C100.748 42.2949 100.625 42.5234 100.535 42.7812C100.449 43.0352 100.406 43.3047 100.406 43.5898ZM108.82 47.1172C108.379 47.1172 107.979 47.043 107.619 46.8945C107.264 46.7422 106.957 46.5293 106.699 46.2559C106.445 45.9824 106.25 45.6582 106.113 45.2832C105.977 44.9082 105.908 44.498 105.908 44.0527V43.8066C105.908 43.291 105.984 42.832 106.137 42.4297C106.289 42.0234 106.496 41.6797 106.758 41.3984C107.02 41.1172 107.316 40.9043 107.648 40.7598C107.98 40.6152 108.324 40.543 108.68 40.543C109.133 40.543 109.523 40.6211 109.852 40.7773C110.184 40.9336 110.455 41.1523 110.666 41.4336C110.877 41.7109 111.033 42.0391 111.135 42.418C111.236 42.793 111.287 43.2031 111.287 43.6484V44.1348H106.553V43.25H110.203V43.168C110.188 42.8867 110.129 42.6133 110.027 42.3477C109.93 42.082 109.773 41.8633 109.559 41.6914C109.344 41.5195 109.051 41.4336 108.68 41.4336C108.434 41.4336 108.207 41.4863 108 41.5918C107.793 41.6934 107.615 41.8457 107.467 42.0488C107.318 42.252 107.203 42.5 107.121 42.793C107.039 43.0859 106.998 43.4238 106.998 43.8066V44.0527C106.998 44.3535 107.039 44.6367 107.121 44.9023C107.207 45.1641 107.33 45.3945 107.49 45.5938C107.654 45.793 107.852 45.9492 108.082 46.0625C108.316 46.1758 108.582 46.2324 108.879 46.2324C109.262 46.2324 109.586 46.1543 109.852 45.998C110.117 45.8418 110.35 45.6328 110.549 45.3711L111.205 45.8926C111.068 46.0996 110.895 46.2969 110.684 46.4844C110.473 46.6719 110.213 46.8242 109.904 46.9414C109.6 47.0586 109.238 47.1172 108.82 47.1172ZM120.844 44.2871H121.969C121.91 44.8262 121.756 45.3086 121.506 45.7344C121.256 46.1602 120.902 46.498 120.445 46.748C119.988 46.9941 119.418 47.1172 118.734 47.1172C118.234 47.1172 117.779 47.0234 117.369 46.8359C116.963 46.6484 116.613 46.3828 116.32 46.0391C116.027 45.6914 115.801 45.2754 115.641 44.791C115.484 44.3027 115.406 43.7598 115.406 43.1621V42.3125C115.406 41.7148 115.484 41.1738 115.641 40.6895C115.801 40.2012 116.029 39.7832 116.326 39.4355C116.627 39.0879 116.988 38.8203 117.41 38.6328C117.832 38.4453 118.307 38.3516 118.834 38.3516C119.479 38.3516 120.023 38.4727 120.469 38.7148C120.914 38.957 121.26 39.293 121.506 39.7227C121.756 40.1484 121.91 40.6426 121.969 41.2051H120.844C120.789 40.8066 120.688 40.4648 120.539 40.1797C120.391 39.8906 120.18 39.668 119.906 39.5117C119.633 39.3555 119.275 39.2773 118.834 39.2773C118.455 39.2773 118.121 39.3496 117.832 39.4941C117.547 39.6387 117.307 39.8438 117.111 40.1094C116.92 40.375 116.775 40.6934 116.678 41.0645C116.58 41.4355 116.531 41.8477 116.531 42.3008V43.1621C116.531 43.5801 116.574 43.9727 116.66 44.3398C116.75 44.707 116.885 45.0293 117.064 45.3066C117.244 45.584 117.473 45.8027 117.75 45.9629C118.027 46.1191 118.355 46.1973 118.734 46.1973C119.215 46.1973 119.598 46.1211 119.883 45.9688C120.168 45.8164 120.383 45.5977 120.527 45.3125C120.676 45.0273 120.781 44.6855 120.844 44.2871ZM123.059 43.9004V43.7656C123.059 43.3086 123.125 42.8848 123.258 42.4941C123.391 42.0996 123.582 41.7578 123.832 41.4688C124.082 41.1758 124.385 40.9492 124.74 40.7891C125.096 40.625 125.494 40.543 125.936 40.543C126.381 40.543 126.781 40.625 127.137 40.7891C127.496 40.9492 127.801 41.1758 128.051 41.4688C128.305 41.7578 128.498 42.0996 128.631 42.4941C128.764 42.8848 128.83 43.3086 128.83 43.7656V43.9004C128.83 44.3574 128.764 44.7812 128.631 45.1719C128.498 45.5625 128.305 45.9043 128.051 46.1973C127.801 46.4863 127.498 46.7129 127.143 46.877C126.791 47.0371 126.393 47.1172 125.947 47.1172C125.502 47.1172 125.102 47.0371 124.746 46.877C124.391 46.7129 124.086 46.4863 123.832 46.1973C123.582 45.9043 123.391 45.5625 123.258 45.1719C123.125 44.7812 123.059 44.3574 123.059 43.9004ZM124.143 43.7656V43.9004C124.143 44.2168 124.18 44.5156 124.254 44.7969C124.328 45.0742 124.439 45.3203 124.588 45.5352C124.74 45.75 124.93 45.9199 125.156 46.0449C125.383 46.166 125.646 46.2266 125.947 46.2266C126.244 46.2266 126.504 46.166 126.727 46.0449C126.953 45.9199 127.141 45.75 127.289 45.5352C127.438 45.3203 127.549 45.0742 127.623 44.7969C127.701 44.5156 127.74 44.2168 127.74 43.9004V43.7656C127.74 43.4531 127.701 43.1582 127.623 42.8809C127.549 42.5996 127.436 42.3516 127.283 42.1367C127.135 41.918 126.947 41.7461 126.721 41.6211C126.498 41.4961 126.236 41.4336 125.936 41.4336C125.639 41.4336 125.377 41.4961 125.15 41.6211C124.928 41.7461 124.74 41.918 124.588 42.1367C124.439 42.3516 124.328 42.5996 124.254 42.8809C124.18 43.1582 124.143 43.4531 124.143 43.7656ZM131.268 41.9199V47H130.178V40.6602H131.209L131.268 41.9199ZM131.045 43.5898L130.541 43.5723C130.545 43.1387 130.602 42.7383 130.711 42.3711C130.82 42 130.982 41.6777 131.197 41.4043C131.412 41.1309 131.68 40.9199 132 40.7715C132.32 40.6191 132.691 40.543 133.113 40.543C133.41 40.543 133.684 40.5859 133.934 40.6719C134.184 40.7539 134.4 40.8848 134.584 41.0645C134.768 41.2441 134.91 41.4746 135.012 41.7559C135.113 42.0371 135.164 42.377 135.164 42.7754V47H134.08V42.8281C134.08 42.4961 134.023 42.2305 133.91 42.0312C133.801 41.832 133.645 41.6875 133.441 41.5977C133.238 41.5039 133 41.457 132.727 41.457C132.406 41.457 132.139 41.5137 131.924 41.627C131.709 41.7402 131.537 41.8965 131.408 42.0957C131.279 42.2949 131.186 42.5234 131.127 42.7812C131.072 43.0352 131.045 43.3047 131.045 43.5898ZM135.152 42.9922L134.426 43.2148C134.43 42.8672 134.486 42.5332 134.596 42.2129C134.709 41.8926 134.871 41.6074 135.082 41.3574C135.297 41.1074 135.561 40.9102 135.873 40.7656C136.186 40.6172 136.543 40.543 136.945 40.543C137.285 40.543 137.586 40.5879 137.848 40.6777C138.113 40.7676 138.336 40.9062 138.516 41.0938C138.699 41.2773 138.838 41.5137 138.932 41.8027C139.025 42.0918 139.072 42.4355 139.072 42.834V47H137.982V42.8223C137.982 42.4668 137.926 42.1914 137.812 41.9961C137.703 41.7969 137.547 41.6582 137.344 41.5801C137.145 41.498 136.906 41.457 136.629 41.457C136.391 41.457 136.18 41.498 135.996 41.5801C135.812 41.6621 135.658 41.7754 135.533 41.9199C135.408 42.0605 135.312 42.2227 135.246 42.4062C135.184 42.5898 135.152 42.7852 135.152 42.9922ZM141.791 41.9199V47H140.701V40.6602H141.732L141.791 41.9199ZM141.568 43.5898L141.064 43.5723C141.068 43.1387 141.125 42.7383 141.234 42.3711C141.344 42 141.506 41.6777 141.721 41.4043C141.936 41.1309 142.203 40.9199 142.523 40.7715C142.844 40.6191 143.215 40.543 143.637 40.543C143.934 40.543 144.207 40.5859 144.457 40.6719C144.707 40.7539 144.924 40.8848 145.107 41.0645C145.291 41.2441 145.434 41.4746 145.535 41.7559C145.637 42.0371 145.688 42.377 145.688 42.7754V47H144.604V42.8281C144.604 42.4961 144.547 42.2305 144.434 42.0312C144.324 41.832 144.168 41.6875 143.965 41.5977C143.762 41.5039 143.523 41.457 143.25 41.457C142.93 41.457 142.662 41.5137 142.447 41.627C142.232 41.7402 142.061 41.8965 141.932 42.0957C141.803 42.2949 141.709 42.5234 141.65 42.7812C141.596 43.0352 141.568 43.3047 141.568 43.5898ZM145.676 42.9922L144.949 43.2148C144.953 42.8672 145.01 42.5332 145.119 42.2129C145.232 41.8926 145.395 41.6074 145.605 41.3574C145.82 41.1074 146.084 40.9102 146.396 40.7656C146.709 40.6172 147.066 40.543 147.469 40.543C147.809 40.543 148.109 40.5879 148.371 40.6777C148.637 40.7676 148.859 40.9062 149.039 41.0938C149.223 41.2773 149.361 41.5137 149.455 41.8027C149.549 42.0918 149.596 42.4355 149.596 42.834V47H148.506V42.8223C148.506 42.4668 148.449 42.1914 148.336 41.9961C148.227 41.7969 148.07 41.6582 147.867 41.5801C147.668 41.498 147.43 41.457 147.152 41.457C146.914 41.457 146.703 41.498 146.52 41.5801C146.336 41.6621 146.182 41.7754 146.057 41.9199C145.932 42.0605 145.836 42.2227 145.77 42.4062C145.707 42.5898 145.676 42.7852 145.676 42.9922ZM150.949 43.9004V43.7656C150.949 43.3086 151.016 42.8848 151.148 42.4941C151.281 42.0996 151.473 41.7578 151.723 41.4688C151.973 41.1758 152.275 40.9492 152.631 40.7891C152.986 40.625 153.385 40.543 153.826 40.543C154.271 40.543 154.672 40.625 155.027 40.7891C155.387 40.9492 155.691 41.1758 155.941 41.4688C156.195 41.7578 156.389 42.0996 156.521 42.4941C156.654 42.8848 156.721 43.3086 156.721 43.7656V43.9004C156.721 44.3574 156.654 44.7812 156.521 45.1719C156.389 45.5625 156.195 45.9043 155.941 46.1973C155.691 46.4863 155.389 46.7129 155.033 46.877C154.682 47.0371 154.283 47.1172 153.838 47.1172C153.393 47.1172 152.992 47.0371 152.637 46.877C152.281 46.7129 151.977 46.4863 151.723 46.1973C151.473 45.9043 151.281 45.5625 151.148 45.1719C151.016 44.7812 150.949 44.3574 150.949 43.9004ZM152.033 43.7656V43.9004C152.033 44.2168 152.07 44.5156 152.145 44.7969C152.219 45.0742 152.33 45.3203 152.479 45.5352C152.631 45.75 152.82 45.9199 153.047 46.0449C153.273 46.166 153.537 46.2266 153.838 46.2266C154.135 46.2266 154.395 46.166 154.617 46.0449C154.844 45.9199 155.031 45.75 155.18 45.5352C155.328 45.3203 155.439 45.0742 155.514 44.7969C155.592 44.5156 155.631 44.2168 155.631 43.9004V43.7656C155.631 43.4531 155.592 43.1582 155.514 42.8809C155.439 42.5996 155.326 42.3516 155.174 42.1367C155.025 41.918 154.838 41.7461 154.611 41.6211C154.389 41.4961 154.127 41.4336 153.826 41.4336C153.529 41.4336 153.268 41.4961 153.041 41.6211C152.818 41.7461 152.631 41.918 152.479 42.1367C152.33 42.3516 152.219 42.5996 152.145 42.8809C152.07 43.1582 152.033 43.4531 152.033 43.7656ZM159.164 42.0137V47H158.08V40.6602H159.105L159.164 42.0137ZM158.906 43.5898L158.455 43.5723C158.459 43.1387 158.523 42.7383 158.648 42.3711C158.773 42 158.949 41.6777 159.176 41.4043C159.402 41.1309 159.672 40.9199 159.984 40.7715C160.301 40.6191 160.65 40.543 161.033 40.543C161.346 40.543 161.627 40.5859 161.877 40.6719C162.127 40.7539 162.34 40.8867 162.516 41.0703C162.695 41.2539 162.832 41.4922 162.926 41.7852C163.02 42.0742 163.066 42.4277 163.066 42.8457V47H161.977V42.834C161.977 42.502 161.928 42.2363 161.83 42.0371C161.732 41.834 161.59 41.6875 161.402 41.5977C161.215 41.5039 160.984 41.457 160.711 41.457C160.441 41.457 160.195 41.5137 159.973 41.627C159.754 41.7402 159.564 41.8965 159.404 42.0957C159.248 42.2949 159.125 42.5234 159.035 42.7812C158.949 43.0352 158.906 43.3047 158.906 43.5898ZM171.012 39.2246L168.188 47H167.033L170.285 38.4688H171.029L171.012 39.2246ZM173.379 47L170.549 39.2246L170.531 38.4688H171.275L174.539 47H173.379ZM173.232 43.8418V44.7676H168.439V43.8418H173.232ZM176.602 41.8789V49.4375H175.512V40.6602H176.508L176.602 41.8789ZM180.873 43.7773V43.9004C180.873 44.3613 180.818 44.7891 180.709 45.1836C180.6 45.5742 180.439 45.9141 180.229 46.2031C180.021 46.4922 179.766 46.7168 179.461 46.877C179.156 47.0371 178.807 47.1172 178.412 47.1172C178.01 47.1172 177.654 47.0508 177.346 46.918C177.037 46.7852 176.775 46.5918 176.561 46.3379C176.346 46.084 176.174 45.7793 176.045 45.4238C175.92 45.0684 175.834 44.668 175.787 44.2227V43.5664C175.834 43.0977 175.922 42.6777 176.051 42.3066C176.18 41.9355 176.35 41.6191 176.561 41.3574C176.775 41.0918 177.035 40.8906 177.34 40.7539C177.645 40.6133 177.996 40.543 178.395 40.543C178.793 40.543 179.146 40.6211 179.455 40.7773C179.764 40.9297 180.023 41.1484 180.234 41.4336C180.445 41.7188 180.604 42.0605 180.709 42.459C180.818 42.8535 180.873 43.293 180.873 43.7773ZM179.783 43.9004V43.7773C179.783 43.4609 179.75 43.1641 179.684 42.8867C179.617 42.6055 179.514 42.3594 179.373 42.1484C179.236 41.9336 179.061 41.7656 178.846 41.6445C178.631 41.5195 178.375 41.457 178.078 41.457C177.805 41.457 177.566 41.5039 177.363 41.5977C177.164 41.6914 176.994 41.8184 176.854 41.9785C176.713 42.1348 176.598 42.3145 176.508 42.5176C176.422 42.7168 176.357 42.9238 176.314 43.1387V44.6562C176.393 44.9297 176.502 45.1875 176.643 45.4297C176.783 45.668 176.971 45.8613 177.205 46.0098C177.439 46.1543 177.734 46.2266 178.09 46.2266C178.383 46.2266 178.635 46.166 178.846 46.0449C179.061 45.9199 179.236 45.75 179.373 45.5352C179.514 45.3203 179.617 45.0742 179.684 44.7969C179.75 44.5156 179.783 44.2168 179.783 43.9004ZM183.34 41.8789V49.4375H182.25V40.6602H183.246L183.34 41.8789ZM187.611 43.7773V43.9004C187.611 44.3613 187.557 44.7891 187.447 45.1836C187.338 45.5742 187.178 45.9141 186.967 46.2031C186.76 46.4922 186.504 46.7168 186.199 46.877C185.895 47.0371 185.545 47.1172 185.15 47.1172C184.748 47.1172 184.393 47.0508 184.084 46.918C183.775 46.7852 183.514 46.5918 183.299 46.3379C183.084 46.084 182.912 45.7793 182.783 45.4238C182.658 45.0684 182.572 44.668 182.525 44.2227V43.5664C182.572 43.0977 182.66 42.6777 182.789 42.3066C182.918 41.9355 183.088 41.6191 183.299 41.3574C183.514 41.0918 183.773 40.8906 184.078 40.7539C184.383 40.6133 184.734 40.543 185.133 40.543C185.531 40.543 185.885 40.6211 186.193 40.7773C186.502 40.9297 186.762 41.1484 186.973 41.4336C187.184 41.7188 187.342 42.0605 187.447 42.459C187.557 42.8535 187.611 43.293 187.611 43.7773ZM186.521 43.9004V43.7773C186.521 43.4609 186.488 43.1641 186.422 42.8867C186.355 42.6055 186.252 42.3594 186.111 42.1484C185.975 41.9336 185.799 41.7656 185.584 41.6445C185.369 41.5195 185.113 41.457 184.816 41.457C184.543 41.457 184.305 41.5039 184.102 41.5977C183.902 41.6914 183.732 41.8184 183.592 41.9785C183.451 42.1348 183.336 42.3145 183.246 42.5176C183.16 42.7168 183.096 42.9238 183.053 43.1387V44.6562C183.131 44.9297 183.24 45.1875 183.381 45.4297C183.521 45.668 183.709 45.8613 183.943 46.0098C184.178 46.1543 184.473 46.2266 184.828 46.2266C185.121 46.2266 185.373 46.166 185.584 46.0449C185.799 45.9199 185.975 45.75 186.111 45.5352C186.252 45.3203 186.355 45.0742 186.422 44.7969C186.488 44.5156 186.521 44.2168 186.521 43.9004ZM190.172 38V47H189.082V38H190.172ZM193.09 40.6602V47H192V40.6602H193.09ZM191.918 38.9785C191.918 38.8027 191.971 38.6543 192.076 38.5332C192.186 38.4121 192.346 38.3516 192.557 38.3516C192.764 38.3516 192.922 38.4121 193.031 38.5332C193.145 38.6543 193.201 38.8027 193.201 38.9785C193.201 39.1465 193.145 39.291 193.031 39.4121C192.922 39.5293 192.764 39.5879 192.557 39.5879C192.346 39.5879 192.186 39.5293 192.076 39.4121C191.971 39.291 191.918 39.1465 191.918 38.9785ZM197.367 46.2266C197.625 46.2266 197.863 46.1738 198.082 46.0684C198.301 45.9629 198.48 45.8184 198.621 45.6348C198.762 45.4473 198.842 45.2344 198.861 44.9961H199.893C199.873 45.3711 199.746 45.7207 199.512 46.0449C199.281 46.3652 198.979 46.625 198.604 46.8242C198.229 47.0195 197.816 47.1172 197.367 47.1172C196.891 47.1172 196.475 47.0332 196.119 46.8652C195.768 46.6973 195.475 46.4668 195.24 46.1738C195.01 45.8809 194.836 45.5449 194.719 45.166C194.605 44.7832 194.549 44.3789 194.549 43.9531V43.707C194.549 43.2812 194.605 42.8789 194.719 42.5C194.836 42.1172 195.01 41.7793 195.24 41.4863C195.475 41.1934 195.768 40.9629 196.119 40.7949C196.475 40.627 196.891 40.543 197.367 40.543C197.863 40.543 198.297 40.6445 198.668 40.8477C199.039 41.0469 199.33 41.3203 199.541 41.668C199.756 42.0117 199.873 42.4023 199.893 42.8398H198.861C198.842 42.5781 198.768 42.3418 198.639 42.1309C198.514 41.9199 198.342 41.752 198.123 41.627C197.908 41.498 197.656 41.4336 197.367 41.4336C197.035 41.4336 196.756 41.5 196.529 41.6328C196.307 41.7617 196.129 41.9375 195.996 42.1602C195.867 42.3789 195.773 42.623 195.715 42.8926C195.66 43.1582 195.633 43.4297 195.633 43.707V43.9531C195.633 44.2305 195.66 44.5039 195.715 44.7734C195.77 45.043 195.861 45.2871 195.99 45.5059C196.123 45.7246 196.301 45.9004 196.523 46.0332C196.75 46.1621 197.031 46.2266 197.367 46.2266ZM204.85 45.916V42.6523C204.85 42.4023 204.799 42.1855 204.697 42.002C204.6 41.8145 204.451 41.6699 204.252 41.5684C204.053 41.4668 203.807 41.416 203.514 41.416C203.24 41.416 203 41.4629 202.793 41.5566C202.59 41.6504 202.43 41.7734 202.312 41.9258C202.199 42.0781 202.143 42.2422 202.143 42.418H201.059C201.059 42.1914 201.117 41.9668 201.234 41.7441C201.352 41.5215 201.52 41.3203 201.738 41.1406C201.961 40.957 202.227 40.8125 202.535 40.707C202.848 40.5977 203.195 40.543 203.578 40.543C204.039 40.543 204.445 40.6211 204.797 40.7773C205.152 40.9336 205.43 41.1699 205.629 41.4863C205.832 41.7988 205.934 42.1914 205.934 42.6641V45.6172C205.934 45.8281 205.951 46.0527 205.986 46.291C206.025 46.5293 206.082 46.7344 206.156 46.9062V47H205.025C204.971 46.875 204.928 46.709 204.896 46.502C204.865 46.291 204.85 46.0957 204.85 45.916ZM205.037 43.1562L205.049 43.918H203.953C203.645 43.918 203.369 43.9434 203.127 43.9941C202.885 44.041 202.682 44.1133 202.518 44.2109C202.354 44.3086 202.229 44.4316 202.143 44.5801C202.057 44.7246 202.014 44.8945 202.014 45.0898C202.014 45.2891 202.059 45.4707 202.148 45.6348C202.238 45.7988 202.373 45.9297 202.553 46.0273C202.736 46.1211 202.961 46.168 203.227 46.168C203.559 46.168 203.852 46.0977 204.105 45.957C204.359 45.8164 204.561 45.6445 204.709 45.4414C204.861 45.2383 204.943 45.041 204.955 44.8496L205.418 45.3711C205.391 45.5352 205.316 45.7168 205.195 45.916C205.074 46.1152 204.912 46.3066 204.709 46.4902C204.51 46.6699 204.271 46.8203 203.994 46.9414C203.721 47.0586 203.412 47.1172 203.068 47.1172C202.639 47.1172 202.262 47.0332 201.938 46.8652C201.617 46.6973 201.367 46.4727 201.188 46.1914C201.012 45.9062 200.924 45.5879 200.924 45.2363C200.924 44.8965 200.99 44.5977 201.123 44.3398C201.256 44.0781 201.447 43.8613 201.697 43.6895C201.947 43.5137 202.248 43.3809 202.6 43.291C202.951 43.2012 203.344 43.1562 203.777 43.1562H205.037ZM210.293 40.6602V41.4922H206.865V40.6602H210.293ZM208.025 39.1191H209.109V45.4297C209.109 45.6445 209.143 45.8066 209.209 45.916C209.275 46.0254 209.361 46.0977 209.467 46.1328C209.572 46.168 209.686 46.1855 209.807 46.1855C209.896 46.1855 209.99 46.1777 210.088 46.1621C210.189 46.1426 210.266 46.127 210.316 46.1152L210.322 47C210.236 47.0273 210.123 47.0527 209.982 47.0762C209.846 47.1035 209.68 47.1172 209.484 47.1172C209.219 47.1172 208.975 47.0645 208.752 46.959C208.529 46.8535 208.352 46.6777 208.219 46.4316C208.09 46.1816 208.025 45.8457 208.025 45.4238V39.1191ZM212.742 40.6602V47H211.652V40.6602H212.742ZM211.57 38.9785C211.57 38.8027 211.623 38.6543 211.729 38.5332C211.838 38.4121 211.998 38.3516 212.209 38.3516C212.416 38.3516 212.574 38.4121 212.684 38.5332C212.797 38.6543 212.854 38.8027 212.854 38.9785C212.854 39.1465 212.797 39.291 212.684 39.4121C212.574 39.5293 212.416 39.5879 212.209 39.5879C211.998 39.5879 211.838 39.5293 211.729 39.4121C211.623 39.291 211.57 39.1465 211.57 38.9785ZM214.195 43.9004V43.7656C214.195 43.3086 214.262 42.8848 214.395 42.4941C214.527 42.0996 214.719 41.7578 214.969 41.4688C215.219 41.1758 215.521 40.9492 215.877 40.7891C216.232 40.625 216.631 40.543 217.072 40.543C217.518 40.543 217.918 40.625 218.273 40.7891C218.633 40.9492 218.938 41.1758 219.188 41.4688C219.441 41.7578 219.635 42.0996 219.768 42.4941C219.9 42.8848 219.967 43.3086 219.967 43.7656V43.9004C219.967 44.3574 219.9 44.7812 219.768 45.1719C219.635 45.5625 219.441 45.9043 219.188 46.1973C218.938 46.4863 218.635 46.7129 218.279 46.877C217.928 47.0371 217.529 47.1172 217.084 47.1172C216.639 47.1172 216.238 47.0371 215.883 46.877C215.527 46.7129 215.223 46.4863 214.969 46.1973C214.719 45.9043 214.527 45.5625 214.395 45.1719C214.262 44.7812 214.195 44.3574 214.195 43.9004ZM215.279 43.7656V43.9004C215.279 44.2168 215.316 44.5156 215.391 44.7969C215.465 45.0742 215.576 45.3203 215.725 45.5352C215.877 45.75 216.066 45.9199 216.293 46.0449C216.52 46.166 216.783 46.2266 217.084 46.2266C217.381 46.2266 217.641 46.166 217.863 46.0449C218.09 45.9199 218.277 45.75 218.426 45.5352C218.574 45.3203 218.686 45.0742 218.76 44.7969C218.838 44.5156 218.877 44.2168 218.877 43.9004V43.7656C218.877 43.4531 218.838 43.1582 218.76 42.8809C218.686 42.5996 218.572 42.3516 218.42 42.1367C218.271 41.918 218.084 41.7461 217.857 41.6211C217.635 41.4961 217.373 41.4336 217.072 41.4336C216.775 41.4336 216.514 41.4961 216.287 41.6211C216.064 41.7461 215.877 41.918 215.725 42.1367C215.576 42.3516 215.465 42.5996 215.391 42.8809C215.316 43.1582 215.279 43.4531 215.279 43.7656ZM222.41 42.0137V47H221.326V40.6602H222.352L222.41 42.0137ZM222.152 43.5898L221.701 43.5723C221.705 43.1387 221.77 42.7383 221.895 42.3711C222.02 42 222.195 41.6777 222.422 41.4043C222.648 41.1309 222.918 40.9199 223.23 40.7715C223.547 40.6191 223.896 40.543 224.279 40.543C224.592 40.543 224.873 40.5859 225.123 40.6719C225.373 40.7539 225.586 40.8867 225.762 41.0703C225.941 41.2539 226.078 41.4922 226.172 41.7852C226.266 42.0742 226.312 42.4277 226.312 42.8457V47H225.223V42.834C225.223 42.502 225.174 42.2363 225.076 42.0371C224.979 41.834 224.836 41.6875 224.648 41.5977C224.461 41.5039 224.23 41.457 223.957 41.457C223.688 41.457 223.441 41.5137 223.219 41.627C223 41.7402 222.811 41.8965 222.65 42.0957C222.494 42.2949 222.371 42.5234 222.281 42.7812C222.195 43.0352 222.152 43.3047 222.152 43.5898ZM232.23 38.4688V47H231.1V38.4688H232.23ZM235.805 42.3066V43.2324H231.984V42.3066H235.805ZM236.385 38.4688V39.3945H231.984V38.4688H236.385ZM237.152 43.9004V43.7656C237.152 43.3086 237.219 42.8848 237.352 42.4941C237.484 42.0996 237.676 41.7578 237.926 41.4688C238.176 41.1758 238.479 40.9492 238.834 40.7891C239.189 40.625 239.588 40.543 240.029 40.543C240.475 40.543 240.875 40.625 241.23 40.7891C241.59 40.9492 241.895 41.1758 242.145 41.4688C242.398 41.7578 242.592 42.0996 242.725 42.4941C242.857 42.8848 242.924 43.3086 242.924 43.7656V43.9004C242.924 44.3574 242.857 44.7812 242.725 45.1719C242.592 45.5625 242.398 45.9043 242.145 46.1973C241.895 46.4863 241.592 46.7129 241.236 46.877C240.885 47.0371 240.486 47.1172 240.041 47.1172C239.596 47.1172 239.195 47.0371 238.84 46.877C238.484 46.7129 238.18 46.4863 237.926 46.1973C237.676 45.9043 237.484 45.5625 237.352 45.1719C237.219 44.7812 237.152 44.3574 237.152 43.9004ZM238.236 43.7656V43.9004C238.236 44.2168 238.273 44.5156 238.348 44.7969C238.422 45.0742 238.533 45.3203 238.682 45.5352C238.834 45.75 239.023 45.9199 239.25 46.0449C239.477 46.166 239.74 46.2266 240.041 46.2266C240.338 46.2266 240.598 46.166 240.82 46.0449C241.047 45.9199 241.234 45.75 241.383 45.5352C241.531 45.3203 241.643 45.0742 241.717 44.7969C241.795 44.5156 241.834 44.2168 241.834 43.9004V43.7656C241.834 43.4531 241.795 43.1582 241.717 42.8809C241.643 42.5996 241.529 42.3516 241.377 42.1367C241.229 41.918 241.041 41.7461 240.814 41.6211C240.592 41.4961 240.33 41.4336 240.029 41.4336C239.732 41.4336 239.471 41.4961 239.244 41.6211C239.021 41.7461 238.834 41.918 238.682 42.1367C238.533 42.3516 238.422 42.5996 238.348 42.8809C238.273 43.1582 238.236 43.4531 238.236 43.7656ZM245.367 41.6562V47H244.283V40.6602H245.338L245.367 41.6562ZM247.348 40.625L247.342 41.6328C247.252 41.6133 247.166 41.6016 247.084 41.5977C247.006 41.5898 246.916 41.5859 246.814 41.5859C246.564 41.5859 246.344 41.625 246.152 41.7031C245.961 41.7812 245.799 41.8906 245.666 42.0312C245.533 42.1719 245.428 42.3398 245.35 42.5352C245.275 42.7266 245.227 42.9375 245.203 43.168L244.898 43.3438C244.898 42.9609 244.936 42.6016 245.01 42.2656C245.088 41.9297 245.207 41.6328 245.367 41.375C245.527 41.1133 245.73 40.9102 245.977 40.7656C246.227 40.6172 246.523 40.543 246.867 40.543C246.945 40.543 247.035 40.5527 247.137 40.5723C247.238 40.5879 247.309 40.6055 247.348 40.625ZM249.428 41.9199V47H248.338V40.6602H249.369L249.428 41.9199ZM249.205 43.5898L248.701 43.5723C248.705 43.1387 248.762 42.7383 248.871 42.3711C248.98 42 249.143 41.6777 249.357 41.4043C249.572 41.1309 249.84 40.9199 250.16 40.7715C250.48 40.6191 250.852 40.543 251.273 40.543C251.57 40.543 251.844 40.5859 252.094 40.6719C252.344 40.7539 252.561 40.8848 252.744 41.0645C252.928 41.2441 253.07 41.4746 253.172 41.7559C253.273 42.0371 253.324 42.377 253.324 42.7754V47H252.24V42.8281C252.24 42.4961 252.184 42.2305 252.07 42.0312C251.961 41.832 251.805 41.6875 251.602 41.5977C251.398 41.5039 251.16 41.457 250.887 41.457C250.566 41.457 250.299 41.5137 250.084 41.627C249.869 41.7402 249.697 41.8965 249.568 42.0957C249.439 42.2949 249.346 42.5234 249.287 42.7812C249.232 43.0352 249.205 43.3047 249.205 43.5898ZM253.312 42.9922L252.586 43.2148C252.59 42.8672 252.646 42.5332 252.756 42.2129C252.869 41.8926 253.031 41.6074 253.242 41.3574C253.457 41.1074 253.721 40.9102 254.033 40.7656C254.346 40.6172 254.703 40.543 255.105 40.543C255.445 40.543 255.746 40.5879 256.008 40.6777C256.273 40.7676 256.496 40.9062 256.676 41.0938C256.859 41.2773 256.998 41.5137 257.092 41.8027C257.186 42.0918 257.232 42.4355 257.232 42.834V47H256.143V42.8223C256.143 42.4668 256.086 42.1914 255.973 41.9961C255.863 41.7969 255.707 41.6582 255.504 41.5801C255.305 41.498 255.066 41.457 254.789 41.457C254.551 41.457 254.34 41.498 254.156 41.5801C253.973 41.6621 253.818 41.7754 253.693 41.9199C253.568 42.0605 253.473 42.2227 253.406 42.4062C253.344 42.5898 253.312 42.7852 253.312 42.9922ZM54.7852 57.5898V57.5312C54.7852 56.6797 54.8809 55.9102 55.0723 55.2227C55.2637 54.5312 55.5078 53.9258 55.8047 53.4062C56.1016 52.8867 56.4141 52.457 56.7422 52.1172C57.0703 51.7734 57.373 51.5254 57.6504 51.373L57.8789 52.0879C57.6484 52.2637 57.4141 52.5059 57.1758 52.8145C56.9414 53.123 56.7246 53.502 56.5254 53.9512C56.3301 54.4004 56.1719 54.9219 56.0508 55.5156C55.9297 56.1094 55.8691 56.7773 55.8691 57.5195V57.6016C55.8691 58.3438 55.9297 59.0137 56.0508 59.6113C56.1719 60.2051 56.3301 60.7285 56.5254 61.1816C56.7246 61.6348 56.9414 62.0195 57.1758 62.3359C57.4141 62.6562 57.6484 62.9102 57.8789 63.0977L57.6504 63.7539C57.373 63.6016 57.0703 63.3535 56.7422 63.0098C56.4141 62.6699 56.1016 62.2402 55.8047 61.7207C55.5078 61.2051 55.2637 60.6016 55.0723 59.9102C54.8809 59.2188 54.7852 58.4453 54.7852 57.5898ZM64.2539 58.2871H65.3789C65.3203 58.8262 65.166 59.3086 64.916 59.7344C64.666 60.1602 64.3125 60.498 63.8555 60.748C63.3984 60.9941 62.8281 61.1172 62.1445 61.1172C61.6445 61.1172 61.1895 61.0234 60.7793 60.8359C60.373 60.6484 60.0234 60.3828 59.7305 60.0391C59.4375 59.6914 59.2109 59.2754 59.0508 58.791C58.8945 58.3027 58.8164 57.7598 58.8164 57.1621V56.3125C58.8164 55.7148 58.8945 55.1738 59.0508 54.6895C59.2109 54.2012 59.4395 53.7832 59.7363 53.4355C60.0371 53.0879 60.3984 52.8203 60.8203 52.6328C61.2422 52.4453 61.7168 52.3516 62.2441 52.3516C62.8887 52.3516 63.4336 52.4727 63.8789 52.7148C64.3242 52.957 64.6699 53.293 64.916 53.7227C65.166 54.1484 65.3203 54.6426 65.3789 55.2051H64.2539C64.1992 54.8066 64.0977 54.4648 63.9492 54.1797C63.8008 53.8906 63.5898 53.668 63.3164 53.5117C63.043 53.3555 62.6855 53.2773 62.2441 53.2773C61.8652 53.2773 61.5312 53.3496 61.2422 53.4941C60.957 53.6387 60.7168 53.8438 60.5215 54.1094C60.3301 54.375 60.1855 54.6934 60.0879 55.0645C59.9902 55.4355 59.9414 55.8477 59.9414 56.3008V57.1621C59.9414 57.5801 59.9844 57.9727 60.0703 58.3398C60.1602 58.707 60.2949 59.0293 60.4746 59.3066C60.6543 59.584 60.8828 59.8027 61.1602 59.9629C61.4375 60.1191 61.7656 60.1973 62.1445 60.1973C62.625 60.1973 63.0078 60.1211 63.293 59.9688C63.5781 59.8164 63.793 59.5977 63.9375 59.3125C64.0859 59.0273 64.1914 58.6855 64.2539 58.2871ZM70.0781 53.2246L67.2539 61H66.0996L69.3516 52.4688H70.0957L70.0781 53.2246ZM72.4453 61L69.6152 53.2246L69.5977 52.4688H70.3418L73.6055 61H72.4453ZM72.2988 57.8418V58.7676H67.5059V57.8418H72.2988ZM75.8789 52.4688V61H74.748V52.4688H75.8789ZM79.4531 56.3066V57.2324H75.6328V56.3066H79.4531ZM80.0332 52.4688V53.3945H75.6328V52.4688H80.0332ZM83.7129 57.5312V57.5898C83.7129 58.4453 83.6172 59.2188 83.4258 59.9102C83.2344 60.6016 82.9902 61.2051 82.6934 61.7207C82.3965 62.2402 82.084 62.6699 81.7559 63.0098C81.4277 63.3535 81.125 63.6016 80.8477 63.7539L80.6191 63.0977C80.8496 62.9219 81.082 62.6758 81.3164 62.3594C81.5508 62.0469 81.7676 61.6602 81.9668 61.1992C82.166 60.7422 82.3262 60.2148 82.4473 59.6172C82.5684 59.0156 82.6289 58.3438 82.6289 57.6016V57.5195C82.6289 56.7773 82.5645 56.1074 82.4355 55.5098C82.3066 54.9082 82.1387 54.3789 81.9316 53.9219C81.7285 53.4648 81.5098 53.0801 81.2754 52.7676C81.0449 52.4512 80.8262 52.207 80.6191 52.0352L80.8477 51.373C81.125 51.5254 81.4277 51.7734 81.7559 52.1172C82.084 52.457 82.3965 52.8867 82.6934 53.4062C82.9902 53.9258 83.2344 54.5312 83.4258 55.2227C83.6172 55.9102 83.7129 56.6797 83.7129 57.5312ZM92.1152 59.916V56.6523C92.1152 56.4023 92.0645 56.1855 91.9629 56.002C91.8652 55.8145 91.7168 55.6699 91.5176 55.5684C91.3184 55.4668 91.0723 55.416 90.7793 55.416C90.5059 55.416 90.2656 55.4629 90.0586 55.5566C89.8555 55.6504 89.6953 55.7734 89.5781 55.9258C89.4648 56.0781 89.4082 56.2422 89.4082 56.418H88.3242C88.3242 56.1914 88.3828 55.9668 88.5 55.7441C88.6172 55.5215 88.7852 55.3203 89.0039 55.1406C89.2266 54.957 89.4922 54.8125 89.8008 54.707C90.1133 54.5977 90.4609 54.543 90.8438 54.543C91.3047 54.543 91.7109 54.6211 92.0625 54.7773C92.418 54.9336 92.6953 55.1699 92.8945 55.4863C93.0977 55.7988 93.1992 56.1914 93.1992 56.6641V59.6172C93.1992 59.8281 93.2168 60.0527 93.252 60.291C93.291 60.5293 93.3477 60.7344 93.4219 60.9062V61H92.291C92.2363 60.875 92.1934 60.709 92.1621 60.502C92.1309 60.291 92.1152 60.0957 92.1152 59.916ZM92.3027 57.1562L92.3145 57.918H91.2188C90.9102 57.918 90.6348 57.9434 90.3926 57.9941C90.1504 58.041 89.9473 58.1133 89.7832 58.2109C89.6191 58.3086 89.4941 58.4316 89.4082 58.5801C89.3223 58.7246 89.2793 58.8945 89.2793 59.0898C89.2793 59.2891 89.3242 59.4707 89.4141 59.6348C89.5039 59.7988 89.6387 59.9297 89.8184 60.0273C90.002 60.1211 90.2266 60.168 90.4922 60.168C90.8242 60.168 91.1172 60.0977 91.3711 59.957C91.625 59.8164 91.8262 59.6445 91.9746 59.4414C92.127 59.2383 92.209 59.041 92.2207 58.8496L92.6836 59.3711C92.6562 59.5352 92.582 59.7168 92.4609 59.916C92.3398 60.1152 92.1777 60.3066 91.9746 60.4902C91.7754 60.6699 91.5371 60.8203 91.2598 60.9414C90.9863 61.0586 90.6777 61.1172 90.334 61.1172C89.9043 61.1172 89.5273 61.0332 89.2031 60.8652C88.8828 60.6973 88.6328 60.4727 88.4531 60.1914C88.2773 59.9062 88.1895 59.5879 88.1895 59.2363C88.1895 58.8965 88.2559 58.5977 88.3887 58.3398C88.5215 58.0781 88.7129 57.8613 88.9629 57.6895C89.2129 57.5137 89.5137 57.3809 89.8652 57.291C90.2168 57.2012 90.6094 57.1562 91.043 57.1562H92.3027ZM95.9883 56.0137V61H94.9043V54.6602H95.9297L95.9883 56.0137ZM95.7305 57.5898L95.2793 57.5723C95.2832 57.1387 95.3477 56.7383 95.4727 56.3711C95.5977 56 95.7734 55.6777 96 55.4043C96.2266 55.1309 96.4961 54.9199 96.8086 54.7715C97.125 54.6191 97.4746 54.543 97.8574 54.543C98.1699 54.543 98.4512 54.5859 98.7012 54.6719C98.9512 54.7539 99.1641 54.8867 99.3398 55.0703C99.5195 55.2539 99.6562 55.4922 99.75 55.7852C99.8438 56.0742 99.8906 56.4277 99.8906 56.8457V61H98.8008V56.834C98.8008 56.502 98.752 56.2363 98.6543 56.0371C98.5566 55.834 98.4141 55.6875 98.2266 55.5977C98.0391 55.5039 97.8086 55.457 97.5352 55.457C97.2656 55.457 97.0195 55.5137 96.7969 55.627C96.5781 55.7402 96.3887 55.8965 96.2285 56.0957C96.0723 56.2949 95.9492 56.5234 95.8594 56.7812C95.7734 57.0352 95.7305 57.3047 95.7305 57.5898ZM105.533 59.7695V52H106.623V61H105.627L105.533 59.7695ZM101.268 57.9004V57.7773C101.268 57.293 101.326 56.8535 101.443 56.459C101.564 56.0605 101.734 55.7188 101.953 55.4336C102.176 55.1484 102.439 54.9297 102.744 54.7773C103.053 54.6211 103.396 54.543 103.775 54.543C104.174 54.543 104.521 54.6133 104.818 54.7539C105.119 54.8906 105.373 55.0918 105.58 55.3574C105.791 55.6191 105.957 55.9355 106.078 56.3066C106.199 56.6777 106.283 57.0977 106.33 57.5664V58.1055C106.287 58.5703 106.203 58.9883 106.078 59.3594C105.957 59.7305 105.791 60.0469 105.58 60.3086C105.373 60.5703 105.119 60.7715 104.818 60.9121C104.518 61.0488 104.166 61.1172 103.764 61.1172C103.393 61.1172 103.053 61.0371 102.744 60.877C102.439 60.7168 102.176 60.4922 101.953 60.2031C101.734 59.9141 101.564 59.5742 101.443 59.1836C101.326 58.7891 101.268 58.3613 101.268 57.9004ZM102.357 57.7773V57.9004C102.357 58.2168 102.389 58.5137 102.451 58.791C102.518 59.0684 102.619 59.3125 102.756 59.5234C102.893 59.7344 103.066 59.9004 103.277 60.0215C103.488 60.1387 103.74 60.1973 104.033 60.1973C104.393 60.1973 104.688 60.1211 104.918 59.9688C105.152 59.8164 105.34 59.6152 105.48 59.3652C105.621 59.1152 105.73 58.8438 105.809 58.5508V57.1387C105.762 56.9238 105.693 56.7168 105.604 56.5176C105.518 56.3145 105.404 56.1348 105.264 55.9785C105.127 55.8184 104.957 55.6914 104.754 55.5977C104.555 55.5039 104.318 55.457 104.045 55.457C103.748 55.457 103.492 55.5195 103.277 55.6445C103.066 55.7656 102.893 55.9336 102.756 56.1484C102.619 56.3594 102.518 56.6055 102.451 56.8867C102.389 57.1641 102.357 57.4609 102.357 57.7773ZM112.371 55.8789V63.4375H111.281V54.6602H112.277L112.371 55.8789ZM116.643 57.7773V57.9004C116.643 58.3613 116.588 58.7891 116.479 59.1836C116.369 59.5742 116.209 59.9141 115.998 60.2031C115.791 60.4922 115.535 60.7168 115.23 60.877C114.926 61.0371 114.576 61.1172 114.182 61.1172C113.779 61.1172 113.424 61.0508 113.115 60.918C112.807 60.7852 112.545 60.5918 112.33 60.3379C112.115 60.084 111.943 59.7793 111.814 59.4238C111.689 59.0684 111.604 58.668 111.557 58.2227V57.5664C111.604 57.0977 111.691 56.6777 111.82 56.3066C111.949 55.9355 112.119 55.6191 112.33 55.3574C112.545 55.0918 112.805 54.8906 113.109 54.7539C113.414 54.6133 113.766 54.543 114.164 54.543C114.562 54.543 114.916 54.6211 115.225 54.7773C115.533 54.9297 115.793 55.1484 116.004 55.4336C116.215 55.7188 116.373 56.0605 116.479 56.459C116.588 56.8535 116.643 57.293 116.643 57.7773ZM115.553 57.9004V57.7773C115.553 57.4609 115.52 57.1641 115.453 56.8867C115.387 56.6055 115.283 56.3594 115.143 56.1484C115.006 55.9336 114.83 55.7656 114.615 55.6445C114.4 55.5195 114.145 55.457 113.848 55.457C113.574 55.457 113.336 55.5039 113.133 55.5977C112.934 55.6914 112.764 55.8184 112.623 55.9785C112.482 56.1348 112.367 56.3145 112.277 56.5176C112.191 56.7168 112.127 56.9238 112.084 57.1387V58.6562C112.162 58.9297 112.271 59.1875 112.412 59.4297C112.553 59.668 112.74 59.8613 112.975 60.0098C113.209 60.1543 113.504 60.2266 113.859 60.2266C114.152 60.2266 114.404 60.166 114.615 60.0449C114.83 59.9199 115.006 59.75 115.143 59.5352C115.283 59.3203 115.387 59.0742 115.453 58.7969C115.52 58.5156 115.553 58.2168 115.553 57.9004ZM119.109 55.6562V61H118.025V54.6602H119.08L119.109 55.6562ZM121.09 54.625L121.084 55.6328C120.994 55.6133 120.908 55.6016 120.826 55.5977C120.748 55.5898 120.658 55.5859 120.557 55.5859C120.307 55.5859 120.086 55.625 119.895 55.7031C119.703 55.7812 119.541 55.8906 119.408 56.0312C119.275 56.1719 119.17 56.3398 119.092 56.5352C119.018 56.7266 118.969 56.9375 118.945 57.168L118.641 57.3438C118.641 56.9609 118.678 56.6016 118.752 56.2656C118.83 55.9297 118.949 55.6328 119.109 55.375C119.27 55.1133 119.473 54.9102 119.719 54.7656C119.969 54.6172 120.266 54.543 120.609 54.543C120.688 54.543 120.777 54.5527 120.879 54.5723C120.98 54.5879 121.051 54.6055 121.09 54.625ZM124.605 61.1172C124.164 61.1172 123.764 61.043 123.404 60.8945C123.049 60.7422 122.742 60.5293 122.484 60.2559C122.23 59.9824 122.035 59.6582 121.898 59.2832C121.762 58.9082 121.693 58.498 121.693 58.0527V57.8066C121.693 57.291 121.77 56.832 121.922 56.4297C122.074 56.0234 122.281 55.6797 122.543 55.3984C122.805 55.1172 123.102 54.9043 123.434 54.7598C123.766 54.6152 124.109 54.543 124.465 54.543C124.918 54.543 125.309 54.6211 125.637 54.7773C125.969 54.9336 126.24 55.1523 126.451 55.4336C126.662 55.7109 126.818 56.0391 126.92 56.418C127.021 56.793 127.072 57.2031 127.072 57.6484V58.1348H122.338V57.25H125.988V57.168C125.973 56.8867 125.914 56.6133 125.812 56.3477C125.715 56.082 125.559 55.8633 125.344 55.6914C125.129 55.5195 124.836 55.4336 124.465 55.4336C124.219 55.4336 123.992 55.4863 123.785 55.5918C123.578 55.6934 123.4 55.8457 123.252 56.0488C123.104 56.252 122.988 56.5 122.906 56.793C122.824 57.0859 122.783 57.4238 122.783 57.8066V58.0527C122.783 58.3535 122.824 58.6367 122.906 58.9023C122.992 59.1641 123.115 59.3945 123.275 59.5938C123.439 59.793 123.637 59.9492 123.867 60.0625C124.102 60.1758 124.367 60.2324 124.664 60.2324C125.047 60.2324 125.371 60.1543 125.637 59.998C125.902 59.8418 126.135 59.6328 126.334 59.3711L126.99 59.8926C126.854 60.0996 126.68 60.2969 126.469 60.4844C126.258 60.6719 125.998 60.8242 125.689 60.9414C125.385 61.0586 125.023 61.1172 124.605 61.1172ZM129.422 55.8789V63.4375H128.332V54.6602H129.328L129.422 55.8789ZM133.693 57.7773V57.9004C133.693 58.3613 133.639 58.7891 133.529 59.1836C133.42 59.5742 133.26 59.9141 133.049 60.2031C132.842 60.4922 132.586 60.7168 132.281 60.877C131.977 61.0371 131.627 61.1172 131.232 61.1172C130.83 61.1172 130.475 61.0508 130.166 60.918C129.857 60.7852 129.596 60.5918 129.381 60.3379C129.166 60.084 128.994 59.7793 128.865 59.4238C128.74 59.0684 128.654 58.668 128.607 58.2227V57.5664C128.654 57.0977 128.742 56.6777 128.871 56.3066C129 55.9355 129.17 55.6191 129.381 55.3574C129.596 55.0918 129.855 54.8906 130.16 54.7539C130.465 54.6133 130.816 54.543 131.215 54.543C131.613 54.543 131.967 54.6211 132.275 54.7773C132.584 54.9297 132.844 55.1484 133.055 55.4336C133.266 55.7188 133.424 56.0605 133.529 56.459C133.639 56.8535 133.693 57.293 133.693 57.7773ZM132.604 57.9004V57.7773C132.604 57.4609 132.57 57.1641 132.504 56.8867C132.438 56.6055 132.334 56.3594 132.193 56.1484C132.057 55.9336 131.881 55.7656 131.666 55.6445C131.451 55.5195 131.195 55.457 130.898 55.457C130.625 55.457 130.387 55.5039 130.184 55.5977C129.984 55.6914 129.814 55.8184 129.674 55.9785C129.533 56.1348 129.418 56.3145 129.328 56.5176C129.242 56.7168 129.178 56.9238 129.135 57.1387V58.6562C129.213 58.9297 129.322 59.1875 129.463 59.4297C129.604 59.668 129.791 59.8613 130.025 60.0098C130.26 60.1543 130.555 60.2266 130.91 60.2266C131.203 60.2266 131.455 60.166 131.666 60.0449C131.881 59.9199 132.057 59.75 132.193 59.5352C132.334 59.3203 132.438 59.0742 132.504 58.7969C132.57 58.5156 132.604 58.2168 132.604 57.9004ZM138.814 59.916V56.6523C138.814 56.4023 138.764 56.1855 138.662 56.002C138.564 55.8145 138.416 55.6699 138.217 55.5684C138.018 55.4668 137.771 55.416 137.479 55.416C137.205 55.416 136.965 55.4629 136.758 55.5566C136.555 55.6504 136.395 55.7734 136.277 55.9258C136.164 56.0781 136.107 56.2422 136.107 56.418H135.023C135.023 56.1914 135.082 55.9668 135.199 55.7441C135.316 55.5215 135.484 55.3203 135.703 55.1406C135.926 54.957 136.191 54.8125 136.5 54.707C136.812 54.5977 137.16 54.543 137.543 54.543C138.004 54.543 138.41 54.6211 138.762 54.7773C139.117 54.9336 139.395 55.1699 139.594 55.4863C139.797 55.7988 139.898 56.1914 139.898 56.6641V59.6172C139.898 59.8281 139.916 60.0527 139.951 60.291C139.99 60.5293 140.047 60.7344 140.121 60.9062V61H138.99C138.936 60.875 138.893 60.709 138.861 60.502C138.83 60.291 138.814 60.0957 138.814 59.916ZM139.002 57.1562L139.014 57.918H137.918C137.609 57.918 137.334 57.9434 137.092 57.9941C136.85 58.041 136.646 58.1133 136.482 58.2109C136.318 58.3086 136.193 58.4316 136.107 58.5801C136.021 58.7246 135.979 58.8945 135.979 59.0898C135.979 59.2891 136.023 59.4707 136.113 59.6348C136.203 59.7988 136.338 59.9297 136.518 60.0273C136.701 60.1211 136.926 60.168 137.191 60.168C137.523 60.168 137.816 60.0977 138.07 59.957C138.324 59.8164 138.525 59.6445 138.674 59.4414C138.826 59.2383 138.908 59.041 138.92 58.8496L139.383 59.3711C139.355 59.5352 139.281 59.7168 139.16 59.916C139.039 60.1152 138.877 60.3066 138.674 60.4902C138.475 60.6699 138.236 60.8203 137.959 60.9414C137.686 61.0586 137.377 61.1172 137.033 61.1172C136.604 61.1172 136.227 61.0332 135.902 60.8652C135.582 60.6973 135.332 60.4727 135.152 60.1914C134.977 59.9062 134.889 59.5879 134.889 59.2363C134.889 58.8965 134.955 58.5977 135.088 58.3398C135.221 58.0781 135.412 57.8613 135.662 57.6895C135.912 57.5137 136.213 57.3809 136.564 57.291C136.916 57.2012 137.309 57.1562 137.742 57.1562H139.002ZM142.688 55.6562V61H141.604V54.6602H142.658L142.688 55.6562ZM144.668 54.625L144.662 55.6328C144.572 55.6133 144.486 55.6016 144.404 55.5977C144.326 55.5898 144.236 55.5859 144.135 55.5859C143.885 55.5859 143.664 55.625 143.473 55.7031C143.281 55.7812 143.119 55.8906 142.986 56.0312C142.854 56.1719 142.748 56.3398 142.67 56.5352C142.596 56.7266 142.547 56.9375 142.523 57.168L142.219 57.3438C142.219 56.9609 142.256 56.6016 142.33 56.2656C142.408 55.9297 142.527 55.6328 142.688 55.375C142.848 55.1133 143.051 54.9102 143.297 54.7656C143.547 54.6172 143.844 54.543 144.188 54.543C144.266 54.543 144.355 54.5527 144.457 54.5723C144.559 54.5879 144.629 54.6055 144.668 54.625ZM148.184 61.1172C147.742 61.1172 147.342 61.043 146.982 60.8945C146.627 60.7422 146.32 60.5293 146.062 60.2559C145.809 59.9824 145.613 59.6582 145.477 59.2832C145.34 58.9082 145.271 58.498 145.271 58.0527V57.8066C145.271 57.291 145.348 56.832 145.5 56.4297C145.652 56.0234 145.859 55.6797 146.121 55.3984C146.383 55.1172 146.68 54.9043 147.012 54.7598C147.344 54.6152 147.688 54.543 148.043 54.543C148.496 54.543 148.887 54.6211 149.215 54.7773C149.547 54.9336 149.818 55.1523 150.029 55.4336C150.24 55.7109 150.396 56.0391 150.498 56.418C150.6 56.793 150.65 57.2031 150.65 57.6484V58.1348H145.916V57.25H149.566V57.168C149.551 56.8867 149.492 56.6133 149.391 56.3477C149.293 56.082 149.137 55.8633 148.922 55.6914C148.707 55.5195 148.414 55.4336 148.043 55.4336C147.797 55.4336 147.57 55.4863 147.363 55.5918C147.156 55.6934 146.979 55.8457 146.83 56.0488C146.682 56.252 146.566 56.5 146.484 56.793C146.402 57.0859 146.361 57.4238 146.361 57.8066V58.0527C146.361 58.3535 146.402 58.6367 146.484 58.9023C146.57 59.1641 146.693 59.3945 146.854 59.5938C147.018 59.793 147.215 59.9492 147.445 60.0625C147.68 60.1758 147.945 60.2324 148.242 60.2324C148.625 60.2324 148.949 60.1543 149.215 59.998C149.48 59.8418 149.713 59.6328 149.912 59.3711L150.568 59.8926C150.432 60.0996 150.258 60.2969 150.047 60.4844C149.836 60.6719 149.576 60.8242 149.268 60.9414C148.963 61.0586 148.602 61.1172 148.184 61.1172ZM156.51 61H155.426V53.9922C155.426 53.5352 155.508 53.1504 155.672 52.8379C155.84 52.5215 156.08 52.2832 156.393 52.123C156.705 51.959 157.076 51.877 157.506 51.877C157.631 51.877 157.756 51.8848 157.881 51.9004C158.01 51.916 158.135 51.9395 158.256 51.9707L158.197 52.8555C158.115 52.8359 158.021 52.8223 157.916 52.8145C157.814 52.8066 157.713 52.8027 157.611 52.8027C157.381 52.8027 157.182 52.8496 157.014 52.9434C156.85 53.0332 156.725 53.166 156.639 53.3418C156.553 53.5176 156.51 53.7344 156.51 53.9922V61ZM157.857 54.6602V55.4922H154.424V54.6602H157.857ZM158.777 57.9004V57.7656C158.777 57.3086 158.844 56.8848 158.977 56.4941C159.109 56.0996 159.301 55.7578 159.551 55.4688C159.801 55.1758 160.104 54.9492 160.459 54.7891C160.814 54.625 161.213 54.543 161.654 54.543C162.1 54.543 162.5 54.625 162.855 54.7891C163.215 54.9492 163.52 55.1758 163.77 55.4688C164.023 55.7578 164.217 56.0996 164.35 56.4941C164.482 56.8848 164.549 57.3086 164.549 57.7656V57.9004C164.549 58.3574 164.482 58.7812 164.35 59.1719C164.217 59.5625 164.023 59.9043 163.77 60.1973C163.52 60.4863 163.217 60.7129 162.861 60.877C162.51 61.0371 162.111 61.1172 161.666 61.1172C161.221 61.1172 160.82 61.0371 160.465 60.877C160.109 60.7129 159.805 60.4863 159.551 60.1973C159.301 59.9043 159.109 59.5625 158.977 59.1719C158.844 58.7812 158.777 58.3574 158.777 57.9004ZM159.861 57.7656V57.9004C159.861 58.2168 159.898 58.5156 159.973 58.7969C160.047 59.0742 160.158 59.3203 160.307 59.5352C160.459 59.75 160.648 59.9199 160.875 60.0449C161.102 60.166 161.365 60.2266 161.666 60.2266C161.963 60.2266 162.223 60.166 162.445 60.0449C162.672 59.9199 162.859 59.75 163.008 59.5352C163.156 59.3203 163.268 59.0742 163.342 58.7969C163.42 58.5156 163.459 58.2168 163.459 57.9004V57.7656C163.459 57.4531 163.42 57.1582 163.342 56.8809C163.268 56.5996 163.154 56.3516 163.002 56.1367C162.854 55.918 162.666 55.7461 162.439 55.6211C162.217 55.4961 161.955 55.4336 161.654 55.4336C161.357 55.4336 161.096 55.4961 160.869 55.6211C160.646 55.7461 160.459 55.918 160.307 56.1367C160.158 56.3516 160.047 56.5996 159.973 56.8809C159.898 57.1582 159.861 57.4531 159.861 57.7656ZM166.992 55.6562V61H165.908V54.6602H166.963L166.992 55.6562ZM168.973 54.625L168.967 55.6328C168.877 55.6133 168.791 55.6016 168.709 55.5977C168.631 55.5898 168.541 55.5859 168.439 55.5859C168.189 55.5859 167.969 55.625 167.777 55.7031C167.586 55.7812 167.424 55.8906 167.291 56.0312C167.158 56.1719 167.053 56.3398 166.975 56.5352C166.9 56.7266 166.852 56.9375 166.828 57.168L166.523 57.3438C166.523 56.9609 166.561 56.6016 166.635 56.2656C166.713 55.9297 166.832 55.6328 166.992 55.375C167.152 55.1133 167.355 54.9102 167.602 54.7656C167.852 54.6172 168.148 54.543 168.492 54.543C168.57 54.543 168.66 54.5527 168.762 54.5723C168.863 54.5879 168.934 54.6055 168.973 54.625ZM176.689 59.916V56.6523C176.689 56.4023 176.639 56.1855 176.537 56.002C176.439 55.8145 176.291 55.6699 176.092 55.5684C175.893 55.4668 175.646 55.416 175.354 55.416C175.08 55.416 174.84 55.4629 174.633 55.5566C174.43 55.6504 174.27 55.7734 174.152 55.9258C174.039 56.0781 173.982 56.2422 173.982 56.418H172.898C172.898 56.1914 172.957 55.9668 173.074 55.7441C173.191 55.5215 173.359 55.3203 173.578 55.1406C173.801 54.957 174.066 54.8125 174.375 54.707C174.688 54.5977 175.035 54.543 175.418 54.543C175.879 54.543 176.285 54.6211 176.637 54.7773C176.992 54.9336 177.27 55.1699 177.469 55.4863C177.672 55.7988 177.773 56.1914 177.773 56.6641V59.6172C177.773 59.8281 177.791 60.0527 177.826 60.291C177.865 60.5293 177.922 60.7344 177.996 60.9062V61H176.865C176.811 60.875 176.768 60.709 176.736 60.502C176.705 60.291 176.689 60.0957 176.689 59.916ZM176.877 57.1562L176.889 57.918H175.793C175.484 57.918 175.209 57.9434 174.967 57.9941C174.725 58.041 174.521 58.1133 174.357 58.2109C174.193 58.3086 174.068 58.4316 173.982 58.5801C173.896 58.7246 173.854 58.8945 173.854 59.0898C173.854 59.2891 173.898 59.4707 173.988 59.6348C174.078 59.7988 174.213 59.9297 174.393 60.0273C174.576 60.1211 174.801 60.168 175.066 60.168C175.398 60.168 175.691 60.0977 175.945 59.957C176.199 59.8164 176.4 59.6445 176.549 59.4414C176.701 59.2383 176.783 59.041 176.795 58.8496L177.258 59.3711C177.23 59.5352 177.156 59.7168 177.035 59.916C176.914 60.1152 176.752 60.3066 176.549 60.4902C176.35 60.6699 176.111 60.8203 175.834 60.9414C175.561 61.0586 175.252 61.1172 174.908 61.1172C174.479 61.1172 174.102 61.0332 173.777 60.8652C173.457 60.6973 173.207 60.4727 173.027 60.1914C172.852 59.9062 172.764 59.5879 172.764 59.2363C172.764 58.8965 172.83 58.5977 172.963 58.3398C173.096 58.0781 173.287 57.8613 173.537 57.6895C173.787 57.5137 174.088 57.3809 174.439 57.291C174.791 57.2012 175.184 57.1562 175.617 57.1562H176.877ZM183.357 59.5352V54.6602H184.447V61H183.41L183.357 59.5352ZM183.562 58.1992L184.014 58.1875C184.014 58.6094 183.969 59 183.879 59.3594C183.793 59.7148 183.652 60.0234 183.457 60.2852C183.262 60.5469 183.006 60.752 182.689 60.9004C182.373 61.0449 181.988 61.1172 181.535 61.1172C181.227 61.1172 180.943 61.0723 180.686 60.9824C180.432 60.8926 180.213 60.7539 180.029 60.5664C179.846 60.3789 179.703 60.1348 179.602 59.834C179.504 59.5332 179.455 59.1719 179.455 58.75V54.6602H180.539V58.7617C180.539 59.0469 180.57 59.2832 180.633 59.4707C180.699 59.6543 180.787 59.8008 180.896 59.9102C181.01 60.0156 181.135 60.0898 181.271 60.1328C181.412 60.1758 181.557 60.1973 181.705 60.1973C182.166 60.1973 182.531 60.1094 182.801 59.9336C183.07 59.7539 183.264 59.5137 183.381 59.2129C183.502 58.9082 183.562 58.5703 183.562 58.1992ZM188.637 60.2266C188.895 60.2266 189.133 60.1738 189.352 60.0684C189.57 59.9629 189.75 59.8184 189.891 59.6348C190.031 59.4473 190.111 59.2344 190.131 58.9961H191.162C191.143 59.3711 191.016 59.7207 190.781 60.0449C190.551 60.3652 190.248 60.625 189.873 60.8242C189.498 61.0195 189.086 61.1172 188.637 61.1172C188.16 61.1172 187.744 61.0332 187.389 60.8652C187.037 60.6973 186.744 60.4668 186.51 60.1738C186.279 59.8809 186.105 59.5449 185.988 59.166C185.875 58.7832 185.818 58.3789 185.818 57.9531V57.707C185.818 57.2812 185.875 56.8789 185.988 56.5C186.105 56.1172 186.279 55.7793 186.51 55.4863C186.744 55.1934 187.037 54.9629 187.389 54.7949C187.744 54.627 188.16 54.543 188.637 54.543C189.133 54.543 189.566 54.6445 189.938 54.8477C190.309 55.0469 190.6 55.3203 190.811 55.668C191.025 56.0117 191.143 56.4023 191.162 56.8398H190.131C190.111 56.5781 190.037 56.3418 189.908 56.1309C189.783 55.9199 189.611 55.752 189.393 55.627C189.178 55.498 188.926 55.4336 188.637 55.4336C188.305 55.4336 188.025 55.5 187.799 55.6328C187.576 55.7617 187.398 55.9375 187.266 56.1602C187.137 56.3789 187.043 56.623 186.984 56.8926C186.93 57.1582 186.902 57.4297 186.902 57.707V57.9531C186.902 58.2305 186.93 58.5039 186.984 58.7734C187.039 59.043 187.131 59.2871 187.26 59.5059C187.393 59.7246 187.57 59.9004 187.793 60.0332C188.02 60.1621 188.301 60.2266 188.637 60.2266ZM195.035 54.6602V55.4922H191.607V54.6602H195.035ZM192.768 53.1191H193.852V59.4297C193.852 59.6445 193.885 59.8066 193.951 59.916C194.018 60.0254 194.104 60.0977 194.209 60.1328C194.314 60.168 194.428 60.1855 194.549 60.1855C194.639 60.1855 194.732 60.1777 194.83 60.1621C194.932 60.1426 195.008 60.127 195.059 60.1152L195.064 61C194.979 61.0273 194.865 61.0527 194.725 61.0762C194.588 61.1035 194.422 61.1172 194.227 61.1172C193.961 61.1172 193.717 61.0645 193.494 60.959C193.271 60.8535 193.094 60.6777 192.961 60.4316C192.832 60.1816 192.768 59.8457 192.768 59.4238V53.1191ZM197.484 54.6602V61H196.395V54.6602H197.484ZM196.312 52.9785C196.312 52.8027 196.365 52.6543 196.471 52.5332C196.58 52.4121 196.74 52.3516 196.951 52.3516C197.158 52.3516 197.316 52.4121 197.426 52.5332C197.539 52.6543 197.596 52.8027 197.596 52.9785C197.596 53.1465 197.539 53.291 197.426 53.4121C197.316 53.5293 197.158 53.5879 196.951 53.5879C196.74 53.5879 196.58 53.5293 196.471 53.4121C196.365 53.291 196.312 53.1465 196.312 52.9785ZM198.938 57.9004V57.7656C198.938 57.3086 199.004 56.8848 199.137 56.4941C199.27 56.0996 199.461 55.7578 199.711 55.4688C199.961 55.1758 200.264 54.9492 200.619 54.7891C200.975 54.625 201.373 54.543 201.814 54.543C202.26 54.543 202.66 54.625 203.016 54.7891C203.375 54.9492 203.68 55.1758 203.93 55.4688C204.184 55.7578 204.377 56.0996 204.51 56.4941C204.643 56.8848 204.709 57.3086 204.709 57.7656V57.9004C204.709 58.3574 204.643 58.7812 204.51 59.1719C204.377 59.5625 204.184 59.9043 203.93 60.1973C203.68 60.4863 203.377 60.7129 203.021 60.877C202.67 61.0371 202.271 61.1172 201.826 61.1172C201.381 61.1172 200.98 61.0371 200.625 60.877C200.27 60.7129 199.965 60.4863 199.711 60.1973C199.461 59.9043 199.27 59.5625 199.137 59.1719C199.004 58.7812 198.938 58.3574 198.938 57.9004ZM200.021 57.7656V57.9004C200.021 58.2168 200.059 58.5156 200.133 58.7969C200.207 59.0742 200.318 59.3203 200.467 59.5352C200.619 59.75 200.809 59.9199 201.035 60.0449C201.262 60.166 201.525 60.2266 201.826 60.2266C202.123 60.2266 202.383 60.166 202.605 60.0449C202.832 59.9199 203.02 59.75 203.168 59.5352C203.316 59.3203 203.428 59.0742 203.502 58.7969C203.58 58.5156 203.619 58.2168 203.619 57.9004V57.7656C203.619 57.4531 203.58 57.1582 203.502 56.8809C203.428 56.5996 203.314 56.3516 203.162 56.1367C203.014 55.918 202.826 55.7461 202.6 55.6211C202.377 55.4961 202.115 55.4336 201.814 55.4336C201.518 55.4336 201.256 55.4961 201.029 55.6211C200.807 55.7461 200.619 55.918 200.467 56.1367C200.318 56.3516 200.207 56.5996 200.133 56.8809C200.059 57.1582 200.021 57.4531 200.021 57.7656ZM207.152 56.0137V61H206.068V54.6602H207.094L207.152 56.0137ZM206.895 57.5898L206.443 57.5723C206.447 57.1387 206.512 56.7383 206.637 56.3711C206.762 56 206.938 55.6777 207.164 55.4043C207.391 55.1309 207.66 54.9199 207.973 54.7715C208.289 54.6191 208.639 54.543 209.021 54.543C209.334 54.543 209.615 54.5859 209.865 54.6719C210.115 54.7539 210.328 54.8867 210.504 55.0703C210.684 55.2539 210.82 55.4922 210.914 55.7852C211.008 56.0742 211.055 56.4277 211.055 56.8457V61H209.965V56.834C209.965 56.502 209.916 56.2363 209.818 56.0371C209.721 55.834 209.578 55.6875 209.391 55.5977C209.203 55.5039 208.973 55.457 208.699 55.457C208.43 55.457 208.184 55.5137 207.961 55.627C207.742 55.7402 207.553 55.8965 207.393 56.0957C207.236 56.2949 207.113 56.5234 207.023 56.7812C206.938 57.0352 206.895 57.3047 206.895 57.5898ZM212.719 60.4258C212.719 60.2422 212.775 60.0879 212.889 59.9629C213.006 59.834 213.174 59.7695 213.393 59.7695C213.611 59.7695 213.777 59.834 213.891 59.9629C214.008 60.0879 214.066 60.2422 214.066 60.4258C214.066 60.6055 214.008 60.7578 213.891 60.8828C213.777 61.0078 213.611 61.0703 213.393 61.0703C213.174 61.0703 213.006 61.0078 212.889 60.8828C212.775 60.7578 212.719 60.6055 212.719 60.4258Z" fill="#091E25"/>
<path d="M333.017 80.13C345.221 80.13 351.549 73.237 351.549 60.581V53.575C351.549 45.552 349.063 39.789 342.396 37.303V37.077C348.498 34.817 351.21 29.619 351.21 21.144V18.319C351.21 5.66299 344.882 -1.23 333.017 -1.23C321.152 -1.23 314.824 5.776 314.824 18.432V22.613H326.576V17.415C326.576 12.217 328.949 10.07 332.565 10.07C336.181 10.07 338.78 12.33 338.78 17.98V23.743C338.78 30.071 335.955 32.105 331.322 32.105H326.802V43.405H330.983C336.633 43.405 339.119 46.117 339.119 53.462V59.903C339.119 66.909 336.633 68.83 332.678 68.83C328.723 68.83 326.237 66.683 326.237 61.033V54.027H314.485V60.468C314.485 73.124 320.813 80.13 333.017 80.13Z" fill="white"/>
</g>
<defs>
<clipPath id="clip0_0_1">
<rect width="375" height="919" fill="white" transform="translate(-15 -291)"/>
</clipPath>
</defs>
</svg>
