<svg width="345" height="79" viewBox="0 0 345 79" fill="none" xmlns="http://www.w3.org/2000/svg">
<g clip-path="url(#clip0_0_1)">
<rect width="375" height="919" transform="translate(-15 -197)" fill="white"/>
<rect width="345" height="79" rx="10" fill="#D7EEF0"/>
<path d="M29.2292 34.2917C28.6458 33.0625 27.3958 32.2083 25.9375 32.2083H21.25V30.125H33.75V32.2083H30.3542C30.8542 32.8125 31.2292 33.5208 31.4479 34.2917H33.75V36.375H31.6458C31.3854 39.2917 28.9271 41.5833 25.9375 41.5833H25.1771L32.1875 48.875H29.3021L22.2917 41.5833V39.5H25.9375C27.7708 39.5 29.2917 38.1458 29.5417 36.375H21.25V34.2917H29.2292Z" fill="white"/>
<path d="M58.7646 24.4521H56.2285V22.8525H58.7646C59.1566 22.8525 59.4756 22.7887 59.7217 22.6611C59.9678 22.529 60.1478 22.3467 60.2617 22.1143C60.3757 21.8818 60.4326 21.6198 60.4326 21.3281C60.4326 21.0319 60.3757 20.7562 60.2617 20.501C60.1478 20.2458 59.9678 20.0407 59.7217 19.8857C59.4756 19.7308 59.1566 19.6533 58.7646 19.6533H56.9395V28H54.8887V18.0469H58.7646C59.5439 18.0469 60.2116 18.1882 60.7676 18.4707C61.3281 18.7487 61.7565 19.1338 62.0527 19.626C62.349 20.1182 62.4971 20.681 62.4971 21.3145C62.4971 21.957 62.349 22.513 62.0527 22.9824C61.7565 23.4518 61.3281 23.8141 60.7676 24.0693C60.2116 24.3245 59.5439 24.4521 58.7646 24.4521ZM67.6992 26.332V23.0371C67.6992 22.8001 67.6605 22.5973 67.583 22.4287C67.5055 22.2555 67.3848 22.1211 67.2207 22.0254C67.0612 21.9297 66.8538 21.8818 66.5986 21.8818C66.3799 21.8818 66.1908 21.9206 66.0312 21.998C65.8717 22.071 65.7487 22.1781 65.6621 22.3193C65.5755 22.4561 65.5322 22.6178 65.5322 22.8047H63.5635C63.5635 22.4902 63.6364 22.1917 63.7822 21.9092C63.9281 21.6266 64.14 21.3783 64.418 21.1641C64.696 20.9453 65.0264 20.7744 65.4092 20.6514C65.7965 20.5283 66.2295 20.4668 66.708 20.4668C67.2822 20.4668 67.7926 20.5625 68.2393 20.7539C68.6859 20.9453 69.0368 21.2324 69.292 21.6152C69.5518 21.998 69.6816 22.4766 69.6816 23.0508V26.2158C69.6816 26.6214 69.7067 26.9541 69.7568 27.2139C69.807 27.4691 69.8799 27.6924 69.9756 27.8838V28H67.9863C67.8906 27.7995 67.8177 27.5488 67.7676 27.248C67.722 26.9427 67.6992 26.6374 67.6992 26.332ZM67.959 23.4951L67.9727 24.6094H66.8721C66.6123 24.6094 66.3867 24.639 66.1953 24.6982C66.0039 24.7575 65.8467 24.8418 65.7236 24.9512C65.6006 25.056 65.5094 25.179 65.4502 25.3203C65.3955 25.4616 65.3682 25.6165 65.3682 25.7852C65.3682 25.9538 65.4069 26.1064 65.4844 26.2432C65.5618 26.3753 65.6735 26.4801 65.8193 26.5576C65.9652 26.6305 66.1361 26.667 66.332 26.667C66.6283 26.667 66.8857 26.6077 67.1045 26.4893C67.3232 26.3708 67.4919 26.2249 67.6104 26.0518C67.7334 25.8786 67.7972 25.7145 67.8018 25.5596L68.3213 26.3936C68.2484 26.5804 68.1481 26.7741 68.0205 26.9746C67.8975 27.1751 67.7402 27.3643 67.5488 27.542C67.3574 27.7152 67.1273 27.8587 66.8584 27.9727C66.5895 28.082 66.2705 28.1367 65.9014 28.1367C65.432 28.1367 65.0059 28.0433 64.623 27.8564C64.2448 27.665 63.944 27.403 63.7207 27.0703C63.502 26.7331 63.3926 26.3503 63.3926 25.9219C63.3926 25.5345 63.4655 25.1904 63.6113 24.8896C63.7572 24.5889 63.9714 24.3359 64.2539 24.1309C64.541 23.9212 64.8988 23.764 65.3271 23.6592C65.7555 23.5498 66.2523 23.4951 66.8174 23.4951H67.959ZM73.2842 27.166L75.2461 20.6035H77.3584L74.3848 29.1143C74.321 29.3011 74.2344 29.5016 74.125 29.7158C74.0202 29.93 73.8766 30.1328 73.6943 30.3242C73.5166 30.5202 73.291 30.6797 73.0176 30.8027C72.7487 30.9258 72.4183 30.9873 72.0264 30.9873C71.8395 30.9873 71.6868 30.9759 71.5684 30.9531C71.4499 30.9303 71.3086 30.8984 71.1445 30.8574V29.415C71.1947 29.415 71.2471 29.415 71.3018 29.415C71.3564 29.4196 71.4089 29.4219 71.459 29.4219C71.7188 29.4219 71.9307 29.3923 72.0947 29.333C72.2588 29.2738 72.391 29.1826 72.4912 29.0596C72.5915 28.9411 72.6712 28.7861 72.7305 28.5947L73.2842 27.166ZM72.4639 20.6035L74.0703 25.9629L74.3506 28.0479L73.0107 28.1914L70.3516 20.6035H72.4639ZM88.4326 26.4004V28H83.1348V26.4004H88.4326ZM83.8047 18.0469V28H81.7539V18.0469H83.8047ZM87.7422 22.1006V23.6592H83.1348V22.1006H87.7422ZM88.4258 18.0469V19.6533H83.1348V18.0469H88.4258ZM90.5654 18.0469H92.3018L94.8584 25.3545L97.415 18.0469H99.1514L95.5557 28H94.1611L90.5654 18.0469ZM89.6289 18.0469H91.3584L91.6729 25.1699V28H89.6289V18.0469ZM98.3584 18.0469H100.095V28H98.0439V25.1699L98.3584 18.0469ZM104.948 28H102.781L102.795 26.4004H104.948C105.486 26.4004 105.939 26.2796 106.309 26.0381C106.678 25.792 106.956 25.4342 107.143 24.9648C107.334 24.4954 107.43 23.9281 107.43 23.2627V22.7773C107.43 22.2669 107.375 21.818 107.266 21.4307C107.161 21.0433 107.004 20.7174 106.794 20.4531C106.584 20.1888 106.327 19.9906 106.021 19.8584C105.716 19.7217 105.365 19.6533 104.969 19.6533H102.74V18.0469H104.969C105.634 18.0469 106.243 18.1608 106.794 18.3887C107.35 18.612 107.831 18.9333 108.236 19.3525C108.642 19.7718 108.954 20.2731 109.173 20.8564C109.396 21.4352 109.508 22.0801 109.508 22.791V23.2627C109.508 23.9691 109.396 24.6139 109.173 25.1973C108.954 25.7806 108.642 26.2819 108.236 26.7012C107.835 27.1159 107.354 27.4372 106.794 27.665C106.238 27.8883 105.623 28 104.948 28ZM103.943 18.0469V28H101.893V18.0469H103.943Z" fill="#091E25"/>
<path d="M58.1367 43.6543H55.8574V42.7344H58.1367C58.5781 42.7344 58.9355 42.6641 59.209 42.5234C59.4824 42.3828 59.6816 42.1875 59.8066 41.9375C59.9355 41.6875 60 41.4023 60 41.082C60 40.7891 59.9355 40.5137 59.8066 40.2559C59.6816 39.998 59.4824 39.791 59.209 39.6348C58.9355 39.4746 58.5781 39.3945 58.1367 39.3945H56.1211V47H54.9902V38.4688H58.1367C58.7812 38.4688 59.3262 38.5801 59.7715 38.8027C60.2168 39.0254 60.5547 39.334 60.7852 39.7285C61.0156 40.1191 61.1309 40.5664 61.1309 41.0703C61.1309 41.6172 61.0156 42.084 60.7852 42.4707C60.5547 42.8574 60.2168 43.1523 59.7715 43.3555C59.3262 43.5547 58.7812 43.6543 58.1367 43.6543ZM66.0645 45.916V42.6523C66.0645 42.4023 66.0137 42.1855 65.9121 42.002C65.8145 41.8145 65.666 41.6699 65.4668 41.5684C65.2676 41.4668 65.0215 41.416 64.7285 41.416C64.4551 41.416 64.2148 41.4629 64.0078 41.5566C63.8047 41.6504 63.6445 41.7734 63.5273 41.9258C63.4141 42.0781 63.3574 42.2422 63.3574 42.418H62.2734C62.2734 42.1914 62.332 41.9668 62.4492 41.7441C62.5664 41.5215 62.7344 41.3203 62.9531 41.1406C63.1758 40.957 63.4414 40.8125 63.75 40.707C64.0625 40.5977 64.4102 40.543 64.793 40.543C65.2539 40.543 65.6602 40.6211 66.0117 40.7773C66.3672 40.9336 66.6445 41.1699 66.8438 41.4863C67.0469 41.7988 67.1484 42.1914 67.1484 42.6641V45.6172C67.1484 45.8281 67.166 46.0527 67.2012 46.291C67.2402 46.5293 67.2969 46.7344 67.3711 46.9062V47H66.2402C66.1855 46.875 66.1426 46.709 66.1113 46.502C66.0801 46.291 66.0645 46.0957 66.0645 45.916ZM66.252 43.1562L66.2637 43.918H65.168C64.8594 43.918 64.584 43.9434 64.3418 43.9941C64.0996 44.041 63.8965 44.1133 63.7324 44.2109C63.5684 44.3086 63.4434 44.4316 63.3574 44.5801C63.2715 44.7246 63.2285 44.8945 63.2285 45.0898C63.2285 45.2891 63.2734 45.4707 63.3633 45.6348C63.4531 45.7988 63.5879 45.9297 63.7676 46.0273C63.9512 46.1211 64.1758 46.168 64.4414 46.168C64.7734 46.168 65.0664 46.0977 65.3203 45.957C65.5742 45.8164 65.7754 45.6445 65.9238 45.4414C66.0762 45.2383 66.1582 45.041 66.1699 44.8496L66.6328 45.3711C66.6055 45.5352 66.5312 45.7168 66.4102 45.916C66.2891 46.1152 66.127 46.3066 65.9238 46.4902C65.7246 46.6699 65.4863 46.8203 65.209 46.9414C64.9355 47.0586 64.627 47.1172 64.2832 47.1172C63.8535 47.1172 63.4766 47.0332 63.1523 46.8652C62.832 46.6973 62.582 46.4727 62.4023 46.1914C62.2266 45.9062 62.1387 45.5879 62.1387 45.2363C62.1387 44.8965 62.2051 44.5977 62.3379 44.3398C62.4707 44.0781 62.6621 43.8613 62.9121 43.6895C63.1621 43.5137 63.4629 43.3809 63.8145 43.291C64.166 43.2012 64.5586 43.1562 64.9922 43.1562H66.252ZM70.541 46.3438L72.3047 40.6602H73.4648L70.9219 47.9785C70.8633 48.1348 70.7852 48.3027 70.6875 48.4824C70.5938 48.666 70.4727 48.8398 70.3242 49.0039C70.1758 49.168 69.9961 49.3008 69.7852 49.4023C69.5781 49.5078 69.3301 49.5605 69.041 49.5605C68.9551 49.5605 68.8457 49.5488 68.7129 49.5254C68.5801 49.502 68.4863 49.4824 68.4316 49.4668L68.4258 48.5879C68.457 48.5918 68.5059 48.5957 68.5723 48.5996C68.6426 48.6074 68.6914 48.6113 68.7188 48.6113C68.9648 48.6113 69.1738 48.5781 69.3457 48.5117C69.5176 48.4492 69.6621 48.3418 69.7793 48.1895C69.9004 48.041 70.0039 47.8359 70.0898 47.5742L70.541 46.3438ZM69.2461 40.6602L70.8926 45.582L71.1738 46.7246L70.3945 47.123L68.0625 40.6602H69.2461ZM80.8652 38.4219V47H79.7812V39.7754L77.5957 40.5723V39.5938L80.6953 38.4219H80.8652ZM89.4082 42.0547V43.3555C89.4082 44.0547 89.3457 44.6445 89.2207 45.125C89.0957 45.6055 88.916 45.9922 88.6816 46.2852C88.4473 46.5781 88.1641 46.791 87.832 46.9238C87.5039 47.0527 87.1328 47.1172 86.7188 47.1172C86.3906 47.1172 86.0879 47.0762 85.8105 46.9941C85.5332 46.9121 85.2832 46.7812 85.0605 46.6016C84.8418 46.418 84.6543 46.1797 84.498 45.8867C84.3418 45.5938 84.2227 45.2383 84.1406 44.8203C84.0586 44.4023 84.0176 43.9141 84.0176 43.3555V42.0547C84.0176 41.3555 84.0801 40.7695 84.2051 40.2969C84.334 39.8242 84.5156 39.4453 84.75 39.1602C84.9844 38.8711 85.2656 38.6641 85.5938 38.5391C85.9258 38.4141 86.2969 38.3516 86.707 38.3516C87.0391 38.3516 87.3438 38.3926 87.6211 38.4746C87.9023 38.5527 88.1523 38.6797 88.3711 38.8555C88.5898 39.0273 88.7754 39.2578 88.9277 39.5469C89.084 39.832 89.2031 40.1816 89.2852 40.5957C89.3672 41.0098 89.4082 41.4961 89.4082 42.0547ZM88.3184 43.5312V41.873C88.3184 41.4902 88.2949 41.1543 88.248 40.8652C88.2051 40.5723 88.1406 40.3223 88.0547 40.1152C87.9688 39.9082 87.8594 39.7402 87.7266 39.6113C87.5977 39.4824 87.4473 39.3887 87.2754 39.3301C87.1074 39.2676 86.918 39.2363 86.707 39.2363C86.4492 39.2363 86.2207 39.2852 86.0215 39.3828C85.8223 39.4766 85.6543 39.627 85.5176 39.834C85.3848 40.041 85.2832 40.3125 85.2129 40.6484C85.1426 40.9844 85.1074 41.3926 85.1074 41.873V43.5312C85.1074 43.9141 85.1289 44.252 85.1719 44.5449C85.2188 44.8379 85.2871 45.0918 85.377 45.3066C85.4668 45.5176 85.5762 45.6914 85.7051 45.8281C85.834 45.9648 85.9824 46.0664 86.1504 46.1328C86.3223 46.1953 86.5117 46.2266 86.7188 46.2266C86.9844 46.2266 87.2168 46.1758 87.416 46.0742C87.6152 45.9727 87.7812 45.8145 87.9141 45.5996C88.0508 45.3809 88.1523 45.1016 88.2188 44.7617C88.2852 44.418 88.3184 44.0078 88.3184 43.5312ZM90.709 40.5605V40.1094C90.709 39.7852 90.7793 39.4902 90.9199 39.2246C91.0605 38.959 91.2617 38.7461 91.5234 38.5859C91.7852 38.4258 92.0957 38.3457 92.4551 38.3457C92.8223 38.3457 93.1348 38.4258 93.3926 38.5859C93.6543 38.7461 93.8555 38.959 93.9961 39.2246C94.1367 39.4902 94.207 39.7852 94.207 40.1094V40.5605C94.207 40.877 94.1367 41.168 93.9961 41.4336C93.8594 41.6992 93.6602 41.9121 93.3984 42.0723C93.1406 42.2324 92.8301 42.3125 92.4668 42.3125C92.1035 42.3125 91.7891 42.2324 91.5234 42.0723C91.2617 41.9121 91.0605 41.6992 90.9199 41.4336C90.7793 41.168 90.709 40.877 90.709 40.5605ZM91.5234 40.1094V40.5605C91.5234 40.7402 91.5566 40.9102 91.623 41.0703C91.6934 41.2305 91.7988 41.3613 91.9395 41.4629C92.0801 41.5605 92.2559 41.6094 92.4668 41.6094C92.6777 41.6094 92.8516 41.5605 92.9883 41.4629C93.125 41.3613 93.2266 41.2305 93.293 41.0703C93.3594 40.9102 93.3926 40.7402 93.3926 40.5605V40.1094C93.3926 39.9258 93.3574 39.7539 93.2871 39.5938C93.2207 39.4297 93.1172 39.2988 92.9766 39.2012C92.8398 39.0996 92.666 39.0488 92.4551 39.0488C92.248 39.0488 92.0742 39.0996 91.9336 39.2012C91.7969 39.2988 91.6934 39.4297 91.623 39.5938C91.5566 39.7539 91.5234 39.9258 91.5234 40.1094ZM94.8633 45.3652V44.9082C94.8633 44.5879 94.9336 44.2949 95.0742 44.0293C95.2148 43.7637 95.416 43.5508 95.6777 43.3906C95.9395 43.2305 96.25 43.1504 96.6094 43.1504C96.9766 43.1504 97.2891 43.2305 97.5469 43.3906C97.8086 43.5508 98.0098 43.7637 98.1504 44.0293C98.291 44.2949 98.3613 44.5879 98.3613 44.9082V45.3652C98.3613 45.6855 98.291 45.9785 98.1504 46.2441C98.0137 46.5098 97.8145 46.7227 97.5527 46.8828C97.2949 47.043 96.9844 47.123 96.6211 47.123C96.2578 47.123 95.9453 47.043 95.6836 46.8828C95.4219 46.7227 95.2188 46.5098 95.0742 46.2441C94.9336 45.9785 94.8633 45.6855 94.8633 45.3652ZM95.6777 44.9082V45.3652C95.6777 45.5449 95.7109 45.7168 95.7773 45.8809C95.8477 46.041 95.9531 46.1719 96.0938 46.2734C96.2344 46.3711 96.4102 46.4199 96.6211 46.4199C96.832 46.4199 97.0059 46.3711 97.1426 46.2734C97.2832 46.1719 97.3867 46.041 97.4531 45.8809C97.5195 45.7207 97.5527 45.5488 97.5527 45.3652V44.9082C97.5527 44.7246 97.5176 44.5527 97.4473 44.3926C97.3809 44.2324 97.2773 44.1035 97.1367 44.0059C97 43.9043 96.8242 43.8535 96.6094 43.8535C96.4023 43.8535 96.2285 43.9043 96.0879 44.0059C95.9512 44.1035 95.8477 44.2324 95.7773 44.3926C95.7109 44.5527 95.6777 44.7246 95.6777 44.9082ZM96.8789 39.6816L92.7129 46.3496L92.1035 45.9629L96.2695 39.2949L96.8789 39.6816ZM105.316 47.1172C104.875 47.1172 104.475 47.043 104.115 46.8945C103.76 46.7422 103.453 46.5293 103.195 46.2559C102.941 45.9824 102.746 45.6582 102.609 45.2832C102.473 44.9082 102.404 44.498 102.404 44.0527V43.8066C102.404 43.291 102.48 42.832 102.633 42.4297C102.785 42.0234 102.992 41.6797 103.254 41.3984C103.516 41.1172 103.812 40.9043 104.145 40.7598C104.477 40.6152 104.82 40.543 105.176 40.543C105.629 40.543 106.02 40.6211 106.348 40.7773C106.68 40.9336 106.951 41.1523 107.162 41.4336C107.373 41.7109 107.529 42.0391 107.631 42.418C107.732 42.793 107.783 43.2031 107.783 43.6484V44.1348H103.049V43.25H106.699V43.168C106.684 42.8867 106.625 42.6133 106.523 42.3477C106.426 42.082 106.27 41.8633 106.055 41.6914C105.84 41.5195 105.547 41.4336 105.176 41.4336C104.93 41.4336 104.703 41.4863 104.496 41.5918C104.289 41.6934 104.111 41.8457 103.963 42.0488C103.814 42.252 103.699 42.5 103.617 42.793C103.535 43.0859 103.494 43.4238 103.494 43.8066V44.0527C103.494 44.3535 103.535 44.6367 103.617 44.9023C103.703 45.1641 103.826 45.3945 103.986 45.5938C104.15 45.793 104.348 45.9492 104.578 46.0625C104.812 46.1758 105.078 46.2324 105.375 46.2324C105.758 46.2324 106.082 46.1543 106.348 45.998C106.613 45.8418 106.846 45.6328 107.045 45.3711L107.701 45.8926C107.564 46.0996 107.391 46.2969 107.18 46.4844C106.969 46.6719 106.709 46.8242 106.4 46.9414C106.096 47.0586 105.734 47.1172 105.316 47.1172ZM112.787 45.916V42.6523C112.787 42.4023 112.736 42.1855 112.635 42.002C112.537 41.8145 112.389 41.6699 112.189 41.5684C111.99 41.4668 111.744 41.416 111.451 41.416C111.178 41.416 110.938 41.4629 110.73 41.5566C110.527 41.6504 110.367 41.7734 110.25 41.9258C110.137 42.0781 110.08 42.2422 110.08 42.418H108.996C108.996 42.1914 109.055 41.9668 109.172 41.7441C109.289 41.5215 109.457 41.3203 109.676 41.1406C109.898 40.957 110.164 40.8125 110.473 40.707C110.785 40.5977 111.133 40.543 111.516 40.543C111.977 40.543 112.383 40.6211 112.734 40.7773C113.09 40.9336 113.367 41.1699 113.566 41.4863C113.77 41.7988 113.871 42.1914 113.871 42.6641V45.6172C113.871 45.8281 113.889 46.0527 113.924 46.291C113.963 46.5293 114.02 46.7344 114.094 46.9062V47H112.963C112.908 46.875 112.865 46.709 112.834 46.502C112.803 46.291 112.787 46.0957 112.787 45.916ZM112.975 43.1562L112.986 43.918H111.891C111.582 43.918 111.307 43.9434 111.064 43.9941C110.822 44.041 110.619 44.1133 110.455 44.2109C110.291 44.3086 110.166 44.4316 110.08 44.5801C109.994 44.7246 109.951 44.8945 109.951 45.0898C109.951 45.2891 109.996 45.4707 110.086 45.6348C110.176 45.7988 110.311 45.9297 110.49 46.0273C110.674 46.1211 110.898 46.168 111.164 46.168C111.496 46.168 111.789 46.0977 112.043 45.957C112.297 45.8164 112.498 45.6445 112.646 45.4414C112.799 45.2383 112.881 45.041 112.893 44.8496L113.355 45.3711C113.328 45.5352 113.254 45.7168 113.133 45.916C113.012 46.1152 112.85 46.3066 112.646 46.4902C112.447 46.6699 112.209 46.8203 111.932 46.9414C111.658 47.0586 111.35 47.1172 111.006 47.1172C110.576 47.1172 110.199 47.0332 109.875 46.8652C109.555 46.6973 109.305 46.4727 109.125 46.1914C108.949 45.9062 108.861 45.5879 108.861 45.2363C108.861 44.8965 108.928 44.5977 109.061 44.3398C109.193 44.0781 109.385 43.8613 109.635 43.6895C109.885 43.5137 110.186 43.3809 110.537 43.291C110.889 43.2012 111.281 43.1562 111.715 43.1562H112.975ZM116.66 41.6562V47H115.576V40.6602H116.631L116.66 41.6562ZM118.641 40.625L118.635 41.6328C118.545 41.6133 118.459 41.6016 118.377 41.5977C118.299 41.5898 118.209 41.5859 118.107 41.5859C117.857 41.5859 117.637 41.625 117.445 41.7031C117.254 41.7812 117.092 41.8906 116.959 42.0312C116.826 42.1719 116.721 42.3398 116.643 42.5352C116.568 42.7266 116.52 42.9375 116.496 43.168L116.191 43.3438C116.191 42.9609 116.229 42.6016 116.303 42.2656C116.381 41.9297 116.5 41.6328 116.66 41.375C116.82 41.1133 117.023 40.9102 117.27 40.7656C117.52 40.6172 117.816 40.543 118.16 40.543C118.238 40.543 118.328 40.5527 118.43 40.5723C118.531 40.5879 118.602 40.6055 118.641 40.625ZM120.727 42.0137V47H119.643V40.6602H120.668L120.727 42.0137ZM120.469 43.5898L120.018 43.5723C120.021 43.1387 120.086 42.7383 120.211 42.3711C120.336 42 120.512 41.6777 120.738 41.4043C120.965 41.1309 121.234 40.9199 121.547 40.7715C121.863 40.6191 122.213 40.543 122.596 40.543C122.908 40.543 123.189 40.5859 123.439 40.6719C123.689 40.7539 123.902 40.8867 124.078 41.0703C124.258 41.2539 124.395 41.4922 124.488 41.7852C124.582 42.0742 124.629 42.4277 124.629 42.8457V47H123.539V42.834C123.539 42.502 123.49 42.2363 123.393 42.0371C123.295 41.834 123.152 41.6875 122.965 41.5977C122.777 41.5039 122.547 41.457 122.273 41.457C122.004 41.457 121.758 41.5137 121.535 41.627C121.316 41.7402 121.127 41.8965 120.967 42.0957C120.811 42.2949 120.688 42.5234 120.598 42.7812C120.512 43.0352 120.469 43.3047 120.469 43.5898ZM128.906 47.1172C128.465 47.1172 128.064 47.043 127.705 46.8945C127.35 46.7422 127.043 46.5293 126.785 46.2559C126.531 45.9824 126.336 45.6582 126.199 45.2832C126.062 44.9082 125.994 44.498 125.994 44.0527V43.8066C125.994 43.291 126.07 42.832 126.223 42.4297C126.375 42.0234 126.582 41.6797 126.844 41.3984C127.105 41.1172 127.402 40.9043 127.734 40.7598C128.066 40.6152 128.41 40.543 128.766 40.543C129.219 40.543 129.609 40.6211 129.938 40.7773C130.27 40.9336 130.541 41.1523 130.752 41.4336C130.963 41.7109 131.119 42.0391 131.221 42.418C131.322 42.793 131.373 43.2031 131.373 43.6484V44.1348H126.639V43.25H130.289V43.168C130.273 42.8867 130.215 42.6133 130.113 42.3477C130.016 42.082 129.859 41.8633 129.645 41.6914C129.43 41.5195 129.137 41.4336 128.766 41.4336C128.52 41.4336 128.293 41.4863 128.086 41.5918C127.879 41.6934 127.701 41.8457 127.553 42.0488C127.404 42.252 127.289 42.5 127.207 42.793C127.125 43.0859 127.084 43.4238 127.084 43.8066V44.0527C127.084 44.3535 127.125 44.6367 127.207 44.9023C127.293 45.1641 127.416 45.3945 127.576 45.5938C127.74 45.793 127.938 45.9492 128.168 46.0625C128.402 46.1758 128.668 46.2324 128.965 46.2324C129.348 46.2324 129.672 46.1543 129.938 45.998C130.203 45.8418 130.436 45.6328 130.635 45.3711L131.291 45.8926C131.154 46.0996 130.98 46.2969 130.77 46.4844C130.559 46.6719 130.299 46.8242 129.99 46.9414C129.686 47.0586 129.324 47.1172 128.906 47.1172ZM136.33 45.3184C136.33 45.1621 136.295 45.0176 136.225 44.8848C136.158 44.748 136.02 44.625 135.809 44.5156C135.602 44.4023 135.289 44.3047 134.871 44.2227C134.52 44.1484 134.201 44.0605 133.916 43.959C133.635 43.8574 133.395 43.7344 133.195 43.5898C133 43.4453 132.85 43.2754 132.744 43.0801C132.639 42.8848 132.586 42.6562 132.586 42.3945C132.586 42.1445 132.641 41.9082 132.75 41.6855C132.863 41.4629 133.021 41.2656 133.225 41.0938C133.432 40.9219 133.68 40.7871 133.969 40.6895C134.258 40.5918 134.58 40.543 134.936 40.543C135.443 40.543 135.877 40.6328 136.236 40.8125C136.596 40.9922 136.871 41.2324 137.062 41.5332C137.254 41.8301 137.35 42.1602 137.35 42.5234H136.266C136.266 42.3477 136.213 42.1777 136.107 42.0137C136.006 41.8457 135.855 41.707 135.656 41.5977C135.461 41.4883 135.221 41.4336 134.936 41.4336C134.635 41.4336 134.391 41.4805 134.203 41.5742C134.02 41.6641 133.885 41.7793 133.799 41.9199C133.717 42.0605 133.676 42.209 133.676 42.3652C133.676 42.4824 133.695 42.5879 133.734 42.6816C133.777 42.7715 133.852 42.8555 133.957 42.9336C134.062 43.0078 134.211 43.0781 134.402 43.1445C134.594 43.2109 134.838 43.2773 135.135 43.3438C135.654 43.4609 136.082 43.6016 136.418 43.7656C136.754 43.9297 137.004 44.1309 137.168 44.3691C137.332 44.6074 137.414 44.8965 137.414 45.2363C137.414 45.5137 137.355 45.7676 137.238 45.998C137.125 46.2285 136.959 46.4277 136.74 46.5957C136.525 46.7598 136.268 46.8887 135.967 46.9824C135.67 47.0723 135.336 47.1172 134.965 47.1172C134.406 47.1172 133.934 47.0176 133.547 46.8184C133.16 46.6191 132.867 46.3613 132.668 46.0449C132.469 45.7285 132.369 45.3945 132.369 45.043H133.459C133.475 45.3398 133.561 45.5762 133.717 45.752C133.873 45.9238 134.064 46.0469 134.291 46.1211C134.518 46.1914 134.742 46.2266 134.965 46.2266C135.262 46.2266 135.51 46.1875 135.709 46.1094C135.912 46.0312 136.066 45.9238 136.172 45.7871C136.277 45.6504 136.33 45.4941 136.33 45.3184ZM141.492 40.6602V41.4922H138.064V40.6602H141.492ZM139.225 39.1191H140.309V45.4297C140.309 45.6445 140.342 45.8066 140.408 45.916C140.475 46.0254 140.561 46.0977 140.666 46.1328C140.771 46.168 140.885 46.1855 141.006 46.1855C141.096 46.1855 141.189 46.1777 141.287 46.1621C141.389 46.1426 141.465 46.127 141.516 46.1152L141.521 47C141.436 47.0273 141.322 47.0527 141.182 47.0762C141.045 47.1035 140.879 47.1172 140.684 47.1172C140.418 47.1172 140.174 47.0645 139.951 46.959C139.729 46.8535 139.551 46.6777 139.418 46.4316C139.289 46.1816 139.225 45.8457 139.225 45.4238V39.1191ZM146.818 41.9199V47H145.729V40.6602H146.76L146.818 41.9199ZM146.596 43.5898L146.092 43.5723C146.096 43.1387 146.152 42.7383 146.262 42.3711C146.371 42 146.533 41.6777 146.748 41.4043C146.963 41.1309 147.23 40.9199 147.551 40.7715C147.871 40.6191 148.242 40.543 148.664 40.543C148.961 40.543 149.234 40.5859 149.484 40.6719C149.734 40.7539 149.951 40.8848 150.135 41.0645C150.318 41.2441 150.461 41.4746 150.562 41.7559C150.664 42.0371 150.715 42.377 150.715 42.7754V47H149.631V42.8281C149.631 42.4961 149.574 42.2305 149.461 42.0312C149.352 41.832 149.195 41.6875 148.992 41.5977C148.789 41.5039 148.551 41.457 148.277 41.457C147.957 41.457 147.689 41.5137 147.475 41.627C147.26 41.7402 147.088 41.8965 146.959 42.0957C146.83 42.2949 146.736 42.5234 146.678 42.7812C146.623 43.0352 146.596 43.3047 146.596 43.5898ZM150.703 42.9922L149.977 43.2148C149.98 42.8672 150.037 42.5332 150.146 42.2129C150.26 41.8926 150.422 41.6074 150.633 41.3574C150.848 41.1074 151.111 40.9102 151.424 40.7656C151.736 40.6172 152.094 40.543 152.496 40.543C152.836 40.543 153.137 40.5879 153.398 40.6777C153.664 40.7676 153.887 40.9062 154.066 41.0938C154.25 41.2773 154.389 41.5137 154.482 41.8027C154.576 42.0918 154.623 42.4355 154.623 42.834V47H153.533V42.8223C153.533 42.4668 153.477 42.1914 153.363 41.9961C153.254 41.7969 153.098 41.6582 152.895 41.5801C152.695 41.498 152.457 41.457 152.18 41.457C151.941 41.457 151.73 41.498 151.547 41.5801C151.363 41.6621 151.209 41.7754 151.084 41.9199C150.959 42.0605 150.863 42.2227 150.797 42.4062C150.734 42.5898 150.703 42.7852 150.703 42.9922ZM155.977 43.9004V43.7656C155.977 43.3086 156.043 42.8848 156.176 42.4941C156.309 42.0996 156.5 41.7578 156.75 41.4688C157 41.1758 157.303 40.9492 157.658 40.7891C158.014 40.625 158.412 40.543 158.854 40.543C159.299 40.543 159.699 40.625 160.055 40.7891C160.414 40.9492 160.719 41.1758 160.969 41.4688C161.223 41.7578 161.416 42.0996 161.549 42.4941C161.682 42.8848 161.748 43.3086 161.748 43.7656V43.9004C161.748 44.3574 161.682 44.7812 161.549 45.1719C161.416 45.5625 161.223 45.9043 160.969 46.1973C160.719 46.4863 160.416 46.7129 160.061 46.877C159.709 47.0371 159.311 47.1172 158.865 47.1172C158.42 47.1172 158.02 47.0371 157.664 46.877C157.309 46.7129 157.004 46.4863 156.75 46.1973C156.5 45.9043 156.309 45.5625 156.176 45.1719C156.043 44.7812 155.977 44.3574 155.977 43.9004ZM157.061 43.7656V43.9004C157.061 44.2168 157.098 44.5156 157.172 44.7969C157.246 45.0742 157.357 45.3203 157.506 45.5352C157.658 45.75 157.848 45.9199 158.074 46.0449C158.301 46.166 158.564 46.2266 158.865 46.2266C159.162 46.2266 159.422 46.166 159.645 46.0449C159.871 45.9199 160.059 45.75 160.207 45.5352C160.355 45.3203 160.467 45.0742 160.541 44.7969C160.619 44.5156 160.658 44.2168 160.658 43.9004V43.7656C160.658 43.4531 160.619 43.1582 160.541 42.8809C160.467 42.5996 160.354 42.3516 160.201 42.1367C160.053 41.918 159.865 41.7461 159.639 41.6211C159.416 41.4961 159.154 41.4336 158.854 41.4336C158.557 41.4336 158.295 41.4961 158.068 41.6211C157.846 41.7461 157.658 41.918 157.506 42.1367C157.357 42.3516 157.246 42.5996 157.172 42.8809C157.098 43.1582 157.061 43.4531 157.061 43.7656ZM164.191 42.0137V47H163.107V40.6602H164.133L164.191 42.0137ZM163.934 43.5898L163.482 43.5723C163.486 43.1387 163.551 42.7383 163.676 42.3711C163.801 42 163.977 41.6777 164.203 41.4043C164.43 41.1309 164.699 40.9199 165.012 40.7715C165.328 40.6191 165.678 40.543 166.061 40.543C166.373 40.543 166.654 40.5859 166.904 40.6719C167.154 40.7539 167.367 40.8867 167.543 41.0703C167.723 41.2539 167.859 41.4922 167.953 41.7852C168.047 42.0742 168.094 42.4277 168.094 42.8457V47H167.004V42.834C167.004 42.502 166.955 42.2363 166.857 42.0371C166.76 41.834 166.617 41.6875 166.43 41.5977C166.242 41.5039 166.012 41.457 165.738 41.457C165.469 41.457 165.223 41.5137 165 41.627C164.781 41.7402 164.592 41.8965 164.432 42.0957C164.275 42.2949 164.152 42.5234 164.062 42.7812C163.977 43.0352 163.934 43.3047 163.934 43.5898ZM172.371 47.1172C171.93 47.1172 171.529 47.043 171.17 46.8945C170.814 46.7422 170.508 46.5293 170.25 46.2559C169.996 45.9824 169.801 45.6582 169.664 45.2832C169.527 44.9082 169.459 44.498 169.459 44.0527V43.8066C169.459 43.291 169.535 42.832 169.688 42.4297C169.84 42.0234 170.047 41.6797 170.309 41.3984C170.57 41.1172 170.867 40.9043 171.199 40.7598C171.531 40.6152 171.875 40.543 172.23 40.543C172.684 40.543 173.074 40.6211 173.402 40.7773C173.734 40.9336 174.006 41.1523 174.217 41.4336C174.428 41.7109 174.584 42.0391 174.686 42.418C174.787 42.793 174.838 43.2031 174.838 43.6484V44.1348H170.104V43.25H173.754V43.168C173.738 42.8867 173.68 42.6133 173.578 42.3477C173.48 42.082 173.324 41.8633 173.109 41.6914C172.895 41.5195 172.602 41.4336 172.23 41.4336C171.984 41.4336 171.758 41.4863 171.551 41.5918C171.344 41.6934 171.166 41.8457 171.018 42.0488C170.869 42.252 170.754 42.5 170.672 42.793C170.59 43.0859 170.549 43.4238 170.549 43.8066V44.0527C170.549 44.3535 170.59 44.6367 170.672 44.9023C170.758 45.1641 170.881 45.3945 171.041 45.5938C171.205 45.793 171.402 45.9492 171.633 46.0625C171.867 46.1758 172.133 46.2324 172.43 46.2324C172.812 46.2324 173.137 46.1543 173.402 45.998C173.668 45.8418 173.9 45.6328 174.1 45.3711L174.756 45.8926C174.619 46.0996 174.445 46.2969 174.234 46.4844C174.023 46.6719 173.764 46.8242 173.455 46.9414C173.15 47.0586 172.789 47.1172 172.371 47.1172ZM177.803 46.3438L179.566 40.6602H180.727L178.184 47.9785C178.125 48.1348 178.047 48.3027 177.949 48.4824C177.855 48.666 177.734 48.8398 177.586 49.0039C177.438 49.168 177.258 49.3008 177.047 49.4023C176.84 49.5078 176.592 49.5605 176.303 49.5605C176.217 49.5605 176.107 49.5488 175.975 49.5254C175.842 49.502 175.748 49.4824 175.693 49.4668L175.688 48.5879C175.719 48.5918 175.768 48.5957 175.834 48.5996C175.904 48.6074 175.953 48.6113 175.98 48.6113C176.227 48.6113 176.436 48.5781 176.607 48.5117C176.779 48.4492 176.924 48.3418 177.041 48.1895C177.162 48.041 177.266 47.8359 177.352 47.5742L177.803 46.3438ZM176.508 40.6602L178.154 45.582L178.436 46.7246L177.656 47.123L175.324 40.6602H176.508ZM188.678 45.7695V38H189.768V47H188.771L188.678 45.7695ZM184.412 43.9004V43.7773C184.412 43.293 184.471 42.8535 184.588 42.459C184.709 42.0605 184.879 41.7188 185.098 41.4336C185.32 41.1484 185.584 40.9297 185.889 40.7773C186.197 40.6211 186.541 40.543 186.92 40.543C187.318 40.543 187.666 40.6133 187.963 40.7539C188.264 40.8906 188.518 41.0918 188.725 41.3574C188.936 41.6191 189.102 41.9355 189.223 42.3066C189.344 42.6777 189.428 43.0977 189.475 43.5664V44.1055C189.432 44.5703 189.348 44.9883 189.223 45.3594C189.102 45.7305 188.936 46.0469 188.725 46.3086C188.518 46.5703 188.264 46.7715 187.963 46.9121C187.662 47.0488 187.311 47.1172 186.908 47.1172C186.537 47.1172 186.197 47.0371 185.889 46.877C185.584 46.7168 185.32 46.4922 185.098 46.2031C184.879 45.9141 184.709 45.5742 184.588 45.1836C184.471 44.7891 184.412 44.3613 184.412 43.9004ZM185.502 43.7773V43.9004C185.502 44.2168 185.533 44.5137 185.596 44.791C185.662 45.0684 185.764 45.3125 185.9 45.5234C186.037 45.7344 186.211 45.9004 186.422 46.0215C186.633 46.1387 186.885 46.1973 187.178 46.1973C187.537 46.1973 187.832 46.1211 188.062 45.9688C188.297 45.8164 188.484 45.6152 188.625 45.3652C188.766 45.1152 188.875 44.8438 188.953 44.5508V43.1387C188.906 42.9238 188.838 42.7168 188.748 42.5176C188.662 42.3145 188.549 42.1348 188.408 41.9785C188.271 41.8184 188.102 41.6914 187.898 41.5977C187.699 41.5039 187.463 41.457 187.189 41.457C186.893 41.457 186.637 41.5195 186.422 41.6445C186.211 41.7656 186.037 41.9336 185.9 42.1484C185.764 42.3594 185.662 42.6055 185.596 42.8867C185.533 43.1641 185.502 43.4609 185.502 43.7773ZM194.086 47.1172C193.645 47.1172 193.244 47.043 192.885 46.8945C192.529 46.7422 192.223 46.5293 191.965 46.2559C191.711 45.9824 191.516 45.6582 191.379 45.2832C191.242 44.9082 191.174 44.498 191.174 44.0527V43.8066C191.174 43.291 191.25 42.832 191.402 42.4297C191.555 42.0234 191.762 41.6797 192.023 41.3984C192.285 41.1172 192.582 40.9043 192.914 40.7598C193.246 40.6152 193.59 40.543 193.945 40.543C194.398 40.543 194.789 40.6211 195.117 40.7773C195.449 40.9336 195.721 41.1523 195.932 41.4336C196.143 41.7109 196.299 42.0391 196.4 42.418C196.502 42.793 196.553 43.2031 196.553 43.6484V44.1348H191.818V43.25H195.469V43.168C195.453 42.8867 195.395 42.6133 195.293 42.3477C195.195 42.082 195.039 41.8633 194.824 41.6914C194.609 41.5195 194.316 41.4336 193.945 41.4336C193.699 41.4336 193.473 41.4863 193.266 41.5918C193.059 41.6934 192.881 41.8457 192.732 42.0488C192.584 42.252 192.469 42.5 192.387 42.793C192.305 43.0859 192.264 43.4238 192.264 43.8066V44.0527C192.264 44.3535 192.305 44.6367 192.387 44.9023C192.473 45.1641 192.596 45.3945 192.756 45.5938C192.92 45.793 193.117 45.9492 193.348 46.0625C193.582 46.1758 193.848 46.2324 194.145 46.2324C194.527 46.2324 194.852 46.1543 195.117 45.998C195.383 45.8418 195.615 45.6328 195.814 45.3711L196.471 45.8926C196.334 46.0996 196.16 46.2969 195.949 46.4844C195.738 46.6719 195.479 46.8242 195.17 46.9414C194.865 47.0586 194.504 47.1172 194.086 47.1172ZM198.902 41.8789V49.4375H197.812V40.6602H198.809L198.902 41.8789ZM203.174 43.7773V43.9004C203.174 44.3613 203.119 44.7891 203.01 45.1836C202.9 45.5742 202.74 45.9141 202.529 46.2031C202.322 46.4922 202.066 46.7168 201.762 46.877C201.457 47.0371 201.107 47.1172 200.713 47.1172C200.311 47.1172 199.955 47.0508 199.646 46.918C199.338 46.7852 199.076 46.5918 198.861 46.3379C198.646 46.084 198.475 45.7793 198.346 45.4238C198.221 45.0684 198.135 44.668 198.088 44.2227V43.5664C198.135 43.0977 198.223 42.6777 198.352 42.3066C198.48 41.9355 198.65 41.6191 198.861 41.3574C199.076 41.0918 199.336 40.8906 199.641 40.7539C199.945 40.6133 200.297 40.543 200.695 40.543C201.094 40.543 201.447 40.6211 201.756 40.7773C202.064 40.9297 202.324 41.1484 202.535 41.4336C202.746 41.7188 202.904 42.0605 203.01 42.459C203.119 42.8535 203.174 43.293 203.174 43.7773ZM202.084 43.9004V43.7773C202.084 43.4609 202.051 43.1641 201.984 42.8867C201.918 42.6055 201.814 42.3594 201.674 42.1484C201.537 41.9336 201.361 41.7656 201.146 41.6445C200.932 41.5195 200.676 41.457 200.379 41.457C200.105 41.457 199.867 41.5039 199.664 41.5977C199.465 41.6914 199.295 41.8184 199.154 41.9785C199.014 42.1348 198.898 42.3145 198.809 42.5176C198.723 42.7168 198.658 42.9238 198.615 43.1387V44.6562C198.693 44.9297 198.803 45.1875 198.943 45.4297C199.084 45.668 199.271 45.8613 199.506 46.0098C199.74 46.1543 200.035 46.2266 200.391 46.2266C200.684 46.2266 200.936 46.166 201.146 46.0449C201.361 45.9199 201.537 45.75 201.674 45.5352C201.814 45.3203 201.918 45.0742 201.984 44.7969C202.051 44.5156 202.084 44.2168 202.084 43.9004ZM204.27 43.9004V43.7656C204.27 43.3086 204.336 42.8848 204.469 42.4941C204.602 42.0996 204.793 41.7578 205.043 41.4688C205.293 41.1758 205.596 40.9492 205.951 40.7891C206.307 40.625 206.705 40.543 207.146 40.543C207.592 40.543 207.992 40.625 208.348 40.7891C208.707 40.9492 209.012 41.1758 209.262 41.4688C209.516 41.7578 209.709 42.0996 209.842 42.4941C209.975 42.8848 210.041 43.3086 210.041 43.7656V43.9004C210.041 44.3574 209.975 44.7812 209.842 45.1719C209.709 45.5625 209.516 45.9043 209.262 46.1973C209.012 46.4863 208.709 46.7129 208.354 46.877C208.002 47.0371 207.604 47.1172 207.158 47.1172C206.713 47.1172 206.312 47.0371 205.957 46.877C205.602 46.7129 205.297 46.4863 205.043 46.1973C204.793 45.9043 204.602 45.5625 204.469 45.1719C204.336 44.7812 204.27 44.3574 204.27 43.9004ZM205.354 43.7656V43.9004C205.354 44.2168 205.391 44.5156 205.465 44.7969C205.539 45.0742 205.65 45.3203 205.799 45.5352C205.951 45.75 206.141 45.9199 206.367 46.0449C206.594 46.166 206.857 46.2266 207.158 46.2266C207.455 46.2266 207.715 46.166 207.938 46.0449C208.164 45.9199 208.352 45.75 208.5 45.5352C208.648 45.3203 208.76 45.0742 208.834 44.7969C208.912 44.5156 208.951 44.2168 208.951 43.9004V43.7656C208.951 43.4531 208.912 43.1582 208.834 42.8809C208.76 42.5996 208.646 42.3516 208.494 42.1367C208.346 41.918 208.158 41.7461 207.932 41.6211C207.709 41.4961 207.447 41.4336 207.146 41.4336C206.85 41.4336 206.588 41.4961 206.361 41.6211C206.139 41.7461 205.951 41.918 205.799 42.1367C205.65 42.3516 205.539 42.5996 205.465 42.8809C205.391 43.1582 205.354 43.4531 205.354 43.7656ZM215.092 45.3184C215.092 45.1621 215.057 45.0176 214.986 44.8848C214.92 44.748 214.781 44.625 214.57 44.5156C214.363 44.4023 214.051 44.3047 213.633 44.2227C213.281 44.1484 212.963 44.0605 212.678 43.959C212.396 43.8574 212.156 43.7344 211.957 43.5898C211.762 43.4453 211.611 43.2754 211.506 43.0801C211.4 42.8848 211.348 42.6562 211.348 42.3945C211.348 42.1445 211.402 41.9082 211.512 41.6855C211.625 41.4629 211.783 41.2656 211.986 41.0938C212.193 40.9219 212.441 40.7871 212.73 40.6895C213.02 40.5918 213.342 40.543 213.697 40.543C214.205 40.543 214.639 40.6328 214.998 40.8125C215.357 40.9922 215.633 41.2324 215.824 41.5332C216.016 41.8301 216.111 42.1602 216.111 42.5234H215.027C215.027 42.3477 214.975 42.1777 214.869 42.0137C214.768 41.8457 214.617 41.707 214.418 41.5977C214.223 41.4883 213.982 41.4336 213.697 41.4336C213.396 41.4336 213.152 41.4805 212.965 41.5742C212.781 41.6641 212.646 41.7793 212.561 41.9199C212.479 42.0605 212.438 42.209 212.438 42.3652C212.438 42.4824 212.457 42.5879 212.496 42.6816C212.539 42.7715 212.613 42.8555 212.719 42.9336C212.824 43.0078 212.973 43.0781 213.164 43.1445C213.355 43.2109 213.6 43.2773 213.896 43.3438C214.416 43.4609 214.844 43.6016 215.18 43.7656C215.516 43.9297 215.766 44.1309 215.93 44.3691C216.094 44.6074 216.176 44.8965 216.176 45.2363C216.176 45.5137 216.117 45.7676 216 45.998C215.887 46.2285 215.721 46.4277 215.502 46.5957C215.287 46.7598 215.029 46.8887 214.729 46.9824C214.432 47.0723 214.098 47.1172 213.727 47.1172C213.168 47.1172 212.695 47.0176 212.309 46.8184C211.922 46.6191 211.629 46.3613 211.43 46.0449C211.23 45.7285 211.131 45.3945 211.131 45.043H212.221C212.236 45.3398 212.322 45.5762 212.479 45.752C212.635 45.9238 212.826 46.0469 213.053 46.1211C213.279 46.1914 213.504 46.2266 213.727 46.2266C214.023 46.2266 214.271 46.1875 214.471 46.1094C214.674 46.0312 214.828 45.9238 214.934 45.7871C215.039 45.6504 215.092 45.4941 215.092 45.3184ZM218.777 40.6602V47H217.688V40.6602H218.777ZM217.605 38.9785C217.605 38.8027 217.658 38.6543 217.764 38.5332C217.873 38.4121 218.033 38.3516 218.244 38.3516C218.451 38.3516 218.609 38.4121 218.719 38.5332C218.832 38.6543 218.889 38.8027 218.889 38.9785C218.889 39.1465 218.832 39.291 218.719 39.4121C218.609 39.5293 218.451 39.5879 218.244 39.5879C218.033 39.5879 217.873 39.5293 217.764 39.4121C217.658 39.291 217.605 39.1465 217.605 38.9785ZM223.172 40.6602V41.4922H219.744V40.6602H223.172ZM220.904 39.1191H221.988V45.4297C221.988 45.6445 222.021 45.8066 222.088 45.916C222.154 46.0254 222.24 46.0977 222.346 46.1328C222.451 46.168 222.564 46.1855 222.686 46.1855C222.775 46.1855 222.869 46.1777 222.967 46.1621C223.068 46.1426 223.145 46.127 223.195 46.1152L223.201 47C223.115 47.0273 223.002 47.0527 222.861 47.0762C222.725 47.1035 222.559 47.1172 222.363 47.1172C222.098 47.1172 221.854 47.0645 221.631 46.959C221.408 46.8535 221.23 46.6777 221.098 46.4316C220.969 46.1816 220.904 45.8457 220.904 45.4238V39.1191ZM231.158 45.916V42.6523C231.158 42.4023 231.107 42.1855 231.006 42.002C230.908 41.8145 230.76 41.6699 230.561 41.5684C230.361 41.4668 230.115 41.416 229.822 41.416C229.549 41.416 229.309 41.4629 229.102 41.5566C228.898 41.6504 228.738 41.7734 228.621 41.9258C228.508 42.0781 228.451 42.2422 228.451 42.418H227.367C227.367 42.1914 227.426 41.9668 227.543 41.7441C227.66 41.5215 227.828 41.3203 228.047 41.1406C228.27 40.957 228.535 40.8125 228.844 40.707C229.156 40.5977 229.504 40.543 229.887 40.543C230.348 40.543 230.754 40.6211 231.105 40.7773C231.461 40.9336 231.738 41.1699 231.938 41.4863C232.141 41.7988 232.242 42.1914 232.242 42.6641V45.6172C232.242 45.8281 232.26 46.0527 232.295 46.291C232.334 46.5293 232.391 46.7344 232.465 46.9062V47H231.334C231.279 46.875 231.236 46.709 231.205 46.502C231.174 46.291 231.158 46.0957 231.158 45.916ZM231.346 43.1562L231.357 43.918H230.262C229.953 43.918 229.678 43.9434 229.436 43.9941C229.193 44.041 228.99 44.1133 228.826 44.2109C228.662 44.3086 228.537 44.4316 228.451 44.5801C228.365 44.7246 228.322 44.8945 228.322 45.0898C228.322 45.2891 228.367 45.4707 228.457 45.6348C228.547 45.7988 228.682 45.9297 228.861 46.0273C229.045 46.1211 229.27 46.168 229.535 46.168C229.867 46.168 230.16 46.0977 230.414 45.957C230.668 45.8164 230.869 45.6445 231.018 45.4414C231.17 45.2383 231.252 45.041 231.264 44.8496L231.727 45.3711C231.699 45.5352 231.625 45.7168 231.504 45.916C231.383 46.1152 231.221 46.3066 231.018 46.4902C230.818 46.6699 230.58 46.8203 230.303 46.9414C230.029 47.0586 229.721 47.1172 229.377 47.1172C228.947 47.1172 228.57 47.0332 228.246 46.8652C227.926 46.6973 227.676 46.4727 227.496 46.1914C227.32 45.9062 227.232 45.5879 227.232 45.2363C227.232 44.8965 227.299 44.5977 227.432 44.3398C227.564 44.0781 227.756 43.8613 228.006 43.6895C228.256 43.5137 228.557 43.3809 228.908 43.291C229.26 43.2012 229.652 43.1562 230.086 43.1562H231.346ZM237.639 45.3184C237.639 45.1621 237.604 45.0176 237.533 44.8848C237.467 44.748 237.328 44.625 237.117 44.5156C236.91 44.4023 236.598 44.3047 236.18 44.2227C235.828 44.1484 235.51 44.0605 235.225 43.959C234.943 43.8574 234.703 43.7344 234.504 43.5898C234.309 43.4453 234.158 43.2754 234.053 43.0801C233.947 42.8848 233.895 42.6562 233.895 42.3945C233.895 42.1445 233.949 41.9082 234.059 41.6855C234.172 41.4629 234.33 41.2656 234.533 41.0938C234.74 40.9219 234.988 40.7871 235.277 40.6895C235.566 40.5918 235.889 40.543 236.244 40.543C236.752 40.543 237.186 40.6328 237.545 40.8125C237.904 40.9922 238.18 41.2324 238.371 41.5332C238.562 41.8301 238.658 42.1602 238.658 42.5234H237.574C237.574 42.3477 237.521 42.1777 237.416 42.0137C237.314 41.8457 237.164 41.707 236.965 41.5977C236.77 41.4883 236.529 41.4336 236.244 41.4336C235.943 41.4336 235.699 41.4805 235.512 41.5742C235.328 41.6641 235.193 41.7793 235.107 41.9199C235.025 42.0605 234.984 42.209 234.984 42.3652C234.984 42.4824 235.004 42.5879 235.043 42.6816C235.086 42.7715 235.16 42.8555 235.266 42.9336C235.371 43.0078 235.52 43.0781 235.711 43.1445C235.902 43.2109 236.146 43.2773 236.443 43.3438C236.963 43.4609 237.391 43.6016 237.727 43.7656C238.062 43.9297 238.312 44.1309 238.477 44.3691C238.641 44.6074 238.723 44.8965 238.723 45.2363C238.723 45.5137 238.664 45.7676 238.547 45.998C238.434 46.2285 238.268 46.4277 238.049 46.5957C237.834 46.7598 237.576 46.8887 237.275 46.9824C236.979 47.0723 236.645 47.1172 236.273 47.1172C235.715 47.1172 235.242 47.0176 234.855 46.8184C234.469 46.6191 234.176 46.3613 233.977 46.0449C233.777 45.7285 233.678 45.3945 233.678 45.043H234.768C234.783 45.3398 234.869 45.5762 235.025 45.752C235.182 45.9238 235.373 46.0469 235.6 46.1211C235.826 46.1914 236.051 46.2266 236.273 46.2266C236.57 46.2266 236.818 46.1875 237.018 46.1094C237.221 46.0312 237.375 45.9238 237.48 45.7871C237.586 45.6504 237.639 45.4941 237.639 45.3184ZM246.861 45.916V42.6523C246.861 42.4023 246.811 42.1855 246.709 42.002C246.611 41.8145 246.463 41.6699 246.264 41.5684C246.064 41.4668 245.818 41.416 245.525 41.416C245.252 41.416 245.012 41.4629 244.805 41.5566C244.602 41.6504 244.441 41.7734 244.324 41.9258C244.211 42.0781 244.154 42.2422 244.154 42.418H243.07C243.07 42.1914 243.129 41.9668 243.246 41.7441C243.363 41.5215 243.531 41.3203 243.75 41.1406C243.973 40.957 244.238 40.8125 244.547 40.707C244.859 40.5977 245.207 40.543 245.59 40.543C246.051 40.543 246.457 40.6211 246.809 40.7773C247.164 40.9336 247.441 41.1699 247.641 41.4863C247.844 41.7988 247.945 42.1914 247.945 42.6641V45.6172C247.945 45.8281 247.963 46.0527 247.998 46.291C248.037 46.5293 248.094 46.7344 248.168 46.9062V47H247.037C246.982 46.875 246.939 46.709 246.908 46.502C246.877 46.291 246.861 46.0957 246.861 45.916ZM247.049 43.1562L247.061 43.918H245.965C245.656 43.918 245.381 43.9434 245.139 43.9941C244.896 44.041 244.693 44.1133 244.529 44.2109C244.365 44.3086 244.24 44.4316 244.154 44.5801C244.068 44.7246 244.025 44.8945 244.025 45.0898C244.025 45.2891 244.07 45.4707 244.16 45.6348C244.25 45.7988 244.385 45.9297 244.564 46.0273C244.748 46.1211 244.973 46.168 245.238 46.168C245.57 46.168 245.863 46.0977 246.117 45.957C246.371 45.8164 246.572 45.6445 246.721 45.4414C246.873 45.2383 246.955 45.041 246.967 44.8496L247.43 45.3711C247.402 45.5352 247.328 45.7168 247.207 45.916C247.086 46.1152 246.924 46.3066 246.721 46.4902C246.521 46.6699 246.283 46.8203 246.006 46.9414C245.732 47.0586 245.424 47.1172 245.08 47.1172C244.65 47.1172 244.273 47.0332 243.949 46.8652C243.629 46.6973 243.379 46.4727 243.199 46.1914C243.023 45.9062 242.936 45.5879 242.936 45.2363C242.936 44.8965 243.002 44.5977 243.135 44.3398C243.268 44.0781 243.459 43.8613 243.709 43.6895C243.959 43.5137 244.26 43.3809 244.611 43.291C244.963 43.2012 245.355 43.1562 245.789 43.1562H247.049ZM250.734 42.0137V47H249.65V40.6602H250.676L250.734 42.0137ZM250.477 43.5898L250.025 43.5723C250.029 43.1387 250.094 42.7383 250.219 42.3711C250.344 42 250.52 41.6777 250.746 41.4043C250.973 41.1309 251.242 40.9199 251.555 40.7715C251.871 40.6191 252.221 40.543 252.604 40.543C252.916 40.543 253.197 40.5859 253.447 40.6719C253.697 40.7539 253.91 40.8867 254.086 41.0703C254.266 41.2539 254.402 41.4922 254.496 41.7852C254.59 42.0742 254.637 42.4277 254.637 42.8457V47H253.547V42.834C253.547 42.502 253.498 42.2363 253.4 42.0371C253.303 41.834 253.16 41.6875 252.973 41.5977C252.785 41.5039 252.555 41.457 252.281 41.457C252.012 41.457 251.766 41.5137 251.543 41.627C251.324 41.7402 251.135 41.8965 250.975 42.0957C250.818 42.2949 250.695 42.5234 250.605 42.7812C250.52 43.0352 250.477 43.3047 250.477 43.5898ZM58.5645 59.916V56.6523C58.5645 56.4023 58.5137 56.1855 58.4121 56.002C58.3145 55.8145 58.166 55.6699 57.9668 55.5684C57.7676 55.4668 57.5215 55.416 57.2285 55.416C56.9551 55.416 56.7148 55.4629 56.5078 55.5566C56.3047 55.6504 56.1445 55.7734 56.0273 55.9258C55.9141 56.0781 55.8574 56.2422 55.8574 56.418H54.7734C54.7734 56.1914 54.832 55.9668 54.9492 55.7441C55.0664 55.5215 55.2344 55.3203 55.4531 55.1406C55.6758 54.957 55.9414 54.8125 56.25 54.707C56.5625 54.5977 56.9102 54.543 57.293 54.543C57.7539 54.543 58.1602 54.6211 58.5117 54.7773C58.8672 54.9336 59.1445 55.1699 59.3438 55.4863C59.5469 55.7988 59.6484 56.1914 59.6484 56.6641V59.6172C59.6484 59.8281 59.666 60.0527 59.7012 60.291C59.7402 60.5293 59.7969 60.7344 59.8711 60.9062V61H58.7402C58.6855 60.875 58.6426 60.709 58.6113 60.502C58.5801 60.291 58.5645 60.0957 58.5645 59.916ZM58.752 57.1562L58.7637 57.918H57.668C57.3594 57.918 57.084 57.9434 56.8418 57.9941C56.5996 58.041 56.3965 58.1133 56.2324 58.2109C56.0684 58.3086 55.9434 58.4316 55.8574 58.5801C55.7715 58.7246 55.7285 58.8945 55.7285 59.0898C55.7285 59.2891 55.7734 59.4707 55.8633 59.6348C55.9531 59.7988 56.0879 59.9297 56.2676 60.0273C56.4512 60.1211 56.6758 60.168 56.9414 60.168C57.2734 60.168 57.5664 60.0977 57.8203 59.957C58.0742 59.8164 58.2754 59.6445 58.4238 59.4414C58.5762 59.2383 58.6582 59.041 58.6699 58.8496L59.1328 59.3711C59.1055 59.5352 59.0312 59.7168 58.9102 59.916C58.7891 60.1152 58.627 60.3066 58.4238 60.4902C58.2246 60.6699 57.9863 60.8203 57.709 60.9414C57.4355 61.0586 57.127 61.1172 56.7832 61.1172C56.3535 61.1172 55.9766 61.0332 55.6523 60.8652C55.332 60.6973 55.082 60.4727 54.9023 60.1914C54.7266 59.9062 54.6387 59.5879 54.6387 59.2363C54.6387 58.8965 54.7051 58.5977 54.8379 58.3398C54.9707 58.0781 55.1621 57.8613 55.4121 57.6895C55.6621 57.5137 55.9629 57.3809 56.3145 57.291C56.666 57.2012 57.0586 57.1562 57.4922 57.1562H58.752ZM65.0449 59.3184C65.0449 59.1621 65.0098 59.0176 64.9395 58.8848C64.873 58.748 64.7344 58.625 64.5234 58.5156C64.3164 58.4023 64.0039 58.3047 63.5859 58.2227C63.2344 58.1484 62.916 58.0605 62.6309 57.959C62.3496 57.8574 62.1094 57.7344 61.9102 57.5898C61.7148 57.4453 61.5645 57.2754 61.459 57.0801C61.3535 56.8848 61.3008 56.6562 61.3008 56.3945C61.3008 56.1445 61.3555 55.9082 61.4648 55.6855C61.5781 55.4629 61.7363 55.2656 61.9395 55.0938C62.1465 54.9219 62.3945 54.7871 62.6836 54.6895C62.9727 54.5918 63.2949 54.543 63.6504 54.543C64.1582 54.543 64.5918 54.6328 64.9512 54.8125C65.3105 54.9922 65.5859 55.2324 65.7773 55.5332C65.9688 55.8301 66.0645 56.1602 66.0645 56.5234H64.9805C64.9805 56.3477 64.9277 56.1777 64.8223 56.0137C64.7207 55.8457 64.5703 55.707 64.3711 55.5977C64.1758 55.4883 63.9355 55.4336 63.6504 55.4336C63.3496 55.4336 63.1055 55.4805 62.918 55.5742C62.7344 55.6641 62.5996 55.7793 62.5137 55.9199C62.4316 56.0605 62.3906 56.209 62.3906 56.3652C62.3906 56.4824 62.4102 56.5879 62.4492 56.6816C62.4922 56.7715 62.5664 56.8555 62.6719 56.9336C62.7773 57.0078 62.9258 57.0781 63.1172 57.1445C63.3086 57.2109 63.5527 57.2773 63.8496 57.3438C64.3691 57.4609 64.7969 57.6016 65.1328 57.7656C65.4688 57.9297 65.7188 58.1309 65.8828 58.3691C66.0469 58.6074 66.1289 58.8965 66.1289 59.2363C66.1289 59.5137 66.0703 59.7676 65.9531 59.998C65.8398 60.2285 65.6738 60.4277 65.4551 60.5957C65.2402 60.7598 64.9824 60.8887 64.6816 60.9824C64.3848 61.0723 64.0508 61.1172 63.6797 61.1172C63.1211 61.1172 62.6484 61.0176 62.2617 60.8184C61.875 60.6191 61.582 60.3613 61.3828 60.0449C61.1836 59.7285 61.084 59.3945 61.084 59.043H62.1738C62.1895 59.3398 62.2754 59.5762 62.4316 59.752C62.5879 59.9238 62.7793 60.0469 63.0059 60.1211C63.2324 60.1914 63.457 60.2266 63.6797 60.2266C63.9766 60.2266 64.2246 60.1875 64.4238 60.1094C64.627 60.0312 64.7812 59.9238 64.8867 59.7871C64.9922 59.6504 65.0449 59.4941 65.0449 59.3184ZM71.2441 59.3184C71.2441 59.1621 71.209 59.0176 71.1387 58.8848C71.0723 58.748 70.9336 58.625 70.7227 58.5156C70.5156 58.4023 70.2031 58.3047 69.7852 58.2227C69.4336 58.1484 69.1152 58.0605 68.8301 57.959C68.5488 57.8574 68.3086 57.7344 68.1094 57.5898C67.9141 57.4453 67.7637 57.2754 67.6582 57.0801C67.5527 56.8848 67.5 56.6562 67.5 56.3945C67.5 56.1445 67.5547 55.9082 67.6641 55.6855C67.7773 55.4629 67.9355 55.2656 68.1387 55.0938C68.3457 54.9219 68.5938 54.7871 68.8828 54.6895C69.1719 54.5918 69.4941 54.543 69.8496 54.543C70.3574 54.543 70.791 54.6328 71.1504 54.8125C71.5098 54.9922 71.7852 55.2324 71.9766 55.5332C72.168 55.8301 72.2637 56.1602 72.2637 56.5234H71.1797C71.1797 56.3477 71.127 56.1777 71.0215 56.0137C70.9199 55.8457 70.7695 55.707 70.5703 55.5977C70.375 55.4883 70.1348 55.4336 69.8496 55.4336C69.5488 55.4336 69.3047 55.4805 69.1172 55.5742C68.9336 55.6641 68.7988 55.7793 68.7129 55.9199C68.6309 56.0605 68.5898 56.209 68.5898 56.3652C68.5898 56.4824 68.6094 56.5879 68.6484 56.6816C68.6914 56.7715 68.7656 56.8555 68.8711 56.9336C68.9766 57.0078 69.125 57.0781 69.3164 57.1445C69.5078 57.2109 69.752 57.2773 70.0488 57.3438C70.5684 57.4609 70.9961 57.6016 71.332 57.7656C71.668 57.9297 71.918 58.1309 72.082 58.3691C72.2461 58.6074 72.3281 58.8965 72.3281 59.2363C72.3281 59.5137 72.2695 59.7676 72.1523 59.998C72.0391 60.2285 71.873 60.4277 71.6543 60.5957C71.4395 60.7598 71.1816 60.8887 70.8809 60.9824C70.584 61.0723 70.25 61.1172 69.8789 61.1172C69.3203 61.1172 68.8477 61.0176 68.4609 60.8184C68.0742 60.6191 67.7812 60.3613 67.582 60.0449C67.3828 59.7285 67.2832 59.3945 67.2832 59.043H68.373C68.3887 59.3398 68.4746 59.5762 68.6309 59.752C68.7871 59.9238 68.9785 60.0469 69.2051 60.1211C69.4316 60.1914 69.6562 60.2266 69.8789 60.2266C70.1758 60.2266 70.4238 60.1875 70.623 60.1094C70.8262 60.0312 70.9805 59.9238 71.0859 59.7871C71.1914 59.6504 71.2441 59.4941 71.2441 59.3184ZM77.6309 59.5352V54.6602H78.7207V61H77.6836L77.6309 59.5352ZM77.8359 58.1992L78.2871 58.1875C78.2871 58.6094 78.2422 59 78.1523 59.3594C78.0664 59.7148 77.9258 60.0234 77.7305 60.2852C77.5352 60.5469 77.2793 60.752 76.9629 60.9004C76.6465 61.0449 76.2617 61.1172 75.8086 61.1172C75.5 61.1172 75.2168 61.0723 74.959 60.9824C74.7051 60.8926 74.4863 60.7539 74.3027 60.5664C74.1191 60.3789 73.9766 60.1348 73.875 59.834C73.7773 59.5332 73.7285 59.1719 73.7285 58.75V54.6602H74.8125V58.7617C74.8125 59.0469 74.8438 59.2832 74.9062 59.4707C74.9727 59.6543 75.0605 59.8008 75.1699 59.9102C75.2832 60.0156 75.4082 60.0898 75.5449 60.1328C75.6855 60.1758 75.8301 60.1973 75.9785 60.1973C76.4395 60.1973 76.8047 60.1094 77.0742 59.9336C77.3438 59.7539 77.5371 59.5137 77.6543 59.2129C77.7754 58.9082 77.8359 58.5703 77.8359 58.1992ZM81.457 55.6562V61H80.373V54.6602H81.4277L81.457 55.6562ZM83.4375 54.625L83.4316 55.6328C83.3418 55.6133 83.2559 55.6016 83.1738 55.5977C83.0957 55.5898 83.0059 55.5859 82.9043 55.5859C82.6543 55.5859 82.4336 55.625 82.2422 55.7031C82.0508 55.7812 81.8887 55.8906 81.7559 56.0312C81.623 56.1719 81.5176 56.3398 81.4395 56.5352C81.3652 56.7266 81.3164 56.9375 81.293 57.168L80.9883 57.3438C80.9883 56.9609 81.0254 56.6016 81.0996 56.2656C81.1777 55.9297 81.2969 55.6328 81.457 55.375C81.6172 55.1133 81.8203 54.9102 82.0664 54.7656C82.3164 54.6172 82.6133 54.543 82.957 54.543C83.0352 54.543 83.125 54.5527 83.2266 54.5723C83.3281 54.5879 83.3984 54.6055 83.4375 54.625ZM87.9434 59.916V56.6523C87.9434 56.4023 87.8926 56.1855 87.791 56.002C87.6934 55.8145 87.5449 55.6699 87.3457 55.5684C87.1465 55.4668 86.9004 55.416 86.6074 55.416C86.334 55.416 86.0938 55.4629 85.8867 55.5566C85.6836 55.6504 85.5234 55.7734 85.4062 55.9258C85.293 56.0781 85.2363 56.2422 85.2363 56.418H84.1523C84.1523 56.1914 84.2109 55.9668 84.3281 55.7441C84.4453 55.5215 84.6133 55.3203 84.832 55.1406C85.0547 54.957 85.3203 54.8125 85.6289 54.707C85.9414 54.5977 86.2891 54.543 86.6719 54.543C87.1328 54.543 87.5391 54.6211 87.8906 54.7773C88.2461 54.9336 88.5234 55.1699 88.7227 55.4863C88.9258 55.7988 89.0273 56.1914 89.0273 56.6641V59.6172C89.0273 59.8281 89.0449 60.0527 89.0801 60.291C89.1191 60.5293 89.1758 60.7344 89.25 60.9062V61H88.1191C88.0645 60.875 88.0215 60.709 87.9902 60.502C87.959 60.291 87.9434 60.0957 87.9434 59.916ZM88.1309 57.1562L88.1426 57.918H87.0469C86.7383 57.918 86.4629 57.9434 86.2207 57.9941C85.9785 58.041 85.7754 58.1133 85.6113 58.2109C85.4473 58.3086 85.3223 58.4316 85.2363 58.5801C85.1504 58.7246 85.1074 58.8945 85.1074 59.0898C85.1074 59.2891 85.1523 59.4707 85.2422 59.6348C85.332 59.7988 85.4668 59.9297 85.6465 60.0273C85.8301 60.1211 86.0547 60.168 86.3203 60.168C86.6523 60.168 86.9453 60.0977 87.1992 59.957C87.4531 59.8164 87.6543 59.6445 87.8027 59.4414C87.9551 59.2383 88.0371 59.041 88.0488 58.8496L88.5117 59.3711C88.4844 59.5352 88.4102 59.7168 88.2891 59.916C88.168 60.1152 88.0059 60.3066 87.8027 60.4902C87.6035 60.6699 87.3652 60.8203 87.0879 60.9414C86.8145 61.0586 86.5059 61.1172 86.1621 61.1172C85.7324 61.1172 85.3555 61.0332 85.0312 60.8652C84.7109 60.6973 84.4609 60.4727 84.2812 60.1914C84.1055 59.9062 84.0176 59.5879 84.0176 59.2363C84.0176 58.8965 84.084 58.5977 84.2168 58.3398C84.3496 58.0781 84.541 57.8613 84.791 57.6895C85.041 57.5137 85.3418 57.3809 85.6934 57.291C86.0449 57.2012 86.4375 57.1562 86.8711 57.1562H88.1309ZM91.8164 56.0137V61H90.7324V54.6602H91.7578L91.8164 56.0137ZM91.5586 57.5898L91.1074 57.5723C91.1113 57.1387 91.1758 56.7383 91.3008 56.3711C91.4258 56 91.6016 55.6777 91.8281 55.4043C92.0547 55.1309 92.3242 54.9199 92.6367 54.7715C92.9531 54.6191 93.3027 54.543 93.6855 54.543C93.998 54.543 94.2793 54.5859 94.5293 54.6719C94.7793 54.7539 94.9922 54.8867 95.168 55.0703C95.3477 55.2539 95.4844 55.4922 95.5781 55.7852C95.6719 56.0742 95.7188 56.4277 95.7188 56.8457V61H94.6289V56.834C94.6289 56.502 94.5801 56.2363 94.4824 56.0371C94.3848 55.834 94.2422 55.6875 94.0547 55.5977C93.8672 55.5039 93.6367 55.457 93.3633 55.457C93.0938 55.457 92.8477 55.5137 92.625 55.627C92.4062 55.7402 92.2168 55.8965 92.0566 56.0957C91.9004 56.2949 91.7773 56.5234 91.6875 56.7812C91.6016 57.0352 91.5586 57.3047 91.5586 57.5898ZM99.9023 60.2266C100.16 60.2266 100.398 60.1738 100.617 60.0684C100.836 59.9629 101.016 59.8184 101.156 59.6348C101.297 59.4473 101.377 59.2344 101.396 58.9961H102.428C102.408 59.3711 102.281 59.7207 102.047 60.0449C101.816 60.3652 101.514 60.625 101.139 60.8242C100.764 61.0195 100.352 61.1172 99.9023 61.1172C99.4258 61.1172 99.0098 61.0332 98.6543 60.8652C98.3027 60.6973 98.0098 60.4668 97.7754 60.1738C97.5449 59.8809 97.3711 59.5449 97.2539 59.166C97.1406 58.7832 97.084 58.3789 97.084 57.9531V57.707C97.084 57.2812 97.1406 56.8789 97.2539 56.5C97.3711 56.1172 97.5449 55.7793 97.7754 55.4863C98.0098 55.1934 98.3027 54.9629 98.6543 54.7949C99.0098 54.627 99.4258 54.543 99.9023 54.543C100.398 54.543 100.832 54.6445 101.203 54.8477C101.574 55.0469 101.865 55.3203 102.076 55.668C102.291 56.0117 102.408 56.4023 102.428 56.8398H101.396C101.377 56.5781 101.303 56.3418 101.174 56.1309C101.049 55.9199 100.877 55.752 100.658 55.627C100.443 55.498 100.191 55.4336 99.9023 55.4336C99.5703 55.4336 99.291 55.5 99.0645 55.6328C98.8418 55.7617 98.6641 55.9375 98.5312 56.1602C98.4023 56.3789 98.3086 56.623 98.25 56.8926C98.1953 57.1582 98.168 57.4297 98.168 57.707V57.9531C98.168 58.2305 98.1953 58.5039 98.25 58.7734C98.3047 59.043 98.3965 59.2871 98.5254 59.5059C98.6582 59.7246 98.8359 59.9004 99.0586 60.0332C99.2852 60.1621 99.5664 60.2266 99.9023 60.2266ZM106.277 61.1172C105.836 61.1172 105.436 61.043 105.076 60.8945C104.721 60.7422 104.414 60.5293 104.156 60.2559C103.902 59.9824 103.707 59.6582 103.57 59.2832C103.434 58.9082 103.365 58.498 103.365 58.0527V57.8066C103.365 57.291 103.441 56.832 103.594 56.4297C103.746 56.0234 103.953 55.6797 104.215 55.3984C104.477 55.1172 104.773 54.9043 105.105 54.7598C105.438 54.6152 105.781 54.543 106.137 54.543C106.59 54.543 106.98 54.6211 107.309 54.7773C107.641 54.9336 107.912 55.1523 108.123 55.4336C108.334 55.7109 108.49 56.0391 108.592 56.418C108.693 56.793 108.744 57.2031 108.744 57.6484V58.1348H104.01V57.25H107.66V57.168C107.645 56.8867 107.586 56.6133 107.484 56.3477C107.387 56.082 107.23 55.8633 107.016 55.6914C106.801 55.5195 106.508 55.4336 106.137 55.4336C105.891 55.4336 105.664 55.4863 105.457 55.5918C105.25 55.6934 105.072 55.8457 104.924 56.0488C104.775 56.252 104.66 56.5 104.578 56.793C104.496 57.0859 104.455 57.4238 104.455 57.8066V58.0527C104.455 58.3535 104.496 58.6367 104.578 58.9023C104.664 59.1641 104.787 59.3945 104.947 59.5938C105.111 59.793 105.309 59.9492 105.539 60.0625C105.773 60.1758 106.039 60.2324 106.336 60.2324C106.719 60.2324 107.043 60.1543 107.309 59.998C107.574 59.8418 107.807 59.6328 108.006 59.3711L108.662 59.8926C108.525 60.0996 108.352 60.2969 108.141 60.4844C107.93 60.6719 107.67 60.8242 107.361 60.9414C107.057 61.0586 106.695 61.1172 106.277 61.1172ZM112.699 57.9004V57.7656C112.699 57.3086 112.766 56.8848 112.898 56.4941C113.031 56.0996 113.223 55.7578 113.473 55.4688C113.723 55.1758 114.025 54.9492 114.381 54.7891C114.736 54.625 115.135 54.543 115.576 54.543C116.021 54.543 116.422 54.625 116.777 54.7891C117.137 54.9492 117.441 55.1758 117.691 55.4688C117.945 55.7578 118.139 56.0996 118.271 56.4941C118.404 56.8848 118.471 57.3086 118.471 57.7656V57.9004C118.471 58.3574 118.404 58.7812 118.271 59.1719C118.139 59.5625 117.945 59.9043 117.691 60.1973C117.441 60.4863 117.139 60.7129 116.783 60.877C116.432 61.0371 116.033 61.1172 115.588 61.1172C115.143 61.1172 114.742 61.0371 114.387 60.877C114.031 60.7129 113.727 60.4863 113.473 60.1973C113.223 59.9043 113.031 59.5625 112.898 59.1719C112.766 58.7812 112.699 58.3574 112.699 57.9004ZM113.783 57.7656V57.9004C113.783 58.2168 113.82 58.5156 113.895 58.7969C113.969 59.0742 114.08 59.3203 114.229 59.5352C114.381 59.75 114.57 59.9199 114.797 60.0449C115.023 60.166 115.287 60.2266 115.588 60.2266C115.885 60.2266 116.145 60.166 116.367 60.0449C116.594 59.9199 116.781 59.75 116.93 59.5352C117.078 59.3203 117.189 59.0742 117.264 58.7969C117.342 58.5156 117.381 58.2168 117.381 57.9004V57.7656C117.381 57.4531 117.342 57.1582 117.264 56.8809C117.189 56.5996 117.076 56.3516 116.924 56.1367C116.775 55.918 116.588 55.7461 116.361 55.6211C116.139 55.4961 115.877 55.4336 115.576 55.4336C115.279 55.4336 115.018 55.4961 114.791 55.6211C114.568 55.7461 114.381 55.918 114.229 56.1367C114.08 56.3516 113.969 56.5996 113.895 56.8809C113.82 57.1582 113.783 57.4531 113.783 57.7656ZM121.447 61H120.363V53.9922C120.363 53.5352 120.445 53.1504 120.609 52.8379C120.777 52.5215 121.018 52.2832 121.33 52.123C121.643 51.959 122.014 51.877 122.443 51.877C122.568 51.877 122.693 51.8848 122.818 51.9004C122.947 51.916 123.072 51.9395 123.193 51.9707L123.135 52.8555C123.053 52.8359 122.959 52.8223 122.854 52.8145C122.752 52.8066 122.65 52.8027 122.549 52.8027C122.318 52.8027 122.119 52.8496 121.951 52.9434C121.787 53.0332 121.662 53.166 121.576 53.3418C121.49 53.5176 121.447 53.7344 121.447 53.9922V61ZM122.795 54.6602V55.4922H119.361V54.6602H122.795ZM128.156 54.6602V61H127.066V54.6602H128.156ZM126.984 52.9785C126.984 52.8027 127.037 52.6543 127.143 52.5332C127.252 52.4121 127.412 52.3516 127.623 52.3516C127.83 52.3516 127.988 52.4121 128.098 52.5332C128.211 52.6543 128.268 52.8027 128.268 52.9785C128.268 53.1465 128.211 53.291 128.098 53.4121C127.988 53.5293 127.83 53.5879 127.623 53.5879C127.412 53.5879 127.252 53.5293 127.143 53.4121C127.037 53.291 126.984 53.1465 126.984 52.9785ZM130.98 56.0137V61H129.896V54.6602H130.922L130.98 56.0137ZM130.723 57.5898L130.271 57.5723C130.275 57.1387 130.34 56.7383 130.465 56.3711C130.59 56 130.766 55.6777 130.992 55.4043C131.219 55.1309 131.488 54.9199 131.801 54.7715C132.117 54.6191 132.467 54.543 132.85 54.543C133.162 54.543 133.443 54.5859 133.693 54.6719C133.943 54.7539 134.156 54.8867 134.332 55.0703C134.512 55.2539 134.648 55.4922 134.742 55.7852C134.836 56.0742 134.883 56.4277 134.883 56.8457V61H133.793V56.834C133.793 56.502 133.744 56.2363 133.646 56.0371C133.549 55.834 133.406 55.6875 133.219 55.5977C133.031 55.5039 132.801 55.457 132.527 55.457C132.258 55.457 132.012 55.5137 131.789 55.627C131.57 55.7402 131.381 55.8965 131.221 56.0957C131.064 56.2949 130.941 56.5234 130.852 56.7812C130.766 57.0352 130.723 57.3047 130.723 57.5898ZM139.184 54.6602V55.4922H135.756V54.6602H139.184ZM136.916 53.1191H138V59.4297C138 59.6445 138.033 59.8066 138.1 59.916C138.166 60.0254 138.252 60.0977 138.357 60.1328C138.463 60.168 138.576 60.1855 138.697 60.1855C138.787 60.1855 138.881 60.1777 138.979 60.1621C139.08 60.1426 139.156 60.127 139.207 60.1152L139.213 61C139.127 61.0273 139.014 61.0527 138.873 61.0762C138.736 61.1035 138.57 61.1172 138.375 61.1172C138.109 61.1172 137.865 61.0645 137.643 60.959C137.42 60.8535 137.242 60.6777 137.109 60.4316C136.98 60.1816 136.916 59.8457 136.916 59.4238V53.1191ZM143.086 61.1172C142.645 61.1172 142.244 61.043 141.885 60.8945C141.529 60.7422 141.223 60.5293 140.965 60.2559C140.711 59.9824 140.516 59.6582 140.379 59.2832C140.242 58.9082 140.174 58.498 140.174 58.0527V57.8066C140.174 57.291 140.25 56.832 140.402 56.4297C140.555 56.0234 140.762 55.6797 141.023 55.3984C141.285 55.1172 141.582 54.9043 141.914 54.7598C142.246 54.6152 142.59 54.543 142.945 54.543C143.398 54.543 143.789 54.6211 144.117 54.7773C144.449 54.9336 144.721 55.1523 144.932 55.4336C145.143 55.7109 145.299 56.0391 145.4 56.418C145.502 56.793 145.553 57.2031 145.553 57.6484V58.1348H140.818V57.25H144.469V57.168C144.453 56.8867 144.395 56.6133 144.293 56.3477C144.195 56.082 144.039 55.8633 143.824 55.6914C143.609 55.5195 143.316 55.4336 142.945 55.4336C142.699 55.4336 142.473 55.4863 142.266 55.5918C142.059 55.6934 141.881 55.8457 141.732 56.0488C141.584 56.252 141.469 56.5 141.387 56.793C141.305 57.0859 141.264 57.4238 141.264 57.8066V58.0527C141.264 58.3535 141.305 58.6367 141.387 58.9023C141.473 59.1641 141.596 59.3945 141.756 59.5938C141.92 59.793 142.117 59.9492 142.348 60.0625C142.582 60.1758 142.848 60.2324 143.145 60.2324C143.527 60.2324 143.852 60.1543 144.117 59.998C144.383 59.8418 144.615 59.6328 144.814 59.3711L145.471 59.8926C145.334 60.0996 145.16 60.2969 144.949 60.4844C144.738 60.6719 144.479 60.8242 144.17 60.9414C143.865 61.0586 143.504 61.1172 143.086 61.1172ZM147.902 55.6562V61H146.818V54.6602H147.873L147.902 55.6562ZM149.883 54.625L149.877 55.6328C149.787 55.6133 149.701 55.6016 149.619 55.5977C149.541 55.5898 149.451 55.5859 149.35 55.5859C149.1 55.5859 148.879 55.625 148.688 55.7031C148.496 55.7812 148.334 55.8906 148.201 56.0312C148.068 56.1719 147.963 56.3398 147.885 56.5352C147.811 56.7266 147.762 56.9375 147.738 57.168L147.434 57.3438C147.434 56.9609 147.471 56.6016 147.545 56.2656C147.623 55.9297 147.742 55.6328 147.902 55.375C148.062 55.1133 148.266 54.9102 148.512 54.7656C148.762 54.6172 149.059 54.543 149.402 54.543C149.48 54.543 149.57 54.5527 149.672 54.5723C149.773 54.5879 149.844 54.6055 149.883 54.625ZM153.398 61.1172C152.957 61.1172 152.557 61.043 152.197 60.8945C151.842 60.7422 151.535 60.5293 151.277 60.2559C151.023 59.9824 150.828 59.6582 150.691 59.2832C150.555 58.9082 150.486 58.498 150.486 58.0527V57.8066C150.486 57.291 150.562 56.832 150.715 56.4297C150.867 56.0234 151.074 55.6797 151.336 55.3984C151.598 55.1172 151.895 54.9043 152.227 54.7598C152.559 54.6152 152.902 54.543 153.258 54.543C153.711 54.543 154.102 54.6211 154.43 54.7773C154.762 54.9336 155.033 55.1523 155.244 55.4336C155.455 55.7109 155.611 56.0391 155.713 56.418C155.814 56.793 155.865 57.2031 155.865 57.6484V58.1348H151.131V57.25H154.781V57.168C154.766 56.8867 154.707 56.6133 154.605 56.3477C154.508 56.082 154.352 55.8633 154.137 55.6914C153.922 55.5195 153.629 55.4336 153.258 55.4336C153.012 55.4336 152.785 55.4863 152.578 55.5918C152.371 55.6934 152.193 55.8457 152.045 56.0488C151.896 56.252 151.781 56.5 151.699 56.793C151.617 57.0859 151.576 57.4238 151.576 57.8066V58.0527C151.576 58.3535 151.617 58.6367 151.699 58.9023C151.785 59.1641 151.908 59.3945 152.068 59.5938C152.232 59.793 152.43 59.9492 152.66 60.0625C152.895 60.1758 153.16 60.2324 153.457 60.2324C153.84 60.2324 154.164 60.1543 154.43 59.998C154.695 59.8418 154.928 59.6328 155.127 59.3711L155.783 59.8926C155.646 60.0996 155.473 60.2969 155.262 60.4844C155.051 60.6719 154.791 60.8242 154.482 60.9414C154.178 61.0586 153.816 61.1172 153.398 61.1172ZM160.822 59.3184C160.822 59.1621 160.787 59.0176 160.717 58.8848C160.65 58.748 160.512 58.625 160.301 58.5156C160.094 58.4023 159.781 58.3047 159.363 58.2227C159.012 58.1484 158.693 58.0605 158.408 57.959C158.127 57.8574 157.887 57.7344 157.688 57.5898C157.492 57.4453 157.342 57.2754 157.236 57.0801C157.131 56.8848 157.078 56.6562 157.078 56.3945C157.078 56.1445 157.133 55.9082 157.242 55.6855C157.355 55.4629 157.514 55.2656 157.717 55.0938C157.924 54.9219 158.172 54.7871 158.461 54.6895C158.75 54.5918 159.072 54.543 159.428 54.543C159.936 54.543 160.369 54.6328 160.729 54.8125C161.088 54.9922 161.363 55.2324 161.555 55.5332C161.746 55.8301 161.842 56.1602 161.842 56.5234H160.758C160.758 56.3477 160.705 56.1777 160.6 56.0137C160.498 55.8457 160.348 55.707 160.148 55.5977C159.953 55.4883 159.713 55.4336 159.428 55.4336C159.127 55.4336 158.883 55.4805 158.695 55.5742C158.512 55.6641 158.377 55.7793 158.291 55.9199C158.209 56.0605 158.168 56.209 158.168 56.3652C158.168 56.4824 158.188 56.5879 158.227 56.6816C158.27 56.7715 158.344 56.8555 158.449 56.9336C158.555 57.0078 158.703 57.0781 158.895 57.1445C159.086 57.2109 159.33 57.2773 159.627 57.3438C160.146 57.4609 160.574 57.6016 160.91 57.7656C161.246 57.9297 161.496 58.1309 161.66 58.3691C161.824 58.6074 161.906 58.8965 161.906 59.2363C161.906 59.5137 161.848 59.7676 161.73 59.998C161.617 60.2285 161.451 60.4277 161.232 60.5957C161.018 60.7598 160.76 60.8887 160.459 60.9824C160.162 61.0723 159.828 61.1172 159.457 61.1172C158.898 61.1172 158.426 61.0176 158.039 60.8184C157.652 60.6191 157.359 60.3613 157.16 60.0449C156.961 59.7285 156.861 59.3945 156.861 59.043H157.951C157.967 59.3398 158.053 59.5762 158.209 59.752C158.365 59.9238 158.557 60.0469 158.783 60.1211C159.01 60.1914 159.234 60.2266 159.457 60.2266C159.754 60.2266 160.002 60.1875 160.201 60.1094C160.404 60.0312 160.559 59.9238 160.664 59.7871C160.77 59.6504 160.822 59.4941 160.822 59.3184ZM165.984 54.6602V55.4922H162.557V54.6602H165.984ZM163.717 53.1191H164.801V59.4297C164.801 59.6445 164.834 59.8066 164.9 59.916C164.967 60.0254 165.053 60.0977 165.158 60.1328C165.264 60.168 165.377 60.1855 165.498 60.1855C165.588 60.1855 165.682 60.1777 165.779 60.1621C165.881 60.1426 165.957 60.127 166.008 60.1152L166.014 61C165.928 61.0273 165.814 61.0527 165.674 61.0762C165.537 61.1035 165.371 61.1172 165.176 61.1172C164.91 61.1172 164.666 61.0645 164.443 60.959C164.221 60.8535 164.043 60.6777 163.91 60.4316C163.781 60.1816 163.717 59.8457 163.717 59.4238V53.1191ZM171.41 54.6602V61H170.32V54.6602H171.41ZM170.238 52.9785C170.238 52.8027 170.291 52.6543 170.396 52.5332C170.506 52.4121 170.666 52.3516 170.877 52.3516C171.084 52.3516 171.242 52.4121 171.352 52.5332C171.465 52.6543 171.521 52.8027 171.521 52.9785C171.521 53.1465 171.465 53.291 171.352 53.4121C171.242 53.5293 171.084 53.5879 170.877 53.5879C170.666 53.5879 170.506 53.5293 170.396 53.4121C170.291 53.291 170.238 53.1465 170.238 52.9785ZM174.234 56.0137V61H173.15V54.6602H174.176L174.234 56.0137ZM173.977 57.5898L173.525 57.5723C173.529 57.1387 173.594 56.7383 173.719 56.3711C173.844 56 174.02 55.6777 174.246 55.4043C174.473 55.1309 174.742 54.9199 175.055 54.7715C175.371 54.6191 175.721 54.543 176.104 54.543C176.416 54.543 176.697 54.5859 176.947 54.6719C177.197 54.7539 177.41 54.8867 177.586 55.0703C177.766 55.2539 177.902 55.4922 177.996 55.7852C178.09 56.0742 178.137 56.4277 178.137 56.8457V61H177.047V56.834C177.047 56.502 176.998 56.2363 176.9 56.0371C176.803 55.834 176.66 55.6875 176.473 55.5977C176.285 55.5039 176.055 55.457 175.781 55.457C175.512 55.457 175.266 55.5137 175.043 55.627C174.824 55.7402 174.635 55.8965 174.475 56.0957C174.318 56.2949 174.195 56.5234 174.105 56.7812C174.02 57.0352 173.977 57.3047 173.977 57.5898ZM185.414 54.6602V55.4922H181.986V54.6602H185.414ZM183.146 53.1191H184.23V59.4297C184.23 59.6445 184.264 59.8066 184.33 59.916C184.396 60.0254 184.482 60.0977 184.588 60.1328C184.693 60.168 184.807 60.1855 184.928 60.1855C185.018 60.1855 185.111 60.1777 185.209 60.1621C185.311 60.1426 185.387 60.127 185.438 60.1152L185.443 61C185.357 61.0273 185.244 61.0527 185.104 61.0762C184.967 61.1035 184.801 61.1172 184.605 61.1172C184.34 61.1172 184.096 61.0645 183.873 60.959C183.65 60.8535 183.473 60.6777 183.34 60.4316C183.211 60.1816 183.146 59.8457 183.146 59.4238V53.1191ZM187.77 52V61H186.686V52H187.77ZM187.512 57.5898L187.061 57.5723C187.064 57.1387 187.129 56.7383 187.254 56.3711C187.379 56 187.555 55.6777 187.781 55.4043C188.008 55.1309 188.277 54.9199 188.59 54.7715C188.906 54.6191 189.256 54.543 189.639 54.543C189.951 54.543 190.232 54.5859 190.482 54.6719C190.732 54.7539 190.945 54.8867 191.121 55.0703C191.301 55.2539 191.438 55.4922 191.531 55.7852C191.625 56.0742 191.672 56.4277 191.672 56.8457V61H190.582V56.834C190.582 56.502 190.533 56.2363 190.436 56.0371C190.338 55.834 190.195 55.6875 190.008 55.5977C189.82 55.5039 189.59 55.457 189.316 55.457C189.047 55.457 188.801 55.5137 188.578 55.627C188.359 55.7402 188.17 55.8965 188.01 56.0957C187.854 56.2949 187.73 56.5234 187.641 56.7812C187.555 57.0352 187.512 57.3047 187.512 57.5898ZM195.926 61.1172C195.484 61.1172 195.084 61.043 194.725 60.8945C194.369 60.7422 194.062 60.5293 193.805 60.2559C193.551 59.9824 193.355 59.6582 193.219 59.2832C193.082 58.9082 193.014 58.498 193.014 58.0527V57.8066C193.014 57.291 193.09 56.832 193.242 56.4297C193.395 56.0234 193.602 55.6797 193.863 55.3984C194.125 55.1172 194.422 54.9043 194.754 54.7598C195.086 54.6152 195.43 54.543 195.785 54.543C196.238 54.543 196.629 54.6211 196.957 54.7773C197.289 54.9336 197.561 55.1523 197.771 55.4336C197.982 55.7109 198.139 56.0391 198.24 56.418C198.342 56.793 198.393 57.2031 198.393 57.6484V58.1348H193.658V57.25H197.309V57.168C197.293 56.8867 197.234 56.6133 197.133 56.3477C197.035 56.082 196.879 55.8633 196.664 55.6914C196.449 55.5195 196.156 55.4336 195.785 55.4336C195.539 55.4336 195.312 55.4863 195.105 55.5918C194.898 55.6934 194.721 55.8457 194.572 56.0488C194.424 56.252 194.309 56.5 194.227 56.793C194.145 57.0859 194.104 57.4238 194.104 57.8066V58.0527C194.104 58.3535 194.145 58.6367 194.227 58.9023C194.312 59.1641 194.436 59.3945 194.596 59.5938C194.76 59.793 194.957 59.9492 195.188 60.0625C195.422 60.1758 195.688 60.2324 195.984 60.2324C196.367 60.2324 196.691 60.1543 196.957 59.998C197.223 59.8418 197.455 59.6328 197.654 59.3711L198.311 59.8926C198.174 60.0996 198 60.2969 197.789 60.4844C197.578 60.6719 197.318 60.8242 197.01 60.9414C196.705 61.0586 196.344 61.1172 195.926 61.1172ZM203.719 55.8789V63.4375H202.629V54.6602H203.625L203.719 55.8789ZM207.99 57.7773V57.9004C207.99 58.3613 207.936 58.7891 207.826 59.1836C207.717 59.5742 207.557 59.9141 207.346 60.2031C207.139 60.4922 206.883 60.7168 206.578 60.877C206.273 61.0371 205.924 61.1172 205.529 61.1172C205.127 61.1172 204.771 61.0508 204.463 60.918C204.154 60.7852 203.893 60.5918 203.678 60.3379C203.463 60.084 203.291 59.7793 203.162 59.4238C203.037 59.0684 202.951 58.668 202.904 58.2227V57.5664C202.951 57.0977 203.039 56.6777 203.168 56.3066C203.297 55.9355 203.467 55.6191 203.678 55.3574C203.893 55.0918 204.152 54.8906 204.457 54.7539C204.762 54.6133 205.113 54.543 205.512 54.543C205.91 54.543 206.264 54.6211 206.572 54.7773C206.881 54.9297 207.141 55.1484 207.352 55.4336C207.562 55.7188 207.721 56.0605 207.826 56.459C207.936 56.8535 207.99 57.293 207.99 57.7773ZM206.9 57.9004V57.7773C206.9 57.4609 206.867 57.1641 206.801 56.8867C206.734 56.6055 206.631 56.3594 206.49 56.1484C206.354 55.9336 206.178 55.7656 205.963 55.6445C205.748 55.5195 205.492 55.457 205.195 55.457C204.922 55.457 204.684 55.5039 204.48 55.5977C204.281 55.6914 204.111 55.8184 203.971 55.9785C203.83 56.1348 203.715 56.3145 203.625 56.5176C203.539 56.7168 203.475 56.9238 203.432 57.1387V58.6562C203.51 58.9297 203.619 59.1875 203.76 59.4297C203.9 59.668 204.088 59.8613 204.322 60.0098C204.557 60.1543 204.852 60.2266 205.207 60.2266C205.5 60.2266 205.752 60.166 205.963 60.0449C206.178 59.9199 206.354 59.75 206.49 59.5352C206.631 59.3203 206.734 59.0742 206.801 58.7969C206.867 58.5156 206.9 58.2168 206.9 57.9004ZM210.457 55.6562V61H209.373V54.6602H210.428L210.457 55.6562ZM212.438 54.625L212.432 55.6328C212.342 55.6133 212.256 55.6016 212.174 55.5977C212.096 55.5898 212.006 55.5859 211.904 55.5859C211.654 55.5859 211.434 55.625 211.242 55.7031C211.051 55.7812 210.889 55.8906 210.756 56.0312C210.623 56.1719 210.518 56.3398 210.439 56.5352C210.365 56.7266 210.316 56.9375 210.293 57.168L209.988 57.3438C209.988 56.9609 210.025 56.6016 210.1 56.2656C210.178 55.9297 210.297 55.6328 210.457 55.375C210.617 55.1133 210.82 54.9102 211.066 54.7656C211.316 54.6172 211.613 54.543 211.957 54.543C212.035 54.543 212.125 54.5527 212.227 54.5723C212.328 54.5879 212.398 54.6055 212.438 54.625ZM213.035 57.9004V57.7656C213.035 57.3086 213.102 56.8848 213.234 56.4941C213.367 56.0996 213.559 55.7578 213.809 55.4688C214.059 55.1758 214.361 54.9492 214.717 54.7891C215.072 54.625 215.471 54.543 215.912 54.543C216.357 54.543 216.758 54.625 217.113 54.7891C217.473 54.9492 217.777 55.1758 218.027 55.4688C218.281 55.7578 218.475 56.0996 218.607 56.4941C218.74 56.8848 218.807 57.3086 218.807 57.7656V57.9004C218.807 58.3574 218.74 58.7812 218.607 59.1719C218.475 59.5625 218.281 59.9043 218.027 60.1973C217.777 60.4863 217.475 60.7129 217.119 60.877C216.768 61.0371 216.369 61.1172 215.924 61.1172C215.479 61.1172 215.078 61.0371 214.723 60.877C214.367 60.7129 214.062 60.4863 213.809 60.1973C213.559 59.9043 213.367 59.5625 213.234 59.1719C213.102 58.7812 213.035 58.3574 213.035 57.9004ZM214.119 57.7656V57.9004C214.119 58.2168 214.156 58.5156 214.23 58.7969C214.305 59.0742 214.416 59.3203 214.564 59.5352C214.717 59.75 214.906 59.9199 215.133 60.0449C215.359 60.166 215.623 60.2266 215.924 60.2266C216.221 60.2266 216.48 60.166 216.703 60.0449C216.93 59.9199 217.117 59.75 217.266 59.5352C217.414 59.3203 217.525 59.0742 217.6 58.7969C217.678 58.5156 217.717 58.2168 217.717 57.9004V57.7656C217.717 57.4531 217.678 57.1582 217.6 56.8809C217.525 56.5996 217.412 56.3516 217.26 56.1367C217.111 55.918 216.924 55.7461 216.697 55.6211C216.475 55.4961 216.213 55.4336 215.912 55.4336C215.615 55.4336 215.354 55.4961 215.127 55.6211C214.904 55.7461 214.717 55.918 214.564 56.1367C214.416 56.3516 214.305 56.5996 214.23 56.8809C214.156 57.1582 214.119 57.4531 214.119 57.7656ZM221.25 55.8789V63.4375H220.16V54.6602H221.156L221.25 55.8789ZM225.521 57.7773V57.9004C225.521 58.3613 225.467 58.7891 225.357 59.1836C225.248 59.5742 225.088 59.9141 224.877 60.2031C224.67 60.4922 224.414 60.7168 224.109 60.877C223.805 61.0371 223.455 61.1172 223.061 61.1172C222.658 61.1172 222.303 61.0508 221.994 60.918C221.686 60.7852 221.424 60.5918 221.209 60.3379C220.994 60.084 220.822 59.7793 220.693 59.4238C220.568 59.0684 220.482 58.668 220.436 58.2227V57.5664C220.482 57.0977 220.57 56.6777 220.699 56.3066C220.828 55.9355 220.998 55.6191 221.209 55.3574C221.424 55.0918 221.684 54.8906 221.988 54.7539C222.293 54.6133 222.645 54.543 223.043 54.543C223.441 54.543 223.795 54.6211 224.104 54.7773C224.412 54.9297 224.672 55.1484 224.883 55.4336C225.094 55.7188 225.252 56.0605 225.357 56.459C225.467 56.8535 225.521 57.293 225.521 57.7773ZM224.432 57.9004V57.7773C224.432 57.4609 224.398 57.1641 224.332 56.8867C224.266 56.6055 224.162 56.3594 224.021 56.1484C223.885 55.9336 223.709 55.7656 223.494 55.6445C223.279 55.5195 223.023 55.457 222.727 55.457C222.453 55.457 222.215 55.5039 222.012 55.5977C221.812 55.6914 221.643 55.8184 221.502 55.9785C221.361 56.1348 221.246 56.3145 221.156 56.5176C221.07 56.7168 221.006 56.9238 220.963 57.1387V58.6562C221.041 58.9297 221.15 59.1875 221.291 59.4297C221.432 59.668 221.619 59.8613 221.854 60.0098C222.088 60.1543 222.383 60.2266 222.738 60.2266C223.031 60.2266 223.283 60.166 223.494 60.0449C223.709 59.9199 223.885 59.75 224.021 59.5352C224.162 59.3203 224.266 59.0742 224.332 58.7969C224.398 58.5156 224.432 58.2168 224.432 57.9004ZM229.535 61.1172C229.094 61.1172 228.693 61.043 228.334 60.8945C227.979 60.7422 227.672 60.5293 227.414 60.2559C227.16 59.9824 226.965 59.6582 226.828 59.2832C226.691 58.9082 226.623 58.498 226.623 58.0527V57.8066C226.623 57.291 226.699 56.832 226.852 56.4297C227.004 56.0234 227.211 55.6797 227.473 55.3984C227.734 55.1172 228.031 54.9043 228.363 54.7598C228.695 54.6152 229.039 54.543 229.395 54.543C229.848 54.543 230.238 54.6211 230.566 54.7773C230.898 54.9336 231.17 55.1523 231.381 55.4336C231.592 55.7109 231.748 56.0391 231.85 56.418C231.951 56.793 232.002 57.2031 232.002 57.6484V58.1348H227.268V57.25H230.918V57.168C230.902 56.8867 230.844 56.6133 230.742 56.3477C230.645 56.082 230.488 55.8633 230.273 55.6914C230.059 55.5195 229.766 55.4336 229.395 55.4336C229.148 55.4336 228.922 55.4863 228.715 55.5918C228.508 55.6934 228.33 55.8457 228.182 56.0488C228.033 56.252 227.918 56.5 227.836 56.793C227.754 57.0859 227.713 57.4238 227.713 57.8066V58.0527C227.713 58.3535 227.754 58.6367 227.836 58.9023C227.922 59.1641 228.045 59.3945 228.205 59.5938C228.369 59.793 228.566 59.9492 228.797 60.0625C229.031 60.1758 229.297 60.2324 229.594 60.2324C229.977 60.2324 230.301 60.1543 230.566 59.998C230.832 59.8418 231.064 59.6328 231.264 59.3711L231.92 59.8926C231.783 60.0996 231.609 60.2969 231.398 60.4844C231.188 60.6719 230.928 60.8242 230.619 60.9414C230.314 61.0586 229.953 61.1172 229.535 61.1172ZM234.352 55.6562V61H233.268V54.6602H234.322L234.352 55.6562ZM236.332 54.625L236.326 55.6328C236.236 55.6133 236.15 55.6016 236.068 55.5977C235.99 55.5898 235.9 55.5859 235.799 55.5859C235.549 55.5859 235.328 55.625 235.137 55.7031C234.945 55.7812 234.783 55.8906 234.65 56.0312C234.518 56.1719 234.412 56.3398 234.334 56.5352C234.26 56.7266 234.211 56.9375 234.188 57.168L233.883 57.3438C233.883 56.9609 233.92 56.6016 233.994 56.2656C234.072 55.9297 234.191 55.6328 234.352 55.375C234.512 55.1133 234.715 54.9102 234.961 54.7656C235.211 54.6172 235.508 54.543 235.852 54.543C235.93 54.543 236.02 54.5527 236.121 54.5723C236.223 54.5879 236.293 54.6055 236.332 54.625ZM240.281 54.6602V55.4922H236.854V54.6602H240.281ZM238.014 53.1191H239.098V59.4297C239.098 59.6445 239.131 59.8066 239.197 59.916C239.264 60.0254 239.35 60.0977 239.455 60.1328C239.561 60.168 239.674 60.1855 239.795 60.1855C239.885 60.1855 239.979 60.1777 240.076 60.1621C240.178 60.1426 240.254 60.127 240.305 60.1152L240.311 61C240.225 61.0273 240.111 61.0527 239.971 61.0762C239.834 61.1035 239.668 61.1172 239.473 61.1172C239.207 61.1172 238.963 61.0645 238.74 60.959C238.518 60.8535 238.34 60.6777 238.207 60.4316C238.078 60.1816 238.014 59.8457 238.014 59.4238V53.1191ZM243.334 60.3438L245.098 54.6602H246.258L243.715 61.9785C243.656 62.1348 243.578 62.3027 243.48 62.4824C243.387 62.666 243.266 62.8398 243.117 63.0039C242.969 63.168 242.789 63.3008 242.578 63.4023C242.371 63.5078 242.123 63.5605 241.834 63.5605C241.748 63.5605 241.639 63.5488 241.506 63.5254C241.373 63.502 241.279 63.4824 241.225 63.4668L241.219 62.5879C241.25 62.5918 241.299 62.5957 241.365 62.5996C241.436 62.6074 241.484 62.6113 241.512 62.6113C241.758 62.6113 241.967 62.5781 242.139 62.5117C242.311 62.4492 242.455 62.3418 242.572 62.1895C242.693 62.041 242.797 61.8359 242.883 61.5742L243.334 60.3438ZM242.039 54.6602L243.686 59.582L243.967 60.7246L243.188 61.123L240.855 54.6602H242.039ZM246.621 60.4258C246.621 60.2422 246.678 60.0879 246.791 59.9629C246.908 59.834 247.076 59.7695 247.295 59.7695C247.514 59.7695 247.68 59.834 247.793 59.9629C247.91 60.0879 247.969 60.2422 247.969 60.4258C247.969 60.6055 247.91 60.7578 247.793 60.8828C247.68 61.0078 247.514 61.0703 247.295 61.0703C247.076 61.0703 246.908 61.0078 246.791 60.8828C246.678 60.7578 246.621 60.6055 246.621 60.4258Z" fill="#091E25"/>
<path d="M315.163 79H351.097V67.7H327.48V66.005C327.48 60.468 329.401 56.513 336.859 48.603C348.385 36.399 352.227 28.037 352.227 18.658C352.227 6.002 345.899 -1.23 333.695 -1.23C321.491 -1.23 315.163 6.002 315.163 18.658V26.342H326.915V17.867C326.915 12.217 329.401 10.07 333.356 10.07C337.311 10.07 339.797 11.991 339.797 19.11C339.797 26.455 337.085 32.444 327.593 42.501C318.327 52.219 315.163 59.112 315.163 70.412V79Z" fill="white"/>
</g>
<defs>
<clipPath id="clip0_0_1">
<rect width="375" height="919" fill="white" transform="translate(-15 -197)"/>
</clipPath>
</defs>
</svg>
