<svg width="275" height="340" viewBox="0 0 275 340" fill="none" xmlns="http://www.w3.org/2000/svg">
<path d="M254.467 208.243C263.267 194.428 265.364 177.428 267.22 161.071C269.464 141.317 271.71 121.56 273.959 101.8C275.11 91.6816 276.159 80.979 272.067 71.6956C266.978 60.1873 255.2 53.5425 244.2 47.6812C210.276 29.6169 173.683 11.0056 135.616 15.4477C97.3062 19.8825 65.6629 46.7721 36.8722 72.8043C26.6789 82.0434 16.3902 91.4377 9.10089 103.153C1.81156 114.868 -2.19978 129.348 1.27622 142.756C6.10156 161.234 23.3862 173.06 39.4096 183.179L94.7395 218.139C105.388 224.873 116.094 231.629 127.644 236.618C167.838 253.921 228.492 248.998 254.467 208.243Z" fill="#EDBC8E" fill-opacity="0.15"/>
<path d="M137.5 308.092C213.439 308.092 275 304.352 275 299.74C275 295.127 213.439 291.387 137.5 291.387C61.5608 291.387 0 295.127 0 299.74C0 304.352 61.5608 308.092 137.5 308.092Z" fill="#EDBC8E" fill-opacity="0.3"/>
<path d="M252.795 167.982C252.795 167.982 249.971 174.206 248.065 176.852C246.158 179.498 244.339 182.026 242.821 189.284C241.303 196.542 241.56 197.304 241.142 199.181C240.724 201.058 238.018 208.694 238.003 210.091C237.989 211.488 232.525 219.448 231.132 223.173C229.739 226.898 227.253 232.22 227.392 234.933L228.015 234.77C228.605 230.214 230.256 225.862 232.833 222.072C237.153 215.686 236.537 214.474 241.435 211.199C246.334 207.925 249.502 198.856 249.502 198.856C249.502 198.856 254.489 189.018 254.254 183.903C254.019 178.788 255.347 174.169 252.787 168.012L252.795 167.982Z" fill="#EDB37D"/>
<path d="M246.165 158.425C246.165 158.425 245.997 162.505 244.699 164.937C243.401 167.369 242.264 168.832 242.022 171.456C241.78 174.08 240.973 180.843 237.321 184.154C233.669 187.466 233.2 197.348 230.443 200.349C227.685 203.35 227.333 205.478 227.817 210.652C228.301 215.826 230.069 222.892 226.05 232.19L225.133 229.87C225.133 229.87 228.008 222.234 227.333 217.763C226.659 213.291 224.217 206.528 225.097 203.283C225.977 200.038 222.684 199.403 224.679 194.502C226.673 189.602 225.845 187.894 228.551 183.652C228.551 183.652 228.829 183.46 229.541 179.867C230.252 176.275 235.979 169.704 238.627 167.457C241.274 165.21 245.073 161.618 246.18 158.447L246.165 158.425Z" fill="#EDB37D"/>
<path d="M235.4 178.648C235.4 178.648 232.232 184.103 232.188 187.621C232.144 191.139 232.526 193.985 230.92 198.804C229.314 203.623 232.496 206.653 231.58 209.314C230.663 211.975 230.597 215.116 230.619 217.504C230.641 219.891 226.996 227.785 226.439 231.784C225.882 235.783 226.6 235.783 226.6 235.783C226.6 235.783 227.202 230.505 228.067 228.768C229.598 225.487 230.931 222.116 232.056 218.672C232.65 216.343 234.256 214.85 235.664 210.911C237.072 206.971 239.052 203.645 238.891 198.05C238.73 192.455 240.981 186.549 235.422 178.64L235.4 178.648Z" fill="#FFE2C7"/>
<path d="M228.705 232.131C228.705 232.131 230.171 225.198 236.405 224.511C242.638 223.823 246.283 225.058 250.675 219.995C255.068 214.932 257.62 206.897 259.028 205.515C259.028 205.515 256.828 204.362 253.161 207.829C249.495 211.295 246.906 213.912 244.772 215.959C242.638 218.006 240.922 216.661 238.685 217.984C236.801 219.1 234.373 222.316 233.303 224.001C232.952 224.544 232.536 225.04 232.063 225.479C231.631 225.878 231.117 226.373 230.787 226.728C230.135 227.467 228.228 232.168 228.228 232.168H228.712L228.705 232.131Z" fill="#FFE2C7"/>
<path d="M226.512 230.904C226.512 230.904 228.712 222.434 227.246 218.287C225.779 214.141 221.174 211.073 221.379 208.464C221.584 205.855 224.518 198.818 222.112 193.578C222.112 193.578 221.196 198.257 220.294 199.292C219.392 200.326 213.202 204.525 214.302 210.068C215.402 215.612 221.423 216.898 222.904 218.531C224.386 220.165 226.38 220.157 226.395 221.244C226.624 224.218 226.538 227.209 226.138 230.165L226.512 230.904Z" fill="#FFE2C7"/>
<path d="M228.91 225.235L231.99 216.292C231.99 216.292 233.802 209.093 234.85 203.098C235.899 197.104 235.408 178.648 235.408 178.648C235.408 178.648 232.24 184.103 232.196 187.621C232.152 191.139 232.533 193.985 230.927 198.804C229.321 203.623 232.504 206.653 231.587 209.314C230.67 211.975 230.604 215.116 230.626 217.504C230.648 219.891 227.004 227.785 226.446 231.784C226.146 234.001 226.219 234.969 226.344 235.42C225.86 231.917 228.91 225.235 228.91 225.235Z" fill="#F2CAA4"/>
<path d="M244.09 219.906C241.333 220.46 238.876 220.276 235.613 222.722C233.673 224.172 231.932 225.875 230.435 227.785C230.435 227.785 228.969 230.424 228.36 231.813C228.279 232.028 228.221 232.153 228.221 232.153H228.705C228.705 232.153 230.171 225.22 236.405 224.533C242.638 223.846 246.283 225.08 250.675 220.017C255.068 214.954 257.62 206.92 259.028 205.537C256.344 207.652 253.817 209.962 251.467 212.448C248.578 215.693 246.833 219.374 244.09 219.928V219.906Z" fill="#F2CAA4"/>
<path d="M220.264 199.292C219.362 200.334 213.173 204.525 214.273 210.068C215.373 215.612 221.393 216.898 222.875 218.531C224.356 220.165 226.351 220.157 226.365 221.244C226.594 224.218 226.508 227.209 226.109 230.165L226.277 230.49C226.692 228.647 227.003 226.781 227.209 224.902C227.443 222.049 226.989 220.874 226.079 218.561C225.17 216.247 219.479 211.546 218.101 209.07C216.722 206.594 220.836 202.462 221.767 200.467C222.699 198.471 222.105 193.578 222.105 193.578C222.105 193.578 221.188 198.257 220.286 199.292H220.264Z" fill="#F2CAA4"/>
<path d="M234.96 226.817L235.928 224.459C236.088 224.054 236.326 223.684 236.628 223.371C236.93 223.058 237.29 222.809 237.688 222.636C238.085 222.464 238.513 222.372 238.946 222.367C239.379 222.361 239.809 222.442 240.211 222.604C244.288 224.4 246.077 229.397 244.171 233.765L242.792 236.958C242.502 237.605 242.387 238.319 242.461 239.025C242.534 239.732 242.793 240.406 243.21 240.979C243.575 241.486 243.801 242.081 243.863 242.705C243.924 243.328 243.821 243.957 243.562 244.527L242.829 246.204C242.441 247.083 241.87 247.868 241.155 248.506C240.441 249.144 239.598 249.619 238.685 249.9C238.129 250.073 237.617 250.366 237.185 250.76C236.753 251.153 236.412 251.636 236.185 252.177L235.151 254.564C234.654 255.806 233.688 256.799 232.466 257.325C231.245 257.852 229.866 257.869 228.631 257.373L227.223 256.752C226.628 256.468 226.093 256.069 225.651 255.577C225.208 255.085 224.866 254.51 224.644 253.884C224.422 253.259 224.324 252.596 224.357 251.932C224.389 251.269 224.551 250.619 224.833 250.018C226.681 246.877 226.534 244.519 225.881 242.93C225.4 241.746 225.16 240.476 225.175 239.196C225.19 237.916 225.46 236.652 225.969 235.48L226.116 235.147C226.648 233.914 227.435 232.808 228.424 231.905C229.413 231.001 230.581 230.32 231.851 229.907C232.566 229.65 233.216 229.236 233.754 228.695C234.292 228.155 234.703 227.501 234.96 226.78V226.817Z" fill="#FFE2C7"/>
<path d="M217.536 260.085C219.516 257.498 230.369 243.647 237.453 241.334C245.263 238.791 237.901 248.902 237.901 248.902C237.901 248.902 251.761 233.632 256.843 235.014C261.507 236.278 256.843 245.739 256.843 245.739C256.843 245.739 262.086 240.498 268.459 240.498C274.655 240.498 264.125 259.087 263.56 260.085H217.536Z" fill="#F2CAA4"/>
<path d="M259.307 230.113C253.588 239.099 249.468 249.022 247.133 259.435L246.745 259.331C249.104 249.011 253.205 239.176 258.867 230.254C260.179 228.184 261.602 225.73 264.059 224.925C264.103 224.925 264.125 224.984 264.059 224.991C261.807 225.849 260.509 228.177 259.285 230.113H259.307Z" fill="#EDB37D"/>
<path d="M248.512 259.812C255.058 250.842 262.858 242.875 271.67 236.16C271.766 236.086 271.89 236.256 271.802 236.322C263.109 243.06 255.426 251.026 248.988 259.974L248.512 259.812Z" fill="#EDB37D"/>
<path d="M259.82 224.585C260.212 225.009 260.51 225.513 260.693 226.063C260.817 226.573 260.817 227.105 260.693 227.615C261.099 227.204 261.394 226.695 261.551 226.137C261.68 225.717 261.723 225.275 261.678 224.838C261.632 224.401 261.499 223.978 261.287 223.594C260.693 222.663 259.651 222.567 259.446 223.018C259.385 223.29 259.387 223.574 259.451 223.845C259.516 224.117 259.642 224.37 259.82 224.585Z" fill="#EDB37D"/>
<path d="M261.177 232.538C260.757 232.136 260.257 231.829 259.71 231.636C259.207 231.485 258.675 231.465 258.163 231.577C258.584 231.168 259.105 230.877 259.673 230.734C260.094 230.618 260.534 230.586 260.967 230.642C261.4 230.698 261.818 230.84 262.196 231.06C263.105 231.673 263.179 232.723 262.724 232.922C262.458 232.982 262.181 232.978 261.916 232.911C261.652 232.845 261.406 232.717 261.199 232.538H261.177Z" fill="#EDB37D"/>
<path d="M259.131 236.026C258.711 235.625 258.211 235.317 257.664 235.125C257.165 234.969 256.634 234.949 256.124 235.066C256.653 234.559 257.328 234.235 258.052 234.141C258.776 234.046 259.511 234.187 260.15 234.541C261.059 235.162 261.133 236.211 260.685 236.411C260.418 236.469 260.14 236.464 259.875 236.398C259.609 236.331 259.362 236.204 259.153 236.026H259.131Z" fill="#EDB37D"/>
<path d="M266.427 244.113C266.006 243.712 265.507 243.405 264.96 243.211C264.46 243.06 263.93 243.04 263.42 243.152C263.842 242.744 264.363 242.456 264.931 242.316C265.35 242.197 265.788 242.163 266.22 242.217C266.652 242.27 267.069 242.409 267.446 242.627C268.356 243.248 268.429 244.305 267.974 244.497C267.52 244.689 266.933 244.416 266.456 244.113H266.427Z" fill="#EDB37D"/>
<path d="M270.153 240.809C269.731 240.407 269.232 240.097 268.686 239.9C268.185 239.757 267.657 239.737 267.146 239.841C267.571 239.438 268.091 239.15 268.657 239.005C269.076 238.888 269.513 238.855 269.945 238.908C270.377 238.961 270.794 239.1 271.172 239.316C272.081 239.937 272.155 240.994 271.7 241.193C271.245 241.393 270.659 241.104 270.182 240.809H270.153Z" fill="#EDB37D"/>
<path d="M256.96 228.532C257.42 228.897 257.793 229.362 258.053 229.892C258.268 230.368 258.362 230.892 258.324 231.414C258.747 230.817 258.97 230.101 258.962 229.367C258.954 228.634 258.715 227.922 258.28 227.334C257.547 226.507 256.498 226.595 256.373 227.054C256.249 227.512 256.593 228.088 256.96 228.532Z" fill="#EDB37D"/>
<path d="M253.953 232.486C254.568 232.68 255.117 233.044 255.538 233.536C255.877 233.992 256.062 234.547 256.066 235.117C256.432 234.488 256.638 233.777 256.667 233.048C256.733 231.954 256.088 230.786 255.516 230.572C254.474 229.973 253.125 230.505 253.015 231.089C252.905 231.673 253.425 232.153 253.953 232.486Z" fill="#EDB37D"/>
<path d="M250.8 238.473C251.435 238.555 252.036 238.811 252.538 239.212C252.948 239.61 253.224 240.127 253.33 240.69C253.584 240.004 253.669 239.266 253.579 238.54C253.455 237.46 252.626 236.418 252.032 236.322C250.895 235.908 249.656 236.67 249.649 237.261C249.641 237.852 250.228 238.237 250.8 238.473Z" fill="#EDB37D"/>
<path d="M260.15 242.642C260.635 242.841 261.058 243.168 261.375 243.588C261.628 243.981 261.751 244.444 261.727 244.911C262.053 244.417 262.259 243.852 262.328 243.263C262.391 242.876 262.35 242.479 262.211 242.113C262.072 241.747 261.839 241.424 261.536 241.178C260.715 240.631 259.593 240.986 259.468 241.467C259.343 241.947 259.739 242.346 260.15 242.642Z" fill="#EDB37D"/>
<path d="M265.027 225.989C264.792 225.728 264.505 225.521 264.183 225.383C263.893 225.276 263.581 225.24 263.274 225.28C263.542 225.058 263.863 224.913 264.205 224.858C264.713 224.757 265.239 224.86 265.672 225.146C266.185 225.56 266.178 226.189 265.899 226.277C265.621 226.366 265.283 226.189 265.019 225.989H265.027Z" fill="#EDB37D"/>
<path d="M263.89 223.439C263.953 223.785 263.938 224.142 263.846 224.481C263.757 224.778 263.596 225.047 263.376 225.265C263.713 225.188 264.023 225.025 264.278 224.792C264.474 224.62 264.633 224.41 264.748 224.175C264.862 223.941 264.93 223.685 264.946 223.424C264.946 222.767 264.447 222.39 264.212 222.552C263.978 222.715 263.912 223.099 263.904 223.439H263.89Z" fill="#EDB37D"/>
<path d="M272.8 237.438C272.567 237.175 272.279 236.968 271.957 236.832C271.669 236.725 271.359 236.692 271.055 236.736C271.316 236.508 271.637 236.359 271.979 236.307C272.23 236.256 272.49 236.256 272.742 236.307C272.993 236.358 273.233 236.458 273.445 236.603C273.959 237.01 273.959 237.638 273.68 237.734C273.401 237.83 273.101 237.638 272.8 237.438Z" fill="#EDB37D"/>
<path d="M271.458 234.874C271.551 235.21 271.566 235.565 271.502 235.908C271.436 236.214 271.295 236.499 271.091 236.736C271.421 236.627 271.719 236.437 271.957 236.182C272.32 235.804 272.52 235.296 272.514 234.77C272.448 234.12 271.927 233.78 271.7 233.957C271.473 234.134 271.443 234.526 271.458 234.874Z" fill="#EDB37D"/>
<path d="M270.505 251.452C264.726 252.095 259.336 254.667 254.159 257.173C250.661 258.866 250.837 259.346 250.126 259.605C250.099 259.613 250.071 259.613 250.044 259.605C250.017 259.597 249.993 259.582 249.975 259.561C249.957 259.54 249.944 259.514 249.94 259.487C249.935 259.459 249.939 259.431 249.95 259.405C250.334 258.882 250.837 258.458 251.416 258.171C252.003 257.809 252.612 257.483 253.228 257.18C254.548 256.537 255.904 255.953 257.239 255.37C259.96 254.123 262.772 253.087 265.65 252.273C267.234 251.851 268.851 251.564 270.483 251.415C270.483 251.415 270.52 251.452 270.483 251.452H270.505Z" fill="#EDB37D"/>
<path d="M265.291 249.649C265.455 250.171 265.5 250.725 265.423 251.267C265.338 251.747 265.139 252.198 264.843 252.583C265.351 252.395 265.803 252.079 266.156 251.666C266.694 251.059 266.971 250.262 266.926 249.449C266.794 248.436 265.951 247.971 265.606 248.237C265.449 248.436 265.339 248.669 265.284 248.917C265.23 249.166 265.232 249.423 265.291 249.671V249.649Z" fill="#EDB37D"/>
<path d="M260.201 251.489C260.366 252.012 260.414 252.565 260.341 253.108C260.251 253.587 260.05 254.038 259.754 254.424C260.258 254.236 260.709 253.926 261.067 253.522C261.602 252.913 261.881 252.117 261.844 251.304C261.705 250.292 260.861 249.826 260.517 250.092C260.366 250.288 260.26 250.514 260.206 250.756C260.151 250.997 260.15 251.247 260.201 251.489Z" fill="#EDB37D"/>
<path d="M255.031 253.81C255.184 254.335 255.227 254.886 255.156 255.429C255.076 255.907 254.876 256.357 254.577 256.737C255.21 256.501 255.752 256.07 256.126 255.504C256.5 254.938 256.687 254.268 256.659 253.588C256.52 252.576 255.684 252.11 255.339 252.376C255.182 252.575 255.073 252.808 255.019 253.057C254.966 253.305 254.97 253.563 255.031 253.81Z" fill="#EDB37D"/>
<path d="M266.816 254.446C266.643 253.971 266.37 253.54 266.017 253.182C265.69 252.876 265.295 252.656 264.865 252.539C265.341 252.394 265.846 252.374 266.332 252.48C266.698 252.551 267.047 252.694 267.358 252.902C267.669 253.11 267.936 253.379 268.143 253.692C268.605 254.52 268.261 255.355 267.843 255.333C267.425 255.31 267.073 254.867 266.816 254.446Z" fill="#EDB37D"/>
<path d="M261.521 256.338C261.349 255.863 261.076 255.432 260.722 255.074C260.396 254.764 259.997 254.543 259.563 254.431C260.039 254.282 260.545 254.262 261.03 254.372C261.397 254.442 261.746 254.586 262.057 254.794C262.368 255.002 262.635 255.271 262.841 255.584C263.303 256.412 262.951 257.247 262.533 257.225C262.115 257.202 261.8 256.759 261.521 256.338Z" fill="#EDB37D"/>
<path d="M270.849 252.502C270.682 252.222 270.454 251.985 270.182 251.807C269.938 251.658 269.661 251.574 269.375 251.563C269.725 251.369 270.127 251.293 270.522 251.345C270.918 251.396 271.287 251.574 271.575 251.851C271.979 252.31 271.869 252.879 271.575 252.923C271.282 252.967 271.033 252.731 270.842 252.502H270.849Z" fill="#EDB37D"/>
<path d="M270.241 249.989C270.242 250.314 270.169 250.635 270.028 250.927C269.896 251.184 269.705 251.404 269.471 251.57C269.789 251.549 270.098 251.453 270.373 251.29C270.785 251.036 271.082 250.63 271.201 250.159C271.304 249.56 270.923 249.131 270.666 249.235C270.409 249.338 270.307 249.686 270.241 249.989Z" fill="#EDB37D"/>
<path d="M21.2667 167.982C21.2667 167.982 24.0974 174.206 26.0041 176.852C27.9107 179.498 29.7221 182.026 31.2474 189.284C32.7727 196.542 32.5014 197.304 32.9267 199.181C33.3521 201.058 36.0507 208.694 36.0654 210.091C36.0801 211.488 41.5361 219.448 42.9367 223.173C44.3374 226.898 46.8161 232.22 46.6767 234.933L46.0534 234.77C45.463 230.213 43.8094 225.861 41.2281 222.072C36.9087 215.686 37.5614 214.474 32.6334 211.199C27.7054 207.925 24.5667 198.856 24.5667 198.856C24.5667 198.856 19.5801 189.018 19.8147 183.903C20.0494 178.788 18.7147 174.169 21.2814 168.012L21.2667 167.982Z" fill="#EDB37D"/>
<path d="M27.8667 158.425C27.8667 158.425 28.0281 162.505 29.3334 164.937C30.6387 167.369 31.7681 168.832 32.0027 171.456C32.2374 174.08 33.0587 180.843 36.7107 184.154C40.3627 187.466 40.8174 197.348 43.5894 200.349C46.3614 203.35 46.7354 205.478 46.2001 210.652C45.6647 215.826 44.0001 222.87 47.9967 232.168L48.9061 229.87C48.9061 229.87 46.0314 222.234 46.7061 217.763C47.3807 213.291 49.8227 206.528 48.9061 203.283C47.9894 200.038 51.3187 199.403 49.3314 194.502C47.3441 189.602 48.1654 187.894 45.4594 183.652C45.4594 183.652 45.1807 183.46 44.4694 179.867C43.7581 176.275 38.0234 169.704 35.3761 167.457C32.7287 165.21 28.9301 161.618 27.8301 158.447L27.8667 158.425Z" fill="#EDB37D"/>
<path d="M38.6392 178.648C38.6392 178.648 41.8072 184.103 41.8439 187.621C41.8806 191.139 41.5139 193.985 43.1199 198.804C44.7259 203.623 41.5432 206.653 42.4526 209.314C43.3619 211.975 43.4426 215.116 43.4206 217.504C43.3986 219.891 47.0432 227.785 47.6006 231.784C48.1579 235.783 47.4392 235.79 47.4392 235.79C47.4392 235.79 46.8379 230.513 45.9726 228.776C44.4386 225.495 43.1039 222.123 41.9759 218.679C41.3819 216.351 39.7759 214.858 38.3679 210.918C36.9599 206.979 35.0092 203.653 35.1999 198.087C35.3906 192.521 33.1172 186.586 38.6759 178.677L38.6392 178.648Z" fill="#FFE2C7"/>
<path d="M45.3351 232.131C45.3351 232.131 43.8684 225.198 37.6424 224.511C31.4164 223.823 27.7644 225.058 23.3717 219.995C18.9791 214.932 16.4197 206.897 15.0117 205.515C15.0117 205.515 17.2117 204.362 20.8784 207.829C24.5451 211.295 27.1337 213.912 29.2604 215.959C31.3871 218.006 33.1104 216.661 35.3544 217.984C37.2317 219.1 39.6664 222.316 40.7371 224.001C41.0854 224.545 41.5019 225.042 41.9764 225.479C42.4091 225.878 42.9224 226.373 43.2451 226.728C43.9051 227.467 45.8044 232.168 45.8044 232.168H45.3204L45.3351 232.131Z" fill="#FFE2C7"/>
<path d="M47.5344 230.904C47.5344 230.904 45.3344 222.434 46.801 218.287C48.2677 214.141 52.873 211.073 52.6677 208.464C52.4624 205.855 49.529 198.818 51.9344 193.578C51.9344 193.578 52.851 198.257 53.7457 199.292C54.6404 200.326 60.8444 204.525 59.7444 210.068C58.6444 215.612 52.6237 216.898 51.1424 218.531C49.661 220.165 47.6664 220.157 47.6664 221.244C47.4449 224.219 47.5334 227.209 47.9304 230.165L47.527 230.904H47.5344Z" fill="#FFE2C7"/>
<path d="M45.1367 225.235L42.0567 216.292C42.0567 216.292 40.2454 209.093 39.1967 203.098C38.1481 197.104 38.6394 178.648 38.6394 178.648C38.6394 178.648 41.8074 184.103 41.8441 187.621C41.8807 191.139 41.5141 193.985 43.1201 198.804C44.7261 203.623 41.5434 206.653 42.4527 209.314C43.3621 211.975 43.4427 215.116 43.4207 217.504C43.3987 219.891 47.0434 227.785 47.6007 231.784C47.8941 234.001 47.8281 234.969 47.6961 235.42C48.1874 231.917 45.1367 225.235 45.1367 225.235Z" fill="#F2CAA4"/>
<path d="M29.9571 219.906C32.7071 220.46 35.1711 220.276 38.4271 222.722C40.3701 224.171 42.1135 225.874 43.6117 227.785C43.6117 227.785 45.0784 230.424 45.6797 231.813L45.8191 232.153H45.3351C45.3351 232.153 43.8684 225.22 37.6424 224.533C31.4164 223.846 27.7644 225.08 23.3717 220.017C18.9791 214.954 16.4197 206.92 15.0117 205.537C17.6973 207.653 20.2266 209.963 22.5797 212.448C25.4691 215.693 27.2071 219.374 29.9571 219.928V219.906Z" fill="#F2CAA4"/>
<path d="M53.775 199.292C54.677 200.334 60.8737 204.525 59.7737 210.068C58.6737 215.612 52.653 216.898 51.1717 218.531C49.6904 220.165 47.6664 220.157 47.6664 221.244C47.4449 224.219 47.5333 227.209 47.9304 230.165L47.7544 230.49C47.3425 228.647 47.034 226.781 46.8304 224.902C46.5884 222.049 47.0504 220.874 47.9597 218.561C48.869 216.247 54.5597 211.546 55.9384 209.07C57.317 206.594 53.203 202.462 52.2717 200.467C51.3404 198.471 51.9417 193.578 51.9417 193.578C51.9417 193.578 52.8584 198.257 53.753 199.292H53.775Z" fill="#F2CAA4"/>
<path d="M39.0864 226.817L38.1331 224.459C37.8084 223.641 37.1752 222.987 36.3723 222.639C35.5695 222.291 34.6625 222.279 33.8504 222.604C29.7657 224.4 27.9837 229.397 29.8831 233.765L31.2691 236.958C31.5495 237.607 31.6538 238.319 31.5714 239.021C31.4889 239.724 31.2226 240.392 30.7997 240.957C30.4375 241.465 30.2149 242.061 30.1544 242.684C30.0938 243.307 30.1976 243.935 30.4551 244.504L31.1884 246.182C31.5774 247.062 32.1493 247.847 32.8654 248.485C33.5815 249.122 34.4251 249.597 35.3391 249.878C35.8948 250.052 36.4063 250.346 36.8381 250.739C37.2699 251.132 37.6117 251.615 37.8397 252.154L38.8664 254.542C39.3651 255.784 40.3316 256.777 41.5546 257.304C42.7777 257.83 44.1578 257.847 45.3931 257.351L46.8011 256.73C48.003 256.155 48.9292 255.123 49.3762 253.86C49.8231 252.598 49.7542 251.208 49.1844 249.996C47.3437 246.855 47.4831 244.497 48.1431 242.908C48.6246 241.724 48.8649 240.454 48.8498 239.174C48.8346 237.894 48.5644 236.63 48.0551 235.457L47.9011 235.125C47.3698 233.891 46.5835 232.785 45.5947 231.881C44.6058 230.977 43.437 230.297 42.1664 229.884C41.4523 229.627 40.8037 229.213 40.2674 228.672C39.731 228.131 39.3202 227.478 39.0644 226.758L39.0864 226.817Z" fill="#FFE2C7"/>
<path d="M56.5033 260.085C54.5233 257.498 43.6699 243.647 36.5933 241.333C28.7833 238.791 36.1459 248.902 36.1459 248.902C36.1459 248.902 22.2859 233.632 17.1966 235.043C12.5399 236.307 17.1966 245.768 17.1966 245.768C17.1966 245.768 11.9533 240.528 5.5806 240.528C-0.608734 240.528 9.9146 259.117 10.4793 260.115L56.5033 260.085Z" fill="#F2CAA4"/>
<path d="M14.7398 230.113C20.4534 239.1 24.5679 249.023 26.8985 259.435L27.2871 259.331C24.9286 249.013 20.8336 239.178 15.1798 230.254C13.8671 228.184 12.4445 225.73 9.98047 224.925V224.991C12.2318 225.849 13.5225 228.177 14.7545 230.113H14.7398Z" fill="#EDB37D"/>
<path d="M25.5348 259.812C18.9866 250.842 11.1835 242.875 2.36878 236.16C2.27344 236.086 2.14878 236.256 2.24411 236.322C10.9348 243.06 18.6161 251.026 25.0508 259.974L25.5348 259.812Z" fill="#EDB37D"/>
<path d="M14.2191 224.585C13.8324 225.012 13.5377 225.515 13.3538 226.063C13.2207 226.572 13.2207 227.107 13.3538 227.615C12.9396 227.22 12.6339 226.723 12.4664 226.174C12.3379 225.754 12.2944 225.313 12.3385 224.876C12.3826 224.44 12.5134 224.016 12.7231 223.631C13.3171 222.7 14.3658 222.604 14.5711 223.055C14.7764 223.506 14.5051 224.112 14.2118 224.607L14.2191 224.585Z" fill="#EDB37D"/>
<path d="M12.8702 232.538C13.2901 232.136 13.79 231.828 14.3368 231.636C14.8368 231.485 15.3668 231.464 15.8768 231.577C15.4551 231.168 14.9342 230.877 14.3662 230.734C13.9465 230.617 13.5079 230.585 13.0759 230.641C12.644 230.697 12.2275 230.839 11.8508 231.059C10.9415 231.673 10.8682 232.723 11.3155 232.922C11.5831 232.982 11.8607 232.978 12.1266 232.911C12.3925 232.845 12.6395 232.717 12.8482 232.538H12.8702Z" fill="#EDB37D"/>
<path d="M14.9161 236.026C15.336 235.624 15.8359 235.317 16.3827 235.125C16.882 234.969 17.4131 234.949 17.9227 235.066C17.501 234.656 16.9801 234.366 16.4121 234.223C15.9929 234.105 15.5545 234.072 15.1226 234.126C14.6907 234.181 14.2739 234.322 13.8967 234.541C12.9874 235.162 12.9141 236.211 13.3614 236.411C13.8087 236.61 14.4101 236.33 14.8941 236.026H14.9161Z" fill="#EDB37D"/>
<path d="M7.61945 244.113C8.04073 243.712 8.54028 243.405 9.08612 243.211C9.58613 243.06 10.1161 243.039 10.6261 243.152C10.2182 242.749 9.71244 242.461 9.15945 242.316C8.74073 242.197 8.30267 242.163 7.87082 242.217C7.43897 242.27 7.02196 242.409 6.64412 242.627C5.72745 243.248 5.65412 244.305 6.10878 244.497C6.56345 244.689 7.15745 244.416 7.63412 244.113H7.61945Z" fill="#EDB37D"/>
<path d="M3.89406 240.809C4.31317 240.404 4.81321 240.094 5.36073 239.9C5.8646 239.757 6.39491 239.737 6.90806 239.841C6.48279 239.438 5.96299 239.15 5.3974 239.005C4.54886 238.768 3.64181 238.88 2.87473 239.316C1.9654 239.937 1.8994 240.994 2.34673 241.193C2.79406 241.393 3.38806 241.104 3.87206 240.809H3.89406Z" fill="#EDB37D"/>
<path d="M17.0795 228.532C16.6265 228.894 16.2563 229.35 15.9942 229.87C15.7779 230.346 15.6822 230.869 15.7155 231.392C15.3778 230.917 15.1658 230.362 15.0995 229.781C15.0421 229.346 15.0709 228.904 15.1842 228.48C15.2975 228.056 15.493 227.659 15.7595 227.312C16.4929 226.485 17.5415 226.573 17.6735 227.031C17.8055 227.49 17.4535 228.066 17.0795 228.51V228.532Z" fill="#EDB37D"/>
<path d="M20.0862 232.486C19.4703 232.689 18.9238 233.063 18.5096 233.565C18.1731 234.024 17.986 234.577 17.9742 235.147C17.6079 234.517 17.4013 233.807 17.3729 233.077C17.3142 231.983 17.9522 230.816 18.5242 230.601C19.5729 230.003 20.9222 230.535 21.0322 231.119C21.1422 231.703 20.6142 232.183 20.0862 232.516V232.486Z" fill="#EDB37D"/>
<path d="M23.254 238.473C22.6211 238.556 22.0227 238.812 21.5233 239.212C21.1075 239.605 20.8295 240.124 20.7313 240.69C20.4775 240.004 20.392 239.266 20.482 238.54C20.5993 237.46 21.4353 236.418 22.022 236.322C23.166 235.908 24.398 236.67 24.4127 237.261C24.4273 237.852 23.8333 238.237 23.254 238.473Z" fill="#EDB37D"/>
<path d="M13.9331 242.642C13.447 242.843 13.022 243.169 12.7011 243.588C12.4508 243.981 12.3301 244.444 12.3565 244.911C12.0303 244.417 11.8243 243.852 11.7551 243.263C11.6917 242.876 11.7309 242.48 11.8687 242.114C12.0065 241.748 12.2381 241.425 12.5398 241.178C13.3685 240.631 14.4905 240.986 14.6151 241.467C14.7398 241.947 14.2998 242.346 13.9331 242.642Z" fill="#EDB37D"/>
<path d="M9.01263 225.989C9.24674 225.728 9.53452 225.521 9.85596 225.383C10.1465 225.276 10.4583 225.24 10.7653 225.28C10.4997 225.059 10.1809 224.914 9.8413 224.858C9.33382 224.758 8.8077 224.862 8.37463 225.147C7.86863 225.56 7.86863 226.189 8.1473 226.277C8.42596 226.366 8.7633 226.189 9.0273 225.989H9.01263Z" fill="#EDB37D"/>
<path d="M10.1493 223.439C10.0936 223.786 10.1085 224.141 10.1933 224.481C10.2833 224.779 10.4473 225.049 10.6699 225.265C10.3333 225.19 10.0222 225.026 9.76792 224.792C9.57006 224.622 9.4088 224.413 9.29403 224.178C9.17927 223.942 9.11344 223.686 9.10059 223.424C9.10059 222.767 9.59925 222.39 9.83392 222.552C10.0686 222.715 10.1346 223.099 10.1419 223.439H10.1493Z" fill="#EDB37D"/>
<path d="M1.20979 237.438C1.4439 237.177 1.73168 236.97 2.05313 236.832C2.33473 236.73 2.63638 236.697 2.93313 236.736C2.66913 236.512 2.34985 236.364 2.00913 236.307C1.75738 236.257 1.49824 236.257 1.24656 236.308C0.994881 236.359 0.755609 236.459 0.542459 236.603C0.0291254 237.009 0.0364588 237.638 0.315125 237.734C0.593792 237.83 0.945792 237.638 1.20979 237.438Z" fill="#EDB37D"/>
<path d="M2.58126 234.874C2.49547 235.212 2.48048 235.564 2.53726 235.908C2.59799 236.213 2.7342 236.498 2.93326 236.736C2.60152 236.627 2.30175 236.436 2.0606 236.182C1.88141 235.994 1.74061 235.773 1.64623 235.531C1.55186 235.289 1.50577 235.03 1.5106 234.77C1.5766 234.12 2.08993 233.78 2.3246 233.957C2.55926 234.134 2.60326 234.526 2.58126 234.874Z" fill="#EDB37D"/>
<path d="M3.53467 251.452C9.32067 252.095 14.7033 254.667 19.888 257.173C23.386 258.866 23.2027 259.346 23.914 259.605C23.9408 259.612 23.9688 259.611 23.9952 259.603C24.0216 259.595 24.0455 259.58 24.0642 259.56C24.0829 259.539 24.0959 259.514 24.1017 259.487C24.1075 259.46 24.106 259.432 24.0973 259.405C23.7142 258.881 23.2111 258.457 22.6307 258.171C22.0513 257.809 21.4353 257.483 20.8267 257.18C19.4993 256.537 18.15 255.953 16.808 255.37C14.0876 254.12 11.2755 253.085 8.39667 252.273C6.81272 251.85 5.19604 251.563 3.564 251.415C3.564 251.415 3.564 251.452 3.564 251.452H3.53467Z" fill="#EDB37D"/>
<path d="M8.7486 249.649C8.58749 250.172 8.54243 250.725 8.6166 251.267C8.69899 251.749 8.9008 252.201 9.20327 252.583C8.69463 252.397 8.24244 252.081 7.8906 251.666C7.35437 251.058 7.07541 250.262 7.11327 249.449C7.2526 248.436 8.0886 247.971 8.43327 248.237C8.77794 248.503 8.79994 249.146 8.7486 249.671V249.649Z" fill="#EDB37D"/>
<path d="M13.8376 251.489C13.6765 252.013 13.6315 252.565 13.7056 253.108C13.7904 253.589 13.992 254.041 14.2923 254.424C13.7907 254.235 13.3425 253.925 12.987 253.522C12.7187 253.222 12.5119 252.872 12.3785 252.491C12.2451 252.111 12.1877 251.707 12.2096 251.304C12.3416 250.292 13.185 249.826 13.5296 250.092C13.6865 250.293 13.7957 250.527 13.8491 250.777C13.9025 251.027 13.8986 251.286 13.8376 251.534V251.489Z" fill="#EDB37D"/>
<path d="M19.0156 253.81C18.8555 254.334 18.8104 254.886 18.8836 255.429C18.9696 255.907 19.1711 256.356 19.4703 256.737C18.9595 256.559 18.5059 256.245 18.1576 255.828C17.891 255.528 17.6858 255.177 17.5537 254.797C17.4215 254.416 17.3651 254.013 17.3876 253.611C17.5196 252.598 18.363 252.132 18.7076 252.398C18.8648 252.598 18.9744 252.83 19.0278 253.079C19.0812 253.328 19.0771 253.586 19.0156 253.832V253.81Z" fill="#EDB37D"/>
<path d="M7.23048 254.446C7.40013 253.971 7.67042 253.54 8.02248 253.182C8.35086 252.875 8.74865 252.655 9.18114 252.539C8.70513 252.394 8.20044 252.374 7.71448 252.48C7.34792 252.551 6.99901 252.694 6.68806 252.902C6.3771 253.11 6.11029 253.379 5.90314 253.692C5.44114 254.52 5.77848 255.355 6.20381 255.333C6.62914 255.31 6.93714 254.867 7.23048 254.446Z" fill="#EDB37D"/>
<path d="M12.5252 256.338C12.6918 255.86 12.9653 255.428 13.3245 255.074C13.6507 254.764 14.0493 254.543 14.4832 254.431C14.0078 254.282 13.5021 254.262 13.0165 254.372C12.6498 254.442 12.3008 254.586 11.9898 254.794C11.6787 255.002 11.412 255.271 11.2052 255.584C10.7432 256.412 11.0878 257.247 11.5058 257.225C11.9238 257.202 12.2758 256.759 12.5252 256.338Z" fill="#EDB37D"/>
<path d="M3.18994 252.502C3.36312 252.224 3.59315 251.987 3.86461 251.807C4.10818 251.657 4.38604 251.573 4.67128 251.563C4.39246 251.4 4.077 251.311 3.75461 251.304C3.27089 251.303 2.80565 251.491 2.45661 251.829C2.06061 252.287 2.17061 252.856 2.45661 252.901C2.74261 252.945 3.00661 252.709 3.18994 252.479V252.502Z" fill="#EDB37D"/>
<path d="M3.79886 249.989C3.80505 250.314 3.88006 250.634 4.01886 250.928C4.14866 251.185 4.34022 251.406 4.57619 251.571C4.25656 251.555 3.94505 251.464 3.66686 251.305C3.25297 251.051 2.95313 250.646 2.83086 250.174C2.72819 249.575 3.11686 249.146 3.36619 249.25C3.61552 249.353 3.74019 249.686 3.79886 249.989Z" fill="#EDB37D"/>
<path d="M225.918 188.796H48.5391V260.122H225.918V188.796Z" fill="#FFE2C7" stroke="#F2CAA4" stroke-width="0.56" stroke-miterlimit="69.46"/>
<path fill-rule="evenodd" clip-rule="evenodd" d="M52.47 151.98H222.625L236.067 188.804H38.9326L52.47 151.98Z" fill="#F2CAA4" stroke="#F2CAA4" stroke-width="0.56" stroke-miterlimit="69.46"/>
<path d="M79.0241 205.345H58.4175V238.68H79.0241V205.345Z" fill="white" stroke="#F2CAA4" stroke-width="0.56" stroke-miterlimit="69.46"/>
<path d="M217.521 205.345H196.915V238.68H217.521V205.345Z" fill="white" stroke="#F2CAA4" stroke-width="0.56" stroke-miterlimit="69.46"/>
<path fill-rule="evenodd" clip-rule="evenodd" d="M82.3677 263.441H192.089V125.438L168.498 107.514L137.544 83.7361L106.238 107.787L82.3677 125.807V263.441Z" fill="#FFE2C7" stroke="#F2CAA4" stroke-width="0.56" stroke-miterlimit="69.46"/>
<path fill-rule="evenodd" clip-rule="evenodd" d="M75.2549 130.737L137.361 83.5661L137.383 83.5513V83.5587V83.5513L137.398 83.5661L199.511 130.737L194.84 136.88L137.383 93.2487L79.9262 136.88L75.2549 130.737Z" fill="#F2CAA4" stroke="#F2CAA4" stroke-width="0.56" stroke-miterlimit="69.46"/>
<path d="M148.009 217.644H126.434V263.441H148.009V217.644Z" fill="white" stroke="#F2CAA4" stroke-width="0.56" stroke-miterlimit="69.46"/>
<path d="M185.328 203.453H155.334V252.576H185.328V203.453Z" fill="white" stroke="#F2CAA4" stroke-width="0.56" stroke-miterlimit="69.46"/>
<path d="M119.313 203.453H89.3198V252.576H119.313V203.453Z" fill="white" stroke="#F2CAA4" stroke-width="0.56" stroke-miterlimit="69.46"/>
<path d="M115.595 138.062H94.9883V171.397H115.595V138.062Z" fill="white" stroke="#F2CAA4" stroke-width="0.56" stroke-miterlimit="69.46"/>
<path d="M147.231 138.062H126.625V171.397H147.231V138.062Z" fill="white" stroke="#F2CAA4" stroke-width="0.56" stroke-miterlimit="69.46"/>
<path d="M177.723 138.062H157.117V171.397H177.723V138.062Z" fill="white" stroke="#F2CAA4" stroke-width="0.56" stroke-miterlimit="69.46"/>
<path d="M150.025 260.13H124.432V263.448H150.025V260.13Z" fill="white" stroke="#F2CAA4" stroke-width="0.56" stroke-miterlimit="69.46"/>
<path d="M68.0605 205.345V238.673" stroke="#F2CAA4" stroke-width="0.56" stroke-miterlimit="69.46"/>
<path d="M207.218 205.345V238.673" stroke="#F2CAA4" stroke-width="0.56" stroke-miterlimit="69.46"/>
<path d="M105.292 138.062V171.404" stroke="#F2CAA4" stroke-width="0.56" stroke-miterlimit="69.46"/>
<path d="M136.928 138.062V171.404" stroke="#F2CAA4" stroke-width="0.56" stroke-miterlimit="69.46"/>
<path d="M167.42 138.062V171.404" stroke="#F2CAA4" stroke-width="0.56" stroke-miterlimit="69.46"/>
<path d="M170.332 203.453V252.568" stroke="#F2CAA4" stroke-width="0.56" stroke-miterlimit="69.46"/>
<path d="M104.317 203.453V252.568" stroke="#F2CAA4" stroke-width="0.56" stroke-miterlimit="69.46"/>
<path d="M67.4887 275.895L66.7627 287.403L75.6654 286.79L79.3174 275.038L67.4887 275.895Z" fill="white"/>
<path d="M68.068 276.479L67.4226 286.738L75.2033 286.199L78.4666 275.696L68.068 276.479ZM66.7333 288.024C66.6526 288.024 66.5728 288.008 66.4985 287.976C66.4243 287.944 66.357 287.898 66.3006 287.84C66.2379 287.779 66.1891 287.705 66.1574 287.623C66.1258 287.542 66.1121 287.454 66.1173 287.367L66.8506 275.866C66.8592 275.715 66.922 275.573 67.0273 275.465C67.1326 275.358 67.2731 275.292 67.4226 275.282L79.2513 274.424C79.3519 274.416 79.4532 274.432 79.5459 274.472C79.6387 274.513 79.72 274.576 79.7825 274.656C79.8451 274.736 79.887 274.83 79.9043 274.93C79.9217 275.031 79.914 275.134 79.882 275.23L76.2153 286.975C76.1793 287.093 76.1091 287.198 76.0137 287.275C75.9183 287.353 75.8021 287.4 75.68 287.411L66.7773 288.024H66.7333Z" fill="#091E25"/>
<path d="M31.7018 255.591C30.3451 256.641 22.5571 268.896 22.5571 268.896L30.0298 277.026L40.2378 263.943L31.7018 255.591Z" fill="white"/>
<path d="M23.3274 268.822L29.986 276.058L39.4094 263.988L31.7094 256.478C30.2574 258.163 26.048 264.549 23.3274 268.822ZM30.0667 277.639C29.9805 277.641 29.8951 277.623 29.8165 277.587C29.7379 277.551 29.6681 277.499 29.612 277.433L22.1394 269.302C22.0498 269.203 21.9948 269.077 21.9829 268.944C21.971 268.81 22.0028 268.677 22.0734 268.563C22.8727 267.299 29.9567 256.19 31.3647 255.103C31.4831 255.014 31.6286 254.97 31.776 254.978C31.9234 254.986 32.0633 255.046 32.1714 255.148L40.7 263.493C40.8109 263.598 40.8785 263.742 40.8893 263.895C40.9002 264.048 40.8536 264.2 40.7587 264.32L30.5067 277.396C30.4514 277.467 30.3816 277.526 30.3019 277.568C30.2222 277.61 30.1345 277.634 30.0447 277.639H30.0667Z" fill="#091E25"/>
<path d="M24.7059 261.785L16.5732 270.655C15.766 271.536 15.3056 272.684 15.2786 273.883C15.2516 275.082 15.6598 276.249 16.4266 277.166C22.6746 284.676 37.6272 302.149 40.6266 301.21C47.7399 298.993 35.2806 271.823 35.2806 271.823L30.4992 273.87L24.7059 261.785Z" fill="white"/>
<path d="M24.5517 262.864L17.0277 271.076C16.3215 271.846 15.9184 272.849 15.8941 273.897C15.8698 274.945 16.2259 275.965 16.8957 276.767C30.7117 293.361 38.5291 300.627 40.3331 300.627C40.3817 300.634 40.4311 300.634 40.4797 300.627C40.7824 300.53 41.0589 300.364 41.2878 300.142C41.5167 299.921 41.6919 299.649 41.7997 299.348C44.2197 293.893 36.5124 275.984 35.0237 272.613L30.7997 274.432C30.6532 274.493 30.489 274.496 30.3405 274.44C30.192 274.384 30.0703 274.272 30.0004 274.129L24.5884 262.864H24.5517ZM40.4724 301.846C37.6197 301.846 29.3771 293.716 15.9497 277.558C15.0919 276.522 14.6375 275.207 14.6712 273.857C14.7049 272.508 15.2245 271.218 16.1331 270.226L24.2657 261.357C24.3346 261.284 24.4199 261.229 24.5145 261.197C24.609 261.165 24.7099 261.156 24.8084 261.172C24.908 261.183 25.0029 261.221 25.0839 261.28C25.1649 261.34 25.2292 261.42 25.2704 261.512L30.7997 273.057L35.0604 271.261C35.2086 271.2 35.3743 271.2 35.5231 271.259C35.6719 271.318 35.7924 271.432 35.8597 271.579C36.2704 272.466 45.7817 293.376 42.8924 299.88C42.7144 300.339 42.436 300.751 42.078 301.087C41.7199 301.422 41.2914 301.671 40.8244 301.817C40.71 301.85 40.5916 301.868 40.4724 301.868V301.846Z" fill="#091E25"/>
<path d="M39.6514 297.988C39.5622 297.986 39.4745 297.965 39.3937 297.927C39.3129 297.888 39.2409 297.834 39.1821 297.766L17.6441 272.133C17.5391 272.006 17.488 271.843 17.5017 271.678C17.5154 271.514 17.5929 271.361 17.7174 271.254C17.843 271.149 18.0046 271.099 18.1668 271.114C18.3289 271.129 18.4785 271.209 18.5828 271.335L40.1281 296.968C40.2007 297.06 40.2464 297.17 40.26 297.287C40.2735 297.403 40.2544 297.521 40.2048 297.627C40.1551 297.734 40.077 297.824 39.9792 297.887C39.8814 297.951 39.7679 297.986 39.6514 297.988Z" fill="#091E25"/>
<path d="M33.4766 283.242C33.3675 283.242 33.2604 283.212 33.1663 283.156C33.0722 283.1 32.9946 283.02 32.9413 282.924C32.8628 282.782 32.8418 282.615 32.8828 282.458C32.9238 282.301 33.0237 282.166 33.1613 282.082L37.7593 279.391C37.8291 279.35 37.9063 279.323 37.9865 279.312C38.0666 279.301 38.1482 279.305 38.2265 279.326C38.3048 279.347 38.3784 279.382 38.4429 279.432C38.5074 279.481 38.5617 279.542 38.6026 279.613C38.6436 279.683 38.6703 279.761 38.6814 279.842C38.6925 279.923 38.6877 280.005 38.6673 280.084C38.6469 280.163 38.6112 280.237 38.5624 280.302C38.5135 280.367 38.4524 280.422 38.3826 280.463L33.7846 283.175C33.6887 283.222 33.5831 283.245 33.4766 283.242Z" fill="#091E25"/>
<path d="M37.2022 287.707C37.1047 287.706 37.0087 287.683 36.922 287.638C36.8353 287.593 36.7604 287.528 36.7035 287.448C36.6108 287.312 36.5743 287.145 36.6016 286.982C36.629 286.819 36.7182 286.673 36.8502 286.576L39.3582 284.794C39.4238 284.746 39.4983 284.712 39.5773 284.694C39.6563 284.675 39.7381 284.673 39.8181 284.686C39.898 284.7 39.9744 284.73 40.0427 284.774C40.1111 284.818 40.1701 284.875 40.2162 284.942C40.3085 285.077 40.3448 285.243 40.3174 285.405C40.29 285.566 40.2011 285.711 40.0695 285.807L37.5615 287.588C37.4575 287.666 37.3315 287.707 37.2022 287.707Z" fill="#091E25"/>
<path d="M29.3335 254.261L40.2602 266.346C40.2602 266.346 70.4662 239.286 82.2435 224.385C94.0208 209.484 114.591 186.468 105.71 144.389L72.4022 144.219C72.4022 144.219 64.1228 212.434 29.3335 254.261Z" fill="#091E25"/>
<path d="M40.1869 267.218L28.4902 254.261L28.8349 253.84C63.1402 212.655 71.6836 144.825 71.7716 144.13L71.8376 143.583L106.187 143.753L106.29 144.249C114.789 184.539 96.5582 207.385 84.4949 222.5L82.6982 224.755C71.0162 239.537 40.9422 266.53 40.6416 266.796L40.1869 267.218ZM30.1256 254.261L40.2749 265.488C44.0956 262.044 70.9062 237.704 81.7376 224.016C82.3169 223.276 82.9182 222.537 83.5342 221.754C95.3996 206.875 113.315 184.435 105.19 145.025L72.9229 144.862C72.0356 151.403 62.7296 214.703 30.1256 254.261Z" fill="#091E25"/>
<path d="M65.7137 283.929L63.5137 295.755C63.6548 297.034 64.2543 298.216 65.1996 299.081C66.1449 299.945 67.3708 300.432 68.647 300.449C79.0383 300.611 103.517 300.648 104.874 297.537C108.086 290.205 77.579 281.32 77.579 281.32L75.8703 286.649L65.765 283.922L65.7137 283.929Z" fill="white"/>
<path d="M64.1078 295.793C64.2533 296.897 64.7868 297.913 65.6117 298.654C66.4365 299.396 67.4979 299.815 68.6032 299.836C93.9325 300.228 103.649 298.712 104.265 297.293C104.397 296.977 104.458 296.635 104.442 296.293C104.427 295.95 104.337 295.615 104.177 295.312C101.478 289.488 81.5758 283.205 77.9311 282.097L76.3985 286.849C76.351 286.999 76.2485 287.124 76.1121 287.2C75.9757 287.275 75.8158 287.295 75.6651 287.256L66.1978 284.691L64.1151 295.778L64.1078 295.793ZM76.7212 301.144C74.1765 301.144 71.4705 301.144 68.5885 301.078C67.1669 301.051 65.8032 300.505 64.7511 299.541C63.699 298.577 63.03 297.261 62.8685 295.837C62.8576 295.776 62.8576 295.713 62.8685 295.652L65.0685 283.826C65.0845 283.744 65.1176 283.666 65.1656 283.597C65.2136 283.528 65.2755 283.47 65.3471 283.427C65.4183 283.382 65.4979 283.351 65.581 283.337C65.6641 283.323 65.7492 283.326 65.8311 283.346L75.3645 285.933L76.8971 281.165C76.9446 281.016 77.0471 280.891 77.1835 280.815C77.3199 280.739 77.4799 280.719 77.6305 280.759C78.6278 281.047 102.028 287.921 105.218 294.802C105.457 295.264 105.591 295.774 105.61 296.294C105.629 296.814 105.533 297.332 105.328 297.811C104.346 300.028 94.7171 301.159 76.6551 301.159L76.7212 301.144Z" fill="#091E25"/>
<path d="M101.053 296.288L65.4277 295.889C65.3469 295.89 65.2667 295.874 65.1919 295.843C65.1171 295.812 65.0493 295.767 64.9925 295.709C64.9356 295.651 64.891 295.582 64.8612 295.506C64.8314 295.43 64.8171 295.349 64.819 295.268C64.8169 295.185 64.8317 295.103 64.8625 295.027C64.8932 294.951 64.9393 294.881 64.9979 294.824C65.0564 294.766 65.1261 294.722 65.2026 294.692C65.279 294.663 65.3607 294.65 65.4424 294.654L101.068 295.046C101.231 295.046 101.388 295.111 101.503 295.228C101.619 295.344 101.684 295.502 101.684 295.667C101.684 295.832 101.619 295.99 101.503 296.106C101.388 296.222 101.231 296.288 101.068 296.288H101.053Z" fill="#091E25"/>
<path d="M84.9125 290.996H84.7952C84.7138 290.982 84.6361 290.951 84.5668 290.906C84.4975 290.861 84.438 290.802 84.3921 290.732C84.3461 290.663 84.3146 290.585 84.2994 290.504C84.2843 290.422 84.2858 290.338 84.3039 290.257L85.3452 284.624C85.3753 284.462 85.4684 284.318 85.6038 284.224C85.7393 284.131 85.9061 284.095 86.0675 284.125C86.2289 284.156 86.3718 284.25 86.4646 284.386C86.5575 284.523 86.5927 284.691 86.5625 284.853L85.5139 290.478C85.4912 290.623 85.4181 290.754 85.3079 290.849C85.1977 290.944 85.0575 290.996 84.9125 290.996Z" fill="#091E25"/>
<path d="M91.1018 291.092H91.0431C90.9624 291.084 90.8839 291.061 90.8123 291.022C90.7407 290.984 90.6774 290.932 90.6262 290.868C90.5749 290.805 90.5368 290.732 90.5139 290.654C90.4911 290.575 90.484 290.493 90.4931 290.412L90.8085 287.123C90.8318 286.965 90.9141 286.823 91.0383 286.725C91.1626 286.627 91.3194 286.581 91.4764 286.596C91.6334 286.612 91.7787 286.687 91.8823 286.807C91.9858 286.927 92.0398 287.082 92.0331 287.241L91.7105 290.537C91.6959 290.69 91.6257 290.832 91.5132 290.936C91.4008 291.04 91.2542 291.098 91.1018 291.099V291.092Z" fill="#091E25"/>
<path d="M53.4159 138.055C51.9015 153.713 52.9094 169.515 56.4005 184.849C62.2159 209.299 67.0265 268.689 65.2665 279.96L79.9332 280.034C79.9332 280.034 107.221 188.027 85.7999 143.369L53.4012 138.055H53.4159Z" fill="#091E25"/>
<path d="M80.3954 280.655L64.5334 280.581L64.6434 279.842C66.3007 269.206 61.7687 210.142 55.7921 184.975C50.0427 160.717 52.8001 138.217 52.8001 137.981L52.8807 137.345L86.2181 142.807L86.3574 143.103C97.5334 166.304 95.3334 202.374 91.5127 228.539C88.9515 245.984 85.2772 263.244 80.5127 280.212L80.3954 280.655ZM66.0001 279.34L79.5081 279.406C81.5101 272.421 105.483 186.379 85.4261 143.931L53.9881 138.757C53.5921 142.578 51.8614 162.912 57.0314 184.687C62.5241 207.932 67.5181 266.087 66.0001 279.34Z" fill="#091E25"/>
<path d="M63.2502 245.753C63.1689 245.751 63.0891 245.731 63.0153 245.697C62.9415 245.662 62.8754 245.614 62.8207 245.553C62.766 245.492 62.7239 245.421 62.6969 245.344C62.6699 245.267 62.6586 245.185 62.6635 245.103C63.0229 238.414 58.3149 207.57 58.2635 207.252C58.246 207.093 58.2904 206.932 58.3874 206.805C58.4845 206.678 58.6266 206.594 58.784 206.57C58.9415 206.546 59.102 206.584 59.2319 206.677C59.3618 206.77 59.451 206.91 59.4809 207.067C59.6715 208.346 64.2549 238.355 63.8809 245.177C63.8714 245.334 63.8022 245.482 63.6875 245.589C63.5727 245.697 63.4214 245.756 63.2649 245.753H63.2502Z" fill="white"/>
<path d="M103.657 74.4157L175.56 86.2418L165.293 93.6331C165.293 93.6331 111.027 102.429 93.2212 97.1366L103.686 74.4009L103.657 74.4157Z" fill="white"/>
<path d="M51.1136 153.155L109.12 144.404L101.406 101.764L108.16 101.623L117.106 73.7358C117.106 73.7358 77.873 67.5197 51.2016 68.2515C44.7716 68.4284 38.661 71.1156 34.159 75.7463C27.8963 82.1767 19.3676 92.0071 17.043 99.9602L45.1076 110.633L47.777 106.671C47.777 106.671 42.805 133.465 51.1136 153.155Z" fill="#EDB37D"/>
<path d="M47.7767 106.051C47.858 106.048 47.9385 106.066 48.0114 106.102C48.1429 106.153 48.2525 106.25 48.3208 106.374C48.3892 106.498 48.412 106.643 48.3854 106.782C48.3341 107.048 43.6187 133.221 51.4947 152.475L108.401 143.887L100.789 101.874C100.766 101.696 100.814 101.516 100.921 101.372C100.979 101.303 101.051 101.247 101.132 101.207C101.213 101.168 101.301 101.146 101.391 101.143L107.712 101.01L116.292 74.2384C110.858 73.4105 75.5701 68.2145 51.2161 68.8723C44.9435 69.0364 38.9808 71.6556 34.5914 76.1749C28.2554 82.6866 20.2767 91.9553 17.7981 99.5831L44.8727 109.879L47.2707 106.324C47.3258 106.24 47.4009 106.17 47.4892 106.122C47.5776 106.075 47.6764 106.05 47.7767 106.051ZM51.1134 153.776C50.9926 153.778 50.8741 153.743 50.7734 153.675C50.6727 153.608 50.5944 153.512 50.5487 153.399C43.8167 137.434 45.7674 116.664 46.7647 109.288L45.6207 110.988C45.5414 111.103 45.4261 111.188 45.2932 111.23C45.1603 111.271 45.0175 111.267 44.8874 111.217L16.8154 100.522C16.6759 100.464 16.5619 100.357 16.4945 100.222C16.4271 100.086 16.4108 99.9298 16.4487 99.7827C18.7881 91.8075 27.1334 82.0436 33.7334 75.3101C38.3363 70.5605 44.5944 67.8058 51.1794 67.6305C77.5794 66.8914 116.805 73.0558 117.179 73.1223C117.267 73.1376 117.351 73.1711 117.426 73.2207C117.5 73.2703 117.564 73.3349 117.612 73.4105C117.657 73.4868 117.684 73.5719 117.693 73.6599C117.702 73.7479 117.692 73.8368 117.663 73.9205L108.724 101.815C108.684 101.937 108.607 102.044 108.505 102.12C108.403 102.197 108.279 102.24 108.152 102.244L102.117 102.37L109.707 144.301C109.725 144.384 109.725 144.47 109.708 144.554C109.691 144.637 109.657 144.716 109.608 144.786C109.559 144.855 109.496 144.914 109.424 144.958C109.351 145.001 109.27 145.029 109.186 145.04L51.2014 153.739L51.1134 153.776Z" fill="#091E25"/>
<path d="M47.7766 107.292C47.6879 107.29 47.6006 107.27 47.5199 107.233C47.4467 107.198 47.381 107.149 47.3266 107.088C47.2722 107.028 47.2301 106.957 47.2029 106.88C47.1756 106.803 47.1637 106.722 47.1678 106.64C47.1718 106.559 47.1918 106.479 47.2266 106.405L52.1693 95.7321C52.2407 95.5843 52.3662 95.4702 52.5193 95.4137C52.6725 95.3572 52.8414 95.3627 52.9906 95.429C53.0638 95.4639 53.1296 95.513 53.184 95.5735C53.2384 95.634 53.2804 95.7047 53.3076 95.7816C53.3349 95.8585 53.3468 95.9401 53.3427 96.0216C53.3387 96.1032 53.3187 96.1831 53.2839 96.2569L48.3413 106.93C48.291 107.038 48.2113 107.13 48.1112 107.194C48.0112 107.258 47.8951 107.292 47.7766 107.292Z" fill="#091E25"/>
<path d="M70.8619 55.9447C67.9285 56.6838 64.6872 54.0082 63.7119 53.1951C60.5219 50.5417 58.7985 46.2547 60.2505 45.0647C61.1745 44.2886 62.7219 45.2864 63.7485 44.4808C65.3692 43.2169 62.1425 39.5212 63.4405 37.2299C64.9072 34.6651 69.7912 37.4369 76.3765 34.473C79.3905 33.113 79.9919 31.8047 82.0599 31.9599C85.2279 32.2038 88.6599 35.6925 88.2565 38.4199C87.7652 41.7756 81.9499 40.7704 77.2052 46.2104C73.1352 50.8225 74.1985 55.0947 70.8619 55.9447Z" fill="#091E25"/>
<path d="M84.9347 52.1235C83.564 50.4045 82.5311 48.4378 81.8913 46.3288C81.0407 43.5348 80.19 41.5318 80.19 41.5318C68.266 43.1579 71.9693 50.5862 71.9693 50.5862C71.9693 50.5862 68.6767 49.1079 68.662 52.1457C68.662 53.2544 70.0773 54.8288 70.9647 55.3018L64.4307 68.7909C74.844 73.2257 80.982 69.9588 80.982 69.9588L78.826 60.3944C80.1578 60.5738 81.5106 60.5163 82.8227 60.2244C83.357 58.943 83.6217 57.5638 83.6 56.174C83.6153 55.5032 83.8182 54.8504 84.1853 54.2908C84.5525 53.7311 85.069 53.2873 85.6753 53.0105L84.942 52.1235H84.9347Z" fill="white"/>
<path d="M65.2664 68.4656C73.3991 71.7399 78.7671 70.173 80.2631 69.5965L78.2171 60.5273C78.1982 60.4281 78.2023 60.3258 78.229 60.2283C78.2557 60.1309 78.3043 60.041 78.3711 59.9656C78.438 59.8923 78.522 59.8371 78.6155 59.8048C78.709 59.7726 78.809 59.7643 78.9064 59.7808C80.0628 59.9302 81.235 59.9003 82.3824 59.6921C82.7958 58.5639 83.0021 57.3692 82.9911 56.1665C83.0069 55.5148 83.1728 54.8758 83.4757 54.2998C83.7786 53.7239 84.2102 53.2268 84.7364 52.8478L84.4504 52.5299C83.0332 50.7527 81.9677 48.7178 81.3117 46.5356C80.7104 44.5621 80.0944 42.9804 79.8084 42.2486C75.9951 42.8326 73.5604 44.1039 72.5557 46.0034C72.2441 46.6835 72.0827 47.4237 72.0827 48.1728C72.0827 48.9219 72.2441 49.662 72.5557 50.3421C72.6161 50.4615 72.6379 50.5969 72.6182 50.7294C72.5985 50.862 72.5382 50.985 72.4457 51.0812C72.3547 51.1811 72.2337 51.2482 72.1013 51.2722C71.9689 51.2962 71.8323 51.2759 71.7124 51.2143C71.3677 51.0591 70.2457 50.6969 69.6884 51.0665C69.5295 51.2072 69.408 51.3857 69.335 51.5858C69.262 51.7859 69.2398 52.0012 69.2704 52.2121C69.2704 53.0104 70.4951 54.4295 71.2357 54.8065C71.3779 54.8808 71.4858 55.0081 71.5364 55.1612C71.5871 55.3144 71.5766 55.4814 71.5071 55.6269L65.2664 68.4656ZM74.8511 71.7473C71.1741 71.6793 67.5481 70.8675 64.1884 69.3599C64.1114 69.3286 64.0417 69.2816 63.9837 69.2218C63.9256 69.162 63.8805 69.0908 63.8511 69.0126C63.7886 68.8535 63.7886 68.6764 63.8511 68.5173L70.1431 55.5234C69.1604 54.7843 68.0164 53.306 68.0237 52.1382C67.9818 51.7144 68.0505 51.2868 68.2228 50.8979C68.3952 50.509 68.6653 50.1722 69.0064 49.9208C69.6084 49.5819 70.3127 49.4767 70.9864 49.6252C70.6084 48.1991 70.7677 46.6824 71.4337 45.3678C72.6657 43.0099 75.5697 41.5021 80.0797 40.8813C80.2136 40.8633 80.3495 40.8896 80.4672 40.9563C80.5849 41.0229 80.678 41.1263 80.7324 41.2508C80.7324 41.3321 81.6051 43.3204 82.4557 46.0995C83.0729 48.1328 84.0684 50.0292 85.3891 51.6873L86.1224 52.5669C86.1826 52.6414 86.2256 52.7285 86.2484 52.8218C86.2713 52.9151 86.2733 53.0123 86.2544 53.1065C86.2326 53.1994 86.1903 53.2863 86.1306 53.3605C86.071 53.4347 85.9955 53.4944 85.9097 53.5352C85.4112 53.771 84.9886 54.1436 84.6903 54.6103C84.392 55.0769 84.2301 55.6188 84.2231 56.1739C84.2425 57.6537 83.9552 59.1214 83.3797 60.483C83.3434 60.5674 83.288 60.6421 83.218 60.7011C83.148 60.7601 83.0652 60.8018 82.9764 60.823C81.8739 61.0639 80.7438 61.1509 79.6177 61.0817L81.5831 69.8108C81.6142 69.9446 81.6009 70.0851 81.5453 70.2106C81.4897 70.336 81.3947 70.4397 81.2751 70.5056C79.2554 71.398 77.0622 71.8199 74.8584 71.7399L74.8511 71.7473Z" fill="#091E25"/>
<path d="M78.8262 61.0077H78.6796L77.4402 60.6825C77.2838 60.6439 77.149 60.5445 77.0651 60.406C76.9813 60.2675 76.9553 60.1011 76.9929 59.9433C77.0328 59.7867 77.1318 59.652 77.2687 59.5678C77.4057 59.4836 77.5698 59.4566 77.7262 59.4925L78.9656 59.8177C79.114 59.8506 79.2449 59.9384 79.3324 60.0637C79.42 60.189 79.4578 60.3428 79.4385 60.4948C79.4192 60.6468 79.3441 60.786 79.2281 60.885C79.1121 60.984 78.9635 61.0357 78.8116 61.0299L78.8262 61.0077Z" fill="black"/>
<path fill-rule="evenodd" clip-rule="evenodd" d="M139.935 67.9187L156.002 82.5904L65.9926 180.222L52.7413 177.761L49.918 165.543L74.5433 140.693L79.8966 140.819L79.5226 135.143L85.4846 128.505L88.0293 130.826L96.1766 129.85L96.5653 121.313L94.0353 119L111.041 100.063L121.345 97.6465L123.405 86.3082L139.935 67.9187Z" fill="black"/>
<path d="M158.679 55.6195C163.692 60.1952 167.247 66.1666 168.893 72.7785C170.539 79.3903 170.203 86.3457 167.927 92.765C165.651 99.1843 161.537 104.779 156.106 108.842C150.676 112.905 144.171 115.253 137.416 115.59C130.661 115.927 123.959 114.238 118.156 110.735C112.354 107.233 107.712 102.075 104.818 95.9135C101.925 89.7521 100.909 82.8642 101.899 76.1208C102.889 69.3774 105.841 63.0814 110.381 58.0291C116.469 51.2548 124.978 47.1953 134.035 46.7434C143.092 46.2915 151.957 49.4843 158.679 55.6195Z" fill="black"/>
<path d="M140.844 76.1304C139.466 74.8738 138.489 73.2337 138.036 71.4173C137.583 69.601 137.675 67.6901 138.3 65.9263C138.924 64.1625 140.054 62.6251 141.546 61.5084C143.038 60.3918 144.824 59.7461 146.68 59.6531C148.536 59.56 150.377 60.0237 151.972 60.9856C153.566 61.9475 154.842 63.3644 155.637 65.057C156.432 66.7495 156.712 68.6418 156.44 70.4945C156.168 72.3472 155.357 74.077 154.11 75.4652C152.438 77.326 150.101 78.4414 147.614 78.5662C145.126 78.6909 142.691 77.8148 140.844 76.1304Z" fill="black"/>
<path fill-rule="evenodd" clip-rule="evenodd" d="M142.868 70.8752L158.935 85.547L68.9257 183.179L55.6744 180.717L52.8511 168.5L77.4764 143.65L82.8297 143.776L82.4557 138.099L88.4177 131.462L90.9624 133.783L99.1097 132.807L99.4984 124.27L96.9684 121.957L113.974 103.02L124.278 100.603L126.338 89.2648L142.868 70.8752Z" fill="white"/>
<path d="M69.1534 183.851L55.1614 181.257L52.1768 168.307L77.2274 143.022L82.1701 143.14L81.8254 137.877L88.3741 130.582L91.1681 133.132L98.5014 132.252L98.8534 124.536L96.0668 122.001L113.667 102.458L123.757 100.093L125.781 89.0059L142.824 69.9955L159.808 85.5173L69.1534 183.851ZM56.1808 180.156L68.7061 182.484L158.055 85.5838L142.912 71.7473L126.918 89.5455L124.813 101.12L114.305 103.582L97.8341 121.956L100.129 124.041L99.7334 133.361L90.7868 134.426L88.4914 132.341L83.1161 138.321L83.5194 144.411L77.7334 144.278L53.5334 168.669L56.1808 180.156Z" fill="#091E25"/>
<path d="M126.103 115.94L65.7168 182.244L66.6244 183.084L127.011 116.779L126.103 115.94Z" fill="#091E25"/>
<path d="M161.612 58.5761C166.625 63.1518 170.18 69.1231 171.826 75.735C173.472 82.3469 173.136 89.3022 170.86 95.7215C168.584 102.141 164.47 107.736 159.039 111.799C153.609 115.862 147.104 118.21 140.349 118.547C133.594 118.884 126.892 117.194 121.089 113.692C115.287 110.189 110.645 105.031 107.751 98.87C104.858 92.7086 103.842 85.8207 104.832 79.0774C105.822 72.334 108.774 66.038 113.315 60.9856C119.403 54.2114 127.911 50.1518 136.968 49.7C146.026 49.2481 154.89 52.4409 161.612 58.5761Z" fill="#EDB37D"/>
<path d="M138.644 119.192C132.994 119.191 127.428 117.802 122.429 115.147C117.43 112.492 113.147 108.651 109.951 103.954C106.755 99.2568 104.742 93.8463 104.085 88.1895C103.429 82.5327 104.149 76.7998 106.183 71.4862C108.217 66.1726 111.504 61.4381 115.76 57.6917C120.016 53.9453 125.113 51.2997 130.611 49.9835C136.108 48.6674 141.841 48.7202 147.314 50.1374C152.787 51.5547 157.836 54.2937 162.023 58.1179C167.237 62.8741 170.898 69.1109 172.525 76.0063C174.152 82.9017 173.668 90.1321 171.137 96.7448C168.606 103.357 164.146 109.042 158.346 113.049C152.545 117.056 145.676 119.198 138.644 119.192ZM138.644 50.2979C130.809 50.3007 123.222 53.0666 117.198 58.1162C111.174 63.1658 107.093 70.1807 105.663 77.9449C104.232 85.7091 105.542 93.7331 109.366 100.626C113.189 107.519 119.285 112.846 126.597 115.684C133.908 118.522 141.975 118.691 149.397 116.164C156.82 113.636 163.131 108.57 167.237 101.844C171.343 95.1181 172.984 87.1563 171.876 79.3387C170.769 71.521 166.982 64.3405 161.172 59.0418C155.01 53.4086 146.986 50.2913 138.666 50.2979H138.644Z" fill="#091E25"/>
<path d="M143.777 79.0869C142.399 77.8304 141.422 76.1902 140.969 74.3739C140.516 72.5576 140.608 70.6467 141.233 68.8829C141.858 67.1191 142.987 65.5816 144.479 64.465C145.971 63.3483 147.757 62.7027 149.613 62.6096C151.469 62.5165 153.311 62.9803 154.905 63.9422C156.499 64.9041 157.775 66.3209 158.57 68.0135C159.365 69.7061 159.645 71.5984 159.373 73.451C159.101 75.3037 158.29 77.0335 157.043 78.4217C155.371 80.2826 153.035 81.398 150.547 81.5227C148.059 81.6475 145.624 80.7713 143.777 79.0869Z" fill="white"/>
<path d="M150.077 81.9251C147.656 81.9266 145.322 81.0202 143.528 79.3825C142.099 78.0758 141.087 76.3716 140.619 74.4853C140.15 72.5989 140.247 70.615 140.897 68.7841C141.547 66.9531 142.72 65.3574 144.269 64.1982C145.818 63.0391 147.673 62.3687 149.6 62.2716C150.89 62.2237 152.177 62.4343 153.386 62.8914C154.594 63.3485 155.701 64.0429 156.642 64.9344C157.582 65.8259 158.338 66.8967 158.864 68.0847C159.391 69.2727 159.678 70.5543 159.71 71.8552C159.742 73.156 159.517 74.4502 159.048 75.6628C158.58 76.8753 157.877 77.982 156.981 78.9187C156.085 79.8555 155.013 80.6036 153.828 81.1196C152.643 81.6357 151.368 81.9095 150.077 81.9251ZM144.027 78.8356C145.349 80.054 147.001 80.8484 148.772 81.1177C150.543 81.387 152.354 81.1191 153.974 80.3479C155.594 79.5768 156.949 78.3374 157.868 76.7874C158.787 75.2374 159.227 73.4469 159.133 71.6438C159.047 69.8465 158.433 68.1156 157.369 66.6702C156.305 65.2249 154.84 64.1302 153.159 63.5247C151.478 62.9193 149.656 62.8303 147.925 63.269C146.193 63.7078 144.63 64.6546 143.433 65.9895C141.827 67.7777 140.992 70.1353 141.11 72.5441C141.228 74.9529 142.291 77.2158 144.063 78.8356H144.027Z" fill="#091E25"/>
<path d="M157.044 78.444C156.216 79.3662 155.217 80.1151 154.102 80.6477C152.987 81.1803 151.78 81.4862 150.547 81.548C149.315 81.6098 148.083 81.4262 146.922 81.0077C145.76 80.5893 144.692 79.9441 143.778 79.1092C143.404 78.7709 143.06 78.3999 142.751 78.0005C144.557 79.4487 146.828 80.1764 149.132 80.0447C151.436 79.9131 153.611 78.9313 155.243 77.2867C156.875 75.6421 157.849 73.4497 157.979 71.1275C158.11 68.8054 157.388 66.5161 155.951 64.6961C156.088 64.8095 156.227 64.9277 156.369 65.0509C157.288 65.8841 158.035 66.8921 158.567 68.017C159.099 69.142 159.405 70.3617 159.467 71.6062C159.53 72.8506 159.348 74.0953 158.932 75.2687C158.516 76.4422 157.874 77.5212 157.044 78.444Z" fill="#091E25"/>
<path d="M20.1301 101.313L40.9934 109.074C40.9934 109.074 37.4661 141.913 59.9867 153.207C59.9867 153.207 72.1967 151.684 76.4281 158.994C76.4281 158.994 67.8774 158.603 60.7274 160.584C53.5774 162.564 10.9561 150.191 20.1301 101.313Z" fill="white"/>
<path d="M20.6065 102.148C16.2651 126.48 25.1678 140.73 33.4471 148.425C44.4031 158.603 57.4565 160.85 60.5805 159.992C66.2345 158.425 72.6365 158.314 75.2471 158.344C70.7885 152.571 60.1771 153.806 60.0671 153.82C59.9466 153.835 59.8245 153.814 59.7151 153.761C38.5731 143.162 40.0251 113.641 40.3331 109.495L20.6065 102.148ZM58.9085 161.404C53.4158 161.404 41.8365 157.908 32.6185 149.341C24.0238 141.351 14.7765 126.524 19.5285 101.202C19.544 101.112 19.579 101.027 19.631 100.953C19.683 100.879 19.7507 100.818 19.8291 100.773C19.9068 100.73 19.9926 100.703 20.0811 100.696C20.1696 100.688 20.2586 100.699 20.3425 100.729L41.1985 108.497C41.3278 108.54 41.4385 108.627 41.512 108.743C41.5854 108.858 41.6171 108.996 41.6018 109.133C41.6018 109.465 38.4045 141.529 60.1038 152.571C61.7465 152.394 72.8198 151.522 76.9705 158.677C77.0265 158.773 77.0561 158.883 77.0561 158.994C77.0561 159.106 77.0265 159.216 76.9705 159.312C76.9112 159.407 76.8288 159.484 76.7312 159.537C76.6336 159.59 76.524 159.617 76.4131 159.615C76.3251 159.615 67.8698 159.253 60.9031 161.19C60.2495 161.343 59.5796 161.415 58.9085 161.404Z" fill="#091E25"/>
<path d="M167.611 97.8536C167.611 97.8536 183.605 91.2014 171.402 81.4892L167.611 97.8536Z" fill="white"/>
<path d="M167.611 98.4743C167.465 98.4749 167.325 98.4224 167.215 98.3265C167.128 98.2532 167.063 98.1571 167.026 98.0489C166.99 97.9406 166.984 97.8244 167.009 97.713L170.801 81.3487C170.824 81.2466 170.873 81.1521 170.942 81.074C171.011 80.9959 171.099 80.9368 171.197 80.9021C171.295 80.8675 171.4 80.8584 171.503 80.8757C171.605 80.893 171.702 80.9362 171.783 81.0013C175.34 83.8321 176.917 86.7295 176.55 89.6121C175.817 95.0595 168.168 98.2969 167.845 98.43C167.771 98.4595 167.691 98.4745 167.611 98.4743ZM171.776 82.6052L168.505 96.7374C170.573 95.6582 174.834 93.0417 175.325 89.4421C175.633 87.2174 174.438 84.9334 171.776 82.6052Z" fill="#091E25"/>
</svg>
