<svg width="275" height="340" viewBox="0 0 275 340" fill="none" xmlns="http://www.w3.org/2000/svg">
<path d="M6.58405 139.075C14.9163 120.397 31.9611 107.713 49.6497 99.0435C67.3383 90.3735 86.329 84.8152 103.784 75.5317C122.489 65.5683 138.956 51.5396 156.454 39.3735C173.953 27.2074 193.287 16.6452 214.165 14.9822C235.043 13.3191 257.736 22.3291 268.146 41.5909C276.697 57.4157 275.739 77.1283 271.65 94.8452C267.56 112.562 260.625 129.533 257.853 147.53C253.976 172.705 257.648 201.213 242.717 221.207C230.281 237.86 208.818 242.937 189.015 246.108C156.827 251.282 123.806 254.239 91.7205 248.119C45.9701 239.382 -20.3366 199.114 6.58405 139.075Z" fill="#91A9E9" fill-opacity="0.15"/>
<path d="M32.707 222.478C26.4743 216.868 23.2702 208.805 21.6827 203.032C20.6533 199.333 19.9893 195.54 19.7003 191.708H19.3638C19.648 195.565 20.3146 199.384 21.3536 203.106C22.9629 208.938 26.1963 217.083 32.5095 222.767L32.707 222.478Z" fill="#7696ED"/>
<path d="M20.4101 190.223C20.565 190.863 20.5918 191.528 20.4887 192.18C20.3857 192.831 20.1551 193.454 19.8103 194.014C18.7067 193.173 17.9447 191.953 17.6669 190.585C17.5124 189.944 17.4859 189.279 17.5889 188.628C17.6919 187.977 17.9223 187.353 18.2667 186.793C19.3673 187.637 20.1285 188.856 20.4101 190.223Z" fill="#7696ED"/>
<path d="M18.5006 194.332C19.5221 195.273 20.1696 196.558 20.3221 197.947C19.6657 197.956 19.0138 197.834 18.4047 197.586C17.7955 197.339 17.2413 196.971 16.7742 196.505C15.7552 195.571 15.1077 194.294 14.9526 192.913C16.2745 192.893 17.5503 193.403 18.5006 194.332Z" fill="#7696ED"/>
<path d="M17.9961 198.656C19.2931 199.072 20.389 199.963 21.0686 201.154C20.534 201.483 19.934 201.688 19.3117 201.754C18.6894 201.821 18.0602 201.747 17.4694 201.539C16.1739 201.12 15.0787 200.23 14.397 199.04C14.9323 198.714 15.5322 198.51 16.1542 198.443C16.7762 198.377 17.405 198.45 17.9961 198.656Z" fill="#7696ED"/>
<path d="M20.0516 203.852C20.5854 204.041 21.0733 204.342 21.4832 204.736C21.893 205.13 22.2155 205.607 22.4291 206.136C22.0352 206.485 21.558 206.723 21.0448 206.828C20.5316 206.933 20.0001 206.901 19.503 206.735C18.9683 206.546 18.4794 206.245 18.0683 205.851C17.6573 205.457 17.3334 204.98 17.1182 204.451C17.5136 204.102 17.992 203.864 18.5064 203.759C19.0208 203.654 19.5533 203.686 20.0516 203.852Z" fill="#7696ED"/>
<path d="M21.8584 196.439C22.2442 196.04 22.7144 195.734 23.2339 195.544C23.7533 195.355 24.3085 195.287 24.8577 195.345C24.8915 195.922 24.8055 196.499 24.6052 197.04C24.4049 197.581 24.0947 198.074 23.6946 198.486C23.3081 198.884 22.8376 199.189 22.3182 199.377C21.7988 199.565 21.244 199.632 20.6953 199.573C20.6612 198.997 20.7471 198.421 20.9474 197.881C21.1478 197.341 21.4582 196.85 21.8584 196.439Z" fill="#7696ED"/>
<path d="M22.8167 200.157C23.204 199.758 23.6757 199.453 24.1965 199.264C24.7173 199.076 25.2735 199.01 25.8234 199.07C25.8553 199.647 25.7685 200.223 25.5683 200.764C25.368 201.305 25.0588 201.798 24.6602 202.211C24.2738 202.609 23.8032 202.914 23.2838 203.102C22.7644 203.29 22.2096 203.357 21.6609 203.298C21.6262 202.722 21.711 202.145 21.9101 201.604C22.1091 201.063 22.418 200.57 22.8167 200.157Z" fill="#7696ED"/>
<path d="M28.9541 230.062C23.1968 229.219 18.2736 225.775 15.1572 223.033C13.1503 221.285 11.3243 219.336 9.70728 217.216L9.50977 217.304C11.1367 219.439 12.9751 221.401 14.9963 223.158C18.1419 225.93 23.1164 229.411 28.9467 230.269L28.9541 230.062Z" fill="#A9BCF2"/>
<path d="M9.5682 216.1C9.90048 216.413 10.1679 216.79 10.355 217.209C10.5421 217.628 10.6452 218.08 10.6582 218.539C9.69518 218.475 8.78785 218.06 8.10513 217.371C7.77156 217.058 7.50328 216.682 7.31608 216.263C7.12888 215.844 7.02656 215.391 7.01514 214.932C7.97653 215.002 8.88171 215.416 9.5682 216.1Z" fill="#A9BCF2"/>
<path d="M10.0149 219.226C10.9612 219.385 11.8202 219.88 12.4363 220.623C12.0576 220.882 11.6319 221.063 11.1837 221.156C10.7356 221.248 10.2737 221.251 9.82469 221.163C8.87241 221.009 8.00716 220.513 7.38867 219.766C8.15905 219.242 9.10331 219.048 10.0149 219.226Z" fill="#A9BCF2"/>
<path d="M11.3609 221.931C12.2764 221.674 13.2538 221.769 14.1042 222.197C13.9163 222.594 13.6448 222.945 13.3087 223.224C12.9725 223.504 12.5799 223.706 12.1583 223.816C11.2437 224.076 10.2663 223.983 9.41504 223.557C9.60287 223.16 9.87429 222.808 10.2104 222.527C10.5464 222.247 10.9391 222.043 11.3609 221.931Z" fill="#A9BCF2"/>
<path d="M14.5285 224.156C14.9112 224.06 15.3098 224.046 15.698 224.116C16.0863 224.186 16.4556 224.338 16.7817 224.563C16.6855 224.916 16.5001 225.238 16.2436 225.497C15.9871 225.756 15.6684 225.944 15.3186 226.041C14.9372 226.138 14.5395 226.153 14.1522 226.083C13.7649 226.012 13.3969 225.86 13.0728 225.634C13.1689 225.282 13.3534 224.961 13.6084 224.702C13.8635 224.443 14.1804 224.255 14.5285 224.156Z" fill="#A9BCF2"/>
<path d="M12.7654 219.152C12.8371 218.769 12.9942 218.408 13.2249 218.095C13.4556 217.783 13.7538 217.527 14.0968 217.349C14.3346 217.671 14.503 218.04 14.5912 218.432C14.6793 218.824 14.6854 219.231 14.6089 219.625C14.538 220.007 14.3819 220.367 14.1524 220.678C13.923 220.989 13.6262 221.244 13.2848 221.421C13.046 221.101 12.8763 220.733 12.7869 220.342C12.6974 219.952 12.6901 219.546 12.7654 219.152Z" fill="#A9BCF2"/>
<path d="M14.7407 220.941C14.8142 220.556 14.9746 220.194 15.2093 219.883C15.4441 219.571 15.7469 219.319 16.0941 219.145C16.3303 219.468 16.4977 219.837 16.5858 220.229C16.6739 220.621 16.6809 221.027 16.6062 221.421C16.5306 221.805 16.3694 222.166 16.1349 222.477C15.9004 222.789 15.5987 223.042 15.2528 223.217C15.0167 222.894 14.8493 222.525 14.7611 222.133C14.673 221.741 14.6661 221.336 14.7407 220.941Z" fill="#A9BCF2"/>
<path d="M32.4145 247.468C25.7795 250.011 18.4714 248.666 13.5116 247.091C10.2801 246.072 7.16757 244.701 4.22834 243.004L4.08203 243.292C7.04406 244.996 10.1783 246.373 13.4311 247.402C18.4421 248.998 25.8233 250.358 32.5389 247.779L32.4145 247.468Z" fill="#7696ED"/>
<path d="M3.40897 241.644C4.56753 242.094 5.50699 242.982 6.02787 244.12C5.49857 244.378 4.92156 244.52 4.33428 244.538C3.747 244.556 3.16257 244.449 2.61891 244.223C1.46159 243.772 0.522783 242.884 0 241.747C0.52877 241.488 1.10594 241.345 1.69351 241.327C2.28109 241.309 2.86573 241.417 3.40897 241.644Z" fill="#7696ED"/>
<path d="M5.76461 245.391C6.32244 245.194 6.91474 245.116 7.50403 245.161C8.09333 245.207 8.66681 245.376 9.18821 245.657C8.96791 246.204 8.63473 246.697 8.21089 247.104C7.78704 247.511 7.28227 247.821 6.73024 248.015C6.17249 248.213 5.58013 248.291 4.99077 248.246C4.4014 248.2 3.82789 248.031 3.30664 247.749C3.52571 247.201 3.85846 246.707 4.28248 246.301C4.70649 245.894 5.21189 245.584 5.76461 245.391Z" fill="#7696ED"/>
<path d="M8.81502 248.074C9.19677 247.631 9.66913 247.276 10.1996 247.035C10.73 246.794 11.3058 246.672 11.8875 246.677C11.9379 247.28 11.866 247.886 11.676 248.459C11.4861 249.033 11.1821 249.561 10.7829 250.011C10.4001 250.452 9.92738 250.805 9.39706 251.045C8.86675 251.285 8.29138 251.406 7.71039 251.4C7.66094 250.799 7.7334 250.194 7.92334 249.622C8.11327 249.05 8.41668 248.524 8.81502 248.074Z" fill="#7696ED"/>
<path d="M13.0871 249.442C13.4688 248.998 13.9412 248.644 14.4716 248.403C15.002 248.162 15.5779 248.039 16.1595 248.045C16.21 248.647 16.138 249.254 15.9481 249.827C15.7581 250.4 15.4542 250.928 15.0549 251.378C14.6725 251.821 14.2 252.175 13.6698 252.416C13.1395 252.657 12.5639 252.78 11.9824 252.775C11.932 252.173 12.0039 251.566 12.1939 250.993C12.3838 250.42 12.6878 249.892 13.0871 249.442Z" fill="#7696ED"/>
<path d="M9.07115 245.014C8.36669 244.111 8.01525 242.977 8.08357 241.829C8.61829 241.909 9.13185 242.096 9.59413 242.379C10.0564 242.662 10.4581 243.035 10.7756 243.477C11.4764 244.383 11.8274 245.515 11.7632 246.663C11.228 246.584 10.7138 246.398 10.2514 246.115C9.78886 245.832 9.38749 245.458 9.07115 245.014Z" fill="#7696ED"/>
<path d="M13.5043 246.419C12.7919 245.52 12.4255 244.391 12.4728 243.24C13.0081 243.312 13.524 243.49 13.99 243.766C14.4561 244.041 14.863 244.408 15.1868 244.844C15.8981 245.744 16.2643 246.872 16.2183 248.023C15.6832 247.951 15.1677 247.772 14.7017 247.496C14.2357 247.221 13.8287 246.855 13.5043 246.419Z" fill="#7696ED"/>
<path d="M18.7054 249.826C18.7932 249.589 18.9328 249.374 19.1139 249.199C19.295 249.024 19.513 248.892 19.7515 248.813C19.8652 249.05 19.9298 249.308 19.9411 249.571C19.9524 249.835 19.9103 250.097 19.8173 250.343C19.7238 250.573 19.5806 250.778 19.3984 250.944C19.2161 251.111 18.9993 251.234 18.7639 251.304C18.6572 251.074 18.597 250.825 18.587 250.571C18.5769 250.317 18.6172 250.064 18.7054 249.826Z" fill="#7696ED"/>
<path d="M46.6651 262.65C46.6651 262.65 55.1217 228.857 52.3199 225.435C48.4428 220.741 45.2459 236.307 44.9314 234.984C41.9686 222.5 41.1786 206.52 31.6247 204.828C26.1894 203.867 32.8756 216.713 32.4733 220.187C32.0709 223.661 22.2829 212.13 16.3355 206.114C10.3881 200.097 7.30836 203.897 11.0685 211.495C14.7262 218.842 26.4308 226.869 24.0386 227.822C21.6465 228.776 6.8987 219.285 5.12106 223.343C2.92644 228.317 24.9823 235.08 22.9048 236.197C20.8272 237.313 10.2418 233.639 10.5418 237.438C10.8417 241.237 25.0116 241.097 24.7702 242.775C24.3751 245.48 14.9968 239.353 14.5872 243.1C14.1775 246.847 26.9282 246.234 26.7088 249.22C26.5771 250.942 23.8411 248.348 23.4388 250.698C22.517 256.123 39.3424 262.731 39.3424 262.731L46.6578 262.62L46.6651 262.65Z" fill="#CCDAFF"/>
<path d="M53.1097 262.857C53.1097 262.857 45.0627 250.388 41.1929 248.037C37.067 245.532 40.2053 253.041 40.2053 253.041C40.2053 253.041 31.7707 242.901 29.4298 244.963C27.0889 247.025 29.2103 249.397 29.2103 249.397C29.2103 249.397 21.6389 247.128 20.2782 249.937C18.1933 254.261 30.6514 257.838 30.6514 257.838C30.6514 257.838 25.3039 257.779 26.2622 260.691C27.7253 265.089 53.0877 262.857 53.0877 262.857H53.1097Z" fill="#CCDAFF"/>
<path d="M20.2783 249.944C21.639 247.135 29.2104 249.405 29.2104 249.405C29.2104 249.405 27.0816 247.017 29.4299 244.97C31.7781 242.922 38.5156 249.087 38.5156 249.087C38.5156 249.087 37.784 244.002 42.9048 248.481C46.5625 251.681 53.1463 262.879 53.1463 262.879L20.2783 249.944Z" fill="#A9BCF2"/>
<path d="M43.3436 231.555L43.702 231.303C37.1182 221.281 35.1503 209.373 34.6236 201.147C34.2709 195.939 34.4179 190.709 35.0626 185.529L34.6163 185.403C33.9621 190.614 33.8127 195.877 34.1701 201.117C34.7041 209.41 36.7158 221.421 43.3436 231.555Z" fill="#A9BCF2"/>
<path d="M36.3572 183.97C36.4031 184.833 36.2677 185.696 35.9601 186.502C35.6525 187.308 35.1795 188.04 34.5723 188.648C33.3912 187.101 32.7415 185.207 32.7215 183.253C32.676 182.389 32.8115 181.525 33.119 180.717C33.4266 179.91 33.8994 179.177 34.5064 178.567C35.6876 180.117 36.3372 182.013 36.3572 183.97Z" fill="#A9BCF2"/>
<path d="M32.8093 188.478C33.8613 190.103 34.3501 192.034 34.1993 193.97C32.4378 193.389 30.9437 192.184 29.9929 190.577C28.9389 188.953 28.4475 187.022 28.5957 185.085C30.3602 185.664 31.8573 186.869 32.8093 188.478Z" fill="#A9BCF2"/>
<path d="M31.0172 193.904C32.589 195.026 33.7491 196.643 34.3165 198.501C33.498 198.688 32.6488 198.69 31.8295 198.507C31.0101 198.325 30.2407 197.962 29.5761 197.444C28.0043 196.321 26.8443 194.705 26.2769 192.847C27.0954 192.662 27.9441 192.661 28.7632 192.843C29.5822 193.026 30.3516 193.388 31.0172 193.904Z" fill="#A9BCF2"/>
<path d="M33.1167 203.35C33.8056 203.776 34.3355 204.42 34.6237 205.183C34.2894 205.288 33.936 205.317 33.5893 205.267C33.2425 205.217 32.9112 205.09 32.6193 204.894C31.9317 204.47 31.4019 203.828 31.1123 203.069C31.4458 202.96 31.7992 202.929 32.1463 202.977C32.4934 203.026 32.8251 203.153 33.1167 203.35Z" fill="#A9BCF2"/>
<path d="M33.6509 206.846C34.3425 207.27 34.8751 207.915 35.1652 208.679C34.8309 208.784 34.4775 208.813 34.1308 208.763C33.784 208.713 33.4527 208.586 33.1608 208.39C32.4732 207.966 31.9434 207.324 31.6538 206.565C31.9861 206.456 32.3384 206.425 32.6843 206.473C33.0302 206.522 33.3606 206.649 33.6509 206.846Z" fill="#A9BCF2"/>
<path d="M36.5768 192.691C37.2091 192.337 37.9163 192.14 38.6392 192.118C39.3621 192.096 40.0797 192.25 40.7319 192.566C40.6415 193.304 40.3848 194.012 39.9816 194.635C39.5783 195.257 39.0392 195.778 38.4056 196.158C37.7727 196.511 37.0652 196.707 36.3423 196.727C35.6194 196.748 34.9021 196.593 34.2505 196.276C34.3409 195.539 34.5976 194.832 35.001 194.21C35.4043 193.589 35.9434 193.069 36.5768 192.691Z" fill="#A9BCF2"/>
<path d="M36.8331 197.961C37.4655 197.607 38.1727 197.41 38.8956 197.388C39.6185 197.366 40.3361 197.52 40.9883 197.836C40.8979 198.574 40.6412 199.282 40.2379 199.905C39.8347 200.527 39.2955 201.048 38.662 201.428C38.0291 201.781 37.3215 201.977 36.5986 201.997C35.8757 202.018 35.1584 201.863 34.5068 201.546C34.5983 200.809 34.8555 200.103 35.2587 199.481C35.6619 198.86 36.2005 198.34 36.8331 197.961Z" fill="#A9BCF2"/>
<path d="M36.5773 205.478C36.9903 205.25 37.4512 205.124 37.9218 205.112C38.3924 205.099 38.8593 205.199 39.284 205.404C39.2237 205.884 39.056 206.344 38.7936 206.749C38.5312 207.153 38.181 207.492 37.7697 207.74C37.3566 207.968 36.8958 208.094 36.4252 208.107C35.9545 208.12 35.4877 208.019 35.063 207.814C35.1222 207.334 35.2895 206.874 35.552 206.469C35.8145 206.064 36.1652 205.725 36.5773 205.478Z" fill="#A9BCF2"/>
<path d="M242.293 222.478C248.526 216.868 251.723 208.804 253.317 203.032C254.351 199.323 255.018 195.52 255.307 191.679H255.644C255.355 195.535 254.688 199.353 253.654 203.076C252.044 208.908 248.804 217.053 242.498 222.737L242.293 222.478Z" fill="#7696ED"/>
<path d="M254.575 190.223C254.418 190.863 254.391 191.529 254.494 192.18C254.597 192.831 254.828 193.455 255.175 194.014C256.279 193.173 257.041 191.953 257.319 190.585C257.474 189.944 257.5 189.278 257.396 188.627C257.292 187.975 257.059 187.352 256.711 186.793C255.615 187.64 254.857 188.857 254.575 190.223Z" fill="#7696ED"/>
<path d="M256.499 194.332C255.478 195.273 254.83 196.558 254.678 197.946C255.334 197.956 255.986 197.834 256.595 197.586C257.204 197.339 257.759 196.971 258.226 196.505C259.243 195.564 259.89 194.283 260.047 192.898C258.723 192.882 257.447 193.398 256.499 194.332Z" fill="#7696ED"/>
<path d="M257.004 198.656C255.705 199.072 254.607 199.963 253.924 201.154C254.459 201.483 255.059 201.687 255.681 201.754C256.304 201.82 256.933 201.747 257.523 201.539C258.822 201.123 259.921 200.232 260.603 199.04C260.068 198.714 259.468 198.511 258.846 198.444C258.224 198.378 257.595 198.45 257.004 198.656Z" fill="#7696ED"/>
<path d="M254.948 203.852C254.414 204.041 253.925 204.342 253.514 204.736C253.103 205.129 252.779 205.607 252.563 206.136C252.958 206.483 253.435 206.721 253.948 206.826C254.461 206.931 254.992 206.899 255.49 206.735C256.023 206.546 256.511 206.244 256.921 205.851C257.331 205.457 257.653 204.98 257.867 204.451C257.474 204.103 256.998 203.865 256.486 203.761C255.974 203.656 255.444 203.687 254.948 203.852Z" fill="#7696ED"/>
<path d="M253.112 196.439C252.726 196.04 252.256 195.734 251.736 195.544C251.217 195.355 250.662 195.287 250.113 195.345C250.079 195.922 250.165 196.499 250.365 197.04C250.566 197.581 250.876 198.074 251.276 198.486C251.662 198.884 252.133 199.189 252.652 199.377C253.172 199.565 253.726 199.632 254.275 199.573C254.309 198.997 254.223 198.421 254.023 197.881C253.823 197.341 253.512 196.85 253.112 196.439Z" fill="#7696ED"/>
<path d="M252.176 200.157C251.789 199.759 251.319 199.454 250.799 199.266C250.28 199.078 249.725 199.011 249.177 199.07C249.143 199.647 249.229 200.224 249.429 200.765C249.629 201.306 249.94 201.799 250.34 202.211C250.726 202.609 251.197 202.914 251.716 203.102C252.236 203.29 252.79 203.357 253.339 203.298C253.373 202.721 253.287 202.144 253.086 201.603C252.886 201.062 252.576 200.569 252.176 200.157Z" fill="#7696ED"/>
<path d="M246.045 230.062C251.795 229.219 256.726 225.775 259.842 223.033C261.847 221.283 263.673 219.334 265.292 217.216L265.497 217.334C263.867 219.466 262.029 221.428 260.01 223.188C256.865 225.959 251.883 229.441 246.06 230.298V230.062H246.045Z" fill="#A9BCF2"/>
<path d="M265.431 216.1C265.098 216.412 264.829 216.789 264.642 217.208C264.455 217.627 264.353 218.079 264.341 218.539C265.303 218.477 266.208 218.061 266.887 217.371C267.222 217.06 267.491 216.683 267.678 216.264C267.866 215.845 267.967 215.392 267.977 214.932C267.018 215.002 266.115 215.416 265.431 216.1Z" fill="#A9BCF2"/>
<path d="M264.985 219.226C264.033 219.379 263.167 219.876 262.549 220.623C262.928 220.882 263.353 221.063 263.801 221.156C264.25 221.249 264.711 221.251 265.16 221.163C266.111 221.01 266.974 220.513 267.589 219.766C266.825 219.246 265.889 219.053 264.985 219.226Z" fill="#A9BCF2"/>
<path d="M263.632 221.931C262.719 221.674 261.744 221.769 260.896 222.198C261.083 222.595 261.354 222.946 261.691 223.226C262.027 223.506 262.42 223.707 262.842 223.816C263.754 224.076 264.729 223.984 265.578 223.558C265.391 223.159 265.12 222.807 264.784 222.526C264.448 222.245 264.054 222.042 263.632 221.931Z" fill="#A9BCF2"/>
<path d="M260.465 224.156C260.082 224.06 259.683 224.047 259.295 224.117C258.907 224.187 258.538 224.339 258.211 224.562C258.31 224.915 258.496 225.235 258.753 225.494C259.009 225.753 259.326 225.941 259.675 226.041C260.057 226.139 260.456 226.153 260.845 226.083C261.233 226.013 261.602 225.86 261.928 225.634C261.832 225.281 261.646 224.959 261.39 224.7C261.133 224.44 260.814 224.253 260.465 224.156Z" fill="#A9BCF2"/>
<path d="M262.235 219.152C262.163 218.769 262.006 218.408 261.775 218.095C261.544 217.783 261.246 217.527 260.903 217.349C260.665 217.671 260.495 218.04 260.406 218.432C260.316 218.824 260.309 219.23 260.384 219.625C260.455 220.008 260.612 220.368 260.843 220.68C261.074 220.991 261.372 221.245 261.715 221.421C261.954 221.101 262.124 220.733 262.213 220.342C262.303 219.952 262.31 219.546 262.235 219.152Z" fill="#A9BCF2"/>
<path d="M260.259 220.941C260.188 220.559 260.031 220.198 259.801 219.886C259.57 219.575 259.271 219.321 258.928 219.145C258.691 219.467 258.522 219.836 258.433 220.228C258.343 220.62 258.335 221.026 258.409 221.421C258.484 221.802 258.643 222.161 258.874 222.471C259.104 222.782 259.4 223.037 259.74 223.217C259.979 222.895 260.148 222.527 260.238 222.135C260.327 221.743 260.334 221.336 260.259 220.941Z" fill="#A9BCF2"/>
<path d="M242.578 247.468C249.22 250.011 256.521 248.666 261.488 247.091C264.72 246.072 267.832 244.701 270.771 243.004L270.918 243.292C267.956 244.996 264.821 246.373 261.569 247.402C256.558 248.998 249.176 250.358 242.454 247.779L242.578 247.468Z" fill="#7696ED"/>
<path d="M271.591 241.644C270.433 242.094 269.493 242.982 268.972 244.12C269.501 244.378 270.078 244.52 270.666 244.538C271.253 244.556 271.837 244.449 272.381 244.223C273.538 243.772 274.477 242.884 275 241.747C274.471 241.488 273.894 241.345 273.307 241.327C272.719 241.309 272.134 241.417 271.591 241.644Z" fill="#7696ED"/>
<path d="M269.206 245.391C268.648 245.193 268.056 245.115 267.466 245.161C266.877 245.206 266.303 245.376 265.782 245.657C266.001 246.205 266.334 246.699 266.758 247.106C267.182 247.512 267.687 247.822 268.24 248.015C268.798 248.213 269.39 248.291 269.98 248.245C270.569 248.2 271.143 248.031 271.664 247.749C271.445 247.201 271.112 246.707 270.688 246.301C270.264 245.894 269.759 245.584 269.206 245.391Z" fill="#7696ED"/>
<path d="M266.185 248.074C265.802 247.631 265.328 247.276 264.796 247.035C264.265 246.794 263.688 246.672 263.105 246.677C263.055 247.28 263.126 247.886 263.316 248.459C263.506 249.033 263.81 249.561 264.21 250.011C264.594 250.452 265.068 250.805 265.6 251.045C266.131 251.284 266.707 251.406 267.289 251.4C267.339 250.799 267.266 250.194 267.076 249.622C266.887 249.05 266.583 248.524 266.185 248.074Z" fill="#7696ED"/>
<path d="M261.891 249.442C261.508 248.998 261.034 248.644 260.502 248.403C259.971 248.161 259.394 248.039 258.811 248.045C258.761 248.647 258.833 249.254 259.022 249.827C259.212 250.4 259.516 250.928 259.916 251.378C260.3 251.821 260.774 252.175 261.305 252.416C261.836 252.657 262.413 252.779 262.995 252.775C263.046 252.173 262.974 251.566 262.784 250.993C262.594 250.42 262.29 249.892 261.891 249.442Z" fill="#7696ED"/>
<path d="M265.929 245.014C266.63 244.109 266.981 242.977 266.917 241.829C266.381 241.907 265.867 242.093 265.405 242.376C264.942 242.66 264.541 243.034 264.224 243.477C263.52 244.381 263.169 245.514 263.237 246.663C263.772 246.584 264.286 246.397 264.748 246.114C265.21 245.831 265.612 245.457 265.929 245.014Z" fill="#7696ED"/>
<path d="M261.489 246.419C262.206 245.522 262.575 244.392 262.527 243.24C261.992 243.311 261.476 243.489 261.01 243.765C260.543 244.04 260.137 244.407 259.813 244.844C259.096 245.74 258.729 246.871 258.782 248.023C259.316 247.951 259.831 247.773 260.296 247.497C260.761 247.222 261.166 246.855 261.489 246.419Z" fill="#7696ED"/>
<path d="M256.294 249.826C256.205 249.591 256.065 249.379 255.884 249.207C255.703 249.034 255.486 248.905 255.248 248.828C255.136 249.066 255.073 249.324 255.062 249.587C255.052 249.85 255.096 250.113 255.19 250.358C255.278 250.593 255.418 250.804 255.599 250.976C255.781 251.147 255.998 251.275 256.236 251.349C256.349 251.112 256.412 250.855 256.422 250.593C256.432 250.331 256.389 250.07 256.294 249.826Z" fill="#7696ED"/>
<path d="M228.335 262.65C228.335 262.65 219.879 228.857 222.68 225.435C226.557 220.741 229.754 236.307 230.069 234.984C233.032 222.5 233.822 206.52 243.376 204.828C248.811 203.867 242.125 216.713 242.527 220.187C242.929 223.661 252.717 212.123 258.665 206.084C264.612 200.046 267.685 203.867 263.932 211.465C260.274 218.812 248.533 226.839 250.962 227.793C253.39 228.746 268.102 219.256 269.901 223.313C272.096 228.288 250.033 235.051 252.117 236.167C254.202 237.283 264.744 233.61 264.451 237.409C264.159 241.208 249.981 241.067 250.23 242.745C250.618 245.45 259.996 239.323 260.413 243.07C260.83 246.818 248.072 246.204 248.291 249.19C248.423 250.913 251.159 248.318 251.561 250.669C252.483 256.094 235.658 262.702 235.658 262.702L228.342 262.591L228.335 262.65Z" fill="#CCDAFF"/>
<path d="M221.883 262.857C221.883 262.857 229.93 250.388 233.807 248.037C237.933 245.532 234.794 253.041 234.794 253.041C234.794 253.041 243.222 242.901 245.57 244.963C247.918 247.025 245.789 249.397 245.789 249.397C245.789 249.397 253.354 247.128 254.714 249.937C256.806 254.261 244.334 257.838 244.334 257.838C244.334 257.838 249.689 257.779 248.723 260.691C247.26 265.089 221.897 262.857 221.897 262.857H221.883Z" fill="#CCDAFF"/>
<path d="M254.714 249.944C253.354 247.135 245.789 249.405 245.789 249.405C245.789 249.405 247.911 247.017 245.57 244.97C243.229 242.922 236.477 249.087 236.477 249.087C236.477 249.087 237.208 244.002 232.088 248.481C228.43 251.681 221.846 262.879 221.846 262.879L254.714 249.944Z" fill="#A9BCF2"/>
<path d="M231.656 231.555L231.291 231.303C237.874 221.281 239.85 209.373 240.369 201.147C240.736 195.937 240.594 190.703 239.945 185.522L240.391 185.396C241.049 190.607 241.199 195.87 240.837 201.11C240.31 209.403 238.291 221.414 231.671 231.547L231.656 231.555Z" fill="#A9BCF2"/>
<path d="M238.643 183.97C238.595 184.832 238.729 185.695 239.036 186.501C239.342 187.308 239.814 188.039 240.42 188.648C241.607 187.103 242.259 185.208 242.278 183.253C242.324 182.389 242.188 181.525 241.881 180.717C241.573 179.91 241.1 179.177 240.493 178.567C239.312 180.117 238.663 182.013 238.643 183.97Z" fill="#A9BCF2"/>
<path d="M242.19 188.478C241.135 190.101 240.646 192.034 240.8 193.97C242.56 193.38 244.049 192.167 244.992 190.555C246.044 188.93 246.533 186.999 246.382 185.063C244.622 185.653 243.133 186.866 242.19 188.478Z" fill="#A9BCF2"/>
<path d="M243.983 193.904C242.409 195.026 241.247 196.642 240.676 198.501C241.496 198.688 242.346 198.69 243.167 198.507C243.987 198.325 244.758 197.962 245.424 197.444C246.993 196.318 248.152 194.703 248.723 192.847C247.905 192.662 247.056 192.661 246.237 192.843C245.418 193.026 244.648 193.388 243.983 193.904Z" fill="#A9BCF2"/>
<path d="M241.883 203.35C241.194 203.776 240.664 204.42 240.376 205.183C240.71 205.288 241.064 205.317 241.41 205.267C241.757 205.217 242.089 205.09 242.38 204.894C243.068 204.47 243.598 203.828 243.887 203.069C243.554 202.96 243.2 202.929 242.853 202.977C242.506 203.026 242.175 203.153 241.883 203.35Z" fill="#A9BCF2"/>
<path d="M241.313 206.846C240.624 207.272 240.094 207.916 239.806 208.679C240.14 208.784 240.493 208.813 240.84 208.763C241.187 208.713 241.518 208.586 241.81 208.39C242.498 207.966 243.027 207.324 243.317 206.565C242.984 206.456 242.63 206.425 242.283 206.473C241.936 206.522 241.604 206.649 241.313 206.846Z" fill="#A9BCF2"/>
<path d="M238.423 192.691C237.791 192.337 237.084 192.14 236.361 192.118C235.638 192.096 234.92 192.25 234.268 192.566C234.358 193.304 234.615 194.012 235.018 194.635C235.422 195.257 235.961 195.778 236.594 196.158C237.227 196.511 237.935 196.707 238.658 196.727C239.381 196.748 240.098 196.593 240.75 196.276C240.658 195.539 240.401 194.833 239.998 194.211C239.594 193.59 239.056 193.07 238.423 192.691Z" fill="#A9BCF2"/>
<path d="M238.16 197.961C237.527 197.607 236.82 197.41 236.097 197.388C235.374 197.366 234.657 197.52 234.004 197.836C234.097 198.574 234.355 199.282 234.759 199.905C235.164 200.527 235.704 201.048 236.338 201.428C236.971 201.781 237.678 201.977 238.401 201.997C239.124 202.018 239.842 201.863 240.493 201.546C240.4 200.808 240.141 200.102 239.737 199.481C239.332 198.86 238.793 198.34 238.16 197.961Z" fill="#A9BCF2"/>
<path d="M238.423 205.478C238.01 205.25 237.549 205.124 237.078 205.112C236.608 205.099 236.141 205.199 235.716 205.404C235.777 205.884 235.944 206.344 236.207 206.749C236.469 207.153 236.819 207.492 237.231 207.74C237.644 207.968 238.105 208.094 238.575 208.107C239.046 208.12 239.513 208.019 239.937 207.814C239.878 207.334 239.711 206.874 239.448 206.469C239.186 206.064 238.835 205.725 238.423 205.478Z" fill="#A9BCF2"/>
<path d="M46.2847 146.666H228.489V256.715H46.2847V146.666Z" fill="#CCDAFF" stroke="#A9BCF2" stroke-width="0.49" stroke-miterlimit="22.93"/>
<path d="M42.8096 155.69H231.963V150.953H42.8096V155.69Z" fill="white" stroke="#A9BCF2" stroke-width="0.49" stroke-miterlimit="22.93"/>
<path d="M68.2598 174.147H206.513V244.808H68.2598V174.147Z" fill="#CCDAFF" stroke="#A9BCF2" stroke-width="0.49" stroke-miterlimit="22.93"/>
<path d="M67.0601 174.147H207.713V168.581H67.0601V174.147Z" fill="white" stroke="#A9BCF2" stroke-width="0.49" stroke-miterlimit="22.93"/>
<path d="M73.6807 153.347H201.093V168.581H73.6807V153.347Z" fill="#CCDAFF" stroke="#A9BCF2" stroke-width="0.49" stroke-miterlimit="22.93"/>
<path d="M53.6069 181.538H61.5514V219.714H53.6069V181.538Z" fill="white" stroke="#A9BCF2" stroke-width="0.49" stroke-miterlimit="22.93"/>
<path d="M90.4473 190.503H98.3918V228.68H90.4473V190.503Z" fill="white" stroke="#A9BCF2" stroke-width="0.49" stroke-miterlimit="22.93"/>
<path d="M176.191 190.503H184.135V228.68H176.191V190.503Z" fill="white" stroke="#A9BCF2" stroke-width="0.49" stroke-miterlimit="22.93"/>
<path d="M213.222 181.545H221.166V219.714H213.222V181.545Z" fill="white" stroke="#A9BCF2" stroke-width="0.49" stroke-miterlimit="22.93"/>
<path d="M60.2495 251.016H214.524V244.807H60.2495V251.016Z" fill="#CCDAFF" stroke="#A9BCF2" stroke-width="0.49" stroke-miterlimit="22.93"/>
<path d="M46.2847 251.016H228.489V257.217H46.2847V251.016Z" fill="#CCDAFF" stroke="#A9BCF2" stroke-width="0.49" stroke-miterlimit="22.93"/>
<path d="M80.8863 163.4C82.2155 163.4 83.293 162.311 83.293 160.968C83.293 159.625 82.2155 158.536 80.8863 158.536C79.557 158.536 78.4795 159.625 78.4795 160.968C78.4795 162.311 79.557 163.4 80.8863 163.4Z" fill="#F6F6F6" stroke="#A9BCF2" stroke-width="0.49" stroke-miterlimit="22.93"/>
<path d="M193.887 163.4C195.216 163.4 196.293 162.311 196.293 160.968C196.293 159.625 195.216 158.536 193.887 158.536C192.558 158.536 191.48 159.625 191.48 160.968C191.48 162.311 192.558 163.4 193.887 163.4Z" fill="white" stroke="#A9BCF2" stroke-width="0.49" stroke-miterlimit="22.93"/>
<path d="M186.769 177.31H200.961V239.848H186.769V177.31Z" fill="#A9BCF2" stroke="#A9BCF2" stroke-width="0.49" stroke-miterlimit="22.93"/>
<path d="M183.821 244.808H203.909V239.848H183.821V244.808Z" fill="#A9BCF2" stroke="#A9BCF2" stroke-width="0.49" stroke-miterlimit="22.93"/>
<path d="M183.821 177.31H203.909V174.147H183.821V177.31Z" fill="#A9BCF2" stroke="#A9BCF2" stroke-width="0.49" stroke-miterlimit="22.93"/>
<path d="M190.186 177.31V239.848" stroke="#A9BCF2" stroke-width="0.49" stroke-miterlimit="22.93"/>
<path d="M193.865 177.31V239.848" stroke="#A9BCF2" stroke-width="0.49" stroke-miterlimit="22.93"/>
<path d="M197.552 177.31V239.848" stroke="#A9BCF2" stroke-width="0.49" stroke-miterlimit="22.93"/>
<path d="M159.731 177.31H173.923V239.848H159.731V177.31Z" fill="#A9BCF2" stroke="#A9BCF2" stroke-width="0.49" stroke-miterlimit="22.93"/>
<path d="M156.783 244.808H176.871V239.848H156.783V244.808Z" fill="#A9BCF2" stroke="#A9BCF2" stroke-width="0.49" stroke-miterlimit="22.93"/>
<path d="M156.783 177.31H176.871V174.147H156.783V177.31Z" fill="#A9BCF2" stroke="#A9BCF2" stroke-width="0.49" stroke-miterlimit="22.93"/>
<path d="M163.14 177.31V239.848" stroke="#A9BCF2" stroke-width="0.49" stroke-miterlimit="22.93"/>
<path d="M166.827 177.31V239.848" stroke="#A9BCF2" stroke-width="0.49" stroke-miterlimit="22.93"/>
<path d="M170.507 177.31V239.848" stroke="#A9BCF2" stroke-width="0.49" stroke-miterlimit="22.93"/>
<path d="M100.85 177.31H115.041V239.848H100.85V177.31Z" fill="#A9BCF2" stroke="#A9BCF2" stroke-width="0.49" stroke-miterlimit="22.93"/>
<path d="M97.9019 244.808H117.99V239.848H97.9019V244.808Z" fill="#A9BCF2" stroke="#A9BCF2" stroke-width="0.49" stroke-miterlimit="22.93"/>
<path d="M97.9019 177.31H117.99V174.147H97.9019V177.31Z" fill="#A9BCF2" stroke="#A9BCF2" stroke-width="0.49" stroke-miterlimit="22.93"/>
<path d="M104.266 177.31V239.848" stroke="#A9BCF2" stroke-width="0.49" stroke-miterlimit="22.93"/>
<path d="M107.946 177.31V239.848" stroke="#A9BCF2" stroke-width="0.49" stroke-miterlimit="22.93"/>
<path d="M111.633 177.31V239.848" stroke="#A9BCF2" stroke-width="0.49" stroke-miterlimit="22.93"/>
<path d="M73.812 177.31H88.0039V239.848H73.812V177.31Z" fill="#A9BCF2" stroke="#A9BCF2" stroke-width="0.49" stroke-miterlimit="22.93"/>
<path d="M70.8643 244.808H90.9523V239.848H70.8643V244.808Z" fill="#A9BCF2" stroke="#A9BCF2" stroke-width="0.49" stroke-miterlimit="22.93"/>
<path d="M70.8643 177.31H90.9523V174.147H70.8643V177.31Z" fill="#A9BCF2" stroke="#A9BCF2" stroke-width="0.49" stroke-miterlimit="22.93"/>
<path d="M77.2212 177.31V239.848" stroke="#A9BCF2" stroke-width="0.49" stroke-miterlimit="22.93"/>
<path d="M80.9082 177.31V239.848" stroke="#A9BCF2" stroke-width="0.49" stroke-miterlimit="22.93"/>
<path d="M84.5952 177.31V239.848" stroke="#A9BCF2" stroke-width="0.49" stroke-miterlimit="22.93"/>
<path d="M201.224 136.059V148.499H73.5488V136.059L137.39 107.802L201.224 136.059Z" fill="#A9BCF2" stroke="#A9BCF2" stroke-width="0.49" stroke-miterlimit="22.93"/>
<path d="M36.584 263.426H238.189V257.217H36.584V263.426Z" fill="#CCDAFF" stroke="#A9BCF2" stroke-width="0.49" stroke-miterlimit="22.93"/>
<path d="M119.109 167.347V155.084H123.074C124.131 155.004 125.183 155.297 126.051 155.912C126.391 156.216 126.658 156.594 126.831 157.018C127.003 157.443 127.077 157.901 127.046 158.359C127.055 158.905 126.883 159.439 126.556 159.874C126.22 160.334 125.764 160.689 125.239 160.901C125.863 161.064 126.412 161.437 126.797 161.958C127.184 162.497 127.384 163.149 127.368 163.813C127.394 164.297 127.312 164.781 127.128 165.229C126.944 165.676 126.664 166.077 126.307 166.4C125.461 167.075 124.399 167.412 123.323 167.347H119.109ZM120.711 161.64V166.016H123.352C123.99 166.052 124.619 165.847 125.115 165.44C125.332 165.236 125.502 164.987 125.613 164.71C125.725 164.433 125.774 164.134 125.759 163.836C125.759 162.357 124.968 161.618 123.374 161.618L120.711 161.64ZM120.711 160.31H123.125C123.731 160.341 124.327 160.152 124.808 159.778C125.014 159.602 125.179 159.381 125.288 159.131C125.397 158.881 125.448 158.609 125.437 158.337C125.463 158.061 125.423 157.783 125.322 157.526C125.22 157.269 125.059 157.04 124.851 156.858C124.326 156.508 123.701 156.345 123.074 156.393H120.704L120.711 160.31ZM135.056 167.347C134.941 167.038 134.869 166.715 134.844 166.386C134.519 166.746 134.122 167.032 133.68 167.227C133.237 167.422 132.759 167.521 132.277 167.517C131.479 167.559 130.695 167.295 130.082 166.777C129.807 166.54 129.587 166.244 129.439 165.91C129.291 165.576 129.218 165.214 129.226 164.848C129.206 164.417 129.294 163.988 129.482 163.6C129.67 163.213 129.952 162.879 130.301 162.631C131.195 162.05 132.248 161.773 133.308 161.84H134.771V161.101C134.783 160.863 134.747 160.625 134.666 160.401C134.584 160.177 134.458 159.973 134.296 159.8C133.901 159.458 133.389 159.285 132.869 159.32C132.373 159.301 131.884 159.449 131.479 159.741C131.312 159.851 131.173 160.001 131.076 160.177C130.979 160.354 130.927 160.552 130.923 160.753H129.372C129.383 160.274 129.55 159.811 129.848 159.438C130.195 158.998 130.645 158.653 131.157 158.433C131.723 158.179 132.338 158.053 132.957 158.063C133.839 158.01 134.71 158.289 135.4 158.847C135.698 159.12 135.934 159.455 136.092 159.828C136.249 160.202 136.325 160.606 136.315 161.012V165.21C136.289 165.891 136.399 166.569 136.637 167.206V167.339L135.056 167.347ZM132.503 166.186C132.987 166.186 133.461 166.056 133.879 165.809C134.282 165.581 134.608 165.236 134.815 164.819V162.927H133.615C131.721 162.927 130.777 163.496 130.777 164.619C130.765 164.836 130.803 165.052 130.886 165.252C130.97 165.452 131.098 165.63 131.26 165.772C131.61 166.06 132.053 166.207 132.503 166.186ZM140.243 158.24L140.287 159.379C140.603 158.961 141.012 158.625 141.481 158.397C141.95 158.17 142.466 158.058 142.986 158.07C144.896 158.07 145.854 159.15 145.876 161.33V167.347H144.332V161.323C144.376 160.79 144.216 160.261 143.886 159.844C143.703 159.675 143.486 159.545 143.251 159.464C143.016 159.382 142.766 159.351 142.518 159.371C142.048 159.365 141.588 159.507 141.201 159.778C140.825 160.049 140.523 160.413 140.323 160.835V167.324H138.78V158.24H140.243ZM150.697 163.126L149.731 164.146V167.347H148.188V154.412H149.731V162.239L150.558 161.234L153.367 158.277H155.24L151.735 162.077L155.649 167.383H153.842L150.697 163.126Z" fill="#A9BCF2"/>
<path d="M122.525 196.697H152.248V244.785H122.525V196.697Z" fill="white" stroke="#A9BCF2" stroke-width="0.49" stroke-miterlimit="22.93"/>
<path d="M137.39 196.697V244.807" stroke="#A9BCF2" stroke-width="0.49" stroke-miterlimit="22.93"/>
<path d="M71.7784 153.347H202.994L207.413 148.609H67.3599L71.7784 153.347Z" fill="white" stroke="#A9BCF2" stroke-width="0.49" stroke-miterlimit="22.93"/>
<path d="M53.6069 189.824H61.5514" stroke="#A9BCF2" stroke-width="0.49" stroke-miterlimit="22.93"/>
<path d="M53.6069 200.629H61.5514" stroke="#A9BCF2" stroke-width="0.49" stroke-miterlimit="22.93"/>
<path d="M53.6069 211.428H61.5514" stroke="#A9BCF2" stroke-width="0.49" stroke-miterlimit="22.93"/>
<path d="M213.222 189.824H221.166" stroke="#A9BCF2" stroke-width="0.49" stroke-miterlimit="22.93"/>
<path d="M213.222 200.629H221.166" stroke="#A9BCF2" stroke-width="0.49" stroke-miterlimit="22.93"/>
<path d="M213.222 211.428H221.166" stroke="#A9BCF2" stroke-width="0.49" stroke-miterlimit="22.93"/>
<path d="M176.191 198.789H184.135" stroke="#A9BCF2" stroke-width="0.49" stroke-miterlimit="22.93"/>
<path d="M176.191 209.588H184.135" stroke="#A9BCF2" stroke-width="0.49" stroke-miterlimit="22.93"/>
<path d="M176.191 220.394H184.135" stroke="#A9BCF2" stroke-width="0.49" stroke-miterlimit="22.93"/>
<path d="M90.4473 198.789H98.3918" stroke="#A9BCF2" stroke-width="0.49" stroke-miterlimit="22.93"/>
<path d="M90.4473 209.588H98.3918" stroke="#A9BCF2" stroke-width="0.49" stroke-miterlimit="22.93"/>
<path d="M90.4473 220.394H98.3918" stroke="#A9BCF2" stroke-width="0.49" stroke-miterlimit="22.93"/>
<path d="M137.5 308.092C213.253 308.092 274.663 304.352 274.663 299.739C274.663 295.127 213.253 291.387 137.5 291.387C61.7466 291.387 0.336426 295.127 0.336426 299.739C0.336426 304.352 61.7466 308.092 137.5 308.092Z" fill="#91A9E9" fill-opacity="0.3"/>
<path d="M28.4351 269.701L29.0203 281.387L36.2333 282.703L36.877 268.925L28.4351 269.701Z" fill="white"/>
<path d="M36.8182 283.449L28.4275 281.919L27.7983 269.132L37.5278 268.23L36.8182 283.449ZM29.6199 280.869L35.6477 281.963L36.2183 269.62L29.0858 270.278L29.6199 280.869Z" fill="#091E25"/>
<path d="M36.4307 302.999C31.8183 303.435 27.1676 303.186 22.6266 302.26C22.1686 302.144 21.7387 301.936 21.3626 301.647C20.9865 301.359 20.6721 300.997 20.4383 300.582C20.2046 300.168 20.0563 299.71 20.0024 299.236C19.9485 298.762 19.9901 298.282 20.1247 297.825C21.6683 292.252 24.375 281.675 28.3911 276.923L29.2104 279.657L30.6296 277.174C30.7192 277.011 30.8465 276.872 31.0006 276.769C31.1546 276.666 31.331 276.602 31.5148 276.583L33.468 276.353C33.7668 276.336 34.0607 276.436 34.2893 276.631C34.5179 276.826 34.6638 277.102 34.697 277.403L35.0408 279.761L37.0891 276.745L39.3642 299.237C39.46 300.128 39.2079 301.023 38.6615 301.729C38.1151 302.436 37.3174 302.899 36.438 303.021L36.4307 302.999Z" fill="white"/>
<path d="M32.1146 303.834C28.886 303.831 25.6659 303.502 22.5022 302.851C21.9804 302.742 21.4869 302.524 21.0535 302.211C20.6201 301.898 20.2564 301.497 19.9857 301.033C19.6809 300.524 19.4827 299.956 19.4034 299.367C19.3242 298.777 19.3655 298.177 19.5248 297.603L19.854 296.413C21.4341 290.648 24.0823 280.995 27.9009 276.457C27.9723 276.37 28.0662 276.305 28.172 276.268C28.2779 276.232 28.3916 276.225 28.5008 276.25C28.6099 276.272 28.7111 276.323 28.7936 276.399C28.876 276.474 28.9367 276.571 28.969 276.679L29.3713 278.031L30.1029 276.827C30.2418 276.58 30.4373 276.371 30.6727 276.217C30.9082 276.062 31.1769 275.967 31.4562 275.94L33.3801 275.703C33.8384 275.673 34.2911 275.819 34.6468 276.112C35.0025 276.406 35.2348 276.825 35.2968 277.285L35.4065 278.061L36.577 276.368C36.6489 276.261 36.7519 276.179 36.8719 276.133C36.9918 276.087 37.1228 276.08 37.247 276.113C37.3711 276.145 37.4823 276.215 37.5654 276.314C37.6484 276.413 37.6992 276.535 37.7108 276.664L39.9859 299.148C40.0841 300.2 39.7755 301.249 39.125 302.076C38.4745 302.902 37.5325 303.443 36.4965 303.583C35.2821 303.738 33.8044 303.834 32.1146 303.834ZM28.1423 278.216C24.865 282.858 22.5022 291.461 21.0464 296.746L20.7172 297.943C20.6039 298.35 20.5746 298.776 20.6313 299.194C20.6879 299.612 20.8292 300.014 21.0464 300.375C21.2295 300.691 21.4755 300.965 21.7689 301.18C22.0623 301.396 22.3967 301.547 22.7509 301.624C27.231 302.543 31.8204 302.792 36.3721 302.363C37.0943 302.266 37.7499 301.886 38.1984 301.306C38.6469 300.725 38.8526 299.991 38.7716 299.259L36.6721 278.49L35.5528 280.13C35.4813 280.235 35.3803 280.316 35.2629 280.362C35.1456 280.408 35.0172 280.418 34.8944 280.389C34.7728 280.36 34.6629 280.294 34.5793 280.201C34.4956 280.107 34.4422 279.99 34.4262 279.864L34.0824 277.507C34.068 277.365 34.0026 277.235 33.8987 277.139C33.7947 277.044 33.6596 276.99 33.5191 276.989L31.5952 277.226C31.5067 277.233 31.4212 277.261 31.3461 277.309C31.2709 277.356 31.2083 277.422 31.1636 277.499L29.7444 279.96C29.6837 280.067 29.5936 280.153 29.4852 280.208C29.3767 280.263 29.2547 280.284 29.1342 280.27C29.0136 280.256 28.8998 280.207 28.8068 280.128C28.7137 280.049 28.6455 279.945 28.6105 279.827L28.1423 278.216Z" fill="#091E25"/>
<path d="M29.876 299.754C32.3194 299.765 34.7562 299.498 37.1401 298.956C37.191 298.945 37.2392 298.923 37.2817 298.893C37.3242 298.862 37.3602 298.824 37.3875 298.779C37.4148 298.734 37.4329 298.684 37.4407 298.632C37.4484 298.58 37.4457 298.527 37.4327 298.476C37.4068 298.372 37.3416 298.283 37.2513 298.228C37.1609 298.173 37.0527 298.155 36.9499 298.18C36.8768 298.18 29.3273 300.05 22.3192 297.906C22.2692 297.891 22.2166 297.885 22.1645 297.89C22.1123 297.894 22.0616 297.91 22.0153 297.934C21.969 297.959 21.9281 297.993 21.8948 298.034C21.8616 298.075 21.8367 298.122 21.8217 298.173C21.7919 298.275 21.8027 298.384 21.8519 298.478C21.9012 298.572 21.9849 298.643 22.0851 298.675C24.6214 299.415 27.2507 299.779 29.8906 299.754H29.876Z" fill="#091E25"/>
<path d="M29.876 299.991C27.2132 300.021 24.5606 299.652 22.0047 298.897C21.9255 298.873 21.8518 298.834 21.7878 298.781C21.7238 298.728 21.6709 298.663 21.6321 298.59C21.5933 298.516 21.5694 298.435 21.5617 298.352C21.5541 298.269 21.5629 298.186 21.5877 298.106C21.6368 297.945 21.7462 297.81 21.8925 297.73C22.0388 297.65 22.2104 297.631 22.3704 297.677C29.1737 299.754 36.5842 298.025 36.8915 297.951C36.9727 297.929 37.0574 297.925 37.1404 297.938C37.2233 297.951 37.3029 297.98 37.3743 298.025C37.4463 298.066 37.5089 298.122 37.5581 298.19C37.6072 298.257 37.6418 298.335 37.6596 298.416C37.6995 298.581 37.6735 298.755 37.5872 298.9C37.5009 299.046 37.3613 299.151 37.1987 299.192C34.7944 299.73 32.3386 299.998 29.876 299.991ZM22.1876 298.128C22.1536 298.128 22.1205 298.139 22.093 298.158C22.0654 298.178 22.0447 298.207 22.0339 298.239C22.0194 298.28 22.0194 298.324 22.0339 298.365C22.0575 298.403 22.0938 298.432 22.1363 298.446C24.6483 299.182 27.2533 299.543 29.8687 299.518C32.2948 299.529 34.7144 299.263 37.0817 298.727C37.1024 298.722 37.1219 298.712 37.1391 298.699C37.1563 298.687 37.1707 298.67 37.1816 298.652C37.1925 298.633 37.1996 298.613 37.2026 298.591C37.2055 298.57 37.2042 298.548 37.1987 298.527C37.1935 298.507 37.1844 298.488 37.1718 298.472C37.1592 298.455 37.1435 298.441 37.1256 298.431C37.0854 298.417 37.0414 298.417 37.0012 298.431C36.1965 298.623 29.0347 300.227 22.2314 298.158L22.1876 298.128Z" fill="#091E25"/>
<path d="M33.6505 291.099C33.7024 291.1 33.754 291.091 33.8023 291.072C33.8506 291.052 33.8947 291.024 33.932 290.987C33.9694 290.951 33.9993 290.908 34.02 290.86C34.0408 290.811 34.0519 290.76 34.0529 290.707C34.0549 290.654 34.0461 290.601 34.0271 290.551C34.008 290.501 33.9791 290.456 33.9421 290.418C33.9051 290.38 33.8608 290.35 33.812 290.33C33.7631 290.31 33.7106 290.3 33.6579 290.301L26.8472 290.168C26.7423 290.17 26.6421 290.212 26.5673 290.286C26.4924 290.361 26.4486 290.461 26.4449 290.567C26.4439 290.619 26.4532 290.671 26.4721 290.72C26.4911 290.769 26.5194 290.814 26.5554 290.851C26.5914 290.889 26.6344 290.919 26.682 290.94C26.7295 290.961 26.7807 290.972 26.8326 290.973L33.6505 291.099Z" fill="#091E25"/>
<path d="M33.6507 291.336L26.8401 291.217C26.7575 291.216 26.6759 291.199 26.5999 291.166C26.5239 291.133 26.4551 291.086 26.3974 291.026C26.3396 290.966 26.2941 290.896 26.2634 290.818C26.2327 290.741 26.2173 290.658 26.2183 290.574C26.2221 290.404 26.2916 290.243 26.412 290.124C26.5323 290.005 26.6938 289.939 26.8621 289.939L33.6727 290.072C33.7561 290.071 33.8388 290.088 33.9156 290.121C33.9924 290.154 34.0616 290.203 34.1189 290.264C34.2345 290.387 34.2975 290.552 34.2945 290.722C34.2888 290.889 34.2179 291.048 34.0974 291.163C33.9769 291.277 33.8164 291.34 33.6507 291.336ZM26.8474 290.404C26.8047 290.408 26.7647 290.427 26.7351 290.458C26.7054 290.49 26.6881 290.531 26.6865 290.574C26.6883 290.617 26.7058 290.657 26.7356 290.687C26.7654 290.717 26.8053 290.735 26.8474 290.737L33.658 290.863C33.6798 290.864 33.7015 290.86 33.7219 290.852C33.7423 290.845 33.7609 290.833 33.7766 290.818C33.7923 290.802 33.8049 290.784 33.8134 290.764C33.8219 290.744 33.8263 290.722 33.8263 290.7C33.827 290.679 33.8235 290.659 33.8159 290.64C33.8084 290.621 33.797 290.603 33.7824 290.589C33.768 290.572 33.75 290.559 33.7298 290.55C33.7095 290.541 33.6875 290.536 33.6654 290.537L26.8547 290.404H26.8474Z" fill="#091E25"/>
<path d="M62.7075 268.179L63.0074 289.968L71.742 290.441L72.9344 268.74L62.7075 268.179Z" fill="white"/>
<path d="M72.327 291.099L62.3927 290.56L62.0781 267.521L73.5925 268.149L72.327 291.099ZM63.6436 289.37L71.1711 289.776L72.305 269.339L63.3656 268.844L63.6436 289.37Z" fill="#091E25"/>
<path d="M59.4957 300.383C59.4006 301.986 60.2858 303.827 61.7781 303.893C71.2881 304.329 91.7054 305.556 93.5927 301.092C94.9388 297.914 92.276 295.844 85.7287 291.809C80.5421 288.616 75.9041 284.676 73.8851 284.262C71.866 283.848 67.7621 290.027 67.7621 290.027L61.6903 286.871C60.4579 291.277 59.7217 295.81 59.4957 300.383Z" fill="white"/>
<path d="M77.1626 305.01C72.8758 305.01 68.1501 304.825 63.4024 304.596L61.7491 304.522C61.3988 304.502 61.0562 304.41 60.7418 304.253C60.4275 304.095 60.148 303.875 59.9203 303.605C59.1708 302.695 58.7986 301.527 58.8815 300.346C59.0934 295.72 59.8297 291.135 61.0761 286.679C61.1025 286.592 61.1477 286.511 61.2084 286.444C61.2691 286.376 61.3438 286.322 61.4272 286.287C61.5094 286.247 61.5994 286.227 61.6906 286.227C61.7818 286.227 61.8718 286.247 61.954 286.287L67.5356 289.192C68.8304 287.315 71.9248 283.198 73.9878 283.626C75.3192 283.9 77.4918 285.423 80.2351 287.322C81.9908 288.556 83.9733 289.953 86.0289 291.225C92.2982 295.083 95.7657 297.463 94.1416 301.292C92.9492 304.211 86.0142 305.01 77.1626 305.01ZM62.0783 287.78C61.014 291.918 60.3573 296.151 60.1178 300.42C60.0605 301.266 60.3218 302.103 60.8493 302.763C60.9675 302.909 61.1142 303.029 61.2804 303.115C61.4465 303.202 61.6285 303.253 61.815 303.265L63.4682 303.339C71.8297 303.738 91.413 304.662 93.0297 300.848C94.127 298.269 92.086 296.465 85.4144 292.348C83.3222 291.062 81.3178 289.65 79.5621 288.409C77.0383 286.635 74.8583 285.105 73.7756 284.876C72.6929 284.646 70.1179 287.573 68.2964 290.382C68.21 290.509 68.0807 290.601 67.9326 290.639C67.7846 290.677 67.6278 290.659 67.4917 290.589L62.0783 287.78Z" fill="#091E25"/>
<path d="M77.4113 301.358C82.9344 301.358 88.3844 300.952 90.4254 299.525C90.4754 299.498 90.5192 299.461 90.554 299.416C90.5888 299.371 90.6137 299.318 90.6271 299.263C90.6405 299.207 90.6422 299.149 90.6319 299.093C90.6216 299.037 90.5997 298.983 90.5676 298.936C90.5354 298.889 90.4937 298.849 90.4453 298.819C90.3968 298.789 90.3427 298.77 90.2865 298.763C90.2302 298.756 90.1731 298.761 90.1189 298.778C90.0647 298.794 90.0145 298.822 89.9718 298.86C85.5826 301.935 62.9781 299.873 62.7513 299.85C62.6465 299.84 62.5418 299.871 62.4602 299.939C62.3785 300.006 62.3267 300.103 62.316 300.209C62.3053 300.315 62.3367 300.421 62.4033 300.503C62.4698 300.586 62.566 300.638 62.6708 300.649C63.1975 300.7 70.3739 301.388 77.4113 301.388V301.358Z" fill="#091E25"/>
<path d="M77.4113 301.565C70.2422 301.565 62.9561 300.885 62.6488 300.826C62.5248 300.813 62.4073 300.763 62.311 300.683C62.2147 300.603 62.1438 300.496 62.1072 300.375C62.0705 300.255 62.0697 300.126 62.1049 300.005C62.1401 299.884 62.2097 299.776 62.305 299.695C62.3692 299.64 62.4439 299.599 62.5245 299.575C62.6051 299.551 62.6898 299.544 62.7732 299.555C63.7095 299.636 85.5825 301.573 89.8401 298.609C89.9794 298.514 90.15 298.477 90.3155 298.508C90.4809 298.538 90.6279 298.633 90.7253 298.771C90.8182 298.912 90.8527 299.084 90.8212 299.25C90.7897 299.416 90.6948 299.562 90.557 299.658C88.7721 300.959 84.3462 301.565 77.4113 301.565ZM62.7147 300.087C62.679 300.075 62.6406 300.075 62.6049 300.087C62.5717 300.118 62.5508 300.16 62.5464 300.205C62.5444 300.226 62.5466 300.248 62.5529 300.269C62.5591 300.289 62.5694 300.308 62.583 300.325C62.5966 300.341 62.6133 300.355 62.6321 300.365C62.651 300.375 62.6715 300.381 62.6927 300.383C63 300.383 70.2641 301.122 77.4113 301.122C84.156 301.122 88.6111 300.501 90.2937 299.326C90.3117 299.314 90.327 299.299 90.3384 299.281C90.3498 299.264 90.357 299.243 90.3595 299.222C90.374 299.181 90.374 299.137 90.3595 299.096C90.3332 299.06 90.2938 299.036 90.25 299.029C90.2061 299.022 90.1614 299.033 90.1254 299.059C85.802 302.068 65.1068 300.294 62.7586 300.087H62.7147Z" fill="#091E25"/>
<path d="M74.9609 295.785C75.0573 295.786 75.1507 295.752 75.2243 295.689L79.8696 291.594C79.9433 291.518 79.9846 291.416 79.9846 291.31C79.9846 291.203 79.9433 291.101 79.8696 291.025C79.8353 290.985 79.7934 290.952 79.7464 290.928C79.6993 290.905 79.6481 290.891 79.5956 290.887C79.5431 290.884 79.4905 290.891 79.4408 290.908C79.3912 290.926 79.3454 290.953 79.3063 290.988L74.661 295.083C74.589 295.16 74.5488 295.262 74.5488 295.368C74.5488 295.474 74.589 295.575 74.661 295.652C74.699 295.694 74.7453 295.728 74.797 295.751C74.8486 295.774 74.9045 295.786 74.9609 295.785Z" fill="#091E25"/>
<path d="M74.9609 296.022C74.8713 296.021 74.7829 296.001 74.701 295.964C74.6192 295.928 74.5458 295.874 74.4854 295.807C74.3776 295.679 74.3235 295.513 74.3344 295.344C74.3453 295.176 74.4204 295.019 74.5439 294.905L79.1892 290.803C79.3167 290.693 79.4819 290.639 79.649 290.651C79.8161 290.664 79.9715 290.742 80.0817 290.87C80.1373 290.933 80.1796 291.007 80.206 291.087C80.2324 291.167 80.2424 291.251 80.2353 291.335C80.223 291.503 80.147 291.659 80.0232 291.772L75.3486 295.866C75.2406 295.961 75.1039 296.016 74.9609 296.022ZM79.6062 291.121C79.5859 291.12 79.5656 291.124 79.5467 291.132C79.5278 291.139 79.5107 291.151 79.4965 291.165L74.8512 295.26C74.8353 295.275 74.8225 295.292 74.8133 295.312C74.8042 295.332 74.799 295.353 74.798 295.374C74.797 295.396 74.8002 295.418 74.8074 295.438C74.8147 295.458 74.8258 295.477 74.8402 295.493C74.8546 295.509 74.872 295.522 74.8914 295.531C74.9108 295.541 74.9318 295.546 74.9532 295.547C74.9746 295.548 74.996 295.545 75.0161 295.537C75.0363 295.53 75.0548 295.519 75.0707 295.504L79.7086 291.417C79.7264 291.403 79.7408 291.385 79.751 291.364C79.7611 291.344 79.7666 291.321 79.7671 291.298C79.7628 291.27 79.7528 291.242 79.7379 291.217C79.7247 291.192 79.706 291.17 79.6832 291.154C79.6603 291.137 79.634 291.126 79.6062 291.121Z" fill="#091E25"/>
<path d="M54.4778 161.988C54.4778 161.988 21.2001 162.986 24.6384 151.64C26.833 144.411 50.9152 151.285 57.938 153.606C59.1377 153.998 87.5287 151.226 87.5287 151.226L79.8256 166.947L54.4778 162.025V161.988Z" fill="white"/>
<path d="M80.1764 167.62L54.4262 162.609C52.7217 162.653 30.0002 163.141 24.8428 156.319C24.3138 155.635 23.9635 154.828 23.8242 153.972C23.6848 153.115 23.7609 152.237 24.0454 151.418C24.2253 150.862 24.5161 150.349 24.8998 149.91C25.2836 149.472 25.7521 149.117 26.2766 148.868C33.592 145.04 55.6406 152.143 58.1351 152.963C59.3275 153.185 76.3358 151.648 87.4698 150.561L88.5817 150.45L80.1764 167.62ZM54.5286 161.352H54.5945L79.4668 166.194L86.4603 151.914C78.7426 152.653 58.8959 154.538 57.7328 154.131C48.8739 151.211 32.3996 147.043 26.8399 149.962C26.4617 150.132 26.1226 150.379 25.8443 150.688C25.5659 150.997 25.3544 151.362 25.2232 151.758C24.9967 152.386 24.9329 153.062 25.0379 153.722C25.1429 154.382 25.4132 155.004 25.8231 155.528C30.6805 161.966 54.2141 161.33 54.4482 161.33L54.5286 161.352Z" fill="#091E25"/>
<path d="M31.6756 150.376C31.6756 150.376 26.2183 205.693 23.9505 223.912C21.6828 242.132 25.0405 271.815 25.0405 271.815H38.552C38.552 271.815 40.6077 243.433 42.1 230.276C42.3812 227.789 43.0323 225.36 44.0312 223.07C46.0283 218.45 49.5983 209.499 51.1711 201.147C53.4023 189.217 60.0519 170.54 60.0519 170.54C60.0519 170.54 60.308 268.844 60.4104 276.331C60.4104 276.331 70.9592 277.418 74.8656 275.045C74.8656 275.045 83.1905 237.497 83.1027 218.664C83.0149 199.831 86.241 153.214 86.241 153.214L31.6756 150.376Z" fill="#091E25"/>
<path d="M65.7578 277.004C62.9122 277.004 60.5712 276.775 60.3664 276.753L60.0006 276.716V276.339C59.9055 269.62 59.6861 188.227 59.6422 172.986C57.8133 178.345 53.329 191.908 51.5953 201.199C50.0151 209.58 46.4233 218.583 44.4189 223.21C43.4409 225.461 42.8023 227.848 42.5242 230.291C41.0611 243.292 39.0055 271.534 38.9835 271.815V272.207H24.7185L24.6747 271.837C24.6381 271.534 21.3388 241.895 23.5847 223.831C25.8305 205.767 31.2512 150.857 31.3024 150.302L31.3463 149.903L86.731 152.786V153.214C86.731 153.68 83.4976 200.023 83.5854 218.627C83.6732 237.231 75.3483 274.764 75.2752 275.134L75.2313 275.311L75.0849 275.407C72.9562 276.701 69.0205 277.004 65.7578 277.004ZM60.82 275.954C62.6781 276.11 71.0615 276.693 74.4997 274.772C75.1215 271.933 82.7661 236.573 82.6856 218.664C82.6052 200.984 85.4801 158.344 85.802 153.621L32.0486 150.783C31.5511 155.816 26.5035 206.727 24.3601 223.957C22.2679 240.823 25.0404 267.898 25.4135 271.387L38.1715 271.35C38.4203 267.898 40.3076 242.368 41.6829 230.18C41.9717 227.653 42.6351 225.183 43.6508 222.855C45.6332 218.265 49.2031 209.329 50.7686 201.021C52.9632 189.195 59.5983 170.577 59.6641 170.384L60.4615 168.167V170.554C60.4688 171.478 60.7175 266.146 60.82 275.954Z" fill="#091E25"/>
<path d="M98.2968 82.4573C105.119 87.2693 110.346 94.0495 113.293 101.911C118.121 114.964 118.999 114.188 124.222 116.694C127.133 118.141 130.199 119.244 133.359 119.983L132.628 130.131C132.628 130.131 107.938 131.469 96.2265 115.43C84.5146 99.3908 98.3114 82.4425 98.3114 82.4425L98.2968 82.4573Z" fill="white"/>
<path d="M131.384 130.826C126.154 130.826 105.956 129.88 95.7145 115.844C83.8416 99.583 97.675 82.2578 97.814 82.0878L98.1651 81.6591L98.626 81.9547C105.584 86.8191 110.906 93.7149 113.879 101.719C118.136 113.242 119.182 113.723 123.059 115.496C123.498 115.703 123.974 115.918 124.522 116.169C127.387 117.591 130.404 118.677 133.513 119.406L134.054 119.517L133.228 130.774H132.679C132.613 130.774 132.167 130.826 131.384 130.826ZM98.4651 83.3369C96.4387 86.1087 86.4971 101.076 96.7459 115.12C107.163 129.392 128.378 129.651 132.065 129.584L132.701 120.478C129.673 119.714 126.731 118.637 123.923 117.263C123.411 117.012 122.942 116.797 122.511 116.598C118.37 114.706 117.119 114.129 112.672 102.118C109.818 94.594 104.874 88.0622 98.4358 83.3073L98.4651 83.3369Z" fill="#091E25"/>
<path d="M86.9945 72.9743C78.5306 72.7377 69.4376 71.4295 61.098 71.6882C39.1519 72.3682 23.6799 92.6204 27.4912 114.233L30.3149 128.719L36.7451 126.502C33.9421 135.065 30.0049 143.205 25.0405 150.701C25.0405 150.701 27.0888 147.937 34.2213 153.399C40.871 158.484 47.0232 162.32 60.864 162.446C73.3806 162.564 80.8935 161.271 85.1657 160.044C86.5304 159.652 87.7078 158.773 88.4789 157.57C89.2499 156.366 89.5621 154.921 89.3574 153.503C88.4657 147.824 88.0399 142.082 88.0845 136.333C88.2966 127.463 94.3172 111.01 94.3172 111.01C94.3172 111.01 113.652 102.673 114.954 91.7925C114.954 91.7925 104.778 73.3956 86.9726 72.9595L86.9945 72.9743Z" fill="#7696ED"/>
<path d="M62.4074 163.082H60.8785C46.7891 162.949 40.5563 159.024 33.8701 153.909C27.4472 148.987 25.5671 151.078 25.5452 151.1L24.5503 150.361C29.2322 143.262 33.0006 135.59 35.7648 127.53L29.8393 129.57L26.9132 114.373C25.9565 109.114 26.1337 103.708 27.4328 98.524C28.7318 93.3402 31.1221 88.5004 34.4407 84.3348C37.6509 80.2882 41.6987 77.0004 46.3 74.7021C50.9012 72.4037 55.9445 71.1506 61.076 71.0305C66.2559 70.9781 71.435 71.2001 76.5919 71.6957C80.0448 71.9618 83.6147 72.2353 87.009 72.3314C104.968 72.7748 115.415 91.2974 115.539 91.4896L115.634 91.667V91.8666C114.369 102.414 97.2579 110.397 94.8731 111.461C94.1415 113.56 88.9549 128.291 88.7647 136.333C88.6993 142.048 89.1055 147.759 89.9791 153.407C90.2058 154.977 89.8605 156.577 89.0074 157.909C88.1544 159.241 86.8515 160.215 85.3411 160.65C81.4274 161.774 74.2949 163.082 62.4074 163.082ZM27.0229 149.371C29.0054 149.371 31.5584 150.554 34.6236 152.897C41.1196 157.871 47.1841 161.692 60.8931 161.818C73.5853 161.936 81.0031 160.591 85.0339 159.438C86.2524 159.089 87.3036 158.304 87.9915 157.23C88.6793 156.155 88.9568 154.865 88.772 153.599C87.8788 147.881 87.453 142.099 87.4992 136.31C87.7113 127.478 93.5197 111.468 93.7684 110.788L93.8635 110.537L94.1123 110.426C94.2951 110.345 112.884 102.214 114.347 91.9479C113.249 90.0705 103.308 74.0092 86.9944 73.61C83.5708 73.514 79.9863 73.2405 76.5188 72.967C71.4125 72.484 66.2848 72.2694 61.1565 72.324C56.1996 72.4291 51.3257 73.6297 46.8771 75.8413C42.4286 78.0529 38.5133 81.2219 35.4063 85.1257C32.1976 89.1446 29.8833 93.8147 28.621 98.8182C27.3586 103.822 27.1779 109.041 28.0909 114.122L30.7903 127.87L37.7107 125.482L37.3083 126.694C34.688 134.673 31.1032 142.294 26.6352 149.386L27.0229 149.371Z" fill="#091E25"/>
<path d="M56.87 116.332C56.8144 116.342 56.7573 116.342 56.7018 116.332C56.6302 116.329 56.5601 116.311 56.4958 116.279C56.4316 116.247 56.3746 116.202 56.3287 116.147C54.573 113.974 53.7244 110.633 53.4025 107.144C53.0246 102.305 53.2062 97.4387 53.9439 92.6425C53.9544 92.5789 53.9773 92.5182 54.0112 92.4636C54.0451 92.4091 54.0893 92.3618 54.1414 92.3247C54.2469 92.2536 54.3737 92.2222 54.4998 92.236C54.627 92.2574 54.7417 92.3259 54.8217 92.4281C54.8924 92.5372 54.9211 92.6687 54.9022 92.7977C54.9022 93.0047 52.2686 109.509 57.0968 115.526C57.1787 115.628 57.2181 115.758 57.2065 115.888C57.1922 116.018 57.1294 116.137 57.0309 116.221C56.9872 116.256 56.9377 116.284 56.8846 116.302L56.87 116.332Z" fill="#091E25"/>
<path d="M56.7018 116.598C56.5949 116.6 56.4892 116.574 56.3946 116.524C56.2996 116.478 56.215 116.412 56.1458 116.332C54.5657 114.373 53.5489 111.298 53.1319 107.203C52.7454 102.34 52.9271 97.4481 53.6732 92.6278C53.7059 92.4376 53.8109 92.2678 53.9659 92.1548C54.1191 92.0464 54.3076 92.0014 54.4926 92.0291C54.6824 92.0584 54.8531 92.162 54.9681 92.3174C55.0816 92.475 55.129 92.6716 55.0997 92.8643C54.99 93.5517 52.5759 109.598 57.2944 115.408C57.4146 115.557 57.4723 115.748 57.4553 115.94C57.4337 116.131 57.3392 116.306 57.1919 116.428C57.1273 116.483 57.0528 116.526 56.9725 116.553C56.8858 116.585 56.794 116.6 56.7018 116.598ZM54.3901 92.4948C54.3357 92.4936 54.2821 92.5091 54.2365 92.5391C54.1846 92.5816 54.1507 92.6423 54.1414 92.7091C53.4083 97.4934 53.2266 102.347 53.6001 107.174C54.0097 111.18 54.99 114.166 56.5262 116.043C56.5487 116.074 56.5791 116.097 56.614 116.11C56.6441 116.123 56.6764 116.13 56.7091 116.13C56.7418 116.13 56.7742 116.123 56.8042 116.11L56.8847 116.066C56.9338 116.019 56.9649 115.956 56.9725 115.888C56.9756 115.856 56.972 115.824 56.9619 115.793C56.9519 115.763 56.9355 115.735 56.914 115.711C52.1809 109.798 54.3828 94.5274 54.6462 92.7978C54.6547 92.7622 54.6552 92.7251 54.6476 92.6893C54.64 92.6535 54.6245 92.6198 54.6023 92.5909C54.5629 92.5378 54.5057 92.501 54.4414 92.4874L54.3901 92.4948Z" fill="#091E25"/>
<path d="M68.0842 72.0948L73.7829 53.3431L85.6557 59.7218L82.2321 71.5479C82.0063 72.381 82.0572 73.2659 82.3769 74.067C82.6967 74.868 83.2678 75.541 84.0025 75.9826L85.3778 76.8031C85.5338 76.8956 85.6576 77.0346 85.7325 77.2011C85.8073 77.3675 85.8294 77.5532 85.7958 77.7328C85.7621 77.9124 85.6744 78.0771 85.5446 78.2044C85.4148 78.3317 85.2492 78.4154 85.0705 78.4439L78.8012 79.4713C72.7864 80.4645 66.6153 79.4253 61.2443 76.5148C61.0725 76.4242 60.9319 76.283 60.8411 76.11C60.7503 75.937 60.7136 75.7402 60.7358 75.5457C60.758 75.3511 60.838 75.1679 60.9654 75.0203C61.0927 74.8726 61.2614 74.7675 61.4491 74.7187C64.0242 73.9796 67.7916 72.8635 68.033 72.0579L68.0842 72.0948Z" fill="white"/>
<path d="M74.4049 80.4986C69.7248 80.4988 65.1168 79.3336 60.9885 77.106C60.7069 76.9559 60.4767 76.7234 60.3281 76.4389C60.1795 76.1543 60.1195 75.8311 60.1559 75.5115C60.1922 75.1918 60.3233 74.8908 60.532 74.6478C60.7406 74.4047 61.017 74.2311 61.325 74.1495C66.5628 72.723 67.3895 71.9986 67.4992 71.873L73.41 52.4265L86.3948 59.4038L82.8249 71.7399C82.6313 72.4392 82.6695 73.1833 82.9337 73.8586C83.1979 74.534 83.6735 75.1034 84.288 75.4799L85.6633 76.3078C85.9291 76.4663 86.1401 76.7038 86.2673 76.988C86.3946 77.2721 86.432 77.589 86.3744 77.8954C86.3167 78.2019 86.167 78.4828 85.9454 78.7C85.7239 78.9172 85.4414 79.0601 85.1366 79.1091L78.8746 80.1365C77.3966 80.3772 75.902 80.4983 74.4049 80.4986ZM74.1562 54.2521L68.677 72.2869C68.538 72.7304 68.2746 73.5582 61.6469 75.3617C61.5797 75.3791 61.5192 75.4166 61.4735 75.4694C61.4278 75.5222 61.399 75.5877 61.3909 75.6573C61.3813 75.7263 61.3939 75.7966 61.4268 75.8578C61.4597 75.919 61.5112 75.9679 61.5737 75.9973C66.8187 78.8262 72.8356 79.8437 78.7064 78.8947L84.9683 77.8673C85.0218 77.8626 85.0721 77.8395 85.1107 77.8018C85.1493 77.7642 85.174 77.7142 85.1805 77.6604C85.1936 77.6081 85.1893 77.5529 85.1681 77.5035C85.1469 77.454 85.1101 77.413 85.0634 77.3869L83.6882 76.5665C82.8292 76.0534 82.162 75.268 81.7903 74.3324C81.4185 73.3968 81.3631 72.3633 81.6325 71.3925L84.9171 60.0321L74.1562 54.2521Z" fill="#091E25"/>
<path d="M95.6193 37.3852C92.2396 36.5943 95.9411 40.8739 83.9659 34.9756C79.1962 32.6178 80.7471 38.9595 79.5108 38.3608C74.9387 36.1434 74.5949 35.5152 72.1442 35.7295C70.5202 35.8626 68.1354 38.6861 68.2963 40.9034C68.8303 48.1026 69.8472 46.5356 70.9079 52.9217C71.6394 57.4008 72.6197 58.8939 74.1998 59.803C75.7799 60.7121 77.4259 58.6426 79.2474 59.5147C81.5957 60.6456 80.396 64.866 82.5028 67.076C83.8269 68.4656 87.2578 69.6039 93.3661 67.8152C93.8481 67.6753 94.2658 67.3681 94.5455 66.9476C94.8252 66.527 94.949 66.0202 94.895 65.5165C94.7561 64.186 94.5805 62.5008 94.2732 60.9043C92.8102 53.2987 90.5717 51.2513 91.7933 49.5587C93.6587 46.9643 98.7064 49.5587 99.9719 47.3413C101.237 45.1239 100.228 38.4717 95.6193 37.3852Z" fill="#091E25"/>
<path d="M87.6895 68.9832C84.3391 68.9832 82.8175 67.7488 82.3273 67.2388C81.2885 66.1449 81.0252 64.6371 80.7765 63.181C80.5277 61.7249 80.279 60.2688 79.1451 59.7292C78.3185 59.3301 77.5357 59.611 76.7018 59.9066C75.8678 60.2023 74.968 60.5201 74.0829 60.0101C72.5247 59.1306 71.464 57.6523 70.6739 52.9588C70.4188 51.1917 69.9774 49.4572 69.3571 47.7849C68.8304 46.3066 68.3696 44.9984 68.0623 40.911C67.8941 38.5679 70.374 35.6262 72.1224 35.4784C74.0975 35.3084 74.7925 35.6706 77.1188 36.8679C77.7845 37.2153 78.5818 37.6071 79.6133 38.1319C79.7743 38.0875 79.8694 37.5184 79.9279 37.1414C80.0888 36.1953 80.3156 34.8871 81.2739 34.3919C81.9542 34.0371 82.8687 34.1553 84.0684 34.7466C92.0641 38.6862 92.9493 38.021 93.6588 37.4814C93.9334 37.248 94.2649 37.0934 94.6187 37.0335C94.9726 36.9737 95.3358 37.011 95.6706 37.1414C96.6443 37.4051 97.5414 37.9003 98.2872 38.5856C99.0329 39.2709 99.6056 40.1265 99.9574 41.081C100.901 43.2984 100.996 46.0406 100.177 47.4523C99.4965 48.6127 97.9822 48.5684 96.3216 48.524C94.6611 48.4797 92.8834 48.4279 91.9836 49.6845C91.3911 50.5049 91.7349 51.4732 92.4225 53.3801C93.3246 55.7971 94.0221 58.287 94.5074 60.8232C94.822 62.4566 94.9976 64.1936 95.1292 65.4575C95.1858 66.0159 95.047 66.5767 94.737 67.0426C94.427 67.5084 93.9653 67.8498 93.4321 68.0075C91.5722 68.6012 89.6393 68.9296 87.6895 68.9832ZM78.2746 59.0566C78.6444 59.0547 79.0097 59.1382 79.3426 59.3006C80.6887 59.951 80.952 61.5179 81.23 63.0997C81.4714 64.4819 81.7201 65.9232 82.6931 66.9136C84.0538 68.3401 87.5651 69.2714 93.3223 67.5862C93.7502 67.4619 94.1211 67.1893 94.3699 66.8163C94.6187 66.4432 94.7296 65.9936 94.683 65.5462C94.5586 64.2823 94.3758 62.5897 94.0685 60.9488C93.5875 58.4309 92.8974 55.9584 92.0056 53.5575C91.274 51.5323 90.8863 50.4236 91.6252 49.3962C92.6713 47.9179 94.6318 47.9992 96.3582 48.0436C97.8213 48.0436 99.2844 48.1175 99.7891 47.201C100.44 46.0923 100.521 43.5645 99.5477 41.2879C99.2287 40.3958 98.7019 39.5942 98.0118 38.951C97.3217 38.3078 96.4886 37.8418 95.5828 37.5923C95.3163 37.4788 95.0236 37.4429 94.7379 37.4886C94.4522 37.5343 94.1849 37.6598 93.9661 37.851C93.0663 38.5236 92.1372 39.2258 83.8855 35.1532C82.8467 34.6432 82.042 34.5249 81.508 34.7984C80.7765 35.1901 80.5643 36.2766 80.418 37.2079C80.301 37.8953 80.2132 38.3906 79.8986 38.5532C79.826 38.5902 79.7458 38.6095 79.6645 38.6095C79.5832 38.6095 79.503 38.5902 79.4304 38.5532C78.4063 38.0506 77.5943 37.6292 76.9213 37.2819C74.5803 36.0697 73.9951 35.8036 72.1809 35.944C70.6739 36.0697 68.4061 38.8414 68.5232 40.8666C68.8231 44.8875 69.2547 46.1514 69.7961 47.6149C70.421 49.3101 70.8696 51.0663 71.1348 52.8553C71.8663 57.3862 72.8685 58.7684 74.3023 59.574C75.0339 59.9806 75.7215 59.7219 76.5409 59.4336C77.0935 59.2097 77.6797 59.0822 78.2746 59.0566Z" fill="#091E25"/>
<path d="M81.6909 47.6147L82.3639 49.6178C82.6759 50.5597 82.9204 51.523 83.0955 52.5004C83.4466 54.3408 84.1635 57.4673 84.5585 59.2265C85.7802 64.8956 93.2126 60.2021 93.2126 60.2021L93.9003 58.82L94.8293 58.613C95.0104 58.5788 95.1794 58.4972 95.3195 58.3765C95.4778 58.2285 95.5862 58.0341 95.6295 57.8207C95.6728 57.6072 95.6488 57.3854 95.5609 57.1865C94.5806 55.0208 92.6347 50.2017 92.269 46.0995C90.5255 45.4244 88.6413 45.206 86.7918 45.4644C84.9423 45.7229 83.1876 46.4499 81.6909 47.5778V47.6147Z" fill="white"/>
<path d="M87.843 62.6561C87.2644 62.6651 86.6898 62.557 86.1531 62.3383C85.5721 62.0698 85.0669 61.6586 84.6835 61.1421C84.3002 60.6257 84.0509 60.0205 83.9585 59.3817C83.8488 58.8496 83.7025 58.2065 83.5489 57.5117C83.1831 55.8339 82.7588 53.9343 82.5174 52.6335C82.3396 51.6834 82.0951 50.7472 81.7859 49.8322L81.1202 47.8291C81.0702 47.6988 81.0646 47.5554 81.1043 47.4215C81.1441 47.2876 81.2269 47.171 81.3396 47.09C82.9222 45.891 84.7813 45.1198 86.7412 44.8495C88.7011 44.5792 90.6968 44.8186 92.5395 45.5452C92.6415 45.5914 92.7293 45.6645 92.7937 45.7569C92.8581 45.8492 92.8966 45.9574 92.9052 46.07C93.2271 50.1057 95.2754 54.9987 96.1386 56.9057C96.2842 57.2243 96.3258 57.5814 96.2575 57.9255C96.1891 58.2696 96.0143 58.5828 95.7582 58.82C95.5378 59.0207 95.2671 59.1562 94.9755 59.2117L94.3391 59.3596L93.7831 60.4757C93.7296 60.5754 93.6515 60.6594 93.5563 60.7196C93.3881 60.8304 90.4692 62.6561 87.843 62.6561ZM82.4296 47.8735L82.949 49.433C83.2756 50.399 83.5348 51.3869 83.7244 52.3896C83.9658 53.6609 84.3828 55.553 84.7486 57.2235C84.9095 57.9183 85.0485 58.5687 85.1656 59.0935C85.2141 59.5379 85.3739 59.9625 85.6299 60.3271C85.8859 60.6918 86.2296 60.9846 86.6286 61.1778C88.4355 61.917 91.508 60.4904 92.7297 59.7587L93.3369 58.5391C93.3797 58.4561 93.4398 58.3834 93.513 58.326C93.5863 58.2686 93.6709 58.2278 93.7611 58.2065L94.6902 57.9996C94.7655 57.9858 94.836 57.9527 94.895 57.9035C94.9557 57.8463 94.9974 57.7716 95.0144 57.6896C95.0315 57.6075 95.023 57.5222 94.9901 57.4452C93.9148 55.0726 92.064 50.5713 91.6763 46.58C90.1431 46.0496 88.5084 45.889 86.9028 46.1111C85.2972 46.3331 83.7654 46.9316 82.4296 47.8587V47.8735Z" fill="#091E25"/>
<path d="M82.0052 54.2521C82.0052 54.2521 80.4032 49.433 78.3987 50.6304C76.3943 51.8278 78.2744 57.0904 82.0052 54.2521Z" fill="white"/>
<path d="M79.9496 55.3238C79.6081 55.3252 79.2707 55.2494 78.962 55.1021C78.4888 54.8409 78.0914 54.4593 77.8091 53.9952C77.5268 53.5311 77.3695 53.0005 77.3526 52.456C77.3085 52.0655 77.3711 51.6703 77.5336 51.3133C77.6961 50.9563 77.9523 50.651 78.2744 50.4308C78.4645 50.3103 78.6795 50.2356 78.9028 50.2126C79.126 50.1895 79.3515 50.2186 79.5619 50.2977C81.12 50.889 82.1808 54.0451 82.2247 54.1781L82.2832 54.3407L82.1442 54.4442C81.529 54.9745 80.7572 55.2838 79.9496 55.3238ZM79.0498 50.6747C78.8605 50.6794 78.6761 50.7356 78.5158 50.8373C78.2595 51.0089 78.0554 51.249 77.9263 51.5309C77.7971 51.8128 77.7479 52.1253 77.7842 52.4338C77.7992 52.8887 77.9303 53.3319 78.1649 53.7204C78.3994 54.109 78.7295 54.4296 79.1229 54.6512C79.5559 54.8099 80.0234 54.847 80.4756 54.7585C80.9277 54.67 81.3477 54.4592 81.6906 54.1486C81.4565 53.5055 80.5275 51.1921 79.357 50.719C79.2576 50.688 79.1539 50.673 79.0498 50.6747Z" fill="#091E25"/>
<path d="M153.352 76.6257V131.698H97.6602V76.6257L125.51 57.6005L153.352 76.6257Z" fill="white"/>
<path d="M153.974 132.304H97.0386V76.2929L125.51 56.8464L153.974 76.2929V132.304ZM98.2822 131.048H152.731V76.9433L125.51 58.3912L98.2822 76.9951V131.048Z" fill="#091E25"/>
<path fill-rule="evenodd" clip-rule="evenodd" d="M153.352 131.698H183.031V77.2392L179.651 75.2066H178.246H153.352V131.698Z" fill="white"/>
<path d="M183.653 132.304H152.73V74.5781H179.797L183.631 76.8841L183.653 132.304ZM153.974 131.04H182.409V77.6085L179.483 75.8494H153.974V131.04Z" fill="#091E25"/>
<path fill-rule="evenodd" clip-rule="evenodd" d="M125.51 53.5352H153.176L184.574 76.3005L184.589 78.7322L152.869 78.8579V76.9066L125.51 58.1179L95.1069 79.0057V74.9405L125.371 53.6313L125.51 53.5352Z" fill="#7696ED"/>
<path d="M94.4854 80.1955V74.652L125.32 52.9437H153.381L185.196 76.012V79.3898L152.226 79.5302V77.3129L125.51 58.8789L94.4854 80.1955ZM125.51 57.3563L153.491 76.5737V78.2294L183.967 78.1037V76.6255L152.979 54.1633H125.7L95.707 75.2655V77.8229L125.51 57.3563Z" fill="#091E25"/>
<path d="M139.365 78.3255H111.647V93.0194H139.365V78.3255Z" fill="#7696ED"/>
<path d="M139.987 93.6406H111.025V77.6975H139.987V93.6406ZM112.276 92.3914H138.743V78.954H112.276V92.3914Z" fill="#091E25"/>
<path d="M126.132 78.3255H124.888V93.0194H126.132V78.3255Z" fill="#091E25"/>
<path d="M177.01 87.7495H161.026V101.941H177.01V87.7495Z" fill="#7696ED"/>
<path d="M177.632 102.569H160.404V87.1215H177.632V102.569ZM161.67 101.313H176.41V88.378H161.67V101.313Z" fill="#091E25"/>
<path d="M169.644 87.7495H168.4V101.941H169.644V87.7495Z" fill="#091E25"/>
<path d="M177.01 109.413H161.026V123.605H177.01V109.413Z" fill="#7696ED"/>
<path d="M177.632 124.233H160.404V108.785H177.632V124.233ZM161.67 122.976H176.41V110.042H161.67V122.976Z" fill="#091E25"/>
<path d="M169.644 109.413H168.4V123.605H169.644V109.413Z" fill="#091E25"/>
<path d="M134.179 103.367H116.834V131.698H134.179V103.367Z" fill="white"/>
<path d="M134.8 132.304H116.212V102.739H134.8V132.304ZM117.456 131.048H133.549V103.996H117.456V131.048Z" fill="#091E25"/>
<path d="M57.9741 119.384C58.7277 121.24 59.759 122.967 61.0319 124.506C63.8337 128.025 68.8228 128.786 75.4359 129.518C85.18 130.597 90.2349 129.806 96.3213 129.592C104.288 129.303 107.397 121.084 108.875 120.848C111.969 120.345 109.335 128.646 109.335 128.646C109.245 128.766 109.185 128.907 109.159 129.056C109.133 129.205 109.143 129.358 109.187 129.502C109.232 129.646 109.309 129.778 109.414 129.886C109.519 129.994 109.647 130.076 109.789 130.124C109.789 130.124 113.322 132.482 116.373 130.863L119.577 128.697C120.06 128.556 120.577 128.598 121.032 128.816C121.486 129.034 121.846 129.412 122.042 129.88C122.185 130.532 122.185 131.208 122.042 131.861C121.545 133.62 121.018 139.777 113.403 140.73C107.602 141.469 104.28 137.863 102.042 137.7C100.411 137.574 81.1565 146.895 60.7759 142.682C54.7114 141.432 50.7318 140.043 46.5694 137.256C42.6134 134.512 39.5389 130.658 37.7251 126.169L57.9814 119.392L57.9741 119.384Z" fill="white"/>
<path d="M71.8884 144.411C68.1131 144.424 64.3461 144.053 60.6446 143.303C54.1339 141.95 50.2202 140.435 46.2187 137.781C42.1528 134.968 38.9976 131.006 37.1476 126.391L36.877 125.763L58.333 118.579L58.5524 119.126C59.2818 120.924 60.2838 122.598 61.5225 124.085C64.1268 127.374 68.9622 128.143 75.5022 128.867C81.0573 129.5 86.6596 129.594 92.2324 129.148C93.5785 129.067 94.9099 128.993 96.2998 128.941C101.662 128.749 104.756 124.699 106.607 122.289C107.536 121.062 108.107 120.323 108.802 120.219C109.094 120.151 109.4 120.165 109.685 120.26C109.97 120.356 110.224 120.528 110.418 120.759C111.882 122.459 110.28 127.781 109.95 128.83L109.855 129.008C109.825 129.05 109.805 129.099 109.798 129.15C109.79 129.202 109.795 129.254 109.811 129.303C109.824 129.352 109.849 129.397 109.883 129.433C109.918 129.469 109.961 129.496 110.009 129.51L110.155 129.584C110.155 129.584 113.432 131.72 116.117 130.323L119.446 128.106C120.076 127.921 120.752 127.978 121.343 128.266C121.935 128.554 122.4 129.052 122.65 129.666C122.84 130.447 122.84 131.264 122.65 132.046C122.599 132.223 122.547 132.445 122.489 132.703C121.962 135.024 120.733 140.457 113.484 141.351C109.467 141.846 106.585 140.376 104.478 139.304C103.711 138.839 102.873 138.504 101.998 138.313C101.093 138.535 100.201 138.812 99.3284 139.141C94.2222 140.886 83.8856 144.411 71.8884 144.411ZM38.5668 126.539C40.3377 130.666 43.2291 134.203 46.9063 136.739C50.7616 139.319 54.5509 140.767 60.8934 142.076C77.075 145.416 92.3495 140.198 98.9333 137.966C100.952 137.279 101.662 137.049 102.094 137.079C103.128 137.27 104.119 137.648 105.02 138.195C107.09 139.252 109.665 140.568 113.308 140.117C119.694 139.333 120.748 134.677 121.253 132.437C121.318 132.156 121.377 131.913 121.428 131.698C121.526 131.178 121.526 130.644 121.428 130.124C121.296 129.816 121.061 129.564 120.765 129.412C120.468 129.261 120.128 129.22 119.804 129.296L116.688 131.403C113.491 133.073 110.009 131.011 109.475 130.663C109.26 130.579 109.067 130.446 108.91 130.276C108.753 130.106 108.636 129.902 108.568 129.68C108.497 129.461 108.475 129.229 108.503 129.001C108.531 128.772 108.608 128.553 108.729 128.357C109.46 126.022 110.148 122.444 109.416 121.572C109.372 121.513 109.27 121.395 108.941 121.454C108.411 121.923 107.944 122.46 107.551 123.05C105.568 125.645 102.255 129.991 96.3071 130.205C94.9245 130.257 93.6077 130.331 92.269 130.412C86.6253 130.858 80.9523 130.762 75.3266 130.124C68.4867 129.385 63.4245 128.549 60.513 124.883C59.3265 123.448 58.3418 121.853 57.5868 120.146L38.5668 126.539Z" fill="#091E25"/>
<path d="M183.36 127.766L181.597 131.743L171.612 129.429C171.229 129.349 170.835 129.347 170.452 129.423C170.069 129.499 169.705 129.651 169.381 129.872C169.057 130.092 168.78 130.376 168.566 130.706C168.353 131.036 168.207 131.406 168.137 131.794C168.017 132.525 168.1 133.275 168.378 133.96C168.656 134.645 169.117 135.239 169.71 135.675C171.473 137.116 177.025 139.407 181.48 140.442C186.491 141.603 187.186 134.234 186.096 130.486C185.24 127.567 183.36 127.766 183.36 127.766Z" fill="white"/>
<path d="M182.49 141.174C182.103 141.17 181.718 141.122 181.341 141.033C176.842 139.991 171.224 137.7 169.315 136.14C168.645 135.636 168.124 134.956 167.809 134.175C167.493 133.393 167.394 132.54 167.522 131.706C167.596 131.239 167.763 130.793 168.015 130.394C168.267 129.996 168.597 129.655 168.986 129.392C169.388 129.115 169.841 128.922 170.319 128.824C170.796 128.726 171.288 128.726 171.765 128.823L181.275 131.04L182.973 127.197L183.331 127.16C183.426 127.16 185.745 126.946 186.725 130.331C187.457 132.844 187.537 137.656 185.372 139.939C185.006 140.341 184.56 140.659 184.063 140.871C183.566 141.084 183.03 141.187 182.49 141.174ZM171.012 129.969C170.53 129.969 170.06 130.118 169.666 130.397C169.423 130.568 169.216 130.788 169.059 131.042C168.902 131.296 168.797 131.58 168.751 131.876C168.651 132.498 168.724 133.136 168.963 133.719C169.202 134.301 169.598 134.804 170.105 135.172C171.685 136.473 176.945 138.735 181.619 139.814C182.109 139.97 182.632 139.984 183.129 139.853C183.626 139.722 184.076 139.452 184.428 139.075C186.008 137.382 186.265 133.273 185.496 130.649C185.014 128.993 184.202 128.542 183.741 128.431L181.956 132.474L171.473 130.043C171.322 130.007 171.167 129.99 171.012 129.991V129.969Z" fill="#091E25"/>
</svg>
