<svg width="275" height="340" viewBox="0 0 275 340" fill="none" xmlns="http://www.w3.org/2000/svg">
<path d="M246.297 238.562C228.804 252.539 205.24 254.083 184.118 248.562C162.996 243.041 143.501 231.2 124.132 219.936C104.762 208.671 84.7612 197.71 63.2798 194.199C53.0889 192.529 42.5608 192.543 32.8539 188.515C13.2933 180.385 0.939692 156.503 0.0599077 133.14C-0.819877 109.776 8.08794 87.2987 20.3609 68.7391C39.8555 39.2626 69.6289 17.1922 102.474 14.9748C126.008 13.3857 149.242 21.8044 171.816 30.127C192.095 37.5996 212.594 45.1831 230.827 57.8148C249.061 70.4465 265.088 88.8139 271.737 111.683C275.099 123.485 275.874 135.884 274.01 148.018C272.434 158.366 265.447 168.367 265.11 178.515C264.714 190.119 267.998 199.166 264.435 210.948C261.114 221.953 254.728 231.858 246.334 238.562H246.297Z" fill="#E799A3" fill-opacity="0.15"/>
<path d="M89.6438 263.249C89.6438 263.249 98.9696 226.056 95.8756 222.316C91.6014 217.142 88.0749 234.282 87.7303 232.833C84.4604 219.086 83.588 201.502 73.0672 199.639C67.07 198.582 74.4456 212.714 74.0057 216.543C73.5658 220.372 62.7444 207.696 56.1827 201.043C49.621 194.391 46.2338 198.604 50.3761 206.956C54.3865 215.043 67.3633 223.875 64.6873 224.925C62.0113 225.974 45.7792 215.53 43.7924 219.995C41.3583 225.435 65.7064 232.9 63.4116 234.134C61.1168 235.369 49.4817 231.311 49.7969 235.494C50.1122 239.678 65.7577 239.523 65.4938 241.37C65.0612 244.327 54.7164 237.601 54.2618 241.725C53.8073 245.849 67.8692 245.177 67.6272 248.466C67.4879 250.358 64.4673 247.505 64.0201 250.122C63.0084 256.094 81.5645 263.367 81.5645 263.367L89.6438 263.249Z" fill="#EDBEC3"/>
<path d="M89.3214 264.017C89.2114 261.756 88.4782 251.452 80.7435 246.101C79.1599 245 73.8372 241.326 69.6948 243.721C66.6083 245.495 66.0291 249.582 65.9191 250.513C65.01 245.147 60.4498 241.43 55.8089 241.592C50.3102 241.784 45.4861 247.372 46.4392 253.862C43.6979 254.265 41.1891 255.641 39.3643 257.742C36.1897 261.593 36.0138 267.647 39.0783 272.783C43.4773 277.773 50.3469 278.844 55.0171 275.843C60.0832 272.584 60.1492 266.02 60.1492 265.547C59.9292 267.277 59.8413 270.344 61.7181 272.399C64.8634 275.851 72.1216 274.883 76.1173 271.571C79.8344 268.504 79.4531 264.476 82.9869 263.19C85.355 262.34 87.7964 263.256 89.3214 264.017Z" fill="#FFD9DF"/>
<path d="M76.2128 223.387C83.9261 235.547 89.4854 248.964 92.6428 263.042L93.1633 262.901C89.9787 248.947 84.4438 235.647 76.7994 223.58C75.0251 220.786 73.1336 217.467 69.7757 216.373C69.7171 216.373 69.6878 216.454 69.7757 216.477C72.811 217.63 74.5706 220.771 76.2348 223.387H76.2128Z" fill="#F78B99"/>
<path d="M90.7949 263.537C81.9489 251.406 71.4039 240.633 59.4892 231.555C59.3646 231.466 59.196 231.681 59.3206 231.777C71.054 240.875 81.4248 251.632 90.1131 263.714L90.7949 263.537Z" fill="#F78B99"/>
<path d="M75.538 215.915C75.0036 216.506 74.6033 217.207 74.3649 217.969C74.1948 218.659 74.1948 219.379 74.3649 220.069C73.7863 219.513 73.3617 218.815 73.1332 218.043C72.9619 217.475 72.9054 216.878 72.9671 216.288C73.0288 215.698 73.2075 215.126 73.4925 214.606C74.2989 213.35 75.6919 213.224 75.9852 213.867C76.2785 214.51 75.9045 215.294 75.5086 215.959L75.538 215.915Z" fill="#F78B99"/>
<path d="M73.6832 226.669C74.2563 226.119 74.942 225.703 75.692 225.45C76.3689 225.251 77.084 225.223 77.7742 225.368C77.2022 224.821 76.5003 224.432 75.736 224.237C75.1694 224.076 74.5763 224.03 73.9919 224.104C73.4076 224.178 72.8439 224.369 72.3342 224.666C71.1025 225.501 71.0072 226.928 71.601 227.187C72.1949 227.445 73.016 227.083 73.6685 226.669H73.6832Z" fill="#F78B99"/>
<path d="M76.4395 231.385C77.0172 230.83 77.7112 230.413 78.4703 230.165C79.144 229.962 79.8578 229.934 80.5451 230.084C79.9808 229.53 79.2794 229.14 78.5143 228.953C77.9466 228.793 77.353 228.748 76.7679 228.82C76.1828 228.892 75.6176 229.081 75.1051 229.374C73.8808 230.217 73.7781 231.636 74.372 231.902C74.9658 232.168 75.7943 231.799 76.4395 231.385Z" fill="#F78B99"/>
<path d="M66.586 242.317C67.1614 241.766 67.8496 241.35 68.6021 241.097C69.2766 240.898 69.9893 240.87 70.677 241.016C70.1101 240.466 69.4097 240.076 68.6461 239.885C68.0784 239.722 67.484 239.676 66.8983 239.75C66.3126 239.823 65.7476 240.015 65.237 240.314C64.0126 241.149 63.9099 242.575 64.5038 242.834C65.0977 243.093 65.9115 242.731 66.564 242.317H66.586Z" fill="#F78B99"/>
<path d="M61.5499 237.845C62.1285 237.299 62.8158 236.883 63.566 236.625C64.2416 236.418 64.9587 236.39 65.6482 236.544C65.0762 235.997 64.3744 235.608 63.61 235.413C63.0434 235.251 62.4503 235.206 61.866 235.279C61.2816 235.353 60.7179 235.544 60.2082 235.842C58.9765 236.677 58.8812 238.103 59.475 238.362C60.0689 238.621 60.89 238.259 61.5352 237.845H61.5499Z" fill="#F78B99"/>
<path d="M79.3722 221.251C78.7582 221.752 78.2582 222.379 77.9059 223.092C77.6132 223.737 77.4895 224.447 77.5467 225.154C76.9747 224.345 76.6716 223.374 76.6809 222.381C76.6901 221.388 77.0112 220.423 77.598 219.625C78.5951 218.517 80.0101 218.613 80.186 219.256C80.362 219.899 79.8854 220.653 79.3869 221.251H79.3722Z" fill="#F78B99"/>
<path d="M83.4341 226.595C82.6102 226.864 81.8732 227.352 81.3007 228.007C80.8381 228.628 80.5815 229.381 80.5675 230.158C80.08 229.303 79.8034 228.342 79.761 227.356C79.6731 225.878 80.5455 224.304 81.3153 224.008C82.7303 223.203 84.5485 223.92 84.7025 224.747C84.8565 225.575 84.1453 226.174 83.4341 226.595Z" fill="#F78B99"/>
<path d="M87.7083 234.689C86.8507 234.815 86.0428 235.173 85.3696 235.723C84.818 236.262 84.4442 236.959 84.2992 237.719C83.96 236.791 83.8469 235.795 83.9693 234.814C84.1305 233.336 85.2523 231.939 86.0587 231.784C87.591 231.23 89.2626 232.25 89.2773 233.055C89.2919 233.861 88.4928 234.371 87.7083 234.689Z" fill="#F78B99"/>
<path d="M75.0615 240.328C74.4028 240.592 73.8293 241.035 73.4046 241.607C73.0639 242.135 72.8995 242.759 72.9354 243.388C72.4892 242.727 72.2099 241.966 72.1216 241.171C71.9676 239.981 72.5835 238.643 73.192 238.362C74.3064 237.623 75.824 238.111 75.9853 238.746C76.1466 239.382 75.6187 239.929 75.0615 240.328Z" fill="#F78B99"/>
<path d="M68.4704 217.814C68.7873 217.462 69.1779 217.184 69.6141 217.001C70.0045 216.854 70.4251 216.806 70.8384 216.861C70.4773 216.562 70.0452 216.364 69.5847 216.284C69.2428 216.212 68.8899 216.21 68.5473 216.279C68.2046 216.348 67.8792 216.485 67.5906 216.684C66.9014 217.231 66.9014 218.081 67.2753 218.206C67.6492 218.332 68.1038 218.081 68.4704 217.814Z" fill="#F78B99"/>
<path d="M70.0097 214.348C69.927 214.814 69.9445 215.293 70.061 215.752C70.1859 216.155 70.4076 216.521 70.7062 216.817C70.1379 216.681 69.6265 216.367 69.2448 215.922C68.8631 215.476 68.6305 214.92 68.5801 214.333C68.5801 213.446 69.2619 212.929 69.5845 213.151C69.9071 213.372 69.9951 213.912 70.0097 214.348Z" fill="#F78B99"/>
<path d="M57.9425 233.292C58.2563 232.939 58.6446 232.661 59.0789 232.479C59.4695 232.331 59.8899 232.283 60.3033 232.338C59.9412 232.041 59.5095 231.843 59.0496 231.762C58.7075 231.692 58.3551 231.691 58.0128 231.76C57.6706 231.828 57.3451 231.965 57.0554 232.161C56.3662 232.715 56.3662 233.558 56.7402 233.691C57.1141 233.824 57.576 233.565 57.9425 233.292Z" fill="#F78B99"/>
<path d="M59.7753 229.818C59.6568 230.276 59.6368 230.755 59.7167 231.222C59.8031 231.637 59.9952 232.021 60.2739 232.338C59.7181 232.156 59.2338 231.801 58.8901 231.325C58.5465 230.848 58.361 230.274 58.3604 229.685C58.441 228.805 59.1448 228.347 59.4601 228.591C59.7753 228.835 59.8047 229.33 59.7753 229.818Z" fill="#F78B99"/>
<path d="M61.0654 252.243C68.8808 253.108 76.1537 256.589 83.1627 259.974C87.8842 262.266 87.6496 262.931 88.61 263.256C88.6458 263.269 88.6844 263.271 88.7212 263.261C88.7579 263.252 88.7909 263.231 88.8161 263.203C88.8413 263.174 88.8575 263.139 88.8625 263.101C88.8676 263.063 88.8614 263.024 88.8446 262.99C88.4781 262.251 87.503 261.748 86.8285 261.327C86.0397 260.834 85.2247 260.385 84.3871 259.982C82.6055 259.11 80.7799 258.326 78.9617 257.528C75.2845 255.847 71.4855 254.451 67.5978 253.352C65.4584 252.782 63.276 252.391 61.0728 252.184V252.243H61.0654Z" fill="#F78B99"/>
<path d="M68.1112 249.826C67.8883 250.543 67.8257 251.3 67.9279 252.044C68.0394 252.693 68.3118 253.303 68.7197 253.817C68.0339 253.565 67.425 253.137 66.9529 252.576C66.587 252.168 66.3058 251.69 66.1257 251.171C65.9457 250.652 65.8704 250.102 65.9044 249.553C66.0877 248.178 67.2168 247.513 67.686 247.912C68.1552 248.311 68.2065 249.087 68.1112 249.826Z" fill="#F78B99"/>
<path d="M74.9879 252.287C74.7681 253.004 74.708 253.761 74.8119 254.505C74.9234 255.154 75.1958 255.764 75.6037 256.279C74.7474 255.958 74.0134 255.373 73.5065 254.608C72.9996 253.842 72.7457 252.934 72.7811 252.014C72.9717 250.639 74.1008 249.974 74.57 250.373C75.0392 250.772 75.0612 251.578 74.9879 252.287Z" fill="#F78B99"/>
<path d="M81.9828 255.429C81.763 256.146 81.7029 256.903 81.8068 257.646C81.9183 258.295 82.1906 258.905 82.5986 259.42C81.9106 259.171 81.299 258.746 80.8244 258.186C80.4609 257.776 80.1816 257.298 80.0029 256.779C79.8242 256.261 79.7495 255.711 79.7833 255.163C79.9666 253.788 81.0956 253.115 81.5649 253.522C82.0341 253.928 82.0561 254.719 81.9828 255.429Z" fill="#F78B99"/>
<path d="M66.0509 256.286C66.2865 255.644 66.6537 255.06 67.1286 254.571C67.5736 254.16 68.1125 253.865 68.6976 253.714C67.8894 253.466 67.0239 253.483 66.2257 253.761C65.4274 254.04 64.7374 254.567 64.2547 255.266C63.6388 256.382 64.1007 257.484 64.6652 257.484C65.2298 257.484 65.7136 256.855 66.0509 256.286Z" fill="#F78B99"/>
<path d="M73.2138 258.844C73.4434 258.199 73.8114 257.613 74.2916 257.129C74.7349 256.717 75.2708 256.42 75.8532 256.264C75.2083 256.068 74.5248 256.04 73.8663 256.183C73.371 256.28 72.8997 256.475 72.4794 256.757C72.0592 257.038 71.6983 257.401 71.4176 257.824C70.7944 258.94 71.2636 260.041 71.8282 260.041C72.3927 260.041 72.8692 259.435 73.2138 258.844Z" fill="#F78B99"/>
<path d="M60.5962 253.655C60.8294 253.282 61.1395 252.965 61.5053 252.724C61.836 252.522 62.2117 252.408 62.5977 252.391C62.2178 252.182 61.7917 252.072 61.3587 252.073C60.7057 252.065 60.0759 252.318 59.6065 252.775C59.0713 253.396 59.2106 254.165 59.6065 254.254C60.0024 254.342 60.3396 253.995 60.6402 253.684L60.5962 253.655Z" fill="#F78B99"/>
<path d="M61.4248 250.262C61.4287 250.702 61.5262 251.135 61.7107 251.534C61.8788 251.878 62.1312 252.173 62.4439 252.391C62.0096 252.378 61.5867 252.248 61.2195 252.014C60.6755 251.669 60.2883 251.122 60.1418 250.491C60.0025 249.678 60.523 249.094 60.8749 249.242C61.2269 249.39 61.3662 249.848 61.4541 250.262H61.4248Z" fill="#F78B99"/>
<path d="M185.335 263.249C185.335 263.249 176.009 226.056 179.103 222.316C183.377 217.142 186.904 234.282 187.248 232.833C190.518 219.086 191.391 201.502 201.912 199.639C207.909 198.582 200.533 212.714 200.973 216.543C201.413 220.372 212.22 207.673 218.781 201.021C225.343 194.369 228.73 198.582 224.588 206.934C220.578 215.02 207.601 223.853 210.277 224.903C212.953 225.952 229.185 215.508 231.172 219.973C233.606 225.449 209.258 232.893 211.552 234.127C213.847 235.361 225.482 231.303 225.167 235.487C224.852 239.67 209.206 239.515 209.47 241.363C209.903 244.319 220.248 237.593 220.702 241.718C221.157 245.842 207.095 245.169 207.337 248.459C207.476 250.351 210.497 247.498 210.944 250.114C211.956 256.086 193.4 263.359 193.4 263.359L185.335 263.241V263.249Z" fill="#EDBEC3"/>
<path d="M185.658 264.017C185.768 261.756 186.501 251.452 194.236 246.101C195.82 245 201.142 241.326 205.285 243.721C208.371 245.495 208.951 249.582 209.06 250.513C209.97 245.147 214.53 241.43 219.178 241.592C224.669 241.784 229.493 247.372 228.54 253.862C231.282 254.265 233.79 255.641 235.615 257.742C238.79 261.593 238.958 267.647 235.901 272.783C231.502 277.773 224.633 278.844 219.962 275.843C214.896 272.584 214.794 266.02 214.794 265.547C215.014 267.277 215.102 270.344 213.225 272.399C210.08 275.851 202.821 274.883 198.826 271.571C195.109 268.504 195.49 264.476 191.956 263.19C189.625 262.34 187.183 263.256 185.658 264.017Z" fill="#FFD9DF"/>
<path d="M198.766 223.387C191.053 235.547 185.494 248.964 182.336 263.042L181.816 262.901C185.001 248.947 190.535 235.647 198.18 223.58C199.954 220.786 201.846 217.467 205.204 216.373C205.262 216.373 205.291 216.454 205.204 216.477C202.168 217.63 200.409 220.771 198.744 223.387H198.766Z" fill="#F78B99"/>
<path d="M184.184 263.537C193.032 251.408 203.577 240.635 215.49 231.555C215.614 231.466 215.783 231.681 215.658 231.777C203.925 240.875 193.554 251.632 184.866 263.714L184.184 263.537Z" fill="#F78B99"/>
<path d="M199.441 215.915C199.976 216.506 200.376 217.207 200.614 217.97C200.797 218.656 200.809 219.377 200.651 220.069C201.207 219.504 201.608 218.804 201.817 218.036C201.988 217.468 202.045 216.871 201.983 216.281C201.921 215.691 201.743 215.119 201.458 214.599C200.651 213.343 199.258 213.217 198.965 213.86C198.672 214.503 199.045 215.287 199.441 215.952V215.915Z" fill="#F78B99"/>
<path d="M201.303 226.669C200.726 226.121 200.038 225.705 199.287 225.45C198.61 225.251 197.895 225.223 197.205 225.368C197.777 224.821 198.479 224.432 199.243 224.237C199.81 224.076 200.403 224.03 200.987 224.104C201.572 224.178 202.135 224.369 202.645 224.666C203.877 225.501 203.972 226.928 203.378 227.187C202.784 227.445 201.963 227.083 201.318 226.669H201.303Z" fill="#F78B99"/>
<path d="M198.539 231.385C197.962 230.83 197.267 230.413 196.508 230.165C195.835 229.962 195.121 229.934 194.434 230.084C194.998 229.53 195.699 229.14 196.464 228.953C197.032 228.793 197.626 228.748 198.211 228.82C198.796 228.892 199.361 229.081 199.874 229.374C201.098 230.217 201.201 231.636 200.607 231.902C200.013 232.168 199.192 231.799 198.539 231.385Z" fill="#F78B99"/>
<path d="M208.393 242.317C207.817 241.766 207.129 241.35 206.377 241.097C205.702 240.898 204.989 240.87 204.302 241.016C204.869 240.466 205.569 240.076 206.333 239.885C206.9 239.722 207.495 239.676 208.08 239.75C208.666 239.823 209.231 240.015 209.742 240.314C210.966 241.149 211.069 242.575 210.475 242.834C209.881 243.093 209.06 242.731 208.407 242.317H208.393Z" fill="#F78B99"/>
<path d="M213.429 237.845C212.852 237.297 212.164 236.881 211.413 236.625C210.738 236.418 210.02 236.39 209.331 236.544C209.903 235.997 210.605 235.608 211.369 235.413C211.936 235.251 212.529 235.206 213.113 235.279C213.698 235.353 214.261 235.544 214.771 235.842C216.003 236.677 216.098 238.103 215.504 238.362C214.91 238.621 214.097 238.259 213.444 237.845H213.429Z" fill="#F78B99"/>
<path d="M195.607 221.251C196.223 221.75 196.723 222.378 197.073 223.092C197.37 223.736 197.497 224.446 197.44 225.154C198.012 224.345 198.315 223.374 198.306 222.381C198.296 221.388 197.975 220.423 197.389 219.625C196.391 218.517 194.976 218.613 194.8 219.256C194.625 219.899 195.101 220.653 195.6 221.251H195.607Z" fill="#F78B99"/>
<path d="M191.545 226.595C192.369 226.864 193.106 227.352 193.678 228.007C194.141 228.628 194.397 229.381 194.411 230.158C194.899 229.303 195.175 228.342 195.218 227.356C195.306 225.878 194.433 224.304 193.664 224.008C192.249 223.203 190.43 223.92 190.276 224.747C190.122 225.575 190.841 226.174 191.552 226.625L191.545 226.595Z" fill="#F78B99"/>
<path d="M187.271 234.689C188.128 234.815 188.936 235.173 189.61 235.723C190.165 236.259 190.54 236.957 190.68 237.719C191.023 236.792 191.136 235.795 191.01 234.814C190.849 233.336 189.727 231.939 188.92 231.784C187.388 231.23 185.717 232.25 185.702 233.055C185.687 233.861 186.486 234.371 187.271 234.689Z" fill="#F78B99"/>
<path d="M199.918 240.328C200.576 240.592 201.15 241.035 201.575 241.607C201.915 242.135 202.08 242.759 202.044 243.388C202.49 242.726 202.772 241.966 202.865 241.171C203.012 239.981 202.396 238.643 201.787 238.362C200.673 237.623 199.155 238.111 198.994 238.746C198.833 239.382 199.36 239.944 199.918 240.343V240.328Z" fill="#F78B99"/>
<path d="M206.509 217.814C206.192 217.462 205.801 217.184 205.365 217.001C204.974 216.854 204.554 216.806 204.141 216.861C204.502 216.562 204.934 216.364 205.394 216.284C205.736 216.212 206.089 216.21 206.432 216.279C206.774 216.348 207.1 216.485 207.388 216.684C208.078 217.231 208.078 218.081 207.704 218.206C207.33 218.332 206.875 218.081 206.509 217.814Z" fill="#F78B99"/>
<path d="M204.969 214.348C205.052 214.814 205.034 215.293 204.918 215.752C204.793 216.155 204.571 216.521 204.272 216.817C204.841 216.681 205.352 216.367 205.734 215.922C206.116 215.476 206.348 214.92 206.399 214.333C206.399 213.446 205.717 212.929 205.394 213.151C205.072 213.372 204.984 213.89 204.969 214.348Z" fill="#F78B99"/>
<path d="M217.037 233.292C216.721 232.94 216.333 232.663 215.9 232.479C215.51 232.331 215.089 232.283 214.676 232.338C215.038 232.041 215.47 231.843 215.929 231.762C216.272 231.692 216.624 231.691 216.966 231.76C217.309 231.828 217.634 231.965 217.924 232.161C218.613 232.715 218.613 233.558 218.239 233.691C217.865 233.824 217.403 233.565 217.037 233.292Z" fill="#F78B99"/>
<path d="M215.204 229.818C215.323 230.276 215.343 230.755 215.263 231.222C215.174 231.634 214.985 232.018 214.713 232.338C215.267 232.154 215.749 231.798 216.091 231.322C216.433 230.846 216.618 230.273 216.619 229.685C216.538 228.805 215.835 228.347 215.519 228.591C215.204 228.835 215.175 229.33 215.204 229.818Z" fill="#F78B99"/>
<path d="M213.914 252.243C206.098 253.108 198.825 256.589 191.816 259.974C187.095 262.266 187.329 262.931 186.369 263.256C186.333 263.269 186.295 263.271 186.258 263.261C186.221 263.252 186.188 263.231 186.163 263.203C186.138 263.174 186.122 263.139 186.116 263.101C186.111 263.063 186.118 263.024 186.134 262.99C186.501 262.251 187.476 261.748 188.151 261.327C188.939 260.834 189.754 260.385 190.592 259.982C192.374 259.11 194.206 258.326 196.017 257.528C199.695 255.847 203.493 254.451 207.381 253.352C209.521 252.782 211.703 252.391 213.906 252.184V252.243H213.914Z" fill="#F78B99"/>
<path d="M206.868 249.826C207.091 250.543 207.153 251.3 207.051 252.044C206.94 252.693 206.667 253.303 206.259 253.817C206.946 253.567 207.555 253.139 208.026 252.576C208.392 252.168 208.673 251.69 208.853 251.171C209.033 250.652 209.109 250.102 209.075 249.553C208.891 248.178 207.762 247.513 207.293 247.912C206.824 248.311 206.772 249.087 206.868 249.826Z" fill="#F78B99"/>
<path d="M199.991 252.287C200.211 253.004 200.271 253.761 200.167 254.505C200.056 255.154 199.783 255.764 199.375 256.279C200.063 256.028 200.674 255.603 201.15 255.044C201.883 254.213 202.26 253.124 202.198 252.014C202.008 250.639 200.878 249.974 200.409 250.373C199.94 250.772 199.918 251.578 199.991 252.287Z" fill="#F78B99"/>
<path d="M192.997 255.429C193.216 256.146 193.277 256.903 193.173 257.646C193.061 258.295 192.789 258.905 192.381 259.42C193.238 259.103 193.973 258.52 194.48 257.755C194.987 256.99 195.241 256.082 195.204 255.163C195.013 253.788 193.884 253.115 193.415 253.522C192.945 253.928 192.923 254.719 192.997 255.429Z" fill="#F78B99"/>
<path d="M208.928 256.286C208.696 255.643 208.328 255.058 207.851 254.571C207.406 254.16 206.867 253.865 206.282 253.714C207.09 253.466 207.955 253.483 208.754 253.761C209.552 254.04 210.242 254.567 210.725 255.266C211.348 256.382 210.879 257.484 210.314 257.484C209.75 257.484 209.273 256.855 208.928 256.286Z" fill="#F78B99"/>
<path d="M201.765 258.844C201.535 258.199 201.167 257.613 200.687 257.129C200.245 256.715 199.709 256.418 199.125 256.264C199.77 256.068 200.454 256.04 201.112 256.183C201.608 256.28 202.079 256.475 202.499 256.757C202.919 257.038 203.28 257.401 203.561 257.824C204.184 258.94 203.715 260.041 203.15 260.041C202.586 260.041 202.109 259.413 201.765 258.851V258.844Z" fill="#F78B99"/>
<path d="M214.383 253.655C214.151 253.284 213.843 252.966 213.481 252.723C213.148 252.522 212.77 252.408 212.381 252.391C212.762 252.183 213.188 252.074 213.62 252.073C213.944 252.068 214.265 252.128 214.566 252.248C214.866 252.369 215.141 252.548 215.373 252.775C215.908 253.396 215.769 254.165 215.373 254.253C214.977 254.342 214.639 253.995 214.346 253.684L214.383 253.655Z" fill="#F78B99"/>
<path d="M213.554 250.262C213.55 250.702 213.453 251.135 213.268 251.534C213.102 251.878 212.849 252.174 212.535 252.391C212.969 252.378 213.392 252.248 213.76 252.014C214.304 251.669 214.691 251.122 214.837 250.491C214.977 249.678 214.456 249.094 214.104 249.242C213.752 249.39 213.635 249.826 213.554 250.262Z" fill="#F78B99"/>
<path d="M88.0381 263.936H186.552V88.9249H88.0381V263.936Z" fill="#FFD9DF" stroke="#EDBEC3" stroke-width="0.46" stroke-miterlimit="10.3"/>
<path d="M186.545 83.1967H88.0381V88.9175H186.545V83.1967Z" fill="#EDBEC3" stroke="#EDBEC3" stroke-width="0.46" stroke-miterlimit="23.61"/>
<path d="M179.441 228.207H95.1719V263.929H179.441V228.207Z" fill="#FFD9DF" stroke="#EDBEC3" stroke-width="0.46" stroke-miterlimit="23.61"/>
<path d="M179.441 95.3701H95.1719V131.092H179.441V95.3701Z" stroke="#EDBEC3" stroke-width="0.46" stroke-miterlimit="23.61"/>
<path d="M142.182 124.211H172.871V102.259H142.182V124.211Z" fill="#FFD9DF" stroke="#EDBEC3" stroke-width="0.46" stroke-miterlimit="10.3"/>
<path d="M156.64 104.58H144.337V107.122H156.64V104.58Z" fill="white" stroke="#EDBEC3" stroke-width="0.46" stroke-miterlimit="23.61"/>
<path d="M170.723 104.58H158.421V107.122H170.723V104.58Z" fill="white" stroke="#EDBEC3" stroke-width="0.46" stroke-miterlimit="23.61"/>
<path d="M156.64 109.029H144.337V121.89H156.64V109.029Z" fill="white" stroke="#EDBEC3" stroke-width="0.46" stroke-miterlimit="23.61"/>
<path d="M170.723 109.029H158.421V121.89H170.723V109.029Z" fill="white" stroke="#EDBEC3" stroke-width="0.46" stroke-miterlimit="23.61"/>
<path d="M150.488 121.883V109.029" stroke="#EDBEC3" stroke-width="0.46" stroke-miterlimit="23.61"/>
<path d="M164.565 121.883V109.029" stroke="#EDBEC3" stroke-width="0.46" stroke-miterlimit="23.61"/>
<path d="M106.14 131.1H124.366V100.411H106.14V131.1Z" fill="white" stroke="#EDBEC3" stroke-width="0.46" stroke-miterlimit="23.61"/>
<path d="M122.013 113.264V119.503" stroke="#EDBEC3" stroke-width="0.46" stroke-miterlimit="23.61"/>
<path d="M124.366 100.411H106.14V106.871H124.366V100.411Z" fill="white" stroke="#EDBEC3" stroke-width="0.46" stroke-miterlimit="23.61"/>
<path fill-rule="evenodd" clip-rule="evenodd" d="M96.6162 123.45H107.577V130.021H96.6162V123.45Z" fill="white" fill-opacity="0.5" stroke="#EDBEC3" stroke-opacity="0.5" stroke-width="0.46" stroke-miterlimit="23.61"/>
<path fill-rule="evenodd" clip-rule="evenodd" d="M109.798 123.45H120.759V130.021H109.798V123.45Z" fill="white" fill-opacity="0.5" stroke="#EDBEC3" stroke-opacity="0.5" stroke-width="0.46" stroke-miterlimit="23.61"/>
<path fill-rule="evenodd" clip-rule="evenodd" d="M122.98 123.45H133.941V130.021H122.98V123.45Z" fill="white" fill-opacity="0.5" stroke="#EDBEC3" stroke-opacity="0.5" stroke-width="0.46" stroke-miterlimit="23.61"/>
<path d="M95.1719 122.341H135.334" stroke="#EDBEC3" stroke-width="0.46" stroke-miterlimit="23.61"/>
<path d="M135.056 122.045V131.1" stroke="#EDBEC3" stroke-width="0.46" stroke-miterlimit="23.61"/>
<path d="M121.874 122.045V131.1" stroke="#EDBEC3" stroke-width="0.46" stroke-miterlimit="23.61"/>
<path d="M108.684 122.045V131.1" stroke="#EDBEC3" stroke-width="0.46" stroke-miterlimit="23.61"/>
<path d="M135.056 131.1V95.3701" stroke="#EDBEC3" stroke-width="0.46" stroke-miterlimit="23.61"/>
<path d="M179.441 131.1H95.1719V134.418H179.441V131.1Z" fill="#EDBEC3" stroke="#EDBEC3" stroke-width="0.46" stroke-miterlimit="23.61"/>
<path d="M135.056 131.1V95.3701" stroke="#EDBEC3" stroke-width="0.46" stroke-miterlimit="23.61"/>
<path d="M179.441 139.651H95.1719V175.373H179.441V139.651Z" stroke="#EDBEC3" stroke-width="0.46" stroke-miterlimit="23.61"/>
<path d="M150.254 175.374H168.473V144.692H150.254V175.374Z" fill="white" stroke="#EDBEC3" stroke-width="0.46" stroke-miterlimit="23.61"/>
<path d="M166.126 157.538V163.777" stroke="#EDBEC3" stroke-width="0.46" stroke-miterlimit="23.61"/>
<path d="M168.48 144.692H150.254V151.152H168.48V144.692Z" fill="white" stroke="#EDBEC3" stroke-width="0.46" stroke-miterlimit="23.61"/>
<path fill-rule="evenodd" clip-rule="evenodd" d="M140.723 167.731H151.691V174.302H140.723V167.731Z" fill="white" fill-opacity="0.5" stroke="#EDBEC3" stroke-opacity="0.5" stroke-width="0.46" stroke-miterlimit="23.61"/>
<path fill-rule="evenodd" clip-rule="evenodd" d="M153.905 167.731H164.873V174.302H153.905V167.731Z" fill="white" fill-opacity="0.5" stroke="#EDBEC3" stroke-opacity="0.5" stroke-width="0.46" stroke-miterlimit="23.61"/>
<path fill-rule="evenodd" clip-rule="evenodd" d="M167.094 167.731H178.055V174.302H167.094V167.731Z" fill="white" fill-opacity="0.5" stroke="#EDBEC3" stroke-opacity="0.5" stroke-width="0.46" stroke-miterlimit="23.61"/>
<path d="M139.286 166.622H179.441" stroke="#EDBEC3" stroke-width="0.46" stroke-miterlimit="23.61"/>
<path d="M179.162 166.327V175.381" stroke="#EDBEC3" stroke-width="0.46" stroke-miterlimit="23.61"/>
<path d="M165.98 166.327V175.381" stroke="#EDBEC3" stroke-width="0.46" stroke-miterlimit="23.61"/>
<path d="M152.798 166.327V175.381" stroke="#EDBEC3" stroke-width="0.46" stroke-miterlimit="23.61"/>
<path d="M139.286 175.381V139.651" stroke="#EDBEC3" stroke-width="0.46" stroke-miterlimit="23.61"/>
<path d="M179.441 175.381H95.1719V178.7H179.441V175.381Z" fill="#EDBEC3" stroke="#EDBEC3" stroke-width="0.46" stroke-miterlimit="23.61"/>
<path d="M101.616 168.492H132.306V146.533H101.616V168.492Z" fill="#FFD9DF" stroke="#EDBEC3" stroke-width="0.46" stroke-miterlimit="10.3"/>
<path d="M116.074 148.861H103.771V151.404H116.074V148.861Z" fill="white" stroke="#EDBEC3" stroke-width="0.46" stroke-miterlimit="23.61"/>
<path d="M130.158 148.861H117.855V151.404H130.158V148.861Z" fill="white" stroke="#EDBEC3" stroke-width="0.46" stroke-miterlimit="23.61"/>
<path d="M116.074 153.31H103.771V166.171H116.074V153.31Z" fill="white" stroke="#EDBEC3" stroke-width="0.46" stroke-miterlimit="23.61"/>
<path d="M130.158 153.31H117.855V166.171H130.158V153.31Z" fill="white" stroke="#EDBEC3" stroke-width="0.46" stroke-miterlimit="23.61"/>
<path d="M109.923 166.164V153.31" stroke="#EDBEC3" stroke-width="0.46" stroke-miterlimit="23.61"/>
<path d="M124.007 166.164V153.31" stroke="#EDBEC3" stroke-width="0.46" stroke-miterlimit="23.61"/>
<path d="M179.441 183.933H95.1719V219.655H179.441V183.933Z" stroke="#EDBEC3" stroke-width="0.46" stroke-miterlimit="23.61"/>
<path d="M106.14 219.655H124.366V188.973H106.14V219.655Z" fill="white" stroke="#EDBEC3" stroke-width="0.46" stroke-miterlimit="23.61"/>
<path d="M122.013 201.82V208.058" stroke="#EDBEC3" stroke-width="0.46" stroke-miterlimit="23.61"/>
<path d="M124.366 188.973H106.14V195.433H124.366V188.973Z" fill="white" stroke="#EDBEC3" stroke-width="0.46" stroke-miterlimit="23.61"/>
<path fill-rule="evenodd" clip-rule="evenodd" d="M96.6162 212.012H107.577V218.576H96.6162V212.012Z" fill="white" fill-opacity="0.5" stroke="#EDBEC3" stroke-opacity="0.5" stroke-width="0.46" stroke-miterlimit="23.61"/>
<path fill-rule="evenodd" clip-rule="evenodd" d="M109.798 212.012H120.759V218.576H109.798V212.012Z" fill="white" fill-opacity="0.5" stroke="#EDBEC3" stroke-opacity="0.5" stroke-width="0.46" stroke-miterlimit="23.61"/>
<path fill-rule="evenodd" clip-rule="evenodd" d="M122.98 212.012H133.941V218.576H122.98V212.012Z" fill="white" fill-opacity="0.5" stroke="#EDBEC3" stroke-opacity="0.5" stroke-width="0.46" stroke-miterlimit="23.61"/>
<path d="M95.1719 210.896H135.334" stroke="#EDBEC3" stroke-width="0.46" stroke-miterlimit="23.61"/>
<path d="M135.056 210.608V219.655" stroke="#EDBEC3" stroke-width="0.46" stroke-miterlimit="23.61"/>
<path d="M121.874 210.608V219.655" stroke="#EDBEC3" stroke-width="0.46" stroke-miterlimit="23.61"/>
<path d="M108.684 210.608V219.655" stroke="#EDBEC3" stroke-width="0.46" stroke-miterlimit="23.61"/>
<path d="M135.056 219.655V183.933" stroke="#EDBEC3" stroke-width="0.46" stroke-miterlimit="23.61"/>
<path d="M179.441 219.655H95.1719V222.973H179.441V219.655Z" fill="#EDBEC3" stroke="#EDBEC3" stroke-width="0.46" stroke-miterlimit="23.61"/>
<path d="M142.182 212.773H172.871V190.814H142.182V212.773Z" fill="#FFD9DF" stroke="#EDBEC3" stroke-width="0.46" stroke-miterlimit="10.3"/>
<path d="M156.64 193.142H144.337V195.685H156.64V193.142Z" fill="white" stroke="#EDBEC3" stroke-width="0.46" stroke-miterlimit="23.61"/>
<path d="M170.723 193.142H158.421V195.685H170.723V193.142Z" fill="white" stroke="#EDBEC3" stroke-width="0.46" stroke-miterlimit="23.61"/>
<path d="M156.64 197.592H144.337V210.453H156.64V197.592Z" fill="white" stroke="#EDBEC3" stroke-width="0.46" stroke-miterlimit="23.61"/>
<path d="M170.723 197.592H158.421V210.453H170.723V197.592Z" fill="white" stroke="#EDBEC3" stroke-width="0.46" stroke-miterlimit="23.61"/>
<path d="M150.488 210.445V197.592" stroke="#EDBEC3" stroke-width="0.46" stroke-miterlimit="23.61"/>
<path d="M164.565 210.445V197.592" stroke="#EDBEC3" stroke-width="0.46" stroke-miterlimit="23.61"/>
<path d="M169.983 237.291H104.637V263.936H169.983V237.291Z" fill="white" stroke="#EDBEC3" stroke-width="0.46" stroke-miterlimit="23.61"/>
<path d="M137.49 308.092C213.41 308.092 274.956 304.352 274.956 299.74C274.956 295.127 213.41 291.387 137.49 291.387C61.5692 291.387 0.0234375 295.127 0.0234375 299.74C0.0234375 304.352 61.5692 308.092 137.49 308.092Z" fill="#E799A3" fill-opacity="0.3"/>
<path d="M90.3551 47.0014C90.6263 48.7162 91.1322 49.9136 92.7232 53.0401C96.6015 60.6384 97.8552 61.5697 97.5986 64.031C97.408 65.7901 96.3083 67.4014 95.4505 69.5744C90.9416 80.9644 80.2009 73.1297 78.0674 75.2436C75.4427 77.8527 72.9353 88.3114 76.0366 95.9392C81 108.083 78.4047 110.249 77.019 114.802C76.6964 115.881 68.3751 132.681 55.3323 131.964C52.0344 131.705 48.878 130.504 46.233 128.501C43.5881 126.498 41.564 123.777 40.398 120.656C37.656 112.924 43.5359 109.569 41.5564 99.5166C39.9874 91.5488 35.9477 91.6523 33.7996 81.201C32.3333 73.9723 33.4257 69.604 33.9022 67.9631C34.4668 66.0192 35.6691 61.8727 39.1369 58.4505C43.9464 53.7127 48.1914 55.2131 54.0126 49.714C55.9335 47.9105 56.4394 42.404 58.9614 39.514C61.7841 36.2692 70.5086 30.4744 79.7903 31.997C82.3916 32.492 84.7852 33.7642 86.66 35.6484C88.2903 37.36 89.4523 39.4686 90.0325 41.7683C90.6043 43.9266 89.9665 44.5623 90.3551 47.0014Z" fill="#091E25"/>
<path d="M39.291 266.545L30.7204 263.818C30.3245 267.321 26.5561 273.131 24.6205 276.065L23.2129 277.44L39.7455 283.59L39.071 281.609C36.6149 276.686 39.291 266.582 39.291 266.582V266.545Z" fill="white"/>
<path d="M40.7574 284.632L22.0767 277.684L24.1442 275.696C25.6984 273.323 29.7088 267.203 30.1047 263.773L30.1927 263.034L40.0389 266.176L39.8923 266.752C39.8923 266.856 37.3043 276.686 39.621 281.335L39.6577 281.417L40.7574 284.632ZM24.3568 277.174L38.7412 282.525L38.492 281.786C36.2925 277.351 38.0081 269.221 38.5433 266.937L31.2118 264.601C30.4786 267.92 27.6266 272.591 25.1339 276.383L25.0459 276.487L24.3568 277.174Z" fill="#091E25"/>
<path d="M40.1267 278.187C40.0773 278.029 39.9958 277.883 39.8874 277.758C39.7789 277.634 39.6459 277.534 39.4968 277.464C39.3478 277.395 39.186 277.357 39.0217 277.354C38.8575 277.351 38.6945 277.383 38.5431 277.447L33.1398 279.731C32.6392 279.945 32.1016 280.058 31.5579 280.062C31.0141 280.067 30.4748 279.963 29.9709 279.757C29.4669 279.551 29.0082 279.247 28.621 278.862C28.2338 278.477 27.9258 278.019 27.7144 277.514L25.7496 272.739C25.7005 272.623 25.6279 272.519 25.5365 272.433C25.4451 272.347 25.3368 272.282 25.2187 272.241C25.1006 272.2 24.9752 272.184 24.8507 272.195C24.7262 272.205 24.6054 272.242 24.4959 272.303C20.2949 274.594 16.4312 281.313 14.9209 284.181C14.7183 284.563 14.6431 285.001 14.7064 285.43C14.7698 285.858 14.9684 286.255 15.2728 286.561C25.1484 296.539 35.2806 300.42 39.9068 301.417C47.3849 303.029 51.4466 299.703 51.8352 297.611V297.426C51.8675 297.243 51.8558 297.055 51.8009 296.877C51.7461 296.7 51.6497 296.538 51.5199 296.406L48.7413 293.627C45.1137 290.014 42.4137 285.564 40.8745 280.663L40.0974 278.187H40.1267Z" fill="white"/>
<path d="M43.7119 302.474C42.3901 302.468 41.0728 302.319 39.7822 302.031C37.6414 301.565 26.4168 298.683 14.833 287.004C14.4342 286.603 14.174 286.083 14.0908 285.522C14.0076 284.96 14.1059 284.386 14.3711 283.885C15.8741 281.032 19.8404 274.129 24.2027 271.749C24.3886 271.647 24.5935 271.585 24.8043 271.568C25.0151 271.55 25.2272 271.577 25.4271 271.647C25.6271 271.716 25.8105 271.827 25.9657 271.972C26.121 272.116 26.2446 272.292 26.3289 272.488L28.2864 277.248C28.4636 277.679 28.7238 278.071 29.0519 278.401C29.3801 278.731 29.7697 278.992 30.1984 279.169C30.627 279.346 31.0863 279.436 31.5496 279.434C32.0129 279.431 32.4711 279.337 32.8979 279.155L38.3013 276.863C38.5321 276.764 38.781 276.715 39.0319 276.718C39.2828 276.722 39.5303 276.778 39.7582 276.884C39.9862 276.99 40.1896 277.143 40.3554 277.333C40.5211 277.523 40.6456 277.746 40.7207 277.987L41.4978 280.463C43.0076 285.267 45.6518 289.63 49.2033 293.176L51.9892 295.955C52.1915 296.158 52.3419 296.407 52.4275 296.681C52.5131 296.956 52.5313 297.247 52.4805 297.53V297.714C52.1313 298.987 51.299 300.071 50.1637 300.73C48.2352 301.95 45.9873 302.558 43.7119 302.474ZM24.9505 272.82C24.8992 272.819 24.8486 272.832 24.8039 272.857C20.7496 275.075 16.9372 281.727 15.4855 284.477C15.3452 284.74 15.2936 285.043 15.3386 285.339C15.3835 285.635 15.5226 285.908 15.7348 286.117C27.0254 297.544 37.964 300.36 40.0388 300.826C45.1709 301.927 48.1035 300.604 49.4379 299.717C50.2895 299.233 50.9265 298.44 51.2194 297.5V297.315C51.2343 297.231 51.2287 297.145 51.2031 297.064C51.1776 296.983 51.1329 296.909 51.0728 296.85L48.2941 294.078C44.628 290.385 41.9014 285.854 40.3468 280.87L39.5696 278.393C39.5454 278.321 39.507 278.254 39.4566 278.197C39.4062 278.14 39.3449 278.094 39.2764 278.061C39.205 278.028 39.1275 278.011 39.0491 278.011C38.9707 278.011 38.8932 278.028 38.8218 278.061L33.4185 280.345C32.8378 280.596 32.2133 280.727 31.5816 280.731C30.9499 280.735 30.3238 280.612 29.7399 280.369C29.156 280.126 28.6261 279.768 28.1814 279.316C27.7366 278.864 27.386 278.326 27.15 277.736L25.1851 272.976C25.171 272.942 25.1499 272.913 25.1233 272.888C25.0968 272.864 25.0653 272.846 25.0312 272.835L24.9505 272.82Z" fill="#091E25"/>
<path d="M50.4421 295.948H49.555C47.1827 295.883 44.8477 295.336 42.6898 294.341C40.5319 293.345 38.5954 291.921 36.996 290.153L35.9476 289C35.8885 288.933 35.8109 288.885 35.7247 288.863C35.6385 288.84 35.5476 288.844 35.4637 288.874C35.379 288.902 35.3047 288.955 35.2509 289.026C35.1971 289.097 35.1665 289.184 35.1632 289.273L35.0239 290.818C35.0035 291.078 34.9218 291.329 34.7856 291.55C34.6494 291.772 34.4626 291.957 34.2409 292.091C34.0192 292.225 33.769 292.303 33.5111 292.32C33.2532 292.336 32.9951 292.29 32.7584 292.186C27.6796 289.976 23.1148 286.721 19.3564 282.629L17.2302 280.323C17.1814 280.274 17.1427 280.217 17.1162 280.153C17.0898 280.09 17.0762 280.022 17.0762 279.953C17.0762 279.884 17.0898 279.816 17.1162 279.753C17.1427 279.689 17.1814 279.632 17.2302 279.583C17.278 279.534 17.335 279.495 17.398 279.469C17.4609 279.442 17.5285 279.428 17.5968 279.428C17.6651 279.428 17.7327 279.442 17.7956 279.469C17.8585 279.495 17.9156 279.534 17.9634 279.583L20.0822 281.89C23.7454 285.882 28.1953 289.059 33.147 291.217C33.2359 291.257 33.333 291.275 33.4301 291.268C33.5271 291.262 33.6212 291.232 33.7042 291.18C33.7886 291.13 33.8599 291.06 33.9122 290.977C33.9644 290.893 33.9962 290.798 34.0048 290.7L34.1367 289.155C34.1569 288.867 34.2605 288.591 34.4346 288.361C34.6088 288.132 34.8459 287.959 35.1166 287.863C35.3873 287.768 35.6798 287.755 35.9578 287.826C36.2358 287.896 36.4872 288.048 36.6808 288.261L37.7365 289.429C39.2425 291.101 41.0684 292.449 43.1045 293.391C45.1406 294.334 47.3447 294.852 49.5843 294.913H50.4641C50.5797 294.918 50.6902 294.963 50.7775 295.04C50.8649 295.116 50.924 295.22 50.9452 295.335C50.9664 295.45 50.9486 295.568 50.8945 295.672C50.8404 295.775 50.7533 295.856 50.6474 295.903C50.5817 295.929 50.5124 295.944 50.4421 295.948Z" fill="#091E25"/>
<path d="M92.496 275.304L83.2656 275.112C83.5295 278.379 82.4884 283.39 81.1174 286.502L80.3843 288.246L96.2351 289.096L95.1793 287.418C91.8068 283.523 92.5253 275.304 92.5253 275.304H92.496Z" fill="white"/>
<path d="M97.3788 289.791L79.4238 288.83L80.5529 286.251C81.9679 283.013 82.8916 278.12 82.6497 275.164L82.5911 274.476L93.1705 274.698L93.1118 275.363C93.1118 275.445 92.4593 283.361 95.6192 287.019L95.6778 287.093L97.3788 289.791ZM81.286 287.67L95.0327 288.409L94.6514 287.795C91.7188 284.351 91.7188 278.002 91.8288 275.918L83.9254 275.748C83.9017 279.525 83.1549 283.262 81.7259 286.753L81.286 287.67Z" fill="#091E25"/>
<path d="M93.1338 282.156L89.754 286.14C89.4397 286.512 89.0554 286.817 88.6232 287.039C88.191 287.26 87.7195 287.393 87.2361 287.429C86.7526 287.466 86.2668 287.405 85.8068 287.251C85.3468 287.097 84.9216 286.852 84.556 286.531C83.2949 285.423 81.9019 284.21 81.1248 283.538C81.0467 283.46 80.9522 283.401 80.8484 283.365C80.7446 283.329 80.634 283.317 80.5249 283.329C80.4158 283.342 80.311 283.38 80.2181 283.439C80.1253 283.498 80.0468 283.577 79.9884 283.671C77.7889 286.775 77.2317 292.607 77.0558 295.881C77.021 296.57 77.2126 297.252 77.601 297.82C77.9894 298.388 78.5528 298.81 79.2039 299.023C90.5238 302.607 99.6736 301.654 103.625 300.619C110.224 298.904 112.108 294.64 111.587 292.829L111.536 292.666C111.493 292.507 111.412 292.362 111.299 292.243C111.187 292.124 111.046 292.036 110.891 291.986L107.592 290.892C103.289 289.482 99.3929 287.033 96.2424 283.76L94.6441 282.104C94.5434 282.004 94.4236 281.926 94.2918 281.874C94.1601 281.822 94.0193 281.798 93.878 281.802C93.7366 281.807 93.5978 281.841 93.4698 281.902C93.3419 281.963 93.2276 282.049 93.1338 282.156Z" fill="white"/>
<path d="M95.0325 302.186C89.6037 302.154 84.2116 301.286 79.0424 299.614C78.2612 299.363 77.5841 298.858 77.1161 298.179C76.6482 297.501 76.4156 296.685 76.4544 295.859C76.601 292.563 77.1875 286.553 79.4676 283.294C79.5782 283.134 79.7208 283 79.8863 282.899C80.0517 282.798 80.2363 282.734 80.4281 282.71C80.6241 282.688 80.8226 282.706 81.0116 282.763C81.2005 282.82 81.3761 282.915 81.5278 283.043L84.959 286.043C85.5752 286.574 86.3747 286.837 87.1825 286.774C87.9904 286.712 88.7409 286.33 89.2699 285.711L92.6497 281.727C92.8024 281.551 92.9892 281.409 93.1984 281.308C93.4077 281.208 93.6352 281.152 93.8668 281.143C94.0982 281.137 94.3283 281.179 94.5428 281.267C94.7573 281.354 94.9515 281.486 95.1131 281.653L96.7114 283.309C99.7909 286.509 103.595 288.909 107.797 290.301L111.103 291.387C111.353 291.473 111.578 291.617 111.761 291.809C111.943 292.001 112.077 292.234 112.152 292.489L112.196 292.644C112.424 293.813 112.19 295.025 111.543 296.022C110.751 297.419 108.698 299.947 103.801 301.233C100.927 301.905 97.9827 302.225 95.0325 302.186ZM80.604 283.967C80.5845 283.971 80.566 283.978 80.5496 283.99C80.5332 284.001 80.5193 284.016 80.5087 284.033C78.4119 286.99 77.862 292.755 77.7227 295.911C77.6957 296.461 77.849 297.006 78.159 297.46C78.469 297.914 78.9185 298.253 79.4383 298.424C92.4078 302.533 101.77 300.471 103.515 300.013C107.973 298.853 109.798 296.62 110.495 295.401C110.971 294.698 111.162 293.839 111.03 292.999L110.986 292.844C110.969 292.784 110.938 292.73 110.896 292.685C110.854 292.64 110.802 292.606 110.744 292.585L107.437 291.491C103.042 290.043 99.0611 287.54 95.839 284.196L94.248 282.54C94.2063 282.499 94.157 282.467 94.1029 282.445C94.0488 282.424 93.9909 282.413 93.9328 282.414C93.8124 282.42 93.699 282.473 93.6175 282.562L90.201 286.546C89.8329 286.979 89.3836 287.334 88.8789 287.592C88.3743 287.849 87.8241 288.004 87.2601 288.046C86.6961 288.089 86.1293 288.019 85.5923 287.84C85.0552 287.661 84.5585 287.377 84.1305 287.004L80.6993 284.011C80.6728 283.987 80.6395 283.971 80.604 283.967Z" fill="#091E25"/>
<path d="M79.9367 293.974L77.3414 292.999C77.215 292.951 77.1127 292.854 77.057 292.73C77.0013 292.606 76.9968 292.465 77.0444 292.337C77.0921 292.21 77.188 292.107 77.311 292.05C77.4341 291.994 77.5742 291.99 77.7006 292.038L80.2887 293.013C84.7557 294.711 89.5259 295.446 94.2919 295.172C94.3701 295.168 94.4462 295.145 94.5137 295.105C94.5813 295.065 94.6385 295.009 94.6805 294.943C94.7222 294.877 94.7474 294.803 94.7538 294.725C94.7601 294.648 94.7476 294.57 94.7171 294.499L94.2112 293.22C94.1139 292.971 94.0904 292.699 94.1438 292.436C94.1971 292.174 94.325 291.933 94.5118 291.742C94.6984 291.55 94.9373 291.418 95.1983 291.363C95.4593 291.308 95.7307 291.332 95.9781 291.432L97.2758 291.934C99.1202 292.651 101.089 292.985 103.065 292.915C105.04 292.845 106.982 292.373 108.772 291.528L109.505 291.195C109.627 291.136 109.766 291.128 109.894 291.172C110.022 291.217 110.127 291.31 110.187 291.432C110.242 291.556 110.247 291.698 110.201 291.826C110.154 291.955 110.06 292.06 109.937 292.119L109.204 292.452C107.289 293.355 105.213 293.858 103.101 293.933C100.988 294.008 98.8823 293.653 96.9092 292.888L95.6116 292.385C95.5488 292.36 95.4801 292.354 95.4138 292.367C95.3475 292.38 95.2864 292.412 95.2377 292.459C95.1885 292.508 95.1553 292.571 95.1422 292.64C95.1291 292.708 95.1368 292.779 95.1643 292.843L95.6702 294.122C95.7666 294.345 95.8072 294.588 95.7883 294.83C95.7694 295.072 95.6916 295.305 95.5619 295.51C95.4322 295.715 95.2545 295.884 95.0445 296.003C94.8345 296.122 94.5987 296.187 94.3579 296.192C93.6907 296.192 93.0235 296.251 92.3564 296.251C88.1141 296.254 83.9064 295.483 79.9367 293.974Z" fill="#091E25"/>
<path d="M64.0204 140.79L86.0883 134.071L95.8833 154.567C102.18 167.696 106.445 181.72 108.53 196.15C108.955 199.107 109.263 201.96 109.366 204.392C109.813 215.043 95.744 268.482 93.6471 276.376C93.5723 276.657 93.4087 276.905 93.1812 277.084C92.9536 277.263 92.6745 277.362 92.3861 277.366L83.4783 277.462C83.1778 277.469 82.8843 277.371 82.6467 277.185C82.4092 276.999 82.2421 276.737 82.1733 276.442C74.8418 244.778 83.2144 197.688 68.5146 177.28C57.6053 162.136 64.0057 140.79 64.0057 140.79H64.0204Z" fill="#091E25"/>
<path d="M87.5985 147.006C87.5985 147.006 86.0442 183.112 77.7376 204.843C70.1568 224.651 44.1078 264.86 40.4054 269.103C40.2219 269.309 39.9949 269.471 39.7412 269.577C39.4875 269.683 39.2134 269.731 38.9391 269.716C35.5532 269.563 32.3347 268.188 29.8699 265.843C29.6766 265.653 29.5281 265.421 29.4355 265.165C29.3429 264.909 29.3084 264.636 29.3347 264.365C31.7322 241.452 43.2647 210.682 47.0331 204.562C53.2804 193.969 55.2738 181.369 52.6051 169.342C49.0419 153.48 57.0919 138.402 57.0919 138.402C66.9162 149.208 87.5985 147.006 87.5985 147.006Z" fill="#091E25"/>
<path d="M143.304 63.1071L148.663 66.9284C148.663 66.9284 150.716 63.6245 152.329 63.0332C154.419 62.1595 156.19 60.6573 157.402 58.7315C158.205 57.6053 158.598 56.2351 158.517 54.851C158.499 54.7066 158.444 54.5695 158.357 54.4531C158.27 54.3368 158.155 54.2454 158.022 54.1879C157.889 54.1304 157.744 54.1088 157.601 54.1253C157.457 54.1418 157.321 54.1958 157.204 54.2819C155.88 55.3673 154.264 56.0266 152.563 56.1741C152.148 56.188 151.742 56.0436 151.427 55.7697C151.112 55.4959 150.91 55.1125 150.863 54.6958C150.503 50.6084 157.124 45.3901 156.632 44.3923C156.09 43.2762 150.731 44.4367 147.402 48.088C144.843 50.8893 145.012 55.9967 145.137 58.1919C145.269 60.5719 143.304 63.1884 143.304 63.1884V63.1071Z" fill="white"/>
<path d="M148.853 67.8226L142.431 63.2474L142.819 62.73C142.819 62.73 144.645 60.2613 144.527 58.1474C144.425 56.3069 144.102 50.7043 146.962 47.5852C149.821 44.4661 154.161 43.0617 156.031 43.3352C156.273 43.3504 156.507 43.4259 156.713 43.5549C156.919 43.6838 157.09 43.8623 157.211 44.0743C157.57 44.8135 156.859 45.6635 155.444 47.3487C153.795 49.3222 151.294 52.3008 151.5 54.6069C151.532 54.8565 151.653 55.0856 151.841 55.2516C152.028 55.4176 152.269 55.509 152.519 55.5087C154.104 55.3858 155.615 54.7801 156.852 53.7717C157.062 53.6188 157.308 53.5246 157.565 53.4986C157.823 53.4727 158.083 53.5159 158.318 53.6239C158.548 53.7253 158.746 53.886 158.894 54.0898C159.042 54.2936 159.135 54.5332 159.161 54.7843C159.249 56.3076 158.823 57.816 157.952 59.0639C156.664 61.107 154.782 62.6996 152.563 63.6243C151.375 64.053 149.718 66.3961 149.176 67.2609L148.853 67.8226ZM144.176 62.9517L148.509 66.0413C149.242 65.0139 150.752 62.9517 152.174 62.4417C154.13 61.6138 155.786 60.1998 156.918 58.3913C157.64 57.3838 158.002 56.1591 157.944 54.9174C157.942 54.8836 157.931 54.8511 157.912 54.8236C157.892 54.7961 157.865 54.7748 157.834 54.7622C157.799 54.7427 157.76 54.7326 157.721 54.7326C157.681 54.7326 157.642 54.7427 157.607 54.7622C156.17 55.9183 154.419 56.6066 152.585 56.7356C152.011 56.7576 151.451 56.5592 151.016 56.1806C150.582 55.8019 150.307 55.2711 150.246 54.6956C149.997 51.8648 152.585 48.7826 154.484 46.5135C155.018 45.8995 155.509 45.2474 155.95 44.5622C155.114 44.2665 150.818 45.1461 147.819 48.4352C146.162 50.2461 145.459 53.4909 145.723 58.0439C145.862 60.0026 144.762 62.013 144.161 62.9517H144.176Z" fill="#091E25"/>
<path d="M53.5434 117.219C53.4403 126.893 52.4884 136.54 50.6987 146.045C76.2125 154.175 101.616 140.96 101.616 140.96C95.751 118.786 94.5707 108.357 98.2218 104.188C99.6544 102.565 100.861 100.752 101.807 98.7996C130.539 100.795 146.17 76.2266 150.063 69.1457C150.341 68.6402 150.42 68.0476 150.284 67.4859C150.148 66.9243 149.808 66.4349 149.33 66.1153L143.721 62.3605C143.278 62.0636 142.747 61.9322 142.218 61.9889C141.689 62.0456 141.196 62.2868 140.825 62.6709C136.052 67.6601 132.709 69.6705 127.629 72.0875C120.216 75.6279 111.572 78.5327 101.55 75.7831C101.24 75.4985 100.898 75.2505 100.531 75.044C99.2744 74.4241 97.9096 74.0575 96.5135 73.9648C95.6777 73.5879 94.8346 73.174 93.9841 72.7157C93.311 72.9761 92.6807 73.3374 92.1146 73.7875C87.9401 73.9165 83.7776 74.3065 79.651 74.9553C73.0781 75.8926 67.0766 79.2335 62.7884 84.3422C57.2091 91.1348 53.7706 101.512 53.5434 117.219Z" fill="#F78B99" stroke="#091E25" stroke-width="2.01" stroke-miterlimit="10.3"/>
<path d="M68.2726 149.304C62.2615 149.342 56.2803 148.449 50.5376 146.658L49.9951 146.481L50.1124 145.926C51.8861 136.451 52.833 126.838 52.9424 117.196C53.1403 102.214 56.1903 91.3268 62.2608 83.9355C66.6456 78.6903 72.8014 75.2675 79.5412 74.3268C83.6347 73.6916 87.7626 73.3066 91.9022 73.1738C92.4742 72.7465 93.1006 72.3984 93.7644 72.139L94.0283 72.0355L94.2849 72.1686C95.0914 72.6047 95.8979 73.0038 96.6897 73.3586C98.1392 73.4594 99.5546 73.8488 100.854 74.5042C101.213 74.7183 101.552 74.9658 101.866 75.2434C111.888 77.9116 120.378 74.859 127.365 71.5477C132.497 69.1012 135.745 67.1129 140.356 62.2642C140.83 61.7849 141.452 61.4839 142.119 61.4112C142.786 61.3386 143.458 61.4988 144.022 61.8651L149.675 65.6568C150.272 66.0643 150.699 66.6792 150.875 67.3841C151.051 68.089 150.963 68.8345 150.628 69.4781C146.507 76.9803 130.891 101.261 102.24 99.4868C101.297 101.353 100.124 103.091 98.7498 104.661C95.3773 108.512 96.3304 118.32 102.276 140.878L102.408 141.366L101.961 141.595C101.726 141.654 86.7041 149.304 68.2726 149.304ZM51.4101 145.609C74.3798 152.66 97.4082 142.297 100.876 140.627C94.8495 117.677 94.0357 108.009 97.7528 103.774C99.1406 102.187 100.314 100.423 101.243 98.526L101.426 98.149H101.844C130.048 100.1 145.459 76.1821 149.499 68.8055C149.705 68.4364 149.765 68.002 149.665 67.5903C149.566 67.1786 149.315 66.8204 148.964 66.5881L143.311 62.7964C142.989 62.5812 142.602 62.4863 142.218 62.5282C141.834 62.57 141.476 62.7459 141.207 63.0255C136.456 67.9851 133.142 70.0547 127.856 72.5677C120.627 76.0268 111.829 79.1755 101.353 76.3373L101.199 76.2929L101.089 76.1894C100.813 75.9394 100.511 75.7212 100.187 75.539C99.0031 74.966 97.7214 74.6272 96.4111 74.5412L96.2278 74.4894C95.4946 74.1494 94.6882 73.7503 93.911 73.3586C93.3862 73.5858 92.8932 73.8815 92.4447 74.2381L92.2834 74.3712H92.0708C87.9165 74.5023 83.7739 74.8874 79.6658 75.5242C73.2394 76.4625 67.3832 79.7606 63.2212 84.7855C57.356 91.9329 54.3794 102.525 54.1888 117.226C54.0632 126.748 53.1435 136.242 51.4394 145.609H51.4101Z" fill="#091E25"/>
<path d="M74.6287 54.0747C73.2651 53.7495 71.7841 54.5625 71.9894 56.8095C72.18 58.9308 75.1639 60.1504 76.2563 60.5051C76.3955 60.555 76.5194 60.6405 76.6158 60.7532C76.7122 60.866 76.7778 61.0021 76.8062 61.1482C79.3209 74.7482 73.4117 81.0012 73.4117 81.0012C73.4117 81.0012 72.9791 82.2356 79.9368 81.1195C89.2112 79.6412 89.1232 77.0543 89.1232 77.0543L86.7404 74.8369C86.7404 74.8369 86.1173 74.5856 86.0073 73.1591L85.5967 62.6264C85.5967 62.6264 89.6217 61.5399 90.2376 60.1725C90.4429 59.7069 89.9443 57.3417 89.7097 56.196C89.6198 55.6973 89.6785 55.1829 89.8783 54.7177L90.8754 53.2173C91.0734 52.9438 91.132 52.4782 90.8754 52.3156C87.9428 50.4308 88.1994 49.0412 86.9457 47.2673C85.4794 45.2347 81.8136 45.3751 79.0936 46.9717C76.9455 48.2208 75.6552 51.5321 75.4792 53.476C75.4715 53.5726 75.443 53.6663 75.3956 53.7506C75.3483 53.8349 75.2832 53.9078 75.205 53.9641C75.1268 54.0204 75.0373 54.0589 74.9428 54.0767C74.8484 54.0945 74.7512 54.0913 74.6581 54.0673L74.6287 54.0747Z" fill="white"/>
<path d="M75.3551 82.2578C73.7862 82.2578 73.251 81.9547 72.9944 81.6369C72.899 81.5291 72.8333 81.398 72.8037 81.2567C72.7741 81.1154 72.7817 80.9687 72.8258 80.8312L72.8698 80.7056L72.9651 80.6095C73.0164 80.5504 78.6177 74.386 76.1983 61.3034C76.1891 61.2642 76.1701 61.228 76.1432 61.1983C76.1162 61.1685 76.0822 61.1462 76.0443 61.1334C74.3947 60.5421 71.5794 59.1969 71.3668 56.8686C71.2756 56.3519 71.3136 55.8204 71.4775 55.3222C71.6413 54.8241 71.9258 54.375 72.3052 54.0156C72.6429 53.7306 73.0439 53.532 73.4741 53.4368C73.9043 53.3416 74.3509 53.3525 74.776 53.4686H74.8053C75.0106 51.3695 76.3522 47.8365 78.7423 46.4469C81.587 44.7912 85.7146 44.503 87.4155 46.9199C87.7785 47.4413 88.0881 47.9985 88.3393 48.583C88.8953 49.9486 89.896 51.0825 91.1766 51.7982C91.3014 51.8804 91.4067 51.9892 91.4853 52.1169C91.5638 52.2446 91.6136 52.3881 91.6312 52.5373C91.6939 52.9242 91.6016 53.3204 91.3746 53.6386L90.3775 55.176C90.2721 55.505 90.2445 55.8543 90.2968 56.196L90.3481 56.4325C90.8907 59.1082 90.9933 60.0691 90.7807 60.5495C90.1869 61.8799 87.4522 62.8408 86.2132 63.2104L86.6091 73.2552C86.6897 74.1717 87.0123 74.3934 87.0123 74.4008L87.1516 74.4895L89.7323 76.8473V77.1134C89.7323 77.6382 89.3657 80.3212 80.0253 81.8217C78.4817 82.085 76.9205 82.2308 75.3551 82.2578ZM74.3141 80.9273C74.9226 81.0308 76.3962 81.0899 79.8421 80.5356C86.5504 79.4638 88.0754 77.8599 88.4126 77.2834L86.3818 75.4282C86.0885 75.2508 85.502 74.6891 85.37 73.2921L84.9448 62.2052L85.4214 62.0795C86.9317 61.673 89.3217 60.7195 89.6516 59.973C89.5706 58.8447 89.399 57.725 89.1384 56.6247L89.0871 56.3808C88.9583 55.714 89.0511 55.023 89.3511 54.4147L90.3555 52.8699C90.3769 52.8378 90.3942 52.803 90.4068 52.7665C88.9741 51.9182 87.8565 50.6201 87.2249 49.0708C87.0023 48.5524 86.7297 48.0573 86.4111 47.5925C85.1501 45.8038 81.7556 46.1143 79.3728 47.4743C77.474 48.5756 76.2349 51.6799 76.0663 53.4908C76.0574 53.6841 76.0053 53.873 75.9139 54.0432C75.8225 54.2134 75.6941 54.3606 75.5384 54.4738C75.3868 54.5843 75.2134 54.6606 75.03 54.6976C74.8466 54.7346 74.6574 54.7314 74.4754 54.6882C74.243 54.6203 73.9978 54.6097 73.7605 54.6573C73.5231 54.7049 73.3006 54.8093 73.1117 54.9617C72.8899 55.1978 72.7275 55.4842 72.6382 55.7967C72.5489 56.1093 72.5353 56.4388 72.5985 56.7578C72.7525 58.4504 75.3478 59.5517 76.4622 59.9508C76.7049 60.0373 76.9208 60.1866 77.0881 60.3838C77.2554 60.581 77.3682 60.8192 77.4153 61.0743C79.5781 72.7525 75.6924 79.0869 74.3141 80.9273Z" fill="#091E25"/>
<path d="M77.4807 217.193C77.3405 217.196 77.2049 217.143 77.1024 217.046C76.9999 216.95 76.9384 216.817 76.9309 216.676C75.9338 202.854 74.1815 188.9 68.133 180.459C63.5728 174.117 61.1974 166.112 61.0801 156.659C61.08 156.51 61.1375 156.368 61.2402 156.261C61.3429 156.155 61.4828 156.093 61.6299 156.09C61.7765 156.09 61.9171 156.148 62.0214 156.251C62.1257 156.355 62.1852 156.496 62.1871 156.644C62.2898 165.861 64.5919 173.644 69.0201 179.801C75.2373 188.478 77.0042 202.61 78.0306 216.565C78.0366 216.639 78.028 216.713 78.0053 216.783C77.9827 216.853 77.9464 216.917 77.8986 216.973C77.8508 217.029 77.7925 217.074 77.7271 217.107C77.6616 217.14 77.5903 217.159 77.5174 217.164L77.4807 217.193Z" fill="white"/>
<path fill-rule="evenodd" clip-rule="evenodd" d="M218.1 29.6983V106.472H150.225V18.9883H207.535L218.1 29.6983Z" fill="white"/>
<path d="M218.716 107.1H149.586V18.3601H207.777L218.701 29.4471L218.716 107.1ZM150.847 105.844H217.476V29.9571L207.278 19.6093H150.825L150.847 105.844Z" fill="#091E25"/>
<path fill-rule="evenodd" clip-rule="evenodd" d="M173.047 39.5434V47.4964C173.047 47.7551 173.047 48.0434 173.106 48.3982C173.202 49.4471 173.399 50.4842 173.693 51.4951C173.847 52.0199 174.031 52.5357 174.242 53.0399C175.717 56.7419 178.562 59.721 182.175 61.3477C182.816 61.6254 183.481 61.8431 184.162 61.9982C184.705 61.8801 185.237 61.717 185.753 61.5104C187.743 60.6685 189.537 59.4173 191.021 57.8366C192.504 56.2559 193.644 54.3805 194.367 52.3304C194.757 51.2274 195.025 50.0848 195.167 48.923C195.232 48.4328 195.268 47.9392 195.277 47.4447V39.5434L184.162 34.5912L173.047 39.5434Z" fill="#F78B99" stroke="#091E25" stroke-width="2.01" stroke-miterlimit="10.3"/>
<path d="M184.162 62.6116C183.408 62.4522 182.671 62.217 181.963 61.9094C179.842 60.9428 177.952 59.5278 176.422 57.7603C174.891 55.9927 173.755 53.914 173.091 51.6651C172.783 50.6185 172.577 49.5441 172.476 48.4572C172.476 48.0877 172.432 47.792 172.424 47.5186V39.1294L184.155 33.9112L195.885 39.1294V47.4225C195.876 47.9466 195.836 48.4698 195.768 48.9894C195.626 50.1974 195.348 51.3852 194.939 52.5299C194.188 54.6639 193.004 56.6164 191.461 58.2621C189.918 59.9078 188.051 61.2105 185.98 62.0868C185.393 62.3221 184.784 62.4979 184.162 62.6116ZM173.663 39.9499V47.4964C173.663 47.7255 173.663 48.0064 173.715 48.3464C173.813 49.3477 174.005 50.3375 174.287 51.3029C174.434 51.8045 174.608 52.2979 174.807 52.7812C176.215 56.3387 178.946 59.2007 182.417 60.7564C182.991 60.9977 183.582 61.1977 184.184 61.3551C184.316 61.3551 185.108 61.0668 185.533 60.9042C187.442 60.1002 189.163 58.9013 190.584 57.385C192.004 55.8686 193.094 54.0685 193.781 52.1012C194.157 51.0443 194.415 49.9486 194.551 48.8342C194.61 48.3609 194.645 47.8847 194.654 47.4077V39.9499L184.162 35.2786L173.663 39.9499Z" fill="#091E25"/>
<path d="M180.914 53.6388L176.625 49.4553L178.356 47.6518L181.068 50.3053L190.05 43.0618L191.604 45.0205L180.914 53.6388Z" fill="#FEFEFE"/>
<path fill-rule="evenodd" clip-rule="evenodd" d="M156.728 82.0435H211.597V74.7187H156.728V82.0435Z" fill="white"/>
<path d="M212.213 82.6718H156.104V74.0979H212.213V82.6718ZM157.351 81.4153H210.974V75.3471H157.351V81.4153Z" fill="#091E25"/>
<path fill-rule="evenodd" clip-rule="evenodd" d="M156.728 97.3508H211.597V90.0261H156.728V97.3508Z" fill="white"/>
<path d="M212.213 97.9792H156.104V89.4348H212.213V97.9792ZM157.351 96.7227H210.974V90.6544H157.351V96.7227Z" fill="#091E25"/>
<path fill-rule="evenodd" clip-rule="evenodd" d="M218.1 29.898H207.117L207.227 18.8553L218.1 29.898Z" fill="#091E25"/>
<path d="M145.716 114.831C145.716 114.831 152.754 113.974 157.483 111.091C162.212 108.209 163.348 101.231 162.116 99.9601C160.885 98.6888 158.553 99.2727 155.885 102.761C155.115 103.767 152.571 105.459 151.486 104.609C149.36 102.991 150.848 100.47 148.824 100.374C146.046 100.256 147.637 105.718 146.434 107.255L143.355 110.515L145.716 114.831Z" fill="white"/>
<path d="M145.371 115.511L142.57 110.419L145.972 106.827C146.273 106.428 146.317 105.245 146.353 104.195C146.412 102.665 146.463 101.076 147.35 100.256C147.548 100.076 147.78 99.9382 148.032 99.8506C148.284 99.7629 148.551 99.7273 148.817 99.7458C150.349 99.8197 150.554 101.002 150.701 101.867C150.727 102.295 150.84 102.712 151.033 103.093C151.226 103.475 151.495 103.812 151.823 104.084C152.468 104.58 154.638 103.345 155.364 102.355C157.131 100.049 158.898 98.7849 160.496 98.7036C160.878 98.6757 161.262 98.7334 161.619 98.8727C161.977 99.012 162.299 99.2294 162.563 99.5093C163.297 100.308 163.223 102.008 163.099 102.946C162.732 105.674 161.126 109.598 157.798 111.609C153.003 114.528 146.067 115.401 145.782 115.438L145.371 115.511ZM144.103 110.618L146.053 114.151C147.607 113.922 153.245 112.939 157.16 110.559C160.093 108.756 161.559 105.252 161.867 102.806C162.058 101.394 161.867 100.588 161.669 100.396C161.528 100.248 161.357 100.133 161.166 100.06C160.976 99.9869 160.772 99.9579 160.569 99.9749C159.396 100.041 157.864 101.194 156.376 103.138C155.532 104.24 152.637 106.294 151.09 105.112C150.633 104.743 150.256 104.284 149.983 103.763C149.709 103.242 149.544 102.669 149.499 102.081C149.33 101.128 149.264 101.024 148.765 101.002C148.661 100.987 148.554 100.996 148.453 101.026C148.352 101.057 148.258 101.109 148.179 101.18C147.68 101.645 147.629 103.028 147.585 104.24C147.534 105.6 147.49 106.886 146.896 107.647L144.103 110.618Z" fill="#091E25"/>
<path d="M144.777 108.393C144.494 107.955 144.067 107.632 143.571 107.48C143.074 107.329 142.541 107.359 142.065 107.566C121.199 116.657 99.6516 98.0161 90.3772 90.9426C88.4677 89.4744 86.1174 88.709 83.7168 88.7735C81.3161 88.8381 79.0096 89.7287 77.1804 91.2974C70.3548 97.2104 68.2213 109.436 76.2127 113.582C119.659 136.163 143.48 122.393 148.201 116.805C148.501 116.455 148.681 116.018 148.714 115.557C148.747 115.096 148.631 114.637 148.384 114.247L144.755 108.393H144.777Z" fill="#F78B99" stroke="#091E25" stroke-width="2.01" stroke-miterlimit="10.3"/>
<path d="M120.261 126.739C106.925 126.739 92.049 122.511 75.9416 114.173C74.4365 113.387 73.1536 112.228 72.2125 110.807C71.2715 109.385 70.7031 107.746 70.5602 106.043C69.959 100.788 72.5177 94.5421 76.792 90.8613C78.7209 89.2016 81.1559 88.2588 83.6909 88.1902C86.2259 88.1216 88.7075 88.9313 90.7219 90.4843C91.3671 90.9721 92.071 91.5191 92.8261 92.1104C103.274 100.241 122.709 115.341 141.793 107.026C142.404 106.751 143.094 106.707 143.734 106.904C144.374 107.101 144.922 107.525 145.276 108.098L148.942 113.952C149.259 114.455 149.408 115.048 149.366 115.643C149.324 116.238 149.093 116.803 148.707 117.256C146.368 120.02 139.117 125.068 126.822 126.421C124.643 126.648 122.452 126.754 120.261 126.739ZM83.9916 89.4347C81.652 89.4358 79.3897 90.2799 77.6132 91.8147C73.6321 95.2369 71.2421 101.032 71.8066 105.903C71.925 107.401 72.4191 108.844 73.2424 110.097C74.0657 111.349 75.1913 112.371 76.5134 113.065C118.53 134.899 142.622 122.503 147.754 116.435C147.965 116.186 148.092 115.874 148.114 115.547C148.137 115.219 148.054 114.893 147.879 114.617L144.25 108.763C144.05 108.448 143.745 108.216 143.389 108.108C143.034 108.001 142.652 108.026 142.314 108.179C122.519 116.79 101.991 100.788 92.1003 93.1008L90.0035 91.4821C88.2734 90.1593 86.163 89.4406 83.9916 89.4347Z" fill="#091E25"/>
</svg>
